G04 DipTrace 2.4.0.2*
%INbottommask.gbr*%
%MOIN*%
%ADD11C,0.006*%
%ADD30C,0.21*%
%ADD31C,0.126*%
%ADD47C,0.0749*%
%ADD48C,0.088*%
%ADD50C,0.1655*%
%FSLAX44Y44*%
G04*
G70*
G90*
G75*
G01*
%LNBotMask*%
%LPD*%
D50*
X62440Y54690D3*
Y52690D3*
X58690Y9190D3*
X56690D3*
X7690Y24190D3*
X9690D3*
X62940Y9190D3*
X60940D3*
X7690D3*
X9690D3*
D30*
X6440Y16440D3*
Y40820D3*
Y60190D3*
X32065Y73310D3*
X63315Y87690D3*
X53940Y50810D3*
D48*
X27064Y88319D3*
X26064D3*
X25064D3*
D47*
X33381Y83382D3*
X32881Y84382D3*
X32381Y83382D3*
X31881Y84382D3*
X31381Y83382D3*
X30881Y84382D3*
D31*
X34129Y86882D3*
X30129D3*
D47*
X40507Y83382D3*
X40007Y84382D3*
X39507Y83382D3*
X39007Y84382D3*
X38507Y83382D3*
X38007Y84382D3*
D31*
X41255Y86882D3*
X37255D3*
D48*
X38289Y71149D3*
Y70149D3*
D50*
X46589Y70590D3*
X44589D3*
X42589D3*
D31*
X36590Y76796D3*
Y73843D3*
X42598Y76796D3*
X44582D3*
X46566D3*
X42598Y73843D3*
X44582D3*
X46566D3*
D50*
X46610Y80111D3*
X44610D3*
X42610D3*
D48*
X8927Y70655D3*
Y69655D3*
D50*
X16153Y70367D3*
X14153D3*
X12153D3*
X16188Y79818D3*
X14188D3*
X12188D3*
D31*
X6184Y76602D3*
Y73649D3*
X12191Y76602D3*
X14176D3*
X16160D3*
X12191Y73649D3*
X14176D3*
X16160D3*
D50*
X44440Y7940D3*
X42440D3*
X40440D3*
X46440D3*
X48440D3*
X50440D3*
X18440Y8690D3*
X16440D3*
X62440Y18690D3*
Y20690D3*
D31*
X38190Y7190D3*
Y10143D3*
X32182Y7190D3*
X30198D3*
X28214D3*
X32182Y10143D3*
X30198D3*
X28214D3*
D50*
X20690Y8690D3*
X22690D3*
X24690D3*
X44440Y15690D3*
X42440D3*
X40440D3*
X46440D3*
X48440D3*
X50440D3*
X18440Y16440D3*
X16440D3*
X62440Y22940D3*
Y24940D3*
D31*
X38190Y14940D3*
Y17893D3*
X32182Y14940D3*
X30198D3*
X28214D3*
X32182Y17893D3*
X30198D3*
X28214D3*
D50*
X20690Y16440D3*
X22690D3*
X24690D3*
X44440Y23440D3*
X42440D3*
X40440D3*
X46440D3*
X48440D3*
X50440D3*
X18440Y24190D3*
X16440D3*
X62440Y27190D3*
Y29190D3*
D31*
X38190Y22690D3*
Y25643D3*
X32182Y22690D3*
X30198D3*
X28214D3*
X32182Y25643D3*
X30198D3*
X28214D3*
D50*
X20690Y24190D3*
X22690D3*
X24690D3*
X44440Y31190D3*
X42440D3*
X40440D3*
X46440D3*
X48440D3*
X50440D3*
X18440Y31940D3*
X16440D3*
X62440Y31440D3*
Y33440D3*
D31*
X38190Y30440D3*
Y33393D3*
X32182Y30440D3*
X30198D3*
X28214D3*
X32182Y33393D3*
X30198D3*
X28214D3*
D50*
X20690Y31940D3*
X22690D3*
X24690D3*
X44440Y38940D3*
X42440D3*
X40440D3*
X46440D3*
X48440D3*
X50440D3*
X18440Y39690D3*
X16440D3*
X62440Y35690D3*
Y37690D3*
D31*
X38190Y38190D3*
Y41143D3*
X32182Y38190D3*
X30198D3*
X28214D3*
X32182Y41143D3*
X30198D3*
X28214D3*
D50*
X20690Y39690D3*
X22690D3*
X24690D3*
X44440Y46690D3*
X42440D3*
X40440D3*
X46440D3*
X48440D3*
X50440D3*
X18440Y47440D3*
X16440D3*
X62440Y39940D3*
Y41940D3*
D31*
X38190Y45940D3*
Y48893D3*
X32182Y45940D3*
X30198D3*
X28214D3*
X32182Y48893D3*
X30198D3*
X28214D3*
D50*
X20690Y47440D3*
X22690D3*
X24690D3*
X44440Y54440D3*
X42440D3*
X40440D3*
X46440D3*
X48440D3*
X50440D3*
X18440Y55190D3*
X16440D3*
X62440Y44190D3*
Y46190D3*
D31*
X38190Y53690D3*
Y56643D3*
X32182Y53690D3*
X30198D3*
X28214D3*
X32182Y56643D3*
X30198D3*
X28214D3*
D50*
X20690Y55190D3*
X22690D3*
X24690D3*
X44440Y62190D3*
X42440D3*
X40440D3*
X46440D3*
X48440D3*
X50440D3*
X18440Y62940D3*
X16440D3*
X62440Y48440D3*
Y50440D3*
D31*
X38190Y61440D3*
Y64393D3*
X32182Y61440D3*
X30198D3*
X28214D3*
X32182Y64393D3*
X30198D3*
X28214D3*
D50*
X20690Y62940D3*
X22690D3*
X24690D3*
X27130Y70383D3*
Y72383D3*
D48*
X18990Y75112D3*
Y76112D3*
D50*
X27127Y80256D3*
Y78256D3*
Y76256D3*
D31*
X20844Y70307D3*
X23797D3*
X20844Y76315D3*
Y78300D3*
Y80284D3*
X23797Y76315D3*
Y78300D3*
Y80284D3*
D50*
X58275Y70326D3*
Y72326D3*
D48*
X50047Y74945D3*
Y75945D3*
D50*
X58273Y80242D3*
Y78242D3*
Y76242D3*
D31*
X52001Y70290D3*
X54954D3*
X52001Y76298D3*
Y78282D3*
Y80266D3*
X54954Y76298D3*
Y78282D3*
Y80266D3*
%LNBoardOutline*%
X3940Y3940D2*
D11*
X66440D1*
Y90190D1*
X3940D1*
Y3940D1*
M02*
