G04 DipTrace 2.4.0.2*
%INbottom.gbr*%
%MOIN*%
%ADD11C,0.006*%
%ADD13C,0.0236*%
%ADD15C,0.0551*%
%ADD17C,0.1575*%
%ADD19C,0.1181*%
%ADD20C,0.08*%
%ADD21C,0.0669*%
%ADD28C,0.043*%
%FSLAX44Y44*%
G04*
G70*
G90*
G75*
G01*
%LNBottom*%
%LPD*%
X43942Y85758D2*
D13*
Y85692D1*
X42440Y84190D1*
Y82440D2*
X38940D1*
X38440Y82940D1*
Y83315D1*
X38507Y83382D1*
X27690Y81940D2*
X7940D1*
X6440Y80440D1*
Y78940D1*
X6190Y78690D1*
X40440Y7940D2*
D15*
X40393D1*
X38190Y10143D1*
X40440Y15690D2*
X40393D1*
X38190Y17893D1*
X40440Y23440D2*
X40393D1*
X38190Y25643D1*
X40440Y31190D2*
X40393D1*
X38190Y33393D1*
X40440Y38940D2*
X40393D1*
X38190Y41143D1*
X40440Y46690D2*
X40393D1*
X38190Y48893D1*
X40440Y54440D2*
X40393D1*
X38190Y56643D1*
X40440Y62190D2*
X40393D1*
X38190Y64393D1*
Y10143D2*
X37987D1*
X36190Y11940D1*
Y17893D1*
Y25643D1*
Y33393D1*
Y41143D1*
Y48473D1*
Y56643D1*
Y63690D1*
X36940Y64440D1*
X38143D1*
X38190Y64393D1*
Y56643D2*
X36190D1*
X38190Y48893D2*
X36610D1*
X36190Y48473D1*
X38190Y41143D2*
X36190D1*
X38190Y33393D2*
X36190D1*
X38190Y25643D2*
X36190D1*
X38190Y17893D2*
X36190D1*
X56690Y9190D2*
X56190D1*
X55190Y10190D1*
X38237D1*
X38190Y10143D1*
X60940Y9190D2*
Y10190D1*
X60190Y10940D1*
X55799D1*
X55120Y10260D1*
X55190Y10190D1*
X52001Y80266D2*
D13*
Y82129D1*
X50690Y83440D1*
X40565D1*
X40507Y83382D1*
X33381D2*
Y82881D1*
X32940Y82440D1*
X30940D1*
X29690Y83690D1*
Y85440D1*
X29440Y85690D1*
X37190Y83190D2*
X38690Y81690D1*
X40190D1*
X40440Y81940D1*
X38007Y84382D2*
Y85190D1*
X30940D1*
X38289Y71149D2*
Y72144D1*
X36590Y73843D1*
X39007Y84382D2*
Y85690D1*
X31940D1*
X39007Y84382D2*
Y83882D1*
X39507Y83382D1*
X31881Y84382D2*
Y83882D1*
X32381Y83382D1*
X27064Y88319D2*
X31811D1*
X31940Y88190D1*
Y85690D1*
X27190Y84690D2*
Y88193D1*
X27064Y88319D1*
X36590Y73843D2*
X36537D1*
X33690Y76690D1*
X30940D1*
X28440Y74190D1*
X22969D1*
X20844Y76315D1*
X40007Y84382D2*
Y87873D1*
X39940Y87940D1*
X32940D1*
Y86440D1*
X26064Y88319D2*
Y88814D1*
X26440Y89190D1*
X32440D1*
X32940Y88690D1*
Y87940D1*
X26064Y88319D2*
Y85564D1*
X25940Y85440D1*
X45940Y82690D2*
X43190D1*
X30198Y7190D2*
D19*
Y6448D1*
X28940Y5190D1*
X16190D1*
X13440Y7940D1*
Y12690D1*
Y20440D1*
Y28190D1*
Y35690D1*
Y43690D1*
Y51440D1*
Y57190D1*
X15190Y58940D1*
X29690D1*
X30198Y59448D1*
Y61440D1*
Y53690D2*
Y52198D1*
X29440Y51440D1*
X13440D1*
X30198Y45940D2*
Y44698D1*
X29190Y43690D1*
X13440D1*
X30198Y38190D2*
Y36698D1*
X29190Y35690D1*
X13440D1*
X30198Y30440D2*
Y29698D1*
X28690Y28190D1*
X13440D1*
X30198Y22690D2*
Y21448D1*
X29190Y20440D1*
X13440D1*
X30198Y14940D2*
Y13698D1*
X29190Y12690D1*
X13440D1*
X7690Y24190D2*
Y25940D1*
X9940Y28190D1*
X13440D1*
X7690Y9190D2*
Y10940D1*
X9440Y12690D1*
X13440D1*
X46566Y73843D2*
Y70613D1*
X46589Y70590D1*
X44582Y73843D2*
Y70597D1*
X44589Y70590D1*
X42598Y73843D2*
Y70599D1*
X42589Y70590D1*
X42610Y80111D2*
Y76808D1*
X42598Y76796D1*
X46610Y80111D2*
Y76840D1*
X46566Y76796D1*
X44610Y80111D2*
Y76824D1*
X44582Y76796D1*
X16160Y73649D2*
Y70374D1*
X16153Y70367D1*
X14176Y73649D2*
Y70389D1*
X14153Y70367D1*
X12191Y73649D2*
Y70405D1*
X12153Y70367D1*
X16188Y79818D2*
Y76630D1*
X16160Y76602D1*
X14188Y79818D2*
Y76614D1*
X14176Y76602D1*
X12188Y79818D2*
Y76606D1*
X12191Y76602D1*
X42440Y7940D2*
D15*
Y7690D1*
X41190Y6440D1*
X38940D1*
X38190Y7190D1*
X18440Y8690D2*
D19*
Y6940D1*
X27964D1*
X28214Y7190D1*
X22690Y8690D2*
Y9440D1*
X23690Y10440D1*
X25440D1*
X27190Y8690D1*
X28940D1*
X30190Y9940D1*
Y10135D1*
X30198Y10143D1*
X42440Y15690D2*
D15*
Y15440D1*
X41190Y14190D1*
X38940D1*
X38190Y14940D1*
X18440Y16440D2*
D19*
Y14690D1*
X27964D1*
X28214Y14940D1*
X22690Y16440D2*
Y17190D1*
X23690Y18190D1*
X25440D1*
X27190Y16440D1*
X28940D1*
X30190Y17690D1*
Y17885D1*
X30198Y17893D1*
X42440Y23440D2*
D15*
Y23190D1*
X41190Y21940D1*
X38940D1*
X38190Y22690D1*
X18440Y24190D2*
D19*
Y22440D1*
X27964D1*
X28214Y22690D1*
X22690Y24190D2*
Y24940D1*
X23690Y25940D1*
X25440D1*
X27190Y24190D1*
X28940D1*
X30190Y25440D1*
Y25635D1*
X30198Y25643D1*
X42440Y31190D2*
D15*
Y30940D1*
X41190Y29690D1*
X38940D1*
X38190Y30440D1*
X18440Y31940D2*
D19*
Y30190D1*
X27964D1*
X28214Y30440D1*
X22690Y31940D2*
Y32690D1*
X23690Y33690D1*
X25440D1*
X27190Y31940D1*
X28940D1*
X30190Y33190D1*
Y33385D1*
X30198Y33393D1*
X42440Y38940D2*
D15*
Y38690D1*
X41190Y37440D1*
X38940D1*
X38190Y38190D1*
X18440Y39690D2*
D19*
Y37940D1*
X27964D1*
X28214Y38190D1*
X22690Y39690D2*
Y40440D1*
X23690Y41440D1*
X25440D1*
X27190Y39690D1*
X28940D1*
X30190Y40940D1*
Y41135D1*
X30198Y41143D1*
X42440Y46690D2*
D15*
Y46440D1*
X41190Y45190D1*
X38940D1*
X38190Y45940D1*
X18440Y47440D2*
D19*
Y45690D1*
X27964D1*
X28214Y45940D1*
X22690Y47440D2*
Y48190D1*
X23690Y49190D1*
X25440D1*
X27190Y47440D1*
X28940D1*
X30190Y48690D1*
Y48885D1*
X30198Y48893D1*
X42440Y54440D2*
D15*
Y54190D1*
X41190Y52940D1*
X38940D1*
X38190Y53690D1*
X18440Y55190D2*
D19*
Y53440D1*
X27964D1*
X28214Y53690D1*
X22690Y55190D2*
Y55940D1*
X23690Y56940D1*
X25440D1*
X27190Y55190D1*
X28940D1*
X30190Y56440D1*
Y56635D1*
X30198Y56643D1*
X42440Y62190D2*
D15*
Y61940D1*
X41190Y60690D1*
X38940D1*
X38190Y61440D1*
X18440Y62940D2*
D19*
Y61190D1*
X27964D1*
X28214Y61440D1*
X22690Y62940D2*
Y63690D1*
X23690Y64690D1*
X25440D1*
X27190Y62940D1*
X28940D1*
X30190Y64190D1*
Y64385D1*
X30198Y64393D1*
X27127Y80256D2*
X23825D1*
X23797Y80284D1*
X27127Y78256D2*
X23840D1*
X23797Y78300D1*
X27127Y76256D2*
X23856D1*
X23797Y76315D1*
X58275Y70326D2*
D15*
X54990D1*
X54954Y70290D1*
X58275Y72326D2*
X54037D1*
X52001Y70290D1*
X58273Y80242D2*
D19*
X54978D1*
X54954Y80266D1*
X58273Y78242D2*
X54994D1*
X54954Y78282D1*
X58273Y76242D2*
X55010D1*
X54954Y76298D1*
X24690Y82690D2*
D13*
X27690D1*
X29940Y80440D1*
X40190D1*
X41190Y81440D1*
X47690D1*
X48690Y80440D1*
X19690Y83190D2*
X27190D1*
X28440D1*
X30440Y81190D1*
D28*
X43942Y85758D3*
X42440Y84190D3*
Y82440D3*
X27690Y81940D3*
X6190Y78690D3*
X29440Y85690D3*
X37190Y83190D3*
X40440Y81940D3*
X30940Y85190D3*
X31940Y85690D3*
X27190Y84690D3*
X32940Y86440D3*
X25940Y85440D3*
X45940Y82690D3*
X43190D3*
X24690D3*
X48690Y80440D3*
X19690Y83190D3*
X27190D3*
D17*
X62440Y54690D3*
Y52690D3*
X58690Y9190D3*
X56690D3*
X7690Y24190D3*
X9690D3*
X62940Y9190D3*
X60940D3*
X7690D3*
X9690D3*
D20*
X27064Y88319D3*
X26064D3*
X25064D3*
D21*
X33381Y83382D3*
X32881Y84382D3*
X32381Y83382D3*
X31881Y84382D3*
X31381Y83382D3*
X30881Y84382D3*
X40507Y83382D3*
X40007Y84382D3*
X39507Y83382D3*
X39007Y84382D3*
X38507Y83382D3*
X38007Y84382D3*
D20*
X38289Y71149D3*
Y70149D3*
D17*
X46589Y70590D3*
X44589D3*
X42589D3*
D19*
X36590Y76796D3*
Y73843D3*
X42598Y76796D3*
X44582D3*
X46566D3*
X42598Y73843D3*
X44582D3*
X46566D3*
D17*
X46610Y80111D3*
X44610D3*
X42610D3*
D20*
X8927Y70655D3*
Y69655D3*
D17*
X16153Y70367D3*
X14153D3*
X12153D3*
X16188Y79818D3*
X14188D3*
X12188D3*
D19*
X6184Y76602D3*
Y73649D3*
X12191Y76602D3*
X14176D3*
X16160D3*
X12191Y73649D3*
X14176D3*
X16160D3*
D17*
X44440Y7940D3*
X42440D3*
X40440D3*
X46440D3*
X48440D3*
X50440D3*
X18440Y8690D3*
X16440D3*
X62440Y18690D3*
Y20690D3*
D19*
X38190Y7190D3*
Y10143D3*
X32182Y7190D3*
X30198D3*
X28214D3*
X32182Y10143D3*
X30198D3*
X28214D3*
D17*
X20690Y8690D3*
X22690D3*
X24690D3*
X44440Y15690D3*
X42440D3*
X40440D3*
X46440D3*
X48440D3*
X50440D3*
X18440Y16440D3*
X16440D3*
X62440Y22940D3*
Y24940D3*
D19*
X38190Y14940D3*
Y17893D3*
X32182Y14940D3*
X30198D3*
X28214D3*
X32182Y17893D3*
X30198D3*
X28214D3*
D17*
X20690Y16440D3*
X22690D3*
X24690D3*
X44440Y23440D3*
X42440D3*
X40440D3*
X46440D3*
X48440D3*
X50440D3*
X18440Y24190D3*
X16440D3*
X62440Y27190D3*
Y29190D3*
D19*
X38190Y22690D3*
Y25643D3*
X32182Y22690D3*
X30198D3*
X28214D3*
X32182Y25643D3*
X30198D3*
X28214D3*
D17*
X20690Y24190D3*
X22690D3*
X24690D3*
X44440Y31190D3*
X42440D3*
X40440D3*
X46440D3*
X48440D3*
X50440D3*
X18440Y31940D3*
X16440D3*
X62440Y31440D3*
Y33440D3*
D19*
X38190Y30440D3*
Y33393D3*
X32182Y30440D3*
X30198D3*
X28214D3*
X32182Y33393D3*
X30198D3*
X28214D3*
D17*
X20690Y31940D3*
X22690D3*
X24690D3*
X44440Y38940D3*
X42440D3*
X40440D3*
X46440D3*
X48440D3*
X50440D3*
X18440Y39690D3*
X16440D3*
X62440Y35690D3*
Y37690D3*
D19*
X38190Y38190D3*
Y41143D3*
X32182Y38190D3*
X30198D3*
X28214D3*
X32182Y41143D3*
X30198D3*
X28214D3*
D17*
X20690Y39690D3*
X22690D3*
X24690D3*
X44440Y46690D3*
X42440D3*
X40440D3*
X46440D3*
X48440D3*
X50440D3*
X18440Y47440D3*
X16440D3*
X62440Y39940D3*
Y41940D3*
D19*
X38190Y45940D3*
Y48893D3*
X32182Y45940D3*
X30198D3*
X28214D3*
X32182Y48893D3*
X30198D3*
X28214D3*
D17*
X20690Y47440D3*
X22690D3*
X24690D3*
X44440Y54440D3*
X42440D3*
X40440D3*
X46440D3*
X48440D3*
X50440D3*
X18440Y55190D3*
X16440D3*
X62440Y44190D3*
Y46190D3*
D19*
X38190Y53690D3*
Y56643D3*
X32182Y53690D3*
X30198D3*
X28214D3*
X32182Y56643D3*
X30198D3*
X28214D3*
D17*
X20690Y55190D3*
X22690D3*
X24690D3*
X44440Y62190D3*
X42440D3*
X40440D3*
X46440D3*
X48440D3*
X50440D3*
X18440Y62940D3*
X16440D3*
X62440Y48440D3*
Y50440D3*
D19*
X38190Y61440D3*
Y64393D3*
X32182Y61440D3*
X30198D3*
X28214D3*
X32182Y64393D3*
X30198D3*
X28214D3*
D17*
X20690Y62940D3*
X22690D3*
X24690D3*
X27130Y70383D3*
Y72383D3*
D20*
X18990Y75112D3*
Y76112D3*
D17*
X27127Y80256D3*
Y78256D3*
Y76256D3*
D19*
X20844Y70307D3*
X23797D3*
X20844Y76315D3*
Y78300D3*
Y80284D3*
X23797Y76315D3*
Y78300D3*
Y80284D3*
D17*
X58275Y70326D3*
Y72326D3*
D20*
X50047Y74945D3*
Y75945D3*
D17*
X58273Y80242D3*
Y78242D3*
Y76242D3*
D19*
X52001Y70290D3*
X54954D3*
X52001Y76298D3*
Y78282D3*
Y80266D3*
X54954Y76298D3*
Y78282D3*
Y80266D3*
%LNBoardOutline*%
X3940Y3940D2*
D11*
X66440D1*
Y90190D1*
X3940D1*
Y3940D1*
M02*
