G04 DipTrace 2.4.0.2*
%INthrough.gbr*%
%MOIN*%
G04 Drill Symbols*
G04 D=0.028 - Cross*
G04 D=0.0354 - X*
G04 D=0.04 - Y*
G04 D=0.0551 - T*
G04 D=0.0591 - V*
G04 D=0.126 - Clock*
G04 D=0.21 - Box_Cross*
%ADD10C,0.008*%
%FSLAX44Y44*%
G04*
G70*
G90*
G75*
G01*
X62205Y54925D2*
D10*
X62440Y54690D1*
X62675Y54925D1*
X62205Y52925D2*
X62440Y52690D1*
X62675Y52925D1*
X58455Y9425D2*
X58690Y9190D1*
X58925Y9425D1*
X56455D2*
X56690Y9190D1*
X56925Y9425D1*
X7455Y24425D2*
X7690Y24190D1*
X7925Y24425D1*
X9455D2*
X9690Y24190D1*
X9925Y24425D1*
X62705Y9425D2*
X62940Y9190D1*
X63175Y9425D1*
X60705D2*
X60940Y9190D1*
X61175Y9425D1*
X7455D2*
X7690Y9190D1*
X7925Y9425D1*
X9455D2*
X9690Y9190D1*
X9925Y9425D1*
X26829Y88554D2*
X27064Y88319D1*
X27299Y88554D1*
X27064Y88319D2*
Y88084D1*
X25829Y88554D2*
X26064Y88319D1*
X26299Y88554D1*
X26064Y88319D2*
Y88084D1*
X24829Y88554D2*
X25064Y88319D1*
X25299Y88554D1*
X25064Y88319D2*
Y88084D1*
X33146Y83617D2*
X33616Y83147D1*
Y83617D2*
X33146Y83147D1*
X32646Y84617D2*
X33116Y84147D1*
Y84617D2*
X32646Y84147D1*
X32146Y83617D2*
X32616Y83147D1*
Y83617D2*
X32146Y83147D1*
X31646Y84617D2*
X32116Y84147D1*
Y84617D2*
X31646Y84147D1*
X31146Y83617D2*
X31616Y83147D1*
Y83617D2*
X31146Y83147D1*
X30646Y84617D2*
X31116Y84147D1*
Y84617D2*
X30646Y84147D1*
X40272Y83617D2*
X40742Y83147D1*
Y83617D2*
X40272Y83147D1*
X39772Y84617D2*
X40242Y84147D1*
Y84617D2*
X39772Y84147D1*
X39272Y83617D2*
X39742Y83147D1*
Y83617D2*
X39272Y83147D1*
X38772Y84617D2*
X39242Y84147D1*
Y84617D2*
X38772Y84147D1*
X38272Y83617D2*
X38742Y83147D1*
Y83617D2*
X38272Y83147D1*
X37772Y84617D2*
X38242Y84147D1*
Y84617D2*
X37772Y84147D1*
X38054Y71384D2*
X38289Y71149D1*
X38524Y71384D1*
X38289Y71149D2*
Y70914D1*
X38054Y70384D2*
X38289Y70149D1*
X38524Y70384D1*
X38289Y70149D2*
Y69914D1*
X46354Y70825D2*
X46589Y70590D1*
X46824Y70825D1*
X44354D2*
X44589Y70590D1*
X44824Y70825D1*
X42354D2*
X42589Y70590D1*
X42824Y70825D1*
X36355Y76796D2*
X36825D1*
X36590D2*
Y76561D1*
X36355Y73843D2*
X36825D1*
X36590D2*
Y73608D1*
X42363Y76796D2*
X42833D1*
X42598D2*
Y76561D1*
X44347Y76796D2*
X44817D1*
X44582D2*
Y76561D1*
X46331Y76796D2*
X46801D1*
X46566D2*
Y76561D1*
X42363Y73843D2*
X42833D1*
X42598D2*
Y73608D1*
X44347Y73843D2*
X44817D1*
X44582D2*
Y73608D1*
X46331Y73843D2*
X46801D1*
X46566D2*
Y73608D1*
X46375Y80346D2*
X46610Y80111D1*
X46845Y80346D1*
X44375D2*
X44610Y80111D1*
X44845Y80346D1*
X42375D2*
X42610Y80111D1*
X42845Y80346D1*
X8692Y70890D2*
X8927Y70655D1*
X9162Y70890D1*
X8927Y70655D2*
Y70420D1*
X8692Y69890D2*
X8927Y69655D1*
X9162Y69890D1*
X8927Y69655D2*
Y69420D1*
X15918Y70602D2*
X16153Y70367D1*
X16388Y70602D1*
X13918D2*
X14153Y70367D1*
X14388Y70602D1*
X11918D2*
X12153Y70367D1*
X12388Y70602D1*
X15953Y80053D2*
X16188Y79818D1*
X16423Y80053D1*
X13953D2*
X14188Y79818D1*
X14423Y80053D1*
X11953D2*
X12188Y79818D1*
X12423Y80053D1*
X5949Y76602D2*
X6419D1*
X6184D2*
Y76367D1*
X5949Y73649D2*
X6419D1*
X6184D2*
Y73414D1*
X11956Y76602D2*
X12426D1*
X12191D2*
Y76367D1*
X13941Y76602D2*
X14411D1*
X14176D2*
Y76367D1*
X15925Y76602D2*
X16395D1*
X16160D2*
Y76367D1*
X11956Y73649D2*
X12426D1*
X12191D2*
Y73414D1*
X13941Y73649D2*
X14411D1*
X14176D2*
Y73414D1*
X15925Y73649D2*
X16395D1*
X16160D2*
Y73414D1*
X44205Y8175D2*
X44440Y7940D1*
X44675Y8175D1*
X42205D2*
X42440Y7940D1*
X42675Y8175D1*
X40205D2*
X40440Y7940D1*
X40675Y8175D1*
X46205D2*
X46440Y7940D1*
X46675Y8175D1*
X48205D2*
X48440Y7940D1*
X48675Y8175D1*
X50205D2*
X50440Y7940D1*
X50675Y8175D1*
X18205Y8925D2*
X18440Y8690D1*
X18675Y8925D1*
X16205D2*
X16440Y8690D1*
X16675Y8925D1*
X62205Y18925D2*
X62440Y18690D1*
X62675Y18925D1*
X62205Y20925D2*
X62440Y20690D1*
X62675Y20925D1*
X37955Y7190D2*
X38425D1*
X38190D2*
Y6955D1*
X37955Y10143D2*
X38425D1*
X38190D2*
Y9908D1*
X31947Y7190D2*
X32417D1*
X32182D2*
Y6955D1*
X29963Y7190D2*
X30433D1*
X30198D2*
Y6955D1*
X27979Y7190D2*
X28449D1*
X28214D2*
Y6955D1*
X31947Y10143D2*
X32417D1*
X32182D2*
Y9908D1*
X29963Y10143D2*
X30433D1*
X30198D2*
Y9908D1*
X27979Y10143D2*
X28449D1*
X28214D2*
Y9908D1*
X20455Y8925D2*
X20690Y8690D1*
X20925Y8925D1*
X22455D2*
X22690Y8690D1*
X22925Y8925D1*
X24455D2*
X24690Y8690D1*
X24925Y8925D1*
X44205Y15925D2*
X44440Y15690D1*
X44675Y15925D1*
X42205D2*
X42440Y15690D1*
X42675Y15925D1*
X40205D2*
X40440Y15690D1*
X40675Y15925D1*
X46205D2*
X46440Y15690D1*
X46675Y15925D1*
X48205D2*
X48440Y15690D1*
X48675Y15925D1*
X50205D2*
X50440Y15690D1*
X50675Y15925D1*
X18205Y16675D2*
X18440Y16440D1*
X18675Y16675D1*
X16205D2*
X16440Y16440D1*
X16675Y16675D1*
X62205Y23175D2*
X62440Y22940D1*
X62675Y23175D1*
X62205Y25175D2*
X62440Y24940D1*
X62675Y25175D1*
X37955Y14940D2*
X38425D1*
X38190D2*
Y14705D1*
X37955Y17893D2*
X38425D1*
X38190D2*
Y17658D1*
X31947Y14940D2*
X32417D1*
X32182D2*
Y14705D1*
X29963Y14940D2*
X30433D1*
X30198D2*
Y14705D1*
X27979Y14940D2*
X28449D1*
X28214D2*
Y14705D1*
X31947Y17893D2*
X32417D1*
X32182D2*
Y17658D1*
X29963Y17893D2*
X30433D1*
X30198D2*
Y17658D1*
X27979Y17893D2*
X28449D1*
X28214D2*
Y17658D1*
X20455Y16675D2*
X20690Y16440D1*
X20925Y16675D1*
X22455D2*
X22690Y16440D1*
X22925Y16675D1*
X24455D2*
X24690Y16440D1*
X24925Y16675D1*
X44205Y23675D2*
X44440Y23440D1*
X44675Y23675D1*
X42205D2*
X42440Y23440D1*
X42675Y23675D1*
X40205D2*
X40440Y23440D1*
X40675Y23675D1*
X46205D2*
X46440Y23440D1*
X46675Y23675D1*
X48205D2*
X48440Y23440D1*
X48675Y23675D1*
X50205D2*
X50440Y23440D1*
X50675Y23675D1*
X18205Y24425D2*
X18440Y24190D1*
X18675Y24425D1*
X16205D2*
X16440Y24190D1*
X16675Y24425D1*
X62205Y27425D2*
X62440Y27190D1*
X62675Y27425D1*
X62205Y29425D2*
X62440Y29190D1*
X62675Y29425D1*
X37955Y22690D2*
X38425D1*
X38190D2*
Y22455D1*
X37955Y25643D2*
X38425D1*
X38190D2*
Y25408D1*
X31947Y22690D2*
X32417D1*
X32182D2*
Y22455D1*
X29963Y22690D2*
X30433D1*
X30198D2*
Y22455D1*
X27979Y22690D2*
X28449D1*
X28214D2*
Y22455D1*
X31947Y25643D2*
X32417D1*
X32182D2*
Y25408D1*
X29963Y25643D2*
X30433D1*
X30198D2*
Y25408D1*
X27979Y25643D2*
X28449D1*
X28214D2*
Y25408D1*
X20455Y24425D2*
X20690Y24190D1*
X20925Y24425D1*
X22455D2*
X22690Y24190D1*
X22925Y24425D1*
X24455D2*
X24690Y24190D1*
X24925Y24425D1*
X44205Y31425D2*
X44440Y31190D1*
X44675Y31425D1*
X42205D2*
X42440Y31190D1*
X42675Y31425D1*
X40205D2*
X40440Y31190D1*
X40675Y31425D1*
X46205D2*
X46440Y31190D1*
X46675Y31425D1*
X48205D2*
X48440Y31190D1*
X48675Y31425D1*
X50205D2*
X50440Y31190D1*
X50675Y31425D1*
X18205Y32175D2*
X18440Y31940D1*
X18675Y32175D1*
X16205D2*
X16440Y31940D1*
X16675Y32175D1*
X62205Y31675D2*
X62440Y31440D1*
X62675Y31675D1*
X62205Y33675D2*
X62440Y33440D1*
X62675Y33675D1*
X37955Y30440D2*
X38425D1*
X38190D2*
Y30205D1*
X37955Y33393D2*
X38425D1*
X38190D2*
Y33158D1*
X31947Y30440D2*
X32417D1*
X32182D2*
Y30205D1*
X29963Y30440D2*
X30433D1*
X30198D2*
Y30205D1*
X27979Y30440D2*
X28449D1*
X28214D2*
Y30205D1*
X31947Y33393D2*
X32417D1*
X32182D2*
Y33158D1*
X29963Y33393D2*
X30433D1*
X30198D2*
Y33158D1*
X27979Y33393D2*
X28449D1*
X28214D2*
Y33158D1*
X20455Y32175D2*
X20690Y31940D1*
X20925Y32175D1*
X22455D2*
X22690Y31940D1*
X22925Y32175D1*
X24455D2*
X24690Y31940D1*
X24925Y32175D1*
X44205Y39175D2*
X44440Y38940D1*
X44675Y39175D1*
X42205D2*
X42440Y38940D1*
X42675Y39175D1*
X40205D2*
X40440Y38940D1*
X40675Y39175D1*
X46205D2*
X46440Y38940D1*
X46675Y39175D1*
X48205D2*
X48440Y38940D1*
X48675Y39175D1*
X50205D2*
X50440Y38940D1*
X50675Y39175D1*
X18205Y39925D2*
X18440Y39690D1*
X18675Y39925D1*
X16205D2*
X16440Y39690D1*
X16675Y39925D1*
X62205Y35925D2*
X62440Y35690D1*
X62675Y35925D1*
X62205Y37925D2*
X62440Y37690D1*
X62675Y37925D1*
X37955Y38190D2*
X38425D1*
X38190D2*
Y37955D1*
X37955Y41143D2*
X38425D1*
X38190D2*
Y40908D1*
X31947Y38190D2*
X32417D1*
X32182D2*
Y37955D1*
X29963Y38190D2*
X30433D1*
X30198D2*
Y37955D1*
X27979Y38190D2*
X28449D1*
X28214D2*
Y37955D1*
X31947Y41143D2*
X32417D1*
X32182D2*
Y40908D1*
X29963Y41143D2*
X30433D1*
X30198D2*
Y40908D1*
X27979Y41143D2*
X28449D1*
X28214D2*
Y40908D1*
X20455Y39925D2*
X20690Y39690D1*
X20925Y39925D1*
X22455D2*
X22690Y39690D1*
X22925Y39925D1*
X24455D2*
X24690Y39690D1*
X24925Y39925D1*
X44205Y46925D2*
X44440Y46690D1*
X44675Y46925D1*
X42205D2*
X42440Y46690D1*
X42675Y46925D1*
X40205D2*
X40440Y46690D1*
X40675Y46925D1*
X46205D2*
X46440Y46690D1*
X46675Y46925D1*
X48205D2*
X48440Y46690D1*
X48675Y46925D1*
X50205D2*
X50440Y46690D1*
X50675Y46925D1*
X18205Y47675D2*
X18440Y47440D1*
X18675Y47675D1*
X16205D2*
X16440Y47440D1*
X16675Y47675D1*
X62205Y40175D2*
X62440Y39940D1*
X62675Y40175D1*
X62205Y42175D2*
X62440Y41940D1*
X62675Y42175D1*
X37955Y45940D2*
X38425D1*
X38190D2*
Y45705D1*
X37955Y48893D2*
X38425D1*
X38190D2*
Y48658D1*
X31947Y45940D2*
X32417D1*
X32182D2*
Y45705D1*
X29963Y45940D2*
X30433D1*
X30198D2*
Y45705D1*
X27979Y45940D2*
X28449D1*
X28214D2*
Y45705D1*
X31947Y48893D2*
X32417D1*
X32182D2*
Y48658D1*
X29963Y48893D2*
X30433D1*
X30198D2*
Y48658D1*
X27979Y48893D2*
X28449D1*
X28214D2*
Y48658D1*
X20455Y47675D2*
X20690Y47440D1*
X20925Y47675D1*
X22455D2*
X22690Y47440D1*
X22925Y47675D1*
X24455D2*
X24690Y47440D1*
X24925Y47675D1*
X44205Y54675D2*
X44440Y54440D1*
X44675Y54675D1*
X42205D2*
X42440Y54440D1*
X42675Y54675D1*
X40205D2*
X40440Y54440D1*
X40675Y54675D1*
X46205D2*
X46440Y54440D1*
X46675Y54675D1*
X48205D2*
X48440Y54440D1*
X48675Y54675D1*
X50205D2*
X50440Y54440D1*
X50675Y54675D1*
X18205Y55425D2*
X18440Y55190D1*
X18675Y55425D1*
X16205D2*
X16440Y55190D1*
X16675Y55425D1*
X62205Y44425D2*
X62440Y44190D1*
X62675Y44425D1*
X62205Y46425D2*
X62440Y46190D1*
X62675Y46425D1*
X37955Y53690D2*
X38425D1*
X38190D2*
Y53455D1*
X37955Y56643D2*
X38425D1*
X38190D2*
Y56408D1*
X31947Y53690D2*
X32417D1*
X32182D2*
Y53455D1*
X29963Y53690D2*
X30433D1*
X30198D2*
Y53455D1*
X27979Y53690D2*
X28449D1*
X28214D2*
Y53455D1*
X31947Y56643D2*
X32417D1*
X32182D2*
Y56408D1*
X29963Y56643D2*
X30433D1*
X30198D2*
Y56408D1*
X27979Y56643D2*
X28449D1*
X28214D2*
Y56408D1*
X20455Y55425D2*
X20690Y55190D1*
X20925Y55425D1*
X22455D2*
X22690Y55190D1*
X22925Y55425D1*
X24455D2*
X24690Y55190D1*
X24925Y55425D1*
X44205Y62425D2*
X44440Y62190D1*
X44675Y62425D1*
X42205D2*
X42440Y62190D1*
X42675Y62425D1*
X40205D2*
X40440Y62190D1*
X40675Y62425D1*
X46205D2*
X46440Y62190D1*
X46675Y62425D1*
X48205D2*
X48440Y62190D1*
X48675Y62425D1*
X50205D2*
X50440Y62190D1*
X50675Y62425D1*
X18205Y63175D2*
X18440Y62940D1*
X18675Y63175D1*
X16205D2*
X16440Y62940D1*
X16675Y63175D1*
X62205Y48675D2*
X62440Y48440D1*
X62675Y48675D1*
X62205Y50675D2*
X62440Y50440D1*
X62675Y50675D1*
X37955Y61440D2*
X38425D1*
X38190D2*
Y61205D1*
X37955Y64393D2*
X38425D1*
X38190D2*
Y64158D1*
X31947Y61440D2*
X32417D1*
X32182D2*
Y61205D1*
X29963Y61440D2*
X30433D1*
X30198D2*
Y61205D1*
X27979Y61440D2*
X28449D1*
X28214D2*
Y61205D1*
X31947Y64393D2*
X32417D1*
X32182D2*
Y64158D1*
X29963Y64393D2*
X30433D1*
X30198D2*
Y64158D1*
X27979Y64393D2*
X28449D1*
X28214D2*
Y64158D1*
X20455Y63175D2*
X20690Y62940D1*
X20925Y63175D1*
X22455D2*
X22690Y62940D1*
X22925Y63175D1*
X24455D2*
X24690Y62940D1*
X24925Y63175D1*
X26895Y70618D2*
X27130Y70383D1*
X27365Y70618D1*
X26895Y72618D2*
X27130Y72383D1*
X27365Y72618D1*
X18755Y75347D2*
X18990Y75112D1*
X19225Y75347D1*
X18990Y75112D2*
Y74877D1*
X18755Y76347D2*
X18990Y76112D1*
X19225Y76347D1*
X18990Y76112D2*
Y75877D1*
X26892Y80491D2*
X27127Y80256D1*
X27362Y80491D1*
X26892Y78491D2*
X27127Y78256D1*
X27362Y78491D1*
X26892Y76491D2*
X27127Y76256D1*
X27362Y76491D1*
X20609Y70307D2*
X21079D1*
X20844D2*
Y70072D1*
X23562Y70307D2*
X24032D1*
X23797D2*
Y70072D1*
X20609Y76315D2*
X21079D1*
X20844D2*
Y76080D1*
X20609Y78300D2*
X21079D1*
X20844D2*
Y78065D1*
X20609Y80284D2*
X21079D1*
X20844D2*
Y80049D1*
X23562Y76315D2*
X24032D1*
X23797D2*
Y76080D1*
X23562Y78300D2*
X24032D1*
X23797D2*
Y78065D1*
X23562Y80284D2*
X24032D1*
X23797D2*
Y80049D1*
X58040Y70561D2*
X58275Y70326D1*
X58510Y70561D1*
X58040Y72561D2*
X58275Y72326D1*
X58510Y72561D1*
X49812Y75180D2*
X50047Y74945D1*
X50282Y75180D1*
X50047Y74945D2*
Y74710D1*
X49812Y76180D2*
X50047Y75945D1*
X50282Y76180D1*
X50047Y75945D2*
Y75710D1*
X58038Y80477D2*
X58273Y80242D1*
X58508Y80477D1*
X58038Y78477D2*
X58273Y78242D1*
X58508Y78477D1*
X58038Y76477D2*
X58273Y76242D1*
X58508Y76477D1*
X51766Y70290D2*
X52236D1*
X52001D2*
Y70055D1*
X54719Y70290D2*
X55189D1*
X54954D2*
Y70055D1*
X51766Y76298D2*
X52236D1*
X52001D2*
Y76063D1*
X51766Y78282D2*
X52236D1*
X52001D2*
Y78047D1*
X51766Y80266D2*
X52236D1*
X52001D2*
Y80031D1*
X54719Y76298D2*
X55189D1*
X54954D2*
Y76063D1*
X54719Y78282D2*
X55189D1*
X54954D2*
Y78047D1*
X54719Y80266D2*
X55189D1*
X54954D2*
Y80031D1*
X43942Y85993D2*
Y85523D1*
X43707Y85758D2*
X44177D1*
X42440Y84425D2*
Y83955D1*
X42205Y84190D2*
X42675D1*
X42440Y82675D2*
Y82205D1*
X42205Y82440D2*
X42675D1*
X27690Y82175D2*
Y81705D1*
X27455Y81940D2*
X27925D1*
X6190Y78925D2*
Y78455D1*
X5955Y78690D2*
X6425D1*
X29440Y85925D2*
Y85455D1*
X29205Y85690D2*
X29675D1*
X37190Y83425D2*
Y82955D1*
X36955Y83190D2*
X37425D1*
X40440Y82175D2*
Y81705D1*
X40205Y81940D2*
X40675D1*
X30940Y85425D2*
Y84955D1*
X30705Y85190D2*
X31175D1*
X31940Y85925D2*
Y85455D1*
X31705Y85690D2*
X32175D1*
X27190Y84925D2*
Y84455D1*
X26955Y84690D2*
X27425D1*
X32940Y86675D2*
Y86205D1*
X32705Y86440D2*
X33175D1*
X25940Y85675D2*
Y85205D1*
X25705Y85440D2*
X26175D1*
X45940Y82925D2*
Y82455D1*
X45705Y82690D2*
X46175D1*
X43190Y82925D2*
Y82455D1*
X42955Y82690D2*
X43425D1*
X24690Y82925D2*
Y82455D1*
X24455Y82690D2*
X24925D1*
X48690Y80675D2*
Y80205D1*
X48455Y80440D2*
X48925D1*
X19690Y83425D2*
Y82955D1*
X19455Y83190D2*
X19925D1*
X27190Y83425D2*
Y82955D1*
X26955Y83190D2*
X27425D1*
X6440Y16675D2*
Y16205D1*
X6205Y16440D2*
X6675D1*
X6205Y16675D2*
X6675D1*
Y16205D1*
X6205D1*
Y16675D1*
X6440Y41055D2*
Y40585D1*
X6205Y40820D2*
X6675D1*
X6205Y41055D2*
X6675D1*
Y40585D1*
X6205D1*
Y41055D1*
X6440Y60425D2*
Y59955D1*
X6205Y60190D2*
X6675D1*
X6205Y60425D2*
X6675D1*
Y59955D1*
X6205D1*
Y60425D1*
X32065Y73545D2*
Y73075D1*
X31830Y73310D2*
X32300D1*
X31830Y73545D2*
X32300D1*
Y73075D1*
X31830D1*
Y73545D1*
X63315Y87925D2*
Y87455D1*
X63080Y87690D2*
X63550D1*
X63080Y87925D2*
X63550D1*
Y87455D1*
X63080D1*
Y87925D1*
X53940Y51045D2*
Y50575D1*
X53705Y50810D2*
X54175D1*
X53705Y51045D2*
X54175D1*
Y50575D1*
X53705D1*
Y51045D1*
X34129Y87117D2*
Y86882D1*
X34364D1*
X30129Y87117D2*
Y86882D1*
X30364D1*
X41255Y87117D2*
Y86882D1*
X41490D1*
X37255Y87117D2*
Y86882D1*
X37490D1*
M02*
