M48
INCH
T01C0.028
T02C0.0354
T03C0.04
T04C0.0551
T05C0.0591
T06C0.126
T07C0.21
%
T01
X+043942Y+085758
X+042440Y+084190
X+043190Y+082690
X+042440Y+082440
X+040440Y+081940
X+037190Y+083190
X+032940Y+086440
X+031940Y+085690
X+030940Y+085190
X+029440Y+085690
X+027190Y+084690
X+025940Y+085440
X+027190Y+083190
X+027690Y+081940
X+024690Y+082690
X+019690Y+083190
X+006190Y+078690
X+045940Y+082690
X+048690Y+080440
T02
X+033381Y+083382
X+032381Y+083382
X+031381Y+083382
X+031881Y+084382
X+032881Y+084382
X+030881Y+084382
X+038007Y+084382
X+039007Y+084382
X+040007Y+084382
X+039507Y+083382
X+038507Y+083382
X+040507Y+083382
T03
X+027064Y+088319
X+026064Y+088319
X+025064Y+088319
X+018990Y+076112
X+018990Y+075112
X+008927Y+070655
X+008927Y+069655
X+038289Y+070149
X+038289Y+071149
X+050047Y+074945
X+050047Y+075945
T04
X+036590Y+076796
X+036590Y+073843
X+042598Y+073843
X+044582Y+073843
X+046566Y+073843
X+046566Y+076796
X+044582Y+076796
X+042598Y+076796
X+052001Y+076298
X+052001Y+078282
X+052001Y+080266
X+054954Y+080266
X+054954Y+078282
X+054954Y+076298
X+054954Y+070290
X+052001Y+070290
X+038190Y+064393
X+038190Y+061440
X+038190Y+056643
X+038190Y+053690
X+038190Y+048893
X+038190Y+045940
X+038190Y+041143
X+038190Y+038190
X+038190Y+033393
X+038190Y+030440
X+038190Y+025643
X+038190Y+022690
X+038190Y+017893
X+038190Y+014940
X+038190Y+010143
X+038190Y+007190
X+032182Y+007190
X+030198Y+007190
X+028214Y+007190
X+028214Y+010143
X+030198Y+010143
X+032182Y+010143
X+032182Y+014940
X+030198Y+014940
X+028214Y+014940
X+028214Y+017893
X+030198Y+017893
X+032182Y+017893
X+032182Y+022690
X+030198Y+022690
X+028214Y+022690
X+028214Y+025643
X+030198Y+025643
X+032182Y+025643
X+032182Y+030440
X+030198Y+030440
X+028214Y+030440
X+028214Y+033393
X+030198Y+033393
X+032182Y+033393
X+032182Y+038190
X+030198Y+038190
X+028214Y+038190
X+028214Y+041143
X+030198Y+041143
X+032182Y+041143
X+032182Y+045940
X+030198Y+045940
X+028214Y+045940
X+028214Y+048893
X+030198Y+048893
X+032182Y+048893
X+032182Y+053690
X+030198Y+053690
X+028214Y+053690
X+028214Y+056643
X+030198Y+056643
X+032182Y+056643
X+032182Y+061440
X+030198Y+061440
X+028214Y+061440
X+028214Y+064393
X+030198Y+064393
X+032182Y+064393
X+023797Y+070307
X+020844Y+070307
X+016160Y+073649
X+014176Y+073649
X+012191Y+073649
X+012191Y+076602
X+014176Y+076602
X+016160Y+076602
X+020844Y+076315
X+020844Y+078300
X+020844Y+080284
X+023797Y+080284
X+023797Y+078300
X+023797Y+076315
X+006184Y+076602
X+006184Y+073649
T05
X+062440Y+054690
X+062440Y+052690
X+062440Y+050440
X+062440Y+048440
X+062440Y+046190
X+062440Y+044190
X+062440Y+041940
X+062440Y+039940
X+062440Y+037690
X+062440Y+035690
X+062440Y+033440
X+062440Y+031440
X+062440Y+029190
X+062440Y+027190
X+062440Y+024940
X+062440Y+022940
X+062440Y+020690
X+062440Y+018690
X+062940Y+009190
X+060940Y+009190
X+058690Y+009190
X+056690Y+009190
X+050440Y+007940
X+048440Y+007940
X+046440Y+007940
X+044440Y+007940
X+042440Y+007940
X+040440Y+007940
X+040440Y+015690
X+042440Y+015690
X+044440Y+015690
X+046440Y+015690
X+048440Y+015690
X+050440Y+015690
X+050440Y+023440
X+048440Y+023440
X+046440Y+023440
X+044440Y+023440
X+042440Y+023440
X+040440Y+023440
X+040440Y+031190
X+042440Y+031190
X+044440Y+031190
X+046440Y+031190
X+048440Y+031190
X+050440Y+031190
X+050440Y+038940
X+048440Y+038940
X+046440Y+038940
X+044440Y+038940
X+042440Y+038940
X+040440Y+038940
X+040440Y+046690
X+042440Y+046690
X+044440Y+046690
X+046440Y+046690
X+048440Y+046690
X+050440Y+046690
X+050440Y+054440
X+048440Y+054440
X+046440Y+054440
X+044440Y+054440
X+042440Y+054440
X+040440Y+054440
X+040440Y+062190
X+042440Y+062190
X+044440Y+062190
X+046440Y+062190
X+048440Y+062190
X+050440Y+062190
X+046589Y+070590
X+044589Y+070590
X+042589Y+070590
X+042610Y+080111
X+044610Y+080111
X+046610Y+080111
X+058273Y+080242
X+058273Y+078242
X+058273Y+076242
X+058275Y+072326
X+058275Y+070326
X+027130Y+070383
X+027130Y+072383
X+027127Y+076256
X+027127Y+078256
X+027127Y+080256
X+016188Y+079818
X+014188Y+079818
X+012188Y+079818
X+012153Y+070367
X+014153Y+070367
X+016153Y+070367
X+016440Y+062940
X+018440Y+062940
X+020690Y+062940
X+022690Y+062940
X+024690Y+062940
X+024690Y+055190
X+022690Y+055190
X+020690Y+055190
X+018440Y+055190
X+016440Y+055190
X+016440Y+047440
X+018440Y+047440
X+020690Y+047440
X+022690Y+047440
X+024690Y+047440
X+024690Y+039690
X+022690Y+039690
X+020690Y+039690
X+018440Y+039690
X+016440Y+039690
X+016440Y+031940
X+018440Y+031940
X+020690Y+031940
X+022690Y+031940
X+024690Y+031940
X+024690Y+024190
X+022690Y+024190
X+020690Y+024190
X+018440Y+024190
X+016440Y+024190
X+009690Y+024190
X+007690Y+024190
X+016440Y+016440
X+018440Y+016440
X+020690Y+016440
X+022690Y+016440
X+024690Y+016440
X+024690Y+008690
X+022690Y+008690
X+020690Y+008690
X+018440Y+008690
X+016440Y+008690
X+009690Y+009190
X+007690Y+009190
T06
X+034129Y+086882
X+037255Y+086882
X+041255Y+086882
X+030129Y+086882
T07
X+006440Y+016440
X+006440Y+040820
X+006440Y+060190
X+032065Y+073310
X+053940Y+050810
X+063315Y+087690
T00
M30
