G04 DipTrace 2.4.0.2*
%INtop.gbr*%
%MOIN*%
%ADD11C,0.006*%
%ADD13C,0.0236*%
%ADD14C,0.0197*%
%ADD15C,0.0551*%
%ADD16C,0.0209*%
%ADD17C,0.1575*%
%ADD18C,0.2*%
%ADD19C,0.1181*%
%ADD20C,0.08*%
%ADD21C,0.0669*%
%ADD22R,0.0591X0.0512*%
%ADD23R,0.0827X0.0551*%
%ADD25R,0.0335X0.0197*%
%ADD27R,0.0209X0.08*%
%ADD28C,0.043*%
%FSLAX44Y44*%
G04*
G70*
G90*
G75*
G01*
%LNTop*%
%LPD*%
X43942Y85758D2*
D13*
D3*
X42440Y84190D2*
Y82440D1*
X31381Y83382D2*
Y83249D1*
X32190Y82440D1*
X35190D1*
X37565D1*
X38507Y83382D1*
X36497Y79825D2*
D14*
X36305D1*
D13*
X35190Y80940D1*
Y82440D1*
X31381Y83382D2*
X29132D1*
X27690Y81940D1*
X6190Y78690D2*
Y79413D1*
D14*
X6259Y79482D1*
X62940Y9190D2*
D15*
Y8190D1*
X62190Y7440D1*
X59440D1*
X58690Y8190D1*
Y9190D1*
X44440Y7940D2*
Y11940D1*
Y15690D1*
Y23440D1*
Y31190D1*
X58690Y9190D2*
Y10690D1*
X57440Y11940D1*
X44440D1*
Y62190D2*
Y54440D1*
Y46690D1*
Y38940D1*
Y31190D1*
X40440Y7940D2*
X40393D1*
X38190Y10143D1*
X40440Y15690D2*
X40393D1*
X38190Y17893D1*
X40440Y23440D2*
X40393D1*
X38190Y25643D1*
X40440Y31190D2*
X40393D1*
X38190Y33393D1*
X40440Y38940D2*
X40393D1*
X38190Y41143D1*
X40440Y46690D2*
X40393D1*
X38190Y48893D1*
X40440Y54440D2*
X40393D1*
X38190Y56643D1*
X40440Y62190D2*
X40393D1*
X38190Y64393D1*
X25064Y88319D2*
D13*
Y87316D1*
X26690Y85690D1*
X27495D1*
X27625Y85820D1*
X29440Y85690D2*
X27755D1*
X27625Y85820D1*
X20844Y80284D2*
Y84099D1*
X25064Y88319D1*
X33381Y83382D2*
X36998D1*
X37190Y83190D1*
X40440Y81940D2*
Y83315D1*
X40507Y83382D1*
X30940Y85190D2*
Y84441D1*
X30881Y84382D1*
X62440Y18690D2*
D15*
X61690D1*
X60690Y19690D1*
Y22940D1*
Y27190D1*
Y31440D1*
Y35690D1*
Y39940D1*
Y44190D1*
Y48440D1*
Y52190D1*
X61190Y52690D1*
X62940D1*
X62440Y53190D1*
Y52690D1*
Y48440D2*
X60690D1*
X62440Y44190D2*
X60690D1*
X62440Y39940D2*
X60690D1*
X62440Y35690D2*
X60690D1*
X62440Y31440D2*
X60690D1*
X62440Y22940D2*
X60690D1*
X62440Y27190D2*
X60690D1*
X62440Y20690D2*
X63190D1*
X64440Y21940D1*
Y24940D1*
Y29190D1*
Y33440D1*
Y37690D1*
Y41940D1*
Y46190D1*
Y50440D1*
Y53940D1*
X63690Y54690D1*
X62440D1*
Y50440D2*
X64440D1*
X62440Y46190D2*
X64440D1*
X62440Y41940D2*
X64440D1*
X62440Y37690D2*
X64440D1*
X62440Y33440D2*
X64440D1*
X62440Y29190D2*
X64440D1*
X62440Y24940D2*
X64440D1*
X18990Y75112D2*
D13*
X19640D1*
X20844Y76315D1*
X50047Y74945D2*
X51363D1*
X52001Y75583D1*
Y76297D1*
Y76298D1*
X38907Y79284D2*
Y73843D1*
Y71767D1*
X38289Y71149D1*
X8905Y78914D2*
Y74909D1*
Y70678D1*
X8927Y70655D1*
X6184Y73649D2*
Y73399D1*
X8927Y70655D1*
X31940Y85690D2*
Y84441D1*
X31881Y84382D1*
X39007D2*
Y83882D1*
X39507Y83382D1*
X31881Y84382D2*
Y83882D1*
X32381Y83382D1*
X27625Y86568D2*
Y87758D1*
X27064Y88319D1*
X39007Y84382D2*
Y84757D1*
X40190Y85940D1*
X42190D1*
X42440Y86190D1*
X42940D1*
X43190Y86440D1*
X43876D1*
X43942Y86506D1*
X45753Y85057D2*
D16*
Y84440D1*
X45690D1*
D13*
Y85940D1*
X45190Y86440D1*
X44007D1*
X43942Y86506D1*
X45253Y83657D2*
Y82690D1*
X45190D1*
Y84190D1*
X45440Y84440D1*
X45690D1*
X45253Y83657D2*
D16*
Y82876D1*
D13*
Y82190D1*
X52440D1*
X53190Y81440D1*
Y77487D1*
X52001Y76298D1*
X26376Y84481D2*
D16*
X26599D1*
D13*
X26981D1*
X27190Y84690D1*
X18990Y75112D2*
X9107D1*
X8905Y74909D1*
X20844Y76315D2*
X21065D1*
X22440Y77690D1*
Y80940D1*
X23690Y82190D1*
X25690D1*
X25940Y82440D1*
D16*
Y83081D1*
X25876D1*
Y83626D1*
D13*
X26440Y84190D1*
Y84417D1*
D16*
X26376Y84481D1*
X36590Y73843D2*
D13*
X38907D1*
X32940Y86440D2*
Y84441D1*
X32881Y84382D1*
X25940Y85440D2*
Y84544D1*
D16*
X25876Y84481D1*
X45753Y83657D2*
Y82877D1*
D13*
X45940Y82690D1*
X43190D2*
Y84690D1*
X42940Y84940D1*
X40565D1*
X40007Y84382D1*
X7690Y9190D2*
D17*
Y11190D1*
D18*
X10690Y14190D1*
Y18190D1*
X7690Y21190D1*
Y22403D1*
D17*
Y24190D1*
X9690Y9190D2*
X10190D1*
D18*
X13690Y12690D1*
Y19190D1*
X10190Y22690D1*
Y23690D1*
D17*
X9690Y24190D1*
X16421Y16421D2*
X16440Y16440D1*
Y14653D1*
D18*
Y10477D1*
D17*
Y8690D1*
Y16440D2*
Y18227D1*
D18*
Y22403D1*
D17*
Y24190D1*
Y25977D1*
D18*
Y30153D1*
D17*
Y31940D1*
Y33727D1*
D18*
Y37903D1*
D17*
Y39690D1*
Y41477D1*
D18*
Y45653D1*
D17*
Y47440D1*
X9690Y24190D2*
X10190D1*
D18*
Y25690D1*
X15176Y30676D1*
D17*
X16440Y31940D1*
Y47440D2*
Y49227D1*
D18*
Y53403D1*
D17*
Y55190D1*
Y56977D1*
D18*
Y61153D1*
D17*
Y62940D1*
X38907Y80820D2*
D13*
X38061D1*
X37441Y80200D1*
Y79964D1*
Y77646D1*
X36590Y76796D1*
X37441Y79964D2*
D14*
X37324Y80081D1*
X36590Y70922D2*
D13*
Y71543D1*
X35506Y72628D1*
Y75711D1*
X36590Y76796D1*
X38289Y70149D2*
X36615D1*
X36590Y70174D1*
X46566Y73843D2*
D19*
Y70613D1*
X46589Y70590D1*
X44582Y73843D2*
Y70597D1*
X44589Y70590D1*
X42598Y73843D2*
Y70599D1*
X42589Y70590D1*
X36497Y80337D2*
D14*
Y80497D1*
D13*
X37440Y81440D1*
X42940D1*
X43940Y82440D1*
Y84440D1*
X44440Y84940D1*
D16*
X45190D1*
Y84993D1*
X45253Y85057D1*
X42610Y80111D2*
D19*
Y76808D1*
X42598Y76796D1*
X46610Y80111D2*
Y76840D1*
X46566Y76796D1*
X44610Y80111D2*
Y76824D1*
X44582Y76796D1*
X8905Y80449D2*
D13*
X7797D1*
X7239Y79891D1*
D14*
X7085Y79738D1*
Y79521D1*
D13*
Y77504D1*
X6184Y76602D1*
X5929D1*
X4977Y75650D1*
Y71448D1*
X6039Y70386D1*
X6641D1*
X6649Y70395D1*
Y69647D2*
X8919D1*
X8927Y69655D1*
X16160Y73649D2*
D19*
Y70374D1*
X16153Y70367D1*
X14176Y73649D2*
Y70389D1*
X14153Y70367D1*
X12191Y73649D2*
Y70405D1*
X12153Y70367D1*
X46253Y85057D2*
D16*
Y84837D1*
D13*
Y87377D1*
X45190Y88440D1*
X28940D1*
X28190Y89190D1*
X14690D1*
X6190Y80690D1*
Y80062D1*
D14*
X6259Y79994D1*
X16188Y79818D2*
D19*
Y76630D1*
X16160Y76602D1*
X14188Y79818D2*
Y76614D1*
X14176Y76602D1*
X12188Y79818D2*
Y76606D1*
X12191Y76602D1*
X38190Y7190D2*
D15*
X38940Y6440D1*
X41190D1*
X42440Y7690D1*
Y7940D1*
X28214Y7190D2*
D19*
Y6940D1*
X18440D1*
Y8690D1*
X24690D2*
X31440D1*
X32190Y9440D1*
Y10135D1*
X32182Y10143D1*
X20690Y8690D2*
Y9690D1*
X21440Y10440D1*
X27916D1*
X28214Y10143D1*
X38190Y14940D2*
D15*
X38940Y14190D1*
X41190D1*
X42440Y15440D1*
Y15690D1*
X28214Y14940D2*
D19*
Y14690D1*
X18440D1*
Y16440D1*
X24690D2*
X31440D1*
X32190Y17190D1*
Y17885D1*
X32182Y17893D1*
X20690Y16440D2*
Y17440D1*
X21440Y18190D1*
X27916D1*
X28214Y17893D1*
X38190Y22690D2*
D15*
X38940Y21940D1*
X41190D1*
X42440Y23190D1*
Y23440D1*
X28214Y22690D2*
D19*
Y22440D1*
X18440D1*
Y24190D1*
X24690D2*
X31440D1*
X32190Y24940D1*
Y25635D1*
X32182Y25643D1*
X20690Y24190D2*
Y25190D1*
X21440Y25940D1*
X27916D1*
X28214Y25643D1*
X38190Y30440D2*
D15*
X38940Y29690D1*
X41190D1*
X42440Y30940D1*
Y31190D1*
X28214Y30440D2*
D19*
Y30190D1*
X18440D1*
Y31940D1*
X24690D2*
X31440D1*
X32190Y32690D1*
Y33385D1*
X32182Y33393D1*
X20690Y31940D2*
Y32940D1*
X21440Y33690D1*
X27916D1*
X28214Y33393D1*
X38190Y38190D2*
D15*
X38940Y37440D1*
X41190D1*
X42440Y38690D1*
Y38940D1*
X28214Y38190D2*
D19*
Y37940D1*
X18440D1*
Y39690D1*
X24690D2*
X31440D1*
X32190Y40440D1*
Y41135D1*
X32182Y41143D1*
X20690Y39690D2*
Y40690D1*
X21440Y41440D1*
X27916D1*
X28214Y41143D1*
X38190Y45940D2*
D15*
X38940Y45190D1*
X41190D1*
X42440Y46440D1*
Y46690D1*
X28214Y45940D2*
D19*
Y45690D1*
X18440D1*
Y47440D1*
X24690D2*
X31440D1*
X32190Y48190D1*
Y48885D1*
X32182Y48893D1*
X20690Y47440D2*
Y48440D1*
X21440Y49190D1*
X27916D1*
X28214Y48893D1*
X38190Y53690D2*
D15*
X38940Y52940D1*
X41190D1*
X42440Y54190D1*
Y54440D1*
X28214Y53690D2*
D19*
Y53440D1*
X18440D1*
Y55190D1*
X24690D2*
X31440D1*
X32190Y55940D1*
Y56635D1*
X32182Y56643D1*
X20690Y55190D2*
Y56190D1*
X21440Y56940D1*
X27916D1*
X28214Y56643D1*
X38190Y61440D2*
D15*
X38940Y60690D1*
X41190D1*
X42440Y61940D1*
Y62190D1*
X28214Y61440D2*
D19*
Y61190D1*
X18440D1*
Y62940D1*
X24690D2*
X31440D1*
X32190Y63690D1*
Y64385D1*
X32182Y64393D1*
X20690Y62940D2*
Y63940D1*
X21440Y64690D1*
X27916D1*
X28214Y64393D1*
X23797Y70307D2*
D15*
X27055D1*
X27130Y70383D1*
Y72383D2*
X21606D1*
X20863Y71641D1*
Y70327D1*
X20844Y70307D1*
X18990Y76112D2*
D13*
Y77613D1*
X19004Y77626D1*
X27127Y80256D2*
D19*
X23825D1*
X23797Y80284D1*
X27127Y78256D2*
X23840D1*
X23797Y78300D1*
X27127Y76256D2*
X23856D1*
X23797Y76315D1*
X20844Y78300D2*
D13*
X19078D1*
X19004Y78374D1*
Y79945D1*
X19008Y79949D1*
X58275Y70326D2*
D15*
X54990D1*
X54954Y70290D1*
X58275Y72326D2*
X54037D1*
X52001Y70290D1*
X50047Y75945D2*
D13*
Y77501D1*
X50049Y77503D1*
X58273Y80242D2*
D19*
X54978D1*
X54954Y80266D1*
X58273Y78242D2*
X54994D1*
X54954Y78282D1*
X58273Y76242D2*
X55010D1*
X54954Y76298D1*
X50049Y78251D2*
D13*
Y79768D1*
X50057Y79776D1*
X52001Y78282D2*
X50080D1*
X50049Y78251D1*
X25376Y83081D2*
D16*
X25081D1*
D13*
X24690Y82690D1*
X48690Y80440D2*
X49973D1*
X50057Y80524D1*
X19008Y80697D2*
Y82508D1*
X19690Y83190D1*
X27190D2*
X26486D1*
D16*
X26376Y83081D1*
D28*
X43942Y85758D3*
X42440Y84190D3*
Y82440D3*
X27690Y81940D3*
X6190Y78690D3*
X29440Y85690D3*
X37190Y83190D3*
X40440Y81940D3*
X30940Y85190D3*
X31940Y85690D3*
X27190Y84690D3*
X32940Y86440D3*
X25940Y85440D3*
X45940Y82690D3*
X43190D3*
X24690D3*
X48690Y80440D3*
X19690Y83190D3*
X27190D3*
D17*
X62440Y54690D3*
Y52690D3*
X58690Y9190D3*
X56690D3*
X7690Y24190D3*
X9690D3*
X62940Y9190D3*
X60940D3*
X7690D3*
X9690D3*
D20*
X27064Y88319D3*
X26064D3*
X25064D3*
D21*
X33381Y83382D3*
X32881Y84382D3*
X32381Y83382D3*
X31881Y84382D3*
X31381Y83382D3*
X30881Y84382D3*
X40507Y83382D3*
X40007Y84382D3*
X39507Y83382D3*
X39007Y84382D3*
X38507Y83382D3*
X38007Y84382D3*
D22*
X27625Y85820D3*
Y86568D3*
X43942Y85758D3*
Y86506D3*
D23*
X38907Y80820D3*
Y79284D3*
D20*
X38289Y71149D3*
Y70149D3*
D17*
X46589Y70590D3*
X44589D3*
X42589D3*
D25*
X36497Y80337D3*
Y79825D3*
X37324Y80081D3*
D22*
X36590Y70174D3*
Y70922D3*
D19*
Y76796D3*
Y73843D3*
X42598Y76796D3*
X44582D3*
X46566D3*
X42598Y73843D3*
X44582D3*
X46566D3*
D17*
X46610Y80111D3*
X44610D3*
X42610D3*
D23*
X8905Y80449D3*
Y78914D3*
D20*
X8927Y70655D3*
Y69655D3*
D17*
X16153Y70367D3*
X14153D3*
X12153D3*
D25*
X6259Y79994D3*
Y79482D3*
X7085Y79738D3*
D22*
X6649Y69647D3*
Y70395D3*
D27*
X45253Y83657D3*
X45753D3*
X46253D3*
Y85057D3*
X45753D3*
X45253D3*
D17*
X16188Y79818D3*
X14188D3*
X12188D3*
D19*
X6184Y76602D3*
Y73649D3*
X12191Y76602D3*
X14176D3*
X16160D3*
X12191Y73649D3*
X14176D3*
X16160D3*
D17*
X44440Y7940D3*
X42440D3*
X40440D3*
X46440D3*
X48440D3*
X50440D3*
X18440Y8690D3*
X16440D3*
X62440Y18690D3*
Y20690D3*
D19*
X38190Y7190D3*
Y10143D3*
X32182Y7190D3*
X30198D3*
X28214D3*
X32182Y10143D3*
X30198D3*
X28214D3*
D17*
X20690Y8690D3*
X22690D3*
X24690D3*
X44440Y15690D3*
X42440D3*
X40440D3*
X46440D3*
X48440D3*
X50440D3*
X18440Y16440D3*
X16440D3*
X62440Y22940D3*
Y24940D3*
D19*
X38190Y14940D3*
Y17893D3*
X32182Y14940D3*
X30198D3*
X28214D3*
X32182Y17893D3*
X30198D3*
X28214D3*
D17*
X20690Y16440D3*
X22690D3*
X24690D3*
X44440Y23440D3*
X42440D3*
X40440D3*
X46440D3*
X48440D3*
X50440D3*
X18440Y24190D3*
X16440D3*
X62440Y27190D3*
Y29190D3*
D19*
X38190Y22690D3*
Y25643D3*
X32182Y22690D3*
X30198D3*
X28214D3*
X32182Y25643D3*
X30198D3*
X28214D3*
D17*
X20690Y24190D3*
X22690D3*
X24690D3*
X44440Y31190D3*
X42440D3*
X40440D3*
X46440D3*
X48440D3*
X50440D3*
X18440Y31940D3*
X16440D3*
X62440Y31440D3*
Y33440D3*
D19*
X38190Y30440D3*
Y33393D3*
X32182Y30440D3*
X30198D3*
X28214D3*
X32182Y33393D3*
X30198D3*
X28214D3*
D17*
X20690Y31940D3*
X22690D3*
X24690D3*
X44440Y38940D3*
X42440D3*
X40440D3*
X46440D3*
X48440D3*
X50440D3*
X18440Y39690D3*
X16440D3*
X62440Y35690D3*
Y37690D3*
D19*
X38190Y38190D3*
Y41143D3*
X32182Y38190D3*
X30198D3*
X28214D3*
X32182Y41143D3*
X30198D3*
X28214D3*
D17*
X20690Y39690D3*
X22690D3*
X24690D3*
X44440Y46690D3*
X42440D3*
X40440D3*
X46440D3*
X48440D3*
X50440D3*
X18440Y47440D3*
X16440D3*
X62440Y39940D3*
Y41940D3*
D19*
X38190Y45940D3*
Y48893D3*
X32182Y45940D3*
X30198D3*
X28214D3*
X32182Y48893D3*
X30198D3*
X28214D3*
D17*
X20690Y47440D3*
X22690D3*
X24690D3*
X44440Y54440D3*
X42440D3*
X40440D3*
X46440D3*
X48440D3*
X50440D3*
X18440Y55190D3*
X16440D3*
X62440Y44190D3*
Y46190D3*
D19*
X38190Y53690D3*
Y56643D3*
X32182Y53690D3*
X30198D3*
X28214D3*
X32182Y56643D3*
X30198D3*
X28214D3*
D17*
X20690Y55190D3*
X22690D3*
X24690D3*
X44440Y62190D3*
X42440D3*
X40440D3*
X46440D3*
X48440D3*
X50440D3*
X18440Y62940D3*
X16440D3*
X62440Y48440D3*
Y50440D3*
D19*
X38190Y61440D3*
Y64393D3*
X32182Y61440D3*
X30198D3*
X28214D3*
X32182Y64393D3*
X30198D3*
X28214D3*
D17*
X20690Y62940D3*
X22690D3*
X24690D3*
X27130Y70383D3*
Y72383D3*
D20*
X18990Y75112D3*
Y76112D3*
D17*
X27127Y80256D3*
Y78256D3*
Y76256D3*
D22*
X19004Y77626D3*
Y78374D3*
D19*
X20844Y70307D3*
X23797D3*
X20844Y76315D3*
Y78300D3*
Y80284D3*
X23797Y76315D3*
Y78300D3*
Y80284D3*
D17*
X58275Y70326D3*
Y72326D3*
D20*
X50047Y74945D3*
Y75945D3*
D17*
X58273Y80242D3*
Y78242D3*
Y76242D3*
D22*
X50049Y77503D3*
Y78251D3*
D19*
X52001Y70290D3*
X54954D3*
X52001Y76298D3*
Y78282D3*
Y80266D3*
X54954Y76298D3*
Y78282D3*
Y80266D3*
D27*
X26376Y84481D3*
X25876D3*
X25376D3*
Y83081D3*
X25876D3*
X26376D3*
D22*
X19008Y80697D3*
Y79949D3*
X50057Y80524D3*
Y79776D3*
%LNBoardOutline*%
X3940Y3940D2*
D11*
X66440D1*
Y90190D1*
X3940D1*
Y3940D1*
M02*
