G04 DipTrace 2.4.0.2*
%INtopsilk.gbr*%
%MOIN*%
%ADD10C,0.0098*%
%ADD11C,0.006*%
%ADD13C,0.0236*%
%ADD24C,0.0154*%
%ADD26C,0.0118*%
%ADD52C,0.0077*%
%FSLAX44Y44*%
G04*
G70*
G90*
G75*
G01*
%LNTopSilk*%
%LPD*%
X64212Y55690D2*
D10*
X60668D1*
Y51690D1*
X64212D1*
Y55690D1*
X59690Y7418D2*
X55690D1*
Y10962D1*
X59690D1*
Y7418D1*
X6690Y25962D2*
X10690D1*
Y22418D1*
X6690D1*
Y25962D1*
X63940Y7418D2*
X59940D1*
Y10962D1*
X63940D1*
Y7418D1*
X6690Y10962D2*
X10690D1*
Y7418D1*
X6690D1*
Y10962D1*
X3940Y3940D2*
X66440D1*
Y90190D1*
X3940D1*
Y3940D1*
X56752Y4035D2*
G02X61127Y3957I2187J-56D01*
G01*
X58959D2*
Y6087D1*
X35259Y82748D2*
X28999D1*
Y89244D1*
X35259D1*
Y82748D1*
X42385D2*
X36125D1*
Y89244D1*
X42385D1*
Y82748D1*
X27881Y85406D2*
X27370D1*
X44198Y85344D2*
X43686D1*
X39478Y80918D2*
Y79186D1*
X38336Y80918D2*
Y79186D1*
D13*
X38907Y81312D3*
X47589Y68819D2*
D10*
X41589D1*
Y72362D1*
X47589D1*
Y68819D1*
D24*
X36468Y80606D3*
X36812Y80475D2*
D10*
Y79687D1*
X37009D1*
Y80475D1*
X36812D1*
X35665Y77788D2*
X47582D1*
Y72851D1*
X35665D1*
Y77788D1*
X47610Y78339D2*
X41610D1*
Y81882D1*
X47610D1*
Y78339D1*
X9476Y80547D2*
Y78815D1*
X8334Y80547D2*
Y78815D1*
D13*
X8905Y80941D3*
X17153Y68595D2*
D10*
X11153D1*
Y72139D1*
X17153D1*
Y68595D1*
D24*
X6230Y80263D3*
X6574Y80131D2*
D10*
Y79344D1*
X6770D1*
Y80131D1*
X6574D1*
X45175Y84583D2*
X46356D1*
Y84150D1*
X45175D1*
Y84583D1*
D26*
X45037Y84091D3*
X17188Y78047D2*
D10*
X11188D1*
Y81590D1*
X17188D1*
Y78047D1*
X5258Y77594D2*
X17176D1*
Y72657D1*
X5258D1*
Y77594D1*
X45440Y6168D2*
X39440D1*
Y9712D1*
X45440D1*
Y6168D1*
Y9712D2*
X51440D1*
Y6168D1*
X45440D1*
Y9712D1*
X19440Y6918D2*
X15440D1*
Y10462D1*
X19440D1*
Y6918D1*
X60668Y17690D2*
X64212D1*
Y21690D1*
X60668D1*
Y17690D1*
X39115Y6198D2*
X27198D1*
Y11135D1*
X39115D1*
Y6198D1*
X19690Y10462D2*
X25690D1*
Y6918D1*
X19690D1*
Y10462D1*
X45440Y13918D2*
X39440D1*
Y17462D1*
X45440D1*
Y13918D1*
Y17462D2*
X51440D1*
Y13918D1*
X45440D1*
Y17462D1*
X19440Y14668D2*
X15440D1*
Y18212D1*
X19440D1*
Y14668D1*
X60668Y21940D2*
X64212D1*
Y25940D1*
X60668D1*
Y21940D1*
X39115Y13948D2*
X27198D1*
Y18885D1*
X39115D1*
Y13948D1*
X19690Y18212D2*
X25690D1*
Y14668D1*
X19690D1*
Y18212D1*
X45440Y21668D2*
X39440D1*
Y25212D1*
X45440D1*
Y21668D1*
Y25212D2*
X51440D1*
Y21668D1*
X45440D1*
Y25212D1*
X19440Y22418D2*
X15440D1*
Y25962D1*
X19440D1*
Y22418D1*
X60668Y26190D2*
X64212D1*
Y30190D1*
X60668D1*
Y26190D1*
X39115Y21698D2*
X27198D1*
Y26635D1*
X39115D1*
Y21698D1*
X19690Y25962D2*
X25690D1*
Y22418D1*
X19690D1*
Y25962D1*
X45440Y29418D2*
X39440D1*
Y32962D1*
X45440D1*
Y29418D1*
Y32962D2*
X51440D1*
Y29418D1*
X45440D1*
Y32962D1*
X19440Y30168D2*
X15440D1*
Y33712D1*
X19440D1*
Y30168D1*
X60668Y30440D2*
X64212D1*
Y34440D1*
X60668D1*
Y30440D1*
X39115Y29448D2*
X27198D1*
Y34385D1*
X39115D1*
Y29448D1*
X19690Y33712D2*
X25690D1*
Y30168D1*
X19690D1*
Y33712D1*
X45440Y37168D2*
X39440D1*
Y40712D1*
X45440D1*
Y37168D1*
Y40712D2*
X51440D1*
Y37168D1*
X45440D1*
Y40712D1*
X19440Y37918D2*
X15440D1*
Y41462D1*
X19440D1*
Y37918D1*
X60668Y34690D2*
X64212D1*
Y38690D1*
X60668D1*
Y34690D1*
X39115Y37198D2*
X27198D1*
Y42135D1*
X39115D1*
Y37198D1*
X19690Y41462D2*
X25690D1*
Y37918D1*
X19690D1*
Y41462D1*
X45440Y44918D2*
X39440D1*
Y48462D1*
X45440D1*
Y44918D1*
Y48462D2*
X51440D1*
Y44918D1*
X45440D1*
Y48462D1*
X19440Y45668D2*
X15440D1*
Y49212D1*
X19440D1*
Y45668D1*
X60668Y38940D2*
X64212D1*
Y42940D1*
X60668D1*
Y38940D1*
X39115Y44948D2*
X27198D1*
Y49885D1*
X39115D1*
Y44948D1*
X19690Y49212D2*
X25690D1*
Y45668D1*
X19690D1*
Y49212D1*
X45440Y52668D2*
X39440D1*
Y56212D1*
X45440D1*
Y52668D1*
Y56212D2*
X51440D1*
Y52668D1*
X45440D1*
Y56212D1*
X19440Y53418D2*
X15440D1*
Y56962D1*
X19440D1*
Y53418D1*
X60668Y43190D2*
X64212D1*
Y47190D1*
X60668D1*
Y43190D1*
X39115Y52698D2*
X27198D1*
Y57635D1*
X39115D1*
Y52698D1*
X19690Y56962D2*
X25690D1*
Y53418D1*
X19690D1*
Y56962D1*
X45440Y60418D2*
X39440D1*
Y63962D1*
X45440D1*
Y60418D1*
Y63962D2*
X51440D1*
Y60418D1*
X45440D1*
Y63962D1*
X19440Y61168D2*
X15440D1*
Y64712D1*
X19440D1*
Y61168D1*
X60668Y47440D2*
X64212D1*
Y51440D1*
X60668D1*
Y47440D1*
X39115Y60448D2*
X27198D1*
Y65385D1*
X39115D1*
Y60448D1*
X19690Y64712D2*
X25690D1*
Y61168D1*
X19690D1*
Y64712D1*
X25359Y69383D2*
X28902D1*
Y73383D1*
X25359D1*
Y69383D1*
X28898Y81256D2*
X25355D1*
Y75256D1*
X28898D1*
Y81256D1*
X19852Y69382D2*
X24789D1*
Y81300D1*
X19852D1*
Y69382D1*
X56503Y69326D2*
X60047D1*
Y73326D1*
X56503D1*
Y69326D1*
X60044Y81242D2*
X56501D1*
Y75242D1*
X60044D1*
Y81242D1*
X51009Y69365D2*
X55946D1*
Y81282D1*
X51009D1*
Y69365D1*
X26455Y83554D2*
X25274D1*
Y83987D1*
X26455D1*
Y83554D1*
D26*
X26593Y84046D3*
X59936Y52264D2*
D52*
X60439D1*
Y52431D1*
X60414Y52503D1*
X60367Y52551D1*
X60319Y52575D1*
X60247Y52599D1*
X60127D1*
X60055Y52575D1*
X60008Y52551D1*
X59960Y52503D1*
X59936Y52431D1*
Y52264D1*
Y53064D2*
Y52753D1*
X60439D1*
Y53064D1*
X60175Y52753D2*
Y52944D1*
X60439Y53600D2*
X59936D1*
X60439Y53409D1*
X59936Y53218D1*
X60439D1*
Y54138D2*
X59936Y53946D1*
X60439Y53755D1*
X60271Y53827D2*
Y54066D1*
X59936Y54627D2*
X60439D1*
X59936Y54292D1*
X60439D1*
X59936Y54781D2*
X60439D1*
Y54949D1*
X60414Y55021D1*
X60367Y55069D1*
X60319Y55093D1*
X60247Y55116D1*
X60127D1*
X60055Y55093D1*
X60008Y55069D1*
X59960Y55021D1*
X59936Y54949D1*
Y54781D1*
X56497Y11574D2*
Y11598D1*
X56520Y11646D1*
X56544Y11670D1*
X56592Y11693D1*
X56688D1*
X56735Y11670D1*
X56759Y11646D1*
X56783Y11598D1*
Y11550D1*
X56759Y11502D1*
X56712Y11431D1*
X56472Y11191D1*
X56807D1*
X57201D2*
Y11693D1*
X56962Y11359D1*
X57320D1*
X57475Y11694D2*
X57666Y11191D1*
X57857Y11694D1*
X58395Y11191D2*
X58203Y11694D1*
X58012Y11191D1*
X58083Y11359D2*
X58323D1*
X58908Y11575D2*
X58884Y11622D1*
X58836Y11670D1*
X58788Y11694D1*
X58693D1*
X58645Y11670D1*
X58597Y11622D1*
X58573Y11575D1*
X58549Y11503D1*
Y11383D1*
X58573Y11311D1*
X58597Y11263D1*
X58645Y11216D1*
X58693Y11191D1*
X58788D1*
X58836Y11216D1*
X58884Y11263D1*
X58908Y11311D1*
X7717Y26694D2*
X8052D1*
X7717Y26191D1*
X8052D1*
X8206Y26431D2*
X8422D1*
X8493Y26455D1*
X8517Y26479D1*
X8541Y26526D1*
Y26598D1*
X8517Y26646D1*
X8493Y26670D1*
X8422Y26694D1*
X8206D1*
Y26191D1*
X8695Y26694D2*
X8815Y26191D1*
X8935Y26694D1*
X9054Y26191D1*
X9174Y26694D1*
X9328Y26455D2*
X9543D1*
X9615Y26479D1*
X9640Y26503D1*
X9663Y26550D1*
Y26598D1*
X9640Y26646D1*
X9615Y26670D1*
X9543Y26694D1*
X9328D1*
Y26191D1*
X9496Y26455D2*
X9663Y26191D1*
X60609Y11574D2*
Y11598D1*
X60633Y11646D1*
X60657Y11670D1*
X60705Y11693D1*
X60801D1*
X60848Y11670D1*
X60872Y11646D1*
X60896Y11598D1*
Y11550D1*
X60872Y11502D1*
X60824Y11431D1*
X60585Y11191D1*
X60920D1*
X61314D2*
Y11693D1*
X61074Y11359D1*
X61433D1*
X61588Y11694D2*
X61779Y11191D1*
X61970Y11694D1*
X62507Y11191D2*
X62316Y11694D1*
X62124Y11191D1*
X62196Y11359D2*
X62436D1*
X63021Y11575D2*
X62997Y11622D1*
X62949Y11670D1*
X62901Y11694D1*
X62806D1*
X62757Y11670D1*
X62710Y11622D1*
X62686Y11575D1*
X62662Y11503D1*
Y11383D1*
X62686Y11311D1*
X62710Y11263D1*
X62757Y11216D1*
X62806Y11191D1*
X62901D1*
X62949Y11216D1*
X62997Y11263D1*
X63021Y11311D1*
X63175Y11598D2*
X63223Y11622D1*
X63295Y11693D1*
Y11191D1*
X7580Y11694D2*
X7914D1*
X7580Y11191D1*
X7914D1*
X8069Y11431D2*
X8284D1*
X8356Y11455D1*
X8380Y11479D1*
X8404Y11526D1*
Y11598D1*
X8380Y11646D1*
X8356Y11670D1*
X8284Y11694D1*
X8069D1*
Y11191D1*
X8558Y11694D2*
X8678Y11191D1*
X8797Y11694D1*
X8917Y11191D1*
X9037Y11694D1*
X9191Y11455D2*
X9406D1*
X9478Y11479D1*
X9502Y11503D1*
X9526Y11550D1*
Y11598D1*
X9502Y11646D1*
X9478Y11670D1*
X9406Y11694D1*
X9191D1*
Y11191D1*
X9359Y11455D2*
X9526Y11191D1*
X9681Y11598D2*
X9729Y11622D1*
X9800Y11693D1*
Y11191D1*
X34372Y90922D2*
Y90420D1*
X34588D1*
X34660Y90444D1*
X34683Y90468D1*
X34707Y90515D1*
Y90587D1*
X34683Y90635D1*
X34660Y90659D1*
X34588Y90683D1*
X34660Y90707D1*
X34683Y90731D1*
X34707Y90778D1*
Y90826D1*
X34683Y90874D1*
X34660Y90898D1*
X34588Y90922D1*
X34372D1*
Y90683D2*
X34588D1*
X35005Y90922D2*
X34957Y90898D1*
X34910Y90850D1*
X34885Y90803D1*
X34861Y90731D1*
Y90611D1*
X34885Y90540D1*
X34910Y90492D1*
X34957Y90444D1*
X35005Y90420D1*
X35101D1*
X35148Y90444D1*
X35196Y90492D1*
X35220Y90540D1*
X35244Y90611D1*
Y90731D1*
X35220Y90803D1*
X35196Y90850D1*
X35148Y90898D1*
X35101Y90922D1*
X35005D1*
X35398D2*
X35733Y90420D1*
Y90922D2*
X35398Y90420D1*
X35888Y90826D2*
X35936Y90850D1*
X36008Y90922D1*
Y90420D1*
X24906Y89355D2*
X24954Y89379D1*
X25026Y89451D1*
Y88949D1*
X25180Y89451D2*
X25300Y88949D1*
X25419Y89451D1*
X25539Y88949D1*
X25659Y89451D1*
X26196Y88949D2*
X26004Y89451D1*
X25813Y88949D1*
X25885Y89116D2*
X26124D1*
X26709Y89332D2*
X26685Y89379D1*
X26637Y89428D1*
X26590Y89451D1*
X26494D1*
X26446Y89428D1*
X26398Y89379D1*
X26374Y89332D1*
X26350Y89260D1*
Y89140D1*
X26374Y89069D1*
X26398Y89021D1*
X26446Y88973D1*
X26494Y88949D1*
X26590D1*
X26637Y88973D1*
X26685Y89021D1*
X26709Y89069D1*
X27222Y89332D2*
X27198Y89379D1*
X27150Y89428D1*
X27103Y89451D1*
X27007D1*
X26959Y89428D1*
X26912Y89379D1*
X26887Y89332D1*
X26863Y89260D1*
Y89140D1*
X26887Y89069D1*
X26912Y89021D1*
X26959Y88973D1*
X27007Y88949D1*
X27103D1*
X27150Y88973D1*
X27198Y89021D1*
X27222Y89069D1*
X31061Y89880D2*
X31109Y89904D1*
X31181Y89976D1*
Y89474D1*
X31335Y89976D2*
X31455Y89474D1*
X31575Y89976D1*
X31694Y89474D1*
X31814Y89976D1*
X31968D2*
Y89474D1*
X32123Y89737D2*
X32338D1*
X32409Y89761D1*
X32434Y89785D1*
X32458Y89833D1*
Y89881D1*
X32434Y89928D1*
X32409Y89953D1*
X32338Y89976D1*
X32123D1*
Y89474D1*
X32290Y89737D2*
X32458Y89474D1*
X32923Y89976D2*
X32612D1*
Y89474D1*
X32923D1*
X32612Y89737D2*
X32803D1*
X33077Y89880D2*
X33125Y89904D1*
X33197Y89976D1*
Y89474D1*
X38079Y89880D2*
X38127Y89904D1*
X38199Y89976D1*
Y89474D1*
X38353Y89976D2*
X38473Y89474D1*
X38593Y89976D1*
X38712Y89474D1*
X38832Y89976D1*
X38986D2*
Y89474D1*
X39141Y89737D2*
X39356D1*
X39428Y89761D1*
X39452Y89785D1*
X39476Y89833D1*
Y89881D1*
X39452Y89928D1*
X39428Y89953D1*
X39356Y89976D1*
X39141D1*
Y89474D1*
X39308Y89737D2*
X39476Y89474D1*
X39941Y89976D2*
X39630D1*
Y89474D1*
X39941D1*
X39630Y89737D2*
X39821D1*
X40120Y89856D2*
Y89880D1*
X40143Y89928D1*
X40167Y89952D1*
X40215Y89976D1*
X40311D1*
X40358Y89952D1*
X40382Y89928D1*
X40406Y89880D1*
Y89833D1*
X40382Y89785D1*
X40335Y89713D1*
X40095Y89474D1*
X40430D1*
X26717Y86157D2*
X26670Y86134D1*
X26622Y86086D1*
X26598Y86038D1*
Y85942D1*
X26622Y85894D1*
X26670Y85847D1*
X26717Y85822D1*
X26789Y85799D1*
X26909D1*
X26980Y85822D1*
X27029Y85847D1*
X27076Y85894D1*
X27100Y85942D1*
Y86038D1*
X27076Y86086D1*
X27029Y86134D1*
X26980Y86157D1*
X26694Y86312D2*
X26670Y86360D1*
X26599Y86432D1*
X27100D1*
X43034Y85987D2*
X42986Y85964D1*
X42938Y85916D1*
X42914Y85868D1*
Y85772D1*
X42938Y85724D1*
X42986Y85677D1*
X43034Y85652D1*
X43106Y85629D1*
X43226D1*
X43297Y85652D1*
X43345Y85677D1*
X43392Y85724D1*
X43417Y85772D1*
Y85868D1*
X43392Y85916D1*
X43345Y85964D1*
X43297Y85987D1*
X43034Y86166D2*
X43011D1*
X42962Y86190D1*
X42939Y86214D1*
X42915Y86262D1*
Y86357D1*
X42939Y86405D1*
X42962Y86429D1*
X43011Y86453D1*
X43058D1*
X43106Y86429D1*
X43177Y86381D1*
X43417Y86142D1*
Y86477D1*
X37438Y78990D2*
Y78487D1*
X37605D1*
X37677Y78512D1*
X37725Y78559D1*
X37749Y78607D1*
X37773Y78679D1*
Y78798D1*
X37749Y78870D1*
X37725Y78918D1*
X37677Y78966D1*
X37605Y78990D1*
X37438D1*
X37975Y78989D2*
X38238D1*
X38094Y78798D1*
X38166D1*
X38214Y78774D1*
X38238Y78750D1*
X38262Y78679D1*
Y78631D1*
X38238Y78559D1*
X38190Y78511D1*
X38118Y78487D1*
X38046D1*
X37975Y78511D1*
X37951Y78535D1*
X37927Y78583D1*
X36934Y69728D2*
X37437D1*
Y70015D1*
X36934Y70480D2*
Y70169D1*
X37437D1*
Y70480D1*
X37174Y70169D2*
Y70361D1*
X36934Y70634D2*
X37437D1*
Y70802D1*
X37412Y70874D1*
X37365Y70922D1*
X37317Y70946D1*
X37246Y70969D1*
X37126D1*
X37054Y70946D1*
X37006Y70922D1*
X36958Y70874D1*
X36934Y70802D1*
Y70634D1*
X36935Y71172D2*
Y71434D1*
X37126Y71291D1*
Y71363D1*
X37150Y71411D1*
X37174Y71434D1*
X37246Y71459D1*
X37293D1*
X37365Y71434D1*
X37413Y71387D1*
X37437Y71315D1*
Y71243D1*
X37413Y71172D1*
X37389Y71148D1*
X37341Y71124D1*
X43647Y73094D2*
X43599Y73070D1*
X43551Y73022D1*
X43527Y72975D1*
X43503Y72903D1*
Y72783D1*
X43527Y72712D1*
X43551Y72664D1*
X43599Y72616D1*
X43647Y72592D1*
X43742D1*
X43790Y72616D1*
X43838Y72664D1*
X43862Y72712D1*
X43885Y72783D1*
Y72903D1*
X43862Y72975D1*
X43838Y73022D1*
X43790Y73070D1*
X43742Y73094D1*
X43647D1*
X44040D2*
Y72736D1*
X44064Y72664D1*
X44112Y72616D1*
X44184Y72592D1*
X44231D1*
X44303Y72616D1*
X44351Y72664D1*
X44375Y72736D1*
Y73094D1*
X44697D2*
Y72592D1*
X44529Y73094D2*
X44864D1*
X45018Y72998D2*
X45067Y73022D1*
X45138Y73094D1*
Y72592D1*
X45676D2*
X45484Y73094D1*
X45293Y72592D1*
X45365Y72759D2*
X45604D1*
X36173Y79301D2*
X36125Y79277D1*
X36077Y79229D1*
X36053Y79181D1*
X36029Y79109D1*
Y78990D1*
X36053Y78918D1*
X36077Y78871D1*
X36125Y78822D1*
X36173Y78799D1*
X36268D1*
X36316Y78822D1*
X36364Y78871D1*
X36388Y78918D1*
X36412Y78990D1*
Y79109D1*
X36388Y79181D1*
X36364Y79229D1*
X36316Y79277D1*
X36268Y79301D1*
X36173D1*
X36245Y78894D2*
X36388Y78751D1*
X36591Y79181D2*
Y79204D1*
X36615Y79252D1*
X36638Y79276D1*
X36686Y79300D1*
X36782D1*
X36830Y79276D1*
X36853Y79252D1*
X36878Y79204D1*
Y79157D1*
X36853Y79109D1*
X36806Y79037D1*
X36566Y78798D1*
X36901D1*
X37416Y70355D2*
Y70570D1*
X37392Y70642D1*
X37368Y70666D1*
X37320Y70690D1*
X37272D1*
X37225Y70666D1*
X37200Y70642D1*
X37177Y70570D1*
Y70355D1*
X37679D1*
X37416Y70522D2*
X37679Y70690D1*
X37273Y70844D2*
X37249Y70892D1*
X37177Y70964D1*
X37679D1*
X35009Y74215D2*
Y74430D1*
X34984Y74502D1*
X34960Y74526D1*
X34913Y74550D1*
X34865D1*
X34817Y74526D1*
X34793Y74502D1*
X34769Y74430D1*
Y74215D1*
X35272D1*
X35009Y74383D2*
X35272Y74550D1*
X34769Y74705D2*
X35272D1*
Y74991D1*
X34769Y75146D2*
X35009Y75337D1*
X35272D1*
X34769Y75528D2*
X35009Y75337D1*
X34889Y75707D2*
X34865D1*
X34817Y75731D1*
X34794Y75755D1*
X34770Y75803D1*
Y75898D1*
X34794Y75946D1*
X34817Y75970D1*
X34865Y75994D1*
X34913D1*
X34961Y75970D1*
X35032Y75922D1*
X35272Y75683D1*
Y76018D1*
X43803Y77940D2*
X43755Y77916D1*
X43707Y77868D1*
X43683Y77820D1*
X43659Y77748D1*
Y77628D1*
X43683Y77557D1*
X43707Y77509D1*
X43755Y77461D1*
X43803Y77437D1*
X43899D1*
X43946Y77461D1*
X43994Y77509D1*
X44018Y77557D1*
X44042Y77628D1*
Y77748D1*
X44018Y77820D1*
X43994Y77868D1*
X43946Y77916D1*
X43899Y77940D1*
X43803D1*
X44196D2*
Y77581D1*
X44220Y77509D1*
X44268Y77461D1*
X44340Y77437D1*
X44387D1*
X44459Y77461D1*
X44507Y77509D1*
X44531Y77581D1*
Y77940D1*
X44853D2*
Y77437D1*
X44685Y77940D2*
X45020D1*
X45175Y77843D2*
X45223Y77868D1*
X45295Y77939D1*
Y77437D1*
X45449Y77940D2*
Y77437D1*
X45665D1*
X45736Y77461D1*
X45760Y77485D1*
X45784Y77533D1*
Y77605D1*
X45760Y77653D1*
X45736Y77676D1*
X45665Y77700D1*
X45736Y77725D1*
X45760Y77748D1*
X45784Y77796D1*
Y77844D1*
X45760Y77891D1*
X45736Y77916D1*
X45665Y77940D1*
X45449D1*
Y77700D2*
X45665D1*
X8481Y81791D2*
Y81289D1*
X8648D1*
X8720Y81313D1*
X8768Y81361D1*
X8792Y81409D1*
X8816Y81480D1*
Y81600D1*
X8792Y81672D1*
X8768Y81720D1*
X8720Y81768D1*
X8648Y81791D1*
X8481D1*
X9209Y81289D2*
Y81791D1*
X8970Y81457D1*
X9329D1*
X7795Y69278D2*
X8298D1*
Y69565D1*
X7795Y70030D2*
Y69719D1*
X8298D1*
Y70030D1*
X8035Y69719D2*
Y69910D1*
X7795Y70184D2*
X8298D1*
Y70351D1*
X8273Y70423D1*
X8226Y70471D1*
X8178Y70495D1*
X8106Y70519D1*
X7986D1*
X7915Y70495D1*
X7867Y70471D1*
X7819Y70423D1*
X7795Y70352D1*
Y70184D1*
X8298Y70913D2*
X7796D1*
X8130Y70673D1*
Y71032D1*
X13103Y72871D2*
X13055Y72847D1*
X13008Y72799D1*
X12983Y72752D1*
X12959Y72680D1*
Y72560D1*
X12983Y72489D1*
X13008Y72440D1*
X13055Y72393D1*
X13103Y72369D1*
X13199D1*
X13246Y72393D1*
X13294Y72440D1*
X13318Y72489D1*
X13342Y72560D1*
Y72680D1*
X13318Y72752D1*
X13294Y72799D1*
X13246Y72847D1*
X13199Y72871D1*
X13103D1*
X13496D2*
Y72512D1*
X13520Y72440D1*
X13568Y72393D1*
X13640Y72369D1*
X13688D1*
X13759Y72393D1*
X13808Y72440D1*
X13831Y72512D1*
Y72871D1*
X14153D2*
Y72369D1*
X13986Y72871D2*
X14321D1*
X14499Y72751D2*
Y72775D1*
X14523Y72823D1*
X14547Y72847D1*
X14595Y72870D1*
X14691D1*
X14738Y72847D1*
X14762Y72823D1*
X14786Y72775D1*
Y72727D1*
X14762Y72679D1*
X14714Y72608D1*
X14475Y72369D1*
X14810D1*
X15347D2*
X15156Y72871D1*
X14964Y72369D1*
X15036Y72536D2*
X15275D1*
X6380Y81072D2*
X6332Y81049D1*
X6284Y81001D1*
X6260Y80953D1*
X6236Y80881D1*
Y80761D1*
X6260Y80690D1*
X6284Y80642D1*
X6332Y80594D1*
X6380Y80570D1*
X6475D1*
X6523Y80594D1*
X6571Y80642D1*
X6595Y80690D1*
X6619Y80761D1*
Y80881D1*
X6595Y80953D1*
X6571Y81001D1*
X6523Y81049D1*
X6475Y81072D1*
X6380D1*
X6451Y80666D2*
X6595Y80522D1*
X6821Y81071D2*
X7084D1*
X6941Y80880D1*
X7013D1*
X7060Y80856D1*
X7084Y80833D1*
X7108Y80761D1*
Y80713D1*
X7084Y80641D1*
X7036Y80593D1*
X6965Y80570D1*
X6893D1*
X6821Y80593D1*
X6798Y80618D1*
X6773Y80665D1*
X5861Y69597D2*
Y69812D1*
X5837Y69884D1*
X5813Y69908D1*
X5765Y69932D1*
X5717D1*
X5670Y69908D1*
X5645Y69884D1*
X5622Y69812D1*
Y69597D1*
X6124D1*
X5861Y69764D2*
X6124Y69932D1*
Y70325D2*
X5622D1*
X5957Y70086D1*
Y70445D1*
X45363Y86189D2*
Y85830D1*
X45387Y85758D1*
X45435Y85711D1*
X45507Y85686D1*
X45554D1*
X45626Y85711D1*
X45674Y85758D1*
X45698Y85830D1*
Y86189D1*
X45852Y86093D2*
X45901Y86117D1*
X45972Y86188D1*
Y85686D1*
X13162Y82322D2*
X13114Y82298D1*
X13066Y82250D1*
X13042Y82203D1*
X13018Y82131D1*
Y82011D1*
X13042Y81940D1*
X13066Y81892D1*
X13114Y81844D1*
X13162Y81820D1*
X13257D1*
X13305Y81844D1*
X13353Y81892D1*
X13377Y81940D1*
X13400Y82011D1*
Y82131D1*
X13377Y82203D1*
X13353Y82250D1*
X13305Y82298D1*
X13257Y82322D1*
X13162D1*
X13555D2*
Y81963D1*
X13579Y81892D1*
X13627Y81844D1*
X13699Y81820D1*
X13746D1*
X13818Y81844D1*
X13866Y81892D1*
X13890Y81963D1*
Y82322D1*
X14212D2*
Y81820D1*
X14044Y82322D2*
X14379D1*
X14558Y82202D2*
Y82226D1*
X14582Y82274D1*
X14605Y82298D1*
X14653Y82322D1*
X14749D1*
X14797Y82298D1*
X14820Y82274D1*
X14845Y82226D1*
Y82178D1*
X14820Y82130D1*
X14773Y82059D1*
X14533Y81820D1*
X14868D1*
X15023Y82322D2*
Y81820D1*
X15238D1*
X15310Y81844D1*
X15334Y81868D1*
X15358Y81915D1*
Y81987D1*
X15334Y82035D1*
X15310Y82059D1*
X15238Y82083D1*
X15310Y82107D1*
X15334Y82131D1*
X15358Y82178D1*
Y82227D1*
X15334Y82274D1*
X15310Y82298D1*
X15238Y82322D1*
X15023D1*
Y82083D2*
X15238D1*
X10423Y78087D2*
X10638D1*
X10710Y78111D1*
X10735Y78135D1*
X10758Y78183D1*
Y78231D1*
X10735Y78278D1*
X10710Y78303D1*
X10638Y78326D1*
X10423D1*
Y77824D1*
X10591Y78087D2*
X10758Y77824D1*
X10913Y78326D2*
Y77824D1*
X11200D1*
X11354Y78326D2*
X11545Y78087D1*
Y77824D1*
X11736Y78326D2*
X11545Y78087D1*
X11891Y78230D2*
X11939Y78255D1*
X12011Y78326D1*
Y77824D1*
X43344Y9161D2*
X43846D1*
X43344Y8994D2*
Y9329D1*
Y9651D2*
X43846D1*
X43344Y9483D2*
Y9818D1*
X43929Y9972D2*
Y10427D1*
X43440Y10581D2*
X43416Y10629D1*
X43345Y10701D1*
X43846D1*
X49284Y9311D2*
X49786D1*
X49284Y9143D2*
Y9478D1*
Y9633D2*
X49786D1*
Y9848D1*
X49762Y9920D1*
X49738Y9944D1*
X49691Y9968D1*
X49619D1*
X49571Y9944D1*
X49547Y9920D1*
X49523Y9848D1*
X49499Y9920D1*
X49475Y9944D1*
X49428Y9968D1*
X49380D1*
X49332Y9944D1*
X49308Y9920D1*
X49284Y9848D1*
Y9633D1*
X49523D2*
Y9848D1*
X49869Y10122D2*
Y10576D1*
X49380Y10731D2*
X49356Y10779D1*
X49284Y10851D1*
X49786D1*
X14503Y7359D2*
Y7694D1*
X15005Y7359D1*
Y7694D1*
X14503Y7992D2*
X14526Y7944D1*
X14575Y7896D1*
X14622Y7872D1*
X14694Y7848D1*
X14814D1*
X14885Y7872D1*
X14933Y7896D1*
X14981Y7944D1*
X15005Y7992D1*
Y8087D1*
X14981Y8135D1*
X14933Y8183D1*
X14885Y8207D1*
X14814Y8231D1*
X14694D1*
X14622Y8207D1*
X14575Y8183D1*
X14526Y8135D1*
X14503Y8087D1*
Y7992D1*
Y8720D2*
X15005D1*
X14503Y8385D1*
X15005D1*
X14503Y9185D2*
Y8874D1*
X15005D1*
Y9185D1*
X14742Y8874D2*
Y9065D1*
X15088Y9339D2*
Y9794D1*
X14599Y9948D2*
X14575Y9996D1*
X14503Y10068D1*
X15005D1*
X59769Y18980D2*
Y18669D1*
X60271D1*
Y18980D1*
X60008Y18669D2*
Y18861D1*
X59841Y19469D2*
X59793Y19422D1*
X59769Y19350D1*
Y19254D1*
X59793Y19182D1*
X59841Y19134D1*
X59888D1*
X59937Y19159D1*
X59960Y19182D1*
X59984Y19230D1*
X60032Y19374D1*
X60056Y19422D1*
X60080Y19445D1*
X60128Y19469D1*
X60200D1*
X60247Y19422D1*
X60271Y19350D1*
Y19254D1*
X60247Y19182D1*
X60200Y19134D1*
X59769Y19624D2*
X60271Y19744D1*
X59769Y19863D1*
X60271Y19982D1*
X59769Y20102D1*
X60354Y20257D2*
Y20711D1*
X59865Y20865D2*
X59841Y20913D1*
X59770Y20985D1*
X60271D1*
X33651Y8701D2*
X33866D1*
X33938Y8725D1*
X33962Y8749D1*
X33986Y8796D1*
Y8844D1*
X33962Y8892D1*
X33938Y8916D1*
X33866Y8940D1*
X33651D1*
Y8438D1*
X33818Y8701D2*
X33986Y8438D1*
X34140Y8940D2*
Y8438D1*
X34427D1*
X34581Y8940D2*
X34772Y8701D1*
Y8438D1*
X34964Y8940D2*
X34772Y8701D1*
X35405Y8868D2*
X35381Y8916D1*
X35309Y8939D1*
X35262D1*
X35190Y8916D1*
X35142Y8844D1*
X35118Y8725D1*
Y8605D1*
X35142Y8510D1*
X35190Y8461D1*
X35262Y8438D1*
X35286D1*
X35357Y8461D1*
X35405Y8510D1*
X35429Y8581D1*
Y8605D1*
X35405Y8677D1*
X35357Y8725D1*
X35286Y8748D1*
X35262D1*
X35190Y8725D1*
X35142Y8677D1*
X35118Y8605D1*
X35583Y8355D2*
X36037D1*
X36192Y8844D2*
X36240Y8868D1*
X36312Y8939D1*
Y8438D1*
X21951Y10691D2*
X21759Y11194D1*
X21568Y10691D1*
X21639Y10859D2*
X21879D1*
X22105Y11194D2*
Y10835D1*
X22129Y10763D1*
X22177Y10716D1*
X22249Y10691D1*
X22296D1*
X22368Y10716D1*
X22416Y10763D1*
X22440Y10835D1*
Y11194D1*
X22594D2*
X22929Y10691D1*
Y11194D2*
X22594Y10691D1*
X23084Y10609D2*
X23538D1*
X23692Y11098D2*
X23741Y11122D1*
X23812Y11193D1*
Y10691D1*
X43344Y16804D2*
X43846D1*
X43344Y16636D2*
Y16971D1*
Y17293D2*
X43846D1*
X43344Y17126D2*
Y17461D1*
X43929Y17615D2*
Y18069D1*
X43464Y18248D2*
X43440D1*
X43392Y18272D1*
X43368Y18296D1*
X43345Y18344D1*
Y18439D1*
X43368Y18487D1*
X43392Y18511D1*
X43440Y18535D1*
X43488D1*
X43536Y18511D1*
X43607Y18463D1*
X43846Y18224D1*
Y18559D1*
X49284Y16953D2*
X49786D1*
X49284Y16786D2*
Y17121D1*
Y17275D2*
X49786D1*
Y17491D1*
X49762Y17562D1*
X49738Y17586D1*
X49691Y17610D1*
X49619D1*
X49571Y17586D1*
X49547Y17562D1*
X49523Y17491D1*
X49499Y17562D1*
X49475Y17586D1*
X49428Y17610D1*
X49380D1*
X49332Y17586D1*
X49308Y17562D1*
X49284Y17491D1*
Y17275D1*
X49523D2*
Y17491D1*
X49869Y17764D2*
Y18219D1*
X49404Y18397D2*
X49380D1*
X49332Y18421D1*
X49308Y18445D1*
X49284Y18493D1*
Y18589D1*
X49308Y18636D1*
X49332Y18660D1*
X49380Y18684D1*
X49428D1*
X49476Y18660D1*
X49547Y18612D1*
X49786Y18373D1*
Y18708D1*
X14503Y15001D2*
Y15336D1*
X15005Y15001D1*
Y15336D1*
X14503Y15634D2*
X14526Y15586D1*
X14575Y15539D1*
X14622Y15514D1*
X14694Y15491D1*
X14814D1*
X14885Y15514D1*
X14933Y15539D1*
X14981Y15586D1*
X15005Y15634D1*
Y15730D1*
X14981Y15777D1*
X14933Y15825D1*
X14885Y15849D1*
X14814Y15873D1*
X14694D1*
X14622Y15849D1*
X14575Y15825D1*
X14526Y15777D1*
X14503Y15730D1*
Y15634D1*
Y16362D2*
X15005D1*
X14503Y16027D1*
X15005D1*
X14503Y16827D2*
Y16517D1*
X15005D1*
Y16827D1*
X14742Y16517D2*
Y16708D1*
X15088Y16982D2*
Y17436D1*
X14623Y17615D2*
X14599D1*
X14551Y17639D1*
X14527Y17662D1*
X14503Y17710D1*
Y17806D1*
X14527Y17854D1*
X14551Y17877D1*
X14599Y17902D1*
X14646D1*
X14695Y17877D1*
X14766Y17830D1*
X15005Y17590D1*
Y17925D1*
X59769Y23122D2*
Y22812D1*
X60271D1*
Y23122D1*
X60008Y22812D2*
Y23003D1*
X59841Y23612D2*
X59793Y23564D1*
X59769Y23492D1*
Y23397D1*
X59793Y23325D1*
X59841Y23277D1*
X59888D1*
X59937Y23301D1*
X59960Y23325D1*
X59984Y23372D1*
X60032Y23516D1*
X60056Y23564D1*
X60080Y23588D1*
X60128Y23612D1*
X60200D1*
X60247Y23564D1*
X60271Y23492D1*
Y23397D1*
X60247Y23325D1*
X60200Y23277D1*
X59769Y23766D2*
X60271Y23886D1*
X59769Y24005D1*
X60271Y24125D1*
X59769Y24245D1*
X60354Y24399D2*
Y24853D1*
X59889Y25032D2*
X59865D1*
X59817Y25056D1*
X59793Y25080D1*
X59770Y25128D1*
Y25223D1*
X59793Y25271D1*
X59817Y25295D1*
X59865Y25319D1*
X59913D1*
X59961Y25295D1*
X60032Y25247D1*
X60271Y25008D1*
Y25343D1*
X33543Y16451D2*
X33758D1*
X33830Y16475D1*
X33854Y16499D1*
X33878Y16546D1*
Y16594D1*
X33854Y16642D1*
X33830Y16666D1*
X33758Y16690D1*
X33543D1*
Y16188D1*
X33711Y16451D2*
X33878Y16188D1*
X34032Y16690D2*
Y16188D1*
X34319D1*
X34474Y16690D2*
X34665Y16451D1*
Y16188D1*
X34856Y16690D2*
X34665Y16451D1*
X35297Y16618D2*
X35274Y16666D1*
X35202Y16689D1*
X35154D1*
X35082Y16666D1*
X35034Y16594D1*
X35011Y16475D1*
Y16355D1*
X35034Y16260D1*
X35082Y16211D1*
X35154Y16188D1*
X35178D1*
X35249Y16211D1*
X35297Y16260D1*
X35321Y16331D1*
Y16355D1*
X35297Y16427D1*
X35249Y16475D1*
X35178Y16498D1*
X35154D1*
X35082Y16475D1*
X35034Y16427D1*
X35011Y16355D1*
X35476Y16105D2*
X35930D1*
X36109Y16570D2*
Y16594D1*
X36132Y16642D1*
X36156Y16666D1*
X36204Y16689D1*
X36300D1*
X36347Y16666D1*
X36371Y16642D1*
X36395Y16594D1*
Y16546D1*
X36371Y16498D1*
X36324Y16427D1*
X36084Y16188D1*
X36419D1*
X21843Y18441D2*
X21651Y18944D1*
X21460Y18441D1*
X21532Y18609D2*
X21771D1*
X21998Y18944D2*
Y18585D1*
X22021Y18513D1*
X22069Y18466D1*
X22141Y18441D1*
X22189D1*
X22261Y18466D1*
X22309Y18513D1*
X22332Y18585D1*
Y18944D1*
X22487D2*
X22822Y18441D1*
Y18944D2*
X22487Y18441D1*
X22976Y18359D2*
X23431D1*
X23609Y18824D2*
Y18848D1*
X23633Y18896D1*
X23657Y18920D1*
X23705Y18943D1*
X23800D1*
X23848Y18920D1*
X23872Y18896D1*
X23896Y18848D1*
Y18800D1*
X23872Y18752D1*
X23824Y18681D1*
X23585Y18441D1*
X23920D1*
X43344Y24554D2*
X43846D1*
X43344Y24386D2*
Y24721D1*
Y25043D2*
X43846D1*
X43344Y24876D2*
Y25211D1*
X43929Y25365D2*
Y25819D1*
X43345Y26022D2*
Y26284D1*
X43536Y26141D1*
Y26213D1*
X43560Y26261D1*
X43583Y26284D1*
X43655Y26309D1*
X43703D1*
X43775Y26284D1*
X43823Y26237D1*
X43846Y26165D1*
Y26093D1*
X43823Y26022D1*
X43798Y25998D1*
X43751Y25974D1*
X49284Y24703D2*
X49786D1*
X49284Y24536D2*
Y24871D1*
Y25025D2*
X49786D1*
Y25241D1*
X49762Y25312D1*
X49738Y25336D1*
X49691Y25360D1*
X49619D1*
X49571Y25336D1*
X49547Y25312D1*
X49523Y25241D1*
X49499Y25312D1*
X49475Y25336D1*
X49428Y25360D1*
X49380D1*
X49332Y25336D1*
X49308Y25312D1*
X49284Y25241D1*
Y25025D1*
X49523D2*
Y25241D1*
X49869Y25514D2*
Y25969D1*
X49284Y26171D2*
Y26434D1*
X49476Y26291D1*
Y26362D1*
X49499Y26410D1*
X49523Y26434D1*
X49595Y26458D1*
X49643D1*
X49714Y26434D1*
X49763Y26386D1*
X49786Y26314D1*
Y26242D1*
X49763Y26171D1*
X49738Y26147D1*
X49691Y26123D1*
X14503Y22751D2*
Y23086D1*
X15005Y22751D1*
Y23086D1*
X14503Y23384D2*
X14526Y23336D1*
X14575Y23289D1*
X14622Y23264D1*
X14694Y23241D1*
X14814D1*
X14885Y23264D1*
X14933Y23289D1*
X14981Y23336D1*
X15005Y23384D1*
Y23480D1*
X14981Y23527D1*
X14933Y23575D1*
X14885Y23599D1*
X14814Y23623D1*
X14694D1*
X14622Y23599D1*
X14575Y23575D1*
X14526Y23527D1*
X14503Y23480D1*
Y23384D1*
Y24112D2*
X15005D1*
X14503Y23777D1*
X15005D1*
X14503Y24577D2*
Y24267D1*
X15005D1*
Y24577D1*
X14742Y24267D2*
Y24458D1*
X15088Y24732D2*
Y25186D1*
X14503Y25389D2*
Y25651D1*
X14695Y25508D1*
Y25580D1*
X14718Y25627D1*
X14742Y25651D1*
X14814Y25675D1*
X14861D1*
X14933Y25651D1*
X14981Y25604D1*
X15005Y25532D1*
Y25460D1*
X14981Y25389D1*
X14957Y25365D1*
X14910Y25340D1*
X59769Y27372D2*
Y27062D1*
X60271D1*
Y27372D1*
X60008Y27062D2*
Y27253D1*
X59841Y27862D2*
X59793Y27814D1*
X59769Y27742D1*
Y27647D1*
X59793Y27575D1*
X59841Y27527D1*
X59888D1*
X59937Y27551D1*
X59960Y27575D1*
X59984Y27622D1*
X60032Y27766D1*
X60056Y27814D1*
X60080Y27838D1*
X60128Y27862D1*
X60200D1*
X60247Y27814D1*
X60271Y27742D1*
Y27647D1*
X60247Y27575D1*
X60200Y27527D1*
X59769Y28016D2*
X60271Y28136D1*
X59769Y28255D1*
X60271Y28375D1*
X59769Y28495D1*
X60354Y28649D2*
Y29103D1*
X59770Y29306D2*
Y29569D1*
X59961Y29425D1*
Y29497D1*
X59985Y29545D1*
X60008Y29569D1*
X60080Y29593D1*
X60128D1*
X60200Y29569D1*
X60248Y29521D1*
X60271Y29449D1*
Y29377D1*
X60248Y29306D1*
X60223Y29282D1*
X60176Y29258D1*
X33543Y24201D2*
X33758D1*
X33830Y24225D1*
X33854Y24249D1*
X33878Y24296D1*
Y24344D1*
X33854Y24392D1*
X33830Y24416D1*
X33758Y24440D1*
X33543D1*
Y23938D1*
X33711Y24201D2*
X33878Y23938D1*
X34032Y24440D2*
Y23938D1*
X34319D1*
X34474Y24440D2*
X34665Y24201D1*
Y23938D1*
X34856Y24440D2*
X34665Y24201D1*
X35297Y24368D2*
X35274Y24416D1*
X35202Y24439D1*
X35154D1*
X35082Y24416D1*
X35034Y24344D1*
X35011Y24225D1*
Y24105D1*
X35034Y24010D1*
X35082Y23961D1*
X35154Y23938D1*
X35178D1*
X35249Y23961D1*
X35297Y24010D1*
X35321Y24081D1*
Y24105D1*
X35297Y24177D1*
X35249Y24225D1*
X35178Y24248D1*
X35154D1*
X35082Y24225D1*
X35034Y24177D1*
X35011Y24105D1*
X35476Y23855D2*
X35930D1*
X36132Y24439D2*
X36395D1*
X36252Y24248D1*
X36324D1*
X36371Y24225D1*
X36395Y24201D1*
X36419Y24129D1*
Y24081D1*
X36395Y24010D1*
X36347Y23961D1*
X36276Y23938D1*
X36204D1*
X36132Y23961D1*
X36109Y23986D1*
X36084Y24033D1*
X21843Y26191D2*
X21651Y26694D1*
X21460Y26191D1*
X21532Y26359D2*
X21771D1*
X21998Y26694D2*
Y26335D1*
X22021Y26263D1*
X22069Y26216D1*
X22141Y26191D1*
X22189D1*
X22261Y26216D1*
X22309Y26263D1*
X22332Y26335D1*
Y26694D1*
X22487D2*
X22822Y26191D1*
Y26694D2*
X22487Y26191D1*
X22976Y26109D2*
X23431D1*
X23633Y26693D2*
X23896D1*
X23752Y26502D1*
X23824D1*
X23872Y26478D1*
X23896Y26455D1*
X23920Y26383D1*
Y26335D1*
X23896Y26263D1*
X23848Y26215D1*
X23776Y26191D1*
X23704D1*
X23633Y26215D1*
X23609Y26240D1*
X23585Y26287D1*
X43344Y32292D2*
X43846D1*
X43344Y32124D2*
Y32459D1*
Y32781D2*
X43846D1*
X43344Y32614D2*
Y32949D1*
X43929Y33103D2*
Y33557D1*
X43846Y33951D2*
X43345D1*
X43679Y33712D1*
Y34070D1*
X49284Y32441D2*
X49786D1*
X49284Y32274D2*
Y32609D1*
Y32763D2*
X49786D1*
Y32979D1*
X49762Y33051D1*
X49738Y33074D1*
X49691Y33098D1*
X49619D1*
X49571Y33074D1*
X49547Y33051D1*
X49523Y32979D1*
X49499Y33051D1*
X49475Y33074D1*
X49428Y33098D1*
X49380D1*
X49332Y33074D1*
X49308Y33051D1*
X49284Y32979D1*
Y32763D1*
X49523D2*
Y32979D1*
X49869Y33253D2*
Y33707D1*
X49786Y34101D2*
X49284D1*
X49619Y33861D1*
Y34220D1*
X14503Y30489D2*
Y30824D1*
X15005Y30489D1*
Y30824D1*
X14503Y31122D2*
X14526Y31074D1*
X14575Y31027D1*
X14622Y31002D1*
X14694Y30979D1*
X14814D1*
X14885Y31002D1*
X14933Y31027D1*
X14981Y31074D1*
X15005Y31122D1*
Y31218D1*
X14981Y31266D1*
X14933Y31314D1*
X14885Y31337D1*
X14814Y31361D1*
X14694D1*
X14622Y31337D1*
X14575Y31314D1*
X14526Y31266D1*
X14503Y31218D1*
Y31122D1*
Y31850D2*
X15005D1*
X14503Y31516D1*
X15005D1*
X14503Y32315D2*
Y32005D1*
X15005D1*
Y32315D1*
X14742Y32005D2*
Y32196D1*
X15088Y32470D2*
Y32924D1*
X15005Y33318D2*
X14503D1*
X14838Y33079D1*
Y33437D1*
X59769Y31611D2*
Y31300D1*
X60271D1*
Y31611D1*
X60008Y31300D2*
Y31491D1*
X59841Y32100D2*
X59793Y32052D1*
X59769Y31980D1*
Y31885D1*
X59793Y31813D1*
X59841Y31765D1*
X59888D1*
X59937Y31789D1*
X59960Y31813D1*
X59984Y31861D1*
X60032Y32004D1*
X60056Y32052D1*
X60080Y32076D1*
X60128Y32100D1*
X60200D1*
X60247Y32052D1*
X60271Y31980D1*
Y31885D1*
X60247Y31813D1*
X60200Y31765D1*
X59769Y32254D2*
X60271Y32374D1*
X59769Y32494D1*
X60271Y32613D1*
X59769Y32733D1*
X60354Y32887D2*
Y33342D1*
X60271Y33735D2*
X59770D1*
X60104Y33496D1*
Y33855D1*
X33531Y31951D2*
X33746D1*
X33818Y31975D1*
X33842Y31999D1*
X33866Y32046D1*
Y32094D1*
X33842Y32142D1*
X33818Y32166D1*
X33746Y32190D1*
X33531D1*
Y31688D1*
X33699Y31951D2*
X33866Y31688D1*
X34021Y32190D2*
Y31688D1*
X34307D1*
X34462Y32190D2*
X34653Y31951D1*
Y31688D1*
X34844Y32190D2*
X34653Y31951D1*
X35286Y32118D2*
X35262Y32166D1*
X35190Y32189D1*
X35142D1*
X35071Y32166D1*
X35022Y32094D1*
X34999Y31975D1*
Y31855D1*
X35022Y31760D1*
X35071Y31711D1*
X35142Y31688D1*
X35166D1*
X35237Y31711D1*
X35286Y31760D1*
X35309Y31831D1*
Y31855D1*
X35286Y31927D1*
X35237Y31975D1*
X35166Y31998D1*
X35142D1*
X35071Y31975D1*
X35022Y31927D1*
X34999Y31855D1*
X35464Y31605D2*
X35918D1*
X36312Y31688D2*
Y32189D1*
X36072Y31855D1*
X36431D1*
X21831Y33941D2*
X21639Y34444D1*
X21448Y33941D1*
X21520Y34109D2*
X21759D1*
X21986Y34444D2*
Y34085D1*
X22009Y34013D1*
X22058Y33966D1*
X22129Y33941D1*
X22177D1*
X22249Y33966D1*
X22297Y34013D1*
X22321Y34085D1*
Y34444D1*
X22475D2*
X22810Y33941D1*
Y34444D2*
X22475Y33941D1*
X22964Y33859D2*
X23419D1*
X23812Y33941D2*
Y34443D1*
X23573Y34109D1*
X23932D1*
X43344Y40054D2*
X43846D1*
X43344Y39886D2*
Y40221D1*
Y40543D2*
X43846D1*
X43344Y40376D2*
Y40711D1*
X43929Y40865D2*
Y41319D1*
X43345Y41761D2*
Y41522D1*
X43560Y41498D1*
X43536Y41522D1*
X43511Y41594D1*
Y41665D1*
X43536Y41737D1*
X43583Y41785D1*
X43655Y41809D1*
X43703D1*
X43775Y41785D1*
X43823Y41737D1*
X43846Y41665D1*
Y41594D1*
X43823Y41522D1*
X43798Y41498D1*
X43751Y41474D1*
X49284Y40203D2*
X49786D1*
X49284Y40036D2*
Y40371D1*
Y40525D2*
X49786D1*
Y40741D1*
X49762Y40812D1*
X49738Y40836D1*
X49691Y40860D1*
X49619D1*
X49571Y40836D1*
X49547Y40812D1*
X49523Y40741D1*
X49499Y40812D1*
X49475Y40836D1*
X49428Y40860D1*
X49380D1*
X49332Y40836D1*
X49308Y40812D1*
X49284Y40741D1*
Y40525D1*
X49523D2*
Y40741D1*
X49869Y41014D2*
Y41469D1*
X49284Y41910D2*
Y41671D1*
X49499Y41647D1*
X49476Y41671D1*
X49451Y41743D1*
Y41814D1*
X49476Y41886D1*
X49523Y41934D1*
X49595Y41958D1*
X49643D1*
X49714Y41934D1*
X49763Y41886D1*
X49786Y41814D1*
Y41743D1*
X49763Y41671D1*
X49738Y41647D1*
X49691Y41623D1*
X14503Y38251D2*
Y38586D1*
X15005Y38251D1*
Y38586D1*
X14503Y38884D2*
X14526Y38836D1*
X14575Y38789D1*
X14622Y38764D1*
X14694Y38741D1*
X14814D1*
X14885Y38764D1*
X14933Y38789D1*
X14981Y38836D1*
X15005Y38884D1*
Y38980D1*
X14981Y39027D1*
X14933Y39075D1*
X14885Y39099D1*
X14814Y39123D1*
X14694D1*
X14622Y39099D1*
X14575Y39075D1*
X14526Y39027D1*
X14503Y38980D1*
Y38884D1*
Y39612D2*
X15005D1*
X14503Y39277D1*
X15005D1*
X14503Y40077D2*
Y39767D1*
X15005D1*
Y40077D1*
X14742Y39767D2*
Y39958D1*
X15088Y40232D2*
Y40686D1*
X14503Y41127D2*
Y40889D1*
X14718Y40865D1*
X14695Y40889D1*
X14670Y40960D1*
Y41032D1*
X14695Y41104D1*
X14742Y41152D1*
X14814Y41175D1*
X14861D1*
X14933Y41152D1*
X14981Y41104D1*
X15005Y41032D1*
Y40960D1*
X14981Y40889D1*
X14957Y40865D1*
X14910Y40840D1*
X59769Y35872D2*
Y35562D1*
X60271D1*
Y35872D1*
X60008Y35562D2*
Y35753D1*
X59841Y36362D2*
X59793Y36314D1*
X59769Y36242D1*
Y36147D1*
X59793Y36075D1*
X59841Y36027D1*
X59888D1*
X59937Y36051D1*
X59960Y36075D1*
X59984Y36122D1*
X60032Y36266D1*
X60056Y36314D1*
X60080Y36338D1*
X60128Y36362D1*
X60200D1*
X60247Y36314D1*
X60271Y36242D1*
Y36147D1*
X60247Y36075D1*
X60200Y36027D1*
X59769Y36516D2*
X60271Y36636D1*
X59769Y36755D1*
X60271Y36875D1*
X59769Y36995D1*
X60354Y37149D2*
Y37603D1*
X59770Y38045D2*
Y37806D1*
X59985Y37782D1*
X59961Y37806D1*
X59937Y37878D1*
Y37949D1*
X59961Y38021D1*
X60008Y38069D1*
X60080Y38093D1*
X60128D1*
X60200Y38069D1*
X60248Y38021D1*
X60271Y37949D1*
Y37878D1*
X60248Y37806D1*
X60223Y37782D1*
X60176Y37758D1*
X33543Y39701D2*
X33758D1*
X33830Y39725D1*
X33854Y39749D1*
X33878Y39796D1*
Y39844D1*
X33854Y39892D1*
X33830Y39916D1*
X33758Y39940D1*
X33543D1*
Y39438D1*
X33711Y39701D2*
X33878Y39438D1*
X34032Y39940D2*
Y39438D1*
X34319D1*
X34474Y39940D2*
X34665Y39701D1*
Y39438D1*
X34856Y39940D2*
X34665Y39701D1*
X35297Y39868D2*
X35274Y39916D1*
X35202Y39939D1*
X35154D1*
X35082Y39916D1*
X35034Y39844D1*
X35011Y39725D1*
Y39605D1*
X35034Y39510D1*
X35082Y39461D1*
X35154Y39438D1*
X35178D1*
X35249Y39461D1*
X35297Y39510D1*
X35321Y39581D1*
Y39605D1*
X35297Y39677D1*
X35249Y39725D1*
X35178Y39748D1*
X35154D1*
X35082Y39725D1*
X35034Y39677D1*
X35011Y39605D1*
X35476Y39355D2*
X35930D1*
X36371Y39939D2*
X36132D1*
X36109Y39725D1*
X36132Y39748D1*
X36204Y39773D1*
X36276D1*
X36347Y39748D1*
X36395Y39701D1*
X36419Y39629D1*
Y39581D1*
X36395Y39510D1*
X36347Y39461D1*
X36276Y39438D1*
X36204D1*
X36132Y39461D1*
X36109Y39486D1*
X36084Y39533D1*
X21843Y41691D2*
X21651Y42194D1*
X21460Y41691D1*
X21532Y41859D2*
X21771D1*
X21998Y42194D2*
Y41835D1*
X22021Y41763D1*
X22069Y41716D1*
X22141Y41691D1*
X22189D1*
X22261Y41716D1*
X22309Y41763D1*
X22332Y41835D1*
Y42194D1*
X22487D2*
X22822Y41691D1*
Y42194D2*
X22487Y41691D1*
X22976Y41609D2*
X23431D1*
X23872Y42193D2*
X23633D1*
X23609Y41978D1*
X23633Y42002D1*
X23705Y42026D1*
X23776D1*
X23848Y42002D1*
X23896Y41955D1*
X23920Y41883D1*
Y41835D1*
X23896Y41763D1*
X23848Y41715D1*
X23776Y41691D1*
X23705D1*
X23633Y41715D1*
X23609Y41740D1*
X23585Y41787D1*
X43344Y47816D2*
X43846D1*
X43344Y47648D2*
Y47983D1*
Y48305D2*
X43846D1*
X43344Y48138D2*
Y48473D1*
X43929Y48627D2*
Y49081D1*
X43416Y49523D2*
X43368Y49499D1*
X43345Y49427D1*
Y49380D1*
X43368Y49308D1*
X43440Y49260D1*
X43560Y49236D1*
X43679D1*
X43775Y49260D1*
X43823Y49308D1*
X43846Y49380D1*
Y49403D1*
X43823Y49475D1*
X43775Y49523D1*
X43703Y49546D1*
X43679D1*
X43607Y49523D1*
X43560Y49475D1*
X43536Y49403D1*
Y49380D1*
X43560Y49308D1*
X43607Y49260D1*
X43679Y49236D1*
X49284Y47965D2*
X49786D1*
X49284Y47798D2*
Y48133D1*
Y48287D2*
X49786D1*
Y48503D1*
X49762Y48575D1*
X49738Y48598D1*
X49691Y48622D1*
X49619D1*
X49571Y48598D1*
X49547Y48575D1*
X49523Y48503D1*
X49499Y48575D1*
X49475Y48598D1*
X49428Y48622D1*
X49380D1*
X49332Y48598D1*
X49308Y48575D1*
X49284Y48503D1*
Y48287D1*
X49523D2*
Y48503D1*
X49869Y48777D2*
Y49231D1*
X49356Y49672D2*
X49308Y49648D1*
X49284Y49576D1*
Y49529D1*
X49308Y49457D1*
X49380Y49409D1*
X49499Y49385D1*
X49619D1*
X49714Y49409D1*
X49763Y49457D1*
X49786Y49529D1*
Y49553D1*
X49763Y49624D1*
X49714Y49672D1*
X49643Y49696D1*
X49619D1*
X49547Y49672D1*
X49499Y49624D1*
X49476Y49553D1*
Y49529D1*
X49499Y49457D1*
X49547Y49409D1*
X49619Y49385D1*
X14503Y46013D2*
Y46348D1*
X15005Y46013D1*
Y46348D1*
X14503Y46646D2*
X14526Y46598D1*
X14575Y46551D1*
X14622Y46526D1*
X14694Y46503D1*
X14814D1*
X14885Y46526D1*
X14933Y46551D1*
X14981Y46598D1*
X15005Y46646D1*
Y46742D1*
X14981Y46790D1*
X14933Y46838D1*
X14885Y46861D1*
X14814Y46885D1*
X14694D1*
X14622Y46861D1*
X14575Y46838D1*
X14526Y46790D1*
X14503Y46742D1*
Y46646D1*
Y47374D2*
X15005D1*
X14503Y47040D1*
X15005D1*
X14503Y47839D2*
Y47529D1*
X15005D1*
Y47839D1*
X14742Y47529D2*
Y47720D1*
X15088Y47994D2*
Y48448D1*
X14575Y48889D2*
X14527Y48866D1*
X14503Y48794D1*
Y48746D1*
X14527Y48674D1*
X14599Y48626D1*
X14718Y48603D1*
X14838D1*
X14933Y48626D1*
X14981Y48674D1*
X15005Y48746D1*
Y48770D1*
X14981Y48841D1*
X14933Y48889D1*
X14861Y48913D1*
X14838D1*
X14766Y48889D1*
X14718Y48841D1*
X14695Y48770D1*
Y48746D1*
X14718Y48674D1*
X14766Y48626D1*
X14838Y48603D1*
X59769Y40135D2*
Y39824D1*
X60271D1*
Y40135D1*
X60008Y39824D2*
Y40015D1*
X59841Y40624D2*
X59793Y40576D1*
X59769Y40505D1*
Y40409D1*
X59793Y40337D1*
X59841Y40289D1*
X59888D1*
X59937Y40313D1*
X59960Y40337D1*
X59984Y40385D1*
X60032Y40528D1*
X60056Y40576D1*
X60080Y40600D1*
X60128Y40624D1*
X60200D1*
X60247Y40576D1*
X60271Y40505D1*
Y40409D1*
X60247Y40337D1*
X60200Y40289D1*
X59769Y40778D2*
X60271Y40898D1*
X59769Y41018D1*
X60271Y41137D1*
X59769Y41257D1*
X60354Y41411D2*
Y41866D1*
X59841Y42307D2*
X59793Y42283D1*
X59770Y42211D1*
Y42164D1*
X59793Y42092D1*
X59865Y42044D1*
X59985Y42020D1*
X60104D1*
X60200Y42044D1*
X60248Y42092D1*
X60271Y42164D1*
Y42188D1*
X60248Y42259D1*
X60200Y42307D1*
X60128Y42331D1*
X60104D1*
X60032Y42307D1*
X59985Y42259D1*
X59961Y42188D1*
Y42164D1*
X59985Y42092D1*
X60032Y42044D1*
X60104Y42020D1*
X33555Y47451D2*
X33770D1*
X33842Y47475D1*
X33866Y47499D1*
X33890Y47546D1*
Y47594D1*
X33866Y47642D1*
X33842Y47666D1*
X33770Y47690D1*
X33555D1*
Y47188D1*
X33723Y47451D2*
X33890Y47188D1*
X34045Y47690D2*
Y47188D1*
X34331D1*
X34486Y47690D2*
X34677Y47451D1*
Y47188D1*
X34868Y47690D2*
X34677Y47451D1*
X35310Y47618D2*
X35286Y47666D1*
X35214Y47689D1*
X35166D1*
X35095Y47666D1*
X35047Y47594D1*
X35023Y47475D1*
Y47355D1*
X35047Y47260D1*
X35095Y47211D1*
X35166Y47188D1*
X35190D1*
X35262Y47211D1*
X35310Y47260D1*
X35333Y47331D1*
Y47355D1*
X35310Y47427D1*
X35262Y47475D1*
X35190Y47498D1*
X35166D1*
X35095Y47475D1*
X35047Y47427D1*
X35023Y47355D1*
X35488Y47105D2*
X35942D1*
X36383Y47618D2*
X36360Y47666D1*
X36288Y47689D1*
X36240D1*
X36168Y47666D1*
X36120Y47594D1*
X36096Y47475D1*
Y47355D1*
X36120Y47260D1*
X36168Y47211D1*
X36240Y47188D1*
X36264D1*
X36335Y47211D1*
X36383Y47260D1*
X36407Y47331D1*
Y47355D1*
X36383Y47427D1*
X36335Y47475D1*
X36264Y47498D1*
X36240D1*
X36168Y47475D1*
X36120Y47427D1*
X36096Y47355D1*
X21855Y49441D2*
X21664Y49944D1*
X21472Y49441D1*
X21544Y49609D2*
X21783D1*
X22010Y49944D2*
Y49585D1*
X22033Y49513D1*
X22082Y49466D1*
X22153Y49441D1*
X22201D1*
X22273Y49466D1*
X22321Y49513D1*
X22345Y49585D1*
Y49944D1*
X22499D2*
X22834Y49441D1*
Y49944D2*
X22499Y49441D1*
X22988Y49359D2*
X23443D1*
X23884Y49872D2*
X23860Y49920D1*
X23788Y49943D1*
X23741D1*
X23669Y49920D1*
X23621Y49848D1*
X23597Y49728D1*
Y49609D1*
X23621Y49513D1*
X23669Y49465D1*
X23741Y49441D1*
X23765D1*
X23836Y49465D1*
X23884Y49513D1*
X23908Y49585D1*
Y49609D1*
X23884Y49681D1*
X23836Y49728D1*
X23765Y49752D1*
X23741D1*
X23669Y49728D1*
X23621Y49681D1*
X23597Y49609D1*
X43344Y55554D2*
X43846D1*
X43344Y55386D2*
Y55721D1*
Y56043D2*
X43846D1*
X43344Y55876D2*
Y56211D1*
X43929Y56365D2*
Y56819D1*
X43846Y57069D2*
X43345Y57309D1*
Y56974D1*
X49284Y55703D2*
X49786D1*
X49284Y55536D2*
Y55871D1*
Y56025D2*
X49786D1*
Y56241D1*
X49762Y56312D1*
X49738Y56336D1*
X49691Y56360D1*
X49619D1*
X49571Y56336D1*
X49547Y56312D1*
X49523Y56241D1*
X49499Y56312D1*
X49475Y56336D1*
X49428Y56360D1*
X49380D1*
X49332Y56336D1*
X49308Y56312D1*
X49284Y56241D1*
Y56025D1*
X49523D2*
Y56241D1*
X49869Y56514D2*
Y56969D1*
X49786Y57219D2*
X49284Y57458D1*
Y57123D1*
X14503Y53751D2*
Y54086D1*
X15005Y53751D1*
Y54086D1*
X14503Y54384D2*
X14526Y54336D1*
X14575Y54289D1*
X14622Y54264D1*
X14694Y54241D1*
X14814D1*
X14885Y54264D1*
X14933Y54289D1*
X14981Y54336D1*
X15005Y54384D1*
Y54480D1*
X14981Y54527D1*
X14933Y54575D1*
X14885Y54599D1*
X14814Y54623D1*
X14694D1*
X14622Y54599D1*
X14575Y54575D1*
X14526Y54527D1*
X14503Y54480D1*
Y54384D1*
Y55112D2*
X15005D1*
X14503Y54777D1*
X15005D1*
X14503Y55577D2*
Y55267D1*
X15005D1*
Y55577D1*
X14742Y55267D2*
Y55458D1*
X15088Y55732D2*
Y56186D1*
X15005Y56436D2*
X14503Y56675D1*
Y56340D1*
X59769Y44372D2*
Y44062D1*
X60271D1*
Y44372D1*
X60008Y44062D2*
Y44253D1*
X59841Y44862D2*
X59793Y44814D1*
X59769Y44742D1*
Y44647D1*
X59793Y44575D1*
X59841Y44527D1*
X59888D1*
X59937Y44551D1*
X59960Y44575D1*
X59984Y44622D1*
X60032Y44766D1*
X60056Y44814D1*
X60080Y44838D1*
X60128Y44862D1*
X60200D1*
X60247Y44814D1*
X60271Y44742D1*
Y44647D1*
X60247Y44575D1*
X60200Y44527D1*
X59769Y45016D2*
X60271Y45136D1*
X59769Y45255D1*
X60271Y45375D1*
X59769Y45495D1*
X60354Y45649D2*
Y46103D1*
X60271Y46354D2*
X59770Y46593D1*
Y46258D1*
X33543Y55201D2*
X33758D1*
X33830Y55225D1*
X33854Y55249D1*
X33878Y55296D1*
Y55344D1*
X33854Y55392D1*
X33830Y55416D1*
X33758Y55440D1*
X33543D1*
Y54938D1*
X33711Y55201D2*
X33878Y54938D1*
X34032Y55440D2*
Y54938D1*
X34319D1*
X34474Y55440D2*
X34665Y55201D1*
Y54938D1*
X34856Y55440D2*
X34665Y55201D1*
X35297Y55368D2*
X35274Y55416D1*
X35202Y55439D1*
X35154D1*
X35082Y55416D1*
X35034Y55344D1*
X35011Y55225D1*
Y55105D1*
X35034Y55010D1*
X35082Y54961D1*
X35154Y54938D1*
X35178D1*
X35249Y54961D1*
X35297Y55010D1*
X35321Y55081D1*
Y55105D1*
X35297Y55177D1*
X35249Y55225D1*
X35178Y55248D1*
X35154D1*
X35082Y55225D1*
X35034Y55177D1*
X35011Y55105D1*
X35476Y54855D2*
X35930D1*
X36180Y54938D2*
X36419Y55439D1*
X36084D1*
X21843Y57191D2*
X21651Y57694D1*
X21460Y57191D1*
X21532Y57359D2*
X21771D1*
X21998Y57694D2*
Y57335D1*
X22021Y57263D1*
X22069Y57216D1*
X22141Y57191D1*
X22189D1*
X22261Y57216D1*
X22309Y57263D1*
X22332Y57335D1*
Y57694D1*
X22487D2*
X22822Y57191D1*
Y57694D2*
X22487Y57191D1*
X22976Y57109D2*
X23431D1*
X23681Y57191D2*
X23920Y57693D1*
X23585D1*
X43344Y63304D2*
X43846D1*
X43344Y63137D2*
Y63472D1*
Y63793D2*
X43846D1*
X43344Y63626D2*
Y63961D1*
X43929Y64115D2*
Y64570D1*
X43345Y64843D2*
X43368Y64772D1*
X43416Y64748D1*
X43464D1*
X43511Y64772D1*
X43536Y64820D1*
X43560Y64915D1*
X43583Y64987D1*
X43631Y65035D1*
X43679Y65058D1*
X43751D1*
X43798Y65035D1*
X43823Y65011D1*
X43846Y64939D1*
Y64843D1*
X43823Y64772D1*
X43798Y64748D1*
X43751Y64724D1*
X43679D1*
X43631Y64748D1*
X43583Y64796D1*
X43560Y64867D1*
X43536Y64963D1*
X43511Y65011D1*
X43464Y65035D1*
X43416D1*
X43368Y65011D1*
X43345Y64939D1*
Y64843D1*
X49284Y63453D2*
X49786D1*
X49284Y63286D2*
Y63621D1*
Y63775D2*
X49786D1*
Y63991D1*
X49762Y64063D1*
X49738Y64087D1*
X49691Y64110D1*
X49619D1*
X49571Y64087D1*
X49547Y64063D1*
X49523Y63991D1*
X49499Y64063D1*
X49475Y64087D1*
X49428Y64110D1*
X49380D1*
X49332Y64087D1*
X49308Y64063D1*
X49284Y63991D1*
Y63775D1*
X49523D2*
Y63991D1*
X49869Y64265D2*
Y64719D1*
X49284Y64993D2*
X49308Y64921D1*
X49356Y64897D1*
X49404D1*
X49451Y64921D1*
X49476Y64969D1*
X49499Y65065D1*
X49523Y65136D1*
X49571Y65184D1*
X49619Y65208D1*
X49691D1*
X49738Y65184D1*
X49763Y65160D1*
X49786Y65088D1*
Y64993D1*
X49763Y64921D1*
X49738Y64897D1*
X49691Y64873D1*
X49619D1*
X49571Y64897D1*
X49523Y64945D1*
X49499Y65017D1*
X49476Y65112D1*
X49451Y65160D1*
X49404Y65184D1*
X49356D1*
X49308Y65160D1*
X49284Y65088D1*
Y64993D1*
X14503Y61501D2*
Y61836D1*
X15005Y61501D1*
Y61836D1*
X14503Y62135D2*
X14526Y62086D1*
X14575Y62039D1*
X14622Y62015D1*
X14694Y61991D1*
X14814D1*
X14885Y62015D1*
X14933Y62039D1*
X14981Y62086D1*
X15005Y62135D1*
Y62230D1*
X14981Y62278D1*
X14933Y62326D1*
X14885Y62350D1*
X14814Y62373D1*
X14694D1*
X14622Y62350D1*
X14575Y62326D1*
X14526Y62278D1*
X14503Y62230D1*
Y62135D1*
Y62863D2*
X15005D1*
X14503Y62528D1*
X15005D1*
X14503Y63328D2*
Y63017D1*
X15005D1*
Y63328D1*
X14742Y63017D2*
Y63208D1*
X15088Y63482D2*
Y63936D1*
X14503Y64210D2*
X14527Y64139D1*
X14575Y64114D1*
X14623D1*
X14670Y64139D1*
X14695Y64186D1*
X14718Y64282D1*
X14742Y64354D1*
X14790Y64401D1*
X14838Y64425D1*
X14910D1*
X14957Y64401D1*
X14981Y64378D1*
X15005Y64306D1*
Y64210D1*
X14981Y64139D1*
X14957Y64114D1*
X14910Y64091D1*
X14838D1*
X14790Y64114D1*
X14742Y64163D1*
X14718Y64234D1*
X14695Y64329D1*
X14670Y64378D1*
X14623Y64401D1*
X14575D1*
X14527Y64378D1*
X14503Y64306D1*
Y64210D1*
X59769Y48623D2*
Y48312D1*
X60271D1*
Y48623D1*
X60008Y48312D2*
Y48503D1*
X59841Y49112D2*
X59793Y49065D1*
X59769Y48993D1*
Y48897D1*
X59793Y48825D1*
X59841Y48777D1*
X59888D1*
X59937Y48801D1*
X59960Y48825D1*
X59984Y48873D1*
X60032Y49016D1*
X60056Y49065D1*
X60080Y49088D1*
X60128Y49112D1*
X60200D1*
X60247Y49065D1*
X60271Y48993D1*
Y48897D1*
X60247Y48825D1*
X60200Y48777D1*
X59769Y49266D2*
X60271Y49386D1*
X59769Y49506D1*
X60271Y49625D1*
X59769Y49745D1*
X60354Y49899D2*
Y50354D1*
X59770Y50628D2*
X59793Y50556D1*
X59841Y50532D1*
X59889D1*
X59937Y50556D1*
X59961Y50604D1*
X59985Y50699D1*
X60008Y50771D1*
X60056Y50819D1*
X60104Y50843D1*
X60176D1*
X60223Y50819D1*
X60248Y50795D1*
X60271Y50723D1*
Y50628D1*
X60248Y50556D1*
X60223Y50532D1*
X60176Y50508D1*
X60104D1*
X60056Y50532D1*
X60008Y50580D1*
X59985Y50651D1*
X59961Y50747D1*
X59937Y50795D1*
X59889Y50819D1*
X59841D1*
X59793Y50795D1*
X59770Y50723D1*
Y50628D1*
X33543Y62951D2*
X33758D1*
X33830Y62975D1*
X33855Y62999D1*
X33878Y63046D1*
Y63094D1*
X33855Y63142D1*
X33830Y63166D1*
X33758Y63190D1*
X33543D1*
Y62688D1*
X33711Y62951D2*
X33878Y62688D1*
X34033Y63190D2*
Y62688D1*
X34320D1*
X34474Y63190D2*
X34665Y62951D1*
Y62688D1*
X34856Y63190D2*
X34665Y62951D1*
X35298Y63118D2*
X35274Y63166D1*
X35202Y63189D1*
X35155D1*
X35083Y63166D1*
X35035Y63094D1*
X35011Y62975D1*
Y62855D1*
X35035Y62760D1*
X35083Y62711D1*
X35155Y62688D1*
X35178D1*
X35250Y62711D1*
X35298Y62760D1*
X35321Y62831D1*
Y62855D1*
X35298Y62927D1*
X35250Y62975D1*
X35178Y62998D1*
X35155D1*
X35083Y62975D1*
X35035Y62927D1*
X35011Y62855D1*
X35476Y62605D2*
X35930D1*
X36204Y63189D2*
X36133Y63166D1*
X36108Y63118D1*
Y63070D1*
X36133Y63023D1*
X36180Y62998D1*
X36276Y62975D1*
X36348Y62951D1*
X36395Y62903D1*
X36419Y62855D1*
Y62783D1*
X36395Y62736D1*
X36371Y62711D1*
X36300Y62688D1*
X36204D1*
X36133Y62711D1*
X36108Y62736D1*
X36085Y62783D1*
Y62855D1*
X36108Y62903D1*
X36156Y62951D1*
X36228Y62975D1*
X36323Y62998D1*
X36371Y63023D1*
X36395Y63070D1*
Y63118D1*
X36371Y63166D1*
X36300Y63189D1*
X36204D1*
X21843Y64941D2*
X21652Y65444D1*
X21460Y64941D1*
X21532Y65109D2*
X21772D1*
X21998Y65444D2*
Y65085D1*
X22022Y65013D1*
X22070Y64966D1*
X22142Y64941D1*
X22189D1*
X22261Y64966D1*
X22309Y65013D1*
X22333Y65085D1*
Y65444D1*
X22487D2*
X22822Y64941D1*
Y65444D2*
X22487Y64941D1*
X22976Y64859D2*
X23431D1*
X23705Y65443D2*
X23633Y65420D1*
X23609Y65372D1*
Y65324D1*
X23633Y65276D1*
X23681Y65252D1*
X23776Y65228D1*
X23848Y65205D1*
X23896Y65156D1*
X23920Y65109D1*
Y65037D1*
X23896Y64990D1*
X23872Y64965D1*
X23800Y64941D1*
X23705D1*
X23633Y64965D1*
X23609Y64990D1*
X23585Y65037D1*
Y65109D1*
X23609Y65156D1*
X23657Y65205D1*
X23728Y65228D1*
X23824Y65252D1*
X23872Y65276D1*
X23896Y65324D1*
Y65372D1*
X23872Y65420D1*
X23800Y65443D1*
X23705D1*
X25841Y69515D2*
Y69013D1*
X26331Y69515D2*
Y69013D1*
X25996Y69515D1*
Y69013D1*
X26485Y69252D2*
X26701D1*
X26772Y69276D1*
X26796Y69300D1*
X26820Y69348D1*
Y69420D1*
X26796Y69467D1*
X26772Y69492D1*
X26701Y69515D1*
X26485D1*
Y69013D1*
X26974Y69515D2*
Y69157D1*
X26998Y69085D1*
X27046Y69037D1*
X27118Y69013D1*
X27166D1*
X27237Y69037D1*
X27286Y69085D1*
X27309Y69157D1*
Y69515D1*
X27631D2*
Y69013D1*
X27464Y69515D2*
X27799D1*
X28336Y69013D2*
X28144Y69515D1*
X27953Y69013D1*
X28025Y69181D2*
X28264D1*
X17858Y74854D2*
X18360D1*
Y75141D1*
X17858Y75606D2*
Y75295D1*
X18360D1*
Y75606D1*
X18097Y75295D2*
Y75486D1*
X17858Y75760D2*
X18360D1*
Y75928D1*
X18336Y75999D1*
X18288Y76048D1*
X18240Y76071D1*
X18169Y76095D1*
X18049D1*
X17977Y76071D1*
X17930Y76048D1*
X17882Y75999D1*
X17858Y75928D1*
Y75760D1*
X17954Y76249D2*
X17930Y76298D1*
X17858Y76369D1*
X18360D1*
X26738Y77167D2*
X26954D1*
X27025Y77191D1*
X27049Y77215D1*
X27073Y77263D1*
Y77335D1*
X27049Y77382D1*
X27025Y77406D1*
X26954Y77430D1*
X26738D1*
Y76928D1*
X27228Y77334D2*
X27276Y77358D1*
X27348Y77430D1*
Y76928D1*
X18215Y77588D2*
Y77803D1*
X18191Y77875D1*
X18167Y77899D1*
X18120Y77923D1*
X18072D1*
X18024Y77899D1*
X18000Y77875D1*
X17976Y77803D1*
Y77588D1*
X18478D1*
X18215Y77755D2*
X18478Y77923D1*
X18096Y78102D2*
X18072D1*
X18024Y78125D1*
X18000Y78149D1*
X17977Y78197D1*
Y78293D1*
X18000Y78340D1*
X18024Y78364D1*
X18072Y78388D1*
X18120D1*
X18168Y78364D1*
X18239Y78317D1*
X18478Y78077D1*
Y78412D1*
X19254Y74441D2*
Y74656D1*
X19230Y74728D1*
X19206Y74752D1*
X19159Y74776D1*
X19111D1*
X19063Y74752D1*
X19039Y74728D1*
X19015Y74656D1*
Y74441D1*
X19517D1*
X19254Y74609D2*
X19517Y74776D1*
X19015Y74930D2*
X19517D1*
Y75217D1*
X19015Y75372D2*
X19254Y75563D1*
X19517D1*
X19015Y75754D2*
X19254Y75563D1*
X19015Y75957D2*
Y76219D1*
X19207Y76076D1*
Y76148D1*
X19230Y76195D1*
X19254Y76219D1*
X19326Y76243D1*
X19374D1*
X19445Y76219D1*
X19494Y76172D1*
X19517Y76100D1*
Y76028D1*
X19494Y75957D1*
X19469Y75933D1*
X19422Y75909D1*
X56995Y69546D2*
Y69044D1*
X57484Y69546D2*
Y69044D1*
X57149Y69546D1*
Y69044D1*
X57638Y69283D2*
X57854D1*
X57925Y69307D1*
X57949Y69331D1*
X57973Y69378D1*
Y69450D1*
X57949Y69498D1*
X57925Y69522D1*
X57854Y69546D1*
X57638D1*
Y69044D1*
X58128Y69546D2*
Y69187D1*
X58151Y69115D1*
X58199Y69068D1*
X58271Y69044D1*
X58319D1*
X58391Y69068D1*
X58439Y69115D1*
X58463Y69187D1*
Y69546D1*
X58784D2*
Y69044D1*
X58617Y69546D2*
X58952D1*
X59106D2*
Y69044D1*
X59322D1*
X59394Y69068D1*
X59417Y69092D1*
X59441Y69139D1*
Y69211D1*
X59417Y69259D1*
X59394Y69283D1*
X59322Y69307D1*
X59394Y69331D1*
X59417Y69355D1*
X59441Y69402D1*
Y69450D1*
X59417Y69498D1*
X59394Y69522D1*
X59322Y69546D1*
X59106D1*
Y69307D2*
X59322D1*
X48914Y74580D2*
X49417D1*
Y74867D1*
X48914Y75332D2*
Y75021D1*
X49417D1*
Y75332D1*
X49154Y75021D2*
Y75213D1*
X48914Y75486D2*
X49417D1*
Y75654D1*
X49392Y75726D1*
X49345Y75774D1*
X49297Y75798D1*
X49226Y75821D1*
X49106D1*
X49034Y75798D1*
X48986Y75774D1*
X48938Y75726D1*
X48914Y75654D1*
Y75486D1*
X49034Y76000D2*
X49011D1*
X48962Y76024D1*
X48939Y76048D1*
X48915Y76096D1*
Y76191D1*
X48939Y76239D1*
X48962Y76263D1*
X49011Y76287D1*
X49058D1*
X49106Y76263D1*
X49177Y76215D1*
X49417Y75976D1*
Y76311D1*
X57946Y77284D2*
X58162D1*
X58233Y77308D1*
X58258Y77332D1*
X58281Y77380D1*
Y77452D1*
X58258Y77499D1*
X58233Y77523D1*
X58162Y77547D1*
X57946D1*
Y77045D1*
X58460Y77427D2*
Y77451D1*
X58484Y77499D1*
X58508Y77523D1*
X58556Y77547D1*
X58651D1*
X58699Y77523D1*
X58723Y77499D1*
X58747Y77451D1*
Y77403D1*
X58723Y77355D1*
X58675Y77284D1*
X58436Y77045D1*
X58771D1*
X49261Y77465D2*
Y77680D1*
X49236Y77752D1*
X49213Y77776D1*
X49165Y77800D1*
X49117D1*
X49069Y77776D1*
X49045Y77752D1*
X49021Y77680D1*
Y77465D1*
X49524D1*
X49261Y77632D2*
X49524Y77800D1*
X49022Y78002D2*
Y78265D1*
X49213Y78122D1*
Y78194D1*
X49237Y78241D1*
X49261Y78265D1*
X49332Y78289D1*
X49380D1*
X49452Y78265D1*
X49500Y78217D1*
X49524Y78146D1*
Y78074D1*
X49500Y78002D1*
X49476Y77979D1*
X49428Y77954D1*
X50420Y74394D2*
Y74609D1*
X50396Y74681D1*
X50372Y74705D1*
X50324Y74729D1*
X50276D1*
X50229Y74705D1*
X50204Y74681D1*
X50181Y74609D1*
Y74394D1*
X50683D1*
X50420Y74561D2*
X50683Y74729D1*
X50181Y74883D2*
X50683D1*
Y75170D1*
X50181Y75325D2*
X50420Y75516D1*
X50683D1*
X50181Y75707D2*
X50420Y75516D1*
X50683Y76101D2*
X50181D1*
X50516Y75861D1*
Y76220D1*
X25550Y85613D2*
Y85254D1*
X25574Y85183D1*
X25622Y85135D1*
X25694Y85111D1*
X25741D1*
X25813Y85135D1*
X25861Y85183D1*
X25885Y85254D1*
Y85613D1*
X26064Y85493D2*
Y85517D1*
X26087Y85565D1*
X26111Y85589D1*
X26159Y85613D1*
X26255D1*
X26302Y85589D1*
X26326Y85565D1*
X26350Y85517D1*
Y85469D1*
X26326Y85421D1*
X26279Y85350D1*
X26039Y85111D1*
X26374D1*
X18220Y79911D2*
Y80126D1*
X18195Y80198D1*
X18172Y80222D1*
X18124Y80246D1*
X18076D1*
X18028Y80222D1*
X18004Y80198D1*
X17980Y80126D1*
Y79911D1*
X18483D1*
X18220Y80078D2*
X18483Y80246D1*
X17981Y80687D2*
Y80448D1*
X18196Y80425D1*
X18172Y80448D1*
X18148Y80520D1*
Y80591D1*
X18172Y80663D1*
X18220Y80711D1*
X18291Y80735D1*
X18339D1*
X18411Y80711D1*
X18459Y80663D1*
X18483Y80591D1*
Y80520D1*
X18459Y80448D1*
X18435Y80425D1*
X18387Y80400D1*
X49268Y79750D2*
Y79965D1*
X49244Y80037D1*
X49220Y80061D1*
X49173Y80085D1*
X49125D1*
X49077Y80061D1*
X49053Y80037D1*
X49029Y79965D1*
Y79750D1*
X49532D1*
X49268Y79918D2*
X49532Y80085D1*
X49101Y80526D2*
X49053Y80502D1*
X49030Y80431D1*
Y80383D1*
X49053Y80311D1*
X49125Y80263D1*
X49245Y80239D1*
X49364D1*
X49460Y80263D1*
X49508Y80311D1*
X49532Y80383D1*
Y80407D1*
X49508Y80478D1*
X49460Y80526D1*
X49388Y80550D1*
X49364D1*
X49292Y80526D1*
X49245Y80478D1*
X49221Y80407D1*
Y80383D1*
X49245Y80311D1*
X49292Y80263D1*
X49364Y80239D1*
%LNBoardOutline*%
X3940Y3940D2*
D11*
X66440D1*
Y90190D1*
X3940D1*
Y3940D1*
M02*
