G04 DipTrace 2.4.0.2*
%INbottom.gbr*%
%MOIN*%
%ADD11C,0.006*%
%ADD13C,0.0236*%
%ADD14C,0.0197*%
%ADD15C,0.0079*%
%ADD17C,0.1181*%
%ADD18C,0.025*%
%ADD19C,0.02*%
%ADD20R,0.0512X0.0591*%
%ADD22C,0.08*%
%ADD23C,0.1575*%
%ADD25R,0.0197X0.0335*%
%ADD28C,0.0433*%
%FSLAX44Y44*%
G04*
G70*
G90*
G75*
G01*
%LNBottom*%
%LPD*%
X9253Y8878D2*
D13*
X8503D1*
Y8473D1*
X8315D1*
Y5572D1*
X8109Y5366D1*
X6866D1*
X6191Y4690D1*
X7720Y8473D2*
D14*
X8315D1*
X10191Y4690D2*
D13*
Y5253D1*
X9441Y6003D1*
Y7752D1*
X9254D1*
X10001Y8878D2*
Y7753D1*
X10002Y7752D1*
Y6767D1*
X10393Y6377D1*
X8191Y4690D2*
Y4753D1*
X9003Y5565D1*
X7191Y4690D2*
X8191D1*
X5690Y8190D2*
Y8565D1*
X6315Y9191D1*
X7815D1*
X8440Y9816D1*
X9628D1*
X10003Y9441D1*
Y8880D1*
X10001Y8878D1*
X6188Y10871D2*
Y9876D1*
X5753Y9441D1*
X5440D1*
X7440Y6377D2*
D14*
X7465Y6401D1*
Y7646D1*
X4690Y8190D2*
D13*
X4692Y9441D1*
X6565Y5752D2*
D15*
Y8253D1*
X6815Y8503D1*
X7179D1*
X7209Y8473D1*
X5315Y14379D2*
D17*
X7430D1*
X7440Y14369D1*
X5315Y16379D2*
X7414D1*
X7440Y16353D1*
X5315Y12379D2*
X7434D1*
X7440Y12384D1*
D28*
X9003Y5565D3*
X6565Y5752D3*
X4785Y7231D3*
X6188Y10871D3*
X8506Y9387D2*
D18*
X8679D1*
X8256Y9139D2*
X8679D1*
X8135Y8890D2*
X8679D1*
X6260Y8641D2*
X6569D1*
X8135D2*
X8679D1*
X8135Y8393D2*
X8679D1*
X8135Y8144D2*
X8683D1*
X7881Y7895D2*
X8683D1*
X5143Y7647D2*
X5382D1*
X5998D2*
X6288D1*
X7881D2*
X8683D1*
X5205Y7398D2*
X6288D1*
X7881D2*
X8683D1*
X5233Y7149D2*
X6288D1*
X7893D2*
X9007D1*
X4278Y6901D2*
X4483D1*
X5084D2*
X6288D1*
X8174D2*
X9007D1*
X4278Y6652D2*
X6288D1*
X8303D2*
X9007D1*
X4278Y6403D2*
X6288D1*
X8346D2*
X9007D1*
X4278Y6155D2*
X6288D1*
X8319D2*
X9007D1*
X4278Y5906D2*
X6140D1*
X8213D2*
X8714D1*
X4278Y5657D2*
X6120D1*
X7979D2*
X8558D1*
X4278Y5408D2*
X6280D1*
X6850D2*
X8351D1*
X4278Y5160D2*
X4694D1*
X7612D2*
X7772D1*
X4278Y4911D2*
X4538D1*
X4278Y4662D2*
X4503D1*
X4278Y4414D2*
X4562D1*
X9033Y7164D2*
X8706D1*
X8705Y9466D1*
X9503Y9471D1*
X9490Y9485D1*
X8577Y9484D1*
X8047Y8954D1*
X8055Y8933D1*
X8111D1*
Y8013D1*
X7856D1*
X7852Y7186D1*
X7883Y7141D1*
X7986Y7070D1*
X8079Y6986D1*
X8158Y6890D1*
X8224Y6784D1*
X8273Y6669D1*
X8306Y6549D1*
X8323Y6377D1*
X8314Y6252D1*
X8288Y6130D1*
X8245Y6013D1*
X8185Y5903D1*
X8111Y5802D1*
X8023Y5714D1*
X7924Y5638D1*
X7815Y5577D1*
X7698Y5532D1*
X7577Y5504D1*
X7452Y5494D1*
X7327Y5501D1*
X7205Y5525D1*
X7087Y5567D1*
X6973Y5627D1*
X6925Y5515D1*
X6842Y5422D1*
X6736Y5357D1*
X6616Y5324D1*
X6492Y5328D1*
X6373Y5367D1*
X6271Y5438D1*
X6193Y5535D1*
X6147Y5651D1*
X6136Y5775D1*
X6160Y5897D1*
X6219Y6007D1*
X6310Y6097D1*
X6312Y7627D1*
Y8253D1*
X6345Y8376D1*
X6386Y8432D1*
X6636Y8682D1*
X6746Y8746D1*
X6815Y8756D1*
X6897D1*
X6896Y8854D1*
X7315Y8859D1*
X6452D1*
X6166Y8572D1*
X6203Y8527D1*
X6261Y8416D1*
X6295Y8296D1*
X6304Y8190D1*
X6291Y8066D1*
X6254Y7947D1*
X6193Y7838D1*
X6111Y7744D1*
X6012Y7668D1*
X5900Y7614D1*
X5779Y7583D1*
X5654Y7578D1*
X5531Y7598D1*
X5414Y7642D1*
X5309Y7709D1*
X5245Y7772D1*
X5119Y7647D1*
X5025Y7585D1*
X5096Y7529D1*
X5168Y7427D1*
X5208Y7309D1*
X5215Y7231D1*
X5197Y7108D1*
X5145Y6995D1*
X5062Y6902D1*
X4956Y6836D1*
X4836Y6804D1*
X4711Y6807D1*
X4593Y6846D1*
X4491Y6917D1*
X4413Y7015D1*
X4367Y7130D1*
X4355Y7254D1*
X4380Y7376D1*
X4439Y7486D1*
X4480Y7528D1*
X4302Y7617D1*
X4251Y7659D1*
X4253Y5503D1*
Y4253D1*
X4694D1*
X4610Y4365D1*
X4560Y4480D1*
X4532Y4601D1*
X4527Y4726D1*
X4545Y4849D1*
X4586Y4967D1*
X4649Y5075D1*
X4730Y5170D1*
X4828Y5247D1*
X4938Y5305D1*
X5058Y5342D1*
X5182Y5355D1*
X5306Y5345D1*
X5427Y5312D1*
X5539Y5257D1*
X5638Y5182D1*
X5673Y5144D1*
X5723Y5201D1*
X5822Y5277D1*
X5934Y5333D1*
X6053Y5369D1*
X6177Y5382D1*
X6302Y5374D1*
X6423Y5342D1*
X6536Y5290D1*
X6638Y5218D1*
X6726Y5129D1*
X6742Y5109D1*
X6825Y5183D1*
X6932Y5247D1*
X7050Y5287D1*
X7173Y5304D1*
X7298Y5294D1*
X7418Y5260D1*
X7529Y5202D1*
X7625Y5124D1*
X7692Y5042D1*
X7733Y5099D1*
X7825Y5183D1*
X7932Y5247D1*
X8050Y5287D1*
X8173Y5304D1*
X8263Y5297D1*
X8577Y5609D1*
X8598Y5710D1*
X8657Y5820D1*
X8744Y5909D1*
X8854Y5969D1*
X8975Y5995D1*
X9034Y5990D1*
X9030Y6378D1*
Y7163D1*
X9253Y9465D2*
D19*
Y8878D1*
X8705D2*
X9253D1*
X6191Y5382D2*
Y4690D1*
X7720Y8473D2*
X8111D1*
D20*
X9254Y7752D3*
X10002D3*
X9253Y8878D3*
X10001D3*
D22*
X10191Y4690D3*
X9191D3*
X8191D3*
X7191D3*
X6191D3*
X5191D3*
X5690Y8190D3*
X4690D3*
D23*
X5315Y16379D3*
Y14379D3*
Y12379D3*
D25*
X7209Y8473D3*
X7720D3*
X7465Y7646D3*
D20*
X4692Y9441D3*
X5440D3*
D17*
X7440Y6377D3*
X10393D3*
X7440Y12384D3*
Y14369D3*
Y16353D3*
X10393Y12384D3*
Y14369D3*
Y16353D3*
%LNBoardOutline*%
X3940Y3940D2*
D11*
X11441D1*
Y17379D1*
X3940Y17389D1*
Y3940D1*
M02*
