G04 DipTrace 2.4.0.2*
%INbottomsilk.gbr*%
%MOIN*%
%ADD10C,0.0098*%
%ADD11C,0.006*%
%ADD24C,0.0154*%
%ADD49C,0.0077*%
%FSLAX44Y44*%
G04*
G70*
G90*
G75*
G01*
%LNBotSilk*%
%LPD*%
X8841Y8008D2*
D10*
Y7496D1*
X8840Y9134D2*
Y8622D1*
D24*
X6940Y8502D3*
X7071Y8158D2*
D10*
X7858D1*
Y7961D1*
X7071D1*
Y8158D1*
X9257Y7160D2*
D49*
X9281Y7207D1*
X9329Y7255D1*
X9377Y7279D1*
X9472D1*
X9520Y7255D1*
X9568Y7207D1*
X9592Y7160D1*
X9616Y7088D1*
Y6968D1*
X9592Y6897D1*
X9568Y6849D1*
X9520Y6801D1*
X9472Y6777D1*
X9377D1*
X9329Y6801D1*
X9281Y6849D1*
X9257Y6897D1*
X9103Y7183D2*
X9055Y7207D1*
X8983Y7279D1*
Y6777D1*
X9551Y9849D2*
X9575Y9896D1*
X9623Y9944D1*
X9670Y9968D1*
X9766D1*
X9814Y9944D1*
X9862Y9896D1*
X9886Y9849D1*
X9910Y9777D1*
Y9657D1*
X9886Y9586D1*
X9862Y9538D1*
X9814Y9490D1*
X9766Y9466D1*
X9670D1*
X9623Y9490D1*
X9575Y9538D1*
X9551Y9586D1*
X9372Y9848D2*
Y9872D1*
X9348Y9920D1*
X9325Y9944D1*
X9277Y9968D1*
X9181D1*
X9133Y9944D1*
X9110Y9920D1*
X9085Y9872D1*
Y9824D1*
X9110Y9776D1*
X9157Y9705D1*
X9397Y9466D1*
X9062D1*
X7193Y9677D2*
X7216Y9724D1*
X7264Y9772D1*
X7312Y9796D1*
X7384Y9820D1*
X7503D1*
X7575Y9796D1*
X7623Y9772D1*
X7671Y9724D1*
X7694Y9677D1*
Y9581D1*
X7671Y9533D1*
X7623Y9485D1*
X7575Y9462D1*
X7503Y9437D1*
X7384D1*
X7312Y9462D1*
X7264Y9485D1*
X7216Y9533D1*
X7193Y9581D1*
Y9677D1*
X7599Y9605D2*
X7743Y9462D1*
X7695Y9043D2*
X7193D1*
X7528Y9283D1*
Y8924D1*
X5478Y10291D2*
X5263D1*
X5191Y10316D1*
X5167Y10339D1*
X5143Y10387D1*
Y10435D1*
X5167Y10483D1*
X5191Y10507D1*
X5263Y10531D1*
X5478D1*
Y10028D1*
X5311Y10291D2*
X5143Y10028D1*
X4941Y10530D2*
X4678D1*
X4821Y10339D1*
X4749D1*
X4702Y10315D1*
X4678Y10291D1*
X4654Y10220D1*
Y10172D1*
X4678Y10100D1*
X4726Y10052D1*
X4798Y10028D1*
X4869D1*
X4941Y10052D1*
X4964Y10076D1*
X4989Y10124D1*
%LNBoardOutline*%
X3940Y3940D2*
D11*
X11441D1*
Y17379D1*
X3940Y17389D1*
Y3940D1*
M02*
