M48
INCH
T01C0.0276
T02C0.04
T03C0.0551
T04C0.0591
%
T01
X+004785Y+007231
X+006565Y+005752
X+009003Y+005565
X+006188Y+010871
T02
X+010191Y+004690
X+009191Y+004690
X+008191Y+004690
X+007191Y+004690
X+006191Y+004690
X+005191Y+004690
X+005690Y+008190
X+004690Y+008190
T03
X+007440Y+006377
X+010393Y+006377
X+010393Y+012384
X+010393Y+014369
X+010393Y+016353
X+007440Y+016353
X+007440Y+014369
X+007440Y+012384
T04
X+005315Y+016379
X+005315Y+014379
X+005315Y+012379
T00
M30
