G04 DipTrace 2.4.0.2*
%INthrough.gbr*%
%MOIN*%
G04 Drill Symbols*
G04 D=0.0276 - Cross*
G04 D=0.04 - X*
G04 D=0.0551 - Y*
G04 D=0.0591 - T*
%ADD10C,0.008*%
%FSLAX44Y44*%
G04*
G70*
G90*
G75*
G01*
X9956Y4925D2*
D10*
X10426Y4455D1*
Y4925D2*
X9956Y4455D1*
X8956Y4925D2*
X9426Y4455D1*
Y4925D2*
X8956Y4455D1*
X7956Y4925D2*
X8426Y4455D1*
Y4925D2*
X7956Y4455D1*
X6956Y4925D2*
X7426Y4455D1*
Y4925D2*
X6956Y4455D1*
X5956Y4925D2*
X6426Y4455D1*
Y4925D2*
X5956Y4455D1*
X4956Y4925D2*
X5426Y4455D1*
Y4925D2*
X4956Y4455D1*
X5455Y8425D2*
X5925Y7955D1*
Y8425D2*
X5455Y7955D1*
X4455Y8425D2*
X4925Y7955D1*
Y8425D2*
X4455Y7955D1*
X5080Y16379D2*
X5550D1*
X5315D2*
Y16144D1*
X5080Y14379D2*
X5550D1*
X5315D2*
Y14144D1*
X5080Y12379D2*
X5550D1*
X5315D2*
Y12144D1*
X7205Y6612D2*
X7440Y6377D1*
X7675Y6612D1*
X7440Y6377D2*
Y6142D1*
X10158Y6612D2*
X10393Y6377D1*
X10628Y6612D1*
X10393Y6377D2*
Y6142D1*
X7205Y12619D2*
X7440Y12384D1*
X7675Y12619D1*
X7440Y12384D2*
Y12149D1*
X7205Y14604D2*
X7440Y14369D1*
X7675Y14604D1*
X7440Y14369D2*
Y14134D1*
X7205Y16588D2*
X7440Y16353D1*
X7675Y16588D1*
X7440Y16353D2*
Y16118D1*
X10158Y12619D2*
X10393Y12384D1*
X10628Y12619D1*
X10393Y12384D2*
Y12149D1*
X10158Y14604D2*
X10393Y14369D1*
X10628Y14604D1*
X10393Y14369D2*
Y14134D1*
X10158Y16588D2*
X10393Y16353D1*
X10628Y16588D1*
X10393Y16353D2*
Y16118D1*
X4785Y7466D2*
Y6996D1*
X4550Y7231D2*
X5020D1*
X6188Y11106D2*
Y10636D1*
X5953Y10871D2*
X6423D1*
X9003Y5800D2*
Y5330D1*
X8768Y5565D2*
X9238D1*
X6565Y5987D2*
Y5517D1*
X6330Y5752D2*
X6800D1*
M02*
