G04 DipTrace 2.4.0.2*
%INtop.gbr*%
%MOIN*%
%ADD11C,0.006*%
%ADD13C,0.0236*%
%ADD15C,0.0079*%
%ADD16C,0.0209*%
%ADD17C,0.1181*%
%ADD21R,0.0551X0.0827*%
%ADD22C,0.08*%
%ADD23C,0.1575*%
%ADD27R,0.08X0.0209*%
%ADD28C,0.0433*%
%FSLAX44Y44*%
G04*
G70*
G90*
G75*
G01*
%LNTop*%
%LPD*%
X9191Y4690D2*
D15*
X8594Y5287D1*
X5531D1*
X5253Y5565D1*
Y5940D1*
X4941Y6252D1*
X4530D1*
X5930D2*
D16*
X5566D1*
X5263Y6554D1*
Y7058D1*
X5690Y7485D1*
Y8190D1*
D13*
Y8866D1*
X5958Y9134D1*
Y10083D1*
X4785Y7231D2*
D16*
Y7172D1*
X4530Y6917D1*
Y6752D1*
X9003Y5565D2*
D13*
Y6253D1*
X9128Y6378D1*
X10392D1*
X10393Y6377D1*
X4785Y7231D2*
X5338D1*
D16*
X5263Y7058D1*
X7440Y6377D2*
D13*
Y10477D1*
X7046Y10871D1*
X6188D1*
X4422D1*
Y10083D1*
X5930Y5752D2*
D15*
X6565D1*
X5315Y14379D2*
D17*
X5325Y14369D1*
X7440D1*
X5315Y16379D2*
X7414D1*
X7440Y16353D1*
X5315Y12379D2*
X7440Y12384D1*
D28*
X9003Y5565D3*
X6565Y5752D3*
X4785Y7231D3*
X6188Y10871D3*
D21*
X4422Y10083D3*
X5958D3*
D22*
X10191Y4690D3*
X9191D3*
X8191D3*
X7191D3*
X6191D3*
X5191D3*
X5690Y8190D3*
X4690D3*
D23*
X5315Y16379D3*
Y14379D3*
Y12379D3*
D17*
X7440Y6377D3*
X10393D3*
X7440Y12384D3*
Y14369D3*
Y16353D3*
X10393Y12384D3*
Y14369D3*
Y16353D3*
D27*
X4530Y6752D3*
Y6252D3*
Y5752D3*
X5930D3*
Y6252D3*
Y6752D3*
%LNBoardOutline*%
X3940Y3940D2*
D11*
X11441D1*
Y17379D1*
X3940Y17389D1*
Y3940D1*
M02*
