G04 DipTrace 2.4.0.2*
%INtopsilk.gbr*%
%MOIN*%
%ADD10C,0.0098*%
%ADD11C,0.006*%
%ADD13C,0.0236*%
%ADD26C,0.0118*%
%ADD49C,0.0077*%
%ADD50C,0.0093*%
%FSLAX44Y44*%
G04*
G70*
G90*
G75*
G01*
%LNTopSilk*%
%LPD*%
X4324Y10654D2*
D10*
X6056D1*
X4324Y9512D2*
X6056D1*
D13*
X3930Y10083D3*
X6448Y5451D2*
D10*
X11385D1*
Y17369D1*
X6448D1*
Y5451D1*
X5457Y6830D2*
X5024D1*
Y5649D1*
X5457D1*
Y6830D1*
D26*
X4965Y6968D3*
X6718Y10324D2*
D49*
Y9821D1*
X6886D1*
X6958Y9846D1*
X7006Y9893D1*
X7030Y9941D1*
X7053Y10013D1*
Y10133D1*
X7030Y10204D1*
X7006Y10252D1*
X6958Y10300D1*
X6886Y10324D1*
X6718D1*
X7208Y10228D2*
X7256Y10252D1*
X7328Y10323D1*
Y9821D1*
X6638Y8510D2*
Y8008D1*
X6925D1*
X7390Y8510D2*
X7079D1*
Y8008D1*
X7390D1*
X7079Y8271D2*
X7270D1*
X7544Y8510D2*
Y8008D1*
X7711D1*
X7783Y8032D1*
X7831Y8080D1*
X7855Y8128D1*
X7879Y8199D1*
Y8319D1*
X7855Y8391D1*
X7831Y8438D1*
X7783Y8486D1*
X7711Y8510D1*
X7544D1*
X8058Y8390D2*
Y8414D1*
X8081Y8462D1*
X8105Y8486D1*
X8153Y8510D1*
X8249D1*
X8296Y8486D1*
X8320Y8462D1*
X8344Y8414D1*
Y8366D1*
X8320Y8318D1*
X8273Y8247D1*
X8033Y8008D1*
X8368D1*
X7953Y11049D2*
X8168D1*
X8240Y11073D1*
X8264Y11097D1*
X8288Y11145D1*
Y11193D1*
X8264Y11240D1*
X8240Y11265D1*
X8168Y11288D1*
X7953D1*
Y10786D1*
X8120Y11049D2*
X8288Y10786D1*
X8442Y11288D2*
Y10786D1*
X8729D1*
X8883Y11288D2*
X9075Y11049D1*
Y10786D1*
X9266Y11288D2*
X9075Y11049D1*
X9444Y11168D2*
Y11192D1*
X9468Y11240D1*
X9492Y11264D1*
X9540Y11288D1*
X9636D1*
X9683Y11264D1*
X9707Y11240D1*
X9731Y11192D1*
Y11145D1*
X9707Y11097D1*
X9659Y11025D1*
X9420Y10786D1*
X9755D1*
X6631Y7572D2*
Y7213D1*
X6655Y7141D1*
X6703Y7094D1*
X6775Y7069D1*
X6822D1*
X6894Y7094D1*
X6942Y7141D1*
X6966Y7213D1*
Y7572D1*
X7145Y7452D2*
Y7476D1*
X7168Y7524D1*
X7192Y7548D1*
X7240Y7571D1*
X7336D1*
X7383Y7548D1*
X7407Y7524D1*
X7431Y7476D1*
Y7428D1*
X7407Y7380D1*
X7360Y7309D1*
X7120Y7069D1*
X7455D1*
X5909Y6313D2*
D50*
Y5710D1*
X6311Y6313D2*
X5909Y5911D1*
X6052Y6055D2*
X6311Y5710D1*
X5847Y9250D2*
Y8647D1*
X6249Y9250D2*
X5847Y8848D1*
X5990Y8992D2*
X6249Y8647D1*
X4652Y13669D2*
X4624Y13727D1*
X4566Y13784D1*
X4509Y13813D1*
X4394D1*
X4336Y13784D1*
X4279Y13727D1*
X4250Y13669D1*
X4222Y13583D1*
Y13439D1*
X4250Y13354D1*
X4279Y13296D1*
X4336Y13239D1*
X4394Y13210D1*
X4509D1*
X4566Y13239D1*
X4624Y13296D1*
X4652Y13354D1*
X4394Y15813D2*
X4336Y15784D1*
X4279Y15726D1*
X4250Y15669D1*
X4222Y15583D1*
Y15439D1*
X4250Y15354D1*
X4279Y15296D1*
X4336Y15239D1*
X4394Y15210D1*
X4509D1*
X4566Y15239D1*
X4624Y15296D1*
X4652Y15354D1*
X4681Y15439D1*
Y15583D1*
X4652Y15669D1*
X4624Y15726D1*
X4566Y15784D1*
X4509Y15813D1*
X4394D1*
X4347Y12063D2*
Y11460D1*
X4691D1*
%LNBoardOutline*%
X3940Y3940D2*
D11*
X11441D1*
Y17379D1*
X3940Y17389D1*
Y3940D1*
M02*
