G04 DipTrace 2.2.9.0 beta*
%INBottom.gbr*%
%MOIN*%
%ADD11C,0.0055*%
%ADD13C,0.125*%
%ADD14C,0.157*%
%ADD15C,0.0256*%
%ADD16C,0.0472*%
%ADD17C,0.0335*%
%ADD18C,0.0433*%
%ADD19C,0.0079*%
%ADD20C,0.1575*%
%ADD21C,0.04*%
%ADD22C,0.1*%
%ADD23C,0.025*%
%ADD24C,0.02*%
%ADD33C,0.0689*%
%ADD34C,0.0945*%
%ADD35C,0.0591*%
%ADD36R,0.0591X0.0591*%
%FSLAX44Y44*%
G04*
G70*
G90*
G75*
G01*
%LNBottom*%
%LPD*%
X15643Y34029D2*
D13*
Y36981D1*
D14*
Y37610D1*
X14519Y38734D1*
X12374D1*
X12097Y39011D1*
Y39012D1*
X8044Y43064D1*
X42245Y22744D2*
D16*
Y25722D1*
X44958D1*
X45217Y25462D1*
Y22061D1*
X45875D1*
X28476Y20000D2*
Y21339D1*
X29027Y21890D1*
Y22126D1*
X28767D1*
X23980D1*
X10992Y20000D2*
X12488Y21496D1*
Y27957D1*
X44127Y17215D2*
Y20920D1*
X44422Y21215D1*
X45127D1*
X46197Y16624D2*
Y13656D1*
X46457Y13396D1*
X53531D1*
X54319Y12609D1*
Y6589D1*
X56312Y4596D1*
X57119D1*
X44958Y25722D2*
Y26532D1*
X45446Y27021D1*
X59374D1*
X60250Y27897D1*
Y33123D1*
X59463Y33910D1*
X52298D1*
X46302Y39907D1*
Y42235D1*
X40131Y8792D2*
X39363D1*
Y6991D1*
X25863Y5550D2*
Y8635D1*
X23980Y22126D2*
X23213D1*
X19949Y25389D1*
Y28818D1*
X31677Y5550D2*
D17*
Y7926D1*
X30831Y8773D1*
X20066Y5550D2*
D16*
X19855D1*
Y8635D1*
X34257Y20000D2*
Y22126D1*
X35407Y23276D1*
X28767Y22126D2*
X29027Y22386D1*
Y23427D1*
X57119Y4596D2*
X58340D1*
X47733Y10950D2*
X46197D1*
Y13136D1*
X46457Y13396D1*
X45875Y22061D2*
X45981D1*
X46197Y21845D1*
Y21215D1*
X45902D1*
X46197Y20920D1*
Y16624D1*
X22662Y20000D2*
Y21339D1*
X23213D1*
Y22126D1*
X45127Y21215D2*
X45902D1*
X14310Y5550D2*
X14121D1*
X12572Y7099D1*
X10067D1*
X8518Y5550D1*
X39363Y6991D2*
X40339D1*
X41127Y7779D1*
Y10215D1*
X16563Y21319D2*
D19*
X17818D1*
X17976Y21161D1*
Y15802D1*
X41970Y11042D2*
Y12471D1*
X42127Y12628D1*
X45383D1*
X45540Y12786D1*
Y14802D1*
X45127Y15215D1*
X42540Y4408D2*
Y12058D1*
X42698Y12215D1*
X45127D1*
X43556Y24422D2*
Y15786D1*
X45127Y14215D1*
X37827Y24053D2*
Y15959D1*
X38025Y15761D1*
X39928D1*
X40127Y15959D1*
Y17215D1*
X17627Y36981D2*
D20*
Y34029D1*
Y32370D1*
X8836D1*
X5787Y35419D1*
Y44055D1*
X8044Y46312D1*
X33910Y33635D2*
D21*
X34985Y34710D1*
X40629D1*
X41080Y35160D1*
X46828D1*
X48804Y33185D1*
X54590D1*
X54887Y32887D1*
X55487D1*
X39698Y35598D2*
D22*
X43054Y38954D1*
Y42235D1*
X25220Y29896D2*
D19*
X24757Y29433D1*
Y29010D1*
X25357D1*
X22660Y29896D2*
X22060D1*
X21903Y29738D1*
Y29167D1*
X22060Y29010D1*
X22523D1*
X10357Y28900D2*
X10820Y28437D1*
Y28014D1*
X10220D1*
X17720Y28034D2*
X18320D1*
Y28457D1*
X17857Y28920D1*
X15160Y28034D2*
X15623Y28497D1*
Y28920D1*
X15023D1*
X36194Y12296D2*
Y21634D1*
X36175D1*
X43044Y24934D2*
Y22508D1*
X43078D1*
X41848Y28131D2*
X44359D1*
Y28075D1*
X25357Y29010D2*
X28445D1*
X29226Y28229D1*
X22523Y29010D2*
X24413D1*
X24571Y28853D1*
Y24120D1*
X7660Y28014D2*
X7060D1*
X6903Y28172D1*
Y28743D1*
X7060Y28900D1*
X7523D1*
X10220Y28014D2*
X7660D1*
X43078Y22508D2*
Y18708D1*
X46116Y33519D2*
X42402D1*
X56903Y7389D2*
X60647D1*
X60804Y7231D1*
Y5131D1*
X61340Y4596D1*
X45570Y33965D2*
X44107D1*
Y33950D1*
X30328Y33596D2*
D16*
X31459Y32464D1*
Y31491D1*
D15*
X37267D1*
X46863Y31273D2*
D19*
X42060D1*
X16662Y8658D2*
X16810Y8510D1*
X16662Y8658D2*
Y5698D1*
X16810Y5550D1*
X45525Y30249D2*
X42769D1*
X58439Y32887D2*
D15*
X54343Y28791D1*
X41297D1*
X41188Y28899D1*
X48477Y27572D2*
D19*
X44659D1*
X44068Y26981D1*
X42611D1*
X42218Y27375D1*
X41273D1*
X40879Y26981D1*
X66353Y32887D2*
D16*
X63938Y35302D1*
X54699D1*
X75191Y30548D2*
X74620Y31119D1*
Y32966D1*
X53132Y32429D2*
D15*
X39599D1*
X39028Y31858D1*
Y27213D1*
X39265Y25052D2*
D19*
Y24029D1*
X83493Y32761D2*
D15*
X77074Y26342D1*
X45985D1*
X17548Y40761D2*
D20*
Y43714D1*
Y46416D1*
X18399Y47336D1*
X15564Y43714D2*
Y40761D1*
X15151Y47336D2*
X15181Y47571D1*
X15564Y43714D1*
X11903Y47336D2*
X11985Y47065D1*
X13427Y43907D1*
X13580Y43714D1*
Y40761D1*
X30701Y21476D2*
D19*
X31599D1*
X31757Y21319D1*
Y20000D1*
X34177Y9137D2*
Y5550D1*
X28240Y9186D2*
X28363Y9062D1*
Y5550D1*
X22566Y9068D2*
Y5550D1*
X8940Y27483D2*
X10498D1*
Y27367D1*
X39717Y13215D2*
X39127D1*
X48850Y7143D2*
Y12628D1*
X27375Y39603D2*
D20*
X30328D1*
X26529Y47336D2*
X25249Y46056D1*
Y41588D1*
X27375D1*
X30328D1*
X23281Y47336D2*
X25249Y49304D1*
X30973D1*
X31745Y48532D1*
Y46142D1*
X30828Y45225D1*
X27847D1*
X27375Y44753D1*
Y43572D1*
X30328D2*
Y45225D1*
X30828D1*
X33910Y39643D2*
X36863D1*
X37907Y47375D2*
Y45407D1*
X38832D1*
Y41627D1*
X36863D1*
X33910D1*
X36863Y43611D2*
X33910D1*
Y46627D1*
X34659Y47375D1*
X58439Y38895D2*
X60092D1*
X60564Y39367D1*
Y47336D1*
X55487Y40879D2*
X58439D1*
X55487Y42863D2*
Y44517D1*
X54068D1*
Y47336D1*
X66353Y38895D2*
X63400D1*
X66353Y40879D2*
X68812D1*
Y47336D1*
X66353Y42863D2*
X65054D1*
X63400D1*
X65564Y47336D2*
X65054Y46825D1*
Y42863D1*
X71668Y38973D2*
X74620D1*
X76870D1*
X78158Y40261D1*
Y43431D1*
X79655Y44928D1*
X81070D1*
X83477Y47336D1*
X74620Y40958D2*
X71668D1*
X74620Y42942D2*
X76981Y45303D1*
Y47336D1*
X87375Y39659D2*
X86571Y38843D1*
X83493Y38769D1*
X80540D1*
X87375Y42907D2*
X85221Y40753D1*
X80540D1*
X83493D1*
X87375Y46155D2*
X87191D1*
X83686Y42737D1*
X83493D1*
X80540D1*
X13659Y36981D2*
D13*
Y34029D1*
X46645Y34300D2*
D19*
X38615D1*
X38457Y34142D1*
Y20885D1*
X39127Y20215D1*
X45682Y31784D2*
X40146D1*
X39638Y31277D1*
Y19727D1*
X39127Y19215D1*
X47099Y30682D2*
Y30721D1*
X40244D1*
X39855Y30333D1*
Y18944D1*
X39127Y18215D1*
X45521Y29470D2*
X40268D1*
X40052Y29254D1*
Y18241D1*
X39597Y17786D1*
X39361D1*
X39127Y17552D1*
Y17215D1*
X43895Y27586D2*
X40426D1*
X40268Y27428D1*
Y18064D1*
X39619Y17414D1*
Y16708D1*
X39127Y16215D1*
X41666Y27021D2*
Y15385D1*
X41497Y15215D1*
X39127D1*
X50328Y24540D2*
X47769D1*
X40127Y10215D2*
Y13628D1*
X10220Y29786D2*
X11234Y30800D1*
X18477D1*
X18635Y30642D1*
Y10373D1*
X18792Y10215D1*
X39127D1*
X17720Y29806D2*
X18477Y29048D1*
Y9959D1*
X18635Y9802D1*
X39383D1*
X39540Y9959D1*
Y10802D1*
X39127Y11215D1*
X25220Y28124D2*
X27947Y25397D1*
X37147D1*
X37304Y25240D1*
Y15713D1*
X38281Y14737D1*
X40996D1*
X42519Y13215D1*
X45127D1*
D18*
X40879Y26981D3*
X47769Y24540D3*
X12488Y27957D3*
X42245Y22744D3*
X45875Y22061D3*
X57119Y4596D3*
X25863Y8635D3*
X47733Y10950D3*
X30831Y8773D3*
X35407Y23276D3*
X23980Y22126D3*
X39363Y6991D3*
X40131Y8792D3*
X19855Y8635D3*
X29027Y23427D3*
X19949Y28818D3*
X46197Y16624D3*
X17976Y15802D3*
X16563Y21319D3*
X41970Y11042D3*
X42540Y4408D3*
X43556Y24422D3*
X37827Y24053D3*
X42402Y33519D3*
X46116D3*
X29226Y28229D3*
X24571Y24120D3*
X36175Y21634D3*
X36194Y12296D3*
X43078Y18708D3*
X50328Y24540D3*
X43044Y24934D3*
X44359Y28075D3*
X41848Y28131D3*
X39698Y35598D3*
X43078Y22508D3*
X56903Y7389D3*
X44107Y33950D3*
X45570Y33965D3*
X37267Y31491D3*
X42060Y31273D3*
X46863D3*
X16662Y8658D3*
X42769Y30249D3*
X45525D3*
X41188Y28899D3*
X54699Y35302D3*
X75191Y30548D3*
X39028Y27213D3*
X53132Y32429D3*
X39265Y24029D3*
Y25052D3*
X45985Y26342D3*
X30701Y21476D3*
X34177Y9137D3*
X28240Y9186D3*
X22566Y9068D3*
X10498Y27367D3*
X48850Y7143D3*
Y12628D3*
X39717Y13215D3*
X46645Y34300D3*
X45682Y31784D3*
X47099Y30682D3*
X45521Y29470D3*
X43895Y27586D3*
X41666Y27021D3*
X40127Y13628D3*
X48477Y27572D3*
X51344Y9439D3*
X68698Y30586D3*
X6501Y50676D2*
D23*
X44502D1*
X47126D2*
X48252D1*
X50876D2*
X88877D1*
X6572Y50428D2*
X44436D1*
X47197D2*
X48186D1*
X50947D2*
X88811D1*
X6591Y50179D2*
X24522D1*
X31701D2*
X44412D1*
X47216D2*
X48162D1*
X50966D2*
X88787D1*
X6568Y49930D2*
X24264D1*
X31959D2*
X44440D1*
X47193D2*
X48190D1*
X50943D2*
X88815D1*
X6494Y49682D2*
X24014D1*
X32209D2*
X44510D1*
X47119D2*
X48260D1*
X50869D2*
X88885D1*
X6365Y49433D2*
X23764D1*
X32459D2*
X44639D1*
X46990D2*
X48389D1*
X50740D2*
X89014D1*
X6154Y49184D2*
X23518D1*
X32685D2*
X44850D1*
X46779D2*
X48600D1*
X50529D2*
X89225D1*
X5779Y48935D2*
X23268D1*
X32818D2*
X45225D1*
X46404D2*
X48975D1*
X50154D2*
X89600D1*
X4480Y48687D2*
X15034D1*
X15330D2*
X23018D1*
X32880D2*
X90901D1*
X4480Y48438D2*
X11666D1*
X12138D2*
X14444D1*
X15919D2*
X18162D1*
X18634D2*
X22772D1*
X32892D2*
X34276D1*
X35044D2*
X37522D1*
X38291D2*
X40772D1*
X41541D2*
X53834D1*
X54302D2*
X57080D1*
X57552D2*
X60330D1*
X60798D2*
X65330D1*
X65798D2*
X68576D1*
X69048D2*
X71826D1*
X72294D2*
X76744D1*
X77216D2*
X79994D1*
X80462D2*
X83241D1*
X83712D2*
X90901D1*
X4480Y48189D2*
X11151D1*
X12658D2*
X14221D1*
X16142D2*
X17647D1*
X19154D2*
X22522D1*
X32892D2*
X33862D1*
X35455D2*
X37108D1*
X38705D2*
X40358D1*
X41951D2*
X53315D1*
X54822D2*
X56561D1*
X58068D2*
X59811D1*
X61318D2*
X64811D1*
X66318D2*
X68057D1*
X69564D2*
X71307D1*
X72814D2*
X76229D1*
X77736D2*
X79475D1*
X80982D2*
X82725D1*
X84232D2*
X90901D1*
X4480Y47941D2*
X10932D1*
X12873D2*
X14096D1*
X16267D2*
X17405D1*
X19369D2*
X22311D1*
X32892D2*
X33612D1*
X35654D2*
X36912D1*
X38900D2*
X40159D1*
X42150D2*
X53096D1*
X55037D2*
X56346D1*
X58287D2*
X59592D1*
X61533D2*
X64557D1*
X66533D2*
X67842D1*
X69783D2*
X71088D1*
X73029D2*
X76010D1*
X77951D2*
X79260D1*
X81201D2*
X82471D1*
X84447D2*
X90901D1*
X4480Y47692D2*
X10815D1*
X12994D2*
X14041D1*
X16322D2*
X17174D1*
X19490D2*
X22190D1*
X32892D2*
X33362D1*
X35759D2*
X36803D1*
X39009D2*
X40053D1*
X42255D2*
X52979D1*
X55158D2*
X56225D1*
X58404D2*
X59475D1*
X61654D2*
X64307D1*
X66654D2*
X67721D1*
X69900D2*
X70971D1*
X73150D2*
X75893D1*
X78072D2*
X79139D1*
X81318D2*
X82221D1*
X84568D2*
X90901D1*
X4480Y47443D2*
X10760D1*
X13072D2*
X14010D1*
X16345D2*
X16944D1*
X19541D2*
X22139D1*
X32892D2*
X33116D1*
X35802D2*
X36760D1*
X39052D2*
X40010D1*
X42298D2*
X52924D1*
X55209D2*
X56174D1*
X58459D2*
X59420D1*
X61705D2*
X64092D1*
X66705D2*
X67670D1*
X69955D2*
X70916D1*
X73201D2*
X75838D1*
X78123D2*
X79088D1*
X81373D2*
X81975D1*
X84619D2*
X90901D1*
X4480Y47195D2*
X7326D1*
X8763D2*
X10764D1*
X13185D2*
X14014D1*
X16373D2*
X16713D1*
X19537D2*
X22143D1*
X35791D2*
X36760D1*
X39052D2*
X40022D1*
X42287D2*
X52920D1*
X55216D2*
X56178D1*
X58455D2*
X59416D1*
X61712D2*
X63967D1*
X66701D2*
X67666D1*
X69959D2*
X70920D1*
X73197D2*
X75834D1*
X78130D2*
X79092D1*
X81369D2*
X81725D1*
X84615D2*
X86744D1*
X87822D2*
X90901D1*
X4480Y46946D2*
X7065D1*
X8994D2*
X10823D1*
X13298D2*
X14073D1*
X16396D2*
X16532D1*
X19478D2*
X22201D1*
X35720D2*
X36760D1*
X39052D2*
X40092D1*
X42216D2*
X52920D1*
X55216D2*
X56237D1*
X58392D2*
X59416D1*
X61712D2*
X63912D1*
X66642D2*
X67666D1*
X69959D2*
X70983D1*
X73138D2*
X75834D1*
X78130D2*
X79151D1*
X81306D2*
X81475D1*
X84556D2*
X86369D1*
X88197D2*
X90901D1*
X4480Y46697D2*
X6819D1*
X9123D2*
X10901D1*
X13412D2*
X14116D1*
X19345D2*
X22334D1*
X35580D2*
X36760D1*
X39052D2*
X40237D1*
X42076D2*
X52920D1*
X55216D2*
X56369D1*
X58263D2*
X59416D1*
X61712D2*
X63905D1*
X66513D2*
X67666D1*
X69959D2*
X71112D1*
X73009D2*
X75834D1*
X78130D2*
X79280D1*
X84427D2*
X86116D1*
X88380D2*
X90901D1*
X4480Y46449D2*
X6569D1*
X9185D2*
X11006D1*
X13525D2*
X14139D1*
X19130D2*
X22569D1*
X23994D2*
X24176D1*
X35345D2*
X36760D1*
X39275D2*
X40494D1*
X41814D2*
X52920D1*
X55216D2*
X56604D1*
X58029D2*
X59416D1*
X61712D2*
X63905D1*
X66291D2*
X67666D1*
X69959D2*
X71346D1*
X72771D2*
X75834D1*
X78130D2*
X79518D1*
X84201D2*
X85862D1*
X88482D2*
X90901D1*
X4480Y46200D2*
X6319D1*
X9185D2*
X11119D1*
X13638D2*
X14162D1*
X18904D2*
X24112D1*
X35095D2*
X36760D1*
X39650D2*
X52920D1*
X55216D2*
X59416D1*
X61712D2*
X63905D1*
X66201D2*
X67666D1*
X69959D2*
X75834D1*
X78130D2*
X80729D1*
X83955D2*
X85604D1*
X88521D2*
X90901D1*
X4480Y45951D2*
X6073D1*
X9130D2*
X11233D1*
X13751D2*
X14190D1*
X18697D2*
X24100D1*
X35056D2*
X36760D1*
X39837D2*
X52920D1*
X55216D2*
X59416D1*
X61712D2*
X63905D1*
X66201D2*
X67666D1*
X69959D2*
X75834D1*
X78130D2*
X79170D1*
X83705D2*
X85350D1*
X88505D2*
X90901D1*
X4480Y45703D2*
X5823D1*
X9013D2*
X11350D1*
X13865D2*
X14213D1*
X18697D2*
X24100D1*
X35056D2*
X36760D1*
X39939D2*
X52920D1*
X55216D2*
X59416D1*
X61712D2*
X63905D1*
X66201D2*
X67666D1*
X69959D2*
X75768D1*
X78130D2*
X78819D1*
X83455D2*
X85096D1*
X88427D2*
X90901D1*
X4480Y45454D2*
X5573D1*
X8798D2*
X11463D1*
X13978D2*
X14237D1*
X18697D2*
X24100D1*
X35056D2*
X36760D1*
X39978D2*
X52920D1*
X56130D2*
X59416D1*
X61712D2*
X63905D1*
X66201D2*
X67666D1*
X69959D2*
X75522D1*
X78130D2*
X78569D1*
X83209D2*
X84838D1*
X88275D2*
X90901D1*
X4480Y45205D2*
X5326D1*
X8548D2*
X11576D1*
X14091D2*
X14264D1*
X18697D2*
X24100D1*
X32419D2*
X32764D1*
X35056D2*
X36776D1*
X39978D2*
X52920D1*
X56400D2*
X59416D1*
X61712D2*
X63905D1*
X66201D2*
X67666D1*
X69959D2*
X75272D1*
X78123D2*
X78319D1*
X82959D2*
X84584D1*
X87998D2*
X90901D1*
X4480Y44956D2*
X5076D1*
X8302D2*
X11690D1*
X18697D2*
X24100D1*
X32173D2*
X32764D1*
X35056D2*
X36854D1*
X39978D2*
X52920D1*
X56544D2*
X59416D1*
X61712D2*
X63905D1*
X66201D2*
X67666D1*
X69959D2*
X75022D1*
X82709D2*
X84330D1*
X87595D2*
X90901D1*
X4480Y44708D2*
X4850D1*
X8052D2*
X11803D1*
X18697D2*
X24100D1*
X31923D2*
X32764D1*
X39978D2*
X52920D1*
X56619D2*
X59416D1*
X61712D2*
X63905D1*
X66201D2*
X67666D1*
X69959D2*
X74776D1*
X82462D2*
X84073D1*
X87341D2*
X90901D1*
X4480Y44459D2*
X4717D1*
X7802D2*
X11916D1*
X18697D2*
X23221D1*
X23892D2*
X24100D1*
X31673D2*
X32764D1*
X39978D2*
X52920D1*
X56634D2*
X59416D1*
X61712D2*
X63905D1*
X66201D2*
X67666D1*
X69959D2*
X74526D1*
X82212D2*
X83819D1*
X87084D2*
X90901D1*
X4480Y44210D2*
X4651D1*
X7556D2*
X12030D1*
X18697D2*
X22893D1*
X31474D2*
X32764D1*
X39978D2*
X52963D1*
X56634D2*
X59416D1*
X61712D2*
X63905D1*
X66201D2*
X67666D1*
X69959D2*
X74276D1*
X81962D2*
X83565D1*
X86830D2*
X90901D1*
X4480Y43962D2*
X4639D1*
X8744D2*
X12143D1*
X18697D2*
X22764D1*
X31474D2*
X32764D1*
X39978D2*
X53069D1*
X56634D2*
X59416D1*
X61712D2*
X63147D1*
X66607D2*
X67666D1*
X69959D2*
X74030D1*
X81666D2*
X83311D1*
X86576D2*
X86967D1*
X87783D2*
X90901D1*
X4480Y43713D2*
X4639D1*
X9005D2*
X12256D1*
X18697D2*
X22725D1*
X31474D2*
X32764D1*
X39978D2*
X53260D1*
X56634D2*
X59416D1*
X61712D2*
X62643D1*
X67111D2*
X67666D1*
X69959D2*
X71405D1*
X71931D2*
X73780D1*
X86318D2*
X86569D1*
X88181D2*
X90901D1*
X4480Y43464D2*
X4639D1*
X9251D2*
X12369D1*
X18697D2*
X22764D1*
X31470D2*
X32772D1*
X39978D2*
X53655D1*
X56634D2*
X57877D1*
X59001D2*
X59416D1*
X61712D2*
X62428D1*
X67326D2*
X67666D1*
X69959D2*
X71026D1*
X72310D2*
X73604D1*
X86064D2*
X86323D1*
X88373D2*
X90901D1*
X4480Y43216D2*
X4639D1*
X9501D2*
X12432D1*
X18697D2*
X22897D1*
X31416D2*
X32834D1*
X39978D2*
X42483D1*
X43623D2*
X45733D1*
X46873D2*
X48979D1*
X50119D2*
X54338D1*
X56634D2*
X57690D1*
X59189D2*
X59416D1*
X61712D2*
X62311D1*
X67443D2*
X67666D1*
X69959D2*
X70885D1*
X72451D2*
X73506D1*
X85810D2*
X86073D1*
X88478D2*
X90901D1*
X4480Y42967D2*
X4639D1*
X9751D2*
X12432D1*
X18697D2*
X23225D1*
X23888D2*
X24100D1*
X31298D2*
X32967D1*
X39978D2*
X42178D1*
X43927D2*
X45424D1*
X47177D2*
X48674D1*
X50423D2*
X54338D1*
X56634D2*
X57616D1*
X59263D2*
X59420D1*
X61712D2*
X62256D1*
X67494D2*
X67662D1*
X69959D2*
X70834D1*
X72501D2*
X73475D1*
X85552D2*
X85823D1*
X88521D2*
X90901D1*
X4480Y42718D2*
X4639D1*
X9998D2*
X12432D1*
X18697D2*
X24100D1*
X31080D2*
X33205D1*
X39978D2*
X42014D1*
X44091D2*
X45264D1*
X47337D2*
X48510D1*
X50587D2*
X54350D1*
X56623D2*
X57619D1*
X59259D2*
X59420D1*
X61712D2*
X62264D1*
X67490D2*
X67661D1*
X69959D2*
X70866D1*
X72470D2*
X73494D1*
X85298D2*
X85576D1*
X88505D2*
X90901D1*
X4480Y42470D2*
X4639D1*
X6935D2*
X7069D1*
X10248D2*
X12432D1*
X18697D2*
X24100D1*
X31048D2*
X33143D1*
X39978D2*
X41932D1*
X44177D2*
X45178D1*
X47423D2*
X48428D1*
X50673D2*
X54412D1*
X56564D2*
X57709D1*
X59169D2*
X59416D1*
X61712D2*
X62323D1*
X67427D2*
X67666D1*
X69959D2*
X70987D1*
X72349D2*
X73576D1*
X85044D2*
X85326D1*
X88435D2*
X90901D1*
X4480Y42221D2*
X4639D1*
X6935D2*
X7280D1*
X10498D2*
X12432D1*
X18697D2*
X24100D1*
X31279D2*
X32932D1*
X39978D2*
X41905D1*
X44201D2*
X45155D1*
X47451D2*
X48401D1*
X50697D2*
X54541D1*
X56431D2*
X57924D1*
X58955D2*
X59416D1*
X61712D2*
X62455D1*
X67298D2*
X67666D1*
X69959D2*
X71280D1*
X72056D2*
X73737D1*
X79306D2*
X79518D1*
X84791D2*
X85076D1*
X88287D2*
X90901D1*
X4480Y41972D2*
X4639D1*
X6935D2*
X7526D1*
X10744D2*
X12432D1*
X18697D2*
X24100D1*
X31408D2*
X32819D1*
X39978D2*
X41936D1*
X44169D2*
X45186D1*
X47419D2*
X48432D1*
X50666D2*
X54780D1*
X58716D2*
X59416D1*
X61712D2*
X62694D1*
X69959D2*
X71162D1*
X79306D2*
X79694D1*
X84533D2*
X84830D1*
X88052D2*
X90901D1*
X4480Y41724D2*
X4639D1*
X6935D2*
X7776D1*
X10994D2*
X12432D1*
X18697D2*
X24100D1*
X31466D2*
X32768D1*
X39978D2*
X42030D1*
X44076D2*
X45276D1*
X47326D2*
X48526D1*
X50572D2*
X54721D1*
X59205D2*
X59416D1*
X61712D2*
X65588D1*
X69959D2*
X70823D1*
X79306D2*
X79951D1*
X87802D2*
X90901D1*
X4480Y41475D2*
X4639D1*
X6935D2*
X8026D1*
X11244D2*
X12432D1*
X18697D2*
X23155D1*
X23959D2*
X24108D1*
X31470D2*
X32772D1*
X39970D2*
X42201D1*
X43904D2*
X45451D1*
X47154D2*
X48698D1*
X50400D2*
X54510D1*
X61712D2*
X62830D1*
X63970D2*
X65377D1*
X69959D2*
X70647D1*
X79306D2*
X79655D1*
X87556D2*
X90901D1*
X4480Y41226D2*
X4639D1*
X6935D2*
X8272D1*
X11490D2*
X12432D1*
X18697D2*
X22873D1*
X31416D2*
X32838D1*
X39904D2*
X42537D1*
X43572D2*
X45705D1*
X46896D2*
X49034D1*
X50068D2*
X54393D1*
X61712D2*
X62647D1*
X64154D2*
X65260D1*
X69959D2*
X70553D1*
X79306D2*
X79498D1*
X87306D2*
X90901D1*
X4480Y40977D2*
X4639D1*
X6935D2*
X8522D1*
X11740D2*
X12432D1*
X18697D2*
X22752D1*
X31294D2*
X32971D1*
X39771D2*
X45705D1*
X46896D2*
X54342D1*
X61712D2*
X62573D1*
X64228D2*
X65209D1*
X69959D2*
X70522D1*
X87060D2*
X90901D1*
X4480Y40729D2*
X4639D1*
X6935D2*
X7366D1*
X11990D2*
X12432D1*
X18697D2*
X22725D1*
X31076D2*
X33213D1*
X39529D2*
X45705D1*
X46896D2*
X54350D1*
X61712D2*
X62580D1*
X64216D2*
X65217D1*
X69951D2*
X70545D1*
X86810D2*
X87014D1*
X87736D2*
X90901D1*
X4480Y40480D2*
X4639D1*
X6935D2*
X7116D1*
X12236D2*
X12467D1*
X18662D2*
X22776D1*
X24337D2*
X25041D1*
X31052D2*
X33139D1*
X37634D2*
X45705D1*
X46896D2*
X54412D1*
X61712D2*
X62674D1*
X64126D2*
X65280D1*
X69884D2*
X70627D1*
X88166D2*
X90901D1*
X4480Y40231D2*
X4639D1*
X9111D2*
X9271D1*
X18564D2*
X22920D1*
X24189D2*
X26420D1*
X31283D2*
X32928D1*
X37845D2*
X45705D1*
X46896D2*
X54545D1*
X61712D2*
X62893D1*
X63908D2*
X65412D1*
X69755D2*
X70787D1*
X79306D2*
X79522D1*
X88365D2*
X90901D1*
X4480Y39983D2*
X4639D1*
X9177D2*
X9518D1*
X14412D2*
X14729D1*
X16396D2*
X16713D1*
X18380D2*
X23315D1*
X23794D2*
X26295D1*
X31408D2*
X32815D1*
X37959D2*
X45705D1*
X47060D2*
X54787D1*
X61712D2*
X63100D1*
X69513D2*
X71088D1*
X79271D2*
X79698D1*
X88474D2*
X90901D1*
X4480Y39734D2*
X4639D1*
X9189D2*
X9764D1*
X16041D2*
X17069D1*
X18025D2*
X26237D1*
X31466D2*
X32768D1*
X38005D2*
X45733D1*
X47306D2*
X57670D1*
X61712D2*
X62631D1*
X67123D2*
X70819D1*
X79173D2*
X79944D1*
X88521D2*
X90901D1*
X4480Y39485D2*
X4639D1*
X9142D2*
X10014D1*
X15376D2*
X26233D1*
X31470D2*
X32776D1*
X37998D2*
X45889D1*
X47556D2*
X54912D1*
X56060D2*
X57459D1*
X61712D2*
X62420D1*
X67334D2*
X70643D1*
X78994D2*
X79651D1*
X88509D2*
X90901D1*
X4480Y39237D2*
X4639D1*
X9029D2*
X10264D1*
X15626D2*
X26287D1*
X31412D2*
X32838D1*
X37935D2*
X46139D1*
X47806D2*
X54729D1*
X56244D2*
X57346D1*
X61705D2*
X62307D1*
X67447D2*
X70553D1*
X78748D2*
X79494D1*
X88439D2*
X90901D1*
X4480Y38988D2*
X4639D1*
X6935D2*
X7260D1*
X8826D2*
X10510D1*
X15873D2*
X26412D1*
X31291D2*
X32975D1*
X37798D2*
X46389D1*
X48052D2*
X54659D1*
X56314D2*
X57295D1*
X61646D2*
X62256D1*
X67498D2*
X70522D1*
X78498D2*
X79416D1*
X88298D2*
X90901D1*
X4480Y38739D2*
X4639D1*
X6935D2*
X7701D1*
X8384D2*
X10760D1*
X16123D2*
X26635D1*
X31068D2*
X33221D1*
X37552D2*
X46635D1*
X48302D2*
X54670D1*
X56302D2*
X57303D1*
X61521D2*
X62264D1*
X67490D2*
X70545D1*
X78248D2*
X79393D1*
X88068D2*
X90901D1*
X4480Y38491D2*
X4639D1*
X6935D2*
X11010D1*
X16373D2*
X27205D1*
X30498D2*
X46885D1*
X48552D2*
X54764D1*
X56212D2*
X57366D1*
X61298D2*
X62326D1*
X67423D2*
X70631D1*
X78001D2*
X79428D1*
X87826D2*
X90901D1*
X4480Y38242D2*
X4639D1*
X6935D2*
X11256D1*
X16591D2*
X47135D1*
X48798D2*
X54987D1*
X55986D2*
X57502D1*
X61052D2*
X62463D1*
X67291D2*
X70791D1*
X77751D2*
X79526D1*
X87580D2*
X90901D1*
X4480Y37993D2*
X4639D1*
X6935D2*
X11506D1*
X16720D2*
X17116D1*
X18138D2*
X47381D1*
X49048D2*
X57744D1*
X60787D2*
X62705D1*
X67044D2*
X71096D1*
X77443D2*
X79705D1*
X87330D2*
X90901D1*
X4480Y37745D2*
X4639D1*
X6935D2*
X11823D1*
X18474D2*
X23346D1*
X23923D2*
X47631D1*
X49294D2*
X80057D1*
X86826D2*
X90901D1*
X4480Y37496D2*
X4639D1*
X6935D2*
X12823D1*
X18650D2*
X22987D1*
X24283D2*
X47881D1*
X49544D2*
X90901D1*
X4480Y37247D2*
X4639D1*
X6935D2*
X12709D1*
X18744D2*
X22846D1*
X24423D2*
X48127D1*
X49794D2*
X90901D1*
X4480Y36998D2*
X4639D1*
X6935D2*
X12674D1*
X18775D2*
X22803D1*
X24466D2*
X48377D1*
X50041D2*
X90901D1*
X4480Y36750D2*
X4639D1*
X6935D2*
X12674D1*
X18775D2*
X22838D1*
X24435D2*
X48627D1*
X50291D2*
X90901D1*
X4480Y36501D2*
X4639D1*
X6935D2*
X12674D1*
X18775D2*
X22959D1*
X24310D2*
X48873D1*
X50541D2*
X90901D1*
X4480Y36252D2*
X4639D1*
X6935D2*
X12674D1*
X18775D2*
X23264D1*
X24005D2*
X49123D1*
X50787D2*
X90901D1*
X4480Y36004D2*
X4639D1*
X6935D2*
X12674D1*
X18775D2*
X49373D1*
X51037D2*
X90901D1*
X4480Y35755D2*
X4639D1*
X7064D2*
X12674D1*
X18775D2*
X49619D1*
X51287D2*
X54326D1*
X64310D2*
X90901D1*
X4480Y35506D2*
X4639D1*
X7314D2*
X12674D1*
X18775D2*
X40643D1*
X47263D2*
X49869D1*
X51533D2*
X54143D1*
X64564D2*
X90901D1*
X4480Y35258D2*
X4651D1*
X7560D2*
X12674D1*
X18775D2*
X40397D1*
X47513D2*
X50119D1*
X51783D2*
X54104D1*
X64814D2*
X90901D1*
X4480Y35009D2*
X4717D1*
X7810D2*
X12674D1*
X18775D2*
X34502D1*
X47759D2*
X50366D1*
X52033D2*
X54186D1*
X65064D2*
X90901D1*
X4480Y34760D2*
X4854D1*
X8060D2*
X12674D1*
X18775D2*
X23268D1*
X24001D2*
X34256D1*
X48009D2*
X50616D1*
X52279D2*
X54494D1*
X65310D2*
X90901D1*
X4480Y34512D2*
X5084D1*
X8306D2*
X12674D1*
X18775D2*
X22963D1*
X24306D2*
X34006D1*
X48259D2*
X50866D1*
X52529D2*
X63897D1*
X65560D2*
X90901D1*
X4480Y34263D2*
X5330D1*
X8556D2*
X12674D1*
X18775D2*
X22838D1*
X24431D2*
X26897D1*
X27853D2*
X29850D1*
X30806D2*
X33377D1*
X48505D2*
X51112D1*
X59943D2*
X64143D1*
X65810D2*
X90901D1*
X4480Y34014D2*
X5580D1*
X8806D2*
X12674D1*
X18775D2*
X22803D1*
X24466D2*
X26659D1*
X28091D2*
X29612D1*
X31044D2*
X33174D1*
X35072D2*
X36127D1*
X37599D2*
X38057D1*
X48755D2*
X51362D1*
X60193D2*
X64393D1*
X66056D2*
X90901D1*
X4480Y33766D2*
X5830D1*
X9052D2*
X12709D1*
X18775D2*
X22846D1*
X24423D2*
X26561D1*
X28189D2*
X29514D1*
X31142D2*
X33088D1*
X34822D2*
X36041D1*
X37685D2*
X38057D1*
X49005D2*
X51612D1*
X60439D2*
X64643D1*
X66306D2*
X71534D1*
X71802D2*
X74487D1*
X74755D2*
X90901D1*
X4480Y33517D2*
X6076D1*
X9302D2*
X12823D1*
X18775D2*
X22987D1*
X24283D2*
X26545D1*
X28205D2*
X29498D1*
X31240D2*
X33088D1*
X34736D2*
X36041D1*
X37685D2*
X38057D1*
X60689D2*
X62869D1*
X63931D2*
X64889D1*
X66884D2*
X71053D1*
X72283D2*
X74006D1*
X75236D2*
X80233D1*
X80849D2*
X83186D1*
X83802D2*
X90901D1*
X4480Y33268D2*
X6326D1*
X18775D2*
X23338D1*
X23931D2*
X26612D1*
X28138D2*
X29565D1*
X31486D2*
X33166D1*
X34654D2*
X36119D1*
X37607D2*
X38057D1*
X60830D2*
X62662D1*
X64138D2*
X65139D1*
X67087D2*
X70893D1*
X72443D2*
X73846D1*
X75392D2*
X79889D1*
X81193D2*
X82842D1*
X84146D2*
X90901D1*
X4480Y33019D2*
X6576D1*
X18775D2*
X26784D1*
X27966D2*
X29737D1*
X31736D2*
X33362D1*
X34459D2*
X36315D1*
X37412D2*
X38057D1*
X59259D2*
X59522D1*
X60845D2*
X62580D1*
X64220D2*
X65389D1*
X67173D2*
X70838D1*
X72498D2*
X73791D1*
X75451D2*
X79752D1*
X81330D2*
X82701D1*
X84283D2*
X90901D1*
X4480Y32771D2*
X6823D1*
X18775D2*
X30319D1*
X31966D2*
X38057D1*
X59263D2*
X59655D1*
X60845D2*
X62576D1*
X64224D2*
X65530D1*
X67177D2*
X70858D1*
X72478D2*
X73811D1*
X75427D2*
X79709D1*
X81373D2*
X82662D1*
X84326D2*
X90901D1*
X4480Y32522D2*
X7073D1*
X18775D2*
X30569D1*
X32052D2*
X38057D1*
X59185D2*
X59655D1*
X60845D2*
X62655D1*
X64146D2*
X65608D1*
X67099D2*
X70967D1*
X72369D2*
X73920D1*
X75322D2*
X79744D1*
X81337D2*
X82576D1*
X84291D2*
X90901D1*
X4480Y32273D2*
X7323D1*
X18771D2*
X30819D1*
X32056D2*
X38057D1*
X58990D2*
X59655D1*
X60845D2*
X62850D1*
X63951D2*
X65803D1*
X66904D2*
X71229D1*
X72107D2*
X74026D1*
X75216D2*
X79873D1*
X81209D2*
X82326D1*
X84162D2*
X90901D1*
X4480Y32025D2*
X7569D1*
X18720D2*
X30862D1*
X32056D2*
X37104D1*
X37431D2*
X38057D1*
X58255D2*
X59655D1*
X60845D2*
X74026D1*
X75216D2*
X80182D1*
X80896D2*
X82076D1*
X83849D2*
X90901D1*
X4480Y31776D2*
X7819D1*
X18603D2*
X30862D1*
X37763D2*
X38057D1*
X58009D2*
X59655D1*
X60845D2*
X74026D1*
X75216D2*
X81830D1*
X83189D2*
X90901D1*
X4480Y31527D2*
X8069D1*
X18392D2*
X30862D1*
X37841D2*
X38057D1*
X57759D2*
X59655D1*
X60845D2*
X74026D1*
X75216D2*
X81580D1*
X82939D2*
X90901D1*
X4480Y31279D2*
X8553D1*
X17912D2*
X30905D1*
X37802D2*
X38057D1*
X57509D2*
X59655D1*
X60845D2*
X74026D1*
X75294D2*
X81330D1*
X82689D2*
X90901D1*
X4480Y31030D2*
X10909D1*
X18802D2*
X23600D1*
X24279D2*
X31096D1*
X37595D2*
X38057D1*
X57263D2*
X59655D1*
X60845D2*
X74030D1*
X75541D2*
X81084D1*
X82443D2*
X90901D1*
X4480Y30781D2*
X8420D1*
X9462D2*
X10662D1*
X19009D2*
X23334D1*
X24544D2*
X38057D1*
X57013D2*
X59655D1*
X60845D2*
X74135D1*
X75736D2*
X80834D1*
X82193D2*
X90901D1*
X4480Y30533D2*
X8272D1*
X9611D2*
X10412D1*
X19033D2*
X22401D1*
X22923D2*
X23244D1*
X24634D2*
X24959D1*
X25482D2*
X38057D1*
X56763D2*
X59655D1*
X60845D2*
X74373D1*
X75787D2*
X80584D1*
X81943D2*
X90901D1*
X4480Y30284D2*
X7174D1*
X11271D2*
X14655D1*
X19033D2*
X22076D1*
X25802D2*
X38057D1*
X56517D2*
X59655D1*
X60845D2*
X74623D1*
X75724D2*
X80338D1*
X81697D2*
X90901D1*
X4480Y30035D2*
X7002D1*
X11025D2*
X14494D1*
X19033D2*
X21971D1*
X25908D2*
X38057D1*
X56267D2*
X59655D1*
X60845D2*
X74916D1*
X75466D2*
X80088D1*
X81447D2*
X90901D1*
X4480Y29787D2*
X6955D1*
X8365D2*
X8491D1*
X9388D2*
X9518D1*
X10923D2*
X14455D1*
X15865D2*
X16014D1*
X16861D2*
X17013D1*
X19033D2*
X21963D1*
X23357D2*
X23690D1*
X24189D2*
X24526D1*
X25916D2*
X38057D1*
X56017D2*
X59655D1*
X60845D2*
X79838D1*
X81197D2*
X90901D1*
X4480Y29538D2*
X7002D1*
X8318D2*
X9561D1*
X10876D2*
X14510D1*
X15810D2*
X17069D1*
X19033D2*
X22057D1*
X23263D2*
X24616D1*
X25822D2*
X38057D1*
X55771D2*
X59655D1*
X60845D2*
X79592D1*
X80951D2*
X90901D1*
X4480Y29289D2*
X6940D1*
X8150D2*
X9733D1*
X10939D2*
X14428D1*
X15626D2*
X17252D1*
X19033D2*
X19600D1*
X20298D2*
X21877D1*
X23166D2*
X24713D1*
X26001D2*
X38057D1*
X55521D2*
X59655D1*
X60845D2*
X79342D1*
X80701D2*
X90901D1*
X4480Y29040D2*
X6834D1*
X8212D2*
X9666D1*
X11048D2*
X14330D1*
X15716D2*
X17162D1*
X19033D2*
X19397D1*
X20501D2*
X21819D1*
X23228D2*
X24655D1*
X26060D2*
X38057D1*
X40451D2*
X40631D1*
X55271D2*
X59655D1*
X60845D2*
X79092D1*
X80451D2*
X90901D1*
X4480Y28792D2*
X6826D1*
X8220D2*
X9662D1*
X11052D2*
X14330D1*
X15716D2*
X17166D1*
X19033D2*
X19354D1*
X20544D2*
X21854D1*
X23193D2*
X24690D1*
X26025D2*
X38057D1*
X40451D2*
X40623D1*
X55025D2*
X59655D1*
X60845D2*
X78846D1*
X80205D2*
X90901D1*
X4480Y28543D2*
X6920D1*
X8126D2*
X9756D1*
X10959D2*
X14432D1*
X15634D2*
X17244D1*
X19033D2*
X19354D1*
X20544D2*
X22002D1*
X23220D2*
X24659D1*
X25876D2*
X38057D1*
X40451D2*
X40741D1*
X54775D2*
X59655D1*
X60845D2*
X78596D1*
X79955D2*
X90901D1*
X4480Y28294D2*
X7018D1*
X8306D2*
X9576D1*
X10865D2*
X12002D1*
X12974D2*
X14506D1*
X15814D2*
X17069D1*
X19033D2*
X19354D1*
X20544D2*
X21979D1*
X23341D2*
X24537D1*
X25904D2*
X38057D1*
X40451D2*
X59655D1*
X60845D2*
X78346D1*
X79705D2*
X90901D1*
X4480Y28046D2*
X6955D1*
X8365D2*
X8536D1*
X9345D2*
X9514D1*
X10923D2*
X11897D1*
X13076D2*
X14455D1*
X15865D2*
X16006D1*
X16873D2*
X17015D1*
X19033D2*
X19354D1*
X20544D2*
X21959D1*
X25919D2*
X38057D1*
X40451D2*
X43565D1*
X44224D2*
X48170D1*
X48783D2*
X59565D1*
X60845D2*
X78100D1*
X79459D2*
X90901D1*
X4480Y27797D2*
X6991D1*
X10888D2*
X11893D1*
X13084D2*
X14498D1*
X19033D2*
X19354D1*
X20544D2*
X22041D1*
X26099D2*
X38057D1*
X49005D2*
X59319D1*
X60837D2*
X77850D1*
X79209D2*
X90901D1*
X4480Y27548D2*
X7143D1*
X11044D2*
X11893D1*
X13084D2*
X14662D1*
X19033D2*
X19354D1*
X20544D2*
X22276D1*
X23044D2*
X23237D1*
X24642D2*
X24834D1*
X26349D2*
X38057D1*
X60728D2*
X77600D1*
X78959D2*
X90901D1*
X4480Y27300D2*
X8260D1*
X11072D2*
X11893D1*
X13084D2*
X15768D1*
X17115D2*
X18076D1*
X19033D2*
X19354D1*
X20544D2*
X23303D1*
X24580D2*
X25491D1*
X26599D2*
X38057D1*
X60486D2*
X77354D1*
X78712D2*
X90901D1*
X4480Y27051D2*
X8389D1*
X9490D2*
X10022D1*
X10974D2*
X11893D1*
X13084D2*
X15909D1*
X16974D2*
X18076D1*
X19033D2*
X19354D1*
X20544D2*
X23506D1*
X24376D2*
X25737D1*
X26845D2*
X38057D1*
X60236D2*
X77104D1*
X78462D2*
X90901D1*
X4480Y26802D2*
X11893D1*
X13084D2*
X18076D1*
X19033D2*
X19354D1*
X20544D2*
X25987D1*
X27095D2*
X38057D1*
X78212D2*
X90901D1*
X4480Y26554D2*
X11893D1*
X13084D2*
X18076D1*
X19033D2*
X19354D1*
X20544D2*
X26237D1*
X27345D2*
X38057D1*
X77966D2*
X90901D1*
X4480Y26305D2*
X11893D1*
X13084D2*
X18076D1*
X19033D2*
X19354D1*
X20544D2*
X26483D1*
X27591D2*
X38057D1*
X77716D2*
X90901D1*
X4480Y26056D2*
X11893D1*
X13084D2*
X18076D1*
X19033D2*
X19354D1*
X20544D2*
X26733D1*
X27841D2*
X38057D1*
X77466D2*
X90901D1*
X4480Y25808D2*
X11893D1*
X13084D2*
X18076D1*
X19033D2*
X19354D1*
X20544D2*
X26983D1*
X28091D2*
X38057D1*
X45697D2*
X45826D1*
X46146D2*
X90901D1*
X4480Y25559D2*
X11893D1*
X13084D2*
X18076D1*
X19033D2*
X19354D1*
X20611D2*
X27229D1*
X37541D2*
X38057D1*
X45806D2*
X90901D1*
X4480Y25310D2*
X11893D1*
X13084D2*
X18076D1*
X19033D2*
X19358D1*
X20861D2*
X27479D1*
X37697D2*
X38057D1*
X45814D2*
X90901D1*
X4480Y25061D2*
X11893D1*
X13084D2*
X18076D1*
X19033D2*
X19455D1*
X21111D2*
X27756D1*
X37705D2*
X38057D1*
X42841D2*
X44619D1*
X45814D2*
X47565D1*
X47974D2*
X50123D1*
X50533D2*
X90901D1*
X4480Y24813D2*
X11893D1*
X13084D2*
X18076D1*
X19033D2*
X19694D1*
X21357D2*
X36905D1*
X37705D2*
X38057D1*
X42841D2*
X43143D1*
X43970D2*
X44619D1*
X45814D2*
X47264D1*
X50834D2*
X90901D1*
X4480Y24564D2*
X11893D1*
X13084D2*
X18076D1*
X19033D2*
X19944D1*
X21607D2*
X36905D1*
X42841D2*
X42998D1*
X44115D2*
X44619D1*
X45814D2*
X47194D1*
X50904D2*
X90901D1*
X4480Y24315D2*
X11893D1*
X13084D2*
X18076D1*
X19033D2*
X20190D1*
X21857D2*
X36905D1*
X42841D2*
X42991D1*
X44123D2*
X44619D1*
X45814D2*
X47241D1*
X50857D2*
X90901D1*
X4480Y24067D2*
X11893D1*
X13084D2*
X18076D1*
X19033D2*
X20440D1*
X22103D2*
X36905D1*
X42841D2*
X43108D1*
X44001D2*
X44619D1*
X45814D2*
X47463D1*
X48076D2*
X50022D1*
X50634D2*
X90901D1*
X4480Y23818D2*
X11893D1*
X13084D2*
X18076D1*
X19033D2*
X20690D1*
X22353D2*
X28584D1*
X29466D2*
X35201D1*
X35611D2*
X36905D1*
X42841D2*
X43159D1*
X43955D2*
X44619D1*
X45814D2*
X90901D1*
X4480Y23569D2*
X11893D1*
X13084D2*
X18076D1*
X19033D2*
X20936D1*
X22603D2*
X28448D1*
X29603D2*
X34869D1*
X35923D2*
X36905D1*
X42841D2*
X43159D1*
X43955D2*
X44619D1*
X45814D2*
X90901D1*
X4480Y23321D2*
X11893D1*
X13084D2*
X18076D1*
X19033D2*
X21186D1*
X22849D2*
X28432D1*
X29623D2*
X34619D1*
X36001D2*
X36905D1*
X38857D2*
X39241D1*
X42841D2*
X43159D1*
X43955D2*
X44619D1*
X45814D2*
X90901D1*
X4480Y23072D2*
X11893D1*
X13084D2*
X18076D1*
X19033D2*
X21436D1*
X23099D2*
X28432D1*
X29623D2*
X34369D1*
X35966D2*
X36905D1*
X38857D2*
X39241D1*
X42841D2*
X43159D1*
X43955D2*
X44619D1*
X45814D2*
X90901D1*
X4480Y22823D2*
X11893D1*
X13084D2*
X18076D1*
X19033D2*
X21682D1*
X23349D2*
X28432D1*
X29623D2*
X34123D1*
X35787D2*
X36905D1*
X38857D2*
X39241D1*
X42841D2*
X43159D1*
X43955D2*
X44619D1*
X45814D2*
X90901D1*
X4480Y22575D2*
X11893D1*
X13084D2*
X18076D1*
X19033D2*
X21932D1*
X29623D2*
X33873D1*
X35537D2*
X36905D1*
X38857D2*
X39241D1*
X42814D2*
X43159D1*
X43955D2*
X44619D1*
X46255D2*
X90901D1*
X4480Y22326D2*
X11893D1*
X13084D2*
X18076D1*
X19033D2*
X22182D1*
X29619D2*
X33698D1*
X35291D2*
X36905D1*
X38857D2*
X39241D1*
X42658D2*
X43159D1*
X43955D2*
X44619D1*
X46548D2*
X90901D1*
X4480Y22077D2*
X11893D1*
X13084D2*
X18076D1*
X19033D2*
X22428D1*
X29623D2*
X33662D1*
X35041D2*
X36905D1*
X38857D2*
X39241D1*
X42064D2*
X43159D1*
X43955D2*
X44619D1*
X46744D2*
X90901D1*
X4480Y21829D2*
X11893D1*
X13084D2*
X16326D1*
X16798D2*
X18076D1*
X19033D2*
X22342D1*
X29619D2*
X30252D1*
X31751D2*
X33662D1*
X34853D2*
X36905D1*
X42064D2*
X43159D1*
X43955D2*
X44670D1*
X46794D2*
X90901D1*
X4480Y21580D2*
X11741D1*
X13084D2*
X16053D1*
X19033D2*
X22119D1*
X29533D2*
X30135D1*
X32048D2*
X33662D1*
X34853D2*
X36905D1*
X42064D2*
X43159D1*
X46794D2*
X90901D1*
X4480Y21331D2*
X11491D1*
X13060D2*
X15987D1*
X19033D2*
X22065D1*
X23810D2*
X27881D1*
X29302D2*
X30143D1*
X32154D2*
X33662D1*
X34853D2*
X36905D1*
X42064D2*
X43159D1*
X46794D2*
X90901D1*
X4480Y21082D2*
X8170D1*
X8814D2*
X10670D1*
X12908D2*
X14014D1*
X14654D2*
X16041D1*
X19033D2*
X19842D1*
X20482D2*
X22065D1*
X23748D2*
X25655D1*
X26298D2*
X27881D1*
X29072D2*
X30291D1*
X31111D2*
X31358D1*
X32158D2*
X33662D1*
X34853D2*
X36905D1*
X42064D2*
X43159D1*
X46779D2*
X90901D1*
X4480Y20834D2*
X7717D1*
X9267D2*
X10217D1*
X12658D2*
X13557D1*
X15111D2*
X16057D1*
X19033D2*
X19385D1*
X20939D2*
X21885D1*
X23505D2*
X25198D1*
X26751D2*
X27698D1*
X29251D2*
X30979D1*
X32533D2*
X33479D1*
X35033D2*
X36905D1*
X42064D2*
X43159D1*
X46794D2*
X90901D1*
X4480Y20585D2*
X7510D1*
X9474D2*
X10010D1*
X12408D2*
X13350D1*
X15318D2*
X15850D1*
X19033D2*
X19177D1*
X21146D2*
X21678D1*
X23646D2*
X24994D1*
X26959D2*
X27494D1*
X29459D2*
X30776D1*
X32740D2*
X33276D1*
X35240D2*
X36905D1*
X42064D2*
X43159D1*
X46794D2*
X90901D1*
X4480Y20336D2*
X7397D1*
X9587D2*
X9897D1*
X12162D2*
X13237D1*
X15431D2*
X15737D1*
X21259D2*
X21565D1*
X23759D2*
X24881D1*
X27072D2*
X27381D1*
X29572D2*
X30662D1*
X32853D2*
X33162D1*
X35353D2*
X36905D1*
X42064D2*
X43159D1*
X46794D2*
X90901D1*
X4480Y20088D2*
X7350D1*
X9634D2*
X9850D1*
X12134D2*
X13190D1*
X15478D2*
X15690D1*
X21306D2*
X21518D1*
X23806D2*
X24830D1*
X27119D2*
X27330D1*
X29619D2*
X30612D1*
X32900D2*
X33112D1*
X35400D2*
X36905D1*
X42064D2*
X43159D1*
X46794D2*
X90901D1*
X4480Y19839D2*
X7358D1*
X9626D2*
X9858D1*
X12126D2*
X13198D1*
X15470D2*
X15698D1*
X21298D2*
X21526D1*
X23798D2*
X24838D1*
X27111D2*
X27338D1*
X29611D2*
X30619D1*
X32892D2*
X33119D1*
X35392D2*
X36905D1*
X42064D2*
X43159D1*
X46794D2*
X90901D1*
X4480Y19590D2*
X7420D1*
X9560D2*
X9920D1*
X12060D2*
X13264D1*
X15404D2*
X15764D1*
X21232D2*
X21592D1*
X23732D2*
X24905D1*
X27044D2*
X27405D1*
X29544D2*
X30686D1*
X32826D2*
X33186D1*
X35326D2*
X36905D1*
X42064D2*
X43159D1*
X46794D2*
X90901D1*
X4480Y19342D2*
X7557D1*
X9427D2*
X10057D1*
X11927D2*
X13401D1*
X15267D2*
X15901D1*
X19033D2*
X19229D1*
X21095D2*
X21729D1*
X23595D2*
X25041D1*
X26908D2*
X27541D1*
X29408D2*
X30823D1*
X32689D2*
X33323D1*
X35189D2*
X36905D1*
X42064D2*
X43159D1*
X46794D2*
X90901D1*
X4480Y19093D2*
X7807D1*
X9177D2*
X10307D1*
X11677D2*
X13647D1*
X15021D2*
X16147D1*
X19033D2*
X19475D1*
X20849D2*
X21975D1*
X23349D2*
X25291D1*
X26662D2*
X27791D1*
X29162D2*
X31073D1*
X32443D2*
X33573D1*
X34943D2*
X36905D1*
X42064D2*
X43159D1*
X46794D2*
X90901D1*
X4480Y18844D2*
X17576D1*
X19033D2*
X36905D1*
X42064D2*
X43159D1*
X46794D2*
X90901D1*
X4480Y18596D2*
X17576D1*
X19033D2*
X36905D1*
X42064D2*
X43159D1*
X46794D2*
X90901D1*
X4480Y18347D2*
X17576D1*
X19033D2*
X36905D1*
X42064D2*
X43159D1*
X46794D2*
X90901D1*
X4480Y18098D2*
X17576D1*
X19033D2*
X36905D1*
X42064D2*
X43159D1*
X46794D2*
X90901D1*
X4480Y17850D2*
X17576D1*
X19033D2*
X36905D1*
X42064D2*
X43159D1*
X46794D2*
X90901D1*
X4480Y17601D2*
X17576D1*
X19033D2*
X36905D1*
X42064D2*
X43159D1*
X46794D2*
X90901D1*
X4480Y17352D2*
X17576D1*
X19033D2*
X36905D1*
X42064D2*
X43159D1*
X46794D2*
X90901D1*
X4480Y17103D2*
X17576D1*
X19033D2*
X36905D1*
X42064D2*
X43159D1*
X46794D2*
X90901D1*
X4480Y16855D2*
X17576D1*
X19033D2*
X36905D1*
X42064D2*
X43159D1*
X46794D2*
X90901D1*
X4480Y16606D2*
X17576D1*
X19033D2*
X36905D1*
X42064D2*
X43159D1*
X46794D2*
X90901D1*
X4480Y16357D2*
X17576D1*
X19033D2*
X36905D1*
X42064D2*
X43159D1*
X46794D2*
X90901D1*
X4480Y16109D2*
X17494D1*
X19033D2*
X36905D1*
X42064D2*
X43159D1*
X46794D2*
X90901D1*
X4480Y15860D2*
X17401D1*
X19033D2*
X36905D1*
X42064D2*
X43159D1*
X46794D2*
X90901D1*
X4480Y15611D2*
X17432D1*
X19033D2*
X36920D1*
X42064D2*
X43201D1*
X46794D2*
X90901D1*
X4480Y15363D2*
X17616D1*
X19033D2*
X37100D1*
X42064D2*
X43424D1*
X46794D2*
X90901D1*
X4480Y15114D2*
X18076D1*
X19033D2*
X37350D1*
X41951D2*
X43674D1*
X46794D2*
X90901D1*
X4480Y14865D2*
X18076D1*
X19033D2*
X37600D1*
X41654D2*
X43920D1*
X46794D2*
X90901D1*
X4480Y14617D2*
X18076D1*
X19033D2*
X37846D1*
X41669D2*
X44170D1*
X46794D2*
X90901D1*
X4480Y14368D2*
X18076D1*
X19033D2*
X38194D1*
X41919D2*
X44420D1*
X46794D2*
X90901D1*
X4480Y14119D2*
X18076D1*
X19033D2*
X38479D1*
X42169D2*
X44479D1*
X46794D2*
X90901D1*
X4480Y13871D2*
X18076D1*
X19033D2*
X38573D1*
X42416D2*
X44573D1*
X53873D2*
X90901D1*
X4480Y13622D2*
X18076D1*
X19033D2*
X38619D1*
X42666D2*
X44619D1*
X54138D2*
X90901D1*
X4480Y13373D2*
X18076D1*
X19033D2*
X38491D1*
X54388D2*
X90901D1*
X4480Y13124D2*
X18076D1*
X19033D2*
X38479D1*
X54634D2*
X90901D1*
X4480Y12876D2*
X18076D1*
X19033D2*
X38573D1*
X54849D2*
X90901D1*
X4480Y12627D2*
X18076D1*
X19033D2*
X38623D1*
X46794D2*
X48272D1*
X49427D2*
X53467D1*
X54916D2*
X90901D1*
X4480Y12378D2*
X18076D1*
X19033D2*
X38494D1*
X46794D2*
X48334D1*
X49365D2*
X53717D1*
X54916D2*
X90901D1*
X4480Y12130D2*
X18076D1*
X19033D2*
X38479D1*
X46794D2*
X48451D1*
X49248D2*
X53721D1*
X54916D2*
X90901D1*
X4480Y11881D2*
X18076D1*
X19033D2*
X38569D1*
X46794D2*
X48451D1*
X49248D2*
X53721D1*
X54916D2*
X90901D1*
X4480Y11632D2*
X18076D1*
X19033D2*
X38631D1*
X46794D2*
X48451D1*
X49248D2*
X53721D1*
X54916D2*
X90901D1*
X4480Y11384D2*
X18076D1*
X19033D2*
X38494D1*
X48130D2*
X48451D1*
X49248D2*
X53721D1*
X54916D2*
X90901D1*
X4480Y11135D2*
X18076D1*
X19033D2*
X38475D1*
X48298D2*
X48451D1*
X49248D2*
X53721D1*
X54916D2*
X90901D1*
X4480Y10886D2*
X18076D1*
X19033D2*
X38565D1*
X48326D2*
X48451D1*
X49248D2*
X53721D1*
X54916D2*
X90901D1*
X4480Y10638D2*
X18076D1*
X19033D2*
X38635D1*
X48236D2*
X48451D1*
X49248D2*
X53721D1*
X54916D2*
X90901D1*
X4480Y10389D2*
X18076D1*
X45759D2*
X46069D1*
X47865D2*
X48451D1*
X49248D2*
X53721D1*
X54916D2*
X90901D1*
X4480Y10140D2*
X18076D1*
X45779D2*
X48451D1*
X49248D2*
X53721D1*
X54916D2*
X90901D1*
X4480Y9892D2*
X18084D1*
X45693D2*
X48451D1*
X49248D2*
X53721D1*
X54916D2*
X90901D1*
X4480Y9643D2*
X18241D1*
X43416D2*
X43838D1*
X44416D2*
X44838D1*
X45416D2*
X48451D1*
X49248D2*
X53721D1*
X54916D2*
X90901D1*
X4480Y9394D2*
X22096D1*
X34689D2*
X40530D1*
X41724D2*
X42139D1*
X42939D2*
X48451D1*
X49248D2*
X53721D1*
X54916D2*
X90901D1*
X4480Y9145D2*
X16381D1*
X16943D2*
X19576D1*
X20134D2*
X21994D1*
X34755D2*
X38889D1*
X41724D2*
X42139D1*
X42939D2*
X48451D1*
X49248D2*
X53721D1*
X54916D2*
X90901D1*
X4480Y8897D2*
X16139D1*
X17185D2*
X19323D1*
X20388D2*
X22018D1*
X34697D2*
X38776D1*
X41724D2*
X42139D1*
X42939D2*
X48451D1*
X49248D2*
X53721D1*
X54916D2*
X90901D1*
X4480Y8648D2*
X16084D1*
X17240D2*
X19260D1*
X20451D2*
X22166D1*
X34576D2*
X38768D1*
X41724D2*
X42139D1*
X42939D2*
X48451D1*
X49248D2*
X53721D1*
X54916D2*
X90901D1*
X4480Y8399D2*
X16151D1*
X17193D2*
X19260D1*
X20451D2*
X22166D1*
X34576D2*
X38768D1*
X41724D2*
X42139D1*
X42939D2*
X48451D1*
X49248D2*
X53721D1*
X54916D2*
X90901D1*
X4480Y8151D2*
X16264D1*
X17060D2*
X19260D1*
X20451D2*
X22166D1*
X34576D2*
X38768D1*
X41724D2*
X42139D1*
X42939D2*
X48451D1*
X49248D2*
X53721D1*
X54916D2*
X90901D1*
X4480Y7902D2*
X16264D1*
X17060D2*
X19260D1*
X20451D2*
X22166D1*
X34576D2*
X38768D1*
X41724D2*
X42139D1*
X42939D2*
X48451D1*
X49248D2*
X53721D1*
X54916D2*
X56674D1*
X57130D2*
X90901D1*
X4480Y7653D2*
X9905D1*
X12736D2*
X16264D1*
X17060D2*
X19260D1*
X20451D2*
X22166D1*
X34576D2*
X38768D1*
X41709D2*
X42139D1*
X42939D2*
X48451D1*
X49248D2*
X53721D1*
X54916D2*
X56393D1*
X60935D2*
X90901D1*
X4480Y7405D2*
X9541D1*
X13099D2*
X16264D1*
X17060D2*
X19260D1*
X20451D2*
X22166D1*
X34576D2*
X38768D1*
X41584D2*
X42139D1*
X42939D2*
X48338D1*
X49361D2*
X53721D1*
X54916D2*
X56326D1*
X61162D2*
X90901D1*
X4480Y7156D2*
X9291D1*
X13349D2*
X16264D1*
X17060D2*
X19260D1*
X20451D2*
X22166D1*
X34576D2*
X38768D1*
X41337D2*
X42139D1*
X42939D2*
X48272D1*
X49427D2*
X53721D1*
X54916D2*
X56377D1*
X61205D2*
X90901D1*
X4480Y6907D2*
X9041D1*
X13595D2*
X16264D1*
X17060D2*
X19260D1*
X20451D2*
X22166D1*
X34576D2*
X38772D1*
X41087D2*
X42139D1*
X42939D2*
X48326D1*
X49373D2*
X53721D1*
X54916D2*
X56608D1*
X57197D2*
X60405D1*
X61205D2*
X90901D1*
X4480Y6659D2*
X8319D1*
X13845D2*
X14112D1*
X14509D2*
X16264D1*
X17060D2*
X19260D1*
X20451D2*
X22166D1*
X34576D2*
X38873D1*
X40837D2*
X42139D1*
X42939D2*
X48561D1*
X49138D2*
X53721D1*
X55084D2*
X60405D1*
X61205D2*
X90901D1*
X5853Y6410D2*
X7772D1*
X15056D2*
X16065D1*
X17556D2*
X19260D1*
X20814D2*
X21819D1*
X34923D2*
X42139D1*
X42939D2*
X45155D1*
X46478D2*
X48905D1*
X50228D2*
X53752D1*
X55330D2*
X60405D1*
X61205D2*
X89530D1*
X6189Y6161D2*
X7553D1*
X15275D2*
X15842D1*
X17775D2*
X19100D1*
X21033D2*
X21600D1*
X35142D2*
X42139D1*
X42939D2*
X44815D1*
X46814D2*
X48565D1*
X50564D2*
X53912D1*
X55580D2*
X57686D1*
X59642D2*
X60037D1*
X61642D2*
X62037D1*
X62642D2*
X63037D1*
X63642D2*
X64037D1*
X64642D2*
X65037D1*
X65642D2*
X66037D1*
X66642D2*
X67037D1*
X67642D2*
X68037D1*
X68642D2*
X69037D1*
X69642D2*
X70037D1*
X70642D2*
X89190D1*
X6384Y5913D2*
X7432D1*
X15396D2*
X15725D1*
X17896D2*
X18979D1*
X21154D2*
X21479D1*
X35263D2*
X42139D1*
X42939D2*
X44619D1*
X47009D2*
X48369D1*
X50759D2*
X54162D1*
X55830D2*
X57686D1*
X70908D2*
X88994D1*
X6505Y5664D2*
X7377D1*
X15451D2*
X15670D1*
X17951D2*
X18924D1*
X21209D2*
X21424D1*
X35318D2*
X42139D1*
X42939D2*
X44498D1*
X47130D2*
X48248D1*
X50880D2*
X54412D1*
X56076D2*
X57686D1*
X70990D2*
X88873D1*
X6572Y5415D2*
X7377D1*
X15451D2*
X15670D1*
X17951D2*
X18928D1*
X21205D2*
X21428D1*
X35318D2*
X42139D1*
X42939D2*
X44432D1*
X47197D2*
X48182D1*
X50947D2*
X54659D1*
X56326D2*
X57686D1*
X70970D2*
X88807D1*
X6591Y5166D2*
X7440D1*
X15388D2*
X15729D1*
X17888D2*
X18987D1*
X21146D2*
X21487D1*
X35255D2*
X42139D1*
X42939D2*
X44412D1*
X47216D2*
X48162D1*
X50966D2*
X54909D1*
X70826D2*
X88787D1*
X6564Y4918D2*
X7565D1*
X15263D2*
X15858D1*
X17763D2*
X19116D1*
X21017D2*
X21616D1*
X35130D2*
X42139D1*
X42939D2*
X44440D1*
X47189D2*
X48190D1*
X50939D2*
X55159D1*
X70908D2*
X88815D1*
X6490Y4669D2*
X7799D1*
X15029D2*
X16088D1*
X17529D2*
X19346D1*
X20787D2*
X21846D1*
X34896D2*
X42030D1*
X43052D2*
X44518D1*
X47115D2*
X48268D1*
X50865D2*
X55405D1*
X70990D2*
X88893D1*
X9160Y39691D2*
X9139Y39568D1*
X9105Y39448D1*
X9057Y39332D1*
X8997Y39223D1*
X8925Y39121D1*
X8843Y39027D1*
X8750Y38943D1*
X8649Y38870D1*
X8540Y38809D1*
X8425Y38760D1*
X8305Y38724D1*
X8182Y38702D1*
X8057Y38694D1*
X7933Y38699D1*
X7809Y38719D1*
X7689Y38751D1*
X7573Y38798D1*
X7462Y38856D1*
X7359Y38927D1*
X7265Y39009D1*
X7180Y39100D1*
X7106Y39201D1*
X7043Y39309D1*
X6993Y39423D1*
X6956Y39543D1*
X6932Y39665D1*
X6922Y39790D1*
X6926Y39915D1*
X6944Y40038D1*
X6976Y40159D1*
X7020Y40276D1*
X7078Y40387D1*
X7147Y40491D1*
X7228Y40586D1*
X7319Y40672D1*
X7418Y40748D1*
X7526Y40811D1*
X7639Y40863D1*
X7758Y40901D1*
X7881Y40926D1*
X8005Y40938D1*
X8130Y40935D1*
X8254Y40919D1*
X8375Y40889D1*
X8492Y40845D1*
X8604Y40789D1*
X8709Y40721D1*
X8805Y40641D1*
X8892Y40552D1*
X8969Y40453D1*
X9034Y40346D1*
X9086Y40233D1*
X9126Y40115D1*
X9153Y39993D1*
X9167Y39816D1*
X9160Y39691D1*
X7291Y42234D2*
X7180Y42348D1*
X7106Y42449D1*
X7043Y42557D1*
X6993Y42671D1*
X6956Y42791D1*
X6932Y42913D1*
X6922Y43038D1*
X6926Y43163D1*
X6944Y43286D1*
X6976Y43407D1*
X7020Y43524D1*
X7078Y43635D1*
X7147Y43739D1*
X7228Y43834D1*
X7319Y43920D1*
X7418Y43996D1*
X7526Y44059D1*
X7639Y44111D1*
X7758Y44149D1*
X7881Y44174D1*
X8005Y44186D1*
X8130Y44183D1*
X8254Y44167D1*
X8375Y44137D1*
X8492Y44093D1*
X8604Y44037D1*
X8709Y43969D1*
X8805Y43889D1*
X12840Y39853D1*
X12917Y39854D1*
X12800Y39953D1*
X12715Y40045D1*
X12641Y40146D1*
X12578Y40254D1*
X12528Y40368D1*
X12491Y40488D1*
X12468Y40610D1*
X12457Y40886D1*
Y43343D1*
X12354Y43555D1*
X10964Y46598D1*
X10911Y46739D1*
X10799Y47132D1*
X10783Y47255D1*
X10781Y47380D1*
X10793Y47505D1*
X10819Y47627D1*
X10858Y47746D1*
X10910Y47859D1*
X10974Y47966D1*
X11050Y48066D1*
X11136Y48156D1*
X11232Y48236D1*
X11337Y48305D1*
X11448Y48362D1*
X11565Y48406D1*
X11686Y48437D1*
X11809Y48454D1*
X11934Y48458D1*
X12059Y48447D1*
X12181Y48423D1*
X12300Y48385D1*
X12415Y48334D1*
X12522Y48271D1*
X12623Y48197D1*
X12714Y48111D1*
X12795Y48016D1*
X12865Y47913D1*
X12923Y47802D1*
X13013Y47542D1*
X13058Y47417D1*
X14348Y44598D1*
X14121Y46887D1*
X14062Y47062D1*
X14038Y47185D1*
X14029Y47310D1*
X14037Y47478D1*
X14090Y47837D1*
X14127Y47956D1*
X14176Y48071D1*
X14238Y48180D1*
X14311Y48281D1*
X14395Y48373D1*
X14489Y48455D1*
X14592Y48527D1*
X14702Y48586D1*
X14818Y48633D1*
X14938Y48667D1*
X15061Y48687D1*
X15186Y48694D1*
X15311Y48686D1*
X15434Y48665D1*
X15554Y48630D1*
X15669Y48582D1*
X15778Y48521D1*
X15880Y48449D1*
X15973Y48366D1*
X16057Y48273D1*
X16129Y48171D1*
X16190Y48062D1*
X16238Y47947D1*
X16274Y47827D1*
X16298Y47682D1*
X16426Y46416D1*
X16433Y46541D1*
X16454Y46664D1*
X16488Y46784D1*
X16535Y46899D1*
X16595Y47009D1*
X16724Y47178D1*
X17575Y48098D1*
X17664Y48185D1*
X17763Y48261D1*
X17870Y48326D1*
X17983Y48378D1*
X18102Y48418D1*
X18224Y48444D1*
X18348Y48457D1*
X18473Y48456D1*
X18597Y48440D1*
X18719Y48411D1*
X18836Y48369D1*
X18948Y48314D1*
X19054Y48247D1*
X19151Y48169D1*
X19239Y48080D1*
X19316Y47982D1*
X19383Y47876D1*
X19436Y47763D1*
X19478Y47645D1*
X19505Y47523D1*
X19519Y47399D1*
Y47274D1*
X19506Y47150D1*
X19478Y47028D1*
X19437Y46910D1*
X19384Y46797D1*
X19318Y46691D1*
X19138Y46482D1*
X18669Y45974D1*
X18671Y43714D1*
Y40761D1*
X18664Y40636D1*
X18643Y40513D1*
X18609Y40393D1*
X18561Y40277D1*
X18501Y40168D1*
X18429Y40065D1*
X18347Y39972D1*
X18254Y39888D1*
X18153Y39815D1*
X18044Y39754D1*
X17929Y39705D1*
X17809Y39669D1*
X17686Y39647D1*
X17561Y39639D1*
X17437Y39644D1*
X17313Y39663D1*
X17193Y39696D1*
X17076Y39742D1*
X16966Y39801D1*
X16863Y39872D1*
X16769Y39953D1*
X16684Y40045D1*
X16610Y40146D1*
X16557Y40237D1*
X16445Y40065D1*
X16362Y39972D1*
X16270Y39888D1*
X16168Y39815D1*
X16059Y39754D1*
X15944Y39705D1*
X15825Y39669D1*
X15702Y39647D1*
X15577Y39639D1*
X15452Y39644D1*
X15329Y39663D1*
X15208Y39696D1*
X15092Y39742D1*
X14982Y39801D1*
X14879Y39872D1*
X14784Y39953D1*
X14699Y40045D1*
X14625Y40146D1*
X14572Y40237D1*
X14461Y40065D1*
X14378Y39972D1*
X14238Y39854D1*
X14644Y39847D1*
X14767Y39826D1*
X14887Y39792D1*
X15003Y39744D1*
X15112Y39684D1*
X15214Y39612D1*
X15399Y39438D1*
X16435Y38402D1*
X16518Y38309D1*
X16590Y38207D1*
X16651Y38098D1*
X16699Y37983D1*
X16734Y37863D1*
X16754Y37750D1*
X16829Y37770D1*
X16921Y37854D1*
X17023Y37927D1*
X17132Y37989D1*
X17247Y38037D1*
X17366Y38073D1*
X17489Y38095D1*
X17614Y38104D1*
X17739Y38098D1*
X17862Y38079D1*
X17983Y38046D1*
X18099Y38000D1*
X18209Y37941D1*
X18312Y37870D1*
X18407Y37789D1*
X18492Y37697D1*
X18566Y37597D1*
X18628Y37488D1*
X18678Y37374D1*
X18716Y37255D1*
X18739Y37132D1*
X18749Y36856D1*
Y32370D1*
X18742Y32246D1*
X18722Y32122D1*
X18687Y32002D1*
X18640Y31887D1*
X18580Y31777D1*
X18508Y31675D1*
X18425Y31581D1*
X18333Y31498D1*
X18231Y31425D1*
X18122Y31363D1*
X18007Y31314D1*
X17888Y31279D1*
X17765Y31257D1*
X17502Y31248D1*
X8836D1*
X8712Y31255D1*
X8588Y31276D1*
X8468Y31310D1*
X8353Y31358D1*
X8243Y31418D1*
X8141Y31489D1*
X7954Y31665D1*
X4994Y34626D1*
X4911Y34719D1*
X4838Y34821D1*
X4777Y34930D1*
X4729Y35045D1*
X4694Y35165D1*
X4673Y35288D1*
X4665Y35544D1*
Y44055D1*
X4672Y44180D1*
X4693Y44303D1*
X4727Y44423D1*
X4775Y44539D1*
X4835Y44648D1*
X4906Y44751D1*
X5082Y44937D1*
X7251Y47106D1*
X7344Y47189D1*
X7446Y47261D1*
X7555Y47322D1*
X7670Y47370D1*
X7790Y47405D1*
X7913Y47427D1*
X8038Y47434D1*
X8163Y47428D1*
X8286Y47408D1*
X8406Y47375D1*
X8522Y47328D1*
X8632Y47268D1*
X8735Y47197D1*
X8829Y47115D1*
X8913Y47023D1*
X8987Y46922D1*
X9049Y46813D1*
X9098Y46699D1*
X9135Y46579D1*
X9157Y46456D1*
X9167Y46332D1*
X9162Y46207D1*
X9143Y46083D1*
X9111Y45963D1*
X9065Y45846D1*
X9007Y45736D1*
X8937Y45632D1*
X8750Y45430D1*
X6907Y43588D1*
X6910Y42680D1*
Y35887D1*
X8172Y34622D1*
X9302Y33492D1*
X12864Y33493D1*
X12777Y33648D1*
X12735Y33766D1*
X12709Y33888D1*
X12699Y34154D1*
Y36981D1*
X12707Y37106D1*
X12731Y37229D1*
X12771Y37347D1*
X12826Y37459D1*
X12938Y37613D1*
X12374Y37614D1*
X12249Y37621D1*
X12126Y37642D1*
X12006Y37676D1*
X11890Y37724D1*
X11781Y37784D1*
X11678Y37856D1*
X11493Y38031D1*
X7302Y42223D1*
X35372Y19875D2*
X35351Y19752D1*
X35317Y19632D1*
X35270Y19516D1*
X35210Y19407D1*
X35138Y19305D1*
X35055Y19211D1*
X34962Y19127D1*
X34861Y19054D1*
X34752Y18993D1*
X34637Y18944D1*
X34517Y18908D1*
X34394Y18886D1*
X34270Y18878D1*
X34145Y18883D1*
X34022Y18903D1*
X33901Y18935D1*
X33785Y18982D1*
X33675Y19040D1*
X33572Y19111D1*
X33477Y19193D1*
X33392Y19284D1*
X33318Y19385D1*
X33255Y19493D1*
X33205Y19607D1*
X33168Y19727D1*
X33144Y19849D1*
X33135Y19974D1*
X33139Y20099D1*
X33157Y20222D1*
X33188Y20343D1*
X33233Y20460D1*
X33290Y20571D1*
X33360Y20675D1*
X33440Y20770D1*
X33531Y20856D1*
X33688Y20965D1*
X33686Y22126D1*
X33699Y22250D1*
X33739Y22368D1*
X33823Y22497D1*
X35003Y23680D1*
X35100Y23758D1*
X35212Y23813D1*
X35334Y23842D1*
X35458Y23845D1*
X35581Y23820D1*
X35695Y23769D1*
X35795Y23695D1*
X35877Y23601D1*
X35936Y23491D1*
X35970Y23371D1*
X35978Y23247D1*
X35958Y23124D1*
X35911Y23008D1*
X35811Y22872D1*
X34830Y21891D1*
X34828Y20965D1*
X34921Y20905D1*
X35017Y20825D1*
X35104Y20736D1*
X35181Y20637D1*
X35246Y20530D1*
X35299Y20417D1*
X35339Y20299D1*
X35365Y20177D1*
X35379Y20000D1*
X35372Y19875D1*
X32872D2*
X32851Y19752D1*
X32817Y19632D1*
X32770Y19516D1*
X32710Y19407D1*
X32638Y19305D1*
X32555Y19211D1*
X32462Y19127D1*
X32361Y19054D1*
X32252Y18993D1*
X32137Y18944D1*
X32017Y18908D1*
X31894Y18886D1*
X31770Y18878D1*
X31645Y18883D1*
X31522Y18903D1*
X31401Y18935D1*
X31285Y18982D1*
X31175Y19040D1*
X31072Y19111D1*
X30977Y19193D1*
X30892Y19284D1*
X30818Y19385D1*
X30755Y19493D1*
X30705Y19607D1*
X30668Y19727D1*
X30644Y19849D1*
X30635Y19974D1*
X30639Y20099D1*
X30657Y20222D1*
X30688Y20343D1*
X30733Y20460D1*
X30790Y20571D1*
X30860Y20675D1*
X30940Y20770D1*
X31031Y20856D1*
X31131Y20932D1*
X31238Y20995D1*
X31385Y21058D1*
X31349Y21102D1*
X31103D1*
X31041Y21042D1*
X30934Y20977D1*
X30816Y20937D1*
X30692Y20925D1*
X30568Y20941D1*
X30451Y20984D1*
X30347Y21053D1*
X30261Y21143D1*
X30197Y21251D1*
X30160Y21369D1*
X30149Y21494D1*
X30167Y21617D1*
X30213Y21733D1*
X30283Y21836D1*
X30374Y21921D1*
X30483Y21983D1*
X30602Y22019D1*
X30727Y22027D1*
X30850Y22007D1*
X30965Y21960D1*
X31067Y21888D1*
X31101Y21851D1*
X31599D1*
X31722Y21830D1*
X31825Y21775D1*
X32021Y21584D1*
X32094Y21482D1*
X32128Y21370D1*
X32131Y21057D1*
X32316Y20973D1*
X32421Y20905D1*
X32517Y20825D1*
X32604Y20736D1*
X32681Y20637D1*
X32746Y20530D1*
X32799Y20417D1*
X32839Y20299D1*
X32865Y20177D1*
X32879Y20000D1*
X32872Y19875D1*
X29591D2*
X29570Y19752D1*
X29536Y19632D1*
X29488Y19516D1*
X29428Y19407D1*
X29357Y19305D1*
X29274Y19211D1*
X29181Y19127D1*
X29080Y19054D1*
X28971Y18993D1*
X28856Y18944D1*
X28736Y18908D1*
X28613Y18886D1*
X28489Y18878D1*
X28364Y18883D1*
X28240Y18903D1*
X28120Y18935D1*
X28004Y18982D1*
X27894Y19040D1*
X27790Y19111D1*
X27696Y19193D1*
X27611Y19284D1*
X27537Y19385D1*
X27474Y19493D1*
X27424Y19607D1*
X27387Y19727D1*
X27363Y19849D1*
X27354Y19974D1*
X27358Y20099D1*
X27375Y20222D1*
X27407Y20343D1*
X27452Y20460D1*
X27509Y20571D1*
X27579Y20675D1*
X27659Y20770D1*
X27750Y20856D1*
X27907Y20965D1*
X27904Y21339D1*
X27926Y21494D1*
X27892Y21555D1*
X23781D1*
X23784Y21339D1*
X23770Y21215D1*
X23730Y21096D1*
X23665Y20990D1*
X23579Y20900D1*
X23491Y20840D1*
X23510Y20736D1*
X23587Y20637D1*
X23652Y20530D1*
X23704Y20417D1*
X23744Y20299D1*
X23771Y20177D1*
X23785Y20000D1*
X23778Y19875D1*
X23757Y19752D1*
X23723Y19632D1*
X23675Y19516D1*
X23615Y19407D1*
X23543Y19305D1*
X23461Y19211D1*
X23368Y19127D1*
X23267Y19054D1*
X23158Y18993D1*
X23043Y18944D1*
X22923Y18908D1*
X22800Y18886D1*
X22675Y18878D1*
X22551Y18883D1*
X22427Y18903D1*
X22307Y18935D1*
X22191Y18982D1*
X22080Y19040D1*
X21977Y19111D1*
X21883Y19193D1*
X21798Y19284D1*
X21724Y19385D1*
X21661Y19493D1*
X21611Y19607D1*
X21574Y19727D1*
X21550Y19849D1*
X21540Y19974D1*
X21544Y20099D1*
X21562Y20222D1*
X21594Y20343D1*
X21639Y20460D1*
X21696Y20571D1*
X21765Y20675D1*
X21846Y20770D1*
X21937Y20856D1*
X22093Y20965D1*
X22091Y21339D1*
X22105Y21463D1*
X22145Y21581D1*
X22210Y21687D1*
X22296Y21777D1*
X22400Y21846D1*
X22495Y21885D1*
X22622Y21908D1*
X19545Y24986D1*
X19467Y25083D1*
X19412Y25195D1*
X19380Y25345D1*
X19378Y28818D1*
X19391Y28942D1*
X19432Y29060D1*
X19497Y29167D1*
X19583Y29256D1*
X19687Y29325D1*
X19803Y29370D1*
X19927Y29389D1*
X20051Y29380D1*
X20171Y29344D1*
X20280Y29284D1*
X20373Y29201D1*
X20446Y29100D1*
X20495Y28985D1*
X20520Y28818D1*
Y25627D1*
X23449Y22697D1*
X28453D1*
X28456Y23427D1*
X28469Y23551D1*
X28509Y23669D1*
X28574Y23776D1*
X28661Y23866D1*
X28765Y23935D1*
X28881Y23980D1*
X29005Y23998D1*
X29129Y23989D1*
X29249Y23954D1*
X29358Y23893D1*
X29451Y23810D1*
X29524Y23709D1*
X29573Y23594D1*
X29598Y23427D1*
Y22386D1*
X29583Y22258D1*
X29598Y22126D1*
Y21890D1*
X29584Y21766D1*
X29544Y21648D1*
X29461Y21519D1*
X29047Y21102D1*
Y20967D1*
X29236Y20825D1*
X29323Y20736D1*
X29400Y20637D1*
X29465Y20530D1*
X29518Y20417D1*
X29558Y20299D1*
X29584Y20177D1*
X29598Y20000D1*
X29591Y19875D1*
X27091D2*
X27070Y19752D1*
X27036Y19632D1*
X26988Y19516D1*
X26928Y19407D1*
X26857Y19305D1*
X26774Y19211D1*
X26681Y19127D1*
X26580Y19054D1*
X26471Y18993D1*
X26356Y18944D1*
X26236Y18908D1*
X26113Y18886D1*
X25989Y18878D1*
X25864Y18883D1*
X25740Y18903D1*
X25620Y18935D1*
X25504Y18982D1*
X25394Y19040D1*
X25290Y19111D1*
X25196Y19193D1*
X25111Y19284D1*
X25037Y19385D1*
X24974Y19493D1*
X24924Y19607D1*
X24887Y19727D1*
X24863Y19849D1*
X24854Y19974D1*
X24858Y20099D1*
X24875Y20222D1*
X24907Y20343D1*
X24952Y20460D1*
X25009Y20571D1*
X25079Y20675D1*
X25159Y20770D1*
X25250Y20856D1*
X25350Y20932D1*
X25457Y20995D1*
X25571Y21047D1*
X25690Y21085D1*
X25812Y21110D1*
X25936Y21122D1*
X26061Y21119D1*
X26185Y21103D1*
X26306Y21073D1*
X26424Y21029D1*
X26535Y20973D1*
X26640Y20905D1*
X26736Y20825D1*
X26823Y20736D1*
X26900Y20637D1*
X26965Y20530D1*
X27018Y20417D1*
X27058Y20299D1*
X27084Y20177D1*
X27098Y20000D1*
X27091Y19875D1*
X21278D2*
X21257Y19752D1*
X21223Y19632D1*
X21175Y19516D1*
X21115Y19407D1*
X21043Y19305D1*
X20961Y19211D1*
X20868Y19127D1*
X20767Y19054D1*
X20658Y18993D1*
X20543Y18944D1*
X20423Y18908D1*
X20300Y18886D1*
X20175Y18878D1*
X20051Y18883D1*
X19927Y18903D1*
X19807Y18935D1*
X19691Y18982D1*
X19580Y19040D1*
X19477Y19111D1*
X19383Y19193D1*
X19298Y19284D1*
X19224Y19385D1*
X19161Y19493D1*
X19111Y19607D1*
X19074Y19727D1*
X19050Y19849D1*
X19040Y19974D1*
X19044Y20099D1*
X19062Y20222D1*
X19094Y20343D1*
X19139Y20460D1*
X19196Y20571D1*
X19265Y20675D1*
X19346Y20770D1*
X19437Y20856D1*
X19536Y20932D1*
X19644Y20995D1*
X19757Y21047D1*
X19876Y21085D1*
X19999Y21110D1*
X20123Y21122D1*
X20248Y21119D1*
X20372Y21103D1*
X20493Y21073D1*
X20610Y21029D1*
X20722Y20973D1*
X20827Y20905D1*
X20923Y20825D1*
X21010Y20736D1*
X21087Y20637D1*
X21152Y20530D1*
X21204Y20417D1*
X21244Y20299D1*
X21271Y20177D1*
X21285Y20000D1*
X21278Y19875D1*
X17600Y19182D2*
X17438Y19054D1*
X17329Y18993D1*
X17214Y18944D1*
X17095Y18908D1*
X16972Y18886D1*
X16847Y18878D1*
X16722Y18883D1*
X16599Y18903D1*
X16478Y18935D1*
X16362Y18982D1*
X16252Y19040D1*
X16149Y19111D1*
X16054Y19193D1*
X15969Y19284D1*
X15895Y19385D1*
X15833Y19493D1*
X15782Y19607D1*
X15745Y19727D1*
X15722Y19849D1*
X15712Y19974D1*
X15716Y20099D1*
X15734Y20222D1*
X15765Y20343D1*
X15810Y20460D1*
X15868Y20571D1*
X15937Y20675D1*
X16018Y20770D1*
X16186Y20915D1*
X16124Y20986D1*
X16060Y21093D1*
X16022Y21212D1*
X16012Y21336D1*
X16030Y21460D1*
X16075Y21576D1*
X16145Y21679D1*
X16237Y21764D1*
X16345Y21826D1*
X16465Y21862D1*
X16589Y21870D1*
X16712Y21850D1*
X16828Y21803D1*
X16930Y21731D1*
X16964Y21693D1*
X17818D1*
X17941Y21673D1*
X18044Y21617D1*
X18102Y21564D1*
X18103Y27471D1*
X17980Y27407D1*
X17861Y27370D1*
X17737Y27355D1*
X17612Y27363D1*
X17491Y27394D1*
X17378Y27447D1*
X17276Y27519D1*
X17190Y27609D1*
X17121Y27713D1*
X17072Y27828D1*
X17045Y27950D1*
X17041Y28074D1*
X17060Y28198D1*
X17101Y28316D1*
X17163Y28424D1*
X17244Y28519D1*
X17284Y28556D1*
X17227Y28667D1*
X17191Y28786D1*
X17178Y28910D1*
X17188Y29035D1*
X17220Y29155D1*
X17274Y29268D1*
X17284Y29285D1*
X17222Y29343D1*
X17146Y29441D1*
X17089Y29552D1*
X17053Y29672D1*
X17040Y29796D1*
X17050Y29921D1*
X17082Y30041D1*
X17136Y30154D1*
X17209Y30255D1*
X17300Y30340D1*
X17445Y30424D1*
X17114Y30426D1*
X17119Y30337D1*
X17108Y30213D1*
X17074Y30093D1*
X17019Y29981D1*
X16944Y29881D1*
X16852Y29797D1*
X16746Y29731D1*
X16630Y29685D1*
X16507Y29661D1*
X16382Y29660D1*
X16260Y29682D1*
X16143Y29726D1*
X16036Y29791D1*
X15943Y29874D1*
X15867Y29973D1*
X15810Y30084D1*
X15774Y30204D1*
X15761Y30328D1*
X15768Y30425D1*
X15449Y30421D1*
X15557Y30358D1*
X15651Y30276D1*
X15729Y30178D1*
X15787Y30068D1*
X15825Y29949D1*
X15840Y29806D1*
X15828Y29682D1*
X15794Y29561D1*
X15739Y29450D1*
X15664Y29350D1*
X15592Y29284D1*
X15628Y29228D1*
X15675Y29112D1*
X15699Y28989D1*
X15700Y28870D1*
X15680Y28747D1*
X15637Y28630D1*
X15596Y28556D1*
X15684Y28467D1*
X15755Y28364D1*
X15805Y28250D1*
X15833Y28128D1*
X15840Y28009D1*
X15823Y27885D1*
X15785Y27767D1*
X15726Y27657D1*
X15647Y27560D1*
X15552Y27479D1*
X15444Y27417D1*
X15326Y27375D1*
X15203Y27356D1*
X15078Y27360D1*
X14956Y27386D1*
X14841Y27435D1*
X14737Y27503D1*
X14647Y27590D1*
X14574Y27691D1*
X14521Y27804D1*
X14490Y27925D1*
X14481Y28050D1*
X14495Y28174D1*
X14532Y28293D1*
X14587Y28399D1*
X14493Y28495D1*
X14424Y28599D1*
X14375Y28714D1*
X14348Y28836D1*
X14344Y28960D1*
X14363Y29084D1*
X14404Y29202D1*
X14466Y29310D1*
X14547Y29405D1*
X14587Y29441D1*
X14530Y29552D1*
X14494Y29672D1*
X14481Y29796D1*
X14491Y29921D1*
X14523Y30041D1*
X14577Y30154D1*
X14650Y30255D1*
X14741Y30340D1*
X14886Y30424D1*
X11388Y30426D1*
X10882Y29919D1*
X10899Y29786D1*
X10888Y29662D1*
X10854Y29541D1*
X10793Y29421D1*
X10881Y29333D1*
X10951Y29230D1*
X11002Y29116D1*
X11030Y28994D1*
X11036Y28875D1*
X11020Y28751D1*
X10982Y28632D1*
X10922Y28523D1*
X10844Y28426D1*
X10793Y28379D1*
X10846Y28277D1*
X10884Y28157D1*
X10899Y28034D1*
X10892Y27915D1*
X10859Y27784D1*
X10948Y27686D1*
X11008Y27577D1*
X11042Y27457D1*
X11049Y27367D1*
X11035Y27243D1*
X10994Y27125D1*
X10927Y27020D1*
X10838Y26932D1*
X10731Y26867D1*
X10613Y26827D1*
X10489Y26815D1*
X10365Y26831D1*
X10248Y26875D1*
X10144Y26943D1*
X10058Y27033D1*
X10012Y27111D1*
X9509Y27108D1*
X9444Y27027D1*
X9352Y26942D1*
X9246Y26876D1*
X9130Y26830D1*
X9007Y26807D1*
X8882Y26806D1*
X8760Y26828D1*
X8643Y26872D1*
X8536Y26936D1*
X8443Y27019D1*
X8367Y27118D1*
X8310Y27229D1*
X8274Y27349D1*
X8261Y27473D1*
X8270Y27597D1*
X8303Y27718D1*
X8356Y27831D1*
X8430Y27932D1*
X8521Y28017D1*
X8625Y28085D1*
X8741Y28132D1*
X8863Y28158D1*
X8988Y28160D1*
X9111Y28140D1*
X9229Y28098D1*
X9336Y28035D1*
X9430Y27953D1*
X9506Y27858D1*
X9553Y27880D1*
X9540Y28005D1*
X9550Y28129D1*
X9582Y28250D1*
X9636Y28362D1*
X9709Y28463D1*
X9784Y28536D1*
X9727Y28647D1*
X9691Y28766D1*
X9678Y28890D1*
X9688Y29015D1*
X9720Y29135D1*
X9774Y29248D1*
X9784Y29265D1*
X9722Y29323D1*
X9646Y29421D1*
X9589Y29532D1*
X9553Y29652D1*
X9540Y29776D1*
X9550Y29901D1*
X9582Y30021D1*
X9636Y30134D1*
X9709Y30235D1*
X9800Y30320D1*
X9905Y30388D1*
X10020Y30436D1*
X10143Y30461D1*
X10267Y30464D1*
X10356Y30449D1*
X10969Y31065D1*
X11070Y31137D1*
X11183Y31171D1*
X11734Y31174D1*
X18477D1*
X18600Y31154D1*
X18704Y31098D1*
X18900Y30907D1*
X18972Y30806D1*
X19006Y30693D1*
X19009Y30142D1*
Y10592D1*
X20542Y10589D1*
X38617D1*
X38699Y10678D1*
X38746Y10713D1*
X38671Y10780D1*
X38594Y10878D1*
X38538Y10990D1*
X38505Y11110D1*
X38497Y11235D1*
X38513Y11359D1*
X38553Y11477D1*
X38616Y11585D1*
X38699Y11678D1*
X38746Y11713D1*
X38671Y11780D1*
X38594Y11878D1*
X38538Y11990D1*
X38505Y12110D1*
X38497Y12235D1*
X38513Y12359D1*
X38553Y12477D1*
X38616Y12585D1*
X38699Y12678D1*
X38746Y12713D1*
X38671Y12780D1*
X38594Y12878D1*
X38538Y12990D1*
X38505Y13110D1*
X38497Y13235D1*
X38513Y13359D1*
X38553Y13477D1*
X38616Y13585D1*
X38699Y13678D1*
X38746Y13713D1*
X38671Y13780D1*
X38594Y13878D1*
X38538Y13990D1*
X38505Y14110D1*
X38497Y14235D1*
X38514Y14362D1*
X38281Y14363D1*
X38158Y14384D1*
X38054Y14439D1*
X37662Y14826D1*
X37040Y15449D1*
X36967Y15550D1*
X36933Y15663D1*
X36930Y16213D1*
Y25022D1*
X27947Y25023D1*
X27824Y25043D1*
X27720Y25099D1*
X27328Y25486D1*
X25353Y27461D1*
X25287Y27448D1*
X25162Y27447D1*
X25039Y27469D1*
X24922Y27513D1*
X24816Y27578D1*
X24722Y27661D1*
X24646Y27760D1*
X24589Y27871D1*
X24553Y27990D1*
X24540Y28115D1*
X24550Y28239D1*
X24582Y28360D1*
X24636Y28472D1*
X24709Y28573D1*
X24784Y28646D1*
X24727Y28757D1*
X24691Y28876D1*
X24678Y29000D1*
X24688Y29125D1*
X24720Y29245D1*
X24774Y29358D1*
X24784Y29375D1*
X24690Y29470D1*
X24621Y29575D1*
X24572Y29689D1*
X24545Y29811D1*
X24541Y29936D1*
X24560Y30060D1*
X24601Y30177D1*
X24663Y30286D1*
X24744Y30381D1*
X24841Y30460D1*
X24950Y30520D1*
X25069Y30558D1*
X25193Y30575D1*
X25317Y30568D1*
X25439Y30539D1*
X25553Y30488D1*
X25655Y30417D1*
X25743Y30329D1*
X25814Y30226D1*
X25864Y30111D1*
X25892Y29990D1*
X25899Y29871D1*
X25883Y29747D1*
X25844Y29628D1*
X25793Y29531D1*
X25881Y29443D1*
X25951Y29340D1*
X26002Y29226D1*
X26030Y29104D1*
X26036Y28985D1*
X26020Y28861D1*
X25982Y28742D1*
X25922Y28633D1*
X25844Y28536D1*
X25793Y28489D1*
X25846Y28387D1*
X25884Y28267D1*
X25899Y28124D1*
X25884Y27989D1*
X28100Y25773D1*
X35072Y25771D1*
X37147D1*
X37270Y25751D1*
X37373Y25695D1*
X37569Y25504D1*
X37641Y25403D1*
X37675Y25291D1*
X37679Y24740D1*
Y24587D1*
X37853Y24604D1*
X37976Y24584D1*
X38081Y24541D1*
X38083Y30010D1*
Y34139D1*
X38004Y34175D1*
X37461D1*
X37549Y34060D1*
X37607Y33950D1*
X37646Y33831D1*
X37671Y33635D1*
X37661Y33510D1*
X37632Y33389D1*
X37585Y33273D1*
X37521Y33166D1*
X37441Y33070D1*
X37347Y32988D1*
X37241Y32921D1*
X37127Y32872D1*
X37006Y32840D1*
X36882Y32828D1*
X36757Y32834D1*
X36635Y32860D1*
X36518Y32905D1*
X36410Y32967D1*
X36312Y33045D1*
X36228Y33137D1*
X36158Y33241D1*
X36106Y33354D1*
X36072Y33474D1*
X36057Y33598D1*
X36061Y33723D1*
X36084Y33846D1*
X36126Y33963D1*
X36185Y34073D1*
X36264Y34175D1*
X35203D1*
X34714Y33682D1*
X34708Y33510D1*
X34680Y33389D1*
X34632Y33273D1*
X34568Y33166D1*
X34488Y33070D1*
X34394Y32988D1*
X34288Y32921D1*
X34174Y32872D1*
X34053Y32840D1*
X33929Y32828D1*
X33804Y32834D1*
X33682Y32860D1*
X33565Y32905D1*
X33457Y32967D1*
X33359Y33045D1*
X33275Y33137D1*
X33206Y33241D1*
X33153Y33354D1*
X33119Y33474D1*
X33104Y33598D1*
X33108Y33723D1*
X33131Y33846D1*
X33173Y33963D1*
X33232Y34073D1*
X33308Y34173D1*
X33398Y34259D1*
X33501Y34331D1*
X33613Y34385D1*
X33732Y34422D1*
X33856Y34440D1*
X33961Y34439D1*
X34607Y35088D1*
X34705Y35165D1*
X34818Y35218D1*
X34929Y35242D1*
X35860Y35245D1*
X40411D1*
X40701Y35539D1*
X40799Y35616D1*
X40912Y35668D1*
X41024Y35692D1*
X41955Y35695D1*
X46828D1*
X46952Y35681D1*
X47069Y35638D1*
X47165Y35576D1*
X47825Y34920D1*
X49027Y33718D1*
X51683Y33720D1*
X45898Y39503D1*
X45820Y39600D1*
X45765Y39712D1*
X45732Y39862D1*
X45730Y41270D1*
X45616Y41346D1*
X45522Y41427D1*
X45437Y41519D1*
X45363Y41620D1*
X45300Y41728D1*
X45250Y41842D1*
X45213Y41961D1*
X45189Y42084D1*
X45179Y42209D1*
X45184Y42334D1*
X45201Y42457D1*
X45233Y42578D1*
X45278Y42695D1*
X45335Y42806D1*
X45405Y42910D1*
X45485Y43005D1*
X45576Y43091D1*
X45675Y43166D1*
X45783Y43230D1*
X45897Y43282D1*
X46016Y43320D1*
X46138Y43345D1*
X46262Y43356D1*
X46387Y43354D1*
X46511Y43337D1*
X46632Y43307D1*
X46750Y43264D1*
X46861Y43208D1*
X46966Y43140D1*
X47062Y43060D1*
X47149Y42970D1*
X47226Y42872D1*
X47291Y42765D1*
X47344Y42652D1*
X47384Y42533D1*
X47410Y42411D1*
X47424Y42235D1*
X47417Y42110D1*
X47396Y41987D1*
X47362Y41867D1*
X47314Y41751D1*
X47254Y41642D1*
X47183Y41539D1*
X47100Y41446D1*
X47007Y41362D1*
X46875Y41272D1*
X46873Y40145D1*
X52536Y34480D1*
X54423Y34482D1*
X59463D1*
X59587Y34468D1*
X59705Y34428D1*
X59834Y34345D1*
X60654Y33527D1*
X60732Y33430D1*
X60787Y33318D1*
X60820Y33168D1*
X60822Y29123D1*
Y27897D1*
X60808Y27773D1*
X60768Y27655D1*
X60685Y27526D1*
X59967Y26805D1*
X76880D1*
X78603Y28526D1*
X82699Y32622D1*
X82686Y32724D1*
X82690Y32849D1*
X82714Y32972D1*
X82755Y33089D1*
X82815Y33199D1*
X82891Y33298D1*
X82981Y33385D1*
X83083Y33456D1*
X83195Y33511D1*
X83315Y33548D1*
X83438Y33566D1*
X83563Y33565D1*
X83686Y33545D1*
X83805Y33506D1*
X83916Y33449D1*
X84017Y33375D1*
X84105Y33287D1*
X84179Y33186D1*
X84237Y33075D1*
X84276Y32957D1*
X84301Y32761D1*
X84291Y32636D1*
X84262Y32515D1*
X84215Y32399D1*
X84151Y32292D1*
X84070Y32196D1*
X83977Y32114D1*
X83871Y32047D1*
X83756Y31997D1*
X83636Y31966D1*
X83511Y31954D1*
X83352Y31968D1*
X78517Y27130D1*
X77402Y26015D1*
X77303Y25939D1*
X77153Y25886D1*
X76949Y25879D1*
X46281D1*
X46219Y25842D1*
X46101Y25803D1*
X45977Y25791D1*
X45853Y25807D1*
X45736Y25850D1*
X45632Y25919D1*
X45528Y26039D1*
X45529Y25958D1*
X45621Y25866D1*
X45699Y25769D1*
X45754Y25657D1*
X45787Y25507D1*
X45789Y22630D1*
X45981Y22633D1*
X46121Y22615D1*
X46253Y22564D1*
X46369Y22480D1*
X46601Y22249D1*
X46679Y22152D1*
X46735Y22040D1*
X46767Y21889D1*
X46769Y21215D1*
X46758Y21109D1*
X46769Y20920D1*
Y13964D1*
X47707Y13967D1*
X53531D1*
X53655Y13954D1*
X53773Y13914D1*
X53903Y13830D1*
X54723Y13013D1*
X54801Y12915D1*
X54856Y12803D1*
X54888Y12653D1*
X54890Y8609D1*
Y6824D1*
X56548Y5167D1*
X57709D1*
Y6226D1*
X58970D1*
Y6105D1*
X59124Y6188D1*
X59245Y6219D1*
X59369Y6225D1*
X59493Y6207D1*
X59610Y6165D1*
X59717Y6100D1*
X59809Y6016D1*
X59839Y5975D1*
X59912Y6058D1*
X60011Y6134D1*
X60124Y6188D1*
X60245Y6219D1*
X60369Y6225D1*
X60427Y6217D1*
X60430Y7018D1*
X59897Y7014D1*
X57307D1*
X57243Y6955D1*
X57136Y6889D1*
X57018Y6850D1*
X56894Y6837D1*
X56770Y6853D1*
X56653Y6897D1*
X56549Y6965D1*
X56463Y7056D1*
X56399Y7163D1*
X56362Y7282D1*
X56351Y7406D1*
X56369Y7530D1*
X56415Y7646D1*
X56485Y7749D1*
X56576Y7834D1*
X56685Y7895D1*
X56804Y7931D1*
X56929Y7940D1*
X57052Y7920D1*
X57167Y7873D1*
X57269Y7801D1*
X57303Y7763D1*
X60647D1*
X60769Y7743D1*
X60873Y7687D1*
X61069Y7496D1*
X61141Y7395D1*
X61175Y7282D1*
X61179Y6731D1*
Y6204D1*
X61245Y6219D1*
X61369Y6225D1*
X61493Y6207D1*
X61610Y6165D1*
X61717Y6100D1*
X61809Y6016D1*
X61839Y5975D1*
X61912Y6058D1*
X62011Y6134D1*
X62124Y6188D1*
X62245Y6219D1*
X62369Y6225D1*
X62493Y6207D1*
X62610Y6165D1*
X62717Y6100D1*
X62809Y6016D1*
X62839Y5975D1*
X62912Y6058D1*
X63011Y6134D1*
X63124Y6188D1*
X63245Y6219D1*
X63369Y6225D1*
X63493Y6207D1*
X63610Y6165D1*
X63717Y6100D1*
X63809Y6016D1*
X63839Y5975D1*
X63912Y6058D1*
X64011Y6134D1*
X64124Y6188D1*
X64245Y6219D1*
X64369Y6225D1*
X64493Y6207D1*
X64610Y6165D1*
X64717Y6100D1*
X64809Y6016D1*
X64839Y5975D1*
X64912Y6058D1*
X65011Y6134D1*
X65124Y6188D1*
X65245Y6219D1*
X65369Y6225D1*
X65493Y6207D1*
X65610Y6165D1*
X65717Y6100D1*
X65809Y6016D1*
X65839Y5975D1*
X65912Y6058D1*
X66011Y6134D1*
X66124Y6188D1*
X66245Y6219D1*
X66369Y6225D1*
X66493Y6207D1*
X66610Y6165D1*
X66717Y6100D1*
X66809Y6016D1*
X66839Y5975D1*
X66912Y6058D1*
X67011Y6134D1*
X67124Y6188D1*
X67245Y6219D1*
X67369Y6225D1*
X67493Y6207D1*
X67610Y6165D1*
X67717Y6100D1*
X67809Y6016D1*
X67839Y5975D1*
X67912Y6058D1*
X68011Y6134D1*
X68124Y6188D1*
X68245Y6219D1*
X68369Y6225D1*
X68493Y6207D1*
X68610Y6165D1*
X68717Y6100D1*
X68809Y6016D1*
X68839Y5975D1*
X68912Y6058D1*
X69011Y6134D1*
X69124Y6188D1*
X69245Y6219D1*
X69369Y6225D1*
X69493Y6207D1*
X69610Y6165D1*
X69717Y6100D1*
X69809Y6016D1*
X69839Y5975D1*
X69912Y6058D1*
X70011Y6134D1*
X70124Y6188D1*
X70245Y6219D1*
X70369Y6225D1*
X70493Y6207D1*
X70610Y6165D1*
X70717Y6100D1*
X70809Y6016D1*
X70883Y5915D1*
X70935Y5802D1*
X70964Y5680D1*
X70970Y5596D1*
X70958Y5471D1*
X70921Y5352D1*
X70862Y5242D1*
X70782Y5146D1*
X70718Y5095D1*
X70809Y5016D1*
X70883Y4915D1*
X70935Y4802D1*
X70964Y4680D1*
X70970Y4596D1*
X70952Y4453D1*
X71955Y4455D1*
X89029D1*
X88932Y4633D1*
X88852Y4869D1*
X88816Y5116D1*
X88825Y5366D1*
X88879Y5609D1*
X88976Y5839D1*
X89114Y6048D1*
X89286Y6228D1*
X89489Y6374D1*
X89714Y6481D1*
X89955Y6546D1*
X90204Y6566D1*
X90453Y6541D1*
X90692Y6471D1*
X90916Y6360D1*
X90925Y6353D1*
Y49029D1*
X90827Y48970D1*
X90596Y48875D1*
X90352Y48823D1*
X90102Y48817D1*
X89855Y48855D1*
X89620Y48937D1*
X89403Y49061D1*
X89212Y49222D1*
X89053Y49415D1*
X88932Y49633D1*
X88852Y49869D1*
X88816Y50116D1*
X88825Y50366D1*
X88879Y50609D1*
X88976Y50839D1*
X89026Y50923D1*
X83675Y50925D1*
X50730Y50923D1*
X50843Y50700D1*
X50914Y50461D1*
X50941Y50213D1*
X50936Y50065D1*
X50891Y49820D1*
X50802Y49586D1*
X50672Y49373D1*
X50507Y49186D1*
X50310Y49033D1*
X50088Y48917D1*
X49850Y48843D1*
X49602Y48814D1*
X49353Y48830D1*
X49111Y48891D1*
X48883Y48994D1*
X48679Y49137D1*
X48503Y49315D1*
X48362Y49521D1*
X48261Y49749D1*
X48203Y49992D1*
X48190Y50241D1*
X48222Y50489D1*
X48298Y50727D1*
X48401Y50923D1*
X46980D1*
X47093Y50700D1*
X47164Y50461D1*
X47191Y50213D1*
X47186Y50065D1*
X47141Y49820D1*
X47052Y49586D1*
X46922Y49373D1*
X46757Y49186D1*
X46560Y49033D1*
X46338Y48917D1*
X46100Y48843D1*
X45852Y48814D1*
X45603Y48830D1*
X45361Y48891D1*
X45133Y48994D1*
X44929Y49137D1*
X44753Y49315D1*
X44612Y49521D1*
X44511Y49749D1*
X44453Y49992D1*
X44440Y50241D1*
X44472Y50489D1*
X44548Y50727D1*
X44651Y50923D1*
X39300Y50925D1*
X6355Y50923D1*
X6468Y50700D1*
X6539Y50461D1*
X6566Y50213D1*
X6561Y50065D1*
X6516Y49820D1*
X6427Y49586D1*
X6297Y49373D1*
X6132Y49186D1*
X5935Y49033D1*
X5713Y48917D1*
X5475Y48843D1*
X5227Y48814D1*
X4978Y48830D1*
X4736Y48891D1*
X4508Y48994D1*
X4452Y49030D1*
X4455Y47425D1*
Y6351D1*
X4599Y6433D1*
X4833Y6519D1*
X5079Y6562D1*
X5329Y6559D1*
X5574Y6512D1*
X5807Y6420D1*
X6019Y6289D1*
X6204Y6121D1*
X6355Y5923D1*
X6468Y5700D1*
X6539Y5461D1*
X6566Y5213D1*
X6561Y5065D1*
X6516Y4820D1*
X6427Y4586D1*
X6352Y4454D1*
X8271Y4455D1*
X8162Y4485D1*
X8046Y4532D1*
X7936Y4590D1*
X7833Y4661D1*
X7738Y4743D1*
X7653Y4834D1*
X7579Y4935D1*
X7517Y5043D1*
X7466Y5157D1*
X7429Y5277D1*
X7406Y5399D1*
X7396Y5524D1*
X7400Y5649D1*
X7418Y5772D1*
X7449Y5893D1*
X7494Y6010D1*
X7552Y6121D1*
X7621Y6225D1*
X7702Y6320D1*
X7792Y6406D1*
X7892Y6482D1*
X7999Y6545D1*
X8113Y6597D1*
X8232Y6635D1*
X8354Y6660D1*
X8479Y6672D1*
X8604Y6669D1*
X8800Y6635D1*
X9175Y7015D1*
X9664Y7503D1*
X9761Y7581D1*
X9873Y7636D1*
X10023Y7669D1*
X12572Y7671D1*
X12696Y7657D1*
X12814Y7617D1*
X12943Y7534D1*
X13890Y6589D1*
X14024Y6635D1*
X14147Y6660D1*
X14271Y6672D1*
X14396Y6669D1*
X14520Y6653D1*
X14641Y6623D1*
X14758Y6579D1*
X14870Y6523D1*
X14974Y6455D1*
X15071Y6375D1*
X15158Y6286D1*
X15234Y6187D1*
X15299Y6080D1*
X15352Y5967D1*
X15392Y5849D1*
X15419Y5727D1*
X15433Y5550D1*
X15426Y5425D1*
X15405Y5302D1*
X15371Y5182D1*
X15323Y5066D1*
X15263Y4957D1*
X15191Y4855D1*
X15108Y4761D1*
X15016Y4677D1*
X14914Y4604D1*
X14806Y4543D1*
X14691Y4494D1*
X14552Y4455D1*
X16560D1*
X16338Y4532D1*
X16228Y4590D1*
X16125Y4661D1*
X16031Y4743D1*
X15946Y4834D1*
X15871Y4935D1*
X15809Y5043D1*
X15759Y5157D1*
X15722Y5277D1*
X15698Y5399D1*
X15688Y5524D1*
X15692Y5649D1*
X15710Y5772D1*
X15742Y5893D1*
X15786Y6010D1*
X15844Y6121D1*
X15913Y6225D1*
X15994Y6320D1*
X16084Y6406D1*
X16184Y6482D1*
X16288Y6543D1*
Y8257D1*
X16223Y8325D1*
X16159Y8432D1*
X16121Y8551D1*
X16111Y8675D1*
X16129Y8799D1*
X16174Y8915D1*
X16244Y9018D1*
X16336Y9103D1*
X16444Y9165D1*
X16564Y9201D1*
X16688Y9209D1*
X16811Y9189D1*
X16927Y9142D1*
X17029Y9070D1*
X17112Y8977D1*
X17172Y8868D1*
X17206Y8748D1*
X17214Y8658D1*
X17200Y8534D1*
X17176Y8430D1*
X17129Y8314D1*
X17037Y8215D1*
Y6646D1*
X17141Y6623D1*
X17258Y6579D1*
X17370Y6523D1*
X17474Y6455D1*
X17571Y6375D1*
X17658Y6286D1*
X17734Y6187D1*
X17799Y6080D1*
X17852Y5967D1*
X17892Y5849D1*
X17919Y5727D1*
X17933Y5550D1*
X17926Y5425D1*
X17905Y5302D1*
X17871Y5182D1*
X17823Y5066D1*
X17763Y4957D1*
X17691Y4855D1*
X17608Y4761D1*
X17516Y4677D1*
X17414Y4604D1*
X17306Y4543D1*
X17191Y4494D1*
X17052Y4455D1*
X19818D1*
X19594Y4532D1*
X19484Y4590D1*
X19381Y4661D1*
X19287Y4743D1*
X19202Y4834D1*
X19127Y4935D1*
X19065Y5043D1*
X19015Y5157D1*
X18978Y5277D1*
X18954Y5399D1*
X18944Y5524D1*
X18948Y5649D1*
X18966Y5772D1*
X18998Y5893D1*
X19042Y6010D1*
X19100Y6121D1*
X19169Y6225D1*
X19287Y6355D1*
X19284Y7800D1*
Y8635D1*
X19298Y8759D1*
X19338Y8877D1*
X19403Y8984D1*
X19489Y9073D1*
X19593Y9142D1*
X19710Y9187D1*
X19833Y9206D1*
X19958Y9197D1*
X20077Y9161D1*
X20186Y9101D1*
X20279Y9018D1*
X20352Y8917D1*
X20402Y8802D1*
X20427Y8635D1*
Y6615D1*
X20626Y6523D1*
X20730Y6455D1*
X20827Y6375D1*
X20914Y6286D1*
X20990Y6187D1*
X21056Y6080D1*
X21108Y5967D1*
X21148Y5849D1*
X21175Y5727D1*
X21189Y5550D1*
X21182Y5425D1*
X21161Y5302D1*
X21127Y5182D1*
X21079Y5066D1*
X21019Y4957D1*
X20947Y4855D1*
X20865Y4761D1*
X20772Y4677D1*
X20671Y4604D1*
X20562Y4543D1*
X20447Y4494D1*
X20308Y4455D1*
X22318D1*
X22094Y4532D1*
X21984Y4590D1*
X21881Y4661D1*
X21787Y4743D1*
X21702Y4834D1*
X21627Y4935D1*
X21565Y5043D1*
X21515Y5157D1*
X21478Y5277D1*
X21454Y5399D1*
X21444Y5524D1*
X21448Y5649D1*
X21466Y5772D1*
X21498Y5893D1*
X21542Y6010D1*
X21600Y6121D1*
X21669Y6225D1*
X21750Y6320D1*
X21841Y6406D1*
X21940Y6482D1*
X22048Y6545D1*
X22195Y6608D1*
X22192Y7550D1*
Y8663D1*
X22127Y8735D1*
X22063Y8842D1*
X22025Y8961D1*
X22015Y9085D1*
X22033Y9209D1*
X22078Y9325D1*
X22146Y9425D1*
X21383Y9427D1*
X18635D1*
X18512Y9448D1*
X18409Y9503D1*
X18213Y9694D1*
X18141Y9796D1*
X18107Y9908D1*
X18103Y10459D1*
Y15268D1*
X17967Y15250D1*
X17843Y15266D1*
X17726Y15310D1*
X17622Y15378D1*
X17536Y15469D1*
X17473Y15576D1*
X17435Y15695D1*
X17424Y15819D1*
X17442Y15942D1*
X17488Y16059D1*
X17558Y16162D1*
X17601Y16201D1*
Y19181D1*
X15449Y19875D2*
X15429Y19752D1*
X15394Y19632D1*
X15347Y19516D1*
X15287Y19407D1*
X15215Y19305D1*
X15132Y19211D1*
X15040Y19127D1*
X14938Y19054D1*
X14829Y18993D1*
X14714Y18944D1*
X14595Y18908D1*
X14472Y18886D1*
X14347Y18878D1*
X14222Y18883D1*
X14099Y18903D1*
X13978Y18935D1*
X13862Y18982D1*
X13752Y19040D1*
X13649Y19111D1*
X13554Y19193D1*
X13469Y19284D1*
X13395Y19385D1*
X13333Y19493D1*
X13282Y19607D1*
X13245Y19727D1*
X13222Y19849D1*
X13212Y19974D1*
X13216Y20099D1*
X13234Y20222D1*
X13265Y20343D1*
X13310Y20460D1*
X13368Y20571D1*
X13437Y20675D1*
X13518Y20770D1*
X13608Y20856D1*
X13708Y20932D1*
X13815Y20995D1*
X13929Y21047D1*
X14048Y21085D1*
X14170Y21110D1*
X14295Y21122D1*
X14420Y21119D1*
X14544Y21103D1*
X14665Y21073D1*
X14782Y21029D1*
X14894Y20973D1*
X14998Y20905D1*
X15095Y20825D1*
X15182Y20736D1*
X15258Y20637D1*
X15323Y20530D1*
X15376Y20417D1*
X15416Y20299D1*
X15442Y20177D1*
X15456Y20000D1*
X15449Y19875D1*
X12107D2*
X12087Y19752D1*
X12052Y19632D1*
X12005Y19516D1*
X11945Y19407D1*
X11873Y19305D1*
X11790Y19211D1*
X11698Y19127D1*
X11596Y19054D1*
X11487Y18993D1*
X11372Y18944D1*
X11253Y18908D1*
X11130Y18886D1*
X11005Y18878D1*
X10880Y18883D1*
X10757Y18903D1*
X10636Y18935D1*
X10520Y18982D1*
X10410Y19040D1*
X10307Y19111D1*
X10212Y19193D1*
X10127Y19284D1*
X10053Y19385D1*
X9991Y19493D1*
X9940Y19607D1*
X9903Y19727D1*
X9880Y19849D1*
X9870Y19974D1*
X9874Y20099D1*
X9892Y20222D1*
X9923Y20343D1*
X9968Y20460D1*
X10026Y20571D1*
X10095Y20675D1*
X10176Y20770D1*
X10266Y20856D1*
X10366Y20932D1*
X10473Y20995D1*
X10587Y21047D1*
X10706Y21085D1*
X10828Y21110D1*
X10953Y21122D1*
X11078Y21119D1*
X11273Y21085D1*
X11649Y21465D1*
X11917Y21733D1*
X11916Y27957D1*
X11930Y28081D1*
X11970Y28199D1*
X12035Y28306D1*
X12122Y28396D1*
X12226Y28465D1*
X12342Y28510D1*
X12465Y28528D1*
X12590Y28519D1*
X12709Y28484D1*
X12818Y28423D1*
X12912Y28340D1*
X12985Y28239D1*
X13034Y28124D1*
X13059Y27957D1*
Y21496D1*
X13045Y21372D1*
X13005Y21254D1*
X12922Y21125D1*
X12077Y20277D1*
X12100Y20177D1*
X12114Y20000D1*
X12107Y19875D1*
X9607D2*
X9587Y19752D1*
X9552Y19632D1*
X9505Y19516D1*
X9445Y19407D1*
X9373Y19305D1*
X9290Y19211D1*
X9198Y19127D1*
X9096Y19054D1*
X8987Y18993D1*
X8872Y18944D1*
X8753Y18908D1*
X8630Y18886D1*
X8505Y18878D1*
X8380Y18883D1*
X8257Y18903D1*
X8136Y18935D1*
X8020Y18982D1*
X7910Y19040D1*
X7807Y19111D1*
X7712Y19193D1*
X7627Y19284D1*
X7553Y19385D1*
X7491Y19493D1*
X7440Y19607D1*
X7403Y19727D1*
X7380Y19849D1*
X7370Y19974D1*
X7374Y20099D1*
X7392Y20222D1*
X7423Y20343D1*
X7468Y20460D1*
X7526Y20571D1*
X7595Y20675D1*
X7676Y20770D1*
X7766Y20856D1*
X7866Y20932D1*
X7973Y20995D1*
X8087Y21047D1*
X8206Y21085D1*
X8328Y21110D1*
X8453Y21122D1*
X8578Y21119D1*
X8701Y21103D1*
X8823Y21073D1*
X8940Y21029D1*
X9051Y20973D1*
X9156Y20905D1*
X9253Y20825D1*
X9340Y20736D1*
X9416Y20637D1*
X9481Y20530D1*
X9534Y20417D1*
X9574Y20299D1*
X9600Y20177D1*
X9614Y20000D1*
X9607Y19875D1*
X35293Y5425D2*
X35272Y5302D1*
X35238Y5182D1*
X35190Y5066D1*
X35130Y4957D1*
X35058Y4855D1*
X34975Y4761D1*
X34883Y4677D1*
X34781Y4604D1*
X34673Y4543D1*
X34558Y4494D1*
X34419Y4455D1*
X41990D1*
X42007Y4549D1*
X42052Y4665D1*
X42122Y4768D1*
X42165Y4808D1*
X42166Y9584D1*
X42017Y9594D1*
X41897Y9628D1*
X41786Y9685D1*
X41698Y9753D1*
Y7779D1*
X41684Y7655D1*
X41644Y7536D1*
X41561Y7407D1*
X40743Y6587D1*
X40646Y6509D1*
X40534Y6454D1*
X40384Y6422D1*
X39363Y6420D1*
X39239Y6434D1*
X39121Y6474D1*
X39014Y6539D1*
X38924Y6625D1*
X38855Y6729D1*
X38811Y6846D1*
X38792Y6991D1*
Y8792D1*
X38805Y8916D1*
X38846Y9034D1*
X38910Y9141D1*
X38997Y9231D1*
X39101Y9300D1*
X39217Y9345D1*
X39363Y9364D1*
X40131D1*
X40255Y9350D1*
X40373Y9310D1*
X40479Y9245D1*
X40555Y9172D1*
Y9751D1*
X40472Y9688D1*
X40361Y9630D1*
X40241Y9595D1*
X40117Y9585D1*
X39993Y9599D1*
X39874Y9638D1*
X39796Y9682D1*
X39647Y9537D1*
X39546Y9465D1*
X39434Y9431D1*
X38883Y9427D1*
X34644D1*
X34687Y9347D1*
X34721Y9227D1*
X34729Y9137D1*
X34715Y9013D1*
X34673Y8895D1*
X34606Y8790D1*
X34553Y8738D1*
X34552Y6610D1*
X34737Y6523D1*
X34841Y6455D1*
X34938Y6375D1*
X35025Y6286D1*
X35101Y6187D1*
X35166Y6080D1*
X35219Y5967D1*
X35259Y5849D1*
X35286Y5727D1*
X35300Y5550D1*
X35293Y5425D1*
X50665Y42110D2*
X50644Y41987D1*
X50610Y41867D1*
X50562Y41751D1*
X50502Y41642D1*
X50431Y41539D1*
X50348Y41446D1*
X50255Y41362D1*
X50154Y41289D1*
X50045Y41228D1*
X49930Y41179D1*
X49810Y41143D1*
X49687Y41121D1*
X49563Y41112D1*
X49438Y41118D1*
X49314Y41137D1*
X49194Y41170D1*
X49078Y41216D1*
X48968Y41275D1*
X48864Y41346D1*
X48770Y41427D1*
X48685Y41519D1*
X48611Y41620D1*
X48548Y41728D1*
X48498Y41842D1*
X48461Y41961D1*
X48437Y42084D1*
X48428Y42209D1*
X48432Y42334D1*
X48449Y42457D1*
X48481Y42578D1*
X48526Y42695D1*
X48583Y42806D1*
X48653Y42910D1*
X48733Y43005D1*
X48824Y43091D1*
X48924Y43166D1*
X49031Y43230D1*
X49145Y43282D1*
X49264Y43320D1*
X49386Y43345D1*
X49510Y43356D1*
X49635Y43354D1*
X49759Y43337D1*
X49880Y43307D1*
X49998Y43264D1*
X50109Y43208D1*
X50214Y43140D1*
X50310Y43060D1*
X50397Y42970D1*
X50474Y42872D1*
X50539Y42765D1*
X50592Y42652D1*
X50632Y42533D1*
X50658Y42411D1*
X50672Y42235D1*
X50665Y42110D1*
X44176Y42210D2*
X44158Y42036D1*
X44114Y41867D1*
X44044Y41707D1*
X43950Y41559D1*
X43834Y41428D1*
X43699Y41317D1*
X43549Y41228D1*
X43387Y41163D1*
X43216Y41124D1*
X43042Y41112D1*
X42867Y41128D1*
X42698Y41170D1*
X42537Y41238D1*
X42388Y41331D1*
X42256Y41445D1*
X42143Y41578D1*
X42052Y41728D1*
X41986Y41889D1*
X41945Y42059D1*
X41931Y42234D1*
X41945Y42408D1*
X41985Y42578D1*
X42051Y42740D1*
X42142Y42889D1*
X42254Y43023D1*
X42387Y43138D1*
X42535Y43230D1*
X42696Y43299D1*
X42865Y43341D1*
X43039Y43357D1*
X43214Y43346D1*
X43384Y43307D1*
X43547Y43243D1*
X43697Y43154D1*
X43832Y43043D1*
X43948Y42912D1*
X44043Y42765D1*
X44113Y42605D1*
X44158Y42436D1*
X44176Y42262D1*
Y42210D1*
X9608Y30193D2*
X9574Y30073D1*
X9519Y29961D1*
X9444Y29861D1*
X9352Y29777D1*
X9246Y29711D1*
X9130Y29665D1*
X9007Y29641D1*
X8882Y29640D1*
X8760Y29662D1*
X8643Y29706D1*
X8536Y29771D1*
X8443Y29854D1*
X8367Y29953D1*
X8310Y30064D1*
X8274Y30184D1*
X8261Y30308D1*
X8270Y30432D1*
X8303Y30553D1*
X8356Y30665D1*
X8430Y30766D1*
X8521Y30852D1*
X8625Y30920D1*
X8741Y30967D1*
X8863Y30992D1*
X8988Y30995D1*
X9111Y30975D1*
X9229Y30933D1*
X9336Y30869D1*
X9430Y30788D1*
X9508Y30690D1*
X9567Y30580D1*
X9604Y30461D1*
X9619Y30317D1*
X9608Y30193D1*
X8328Y29662D2*
X8294Y29541D1*
X8239Y29430D1*
X8164Y29330D1*
X8092Y29264D1*
X8128Y29208D1*
X8175Y29092D1*
X8199Y28969D1*
X8200Y28850D1*
X8180Y28727D1*
X8137Y28610D1*
X8096Y28536D1*
X8184Y28447D1*
X8255Y28344D1*
X8305Y28230D1*
X8333Y28108D1*
X8340Y27989D1*
X8323Y27865D1*
X8285Y27747D1*
X8226Y27637D1*
X8147Y27540D1*
X8052Y27459D1*
X7944Y27397D1*
X7826Y27355D1*
X7703Y27336D1*
X7578Y27340D1*
X7456Y27366D1*
X7341Y27415D1*
X7237Y27483D1*
X7147Y27570D1*
X7074Y27671D1*
X7021Y27784D1*
X6990Y27905D1*
X6981Y28030D1*
X6995Y28154D1*
X7032Y28273D1*
X7087Y28379D1*
X6993Y28475D1*
X6924Y28579D1*
X6875Y28694D1*
X6848Y28816D1*
X6844Y28940D1*
X6863Y29064D1*
X6904Y29182D1*
X6966Y29290D1*
X7047Y29385D1*
X7087Y29421D1*
X7030Y29532D1*
X6994Y29652D1*
X6981Y29776D1*
X6991Y29901D1*
X7023Y30021D1*
X7077Y30134D1*
X7150Y30235D1*
X7241Y30320D1*
X7346Y30388D1*
X7461Y30436D1*
X7584Y30461D1*
X7708Y30464D1*
X7832Y30443D1*
X7949Y30401D1*
X8057Y30338D1*
X8151Y30256D1*
X8229Y30158D1*
X8287Y30048D1*
X8325Y29929D1*
X8340Y29786D1*
X8328Y29662D1*
X17108Y27378D2*
X17074Y27258D1*
X17019Y27146D1*
X16944Y27047D1*
X16852Y26962D1*
X16746Y26896D1*
X16630Y26850D1*
X16507Y26827D1*
X16382Y26826D1*
X16260Y26848D1*
X16143Y26892D1*
X16036Y26956D1*
X15943Y27039D1*
X15867Y27138D1*
X15810Y27249D1*
X15774Y27369D1*
X15761Y27493D1*
X15770Y27617D1*
X15803Y27738D1*
X15856Y27851D1*
X15930Y27952D1*
X16021Y28037D1*
X16125Y28105D1*
X16241Y28152D1*
X16363Y28178D1*
X16488Y28180D1*
X16611Y28160D1*
X16729Y28118D1*
X16836Y28055D1*
X16930Y27973D1*
X17008Y27875D1*
X17067Y27765D1*
X17104Y27646D1*
X17119Y27503D1*
X17108Y27378D1*
X23328Y28000D2*
X23294Y27880D1*
X23239Y27768D1*
X23164Y27668D1*
X23072Y27584D1*
X22966Y27517D1*
X22850Y27472D1*
X22728Y27448D1*
X22603Y27447D1*
X22480Y27469D1*
X22363Y27513D1*
X22256Y27578D1*
X22163Y27661D1*
X22087Y27760D1*
X22030Y27871D1*
X21994Y27990D1*
X21981Y28115D1*
X21991Y28239D1*
X22023Y28360D1*
X22088Y28488D1*
X22009Y28565D1*
X21936Y28667D1*
X21883Y28780D1*
X21852Y28901D1*
X21843Y29025D1*
X21858Y29149D1*
X21894Y29269D1*
X21952Y29379D1*
X22029Y29477D1*
X22087Y29531D1*
X22030Y29642D1*
X21994Y29762D1*
X21981Y29886D1*
X21991Y30011D1*
X22023Y30131D1*
X22077Y30244D1*
X22150Y30345D1*
X22241Y30430D1*
X22346Y30498D1*
X22461Y30546D1*
X22584Y30571D1*
X22708Y30574D1*
X22832Y30553D1*
X22949Y30511D1*
X23057Y30448D1*
X23151Y30366D1*
X23229Y30268D1*
X23287Y30158D1*
X23325Y30039D1*
X23340Y29915D1*
X23333Y29796D1*
X23303Y29675D1*
X23252Y29561D1*
X23181Y29459D1*
X23096Y29374D1*
X23149Y29272D1*
X23187Y29153D1*
X23202Y29029D1*
X23195Y28910D1*
X23165Y28789D1*
X23114Y28675D1*
X23096Y28645D1*
X23151Y28594D1*
X23229Y28497D1*
X23287Y28387D1*
X23325Y28267D1*
X23340Y28124D1*
X23328Y28000D1*
X24608Y27468D2*
X24574Y27348D1*
X24519Y27236D1*
X24444Y27137D1*
X24352Y27052D1*
X24246Y26986D1*
X24130Y26940D1*
X24007Y26917D1*
X23882Y26916D1*
X23760Y26938D1*
X23643Y26982D1*
X23536Y27046D1*
X23443Y27129D1*
X23367Y27228D1*
X23310Y27339D1*
X23274Y27459D1*
X23261Y27583D1*
X23270Y27707D1*
X23303Y27828D1*
X23356Y27941D1*
X23430Y28042D1*
X23521Y28127D1*
X23625Y28195D1*
X23741Y28242D1*
X23863Y28268D1*
X23988Y28270D1*
X24111Y28250D1*
X24229Y28208D1*
X24336Y28145D1*
X24430Y28063D1*
X24508Y27965D1*
X24567Y27855D1*
X24604Y27736D1*
X24619Y27593D1*
X24608Y27468D1*
Y30303D2*
X24574Y30183D1*
X24519Y30071D1*
X24444Y29971D1*
X24352Y29887D1*
X24246Y29821D1*
X24130Y29775D1*
X24007Y29751D1*
X23882Y29750D1*
X23760Y29772D1*
X23643Y29816D1*
X23536Y29881D1*
X23443Y29964D1*
X23367Y30063D1*
X23310Y30174D1*
X23274Y30294D1*
X23261Y30418D1*
X23270Y30542D1*
X23303Y30663D1*
X23356Y30775D1*
X23430Y30876D1*
X23521Y30962D1*
X23625Y31030D1*
X23741Y31077D1*
X23863Y31102D1*
X23988Y31105D1*
X24111Y31085D1*
X24229Y31043D1*
X24336Y30979D1*
X24430Y30898D1*
X24508Y30800D1*
X24567Y30690D1*
X24604Y30571D1*
X24619Y30427D1*
X24608Y30303D1*
X24433Y33904D2*
X24404Y33783D1*
X24357Y33667D1*
X24292Y33560D1*
X24212Y33464D1*
X24118Y33382D1*
X24013Y33315D1*
X23898Y33265D1*
X23777Y33234D1*
X23653Y33221D1*
X23529Y33228D1*
X23406Y33254D1*
X23290Y33299D1*
X23181Y33361D1*
X23084Y33439D1*
X22999Y33531D1*
X22930Y33635D1*
X22878Y33748D1*
X22844Y33868D1*
X22828Y33992D1*
X22832Y34117D1*
X22855Y34239D1*
X22897Y34357D1*
X22957Y34467D1*
X23032Y34566D1*
X23123Y34653D1*
X23225Y34724D1*
X23337Y34779D1*
X23456Y34816D1*
X23580Y34834D1*
X23705Y34833D1*
X23828Y34813D1*
X23947Y34773D1*
X24058Y34716D1*
X24159Y34643D1*
X24247Y34555D1*
X24321Y34454D1*
X24378Y34343D1*
X24418Y34225D1*
X24442Y34029D1*
X24433Y33904D1*
Y36857D2*
X24404Y36735D1*
X24357Y36620D1*
X24292Y36513D1*
X24212Y36417D1*
X24118Y36335D1*
X24013Y36268D1*
X23898Y36218D1*
X23777Y36187D1*
X23653Y36174D1*
X23529Y36181D1*
X23406Y36207D1*
X23290Y36251D1*
X23181Y36313D1*
X23084Y36391D1*
X22999Y36483D1*
X22930Y36587D1*
X22878Y36701D1*
X22844Y36821D1*
X22828Y36945D1*
X22832Y37070D1*
X22855Y37192D1*
X22897Y37310D1*
X22957Y37420D1*
X23032Y37519D1*
X23123Y37605D1*
X23225Y37677D1*
X23337Y37732D1*
X23456Y37769D1*
X23580Y37787D1*
X23705Y37786D1*
X23828Y37765D1*
X23947Y37726D1*
X24058Y37669D1*
X24159Y37596D1*
X24247Y37508D1*
X24321Y37407D1*
X24378Y37296D1*
X24418Y37178D1*
X24442Y36981D1*
X24433Y36857D1*
X38832Y21772D2*
X38935Y21815D1*
X39057Y21841D1*
X39181Y21843D1*
X39264Y21830D1*
Y23481D1*
X39132Y23493D1*
X39016Y23537D1*
X38911Y23605D1*
X38833Y23687D1*
X38831Y21771D1*
X43626Y9835D2*
X43569Y9766D1*
X43472Y9688D1*
X43361Y9630D1*
X43241Y9595D1*
X43117Y9585D1*
X42993Y9599D1*
X42915Y9624D1*
X42914Y4811D1*
X42990Y4728D1*
X43050Y4618D1*
X43088Y4456D1*
X44654Y4455D1*
X44557Y4633D1*
X44477Y4869D1*
X44441Y5116D1*
X44450Y5366D1*
X44504Y5609D1*
X44601Y5839D1*
X44739Y6048D1*
X44911Y6228D1*
X45114Y6374D1*
X45339Y6481D1*
X45580Y6546D1*
X45829Y6566D1*
X46078Y6541D1*
X46317Y6471D1*
X46541Y6360D1*
X46740Y6209D1*
X46909Y6025D1*
X47042Y5814D1*
X47134Y5582D1*
X47183Y5337D1*
X47191Y5190D1*
X47169Y4941D1*
X47101Y4701D1*
X46992Y4477D1*
X46977Y4454D1*
X48404Y4455D1*
X48307Y4633D1*
X48227Y4869D1*
X48191Y5116D1*
X48200Y5366D1*
X48254Y5609D1*
X48351Y5839D1*
X48489Y6048D1*
X48661Y6228D1*
X48864Y6374D1*
X49089Y6481D1*
X49330Y6546D1*
X49579Y6566D1*
X49828Y6541D1*
X50067Y6471D1*
X50291Y6360D1*
X50490Y6209D1*
X50659Y6025D1*
X50792Y5814D1*
X50884Y5582D1*
X50933Y5337D1*
X50941Y5190D1*
X50919Y4941D1*
X50851Y4701D1*
X50742Y4477D1*
X50727Y4454D1*
X55643Y4457D1*
X53915Y6185D1*
X53837Y6282D1*
X53782Y6394D1*
X53749Y6544D1*
X53748Y10589D1*
Y12374D1*
X53293Y12826D1*
X49363Y12825D1*
X49394Y12718D1*
X49401Y12628D1*
X49387Y12504D1*
X49346Y12387D1*
X49279Y12282D1*
X49226Y12230D1*
X49224Y7546D1*
X49300Y7462D1*
X49360Y7353D1*
X49394Y7233D1*
X49401Y7143D1*
X49387Y7019D1*
X49346Y6901D1*
X49279Y6796D1*
X49190Y6708D1*
X49084Y6643D1*
X48965Y6603D1*
X48841Y6591D1*
X48717Y6607D1*
X48601Y6651D1*
X48496Y6719D1*
X48410Y6810D1*
X48347Y6917D1*
X48309Y7036D1*
X48299Y7160D1*
X48317Y7283D1*
X48362Y7400D1*
X48432Y7503D1*
X48475Y7542D1*
Y12225D1*
X48410Y12295D1*
X48347Y12403D1*
X48309Y12521D1*
X48299Y12646D1*
X48317Y12769D1*
X48338Y12824D1*
X46770Y12825D1*
X46769Y11523D1*
X47733Y11521D1*
X47857Y11508D1*
X47975Y11468D1*
X48082Y11403D1*
X48171Y11316D1*
X48240Y11212D1*
X48285Y11096D1*
X48304Y10973D1*
X48295Y10848D1*
X48259Y10728D1*
X48199Y10620D1*
X48116Y10526D1*
X48015Y10453D1*
X47900Y10404D1*
X47733Y10379D1*
X46197D1*
X46073Y10393D1*
X45955Y10433D1*
X45849Y10498D1*
X45759Y10584D1*
X45690Y10688D1*
X45651Y10787D1*
X45569Y10766D1*
X45505Y10714D1*
X45596Y10635D1*
X45670Y10535D1*
X45722Y10421D1*
X45751Y10300D1*
X45757Y10215D1*
X45745Y10091D1*
X45708Y9972D1*
X45649Y9862D1*
X45569Y9766D1*
X45472Y9688D1*
X45361Y9630D1*
X45241Y9595D1*
X45117Y9585D1*
X44993Y9599D1*
X44874Y9638D1*
X44765Y9699D1*
X44671Y9780D1*
X44630Y9832D1*
X44569Y9766D1*
X44472Y9688D1*
X44361Y9630D1*
X44241Y9595D1*
X44117Y9585D1*
X43993Y9599D1*
X43874Y9638D1*
X43765Y9699D1*
X43671Y9780D1*
X43630Y9832D1*
X44619Y13588D2*
X44699Y13678D1*
X44746Y13713D1*
X44671Y13780D1*
X44594Y13878D1*
X44538Y13990D1*
X44505Y14110D1*
X44497Y14235D1*
X44506Y14308D1*
X43291Y15521D1*
X43219Y15622D1*
X43185Y15735D1*
X43182Y16286D1*
Y24016D1*
X43117Y24089D1*
X43053Y24196D1*
X43015Y24315D1*
X43005Y24440D1*
X43023Y24563D1*
X43068Y24679D1*
X43138Y24782D1*
X43230Y24867D1*
X43338Y24929D1*
X43458Y24965D1*
X43582Y24973D1*
X43705Y24953D1*
X43821Y24906D1*
X43923Y24834D1*
X44006Y24741D1*
X44066Y24632D1*
X44100Y24512D1*
X44108Y24422D1*
X44094Y24298D1*
X44052Y24181D1*
X43985Y24076D1*
X43932Y24024D1*
X43931Y21528D1*
X44018Y21619D1*
X44115Y21697D1*
X44227Y21752D1*
X44377Y21785D1*
X44715Y21786D1*
X44665Y21916D1*
X44646Y22061D1*
Y25151D1*
X42813D1*
X42816Y24347D1*
Y22744D1*
X42803Y22620D1*
X42762Y22502D1*
X42697Y22395D1*
X42611Y22305D1*
X42507Y22236D1*
X42391Y22192D1*
X42267Y22173D1*
X42143Y22182D1*
X42042Y22212D1*
X42041Y15385D1*
X42020Y15262D1*
X41965Y15158D1*
X41762Y14950D1*
X41660Y14878D1*
X41548Y14844D1*
X41423Y14841D1*
X42673Y13591D1*
X44616Y13589D1*
X24354Y40636D2*
X24325Y40515D1*
X24278Y40399D1*
X24214Y40292D1*
X24134Y40196D1*
X24040Y40114D1*
X23934Y40047D1*
X23820Y39998D1*
X23699Y39966D1*
X23574Y39954D1*
X23450Y39960D1*
X23328Y39986D1*
X23211Y40031D1*
X23103Y40093D1*
X23005Y40171D1*
X22921Y40263D1*
X22851Y40367D1*
X22799Y40480D1*
X22765Y40600D1*
X22750Y40724D1*
X22754Y40849D1*
X22777Y40972D1*
X22819Y41089D1*
X22878Y41199D1*
X22954Y41299D1*
X23044Y41385D1*
X23146Y41456D1*
X23258Y41511D1*
X23378Y41548D1*
X23501Y41566D1*
X23626Y41565D1*
X23749Y41545D1*
X23868Y41506D1*
X23979Y41449D1*
X24080Y41375D1*
X24166Y41290D1*
X24137Y41437D1*
X24127Y41713D1*
Y43146D1*
X24040Y43067D1*
X23934Y43000D1*
X23820Y42950D1*
X23699Y42919D1*
X23574Y42906D1*
X23450Y42913D1*
X23328Y42939D1*
X23211Y42984D1*
X23103Y43046D1*
X23005Y43124D1*
X22921Y43216D1*
X22851Y43320D1*
X22799Y43433D1*
X22765Y43553D1*
X22750Y43677D1*
X22754Y43802D1*
X22777Y43925D1*
X22819Y44042D1*
X22878Y44152D1*
X22954Y44251D1*
X23044Y44338D1*
X23146Y44409D1*
X23258Y44464D1*
X23378Y44501D1*
X23501Y44519D1*
X23626Y44518D1*
X23749Y44498D1*
X23868Y44458D1*
X23979Y44401D1*
X24080Y44328D1*
X24127Y44281D1*
Y46056D1*
X24134Y46181D1*
X24154Y46304D1*
X24189Y46424D1*
X24236Y46540D1*
X24296Y46649D1*
X24368Y46752D1*
X24544Y46938D1*
X25738Y48132D1*
X25723Y48182D1*
X25712D1*
X24074Y46542D1*
X23981Y46459D1*
X23879Y46386D1*
X23770Y46326D1*
X23655Y46277D1*
X23535Y46242D1*
X23412Y46221D1*
X23287Y46213D1*
X23162Y46220D1*
X23039Y46240D1*
X22919Y46273D1*
X22803Y46320D1*
X22693Y46379D1*
X22590Y46451D1*
X22496Y46533D1*
X22412Y46625D1*
X22338Y46726D1*
X22276Y46834D1*
X22227Y46949D1*
X22190Y47069D1*
X22167Y47191D1*
X22158Y47316D1*
X22163Y47441D1*
X22182Y47564D1*
X22214Y47685D1*
X22259Y47802D1*
X22318Y47912D1*
X22388Y48016D1*
X22575Y48218D1*
X24455Y50098D1*
X24549Y50181D1*
X24650Y50254D1*
X24760Y50314D1*
X24875Y50362D1*
X24995Y50397D1*
X25118Y50419D1*
X25374Y50427D1*
X30973D1*
X31098Y50420D1*
X31221Y50399D1*
X31341Y50365D1*
X31457Y50317D1*
X31567Y50257D1*
X31669Y50185D1*
X31855Y50009D1*
X32622Y49233D1*
X32694Y49131D1*
X32755Y49022D1*
X32803Y48907D1*
X32838Y48787D1*
X32860Y48664D1*
X32868Y48407D1*
Y47044D1*
X32947Y47203D1*
X33017Y47307D1*
X33205Y47509D1*
X33958Y48252D1*
X34060Y48324D1*
X34169Y48385D1*
X34284Y48433D1*
X34404Y48468D1*
X34527Y48490D1*
X34652Y48497D1*
X34777Y48491D1*
X34900Y48471D1*
X35020Y48438D1*
X35136Y48391D1*
X35246Y48331D1*
X35349Y48260D1*
X35443Y48178D1*
X35527Y48086D1*
X35601Y47985D1*
X35663Y47876D1*
X35712Y47762D1*
X35749Y47642D1*
X35772Y47519D1*
X35781Y47395D1*
X35776Y47270D1*
X35757Y47146D1*
X35725Y47026D1*
X35680Y46909D1*
X35622Y46799D1*
X35552Y46695D1*
X35364Y46493D1*
X35035Y46164D1*
X35033Y44732D1*
X36863Y44734D1*
X37015Y44722D1*
X36905Y44900D1*
X36855Y45014D1*
X36818Y45133D1*
X36794Y45256D1*
X36784Y45532D1*
Y47375D1*
X36791Y47500D1*
X36812Y47623D1*
X36846Y47743D1*
X36894Y47859D1*
X36954Y47968D1*
X37026Y48070D1*
X37108Y48164D1*
X37201Y48248D1*
X37302Y48321D1*
X37411Y48382D1*
X37526Y48431D1*
X37646Y48467D1*
X37769Y48489D1*
X37893Y48497D1*
X38018Y48492D1*
X38142Y48473D1*
X38262Y48440D1*
X38378Y48393D1*
X38489Y48335D1*
X38592Y48264D1*
X38686Y48182D1*
X38771Y48091D1*
X38845Y47990D1*
X38908Y47882D1*
X38958Y47768D1*
X38995Y47648D1*
X39019Y47526D1*
X39029Y47250D1*
Y46512D1*
X39187Y46471D1*
X39304Y46425D1*
X39414Y46366D1*
X39517Y46296D1*
X39611Y46214D1*
X39696Y46122D1*
X39770Y46022D1*
X39833Y45914D1*
X39883Y45799D1*
X39920Y45680D1*
X39944Y45557D1*
X39954Y45282D1*
Y41627D1*
X39947Y41502D1*
X39926Y41379D1*
X39892Y41259D1*
X39845Y41143D1*
X39785Y41034D1*
X39713Y40932D1*
X39630Y40838D1*
X39537Y40754D1*
X39436Y40681D1*
X39327Y40620D1*
X39212Y40571D1*
X39092Y40535D1*
X38969Y40513D1*
X38707Y40505D1*
X37586D1*
X37736Y40348D1*
X37809Y40247D1*
X37870Y40138D1*
X37919Y40023D1*
X37955Y39903D1*
X37977Y39780D1*
X37986Y39656D1*
X37980Y39531D1*
X37961Y39408D1*
X37928Y39287D1*
X37882Y39171D1*
X37823Y39061D1*
X37752Y38958D1*
X37671Y38863D1*
X37579Y38778D1*
X37478Y38704D1*
X37370Y38641D1*
X37256Y38591D1*
X37137Y38554D1*
X37014Y38531D1*
X36738Y38520D1*
X33910D1*
X33786Y38527D1*
X33663Y38548D1*
X33542Y38582D1*
X33427Y38630D1*
X33317Y38690D1*
X33215Y38762D1*
X33121Y38844D1*
X33038Y38937D1*
X32965Y39039D1*
X32903Y39147D1*
X32854Y39262D1*
X32819Y39382D1*
X32797Y39505D1*
X32788Y39630D1*
X32794Y39755D1*
X32813Y39878D1*
X32846Y39998D1*
X32892Y40115D1*
X32951Y40225D1*
X33021Y40328D1*
X33103Y40422D1*
X33195Y40507D1*
X33295Y40582D1*
X33387Y40634D1*
X33215Y40746D1*
X33121Y40829D1*
X33038Y40921D1*
X32965Y41023D1*
X32903Y41132D1*
X32854Y41247D1*
X32819Y41366D1*
X32797Y41489D1*
X32788Y41614D1*
X32794Y41739D1*
X32813Y41862D1*
X32846Y41983D1*
X32892Y42099D1*
X32951Y42209D1*
X33021Y42312D1*
X33103Y42407D1*
X33195Y42492D1*
X33295Y42566D1*
X33387Y42619D1*
X33225Y42722D1*
X33131Y42804D1*
X33046Y42896D1*
X32972Y42996D1*
X32909Y43104D1*
X32859Y43219D1*
X32822Y43338D1*
X32798Y43461D1*
X32788Y43736D1*
Y45725D1*
X32708Y45566D1*
X32638Y45462D1*
X32450Y45260D1*
X31622Y44432D1*
X31541Y44359D1*
X31450Y44225D1*
X31443Y43447D1*
X31422Y43324D1*
X31388Y43204D1*
X31341Y43088D1*
X31281Y42979D1*
X31209Y42876D1*
X31126Y42783D1*
X31033Y42699D1*
X30854Y42582D1*
X31023Y42469D1*
X31117Y42386D1*
X31201Y42293D1*
X31274Y42192D1*
X31335Y42083D1*
X31384Y41968D1*
X31420Y41848D1*
X31442Y41725D1*
X31450Y41601D1*
X31445Y41476D1*
X31425Y41352D1*
X31392Y41232D1*
X31346Y41116D1*
X31287Y41006D1*
X31217Y40903D1*
X31135Y40808D1*
X31044Y40723D1*
X30943Y40649D1*
X30852Y40596D1*
X31023Y40484D1*
X31117Y40402D1*
X31201Y40309D1*
X31274Y40208D1*
X31335Y40099D1*
X31384Y39984D1*
X31420Y39864D1*
X31442Y39741D1*
X31450Y39616D1*
X31445Y39492D1*
X31425Y39368D1*
X31392Y39248D1*
X31346Y39132D1*
X31287Y39021D1*
X31217Y38918D1*
X31135Y38824D1*
X31044Y38739D1*
X30943Y38665D1*
X30835Y38602D1*
X30720Y38552D1*
X30601Y38515D1*
X30478Y38491D1*
X30203Y38481D1*
X27375D1*
X27250Y38488D1*
X27127Y38509D1*
X27007Y38543D1*
X26891Y38591D1*
X26782Y38651D1*
X26680Y38722D1*
X26586Y38805D1*
X26502Y38898D1*
X26429Y38999D1*
X26368Y39108D1*
X26319Y39223D1*
X26283Y39343D1*
X26261Y39466D1*
X26253Y39590D1*
X26258Y39715D1*
X26278Y39839D1*
X26310Y39959D1*
X26357Y40075D1*
X26415Y40185D1*
X26486Y40289D1*
X26568Y40383D1*
X26656Y40465D1*
X25249D1*
X25124Y40472D1*
X25001Y40493D1*
X24881Y40527D1*
X24765Y40575D1*
X24656Y40635D1*
X24554Y40707D1*
X24460Y40789D1*
X24382Y40875D1*
X24360Y40834D1*
X24354Y40636D1*
X28173Y33471D2*
X28144Y33349D1*
X28097Y33234D1*
X28033Y33127D1*
X27952Y33031D1*
X27858Y32949D1*
X27753Y32882D1*
X27638Y32832D1*
X27518Y32801D1*
X27393Y32788D1*
X27269Y32795D1*
X27147Y32821D1*
X27030Y32866D1*
X26921Y32928D1*
X26824Y33005D1*
X26739Y33098D1*
X26670Y33201D1*
X26618Y33315D1*
X26584Y33435D1*
X26568Y33559D1*
X26572Y33684D1*
X26596Y33806D1*
X26637Y33924D1*
X26697Y34034D1*
X26773Y34133D1*
X26863Y34220D1*
X26965Y34291D1*
X27077Y34346D1*
X27197Y34383D1*
X27320Y34401D1*
X27445Y34400D1*
X27568Y34380D1*
X27687Y34340D1*
X27798Y34283D1*
X27899Y34210D1*
X27987Y34122D1*
X28061Y34021D1*
X28119Y33910D1*
X28158Y33792D1*
X28182Y33596D1*
X28173Y33471D1*
X30327Y32789D2*
X30221Y32795D1*
X30099Y32821D1*
X29983Y32866D1*
X29874Y32928D1*
X29777Y33005D1*
X29692Y33098D1*
X29623Y33201D1*
X29571Y33315D1*
X29536Y33435D1*
X29521Y33559D1*
X29525Y33684D1*
X29548Y33806D1*
X29590Y33924D1*
X29650Y34034D1*
X29725Y34133D1*
X29815Y34220D1*
X29918Y34291D1*
X30030Y34346D1*
X30149Y34383D1*
X30273Y34401D1*
X30398Y34400D1*
X30521Y34380D1*
X30640Y34340D1*
X30751Y34283D1*
X30852Y34210D1*
X30940Y34122D1*
X31014Y34021D1*
X31071Y33910D1*
X31111Y33792D1*
X31135Y33598D1*
X31863Y32868D1*
X31941Y32771D1*
X31996Y32659D1*
X32029Y32508D1*
X32031Y31952D1*
X36963Y31954D1*
X37049Y31997D1*
X37168Y32033D1*
X37292Y32042D1*
X37416Y32022D1*
X37531Y31975D1*
X37633Y31903D1*
X37716Y31810D1*
X37777Y31701D1*
X37811Y31581D1*
X37818Y31491D1*
X37804Y31367D1*
X37762Y31249D1*
X37695Y31144D1*
X37607Y31057D1*
X37500Y30991D1*
X37382Y30952D1*
X37258Y30939D1*
X37134Y30955D1*
X37017Y30999D1*
X36975Y31027D1*
X31794Y31028D1*
X31721Y30983D1*
X31605Y30938D1*
X31482Y30920D1*
X31357Y30929D1*
X31238Y30964D1*
X31129Y31025D1*
X31035Y31108D1*
X30962Y31209D1*
X30913Y31324D1*
X30888Y31491D1*
Y32229D1*
X30329Y32786D1*
X59237Y32762D2*
X59208Y32641D1*
X59161Y32525D1*
X59097Y32418D1*
X59017Y32322D1*
X58923Y32240D1*
X58817Y32173D1*
X58703Y32124D1*
X58582Y32092D1*
X58458Y32080D1*
X58299Y32094D1*
X54670Y28463D1*
X54571Y28388D1*
X54422Y28334D1*
X54218Y28328D1*
X41297D1*
X41056Y28363D1*
X40939Y28407D1*
X40835Y28475D1*
X40749Y28566D1*
X40685Y28673D1*
X40647Y28792D1*
X40637Y28916D1*
X40655Y29040D1*
X40676Y29094D1*
X40423Y29095D1*
X40427Y28254D1*
Y27961D1*
X43492Y27960D1*
X43569Y28030D1*
X43677Y28092D1*
X43797Y28128D1*
X43921Y28136D1*
X44044Y28117D1*
X44160Y28069D1*
X44262Y27998D1*
X44345Y27905D1*
X44389Y27832D1*
X44489Y27906D1*
X44608Y27943D1*
X45159Y27946D1*
X48069D1*
X48151Y28017D1*
X48259Y28079D1*
X48379Y28115D1*
X48503Y28123D1*
X48626Y28103D1*
X48742Y28056D1*
X48844Y27984D1*
X48927Y27891D1*
X48987Y27782D1*
X49022Y27662D1*
X49027Y27592D1*
X59137D1*
X59680Y28134D1*
X59679Y32885D1*
X59225Y33341D1*
X59108Y33339D1*
X59183Y33202D1*
X59223Y33083D1*
X59247Y32887D1*
X59237Y32762D1*
X56284Y38770D2*
X56256Y38649D1*
X56209Y38533D1*
X56144Y38426D1*
X56064Y38330D1*
X55970Y38248D1*
X55865Y38181D1*
X55750Y38131D1*
X55629Y38100D1*
X55505Y38087D1*
X55380Y38094D1*
X55258Y38120D1*
X55141Y38165D1*
X55033Y38227D1*
X54935Y38305D1*
X54851Y38397D1*
X54782Y38501D1*
X54730Y38614D1*
X54695Y38734D1*
X54680Y38858D1*
X54684Y38983D1*
X54707Y39106D1*
X54749Y39223D1*
X54809Y39333D1*
X54884Y39432D1*
X54974Y39519D1*
X55077Y39590D1*
X55189Y39645D1*
X55308Y39682D1*
X55432Y39700D1*
X55557Y39699D1*
X55680Y39679D1*
X55798Y39640D1*
X55909Y39583D1*
X56010Y39509D1*
X56099Y39421D1*
X56173Y39320D1*
X56230Y39209D1*
X56270Y39091D1*
X56294Y38895D1*
X56284Y38770D1*
X59237Y42739D2*
X59208Y42617D1*
X59161Y42502D1*
X59097Y42395D1*
X59017Y42299D1*
X58923Y42217D1*
X58817Y42150D1*
X58703Y42100D1*
X58582Y42068D1*
X58458Y42056D1*
X58333Y42063D1*
X58211Y42089D1*
X58094Y42133D1*
X57986Y42195D1*
X57888Y42273D1*
X57804Y42365D1*
X57735Y42469D1*
X57682Y42583D1*
X57648Y42703D1*
X57633Y42827D1*
X57637Y42951D1*
X57660Y43074D1*
X57702Y43192D1*
X57761Y43302D1*
X57837Y43401D1*
X57927Y43487D1*
X58029Y43559D1*
X58142Y43614D1*
X58261Y43651D1*
X58384Y43669D1*
X58509Y43668D1*
X58633Y43647D1*
X58751Y43608D1*
X58862Y43551D1*
X58963Y43478D1*
X59052Y43390D1*
X59126Y43289D1*
X59183Y43178D1*
X59223Y43060D1*
X59247Y42863D1*
X59237Y42739D1*
X64198Y32762D2*
X64169Y32641D1*
X64122Y32525D1*
X64058Y32418D1*
X63977Y32322D1*
X63883Y32240D1*
X63778Y32173D1*
X63663Y32124D1*
X63543Y32092D1*
X63418Y32080D1*
X63294Y32086D1*
X63172Y32112D1*
X63055Y32157D1*
X62946Y32219D1*
X62849Y32297D1*
X62764Y32389D1*
X62695Y32493D1*
X62643Y32606D1*
X62609Y32726D1*
X62593Y32850D1*
X62597Y32975D1*
X62621Y33098D1*
X62662Y33215D1*
X62722Y33325D1*
X62798Y33425D1*
X62888Y33511D1*
X62990Y33582D1*
X63102Y33637D1*
X63222Y33674D1*
X63345Y33692D1*
X63470Y33691D1*
X63593Y33671D1*
X63712Y33632D1*
X63823Y33575D1*
X63924Y33501D1*
X64012Y33413D1*
X64086Y33312D1*
X64144Y33202D1*
X64183Y33083D1*
X64207Y32887D1*
X64198Y32762D1*
X67151D2*
X67122Y32641D1*
X67075Y32525D1*
X67010Y32418D1*
X66930Y32322D1*
X66836Y32240D1*
X66731Y32173D1*
X66616Y32124D1*
X66495Y32092D1*
X66371Y32080D1*
X66246Y32086D1*
X66124Y32112D1*
X66008Y32157D1*
X65899Y32219D1*
X65802Y32297D1*
X65717Y32389D1*
X65648Y32493D1*
X65596Y32606D1*
X65561Y32726D1*
X65547Y32885D1*
X63703Y34729D1*
X62313Y34731D1*
X54699D1*
X54575Y34744D1*
X54457Y34785D1*
X54351Y34849D1*
X54261Y34936D1*
X54192Y35040D1*
X54147Y35156D1*
X54128Y35280D1*
X54137Y35404D1*
X54173Y35524D1*
X54233Y35633D1*
X54316Y35726D1*
X54418Y35799D1*
X54532Y35848D1*
X54699Y35873D1*
X63938D1*
X64062Y35860D1*
X64180Y35819D1*
X64309Y35736D1*
X66355Y33692D1*
X66423Y33691D1*
X66546Y33671D1*
X66664Y33632D1*
X66776Y33575D1*
X66877Y33501D1*
X66965Y33413D1*
X67039Y33312D1*
X67096Y33202D1*
X67136Y33083D1*
X67160Y32887D1*
X67151Y32762D1*
X64198Y40754D2*
X64169Y40633D1*
X64122Y40517D1*
X64058Y40410D1*
X63977Y40315D1*
X63883Y40232D1*
X63778Y40165D1*
X63663Y40116D1*
X63543Y40084D1*
X63418Y40072D1*
X63294Y40079D1*
X63172Y40105D1*
X63055Y40149D1*
X62946Y40211D1*
X62849Y40289D1*
X62764Y40381D1*
X62695Y40485D1*
X62643Y40598D1*
X62609Y40718D1*
X62593Y40842D1*
X62597Y40967D1*
X62621Y41090D1*
X62662Y41208D1*
X62722Y41317D1*
X62798Y41417D1*
X62888Y41503D1*
X62990Y41575D1*
X63102Y41630D1*
X63222Y41666D1*
X63345Y41685D1*
X63470Y41683D1*
X63593Y41663D1*
X63712Y41624D1*
X63823Y41567D1*
X63924Y41493D1*
X64012Y41405D1*
X64086Y41305D1*
X64144Y41194D1*
X64183Y41075D1*
X64207Y40879D1*
X64198Y40754D1*
X72466Y32841D2*
X72437Y32720D1*
X72390Y32604D1*
X72325Y32497D1*
X72245Y32401D1*
X72151Y32319D1*
X72046Y32252D1*
X71931Y32202D1*
X71810Y32171D1*
X71686Y32158D1*
X71561Y32165D1*
X71439Y32191D1*
X71323Y32236D1*
X71214Y32298D1*
X71117Y32376D1*
X71032Y32468D1*
X70963Y32572D1*
X70911Y32685D1*
X70876Y32805D1*
X70861Y32929D1*
X70865Y33054D1*
X70888Y33176D1*
X70930Y33294D1*
X70990Y33404D1*
X71065Y33503D1*
X71155Y33590D1*
X71258Y33661D1*
X71370Y33716D1*
X71489Y33753D1*
X71613Y33771D1*
X71738Y33770D1*
X71861Y33750D1*
X71979Y33710D1*
X72091Y33653D1*
X72192Y33580D1*
X72280Y33492D1*
X72354Y33391D1*
X72411Y33280D1*
X72451Y33162D1*
X72475Y32966D1*
X72466Y32841D1*
X75418D2*
X75390Y32720D1*
X75342Y32604D1*
X75278Y32497D1*
X75189Y32393D1*
X75192Y31352D1*
X75595Y30952D1*
X75673Y30855D1*
X75728Y30743D1*
X75758Y30622D1*
X75760Y30497D1*
X75735Y30375D1*
X75685Y30261D1*
X75610Y30160D1*
X75516Y30079D1*
X75407Y30019D1*
X75287Y29985D1*
X75162Y29978D1*
X75039Y29998D1*
X74923Y30044D1*
X74787Y30144D1*
X74217Y30715D1*
X74139Y30812D1*
X74083Y30924D1*
X74051Y31074D1*
X74049Y32396D1*
X73985Y32468D1*
X73916Y32572D1*
X73863Y32685D1*
X73829Y32805D1*
X73814Y32929D1*
X73818Y33054D1*
X73841Y33176D1*
X73883Y33294D1*
X73942Y33404D1*
X74018Y33503D1*
X74108Y33590D1*
X74211Y33661D1*
X74323Y33716D1*
X74442Y33753D1*
X74566Y33771D1*
X74690Y33770D1*
X74814Y33750D1*
X74932Y33710D1*
X75043Y33653D1*
X75144Y33580D1*
X75233Y33492D1*
X75307Y33391D1*
X75364Y33280D1*
X75404Y33162D1*
X75428Y32966D1*
X75418Y32841D1*
X72466Y42817D2*
X72437Y42696D1*
X72390Y42580D1*
X72325Y42473D1*
X72245Y42378D1*
X72151Y42295D1*
X72046Y42228D1*
X71931Y42179D1*
X71810Y42147D1*
X71686Y42135D1*
X71561Y42142D1*
X71439Y42168D1*
X71323Y42212D1*
X71214Y42274D1*
X71117Y42352D1*
X71032Y42444D1*
X70963Y42548D1*
X70911Y42661D1*
X70876Y42781D1*
X70861Y42905D1*
X70865Y43030D1*
X70888Y43153D1*
X70930Y43270D1*
X70990Y43380D1*
X71065Y43480D1*
X71155Y43566D1*
X71258Y43638D1*
X71370Y43692D1*
X71489Y43729D1*
X71613Y43748D1*
X71738Y43746D1*
X71861Y43726D1*
X71979Y43687D1*
X72091Y43630D1*
X72192Y43556D1*
X72280Y43468D1*
X72354Y43368D1*
X72411Y43257D1*
X72451Y43138D1*
X72475Y42942D1*
X72466Y42817D1*
X81338Y32636D2*
X81309Y32515D1*
X81262Y32399D1*
X81198Y32292D1*
X81118Y32196D1*
X81024Y32114D1*
X80918Y32047D1*
X80804Y31997D1*
X80683Y31966D1*
X80559Y31954D1*
X80434Y31960D1*
X80312Y31986D1*
X80195Y32031D1*
X80087Y32093D1*
X79989Y32171D1*
X79905Y32263D1*
X79836Y32367D1*
X79783Y32480D1*
X79749Y32600D1*
X79734Y32724D1*
X79738Y32849D1*
X79761Y32972D1*
X79803Y33089D1*
X79862Y33199D1*
X79938Y33298D1*
X80028Y33385D1*
X80130Y33456D1*
X80243Y33511D1*
X80362Y33548D1*
X80485Y33566D1*
X80610Y33565D1*
X80733Y33545D1*
X80852Y33506D1*
X80963Y33449D1*
X81064Y33375D1*
X81153Y33287D1*
X81226Y33186D1*
X81284Y33075D1*
X81324Y32957D1*
X81348Y32761D1*
X81338Y32636D1*
X42270Y47250D2*
X42249Y47127D1*
X42215Y47007D1*
X42167Y46891D1*
X42107Y46782D1*
X42036Y46680D1*
X41953Y46586D1*
X41860Y46502D1*
X41759Y46429D1*
X41650Y46368D1*
X41535Y46319D1*
X41415Y46283D1*
X41292Y46261D1*
X41168Y46253D1*
X41043Y46258D1*
X40919Y46278D1*
X40799Y46310D1*
X40683Y46357D1*
X40572Y46415D1*
X40469Y46486D1*
X40375Y46568D1*
X40290Y46659D1*
X40216Y46760D1*
X40153Y46868D1*
X40103Y46982D1*
X40066Y47102D1*
X40042Y47224D1*
X40032Y47349D1*
X40037Y47474D1*
X40054Y47597D1*
X40086Y47718D1*
X40131Y47835D1*
X40188Y47946D1*
X40258Y48050D1*
X40338Y48145D1*
X40429Y48231D1*
X40528Y48307D1*
X40636Y48370D1*
X40750Y48422D1*
X40869Y48460D1*
X40991Y48485D1*
X41115Y48497D1*
X41240Y48494D1*
X41364Y48478D1*
X41485Y48448D1*
X41603Y48404D1*
X41714Y48348D1*
X41819Y48280D1*
X41915Y48200D1*
X42002Y48111D1*
X42079Y48012D1*
X42144Y47905D1*
X42197Y47792D1*
X42237Y47674D1*
X42263Y47552D1*
X42277Y47375D1*
X42270Y47250D1*
X58431Y47211D2*
X58411Y47088D1*
X58376Y46968D1*
X58329Y46852D1*
X58269Y46742D1*
X58197Y46640D1*
X58114Y46547D1*
X58022Y46463D1*
X57920Y46390D1*
X57811Y46329D1*
X57696Y46280D1*
X57577Y46244D1*
X57454Y46222D1*
X57329Y46213D1*
X57204Y46219D1*
X57081Y46238D1*
X56960Y46271D1*
X56844Y46317D1*
X56734Y46376D1*
X56631Y46447D1*
X56536Y46528D1*
X56451Y46620D1*
X56377Y46720D1*
X56315Y46829D1*
X56265Y46943D1*
X56227Y47062D1*
X56204Y47185D1*
X56194Y47310D1*
X56198Y47434D1*
X56216Y47558D1*
X56247Y47679D1*
X56292Y47796D1*
X56350Y47907D1*
X56419Y48010D1*
X56500Y48106D1*
X56590Y48192D1*
X56690Y48267D1*
X56797Y48331D1*
X56911Y48383D1*
X57030Y48421D1*
X57152Y48446D1*
X57277Y48457D1*
X57402Y48455D1*
X57526Y48438D1*
X57647Y48408D1*
X57764Y48365D1*
X57876Y48309D1*
X57980Y48240D1*
X58077Y48161D1*
X58164Y48071D1*
X58240Y47973D1*
X58305Y47866D1*
X58358Y47753D1*
X58398Y47634D1*
X58424Y47512D1*
X58438Y47336D1*
X58431Y47211D1*
X73176D2*
X73155Y47088D1*
X73120Y46968D1*
X73073Y46852D1*
X73013Y46742D1*
X72941Y46640D1*
X72858Y46547D1*
X72766Y46463D1*
X72664Y46390D1*
X72555Y46329D1*
X72440Y46280D1*
X72321Y46244D1*
X72198Y46222D1*
X72073Y46213D1*
X71948Y46219D1*
X71825Y46238D1*
X71704Y46271D1*
X71588Y46317D1*
X71478Y46376D1*
X71375Y46447D1*
X71280Y46528D1*
X71195Y46620D1*
X71121Y46720D1*
X71059Y46829D1*
X71009Y46943D1*
X70971Y47062D1*
X70948Y47185D1*
X70938Y47310D1*
X70942Y47434D1*
X70960Y47558D1*
X70991Y47679D1*
X71036Y47796D1*
X71094Y47907D1*
X71163Y48010D1*
X71244Y48106D1*
X71334Y48192D1*
X71434Y48267D1*
X71541Y48331D1*
X71655Y48383D1*
X71774Y48421D1*
X71896Y48446D1*
X72021Y48457D1*
X72146Y48455D1*
X72270Y48438D1*
X72391Y48408D1*
X72508Y48365D1*
X72620Y48309D1*
X72724Y48240D1*
X72821Y48161D1*
X72908Y48071D1*
X72984Y47973D1*
X73049Y47866D1*
X73102Y47753D1*
X73142Y47634D1*
X73169Y47512D1*
X73182Y47336D1*
X73176Y47211D1*
X81345D2*
X81324Y47088D1*
X81290Y46968D1*
X81242Y46852D1*
X81182Y46742D1*
X81110Y46640D1*
X81028Y46547D1*
X80935Y46463D1*
X80834Y46390D1*
X80725Y46329D1*
X80610Y46280D1*
X80490Y46244D1*
X80367Y46222D1*
X80242Y46213D1*
X80118Y46219D1*
X79994Y46238D1*
X79874Y46271D1*
X79758Y46317D1*
X79647Y46376D1*
X79544Y46447D1*
X79450Y46528D1*
X79365Y46620D1*
X79291Y46720D1*
X79228Y46829D1*
X79178Y46943D1*
X79141Y47062D1*
X79117Y47185D1*
X79107Y47310D1*
X79111Y47434D1*
X79129Y47558D1*
X79161Y47679D1*
X79206Y47796D1*
X79263Y47907D1*
X79332Y48010D1*
X79413Y48106D1*
X79504Y48192D1*
X79603Y48267D1*
X79711Y48331D1*
X79825Y48383D1*
X79943Y48421D1*
X80066Y48446D1*
X80190Y48457D1*
X80315Y48455D1*
X80439Y48438D1*
X80560Y48408D1*
X80677Y48365D1*
X80789Y48309D1*
X80894Y48240D1*
X80990Y48161D1*
X81077Y48071D1*
X81154Y47973D1*
X81219Y47866D1*
X81271Y47753D1*
X81311Y47634D1*
X81338Y47512D1*
X81352Y47336D1*
X81345Y47211D1*
X50865Y24416D2*
X50824Y24299D1*
X50757Y24194D1*
X50668Y24106D1*
X50562Y24041D1*
X50443Y24001D1*
X50319Y23989D1*
X50195Y24005D1*
X50079Y24048D1*
X49974Y24117D1*
X49929Y24165D1*
X48175Y24166D1*
X48109Y24106D1*
X48002Y24041D1*
X47884Y24001D1*
X47760Y23989D1*
X47636Y24005D1*
X47519Y24048D1*
X47415Y24117D1*
X47329Y24207D1*
X47266Y24315D1*
X47228Y24433D1*
X47217Y24558D1*
X47235Y24681D1*
X47281Y24797D1*
X47351Y24900D1*
X47443Y24985D1*
X47551Y25047D1*
X47670Y25083D1*
X47795Y25091D1*
X47918Y25071D1*
X48033Y25024D1*
X48135Y24952D1*
X48169Y24915D1*
X49921D1*
X50002Y24985D1*
X50110Y25047D1*
X50229Y25083D1*
X50354Y25091D1*
X50477Y25071D1*
X50592Y25024D1*
X50694Y24952D1*
X50778Y24860D1*
X50838Y24750D1*
X50872Y24630D1*
X50879Y24540D1*
X50865Y24416D1*
X59967Y37772D2*
X58439D1*
X58315Y37779D1*
X58191Y37800D1*
X58071Y37834D1*
X57956Y37882D1*
X57846Y37942D1*
X57744Y38014D1*
X57650Y38096D1*
X57567Y38189D1*
X57494Y38290D1*
X57432Y38399D1*
X57383Y38514D1*
X57348Y38634D1*
X57325Y38757D1*
X57317Y38882D1*
X57323Y39006D1*
X57342Y39130D1*
X57375Y39250D1*
X57421Y39367D1*
X57480Y39477D1*
X57550Y39580D1*
X57632Y39674D1*
X57721Y39757D1*
X55487D1*
X55362Y39764D1*
X55239Y39784D1*
X55119Y39819D1*
X55003Y39866D1*
X54893Y39926D1*
X54791Y39998D1*
X54698Y40081D1*
X54614Y40173D1*
X54541Y40275D1*
X54479Y40384D1*
X54431Y40499D1*
X54395Y40618D1*
X54373Y40741D1*
X54364Y40866D1*
X54370Y40991D1*
X54389Y41114D1*
X54422Y41235D1*
X54468Y41351D1*
X54527Y41461D1*
X54598Y41564D1*
X54679Y41659D1*
X54771Y41744D1*
X54871Y41818D1*
X54963Y41871D1*
X54802Y41974D1*
X54707Y42056D1*
X54622Y42147D1*
X54548Y42248D1*
X54485Y42356D1*
X54435Y42471D1*
X54398Y42590D1*
X54374Y42713D1*
X54364Y42988D1*
X54362Y43394D1*
X53943Y43401D1*
X53820Y43422D1*
X53700Y43456D1*
X53584Y43504D1*
X53475Y43564D1*
X53373Y43636D1*
X53279Y43719D1*
X53195Y43811D1*
X53122Y43913D1*
X53061Y44021D1*
X53012Y44136D1*
X52976Y44256D1*
X52954Y44379D1*
X52946Y44642D1*
Y47336D1*
X52953Y47460D1*
X52973Y47584D1*
X53008Y47704D1*
X53055Y47819D1*
X53115Y47929D1*
X53187Y48031D1*
X53270Y48125D1*
X53362Y48209D1*
X53464Y48282D1*
X53573Y48343D1*
X53688Y48392D1*
X53807Y48427D1*
X53930Y48450D1*
X54055Y48458D1*
X54180Y48452D1*
X54303Y48433D1*
X54424Y48400D1*
X54540Y48354D1*
X54650Y48295D1*
X54753Y48225D1*
X54848Y48143D1*
X54933Y48051D1*
X55007Y47951D1*
X55069Y47843D1*
X55119Y47728D1*
X55157Y47609D1*
X55180Y47486D1*
X55190Y47211D1*
X55193Y45639D1*
X55611Y45632D1*
X55735Y45611D1*
X55855Y45577D1*
X55970Y45530D1*
X56080Y45470D1*
X56182Y45398D1*
X56276Y45315D1*
X56360Y45222D1*
X56433Y45121D1*
X56494Y45012D1*
X56543Y44897D1*
X56578Y44777D1*
X56601Y44654D1*
X56609Y44392D1*
Y42863D1*
X56602Y42738D1*
X56581Y42615D1*
X56547Y42495D1*
X56500Y42380D1*
X56439Y42270D1*
X56368Y42168D1*
X56285Y42074D1*
X56207Y42003D1*
X57987Y42001D1*
X58564Y41994D1*
X58687Y41974D1*
X58807Y41939D1*
X58923Y41892D1*
X59033Y41832D1*
X59135Y41760D1*
X59228Y41677D1*
X59312Y41585D1*
X59385Y41483D1*
X59441Y41385D1*
X59442Y47336D1*
X59449Y47460D1*
X59469Y47584D1*
X59504Y47704D1*
X59551Y47819D1*
X59611Y47929D1*
X59683Y48031D1*
X59766Y48125D1*
X59858Y48209D1*
X59960Y48282D1*
X60069Y48343D1*
X60184Y48392D1*
X60303Y48427D1*
X60426Y48450D1*
X60551Y48458D1*
X60676Y48452D1*
X60799Y48433D1*
X60920Y48400D1*
X61036Y48354D1*
X61146Y48295D1*
X61249Y48225D1*
X61344Y48143D1*
X61429Y48051D1*
X61503Y47951D1*
X61565Y47843D1*
X61615Y47728D1*
X61653Y47609D1*
X61676Y47486D1*
X61686Y47211D1*
Y39367D1*
X61679Y39242D1*
X61659Y39119D1*
X61624Y38999D1*
X61577Y38884D1*
X61517Y38774D1*
X61445Y38672D1*
X61269Y38485D1*
X60792Y38018D1*
X60690Y37945D1*
X60581Y37885D1*
X60466Y37837D1*
X60346Y37802D1*
X60223Y37780D1*
X59967Y37772D1*
X66228D2*
X63400D1*
X63275Y37779D1*
X63152Y37800D1*
X63032Y37834D1*
X62916Y37882D1*
X62807Y37942D1*
X62705Y38014D1*
X62611Y38096D1*
X62527Y38189D1*
X62454Y38290D1*
X62393Y38399D1*
X62344Y38514D1*
X62308Y38634D1*
X62286Y38757D1*
X62278Y38882D1*
X62283Y39006D1*
X62303Y39130D1*
X62335Y39250D1*
X62382Y39367D1*
X62440Y39477D1*
X62511Y39580D1*
X62593Y39674D1*
X62684Y39759D1*
X62785Y39833D1*
X62893Y39896D1*
X63007Y39946D1*
X63127Y39983D1*
X63249Y40007D1*
X63525Y40017D1*
X65630D1*
X65480Y40173D1*
X65407Y40275D1*
X65346Y40384D1*
X65297Y40499D1*
X65261Y40618D1*
X65239Y40741D1*
X65230Y40866D1*
X65236Y40991D1*
X65255Y41114D1*
X65288Y41235D1*
X65334Y41351D1*
X65393Y41461D1*
X65464Y41564D1*
X65545Y41659D1*
X65634Y41741D1*
X63400D1*
X63275Y41748D1*
X63152Y41769D1*
X63032Y41803D1*
X62916Y41850D1*
X62807Y41910D1*
X62705Y41982D1*
X62611Y42065D1*
X62527Y42158D1*
X62454Y42259D1*
X62393Y42368D1*
X62344Y42483D1*
X62308Y42603D1*
X62286Y42726D1*
X62278Y42850D1*
X62283Y42975D1*
X62303Y43098D1*
X62335Y43219D1*
X62382Y43335D1*
X62440Y43445D1*
X62511Y43548D1*
X62593Y43643D1*
X62684Y43728D1*
X62785Y43802D1*
X62893Y43865D1*
X63007Y43915D1*
X63127Y43952D1*
X63249Y43975D1*
X63525Y43986D1*
X63931Y43988D1*
Y46825D1*
X63938Y46950D1*
X63959Y47073D1*
X63993Y47193D1*
X64041Y47309D1*
X64101Y47418D1*
X64173Y47521D1*
X64348Y47707D1*
X64863Y48213D1*
X64965Y48285D1*
X65075Y48346D1*
X65190Y48394D1*
X65310Y48429D1*
X65433Y48450D1*
X65557Y48458D1*
X65682Y48452D1*
X65806Y48432D1*
X65926Y48398D1*
X66042Y48351D1*
X66152Y48292D1*
X66254Y48221D1*
X66348Y48139D1*
X66433Y48046D1*
X66506Y47945D1*
X66568Y47837D1*
X66618Y47722D1*
X66654Y47603D1*
X66677Y47480D1*
X66686Y47355D1*
X66681Y47230D1*
X66663Y47107D1*
X66631Y46986D1*
X66585Y46870D1*
X66527Y46759D1*
X66457Y46656D1*
X66269Y46454D1*
X66178Y46362D1*
X66176Y44575D1*
X66179Y43986D1*
X66478Y43979D1*
X66601Y43958D1*
X66721Y43924D1*
X66836Y43876D1*
X66946Y43816D1*
X67048Y43744D1*
X67142Y43661D1*
X67226Y43569D1*
X67299Y43467D1*
X67360Y43359D1*
X67409Y43244D1*
X67445Y43124D1*
X67467Y43001D1*
X67475Y42876D1*
X67470Y42751D1*
X67450Y42628D1*
X67417Y42508D1*
X67371Y42391D1*
X67312Y42281D1*
X67242Y42178D1*
X67160Y42084D1*
X67071Y42001D1*
X67690Y42004D1*
Y47336D1*
X67697Y47460D1*
X67717Y47584D1*
X67752Y47704D1*
X67799Y47819D1*
X67859Y47929D1*
X67931Y48031D1*
X68014Y48125D1*
X68106Y48209D1*
X68208Y48282D1*
X68317Y48343D1*
X68432Y48392D1*
X68551Y48427D1*
X68674Y48450D1*
X68799Y48458D1*
X68924Y48452D1*
X69047Y48433D1*
X69168Y48400D1*
X69284Y48354D1*
X69394Y48295D1*
X69497Y48225D1*
X69592Y48143D1*
X69677Y48051D1*
X69751Y47951D1*
X69813Y47843D1*
X69864Y47728D1*
X69901Y47609D1*
X69924Y47486D1*
X69934Y47211D1*
Y40879D1*
X69927Y40754D1*
X69907Y40631D1*
X69872Y40511D1*
X69825Y40395D1*
X69765Y40286D1*
X69693Y40184D1*
X69610Y40090D1*
X69518Y40006D1*
X69416Y39933D1*
X69307Y39872D1*
X69192Y39823D1*
X69073Y39787D1*
X68950Y39765D1*
X68687Y39757D1*
X67074D1*
X67226Y39600D1*
X67299Y39499D1*
X67360Y39390D1*
X67409Y39275D1*
X67445Y39155D1*
X67467Y39032D1*
X67475Y38908D1*
X67470Y38783D1*
X67450Y38660D1*
X67417Y38539D1*
X67371Y38423D1*
X67312Y38313D1*
X67242Y38210D1*
X67160Y38115D1*
X67069Y38030D1*
X66968Y37956D1*
X66860Y37893D1*
X66745Y37843D1*
X66626Y37806D1*
X66503Y37782D1*
X66228Y37772D1*
X74495Y37851D2*
X71668D1*
X71543Y37858D1*
X71420Y37879D1*
X71300Y37913D1*
X71184Y37961D1*
X71075Y38021D1*
X70972Y38092D1*
X70879Y38175D1*
X70795Y38268D1*
X70722Y38369D1*
X70661Y38478D1*
X70612Y38593D1*
X70576Y38713D1*
X70554Y38836D1*
X70545Y38960D1*
X70551Y39085D1*
X70570Y39209D1*
X70603Y39329D1*
X70649Y39445D1*
X70708Y39556D1*
X70779Y39659D1*
X70860Y39753D1*
X70952Y39838D1*
X71053Y39912D1*
X71144Y39965D1*
X70972Y40077D1*
X70879Y40159D1*
X70795Y40252D1*
X70722Y40353D1*
X70661Y40462D1*
X70612Y40577D1*
X70576Y40697D1*
X70554Y40820D1*
X70545Y40945D1*
X70551Y41069D1*
X70570Y41193D1*
X70603Y41313D1*
X70649Y41430D1*
X70708Y41540D1*
X70779Y41643D1*
X70860Y41737D1*
X70952Y41822D1*
X71053Y41896D1*
X71161Y41959D1*
X71275Y42009D1*
X71394Y42046D1*
X71517Y42070D1*
X71793Y42080D1*
X73898D1*
X73752Y42231D1*
X73678Y42332D1*
X73616Y42441D1*
X73567Y42555D1*
X73530Y42675D1*
X73507Y42798D1*
X73498Y42922D1*
X73503Y43047D1*
X73522Y43171D1*
X73554Y43291D1*
X73599Y43408D1*
X73657Y43518D1*
X73727Y43622D1*
X73915Y43824D1*
X75857Y45766D1*
X75859Y47336D1*
X75866Y47460D1*
X75887Y47584D1*
X75921Y47704D1*
X75968Y47819D1*
X76029Y47929D1*
X76100Y48031D1*
X76183Y48125D1*
X76276Y48209D1*
X76377Y48282D1*
X76486Y48343D1*
X76601Y48392D1*
X76721Y48427D1*
X76844Y48450D1*
X76968Y48458D1*
X77093Y48452D1*
X77217Y48433D1*
X77337Y48400D1*
X77453Y48354D1*
X77563Y48295D1*
X77666Y48225D1*
X77761Y48143D1*
X77846Y48051D1*
X77920Y47951D1*
X77983Y47843D1*
X78033Y47728D1*
X78070Y47609D1*
X78094Y47486D1*
X78104Y47211D1*
Y45303D1*
X78097Y45178D1*
X78076Y45055D1*
X78047Y44950D1*
X78072Y44932D1*
X78861Y45721D1*
X78954Y45805D1*
X79056Y45877D1*
X79165Y45938D1*
X79281Y45986D1*
X79401Y46021D1*
X79524Y46042D1*
X79780Y46050D1*
X80604D1*
X82684Y48129D1*
X82777Y48213D1*
X82879Y48285D1*
X82988Y48346D1*
X83103Y48394D1*
X83223Y48429D1*
X83346Y48450D1*
X83471Y48458D1*
X83596Y48452D1*
X83719Y48432D1*
X83839Y48398D1*
X83955Y48351D1*
X84065Y48292D1*
X84168Y48221D1*
X84262Y48139D1*
X84346Y48046D1*
X84420Y47945D1*
X84482Y47837D1*
X84531Y47722D1*
X84568Y47603D1*
X84590Y47480D1*
X84600Y47355D1*
X84595Y47230D1*
X84576Y47107D1*
X84544Y46986D1*
X84499Y46870D1*
X84440Y46759D1*
X84370Y46656D1*
X84183Y46454D1*
X81863Y44134D1*
X81770Y44051D1*
X81668Y43978D1*
X81559Y43918D1*
X81415Y43860D1*
X83232D1*
X85229Y45809D1*
X86408Y46958D1*
X86502Y47040D1*
X86604Y47111D1*
X86714Y47171D1*
X86830Y47217D1*
X86951Y47251D1*
X87074Y47271D1*
X87375Y47277D1*
X87497Y47270D1*
X87618Y47250D1*
X87736Y47217D1*
X87850Y47171D1*
X87958Y47114D1*
X88059Y47044D1*
X88152Y46964D1*
X88236Y46875D1*
X88309Y46777D1*
X88372Y46671D1*
X88422Y46559D1*
X88460Y46443D1*
X88485Y46323D1*
X88496Y46201D1*
X88495Y46078D1*
X88480Y45956D1*
X88452Y45837D1*
X88411Y45722D1*
X88357Y45611D1*
X88292Y45507D1*
X88216Y45411D1*
X88130Y45324D1*
X88035Y45247D1*
X87932Y45180D1*
X87822Y45125D1*
X87752Y45097D1*
X87617Y45002D1*
X84415Y41875D1*
X84755D1*
X86581Y43700D1*
X86675Y43783D1*
X86776Y43856D1*
X86886Y43917D1*
X87001Y43965D1*
X87121Y44000D1*
X87244Y44021D1*
X87369Y44029D1*
X87493Y44023D1*
X87617Y44003D1*
X87737Y43969D1*
X87853Y43922D1*
X87963Y43863D1*
X88065Y43792D1*
X88159Y43709D1*
X88244Y43617D1*
X88317Y43516D1*
X88379Y43408D1*
X88429Y43293D1*
X88465Y43174D1*
X88488Y43051D1*
X88497Y42926D1*
X88492Y42801D1*
X88474Y42678D1*
X88442Y42557D1*
X88396Y42441D1*
X88338Y42330D1*
X88268Y42227D1*
X88080Y42024D1*
X86012Y39957D1*
X86094Y39954D1*
X86576Y40446D1*
X86668Y40530D1*
X86769Y40604D1*
X86878Y40665D1*
X86993Y40714D1*
X87113Y40750D1*
X87236Y40772D1*
X87360Y40781D1*
X87485Y40775D1*
X87609Y40756D1*
X87729Y40724D1*
X87845Y40678D1*
X87956Y40619D1*
X88059Y40549D1*
X88154Y40467D1*
X88239Y40375D1*
X88313Y40275D1*
X88376Y40167D1*
X88426Y40053D1*
X88463Y39933D1*
X88487Y39811D1*
X88497Y39686D1*
X88493Y39561D1*
X88476Y39438D1*
X88444Y39317D1*
X88400Y39200D1*
X88342Y39089D1*
X88273Y38985D1*
X88087Y38782D1*
X87278Y37971D1*
X87177Y37898D1*
X87068Y37836D1*
X86953Y37787D1*
X86833Y37751D1*
X86710Y37729D1*
X86473Y37718D1*
X83368Y37646D1*
X80540D1*
X80416Y37653D1*
X80292Y37674D1*
X80172Y37708D1*
X80057Y37756D1*
X79947Y37816D1*
X79845Y37888D1*
X79751Y37970D1*
X79667Y38063D1*
X79594Y38164D1*
X79533Y38273D1*
X79484Y38388D1*
X79449Y38508D1*
X79426Y38631D1*
X79418Y38756D1*
X79424Y38880D1*
X79443Y39004D1*
X79476Y39124D1*
X79522Y39240D1*
X79581Y39351D1*
X79651Y39454D1*
X79733Y39548D1*
X79825Y39633D1*
X79925Y39707D1*
X80016Y39760D1*
X79845Y39872D1*
X79751Y39955D1*
X79667Y40047D1*
X79594Y40149D1*
X79533Y40257D1*
X79484Y40372D1*
X79449Y40492D1*
X79426Y40615D1*
X79418Y40740D1*
X79424Y40865D1*
X79443Y40988D1*
X79476Y41109D1*
X79522Y41225D1*
X79581Y41335D1*
X79651Y41438D1*
X79733Y41533D1*
X79825Y41617D1*
X79928Y41694D1*
X79947Y41784D1*
X79845Y41856D1*
X79751Y41939D1*
X79667Y42031D1*
X79594Y42133D1*
X79533Y42242D1*
X79484Y42357D1*
X79449Y42476D1*
X79426Y42599D1*
X79418Y42724D1*
X79424Y42849D1*
X79443Y42972D1*
X79476Y43093D1*
X79520Y43205D1*
X79280Y42966D1*
X79281Y40261D1*
X79274Y40136D1*
X79253Y40013D1*
X79218Y39893D1*
X79171Y39778D1*
X79111Y39668D1*
X79039Y39566D1*
X78863Y39379D1*
X77664Y38180D1*
X77571Y38097D1*
X77469Y38024D1*
X77360Y37963D1*
X77245Y37915D1*
X77125Y37880D1*
X77002Y37859D1*
X76745Y37851D1*
X74495D1*
X43054Y43357D2*
D24*
Y41113D1*
X41932Y42235D2*
X44175D1*
X7660Y28014D2*
Y27335D1*
X6981Y28014D2*
X8339D1*
X9541D2*
X10899D1*
X9678Y28900D2*
X11036D1*
X6844D2*
X8202D1*
X15160Y28034D2*
Y27355D1*
X14481Y28034D2*
X15839D1*
X17720D2*
Y27355D1*
X17041Y28034D2*
X17720D1*
X17178Y28920D2*
X17857D1*
X14344D2*
X15702D1*
X25220Y30575D2*
Y29896D1*
X24541D2*
X25899D1*
X22660Y30575D2*
Y29896D1*
X21981D2*
X23339D1*
X21844Y29010D2*
X23202D1*
X24678D2*
X26036D1*
X39127Y21845D2*
Y21215D1*
X42127Y10215D2*
Y9585D1*
D20*
X8044Y39816D3*
Y43064D3*
Y46312D3*
X34257Y20000D3*
X31757D3*
X28476D3*
X25976D3*
X22662D3*
X20162D3*
X16834D3*
X14334D3*
X10992D3*
X8492D3*
X31677Y5550D3*
X34177D3*
X25863D3*
X28363D3*
X20066D3*
X22566D3*
X14310D3*
X16810D3*
X8518D3*
X11018D3*
X49550Y42235D3*
X46302D3*
X43054D3*
D33*
X10220Y29786D3*
X8940Y30317D3*
X7660Y29786D3*
Y28014D3*
X8940Y27483D3*
X10220Y28014D3*
X10357Y28900D3*
X7523D3*
X17720Y29806D3*
X16440Y30337D3*
X15160Y29806D3*
Y28034D3*
X16440Y27503D3*
X17720Y28034D3*
X17857Y28920D3*
X15023D3*
X22660Y28124D3*
X23940Y27593D3*
X25220Y28124D3*
Y29896D3*
X23940Y30427D3*
X22660Y29896D3*
X22523Y29010D3*
X25357D3*
D34*
X23635Y34029D3*
Y36981D3*
X17627Y34029D3*
X15643D3*
X13659D3*
X17627Y36981D3*
X15643D3*
X13659D3*
D35*
X39127Y21215D3*
Y20215D3*
Y19215D3*
Y18215D3*
Y17215D3*
Y16215D3*
Y15215D3*
Y14215D3*
Y13215D3*
Y12215D3*
Y11215D3*
Y10215D3*
X40127D3*
X41127D3*
X42127D3*
X43127D3*
X44127D3*
X45127D3*
Y11215D3*
Y12215D3*
Y13215D3*
Y14215D3*
Y15215D3*
Y16215D3*
Y17215D3*
Y18215D3*
Y19215D3*
Y20215D3*
Y21215D3*
X44127Y17215D3*
X40127D3*
D34*
X23556Y40761D3*
Y43714D3*
X17548Y40761D3*
X15564D3*
X13580D3*
X17548Y43714D3*
X15564D3*
X13580D3*
X27375Y33596D3*
X30328D3*
X27375Y39603D3*
Y41588D3*
Y43572D3*
X30328Y39603D3*
Y41588D3*
Y43572D3*
X33910Y33635D3*
X36863D3*
X33910Y39643D3*
Y41627D3*
Y43611D3*
X36863Y39643D3*
Y41627D3*
Y43611D3*
X55487Y32887D3*
X58439D3*
X55487Y38895D3*
Y40879D3*
Y42863D3*
X58439Y38895D3*
Y40879D3*
Y42863D3*
X63400Y32887D3*
X66353D3*
X63400Y38895D3*
Y40879D3*
Y42863D3*
X66353Y38895D3*
Y40879D3*
Y42863D3*
X71668Y32966D3*
X74620D3*
X71668Y38973D3*
Y40958D3*
Y42942D3*
X74620Y38973D3*
Y40958D3*
Y42942D3*
X80540Y32761D3*
X83493D3*
X80540Y38769D3*
Y40753D3*
Y42737D3*
X83493Y38769D3*
Y40753D3*
Y42737D3*
D36*
X58340Y5596D3*
D35*
X59340D3*
X60340D3*
X61340D3*
X62340D3*
X63340D3*
X64340D3*
X65340D3*
X66340D3*
X67340D3*
X68340D3*
X69340D3*
X70340D3*
Y4596D3*
X69340D3*
X68340D3*
X67340D3*
X66340D3*
X65340D3*
X64340D3*
X63340D3*
X62340D3*
X61340D3*
X60340D3*
X59340D3*
X58340D3*
D20*
X11903Y47336D3*
X15151D3*
X18399D3*
X23281D3*
X26529D3*
X29777D3*
X34659Y47375D3*
X37907D3*
X41155D3*
X54068Y47336D3*
X57316D3*
X60564D3*
X65564D3*
X68812D3*
X72060D3*
X76981D3*
X80229D3*
X83477D3*
X87375Y46155D3*
Y42907D3*
Y39659D3*
%LNBoardOutline*%
X3940Y3940D2*
D11*
X91440D1*
Y51440D1*
X3940D1*
Y3940D1*
M02*
