M48
INCH
T01C0.0276
T02C0.0354
T03C0.0394
T04C0.0512
T05C0.0827
T06C0.09
%
T01
X+012488Y+027957
X+010498Y+027367
X+016563Y+021319
X+017976Y+015802
X+016662Y+008658
X+019855Y+008635
X+022566Y+009068
X+025863Y+008635
X+028240Y+009186
X+030831Y+008773
X+034177Y+009137
X+036194Y+012296
X+039717Y+013215
X+040127Y+013628
X+041970Y+011042
X+040131Y+008792
X+039363Y+006991
X+042540Y+004408
X+048850Y+007143
X+051344Y+009439
X+047733Y+010950
X+048850Y+012628
X+046197Y+016624
X+043078Y+018708
X+043078Y+022508
X+042245Y+022744
X+043556Y+024422
X+043044Y+024934
X+041666Y+027021
X+040879Y+026981
X+041848Y+028131
X+041188Y+028899
X+042769Y+030249
X+042060Y+031273
X+042402Y+033519
X+044107Y+033950
X+045570Y+033965
X+046116Y+033519
X+046645Y+034300
X+045682Y+031784
X+046863Y+031273
X+047099Y+030682
X+045525Y+030249
X+045521Y+029470
X+044359Y+028075
X+043895Y+027586
X+045985Y+026342
X+047769Y+024540
X+050328Y+024540
X+048477Y+027572
X+045875Y+022061
X+039265Y+024029
X+039265Y+025052
X+037827Y+024053
X+035407Y+023276
X+036175Y+021634
X+030701Y+021476
X+029027Y+023427
X+024571Y+024120
X+023980Y+022126
X+019949Y+028818
X+029226Y+028229
X+037267Y+031491
X+039028Y+027213
X+039698Y+035598
X+053132Y+032429
X+054699Y+035302
X+068698Y+030586
X+075191Y+030548
X+056903Y+007389
X+057119Y+004596
T02
X+039127Y+021215
X+039127Y+020215
X+039127Y+019215
X+039127Y+018215
X+039127Y+017215
X+040127Y+017215
X+039127Y+016215
X+039127Y+015215
X+039127Y+014215
X+039127Y+013215
X+039127Y+012215
X+039127Y+011215
X+039127Y+010215
X+040127Y+010215
X+041127Y+010215
X+042127Y+010215
X+043127Y+010215
X+044127Y+010215
X+045127Y+010215
X+045127Y+011215
X+045127Y+012215
X+045127Y+013215
X+045127Y+014215
X+045127Y+015215
X+045127Y+016215
X+045127Y+017215
X+045127Y+018215
X+045127Y+019215
X+045127Y+020215
X+045127Y+021215
X+044127Y+017215
X+058340Y+005596
X+059340Y+005596
X+060340Y+005596
X+061340Y+005596
X+062340Y+005596
X+063340Y+005596
X+064340Y+005596
X+065340Y+005596
X+066340Y+005596
X+067340Y+005596
X+068340Y+005596
X+069340Y+005596
X+070340Y+005596
X+070340Y+004596
X+069340Y+004596
X+068340Y+004596
X+067340Y+004596
X+066340Y+004596
X+065340Y+004596
X+064340Y+004596
X+063340Y+004596
X+062340Y+004596
X+061340Y+004596
X+060340Y+004596
X+059340Y+004596
X+058340Y+004596
T03
X+010220Y+029786
X+010357Y+028900
X+010220Y+028014
X+008940Y+027483
X+007660Y+028014
X+007523Y+028900
X+007660Y+029786
X+008940Y+030317
X+015023Y+028920
X+015160Y+029806
X+016440Y+030337
X+017720Y+029806
X+017857Y+028920
X+017720Y+028034
X+016440Y+027503
X+015160Y+028034
X+022523Y+029010
X+022660Y+029896
X+023940Y+030427
X+025220Y+029896
X+025357Y+029010
X+025220Y+028124
X+023940Y+027593
X+022660Y+028124
T04
X+023635Y+034029
X+023635Y+036981
X+023556Y+040761
X+023556Y+043714
X+027375Y+043572
X+027375Y+041588
X+027375Y+039603
X+030328Y+039603
X+030328Y+041588
X+030328Y+043572
X+033910Y+043611
X+033910Y+041627
X+033910Y+039643
X+036863Y+039643
X+036863Y+041627
X+036863Y+043611
X+036863Y+033635
X+033910Y+033635
X+030328Y+033596
X+027375Y+033596
X+017627Y+034029
X+015643Y+034029
X+013659Y+034029
X+013659Y+036981
X+015643Y+036981
X+017627Y+036981
X+017548Y+040761
X+015564Y+040761
X+013580Y+040761
X+013580Y+043714
X+015564Y+043714
X+017548Y+043714
X+055487Y+042863
X+055487Y+040879
X+055487Y+038895
X+058439Y+038895
X+058439Y+040879
X+058439Y+042863
X+063400Y+042863
X+063400Y+040879
X+063400Y+038895
X+066353Y+038895
X+066353Y+040879
X+066353Y+042863
X+071668Y+042942
X+071668Y+040958
X+071668Y+038973
X+074620Y+038973
X+074620Y+040958
X+074620Y+042942
X+080540Y+042737
X+080540Y+040753
X+080540Y+038769
X+083493Y+038769
X+083493Y+040753
X+083493Y+042737
X+083493Y+032761
X+080540Y+032761
X+074620Y+032966
X+071668Y+032966
X+066353Y+032887
X+063400Y+032887
X+058439Y+032887
X+055487Y+032887
T05
X+008044Y+039816
X+008044Y+043064
X+008044Y+046312
X+011903Y+047336
X+015151Y+047336
X+018399Y+047336
X+023281Y+047336
X+026529Y+047336
X+029777Y+047336
X+034659Y+047375
X+037907Y+047375
X+041155Y+047375
X+043054Y+042235
X+046302Y+042235
X+049550Y+042235
X+054068Y+047336
X+057316Y+047336
X+060564Y+047336
X+065564Y+047336
X+068812Y+047336
X+072060Y+047336
X+076981Y+047336
X+080229Y+047336
X+083477Y+047336
X+087375Y+046155
X+087375Y+042907
X+087375Y+039659
X+034257Y+020000
X+031757Y+020000
X+028476Y+020000
X+025976Y+020000
X+022662Y+020000
X+020162Y+020000
X+016834Y+020000
X+014334Y+020000
X+010992Y+020000
X+008492Y+020000
X+008518Y+005550
X+011018Y+005550
X+014310Y+005550
X+016810Y+005550
X+020066Y+005550
X+022566Y+005550
X+025863Y+005550
X+028363Y+005550
X+031677Y+005550
X+034177Y+005550
T06
X+005190Y+005190
X+045815Y+005190
X+049565Y+005190
X+090190Y+005190
X+090190Y+050190
X+049565Y+050190
X+045815Y+050190
X+005190Y+050190
T00
M30
