G04 DipTrace 2.2.9.0 beta*
%INThrough.gbr*%
%MOIN*%
G04 Drill Symbols*
G04 D=0.0276 - Cross*
G04 D=0.0354 - X*
G04 D=0.0394 - Y*
G04 D=0.0512 - T*
G04 D=0.0827 - V*
G04 D=0.09 - Clock*
%ADD10C,0.008*%
%FSLAX44Y44*%
G04*
G70*
G90*
G75*
G01*
X7809Y40051D2*
D10*
X8044Y39816D1*
X8279Y40051D1*
X7809Y43299D2*
X8044Y43064D1*
X8279Y43299D1*
X7809Y46547D2*
X8044Y46312D1*
X8279Y46547D1*
X34022Y20235D2*
X34257Y20000D1*
X34492Y20235D1*
X31522D2*
X31757Y20000D1*
X31992Y20235D1*
X28241D2*
X28476Y20000D1*
X28711Y20235D1*
X25741D2*
X25976Y20000D1*
X26211Y20235D1*
X22427D2*
X22662Y20000D1*
X22897Y20235D1*
X19927D2*
X20162Y20000D1*
X20397Y20235D1*
X16599D2*
X16834Y20000D1*
X17069Y20235D1*
X14099D2*
X14334Y20000D1*
X14569Y20235D1*
X10757D2*
X10992Y20000D1*
X11227Y20235D1*
X8257D2*
X8492Y20000D1*
X8727Y20235D1*
X31442Y5785D2*
X31677Y5550D1*
X31912Y5785D1*
X33942D2*
X34177Y5550D1*
X34412Y5785D1*
X25628D2*
X25863Y5550D1*
X26098Y5785D1*
X28128D2*
X28363Y5550D1*
X28598Y5785D1*
X19831D2*
X20066Y5550D1*
X20301Y5785D1*
X22331D2*
X22566Y5550D1*
X22801Y5785D1*
X14075D2*
X14310Y5550D1*
X14545Y5785D1*
X16575D2*
X16810Y5550D1*
X17045Y5785D1*
X8283D2*
X8518Y5550D1*
X8753Y5785D1*
X10783D2*
X11018Y5550D1*
X11253Y5785D1*
X49315Y42470D2*
X49550Y42235D1*
X49785Y42470D1*
X46067D2*
X46302Y42235D1*
X46537Y42470D1*
X42819D2*
X43054Y42235D1*
X43289Y42470D1*
X9985Y30021D2*
X10220Y29786D1*
X10455Y30021D1*
X10220Y29786D2*
Y29551D1*
X8705Y30552D2*
X8940Y30317D1*
X9175Y30552D1*
X8940Y30317D2*
Y30082D1*
X7425Y30021D2*
X7660Y29786D1*
X7895Y30021D1*
X7660Y29786D2*
Y29551D1*
X7425Y28249D2*
X7660Y28014D1*
X7895Y28249D1*
X7660Y28014D2*
Y27779D1*
X8705Y27718D2*
X8940Y27483D1*
X9175Y27718D1*
X8940Y27483D2*
Y27248D1*
X9985Y28249D2*
X10220Y28014D1*
X10455Y28249D1*
X10220Y28014D2*
Y27779D1*
X10122Y29135D2*
X10357Y28900D1*
X10592Y29135D1*
X10357Y28900D2*
Y28665D1*
X7288Y29135D2*
X7523Y28900D1*
X7758Y29135D1*
X7523Y28900D2*
Y28665D1*
X17485Y30041D2*
X17720Y29806D1*
X17955Y30041D1*
X17720Y29806D2*
Y29571D1*
X16205Y30572D2*
X16440Y30337D1*
X16675Y30572D1*
X16440Y30337D2*
Y30102D1*
X14925Y30041D2*
X15160Y29806D1*
X15395Y30041D1*
X15160Y29806D2*
Y29571D1*
X14925Y28269D2*
X15160Y28034D1*
X15395Y28269D1*
X15160Y28034D2*
Y27799D1*
X16205Y27738D2*
X16440Y27503D1*
X16675Y27738D1*
X16440Y27503D2*
Y27268D1*
X17485Y28269D2*
X17720Y28034D1*
X17955Y28269D1*
X17720Y28034D2*
Y27799D1*
X17622Y29155D2*
X17857Y28920D1*
X18092Y29155D1*
X17857Y28920D2*
Y28685D1*
X14788Y29155D2*
X15023Y28920D1*
X15258Y29155D1*
X15023Y28920D2*
Y28685D1*
X22425Y28359D2*
X22660Y28124D1*
X22895Y28359D1*
X22660Y28124D2*
Y27889D1*
X23705Y27828D2*
X23940Y27593D1*
X24175Y27828D1*
X23940Y27593D2*
Y27358D1*
X24985Y28359D2*
X25220Y28124D1*
X25455Y28359D1*
X25220Y28124D2*
Y27889D1*
X24985Y30131D2*
X25220Y29896D1*
X25455Y30131D1*
X25220Y29896D2*
Y29661D1*
X23705Y30662D2*
X23940Y30427D1*
X24175Y30662D1*
X23940Y30427D2*
Y30192D1*
X22425Y30131D2*
X22660Y29896D1*
X22895Y30131D1*
X22660Y29896D2*
Y29661D1*
X22288Y29245D2*
X22523Y29010D1*
X22758Y29245D1*
X22523Y29010D2*
Y28775D1*
X25122Y29245D2*
X25357Y29010D1*
X25592Y29245D1*
X25357Y29010D2*
Y28775D1*
X23400Y34029D2*
X23870D1*
X23635D2*
Y33794D1*
X23400Y36981D2*
X23870D1*
X23635D2*
Y36746D1*
X17392Y34029D2*
X17862D1*
X17627D2*
Y33794D1*
X15408Y34029D2*
X15878D1*
X15643D2*
Y33794D1*
X13424Y34029D2*
X13894D1*
X13659D2*
Y33794D1*
X17392Y36981D2*
X17862D1*
X17627D2*
Y36746D1*
X15408Y36981D2*
X15878D1*
X15643D2*
Y36746D1*
X13424Y36981D2*
X13894D1*
X13659D2*
Y36746D1*
X38892Y21450D2*
X39362Y20980D1*
Y21450D2*
X38892Y20980D1*
Y20450D2*
X39362Y19980D1*
Y20450D2*
X38892Y19980D1*
Y19450D2*
X39362Y18980D1*
Y19450D2*
X38892Y18980D1*
Y18450D2*
X39362Y17980D1*
Y18450D2*
X38892Y17980D1*
Y17450D2*
X39362Y16980D1*
Y17450D2*
X38892Y16980D1*
Y16450D2*
X39362Y15980D1*
Y16450D2*
X38892Y15980D1*
Y15450D2*
X39362Y14980D1*
Y15450D2*
X38892Y14980D1*
Y14450D2*
X39362Y13980D1*
Y14450D2*
X38892Y13980D1*
Y13450D2*
X39362Y12980D1*
Y13450D2*
X38892Y12980D1*
Y12450D2*
X39362Y11980D1*
Y12450D2*
X38892Y11980D1*
Y11450D2*
X39362Y10980D1*
Y11450D2*
X38892Y10980D1*
Y10450D2*
X39362Y9980D1*
Y10450D2*
X38892Y9980D1*
X39892Y10450D2*
X40362Y9980D1*
Y10450D2*
X39892Y9980D1*
X40892Y10450D2*
X41362Y9980D1*
Y10450D2*
X40892Y9980D1*
X41892Y10450D2*
X42362Y9980D1*
Y10450D2*
X41892Y9980D1*
X42892Y10450D2*
X43362Y9980D1*
Y10450D2*
X42892Y9980D1*
X43892Y10450D2*
X44362Y9980D1*
Y10450D2*
X43892Y9980D1*
X44892Y10450D2*
X45362Y9980D1*
Y10450D2*
X44892Y9980D1*
Y11450D2*
X45362Y10980D1*
Y11450D2*
X44892Y10980D1*
Y12450D2*
X45362Y11980D1*
Y12450D2*
X44892Y11980D1*
Y13450D2*
X45362Y12980D1*
Y13450D2*
X44892Y12980D1*
Y14450D2*
X45362Y13980D1*
Y14450D2*
X44892Y13980D1*
Y15450D2*
X45362Y14980D1*
Y15450D2*
X44892Y14980D1*
Y16450D2*
X45362Y15980D1*
Y16450D2*
X44892Y15980D1*
Y17450D2*
X45362Y16980D1*
Y17450D2*
X44892Y16980D1*
Y18450D2*
X45362Y17980D1*
Y18450D2*
X44892Y17980D1*
Y19450D2*
X45362Y18980D1*
Y19450D2*
X44892Y18980D1*
Y20450D2*
X45362Y19980D1*
Y20450D2*
X44892Y19980D1*
Y21450D2*
X45362Y20980D1*
Y21450D2*
X44892Y20980D1*
X43892Y17450D2*
X44362Y16980D1*
Y17450D2*
X43892Y16980D1*
X39892Y17450D2*
X40362Y16980D1*
Y17450D2*
X39892Y16980D1*
X23321Y40761D2*
X23791D1*
X23556D2*
Y40526D1*
X23321Y43714D2*
X23791D1*
X23556D2*
Y43479D1*
X17313Y40761D2*
X17783D1*
X17548D2*
Y40526D1*
X15329Y40761D2*
X15799D1*
X15564D2*
Y40526D1*
X13345Y40761D2*
X13815D1*
X13580D2*
Y40526D1*
X17313Y43714D2*
X17783D1*
X17548D2*
Y43479D1*
X15329Y43714D2*
X15799D1*
X15564D2*
Y43479D1*
X13345Y43714D2*
X13815D1*
X13580D2*
Y43479D1*
X27140Y33596D2*
X27610D1*
X27375D2*
Y33361D1*
X30093Y33596D2*
X30563D1*
X30328D2*
Y33361D1*
X27140Y39603D2*
X27610D1*
X27375D2*
Y39368D1*
X27140Y41588D2*
X27610D1*
X27375D2*
Y41353D1*
X27140Y43572D2*
X27610D1*
X27375D2*
Y43337D1*
X30093Y39603D2*
X30563D1*
X30328D2*
Y39368D1*
X30093Y41588D2*
X30563D1*
X30328D2*
Y41353D1*
X30093Y43572D2*
X30563D1*
X30328D2*
Y43337D1*
X33675Y33635D2*
X34145D1*
X33910D2*
Y33400D1*
X36628Y33635D2*
X37098D1*
X36863D2*
Y33400D1*
X33675Y39643D2*
X34145D1*
X33910D2*
Y39408D1*
X33675Y41627D2*
X34145D1*
X33910D2*
Y41392D1*
X33675Y43611D2*
X34145D1*
X33910D2*
Y43376D1*
X36628Y39643D2*
X37098D1*
X36863D2*
Y39408D1*
X36628Y41627D2*
X37098D1*
X36863D2*
Y41392D1*
X36628Y43611D2*
X37098D1*
X36863D2*
Y43376D1*
X55252Y32887D2*
X55722D1*
X55487D2*
Y32652D1*
X58204Y32887D2*
X58674D1*
X58439D2*
Y32652D1*
X55252Y38895D2*
X55722D1*
X55487D2*
Y38660D1*
X55252Y40879D2*
X55722D1*
X55487D2*
Y40644D1*
X55252Y42863D2*
X55722D1*
X55487D2*
Y42628D1*
X58204Y38895D2*
X58674D1*
X58439D2*
Y38660D1*
X58204Y40879D2*
X58674D1*
X58439D2*
Y40644D1*
X58204Y42863D2*
X58674D1*
X58439D2*
Y42628D1*
X63165Y32887D2*
X63635D1*
X63400D2*
Y32652D1*
X66118Y32887D2*
X66588D1*
X66353D2*
Y32652D1*
X63165Y38895D2*
X63635D1*
X63400D2*
Y38660D1*
X63165Y40879D2*
X63635D1*
X63400D2*
Y40644D1*
X63165Y42863D2*
X63635D1*
X63400D2*
Y42628D1*
X66118Y38895D2*
X66588D1*
X66353D2*
Y38660D1*
X66118Y40879D2*
X66588D1*
X66353D2*
Y40644D1*
X66118Y42863D2*
X66588D1*
X66353D2*
Y42628D1*
X71433Y32966D2*
X71903D1*
X71668D2*
Y32731D1*
X74385Y32966D2*
X74855D1*
X74620D2*
Y32731D1*
X71433Y38973D2*
X71903D1*
X71668D2*
Y38738D1*
X71433Y40958D2*
X71903D1*
X71668D2*
Y40723D1*
X71433Y42942D2*
X71903D1*
X71668D2*
Y42707D1*
X74385Y38973D2*
X74855D1*
X74620D2*
Y38738D1*
X74385Y40958D2*
X74855D1*
X74620D2*
Y40723D1*
X74385Y42942D2*
X74855D1*
X74620D2*
Y42707D1*
X80305Y32761D2*
X80775D1*
X80540D2*
Y32526D1*
X83258Y32761D2*
X83728D1*
X83493D2*
Y32526D1*
X80305Y38769D2*
X80775D1*
X80540D2*
Y38534D1*
X80305Y40753D2*
X80775D1*
X80540D2*
Y40518D1*
X80305Y42737D2*
X80775D1*
X80540D2*
Y42502D1*
X83258Y38769D2*
X83728D1*
X83493D2*
Y38534D1*
X83258Y40753D2*
X83728D1*
X83493D2*
Y40518D1*
X83258Y42737D2*
X83728D1*
X83493D2*
Y42502D1*
X58105Y5831D2*
X58575Y5361D1*
Y5831D2*
X58105Y5361D1*
X59105Y5831D2*
X59575Y5361D1*
Y5831D2*
X59105Y5361D1*
X60105Y5831D2*
X60575Y5361D1*
Y5831D2*
X60105Y5361D1*
X61105Y5831D2*
X61575Y5361D1*
Y5831D2*
X61105Y5361D1*
X62105Y5831D2*
X62575Y5361D1*
Y5831D2*
X62105Y5361D1*
X63105Y5831D2*
X63575Y5361D1*
Y5831D2*
X63105Y5361D1*
X64105Y5831D2*
X64575Y5361D1*
Y5831D2*
X64105Y5361D1*
X65105Y5831D2*
X65575Y5361D1*
Y5831D2*
X65105Y5361D1*
X66105Y5831D2*
X66575Y5361D1*
Y5831D2*
X66105Y5361D1*
X67105Y5831D2*
X67575Y5361D1*
Y5831D2*
X67105Y5361D1*
X68105Y5831D2*
X68575Y5361D1*
Y5831D2*
X68105Y5361D1*
X69105Y5831D2*
X69575Y5361D1*
Y5831D2*
X69105Y5361D1*
X70105Y5831D2*
X70575Y5361D1*
Y5831D2*
X70105Y5361D1*
Y4831D2*
X70575Y4361D1*
Y4831D2*
X70105Y4361D1*
X69105Y4831D2*
X69575Y4361D1*
Y4831D2*
X69105Y4361D1*
X68105Y4831D2*
X68575Y4361D1*
Y4831D2*
X68105Y4361D1*
X67105Y4831D2*
X67575Y4361D1*
Y4831D2*
X67105Y4361D1*
X66105Y4831D2*
X66575Y4361D1*
Y4831D2*
X66105Y4361D1*
X65105Y4831D2*
X65575Y4361D1*
Y4831D2*
X65105Y4361D1*
X64105Y4831D2*
X64575Y4361D1*
Y4831D2*
X64105Y4361D1*
X63105Y4831D2*
X63575Y4361D1*
Y4831D2*
X63105Y4361D1*
X62105Y4831D2*
X62575Y4361D1*
Y4831D2*
X62105Y4361D1*
X61105Y4831D2*
X61575Y4361D1*
Y4831D2*
X61105Y4361D1*
X60105Y4831D2*
X60575Y4361D1*
Y4831D2*
X60105Y4361D1*
X59105Y4831D2*
X59575Y4361D1*
Y4831D2*
X59105Y4361D1*
X58105Y4831D2*
X58575Y4361D1*
Y4831D2*
X58105Y4361D1*
X11668Y47571D2*
X11903Y47336D1*
X12138Y47571D1*
X14916D2*
X15151Y47336D1*
X15386Y47571D1*
X18164D2*
X18399Y47336D1*
X18634Y47571D1*
X23046D2*
X23281Y47336D1*
X23516Y47571D1*
X26294D2*
X26529Y47336D1*
X26764Y47571D1*
X29542D2*
X29777Y47336D1*
X30012Y47571D1*
X34424Y47610D2*
X34659Y47375D1*
X34894Y47610D1*
X37672D2*
X37907Y47375D1*
X38142Y47610D1*
X40920D2*
X41155Y47375D1*
X41390Y47610D1*
X53833Y47571D2*
X54068Y47336D1*
X54303Y47571D1*
X57081D2*
X57316Y47336D1*
X57551Y47571D1*
X60329D2*
X60564Y47336D1*
X60799Y47571D1*
X65329D2*
X65564Y47336D1*
X65799Y47571D1*
X68577D2*
X68812Y47336D1*
X69047Y47571D1*
X71825D2*
X72060Y47336D1*
X72295Y47571D1*
X76746D2*
X76981Y47336D1*
X77216Y47571D1*
X79994D2*
X80229Y47336D1*
X80464Y47571D1*
X83242D2*
X83477Y47336D1*
X83712Y47571D1*
X87140Y46390D2*
X87375Y46155D1*
X87610Y46390D1*
X87140Y43142D2*
X87375Y42907D1*
X87610Y43142D1*
X87140Y39894D2*
X87375Y39659D1*
X87610Y39894D1*
X12488Y28192D2*
Y27722D1*
X12253Y27957D2*
X12723D1*
X42245Y22979D2*
Y22509D1*
X42010Y22744D2*
X42480D1*
X45875Y22296D2*
Y21826D1*
X45640Y22061D2*
X46110D1*
X57119Y4831D2*
Y4361D1*
X56884Y4596D2*
X57354D1*
X25863Y8870D2*
Y8400D1*
X25628Y8635D2*
X26098D1*
X47733Y11185D2*
Y10715D1*
X47498Y10950D2*
X47968D1*
X30831Y9008D2*
Y8538D1*
X30596Y8773D2*
X31066D1*
X35407Y23511D2*
Y23041D1*
X35172Y23276D2*
X35642D1*
X23980Y22361D2*
Y21891D1*
X23745Y22126D2*
X24215D1*
X39363Y7226D2*
Y6756D1*
X39128Y6991D2*
X39598D1*
X40131Y9027D2*
Y8557D1*
X39896Y8792D2*
X40366D1*
X19855Y8870D2*
Y8400D1*
X19620Y8635D2*
X20090D1*
X29027Y23662D2*
Y23192D1*
X28792Y23427D2*
X29262D1*
X19949Y29053D2*
Y28583D1*
X19714Y28818D2*
X20184D1*
X46197Y16859D2*
Y16389D1*
X45962Y16624D2*
X46432D1*
X17976Y16037D2*
Y15567D1*
X17741Y15802D2*
X18211D1*
X16563Y21554D2*
Y21084D1*
X16328Y21319D2*
X16798D1*
X41970Y11277D2*
Y10807D1*
X41735Y11042D2*
X42205D1*
X42540Y4643D2*
Y4173D1*
X42305Y4408D2*
X42775D1*
X43556Y24657D2*
Y24187D1*
X43321Y24422D2*
X43791D1*
X37827Y24288D2*
Y23818D1*
X37592Y24053D2*
X38062D1*
X42402Y33754D2*
Y33284D1*
X42167Y33519D2*
X42637D1*
X46116Y33754D2*
Y33284D1*
X45881Y33519D2*
X46351D1*
X29226Y28464D2*
Y27994D1*
X28991Y28229D2*
X29461D1*
X24571Y24355D2*
Y23885D1*
X24336Y24120D2*
X24806D1*
X36175Y21869D2*
Y21399D1*
X35940Y21634D2*
X36410D1*
X36194Y12531D2*
Y12061D1*
X35959Y12296D2*
X36429D1*
X43078Y18943D2*
Y18473D1*
X42843Y18708D2*
X43313D1*
X50328Y24775D2*
Y24305D1*
X50093Y24540D2*
X50563D1*
X43044Y25169D2*
Y24699D1*
X42809Y24934D2*
X43279D1*
X44359Y28310D2*
Y27840D1*
X44124Y28075D2*
X44594D1*
X41848Y28366D2*
Y27896D1*
X41613Y28131D2*
X42083D1*
X39698Y35833D2*
Y35363D1*
X39463Y35598D2*
X39933D1*
X43078Y22743D2*
Y22273D1*
X42843Y22508D2*
X43313D1*
X56903Y7624D2*
Y7154D1*
X56668Y7389D2*
X57138D1*
X44107Y34185D2*
Y33715D1*
X43872Y33950D2*
X44342D1*
X45570Y34200D2*
Y33730D1*
X45335Y33965D2*
X45805D1*
X37267Y31726D2*
Y31256D1*
X37032Y31491D2*
X37502D1*
X42060Y31508D2*
Y31038D1*
X41825Y31273D2*
X42295D1*
X46863Y31508D2*
Y31038D1*
X46628Y31273D2*
X47098D1*
X16662Y8893D2*
Y8423D1*
X16427Y8658D2*
X16897D1*
X42769Y30484D2*
Y30014D1*
X42534Y30249D2*
X43004D1*
X45525Y30484D2*
Y30014D1*
X45290Y30249D2*
X45760D1*
X41188Y29134D2*
Y28664D1*
X40953Y28899D2*
X41423D1*
X54699Y35537D2*
Y35067D1*
X54464Y35302D2*
X54934D1*
X75191Y30783D2*
Y30313D1*
X74956Y30548D2*
X75426D1*
X39028Y27448D2*
Y26978D1*
X38793Y27213D2*
X39263D1*
X53132Y32664D2*
Y32194D1*
X52897Y32429D2*
X53367D1*
X39265Y24264D2*
Y23794D1*
X39030Y24029D2*
X39500D1*
X39265Y25287D2*
Y24817D1*
X39030Y25052D2*
X39500D1*
X45985Y26577D2*
Y26107D1*
X45750Y26342D2*
X46220D1*
X30701Y21711D2*
Y21241D1*
X30466Y21476D2*
X30936D1*
X34177Y9372D2*
Y8902D1*
X33942Y9137D2*
X34412D1*
X28240Y9421D2*
Y8951D1*
X28005Y9186D2*
X28475D1*
X22566Y9303D2*
Y8833D1*
X22331Y9068D2*
X22801D1*
X10498Y27602D2*
Y27132D1*
X10263Y27367D2*
X10733D1*
X48850Y7378D2*
Y6908D1*
X48615Y7143D2*
X49085D1*
X48850Y12863D2*
Y12393D1*
X48615Y12628D2*
X49085D1*
X39717Y13450D2*
Y12980D1*
X39482Y13215D2*
X39952D1*
X46645Y34535D2*
Y34065D1*
X46410Y34300D2*
X46880D1*
X45682Y32019D2*
Y31549D1*
X45447Y31784D2*
X45917D1*
X47099Y30917D2*
Y30447D1*
X46864Y30682D2*
X47334D1*
X45521Y29705D2*
Y29235D1*
X45286Y29470D2*
X45756D1*
X43895Y27821D2*
Y27351D1*
X43660Y27586D2*
X44130D1*
X41666Y27256D2*
Y26786D1*
X41431Y27021D2*
X41901D1*
X40127Y13863D2*
Y13393D1*
X39892Y13628D2*
X40362D1*
X48477Y27807D2*
Y27337D1*
X48242Y27572D2*
X48712D1*
X51344Y9674D2*
Y9204D1*
X51109Y9439D2*
X51579D1*
X68698Y30821D2*
Y30351D1*
X68463Y30586D2*
X68933D1*
X40879Y27216D2*
Y26746D1*
X40644Y26981D2*
X41114D1*
X47769Y24775D2*
Y24305D1*
X47534Y24540D2*
X48004D1*
X5190Y5425D2*
Y5190D1*
X5425D1*
X49565Y50425D2*
Y50190D1*
X49800D1*
X49565Y5425D2*
Y5190D1*
X49800D1*
X90190Y5425D2*
Y5190D1*
X90425D1*
X90190Y50425D2*
Y50190D1*
X90425D1*
X45815Y5425D2*
Y5190D1*
X46050D1*
X45815Y50425D2*
Y50190D1*
X46050D1*
X5190Y50425D2*
Y50190D1*
X5425D1*
M02*
