G04 DipTrace 2.2.9.0 beta*
%INTop.gbr*%
%MOIN*%
%ADD11C,0.006*%
%ADD13C,0.04*%
%ADD14C,0.157*%
%ADD15C,0.0256*%
%ADD16C,0.0472*%
%ADD17C,0.0335*%
%ADD18C,0.0433*%
%ADD19C,0.0079*%
%ADD20C,0.1575*%
%ADD21C,0.125*%
%ADD23C,0.025*%
%ADD24C,0.02*%
%ADD25R,0.0591X0.0512*%
%ADD26R,0.0512X0.0591*%
%ADD27R,0.0728X0.1004*%
%ADD28R,0.1004X0.0728*%
%ADD29R,0.0394X0.0335*%
%ADD31R,0.0256X0.0413*%
%ADD33C,0.0689*%
%ADD34C,0.0945*%
%ADD35C,0.0591*%
%ADD36R,0.0591X0.0591*%
%FSLAX44Y44*%
G04*
G70*
G90*
G75*
G01*
%LNTop*%
%LPD*%
X81310Y30056D2*
D13*
Y31991D1*
X80540Y32761D1*
X25537Y41368D2*
X24163D1*
X23556Y40761D1*
X15643Y34029D2*
X16706Y32966D1*
X22572D1*
X23635Y34029D1*
X63400Y32887D2*
X64156Y32131D1*
Y30657D1*
X63400Y32887D2*
X62809Y33477D1*
Y33792D1*
X62392Y34210D1*
X55644D1*
Y36140D1*
X49550Y42235D1*
X80540Y32761D2*
X79840Y32060D1*
X72833D1*
Y32808D1*
X72676Y32966D1*
X71668D1*
X23556Y40761D2*
X21714Y38918D1*
X16667D1*
D14*
X12190D1*
X8044Y43064D1*
X27375Y33596D2*
D13*
X28005Y32966D1*
Y31363D1*
X55644Y34210D2*
X55487Y34052D1*
Y32887D1*
X71668Y32966D2*
X70841Y33792D1*
X64306D1*
X63400Y32887D1*
X72833Y32060D2*
X72504Y31731D1*
Y30548D1*
X15643Y36981D2*
D14*
Y37894D1*
D13*
X16667Y38918D1*
X33910Y33635D2*
X34599Y32946D1*
Y31443D1*
X27375Y33596D2*
X28477Y34698D1*
X32847D1*
X33910Y33635D1*
X25644Y34574D2*
X26396D1*
X27375Y33596D1*
X23635Y34029D2*
X24254D1*
X24799Y34574D1*
X25644D1*
X55487Y32887D2*
Y32139D1*
X55979Y31647D1*
Y30210D1*
X55903Y8048D2*
D15*
X57769D1*
X58340Y7477D1*
Y5596D1*
X55892Y10104D2*
X55903Y8048D1*
X12488Y27957D2*
D16*
X11641D1*
X35407Y23276D2*
X34639D1*
Y23462D1*
D17*
Y22744D1*
X45875Y22061D2*
D16*
Y22292D1*
X45658Y22508D1*
X45035D1*
X57119Y4596D2*
Y5073D1*
X56903Y5289D1*
X56312D1*
X47733Y10950D2*
Y7779D1*
X46946Y6991D1*
X39363D1*
X22662Y20000D2*
X21055Y18392D1*
X18442D1*
X16834Y20000D1*
X8518Y5550D2*
Y8382D1*
X8149Y8750D1*
Y10261D1*
X14310Y5550D2*
Y6889D1*
X14000Y7199D1*
Y10340D1*
X25863Y8635D2*
X25517Y8982D1*
Y10188D1*
X34257Y20000D2*
X32649Y18392D1*
X30083D1*
X28476Y20000D1*
X30831Y8773D2*
D17*
Y10526D1*
X23980Y22126D2*
D16*
Y22425D1*
X23764Y22642D1*
X23193D1*
X19949Y28818D2*
X19333D1*
X19116Y29034D1*
Y29813D1*
X16834Y20000D2*
D17*
X18187Y21353D1*
Y22800D1*
X17508D1*
X29027Y23427D2*
D16*
X29287D1*
X29503Y23211D1*
Y22709D1*
X34639Y22744D2*
X42245D1*
X19949Y28818D2*
X19963Y28832D1*
X21362Y29054D1*
Y29812D1*
X21347Y27263D2*
Y26456D1*
X20736D1*
X19949Y27243D1*
Y28818D1*
X25863Y5550D2*
X25224D1*
X23885Y6889D1*
X21405D1*
X20066Y5550D1*
X31677D2*
X30264Y6964D1*
X27277D1*
X25863Y5550D1*
X39363Y6991D2*
X33118D1*
X31677Y5550D1*
X10992Y20000D2*
D17*
X12331Y21339D1*
Y22651D1*
X11681Y23300D1*
X10498D1*
Y22651D1*
X16834Y20000D2*
D16*
X15495Y18661D1*
X12331D1*
X10992Y20000D1*
X46197Y16624D2*
X46257Y16684D1*
Y17960D1*
X40131Y8792D2*
X40249Y8910D1*
X41224D1*
X14310Y5550D2*
X14448D1*
X15879Y6981D1*
X17690D1*
X19121Y5550D1*
X20066D1*
X19855Y8635D2*
D18*
Y9088D1*
D16*
Y10260D1*
D17*
X19790Y10326D1*
X32000Y21859D2*
D19*
Y22370D1*
X33694D1*
Y21457D1*
X33852Y21299D1*
X38220D1*
X38891Y20628D1*
X40793D1*
X41206Y20215D1*
X45127D1*
X26035Y21861D2*
Y22335D1*
X28558D1*
Y21299D1*
X28821Y21036D1*
X35995D1*
X37403Y19628D1*
X44713D1*
X45127Y19215D1*
Y18215D2*
X43619D1*
X43141Y17737D1*
X26647D1*
X23243Y21142D1*
X22405D1*
X22248Y21299D1*
Y22268D1*
X21221D1*
X20986Y22033D1*
X20493D1*
X17976Y15802D2*
Y15713D1*
X45294D1*
X45540Y15959D1*
Y16802D1*
X45127Y17215D1*
X16563Y21319D2*
Y22426D1*
X14913D1*
Y21948D1*
X9553Y22277D2*
Y17786D1*
X10620Y16719D1*
X43202D1*
X43706Y16215D1*
X45127D1*
X8433Y21965D2*
X8926D1*
X9238Y22277D1*
X9553D1*
X31775Y10900D2*
Y10357D1*
X31933Y10200D1*
X33115D1*
Y8960D1*
X33361Y8714D1*
X39294D1*
X39540Y8960D1*
Y10884D1*
X39698Y11042D1*
X41970D1*
X44127Y10215D2*
X42113Y8202D1*
X27649D1*
X27492Y8359D1*
Y10200D1*
X26461D1*
Y10562D1*
X45127Y10215D2*
X42838Y7926D1*
X21899D1*
X21623Y8202D1*
Y10200D1*
Y10528D1*
X21452Y10700D1*
X20734D1*
X14945Y10714D2*
X15651D1*
X16164Y10200D1*
X15914D1*
Y8044D1*
X16308Y7651D1*
X45304D1*
X45698Y8044D1*
Y10644D1*
X45127Y11215D1*
X9094Y10635D2*
X10004D1*
Y10200D1*
Y4566D1*
X10161Y4408D1*
X42540D1*
X43556Y24422D2*
X38285D1*
X33864Y28843D1*
X32555D1*
X37827Y24053D2*
X35445Y26435D1*
X32607D1*
X40545Y34871D2*
Y35425D1*
X39873Y36097D1*
X25644D1*
Y36208D1*
X13659Y36981D2*
D21*
X10879D1*
X8044Y39816D1*
X23635Y36981D2*
X22020Y35366D1*
X14406D1*
X13659Y36114D1*
Y36981D1*
X25644Y36208D2*
Y35977D1*
X24640Y36981D1*
X23635D1*
X42402Y33519D2*
D19*
X40378D1*
X40171Y33726D1*
Y33965D1*
X46116Y33519D2*
X47551D1*
X47777Y33744D1*
Y34298D1*
X43437Y25437D2*
Y25171D1*
X43200Y24934D1*
X43044D1*
X43562Y33912D2*
Y34237D1*
X42470D1*
X42199Y33965D1*
X40919D1*
X56148Y12485D2*
Y11628D1*
Y11475D1*
X59804Y7819D1*
Y5131D1*
X60340Y4596D1*
X32032Y23519D2*
Y24090D1*
X31874Y24247D1*
X30354D1*
X30094Y24507D1*
Y25784D1*
X30348Y26039D1*
Y26458D1*
X26018Y23549D2*
Y23962D1*
X25860Y24120D1*
X24571D1*
X42127Y10215D2*
X42540Y10628D1*
Y11369D1*
X42280Y11628D1*
X37402D1*
X36734Y12296D1*
X36194D1*
X14954Y23638D2*
X14580D1*
Y24052D1*
X9900D1*
X9737Y23889D1*
X9895Y23731D1*
Y22060D1*
X10052Y21902D1*
X10498D1*
X30354Y24247D2*
Y22118D1*
X30196Y21961D1*
X29503D1*
X20554Y23540D2*
Y23954D1*
X17138D1*
X16725Y24367D1*
X15420D1*
X15105Y24052D1*
X14954D1*
Y23638D1*
X40919Y33965D2*
Y34290D1*
X39728D1*
Y33262D1*
X39885Y33105D1*
X43592D1*
X43862Y32836D1*
Y31074D1*
X43747Y30959D1*
X43504D1*
X17720Y28034D2*
X15160D1*
X40734Y25457D2*
Y25782D1*
X38615D1*
X38457Y25939D1*
Y27840D1*
X40773Y30156D1*
X41127Y29802D1*
X41848D1*
Y28131D1*
X52294Y28196D2*
Y26672D1*
X52275D1*
X56148Y11628D2*
X42800D1*
X42540Y11369D1*
X46257Y18708D2*
X43078D1*
X25220Y29896D2*
X22660D1*
X41848Y28131D2*
X41446D1*
X41266Y27951D1*
X40779D1*
X40773Y30156D2*
Y30775D1*
X43044Y24934D2*
X40912D1*
X40734Y25112D1*
Y25457D1*
X43504Y30959D2*
Y29957D1*
X43349Y29802D1*
X41848D1*
X39698Y35598D2*
Y34290D1*
X39728D1*
X30094Y25784D2*
X29834Y26044D1*
X29226D1*
Y28229D1*
X34639Y21996D2*
X34167D1*
X34009Y22153D1*
Y23361D1*
X33852Y23519D1*
X32032D1*
X36175Y21634D2*
X36089Y21548D1*
X34973D1*
X34639Y21882D1*
Y21996D1*
X39127Y21215D2*
X38708Y21634D1*
X36175D1*
X43078Y22508D2*
X41785Y21215D1*
X39127D1*
X44287Y22508D2*
X43078D1*
X29226Y28229D2*
X30197D1*
X30354Y28386D1*
Y28819D1*
X9737Y23889D2*
X9477Y23629D1*
X8457D1*
X17138Y23954D2*
X16878Y23694D1*
Y22210D1*
X17036Y22052D1*
X17508D1*
X23193Y21894D2*
X22720D1*
X22563Y22051D1*
Y23186D1*
X22405Y23344D1*
X21656D1*
X21460Y23540D1*
X20554D1*
X24571Y24120D2*
Y21457D1*
X24413Y21299D1*
X23350D1*
X23193Y21457D1*
Y21894D1*
X10011Y11750D2*
X8307D1*
X8149Y11593D1*
Y11009D1*
X14000Y11088D2*
Y12163D1*
X13842Y12321D1*
X10169D1*
X10011Y12163D1*
Y11750D1*
X15929D2*
Y11480D1*
X15536Y11088D1*
X14000D1*
X19790Y11074D2*
Y12006D1*
X19539Y12257D1*
X16076D1*
X15929Y12110D1*
Y11750D1*
X21608D2*
Y11232D1*
X21450Y11074D1*
X19790D1*
X25517Y10936D2*
Y12006D1*
X25359Y12163D1*
X21608D1*
Y11750D1*
X27524D2*
Y11093D1*
X27366Y10936D1*
X25517D1*
X30831Y11274D2*
Y12006D1*
X30580Y12257D1*
X27651D1*
X27524Y12130D1*
Y11750D1*
X33112D2*
Y11274D1*
X30831D1*
X36194Y12296D2*
X33281D1*
X33112Y12128D1*
Y11750D1*
X8457Y23629D2*
Y27218D1*
X7660Y28014D1*
X15160Y28034D2*
Y24627D1*
X15420Y24367D1*
X44359Y28075D2*
X43724D1*
X43718Y28081D1*
X43472D1*
X52294Y28196D2*
X52077D1*
Y28623D1*
X51711Y28989D1*
X46778D1*
X45863Y28075D1*
X44359D1*
X52322Y29735D2*
X52294D1*
Y28196D1*
X52322Y31188D2*
Y29735D1*
X52345Y32727D2*
Y31188D1*
X52322D1*
X52330Y34306D2*
X52345D1*
Y32727D1*
X52298Y25174D2*
X52289Y23655D1*
X52275Y26672D2*
Y25174D1*
X52298D1*
X42127Y10215D2*
Y9065D1*
X41972Y8910D1*
X55155Y8048D2*
Y7625D1*
X55313Y7468D1*
X56824D1*
X56903Y7389D1*
X55144Y10104D2*
X55155Y8048D1*
X39127Y12215D2*
X39556Y11786D1*
X54061D1*
X54219Y11943D1*
Y12550D1*
X29600Y26458D2*
Y26871D1*
X29758Y27029D1*
X31702D1*
X31859Y26871D1*
Y26435D1*
X29606Y28819D2*
Y29257D1*
X31807D1*
Y28843D1*
X23556Y43714D2*
D16*
X24580D1*
Y43001D1*
X25537D1*
D15*
X26452D1*
Y37350D1*
X27022Y36779D1*
X42617D1*
X43188Y36208D1*
Y34817D1*
X44107Y33950D2*
D19*
Y33596D1*
X43910Y33399D1*
X43005D1*
X42814Y33590D1*
Y33912D1*
X45570Y33965D2*
Y33296D1*
X45728Y33138D1*
X48539D1*
Y32725D1*
X30328Y33596D2*
D16*
Y32278D1*
X29639D1*
Y31363D1*
X37267Y31491D2*
D15*
X37457Y31681D1*
X40399D1*
X42060Y31273D2*
D19*
X40328D1*
X40025Y30970D1*
Y30775D1*
X47783Y31203D2*
Y31273D1*
X46863D1*
X16662Y8658D2*
Y10200D1*
X16677D1*
Y11750D1*
X36233Y31443D2*
D16*
X36076D1*
Y32360D1*
X36863D1*
Y32620D1*
D15*
X43130D1*
Y31865D1*
X36863Y32620D2*
D16*
Y33635D1*
X42756Y30959D2*
D19*
Y30249D1*
X42769D1*
X45525D2*
X48359D1*
X48513Y30096D1*
Y29721D1*
X58439Y32887D2*
D16*
X57613Y32060D1*
Y30210D1*
X41188Y28899D2*
X40405Y28857D1*
X48534Y28186D2*
D19*
D3*
X40879Y26981D2*
X40407D1*
X40052Y27336D1*
Y27930D1*
X40031Y27951D1*
X48477Y27572D2*
Y28129D1*
X48534Y28186D1*
X54699Y35302D2*
D16*
X45540D1*
X44753Y34515D1*
Y29773D1*
X43966Y28986D1*
X43098D1*
X66353Y32887D2*
Y31572D1*
X65790D1*
Y30657D1*
X42724Y28081D2*
D19*
Y27408D1*
X42881Y27251D1*
X48349D1*
X48506Y27093D1*
Y26680D1*
X53132Y32429D2*
D15*
Y29403D1*
X53703Y28832D1*
X73567D1*
X74138Y29403D1*
Y30548D1*
X39028Y27213D2*
Y26363D1*
X40360D1*
X74138Y30548D2*
D16*
X75191D1*
X39265Y24029D2*
D19*
X44185D1*
X45799Y25643D1*
X48399D1*
X48490Y25551D1*
Y25161D1*
X39265Y25052D2*
X39895D1*
X39986Y25144D1*
Y25457D1*
X83493Y32761D2*
D16*
Y31737D1*
X82944D1*
Y30056D1*
X43063Y26342D2*
D15*
X45985D1*
X48471Y23739D2*
D19*
X48739D1*
X48950Y23950D1*
Y25518D1*
X48628Y25840D1*
X42689D1*
Y25437D1*
X25270Y23549D2*
Y21861D1*
X25287D1*
Y21063D1*
X25445Y20906D1*
X25976D1*
Y20000D1*
X10759Y11750D2*
Y10208D1*
X10752Y10200D1*
Y5816D1*
X11018Y5550D1*
X19745Y22033D2*
Y21323D1*
X20162Y20906D1*
Y20000D1*
X19806Y23540D2*
X19745D1*
Y22033D1*
X14165Y21948D2*
Y21226D1*
X14334Y21057D1*
Y20000D1*
X14206Y23638D2*
X14165D1*
Y21948D1*
X31284Y23519D2*
Y21859D1*
X31252D1*
X30701D1*
Y21476D1*
X7709Y23629D2*
Y21965D1*
X7685D1*
Y21537D1*
X7842Y21379D1*
X8334D1*
X8492Y21222D1*
Y20000D1*
X34177Y9137D2*
X33863Y9451D1*
Y10200D1*
X33860Y11750D1*
X28240Y9186D2*
Y10200D1*
X28272D1*
Y11750D1*
X22566Y9068D2*
X22372Y9263D1*
Y10200D1*
X22356D1*
Y11750D1*
X10498Y27367D2*
X11641D1*
Y27209D1*
X16440Y30337D2*
X17436D1*
X17660Y30561D1*
X19116D1*
X48850Y7143D2*
X55529D1*
X39717Y13215D2*
X40242Y12690D1*
X48850D1*
Y12628D1*
X55529Y7143D2*
Y6599D1*
X55564Y6564D1*
Y5289D1*
X54219Y13298D2*
X55545D1*
X55610Y13233D1*
X56148D1*
X61647D1*
X61804Y13075D1*
Y5131D1*
X62340Y4596D1*
X23940Y27593D2*
X22205D1*
X21787Y28011D1*
X21347D1*
X23940Y30427D2*
X23229D1*
X23096Y30560D1*
X21362D1*
X51582Y34306D2*
Y34291D1*
X50419D1*
X30328Y39603D2*
D20*
X31091D1*
X32042Y40555D1*
Y45070D1*
X29777Y47336D1*
X36863Y39643D2*
X37960D1*
X39429Y41112D1*
Y45650D1*
X41155Y47375D1*
X58439Y38895D2*
X55487D1*
Y40879D2*
X53991D1*
X53518Y41351D1*
Y44832D1*
X54812D1*
X57316Y47336D1*
X55487Y42863D2*
X58439D1*
X66353Y38895D2*
X67849D1*
X69148Y40194D1*
Y44423D1*
X72060Y47336D1*
X66353Y40879D2*
X63400D1*
X74620Y40958D2*
X76175D1*
X79920Y45040D1*
X80229Y47336D1*
X74620Y42942D2*
X71668D1*
X51597Y32727D2*
D19*
X51203D1*
X51197Y32733D1*
X50373D1*
X51574Y31188D2*
Y31208D1*
X50376D1*
X51573Y29735D2*
Y29369D1*
X51391Y29186D1*
X49816D1*
X49605Y29397D1*
Y29714D1*
X51546Y28196D2*
Y28520D1*
X51351Y28714D1*
X49737D1*
X49601Y28578D1*
Y28209D1*
X51527Y26672D2*
Y27002D1*
X51312Y27218D1*
X49777D1*
X49562Y27003D1*
Y26672D1*
X51541Y23655D2*
Y24036D1*
X51421Y24155D1*
X49707D1*
X49606Y24054D1*
Y23742D1*
X51550Y25174D2*
Y25484D1*
X51312Y25721D1*
X49816D1*
X49583Y25488D1*
Y25161D1*
X49671Y34291D2*
X49254D1*
X49247Y34298D1*
X48525D1*
Y34651D1*
X48359Y34816D1*
X46824D1*
X46645Y34637D1*
Y34300D1*
X49625Y32733D2*
Y32341D1*
X49462Y32178D1*
X47966D1*
X47791Y32353D1*
Y32725D1*
X46623D1*
X45682Y31784D1*
X48531Y31203D2*
Y30815D1*
X48399Y30682D1*
X47099D1*
X49628Y31208D2*
X48531Y31203D1*
X50353Y29714D2*
Y30067D1*
X50170Y30249D1*
X49344D1*
X49029Y29934D1*
Y29383D1*
X48832Y29186D1*
X47966D1*
X47765Y29387D1*
Y29721D1*
X45772D1*
X45521Y29470D1*
X50349Y28209D2*
Y27869D1*
X50263Y27782D1*
X49172D1*
X48989Y27966D1*
Y28477D1*
X48714Y28753D1*
X47966D1*
X47786Y28573D1*
Y28186D1*
Y27743D1*
X47629Y27586D1*
X43895D1*
X50310Y26672D2*
Y26294D1*
X50170Y26155D1*
X47887D1*
X47758Y26283D1*
Y26680D1*
Y26598D1*
X47336Y27021D1*
X41666D1*
X47742Y25161D2*
X47064D1*
X46906Y25003D1*
Y14786D1*
X46749Y14628D1*
X39540D1*
X39127Y14215D1*
X50328Y24540D2*
X50331D1*
Y25161D2*
Y24543D1*
X47769Y24540D2*
X47729Y24501D1*
Y25148D1*
X47742Y25161D1*
X40127Y13628D2*
X47566D1*
X47769Y13831D1*
Y23739D1*
X47723D1*
X47769D2*
Y23241D1*
X47999Y23011D1*
X50196D1*
X50354Y23169D1*
Y23742D1*
X10220Y29786D2*
X7660D1*
X17720Y29806D2*
X15160D1*
X25220Y28124D2*
X22660D1*
D18*
X40879Y26981D3*
X47769Y24540D3*
X12488Y27957D3*
X42245Y22744D3*
X45875Y22061D3*
X57119Y4596D3*
X25863Y8635D3*
X47733Y10950D3*
X30831Y8773D3*
X35407Y23276D3*
X23980Y22126D3*
X39363Y6991D3*
X40131Y8792D3*
X19855Y8635D3*
X29027Y23427D3*
X19949Y28818D3*
X46197Y16624D3*
X17976Y15802D3*
X16563Y21319D3*
X41970Y11042D3*
X42540Y4408D3*
X43556Y24422D3*
X37827Y24053D3*
X42402Y33519D3*
X46116D3*
X29226Y28229D3*
X24571Y24120D3*
X36175Y21634D3*
X36194Y12296D3*
X43078Y18708D3*
X50328Y24540D3*
X43044Y24934D3*
X44359Y28075D3*
X41848Y28131D3*
X39698Y35598D3*
X43078Y22508D3*
X56903Y7389D3*
X44107Y33950D3*
X45570Y33965D3*
X37267Y31491D3*
X42060Y31273D3*
X46863D3*
X16662Y8658D3*
X42769Y30249D3*
X45525D3*
X41188Y28899D3*
X54699Y35302D3*
X75191Y30548D3*
X39028Y27213D3*
X53132Y32429D3*
X39265Y24029D3*
Y25052D3*
X45985Y26342D3*
X30701Y21476D3*
X34177Y9137D3*
X28240Y9186D3*
X22566Y9068D3*
X10498Y27367D3*
X48850Y7143D3*
Y12628D3*
X39717Y13215D3*
X46645Y34300D3*
X45682Y31784D3*
X47099Y30682D3*
X45521Y29470D3*
X43895Y27586D3*
X41666Y27021D3*
X40127Y13628D3*
X48477Y27572D3*
X51344Y9439D3*
X68698Y30586D3*
X6501Y50676D2*
D23*
X44502D1*
X47126D2*
X48252D1*
X50876D2*
X88877D1*
X6572Y50428D2*
X44436D1*
X47197D2*
X48186D1*
X50947D2*
X88811D1*
X6591Y50179D2*
X44412D1*
X47216D2*
X48162D1*
X50966D2*
X88787D1*
X6568Y49930D2*
X44440D1*
X47193D2*
X48190D1*
X50943D2*
X88815D1*
X6494Y49682D2*
X44510D1*
X47119D2*
X48260D1*
X50869D2*
X88885D1*
X6365Y49433D2*
X44639D1*
X46990D2*
X48389D1*
X50740D2*
X89014D1*
X6154Y49184D2*
X44850D1*
X46779D2*
X48600D1*
X50529D2*
X89225D1*
X5779Y48935D2*
X45225D1*
X46404D2*
X48975D1*
X50154D2*
X89600D1*
X4480Y48687D2*
X90901D1*
X4480Y48438D2*
X11666D1*
X12138D2*
X14916D1*
X15384D2*
X18162D1*
X18634D2*
X23045D1*
X23517D2*
X26295D1*
X26763D2*
X29541D1*
X30013D2*
X34276D1*
X35044D2*
X37522D1*
X38291D2*
X40772D1*
X41541D2*
X53834D1*
X54302D2*
X57080D1*
X57552D2*
X60330D1*
X60798D2*
X65330D1*
X65798D2*
X68576D1*
X69048D2*
X71826D1*
X72294D2*
X76744D1*
X77216D2*
X79994D1*
X80462D2*
X83241D1*
X83712D2*
X90901D1*
X4480Y48189D2*
X11151D1*
X12658D2*
X14397D1*
X15904D2*
X17647D1*
X19154D2*
X22526D1*
X24033D2*
X25776D1*
X27283D2*
X29022D1*
X30529D2*
X33862D1*
X35455D2*
X37108D1*
X38705D2*
X40358D1*
X41951D2*
X53315D1*
X54822D2*
X56561D1*
X58068D2*
X59811D1*
X61318D2*
X64811D1*
X66318D2*
X68057D1*
X69564D2*
X71307D1*
X72814D2*
X76229D1*
X77736D2*
X79475D1*
X80982D2*
X82725D1*
X84232D2*
X90901D1*
X4480Y47941D2*
X10932D1*
X12873D2*
X14182D1*
X16123D2*
X17428D1*
X19369D2*
X22311D1*
X24251D2*
X25557D1*
X27498D2*
X28807D1*
X30783D2*
X33662D1*
X35654D2*
X36912D1*
X38900D2*
X40108D1*
X42150D2*
X53096D1*
X55037D2*
X56311D1*
X58287D2*
X59592D1*
X61533D2*
X64592D1*
X66533D2*
X67842D1*
X69783D2*
X71053D1*
X73029D2*
X76010D1*
X77951D2*
X79260D1*
X81201D2*
X82506D1*
X84447D2*
X90901D1*
X4480Y47692D2*
X10815D1*
X12994D2*
X14061D1*
X16240D2*
X17311D1*
X19490D2*
X22190D1*
X24369D2*
X25440D1*
X27619D2*
X28686D1*
X31033D2*
X33557D1*
X35759D2*
X36803D1*
X39009D2*
X39858D1*
X42255D2*
X52979D1*
X55158D2*
X56061D1*
X58404D2*
X59475D1*
X61654D2*
X64475D1*
X66654D2*
X67721D1*
X69900D2*
X70803D1*
X73150D2*
X75893D1*
X78072D2*
X79139D1*
X81318D2*
X82389D1*
X84568D2*
X90901D1*
X4480Y47443D2*
X10760D1*
X13044D2*
X14010D1*
X16294D2*
X17256D1*
X19541D2*
X22139D1*
X24423D2*
X25385D1*
X27669D2*
X28635D1*
X31283D2*
X33514D1*
X35802D2*
X36760D1*
X39052D2*
X39612D1*
X42298D2*
X52924D1*
X55209D2*
X55811D1*
X58459D2*
X59420D1*
X61705D2*
X64420D1*
X66705D2*
X67670D1*
X69955D2*
X70557D1*
X73201D2*
X75838D1*
X78123D2*
X79088D1*
X81373D2*
X82334D1*
X84619D2*
X90901D1*
X4480Y47195D2*
X7326D1*
X8763D2*
X10764D1*
X13041D2*
X14014D1*
X16291D2*
X17260D1*
X19537D2*
X22143D1*
X24419D2*
X25389D1*
X27666D2*
X28639D1*
X31529D2*
X33526D1*
X35791D2*
X36776D1*
X39041D2*
X39362D1*
X42287D2*
X52928D1*
X55205D2*
X55565D1*
X58455D2*
X59424D1*
X61701D2*
X64424D1*
X66701D2*
X67674D1*
X69951D2*
X70307D1*
X73197D2*
X75842D1*
X78119D2*
X79053D1*
X81369D2*
X82338D1*
X84615D2*
X86928D1*
X87822D2*
X90901D1*
X4480Y46946D2*
X7092D1*
X8994D2*
X10826D1*
X12982D2*
X14073D1*
X16228D2*
X17323D1*
X19478D2*
X22201D1*
X24357D2*
X25451D1*
X27607D2*
X28698D1*
X31779D2*
X33596D1*
X35720D2*
X36846D1*
X38970D2*
X39112D1*
X42216D2*
X52991D1*
X55146D2*
X55315D1*
X58392D2*
X59487D1*
X61642D2*
X64487D1*
X66642D2*
X67733D1*
X69888D2*
X70057D1*
X73138D2*
X75905D1*
X78060D2*
X79018D1*
X81334D2*
X82401D1*
X84556D2*
X86553D1*
X88197D2*
X90901D1*
X4480Y46697D2*
X6967D1*
X9123D2*
X10955D1*
X12849D2*
X14201D1*
X16099D2*
X17451D1*
X19345D2*
X22334D1*
X24228D2*
X25580D1*
X27478D2*
X28830D1*
X32029D2*
X33741D1*
X35580D2*
X36987D1*
X42076D2*
X53119D1*
X58263D2*
X59616D1*
X61513D2*
X64616D1*
X66513D2*
X67866D1*
X73009D2*
X76034D1*
X77931D2*
X78987D1*
X81302D2*
X82530D1*
X84427D2*
X86369D1*
X88380D2*
X90901D1*
X4480Y46449D2*
X6905D1*
X9185D2*
X11190D1*
X12615D2*
X14440D1*
X15865D2*
X17686D1*
X19111D2*
X22569D1*
X23994D2*
X25815D1*
X27240D2*
X29053D1*
X32275D2*
X33998D1*
X35318D2*
X37248D1*
X41841D2*
X53354D1*
X58041D2*
X59850D1*
X61275D2*
X64850D1*
X66275D2*
X68100D1*
X72787D2*
X76268D1*
X77693D2*
X78951D1*
X81267D2*
X82764D1*
X84189D2*
X86268D1*
X88482D2*
X90901D1*
X4480Y46200D2*
X6905D1*
X9185D2*
X29299D1*
X32525D2*
X38428D1*
X41591D2*
X54569D1*
X57791D2*
X69311D1*
X72537D2*
X78920D1*
X81236D2*
X86229D1*
X88521D2*
X90901D1*
X4480Y45951D2*
X6955D1*
X9130D2*
X29549D1*
X32775D2*
X38323D1*
X41341D2*
X53416D1*
X57544D2*
X69065D1*
X72287D2*
X78885D1*
X81201D2*
X86244D1*
X88505D2*
X90901D1*
X4480Y45703D2*
X7076D1*
X9013D2*
X29799D1*
X32994D2*
X38284D1*
X41095D2*
X52784D1*
X57294D2*
X68815D1*
X72041D2*
X78854D1*
X81166D2*
X86323D1*
X88427D2*
X90901D1*
X4480Y45454D2*
X7295D1*
X8794D2*
X30045D1*
X33123D2*
X38284D1*
X40845D2*
X52561D1*
X57044D2*
X68565D1*
X71791D2*
X78752D1*
X81134D2*
X86475D1*
X88275D2*
X90901D1*
X4480Y45205D2*
X7834D1*
X8255D2*
X30295D1*
X33181D2*
X38284D1*
X40595D2*
X52436D1*
X56798D2*
X68319D1*
X71541D2*
X78526D1*
X81099D2*
X86752D1*
X87998D2*
X90901D1*
X4480Y44956D2*
X30545D1*
X33189D2*
X38284D1*
X40576D2*
X52377D1*
X56548D2*
X68135D1*
X71294D2*
X78295D1*
X81068D2*
X90901D1*
X4480Y44708D2*
X30791D1*
X33189D2*
X38284D1*
X40576D2*
X52369D1*
X56298D2*
X68037D1*
X71044D2*
X78069D1*
X81017D2*
X90901D1*
X4480Y44459D2*
X13244D1*
X13916D2*
X15229D1*
X15900D2*
X17213D1*
X17884D2*
X23221D1*
X23892D2*
X30893D1*
X33189D2*
X38284D1*
X40576D2*
X52369D1*
X56052D2*
X68002D1*
X70794D2*
X77838D1*
X80904D2*
X90901D1*
X4480Y44210D2*
X12920D1*
X14240D2*
X14905D1*
X16224D2*
X16885D1*
X18209D2*
X22893D1*
X24888D2*
X26858D1*
X27892D2*
X29807D1*
X33189D2*
X33346D1*
X34478D2*
X36295D1*
X37431D2*
X38284D1*
X40576D2*
X52369D1*
X55802D2*
X68002D1*
X70548D2*
X77612D1*
X80709D2*
X90901D1*
X4480Y43962D2*
X7346D1*
X8744D2*
X12787D1*
X14373D2*
X14772D1*
X16357D2*
X16756D1*
X18341D2*
X22764D1*
X25119D2*
X26643D1*
X28107D2*
X29596D1*
X34662D2*
X36112D1*
X37615D2*
X38284D1*
X40576D2*
X52369D1*
X58693D2*
X68002D1*
X70298D2*
X71174D1*
X75115D2*
X77385D1*
X80478D2*
X86967D1*
X87783D2*
X90901D1*
X4480Y43713D2*
X7104D1*
X9005D2*
X12748D1*
X14412D2*
X14733D1*
X16396D2*
X16717D1*
X18380D2*
X22725D1*
X26259D2*
X26557D1*
X28197D2*
X29506D1*
X34736D2*
X36037D1*
X37689D2*
X38284D1*
X40576D2*
X52369D1*
X59197D2*
X68002D1*
X70294D2*
X70826D1*
X75462D2*
X77155D1*
X80251D2*
X86569D1*
X88181D2*
X90901D1*
X4480Y43464D2*
X6971D1*
X9251D2*
X12787D1*
X14373D2*
X14772D1*
X16357D2*
X16756D1*
X18341D2*
X22764D1*
X26259D2*
X26549D1*
X28201D2*
X29502D1*
X34728D2*
X36045D1*
X37681D2*
X38284D1*
X40576D2*
X52369D1*
X59412D2*
X62834D1*
X63962D2*
X65787D1*
X66916D2*
X68002D1*
X70294D2*
X70651D1*
X75638D2*
X76928D1*
X80021D2*
X80164D1*
X80916D2*
X83119D1*
X83869D2*
X86377D1*
X88373D2*
X90901D1*
X4480Y43216D2*
X6909D1*
X9501D2*
X12920D1*
X14240D2*
X14905D1*
X16224D2*
X16889D1*
X18209D2*
X22897D1*
X28123D2*
X29576D1*
X34638D2*
X36135D1*
X37591D2*
X38284D1*
X40576D2*
X42483D1*
X43623D2*
X45733D1*
X46873D2*
X48979D1*
X50119D2*
X52369D1*
X59529D2*
X62647D1*
X64150D2*
X65600D1*
X67103D2*
X68002D1*
X70294D2*
X70553D1*
X75732D2*
X76698D1*
X81216D2*
X82819D1*
X84169D2*
X86272D1*
X88478D2*
X90901D1*
X4480Y42967D2*
X6901D1*
X9751D2*
X13248D1*
X13912D2*
X15233D1*
X15896D2*
X17217D1*
X17880D2*
X23225D1*
X27935D2*
X29768D1*
X33189D2*
X33401D1*
X34423D2*
X36350D1*
X37376D2*
X38284D1*
X40576D2*
X42178D1*
X43927D2*
X45424D1*
X47177D2*
X48674D1*
X50423D2*
X52369D1*
X59584D2*
X62573D1*
X64224D2*
X65526D1*
X67177D2*
X68002D1*
X70294D2*
X70522D1*
X75767D2*
X76471D1*
X79568D2*
X79741D1*
X81337D2*
X82694D1*
X84291D2*
X86229D1*
X88521D2*
X90901D1*
X4480Y42718D2*
X6951D1*
X9998D2*
X24057D1*
X26939D2*
X30893D1*
X33189D2*
X38284D1*
X40576D2*
X42014D1*
X44091D2*
X45264D1*
X47337D2*
X48510D1*
X50587D2*
X52369D1*
X59576D2*
X62580D1*
X64220D2*
X65534D1*
X67173D2*
X68002D1*
X70294D2*
X70541D1*
X75744D2*
X76241D1*
X79337D2*
X79709D1*
X81373D2*
X82662D1*
X84326D2*
X86244D1*
X88505D2*
X90901D1*
X4480Y42470D2*
X7069D1*
X10248D2*
X24346D1*
X26939D2*
X30893D1*
X33189D2*
X38284D1*
X40576D2*
X41932D1*
X44177D2*
X45178D1*
X47423D2*
X48428D1*
X50673D2*
X52369D1*
X59517D2*
X62670D1*
X64130D2*
X65623D1*
X67084D2*
X68002D1*
X70294D2*
X70623D1*
X75662D2*
X76014D1*
X79111D2*
X79752D1*
X81326D2*
X82705D1*
X84279D2*
X86315D1*
X88435D2*
X90901D1*
X4480Y42221D2*
X7280D1*
X10498D2*
X24815D1*
X27900D2*
X29803D1*
X33189D2*
X33338D1*
X34482D2*
X36291D1*
X37435D2*
X38284D1*
X40576D2*
X41905D1*
X44201D2*
X45155D1*
X47451D2*
X48401D1*
X50697D2*
X52369D1*
X59384D2*
X62885D1*
X63916D2*
X65838D1*
X66869D2*
X68002D1*
X70294D2*
X70784D1*
X75505D2*
X75787D1*
X78880D2*
X79893D1*
X81185D2*
X82846D1*
X84138D2*
X86463D1*
X88287D2*
X90901D1*
X4480Y41972D2*
X7526D1*
X10744D2*
X24815D1*
X28111D2*
X29592D1*
X34666D2*
X36108D1*
X37619D2*
X38284D1*
X40576D2*
X41936D1*
X44169D2*
X45186D1*
X47419D2*
X48432D1*
X50666D2*
X52369D1*
X59146D2*
X63123D1*
X66630D2*
X68002D1*
X70294D2*
X71076D1*
X78654D2*
X80256D1*
X80822D2*
X83209D1*
X83775D2*
X86729D1*
X88021D2*
X90901D1*
X4480Y41724D2*
X7776D1*
X10994D2*
X23737D1*
X28197D2*
X29506D1*
X34736D2*
X36037D1*
X37689D2*
X38284D1*
X40576D2*
X42030D1*
X44076D2*
X45276D1*
X47326D2*
X48526D1*
X50841D2*
X52369D1*
X56251D2*
X62635D1*
X67119D2*
X68002D1*
X70294D2*
X71389D1*
X71947D2*
X73776D1*
X78427D2*
X90901D1*
X4480Y41475D2*
X8026D1*
X11244D2*
X13178D1*
X13982D2*
X15162D1*
X15966D2*
X17147D1*
X17951D2*
X23155D1*
X28201D2*
X29502D1*
X34728D2*
X36045D1*
X37681D2*
X38178D1*
X40576D2*
X42201D1*
X43904D2*
X45451D1*
X47154D2*
X48698D1*
X51091D2*
X52369D1*
X56462D2*
X57869D1*
X59009D2*
X62424D1*
X67330D2*
X68002D1*
X70294D2*
X71022D1*
X72314D2*
X73600D1*
X78197D2*
X80155D1*
X80927D2*
X83108D1*
X83880D2*
X90901D1*
X4480Y41226D2*
X8272D1*
X11490D2*
X12897D1*
X14263D2*
X14881D1*
X16248D2*
X16862D1*
X18232D2*
X22873D1*
X28123D2*
X29580D1*
X34634D2*
X36139D1*
X37587D2*
X37932D1*
X40576D2*
X42537D1*
X43572D2*
X45784D1*
X46818D2*
X49034D1*
X51341D2*
X52377D1*
X56580D2*
X57686D1*
X59193D2*
X62307D1*
X67447D2*
X68002D1*
X70294D2*
X70881D1*
X72455D2*
X73506D1*
X77970D2*
X79862D1*
X81220D2*
X82815D1*
X84173D2*
X90901D1*
X4480Y40977D2*
X8522D1*
X11740D2*
X12776D1*
X14384D2*
X14760D1*
X16369D2*
X16744D1*
X18349D2*
X22752D1*
X27927D2*
X29776D1*
X33189D2*
X33405D1*
X34416D2*
X36358D1*
X37369D2*
X37682D1*
X40568D2*
X50026D1*
X51587D2*
X52436D1*
X56630D2*
X57612D1*
X59267D2*
X62256D1*
X67498D2*
X68002D1*
X70294D2*
X70834D1*
X72501D2*
X73475D1*
X77740D2*
X79741D1*
X81341D2*
X82694D1*
X84294D2*
X90901D1*
X4480Y40729D2*
X7366D1*
X11990D2*
X12748D1*
X14412D2*
X14733D1*
X16396D2*
X16717D1*
X18380D2*
X22725D1*
X26939D2*
X30604D1*
X33189D2*
X36557D1*
X40509D2*
X50276D1*
X51837D2*
X52561D1*
X56623D2*
X57619D1*
X59259D2*
X62264D1*
X67490D2*
X68002D1*
X70294D2*
X70869D1*
X72466D2*
X73498D1*
X77513D2*
X79709D1*
X81373D2*
X82662D1*
X84326D2*
X87014D1*
X87736D2*
X90901D1*
X4480Y40480D2*
X7116D1*
X12236D2*
X12799D1*
X14361D2*
X14784D1*
X16345D2*
X16768D1*
X18330D2*
X22494D1*
X26939D2*
X29604D1*
X33185D2*
X36092D1*
X40380D2*
X50522D1*
X52087D2*
X52776D1*
X56560D2*
X57713D1*
X59166D2*
X62326D1*
X67427D2*
X67823D1*
X70294D2*
X70991D1*
X72345D2*
X73580D1*
X77287D2*
X79756D1*
X81326D2*
X82709D1*
X84279D2*
X86584D1*
X88166D2*
X90901D1*
X4480Y40231D2*
X6975D1*
X9111D2*
X9271D1*
X12486D2*
X12944D1*
X14212D2*
X14928D1*
X16197D2*
X16912D1*
X18181D2*
X22244D1*
X27908D2*
X29373D1*
X33142D2*
X33334D1*
X34490D2*
X35881D1*
X40162D2*
X50772D1*
X52334D2*
X53026D1*
X56427D2*
X57932D1*
X58947D2*
X62459D1*
X67294D2*
X67573D1*
X70294D2*
X71291D1*
X72044D2*
X73741D1*
X77056D2*
X79901D1*
X81181D2*
X82850D1*
X84134D2*
X86385D1*
X88365D2*
X90901D1*
X4480Y39983D2*
X6909D1*
X9259D2*
X9518D1*
X17041D2*
X17307D1*
X17787D2*
X21998D1*
X28111D2*
X29248D1*
X34669D2*
X35768D1*
X39912D2*
X51022D1*
X52584D2*
X53291D1*
X58740D2*
X62701D1*
X70275D2*
X74041D1*
X76755D2*
X80272D1*
X80806D2*
X83225D1*
X83759D2*
X86276D1*
X88474D2*
X90901D1*
X4480Y39734D2*
X6901D1*
X9509D2*
X9764D1*
X17459D2*
X21748D1*
X28197D2*
X29190D1*
X32834D2*
X33084D1*
X34736D2*
X35721D1*
X39662D2*
X51268D1*
X52834D2*
X54717D1*
X59209D2*
X65584D1*
X70197D2*
X71373D1*
X71962D2*
X74326D1*
X74916D2*
X86229D1*
X88521D2*
X90901D1*
X4480Y39485D2*
X6948D1*
X9759D2*
X10014D1*
X17658D2*
X21498D1*
X28197D2*
X29186D1*
X32584D2*
X33092D1*
X34728D2*
X35729D1*
X39416D2*
X51518D1*
X53080D2*
X54506D1*
X59419D2*
X62826D1*
X63974D2*
X65373D1*
X70044D2*
X71018D1*
X72318D2*
X73971D1*
X75271D2*
X80143D1*
X80935D2*
X83096D1*
X83888D2*
X86241D1*
X88509D2*
X90901D1*
X4480Y39237D2*
X7057D1*
X10005D2*
X10264D1*
X28119D2*
X29241D1*
X32337D2*
X33186D1*
X34634D2*
X35791D1*
X39166D2*
X51768D1*
X53330D2*
X54393D1*
X59533D2*
X62643D1*
X64158D2*
X65260D1*
X69802D2*
X70881D1*
X72455D2*
X73830D1*
X75408D2*
X79858D1*
X81224D2*
X82811D1*
X84177D2*
X86311D1*
X88439D2*
X90901D1*
X4480Y38988D2*
X7260D1*
X10255D2*
X10510D1*
X27923D2*
X29366D1*
X32087D2*
X33412D1*
X34408D2*
X35928D1*
X38916D2*
X52014D1*
X53580D2*
X54342D1*
X59584D2*
X62573D1*
X64228D2*
X65209D1*
X69556D2*
X70834D1*
X72501D2*
X73787D1*
X75455D2*
X79737D1*
X81341D2*
X82690D1*
X84294D2*
X86451D1*
X88298D2*
X90901D1*
X4480Y38739D2*
X7701D1*
X10505D2*
X10760D1*
X26939D2*
X29588D1*
X31834D2*
X36174D1*
X38650D2*
X52264D1*
X53826D2*
X54350D1*
X59576D2*
X62584D1*
X64216D2*
X65217D1*
X69306D2*
X70869D1*
X72466D2*
X73823D1*
X75419D2*
X79709D1*
X81373D2*
X82662D1*
X84326D2*
X86705D1*
X88044D2*
X90901D1*
X4480Y38491D2*
X7987D1*
X10751D2*
X11010D1*
X26939D2*
X30159D1*
X31263D2*
X52514D1*
X54076D2*
X54416D1*
X59513D2*
X62678D1*
X64123D2*
X65280D1*
X69056D2*
X70994D1*
X72341D2*
X73948D1*
X75291D2*
X79756D1*
X81322D2*
X82709D1*
X84275D2*
X90901D1*
X4480Y38242D2*
X8237D1*
X11001D2*
X11256D1*
X26939D2*
X52760D1*
X54326D2*
X54549D1*
X59376D2*
X62901D1*
X63900D2*
X65416D1*
X68810D2*
X71303D1*
X72033D2*
X74252D1*
X74986D2*
X79905D1*
X81177D2*
X82858D1*
X84130D2*
X90901D1*
X4480Y37993D2*
X8483D1*
X11251D2*
X11534D1*
X26939D2*
X53010D1*
X54572D2*
X54791D1*
X59134D2*
X65659D1*
X68541D2*
X80291D1*
X80791D2*
X83244D1*
X83744D2*
X90901D1*
X4480Y37745D2*
X8733D1*
X26939D2*
X53260D1*
X54822D2*
X90901D1*
X4480Y37496D2*
X8983D1*
X26986D2*
X53506D1*
X55072D2*
X90901D1*
X4480Y37247D2*
X9229D1*
X27232D2*
X53756D1*
X55318D2*
X90901D1*
X4480Y36998D2*
X9479D1*
X43076D2*
X54006D1*
X55568D2*
X90901D1*
X4480Y36750D2*
X9729D1*
X43326D2*
X54252D1*
X55818D2*
X90901D1*
X4480Y36501D2*
X9975D1*
X43572D2*
X54502D1*
X56064D2*
X90901D1*
X4480Y36252D2*
X10229D1*
X40271D2*
X42463D1*
X43673D2*
X54752D1*
X56193D2*
X90901D1*
X4480Y36004D2*
X12682D1*
X40521D2*
X42701D1*
X43677D2*
X54998D1*
X56205D2*
X90901D1*
X4480Y35755D2*
X12744D1*
X40767D2*
X42701D1*
X43677D2*
X45166D1*
X56205D2*
X90901D1*
X4480Y35506D2*
X12889D1*
X26505D2*
X39909D1*
X40935D2*
X42701D1*
X43677D2*
X44912D1*
X56205D2*
X90901D1*
X4480Y35258D2*
X13131D1*
X26369D2*
X40057D1*
X41033D2*
X42701D1*
X43677D2*
X44662D1*
X56205D2*
X90901D1*
X4480Y35009D2*
X13381D1*
X26732D2*
X28006D1*
X33318D2*
X40057D1*
X41033D2*
X42701D1*
X43677D2*
X44416D1*
X56205D2*
X90901D1*
X4480Y34760D2*
X13291D1*
X26990D2*
X27760D1*
X33568D2*
X40057D1*
X41033D2*
X42701D1*
X43677D2*
X44213D1*
X54904D2*
X55084D1*
X56205D2*
X90901D1*
X4480Y34512D2*
X12987D1*
X27240D2*
X27510D1*
X33814D2*
X40057D1*
X41033D2*
X42701D1*
X43677D2*
X44159D1*
X52947D2*
X55084D1*
X62873D2*
X90901D1*
X4480Y34263D2*
X12862D1*
X14455D2*
X14846D1*
X34443D2*
X36330D1*
X37396D2*
X39682D1*
X41408D2*
X42326D1*
X52947D2*
X54971D1*
X63119D2*
X64026D1*
X71119D2*
X90901D1*
X4480Y34014D2*
X12826D1*
X14490D2*
X14811D1*
X31044D2*
X32748D1*
X34650D2*
X36127D1*
X37599D2*
X39682D1*
X41408D2*
X42135D1*
X52947D2*
X54928D1*
X63322D2*
X63744D1*
X71400D2*
X90901D1*
X4480Y33766D2*
X12869D1*
X14447D2*
X14854D1*
X24771D2*
X24920D1*
X31142D2*
X32998D1*
X34732D2*
X36041D1*
X37685D2*
X39682D1*
X52947D2*
X54928D1*
X63369D2*
X63500D1*
X71802D2*
X74487D1*
X74755D2*
X90901D1*
X4480Y33517D2*
X13010D1*
X14306D2*
X14994D1*
X24435D2*
X26545D1*
X31158D2*
X33088D1*
X34810D2*
X36041D1*
X37685D2*
X39682D1*
X48099D2*
X54928D1*
X58970D2*
X62248D1*
X72283D2*
X74006D1*
X75236D2*
X80233D1*
X80849D2*
X83186D1*
X83802D2*
X90901D1*
X4480Y33268D2*
X13362D1*
X13955D2*
X15346D1*
X23931D2*
X26612D1*
X31091D2*
X33166D1*
X35052D2*
X36119D1*
X37607D2*
X40073D1*
X52962D2*
X54748D1*
X59177D2*
X62291D1*
X73154D2*
X73846D1*
X75392D2*
X79889D1*
X81193D2*
X82842D1*
X84146D2*
X90901D1*
X4480Y33019D2*
X15869D1*
X23408D2*
X26784D1*
X30923D2*
X33362D1*
X35154D2*
X36268D1*
X43388D2*
X44159D1*
X52962D2*
X54666D1*
X59259D2*
X62487D1*
X67173D2*
X70834D1*
X73349D2*
X73791D1*
X75451D2*
X79752D1*
X81330D2*
X82701D1*
X84283D2*
X90901D1*
X4480Y32771D2*
X16119D1*
X23158D2*
X27420D1*
X30923D2*
X33994D1*
X35158D2*
X35655D1*
X43591D2*
X44159D1*
X53591D2*
X54662D1*
X59263D2*
X62576D1*
X67177D2*
X70858D1*
X73392D2*
X73811D1*
X75427D2*
X79709D1*
X81373D2*
X82662D1*
X84326D2*
X90901D1*
X4480Y32522D2*
X16381D1*
X22896D2*
X27444D1*
X30923D2*
X34037D1*
X35158D2*
X35502D1*
X43619D2*
X44159D1*
X53701D2*
X54741D1*
X59185D2*
X62655D1*
X67099D2*
X70967D1*
X81560D2*
X82698D1*
X84291D2*
X90901D1*
X4480Y32273D2*
X27444D1*
X30923D2*
X34037D1*
X35158D2*
X35479D1*
X43619D2*
X44159D1*
X53685D2*
X54928D1*
X58990D2*
X62850D1*
X66951D2*
X71229D1*
X72107D2*
X72262D1*
X81791D2*
X82721D1*
X84162D2*
X90901D1*
X4480Y32025D2*
X27143D1*
X30865D2*
X33737D1*
X43619D2*
X44159D1*
X49861D2*
X52643D1*
X53619D2*
X54940D1*
X58412D2*
X63479D1*
X66951D2*
X72034D1*
X81869D2*
X82424D1*
X84087D2*
X90901D1*
X4480Y31776D2*
X27143D1*
X30626D2*
X33737D1*
X43619D2*
X44159D1*
X53619D2*
X55069D1*
X58209D2*
X63596D1*
X66951D2*
X71948D1*
X80337D2*
X80744D1*
X81869D2*
X82350D1*
X84087D2*
X90901D1*
X4480Y31527D2*
X27143D1*
X30501D2*
X33737D1*
X43619D2*
X44159D1*
X53619D2*
X55315D1*
X58209D2*
X63596D1*
X66947D2*
X71944D1*
X79912D2*
X80748D1*
X81869D2*
X82346D1*
X84048D2*
X90901D1*
X4480Y31279D2*
X27143D1*
X30501D2*
X33737D1*
X43990D2*
X44154D1*
X53619D2*
X55420D1*
X58209D2*
X63295D1*
X66869D2*
X71944D1*
X73064D2*
X80748D1*
X81869D2*
X82346D1*
X83857D2*
X90901D1*
X4480Y31030D2*
X18459D1*
X19771D2*
X20705D1*
X22017D2*
X23600D1*
X24279D2*
X27143D1*
X30501D2*
X33737D1*
X37595D2*
X39537D1*
X43990D2*
X44154D1*
X53619D2*
X55420D1*
X58209D2*
X63295D1*
X66650D2*
X71643D1*
X75521D2*
X80748D1*
X81869D2*
X82346D1*
X83541D2*
X90901D1*
X4480Y30781D2*
X8420D1*
X9462D2*
X15901D1*
X16978D2*
X17326D1*
X19771D2*
X20705D1*
X24544D2*
X27143D1*
X30501D2*
X33737D1*
X37095D2*
X39537D1*
X41259D2*
X41784D1*
X43990D2*
X44154D1*
X53619D2*
X55116D1*
X58474D2*
X63295D1*
X66650D2*
X71643D1*
X75736D2*
X80748D1*
X81869D2*
X82346D1*
X83541D2*
X90901D1*
X4480Y30533D2*
X8272D1*
X9611D2*
X15764D1*
X19771D2*
X20705D1*
X24634D2*
X24959D1*
X25482D2*
X39537D1*
X41259D2*
X42268D1*
X43990D2*
X44154D1*
X50439D2*
X52643D1*
X53619D2*
X55116D1*
X58474D2*
X63295D1*
X66650D2*
X71643D1*
X75787D2*
X80448D1*
X83806D2*
X90901D1*
X4480Y30284D2*
X7174D1*
X10705D2*
X14655D1*
X19771D2*
X20705D1*
X25802D2*
X39537D1*
X41259D2*
X42194D1*
X43345D2*
X44159D1*
X53619D2*
X55116D1*
X58474D2*
X63295D1*
X66650D2*
X71643D1*
X75724D2*
X80448D1*
X83806D2*
X90901D1*
X4480Y30035D2*
X7002D1*
X10876D2*
X14494D1*
X19771D2*
X20705D1*
X25908D2*
X42237D1*
X43302D2*
X44159D1*
X53619D2*
X55116D1*
X58474D2*
X63295D1*
X66650D2*
X71643D1*
X75466D2*
X80448D1*
X83806D2*
X90901D1*
X4480Y29787D2*
X6955D1*
X10923D2*
X14455D1*
X19771D2*
X20705D1*
X23357D2*
X23690D1*
X24189D2*
X24526D1*
X25916D2*
X42444D1*
X43095D2*
X43932D1*
X53619D2*
X55116D1*
X58474D2*
X73651D1*
X74626D2*
X80448D1*
X83806D2*
X90901D1*
X4480Y29538D2*
X7002D1*
X10876D2*
X14510D1*
X19771D2*
X20705D1*
X23263D2*
X24616D1*
X25822D2*
X29334D1*
X32080D2*
X42924D1*
X53677D2*
X55116D1*
X58474D2*
X73592D1*
X74626D2*
X80448D1*
X83806D2*
X90901D1*
X4480Y29289D2*
X6940D1*
X8150D2*
X9733D1*
X10939D2*
X14428D1*
X15626D2*
X17252D1*
X23166D2*
X24713D1*
X26001D2*
X28991D1*
X33169D2*
X39916D1*
X41630D2*
X42588D1*
X46068D2*
X47147D1*
X74611D2*
X90901D1*
X4480Y29040D2*
X6834D1*
X8212D2*
X9666D1*
X11048D2*
X14330D1*
X15716D2*
X17162D1*
X23228D2*
X24655D1*
X26060D2*
X28991D1*
X34220D2*
X39838D1*
X41767D2*
X42506D1*
X44853D2*
X45151D1*
X45892D2*
X47557D1*
X51798D2*
X52815D1*
X74455D2*
X90901D1*
X4480Y28792D2*
X6826D1*
X8220D2*
X9662D1*
X11052D2*
X14330D1*
X15716D2*
X17166D1*
X23193D2*
X24690D1*
X26025D2*
X28991D1*
X30970D2*
X31190D1*
X34470D2*
X39811D1*
X41775D2*
X42537D1*
X44603D2*
X47170D1*
X52908D2*
X53065D1*
X74209D2*
X90901D1*
X4480Y28543D2*
X6920D1*
X8126D2*
X9756D1*
X12294D2*
X14432D1*
X15634D2*
X17244D1*
X18447D2*
X18776D1*
X23220D2*
X24659D1*
X25876D2*
X28991D1*
X30970D2*
X31190D1*
X34716D2*
X39901D1*
X41662D2*
X42237D1*
X44353D2*
X47170D1*
X52908D2*
X53311D1*
X73959D2*
X90901D1*
X4480Y28294D2*
X7018D1*
X8306D2*
X9576D1*
X12974D2*
X14506D1*
X15814D2*
X17069D1*
X18373D2*
X19080D1*
X25904D2*
X28991D1*
X30970D2*
X31190D1*
X33169D2*
X33858D1*
X34966D2*
X39541D1*
X41267D2*
X42237D1*
X43959D2*
X47170D1*
X52908D2*
X90901D1*
X4480Y28046D2*
X6955D1*
X8365D2*
X8536D1*
X9345D2*
X9514D1*
X13076D2*
X14455D1*
X15865D2*
X16006D1*
X16873D2*
X17015D1*
X18423D2*
X19354D1*
X25919D2*
X34108D1*
X35216D2*
X39541D1*
X41267D2*
X42237D1*
X44224D2*
X47170D1*
X52908D2*
X90901D1*
X4480Y27797D2*
X6991D1*
X13060D2*
X14498D1*
X18380D2*
X19354D1*
X25841D2*
X34354D1*
X35462D2*
X39541D1*
X41267D2*
X42237D1*
X52908D2*
X90901D1*
X4480Y27548D2*
X7143D1*
X12912D2*
X14662D1*
X18220D2*
X19354D1*
X24642D2*
X24834D1*
X25607D2*
X34604D1*
X35712D2*
X38565D1*
X41267D2*
X41483D1*
X41853D2*
X42237D1*
X51513D2*
X90901D1*
X4480Y27300D2*
X8260D1*
X9619D2*
X9924D1*
X12294D2*
X15768D1*
X17115D2*
X19354D1*
X24580D2*
X29475D1*
X31986D2*
X34854D1*
X35962D2*
X38459D1*
X52892D2*
X90901D1*
X4480Y27051D2*
X8389D1*
X9490D2*
X10022D1*
X12294D2*
X15909D1*
X16974D2*
X19385D1*
X22001D2*
X23506D1*
X24376D2*
X28983D1*
X33224D2*
X35100D1*
X36209D2*
X38475D1*
X39580D2*
X39784D1*
X52892D2*
X90901D1*
X4480Y26802D2*
X10987D1*
X12294D2*
X19557D1*
X22001D2*
X28983D1*
X36459D2*
X38541D1*
X52892D2*
X90901D1*
X4480Y26554D2*
X19807D1*
X21943D2*
X28983D1*
X30962D2*
X31244D1*
X36709D2*
X38541D1*
X41986D2*
X42576D1*
X52892D2*
X90901D1*
X4480Y26305D2*
X20053D1*
X21923D2*
X28983D1*
X30962D2*
X31244D1*
X36955D2*
X38545D1*
X40849D2*
X42576D1*
X52892D2*
X90901D1*
X4480Y26056D2*
X20303D1*
X21779D2*
X28983D1*
X30962D2*
X31244D1*
X33224D2*
X35268D1*
X37205D2*
X38655D1*
X40849D2*
X42358D1*
X52892D2*
X90901D1*
X4480Y25808D2*
X31244D1*
X33224D2*
X35518D1*
X37455D2*
X39498D1*
X41220D2*
X42201D1*
X51779D2*
X90901D1*
X4480Y25559D2*
X35768D1*
X37701D2*
X39022D1*
X41220D2*
X42201D1*
X52916D2*
X90901D1*
X4480Y25310D2*
X36014D1*
X37951D2*
X38752D1*
X41220D2*
X42201D1*
X43923D2*
X44912D1*
X52916D2*
X90901D1*
X4480Y25061D2*
X36264D1*
X38201D2*
X38690D1*
X41220D2*
X42201D1*
X43923D2*
X44662D1*
X45771D2*
X46510D1*
X52916D2*
X90901D1*
X4480Y24813D2*
X36514D1*
X38447D2*
X38744D1*
X40209D2*
X43143D1*
X43970D2*
X44416D1*
X45525D2*
X46506D1*
X52916D2*
X90901D1*
X4480Y24564D2*
X36760D1*
X45275D2*
X46506D1*
X52916D2*
X90901D1*
X4480Y24315D2*
X37010D1*
X45025D2*
X46506D1*
X51814D2*
X90901D1*
X4480Y24067D2*
X7092D1*
X9072D2*
X13592D1*
X15572D2*
X19190D1*
X21169D2*
X24655D1*
X26634D2*
X30666D1*
X32646D2*
X37252D1*
X44779D2*
X46506D1*
X52904D2*
X90901D1*
X4480Y23818D2*
X7092D1*
X9072D2*
X13592D1*
X15572D2*
X19190D1*
X21169D2*
X24655D1*
X26634D2*
X28584D1*
X29728D2*
X30666D1*
X32646D2*
X34166D1*
X35611D2*
X37303D1*
X38349D2*
X38729D1*
X44529D2*
X46506D1*
X52904D2*
X90901D1*
X4480Y23569D2*
X7092D1*
X9072D2*
X10049D1*
X12146D2*
X13592D1*
X15572D2*
X19190D1*
X21169D2*
X24655D1*
X26634D2*
X28448D1*
X29974D2*
X30666D1*
X32646D2*
X34053D1*
X35923D2*
X37537D1*
X38119D2*
X38936D1*
X39595D2*
X46506D1*
X52904D2*
X90901D1*
X4480Y23321D2*
X7092D1*
X9072D2*
X9971D1*
X12396D2*
X13592D1*
X15572D2*
X19190D1*
X21169D2*
X24655D1*
X26634D2*
X28440D1*
X30087D2*
X30666D1*
X32646D2*
X34041D1*
X36001D2*
X46506D1*
X52904D2*
X90901D1*
X4480Y23072D2*
X7092D1*
X9072D2*
X9940D1*
X12646D2*
X13592D1*
X15572D2*
X16951D1*
X18634D2*
X19190D1*
X21169D2*
X22635D1*
X24166D2*
X24655D1*
X26634D2*
X28553D1*
X30099D2*
X30666D1*
X32646D2*
X34080D1*
X42736D2*
X43670D1*
X45775D2*
X46506D1*
X50740D2*
X50926D1*
X52904D2*
X90901D1*
X4480Y22823D2*
X7311D1*
X8107D2*
X9940D1*
X12826D2*
X13764D1*
X14564D2*
X16006D1*
X18712D2*
X19346D1*
X20146D2*
X22627D1*
X24416D2*
X24869D1*
X25669D2*
X28002D1*
X30099D2*
X30885D1*
X31681D2*
X33139D1*
X42837D2*
X43670D1*
X46177D2*
X46506D1*
X50564D2*
X90901D1*
X4480Y22575D2*
X7069D1*
X11056D2*
X11670D1*
X12857D2*
X13549D1*
X18716D2*
X19131D1*
X24556D2*
X24869D1*
X30084D2*
X30885D1*
X42814D2*
X43670D1*
X48169D2*
X90901D1*
X4480Y22326D2*
X7069D1*
X11056D2*
X11803D1*
X12857D2*
X13549D1*
X18716D2*
X19131D1*
X30060D2*
X30635D1*
X42658D2*
X43670D1*
X48169D2*
X90901D1*
X4480Y22077D2*
X7069D1*
X11056D2*
X11803D1*
X12857D2*
X13549D1*
X18716D2*
X19131D1*
X30060D2*
X30373D1*
X35197D2*
X43670D1*
X48169D2*
X90901D1*
X4480Y21829D2*
X7069D1*
X11056D2*
X11803D1*
X12857D2*
X13549D1*
X18716D2*
X19131D1*
X24494D2*
X24669D1*
X30060D2*
X30252D1*
X35197D2*
X38959D1*
X39294D2*
X44959D1*
X48169D2*
X90901D1*
X4480Y21580D2*
X7069D1*
X11056D2*
X11803D1*
X12857D2*
X13549D1*
X18716D2*
X19131D1*
X24173D2*
X24670D1*
X39666D2*
X44588D1*
X46209D2*
X46506D1*
X48169D2*
X90901D1*
X4480Y21331D2*
X7346D1*
X9951D2*
X11588D1*
X12857D2*
X13549D1*
X17138D2*
X17428D1*
X18712D2*
X19346D1*
X23607D2*
X24670D1*
X39771D2*
X44483D1*
X45771D2*
X46506D1*
X48169D2*
X90901D1*
X4480Y21082D2*
X7588D1*
X9951D2*
X10670D1*
X12787D2*
X13795D1*
X18634D2*
X19432D1*
X23857D2*
X24889D1*
X39767D2*
X44487D1*
X45767D2*
X46506D1*
X48169D2*
X90901D1*
X4480Y20834D2*
X7717D1*
X9951D2*
X10217D1*
X12560D2*
X13557D1*
X18404D2*
X19385D1*
X24103D2*
X24967D1*
X41142D2*
X44600D1*
X45654D2*
X46506D1*
X48169D2*
X90901D1*
X4480Y20585D2*
X7510D1*
X12314D2*
X13350D1*
X18154D2*
X19178D1*
X24353D2*
X24994D1*
X45662D2*
X46506D1*
X48169D2*
X90901D1*
X4480Y20336D2*
X7397D1*
X12087D2*
X13237D1*
X17931D2*
X19065D1*
X24603D2*
X24881D1*
X45771D2*
X46506D1*
X48169D2*
X90901D1*
X4480Y20088D2*
X7350D1*
X12134D2*
X13190D1*
X17978D2*
X19018D1*
X45767D2*
X46506D1*
X48169D2*
X90901D1*
X4480Y19839D2*
X7358D1*
X12126D2*
X13198D1*
X17970D2*
X19026D1*
X45658D2*
X46506D1*
X48169D2*
X90901D1*
X4480Y19590D2*
X7420D1*
X12236D2*
X13264D1*
X18076D2*
X19092D1*
X45658D2*
X46506D1*
X48169D2*
X90901D1*
X4480Y19342D2*
X7557D1*
X12482D2*
X13401D1*
X18326D2*
X19229D1*
X45767D2*
X46506D1*
X48169D2*
X90901D1*
X4480Y19093D2*
X7807D1*
X18572D2*
X19475D1*
X39771D2*
X44483D1*
X48169D2*
X90901D1*
X4480Y18844D2*
X9155D1*
X39662D2*
X44592D1*
X48169D2*
X90901D1*
X4480Y18596D2*
X9155D1*
X39654D2*
X44600D1*
X48169D2*
X90901D1*
X4480Y18347D2*
X9155D1*
X39767D2*
X43198D1*
X48169D2*
X90901D1*
X4480Y18098D2*
X9155D1*
X48169D2*
X90901D1*
X4480Y17850D2*
X9155D1*
X48169D2*
X90901D1*
X4480Y17601D2*
X9201D1*
X48169D2*
X90901D1*
X4480Y17352D2*
X9432D1*
X48169D2*
X90901D1*
X4480Y17103D2*
X9682D1*
X48169D2*
X90901D1*
X4480Y16855D2*
X9928D1*
X48169D2*
X90901D1*
X4480Y16606D2*
X10178D1*
X48169D2*
X90901D1*
X4480Y16357D2*
X10498D1*
X48169D2*
X90901D1*
X4480Y16109D2*
X17494D1*
X18459D2*
X38479D1*
X48169D2*
X90901D1*
X4480Y15860D2*
X17401D1*
X48169D2*
X90901D1*
X4480Y15611D2*
X17432D1*
X48169D2*
X90901D1*
X4480Y15363D2*
X17616D1*
X48169D2*
X90901D1*
X4480Y15114D2*
X38479D1*
X48169D2*
X90901D1*
X4480Y14865D2*
X38576D1*
X48169D2*
X90901D1*
X4480Y14617D2*
X38616D1*
X48169D2*
X90901D1*
X4480Y14368D2*
X38491D1*
X48169D2*
X90901D1*
X4480Y14119D2*
X38479D1*
X48169D2*
X90901D1*
X4480Y13871D2*
X38573D1*
X48169D2*
X53565D1*
X54873D2*
X90901D1*
X4480Y13622D2*
X38619D1*
X48103D2*
X53565D1*
X56802D2*
X90901D1*
X4480Y13373D2*
X38491D1*
X47865D2*
X53565D1*
X62060D2*
X90901D1*
X4480Y13124D2*
X38479D1*
X45775D2*
X48584D1*
X49115D2*
X53565D1*
X62201D2*
X90901D1*
X4480Y12876D2*
X38573D1*
X49369D2*
X53565D1*
X54873D2*
X55471D1*
X62205D2*
X90901D1*
X4480Y12627D2*
X38623D1*
X49427D2*
X53565D1*
X54873D2*
X55494D1*
X56802D2*
X61405D1*
X62205D2*
X90901D1*
X4480Y12378D2*
X9397D1*
X11376D2*
X15311D1*
X17291D2*
X20991D1*
X22970D2*
X26909D1*
X28888D2*
X32494D1*
X34474D2*
X38494D1*
X49365D2*
X53565D1*
X54873D2*
X55494D1*
X56802D2*
X61405D1*
X62205D2*
X90901D1*
X4480Y12130D2*
X9397D1*
X11376D2*
X15311D1*
X17291D2*
X20991D1*
X22970D2*
X26909D1*
X28888D2*
X32494D1*
X34474D2*
X38479D1*
X54873D2*
X55494D1*
X56802D2*
X61405D1*
X62205D2*
X90901D1*
X4480Y11881D2*
X9397D1*
X11376D2*
X15311D1*
X17291D2*
X20991D1*
X22970D2*
X26909D1*
X28888D2*
X32494D1*
X34474D2*
X38569D1*
X54611D2*
X61405D1*
X62205D2*
X90901D1*
X4480Y11632D2*
X9397D1*
X11376D2*
X15311D1*
X17291D2*
X20991D1*
X22970D2*
X26909D1*
X28888D2*
X30276D1*
X31388D2*
X32494D1*
X34474D2*
X38631D1*
X54462D2*
X61405D1*
X62205D2*
X90901D1*
X4480Y11384D2*
X7592D1*
X8705D2*
X9397D1*
X11376D2*
X13444D1*
X14556D2*
X15311D1*
X17291D2*
X19233D1*
X20345D2*
X20991D1*
X22970D2*
X24959D1*
X26072D2*
X26909D1*
X28888D2*
X30276D1*
X32334D2*
X32494D1*
X34474D2*
X38494D1*
X48130D2*
X61405D1*
X62205D2*
X90901D1*
X4480Y11135D2*
X7592D1*
X11376D2*
X13444D1*
X17291D2*
X19233D1*
X22970D2*
X24959D1*
X26072D2*
X26909D1*
X28888D2*
X30276D1*
X32334D2*
X32494D1*
X34474D2*
X38475D1*
X48298D2*
X61405D1*
X62205D2*
X90901D1*
X4480Y10886D2*
X7592D1*
X11158D2*
X13444D1*
X16033D2*
X16276D1*
X17076D2*
X19233D1*
X21818D2*
X21955D1*
X22755D2*
X24959D1*
X27017D2*
X27873D1*
X28669D2*
X30276D1*
X32334D2*
X33463D1*
X34259D2*
X38565D1*
X48330D2*
X61405D1*
X62205D2*
X90901D1*
X4480Y10638D2*
X7592D1*
X11369D2*
X13444D1*
X17279D2*
X19233D1*
X22986D2*
X24959D1*
X28857D2*
X30276D1*
X32334D2*
X32498D1*
X34478D2*
X38635D1*
X48330D2*
X54530D1*
X56509D2*
X61405D1*
X62205D2*
X90901D1*
X4480Y10389D2*
X7569D1*
X11369D2*
X13405D1*
X17279D2*
X19233D1*
X22986D2*
X24955D1*
X28857D2*
X30276D1*
X34478D2*
X38494D1*
X48330D2*
X54530D1*
X56509D2*
X61405D1*
X62205D2*
X90901D1*
X4480Y10140D2*
X7553D1*
X11369D2*
X13405D1*
X17279D2*
X19233D1*
X20451D2*
X21006D1*
X22986D2*
X24920D1*
X28857D2*
X30276D1*
X34478D2*
X38475D1*
X48330D2*
X54530D1*
X56509D2*
X61405D1*
X62205D2*
X90901D1*
X4480Y9892D2*
X7553D1*
X11369D2*
X13405D1*
X17279D2*
X19233D1*
X20451D2*
X21006D1*
X22986D2*
X24920D1*
X28857D2*
X30303D1*
X34478D2*
X38561D1*
X48330D2*
X54530D1*
X56509D2*
X61405D1*
X62205D2*
X90901D1*
X4480Y9643D2*
X7553D1*
X11369D2*
X13405D1*
X17279D2*
X19260D1*
X20451D2*
X21006D1*
X22986D2*
X24920D1*
X28857D2*
X30303D1*
X34478D2*
X38838D1*
X40416D2*
X40838D1*
X41416D2*
X41838D1*
X42416D2*
X42838D1*
X48330D2*
X54530D1*
X56509D2*
X61405D1*
X62205D2*
X90901D1*
X4480Y9394D2*
X7553D1*
X11150D2*
X13405D1*
X17060D2*
X19260D1*
X20451D2*
X21225D1*
X23037D2*
X24920D1*
X28775D2*
X30303D1*
X34689D2*
X39139D1*
X42587D2*
X42752D1*
X48330D2*
X54748D1*
X56384D2*
X61405D1*
X62205D2*
X90901D1*
X4480Y9145D2*
X7553D1*
X11150D2*
X13405D1*
X17060D2*
X19260D1*
X20451D2*
X21225D1*
X23138D2*
X24920D1*
X28814D2*
X30303D1*
X34755D2*
X39139D1*
X48330D2*
X54748D1*
X56384D2*
X61405D1*
X62205D2*
X90901D1*
X4480Y8897D2*
X7553D1*
X11150D2*
X13405D1*
X17185D2*
X19280D1*
X20431D2*
X21225D1*
X23115D2*
X24928D1*
X28736D2*
X30268D1*
X48330D2*
X54752D1*
X56388D2*
X61405D1*
X62205D2*
X90901D1*
X4480Y8648D2*
X7561D1*
X11150D2*
X13405D1*
X17240D2*
X19280D1*
X20431D2*
X21225D1*
X22021D2*
X22182D1*
X22951D2*
X25030D1*
X27892D2*
X28092D1*
X28384D2*
X30268D1*
X48330D2*
X54752D1*
X56388D2*
X61405D1*
X62205D2*
X90901D1*
X4480Y8399D2*
X7674D1*
X11150D2*
X13405D1*
X17173D2*
X19330D1*
X20380D2*
X21225D1*
X22021D2*
X25268D1*
X48330D2*
X54666D1*
X58095D2*
X61405D1*
X62205D2*
X90901D1*
X4480Y8151D2*
X7916D1*
X11150D2*
X13405D1*
X16904D2*
X19565D1*
X20146D2*
X21229D1*
X48330D2*
X54666D1*
X58345D2*
X61405D1*
X62205D2*
X90901D1*
X4480Y7902D2*
X7920D1*
X11150D2*
X13405D1*
X48330D2*
X54666D1*
X58595D2*
X61405D1*
X62205D2*
X90901D1*
X4480Y7653D2*
X7920D1*
X11150D2*
X13405D1*
X48314D2*
X48616D1*
X49084D2*
X54666D1*
X58794D2*
X61405D1*
X62205D2*
X90901D1*
X4480Y7405D2*
X7920D1*
X11150D2*
X13405D1*
X48189D2*
X48338D1*
X58826D2*
X61405D1*
X62205D2*
X90901D1*
X4480Y7156D2*
X7920D1*
X11150D2*
X13405D1*
X47943D2*
X48272D1*
X58826D2*
X61405D1*
X62205D2*
X90901D1*
X4480Y6907D2*
X7920D1*
X11150D2*
X13483D1*
X47693D2*
X48326D1*
X58826D2*
X61405D1*
X62205D2*
X90901D1*
X4480Y6659D2*
X7920D1*
X11216D2*
X13709D1*
X47447D2*
X48561D1*
X49138D2*
X55041D1*
X58826D2*
X61405D1*
X62205D2*
X90901D1*
X5853Y6410D2*
X7772D1*
X11763D2*
X13565D1*
X46478D2*
X48905D1*
X50228D2*
X55166D1*
X58826D2*
X61405D1*
X62205D2*
X89530D1*
X6189Y6161D2*
X7553D1*
X11986D2*
X13342D1*
X46814D2*
X48565D1*
X50564D2*
X55166D1*
X59642D2*
X60037D1*
X60642D2*
X61037D1*
X62642D2*
X63037D1*
X63642D2*
X64037D1*
X64642D2*
X65037D1*
X65642D2*
X66037D1*
X66642D2*
X67037D1*
X67642D2*
X68037D1*
X68642D2*
X69037D1*
X69642D2*
X70037D1*
X70642D2*
X89190D1*
X6384Y5913D2*
X7432D1*
X12107D2*
X13225D1*
X47009D2*
X48369D1*
X50759D2*
X54948D1*
X70908D2*
X88994D1*
X6505Y5664D2*
X7377D1*
X12158D2*
X13170D1*
X47130D2*
X48248D1*
X50880D2*
X54948D1*
X70990D2*
X88873D1*
X6572Y5415D2*
X7377D1*
X12158D2*
X13170D1*
X47197D2*
X48182D1*
X50947D2*
X54948D1*
X70970D2*
X88807D1*
X6591Y5166D2*
X7440D1*
X12099D2*
X13229D1*
X47216D2*
X48162D1*
X50966D2*
X54948D1*
X70826D2*
X88787D1*
X6564Y4918D2*
X7565D1*
X11970D2*
X13358D1*
X47189D2*
X48190D1*
X50939D2*
X54948D1*
X70908D2*
X88815D1*
X6490Y4669D2*
X7799D1*
X47115D2*
X48268D1*
X50865D2*
X54948D1*
X70990D2*
X88893D1*
X45776Y19299D2*
X46532D1*
Y25003D1*
X46552Y25126D1*
X46608Y25230D1*
X46644Y25271D1*
X45957Y25268D1*
X44450Y23764D1*
X44349Y23692D1*
X44236Y23658D1*
X43685Y23654D1*
X39666D1*
X39605Y23594D1*
X39499Y23529D1*
X39380Y23489D1*
X39256Y23477D1*
X39132Y23493D1*
X39016Y23537D1*
X38911Y23605D1*
X38825Y23695D1*
X38762Y23803D1*
X38724Y23922D1*
X38714Y24050D1*
X38380Y24048D1*
X38365Y23929D1*
X38323Y23811D1*
X38256Y23706D1*
X38167Y23619D1*
X38061Y23553D1*
X37943Y23514D1*
X37819Y23502D1*
X37695Y23518D1*
X37578Y23561D1*
X37474Y23630D1*
X37388Y23720D1*
X37324Y23827D1*
X37286Y23946D1*
X37277Y24074D1*
X35289Y26062D1*
X33199Y26061D1*
X33198Y25805D1*
X32016Y25809D1*
X32075Y25805D1*
X31268D1*
Y26652D1*
X30940Y26654D1*
X30939Y25827D1*
X29009D1*
Y27088D1*
X29294D1*
X29493Y27293D1*
X29594Y27365D1*
X29707Y27399D1*
X30258Y27403D1*
X31702D1*
X31824Y27382D1*
X31928Y27327D1*
X32121Y27138D1*
X32266Y27065D1*
X33198D1*
Y26811D1*
X35368Y26809D1*
X33708Y28469D1*
X33149D1*
X33146Y28213D1*
X31964Y28217D1*
X32023Y28213D1*
X31216D1*
Y28881D1*
X30944Y28882D1*
X30945Y28189D1*
X29015D1*
Y29450D1*
X29285D1*
X29312Y29489D1*
X29404Y29572D1*
X29523Y29621D1*
X29606Y29631D1*
X31807D1*
X31930Y29610D1*
X32042Y29548D1*
X32069Y29523D1*
X32214Y29474D1*
X33146D1*
Y29220D1*
X33864Y29218D1*
X33986Y29197D1*
X34090Y29142D1*
X34482Y28754D1*
X38440Y24796D1*
X38773Y24797D1*
X38724Y24945D1*
X38714Y25070D1*
X38732Y25193D1*
X38777Y25309D1*
X38847Y25412D1*
X38939Y25497D1*
X39047Y25559D1*
X39166Y25595D1*
X39291Y25603D1*
X39414Y25583D1*
X39523Y25540D1*
Y25904D1*
X39110Y25900D1*
X39028D1*
X38904Y25916D1*
X38790Y25966D1*
X38693Y26043D1*
X38620Y26144D1*
X38572Y26284D1*
X38565Y26488D1*
Y26913D1*
X38525Y26987D1*
X38487Y27106D1*
X38477Y27230D1*
X38495Y27354D1*
X38540Y27470D1*
X38610Y27573D1*
X38702Y27658D1*
X38810Y27720D1*
X38929Y27756D1*
X39054Y27764D1*
X39177Y27744D1*
X39293Y27697D1*
X39395Y27625D1*
X39478Y27532D1*
X39538Y27423D1*
X39572Y27303D1*
X39579Y27213D1*
X39565Y27089D1*
X39524Y26972D1*
X39492Y26922D1*
X39491Y26826D1*
X39899D1*
X39897Y26904D1*
X39956D1*
X39787Y27071D1*
X39715Y27172D1*
X39681Y27285D1*
X39678Y27410D1*
X39568D1*
Y28493D1*
X39939D1*
X39861Y28682D1*
X39836Y28804D1*
X39838Y28929D1*
X39867Y29050D1*
X39944Y29190D1*
X39942Y29399D1*
X40227D1*
X40374Y29427D1*
X41158Y29469D1*
X41282Y29462D1*
X41402Y29428D1*
X41512Y29369D1*
X41607Y29288D1*
X41681Y29188D1*
X41732Y29074D1*
X41757Y28952D1*
X41755Y28827D1*
X41726Y28706D1*
X41671Y28594D1*
X41593Y28496D1*
X41496Y28418D1*
X41384Y28362D1*
X41242Y28331D1*
Y27410D1*
X41227D1*
X41253Y27385D1*
X41340Y27465D1*
X41448Y27527D1*
X41568Y27563D1*
X41692Y27572D1*
X41815Y27552D1*
X41931Y27505D1*
X42033Y27433D1*
X42067Y27395D1*
X42350D1*
X42349Y27537D1*
X42261Y27539D1*
Y28622D1*
X42632D1*
X42545Y28840D1*
X42527Y28964D1*
X42536Y29088D1*
X42571Y29208D1*
X42635Y29320D1*
Y29528D1*
X42931Y29532D1*
X43098Y29557D1*
X43727D1*
X44183Y30011D1*
X44182Y33145D1*
X44080Y33065D1*
X43961Y33028D1*
X43352Y33024D1*
X43465Y32939D1*
X43538Y32838D1*
X43586Y32699D1*
X43593Y32495D1*
Y31504D1*
X43841Y31501D1*
X43967D1*
Y30417D1*
X43294D1*
X43313Y30339D1*
X43320Y30249D1*
X43306Y30125D1*
X43265Y30008D1*
X43198Y29902D1*
X43109Y29815D1*
X43002Y29749D1*
X42884Y29710D1*
X42760Y29698D1*
X42636Y29714D1*
X42519Y29757D1*
X42415Y29826D1*
X42329Y29916D1*
X42266Y30023D1*
X42228Y30142D1*
X42217Y30266D1*
X42235Y30390D1*
X42292Y30522D1*
X42293Y30773D1*
X42176Y30733D1*
X42051Y30721D1*
X41928Y30737D1*
X41811Y30781D1*
X41707Y30849D1*
X41661Y30897D1*
X41236Y30898D1*
Y30234D1*
X39562D1*
Y31222D1*
X39149Y31218D1*
X37747D1*
X37695Y31144D1*
X37607Y31057D1*
X37500Y30991D1*
X37382Y30952D1*
X37258Y30939D1*
X37134Y30955D1*
X37072Y30978D1*
X37070Y30743D1*
X35396Y30747D1*
X35311Y30743D1*
X33762D1*
Y32142D1*
X34063D1*
X34064Y32728D1*
X33958Y32830D1*
X33804Y32834D1*
X33682Y32860D1*
X33565Y32905D1*
X33457Y32967D1*
X33359Y33045D1*
X33275Y33137D1*
X33206Y33241D1*
X33153Y33354D1*
X33119Y33474D1*
X33104Y33598D1*
X33106Y33680D1*
X32623Y34165D1*
X31597Y34163D1*
X30898D1*
X30940Y34122D1*
X31014Y34021D1*
X31071Y33910D1*
X31111Y33792D1*
X31135Y33596D1*
X31126Y33471D1*
X31097Y33349D1*
X31050Y33234D1*
X30985Y33127D1*
X30896Y33023D1*
X30899Y32278D1*
X30885Y32154D1*
X30845Y32036D1*
X30780Y31930D1*
X30694Y31840D1*
X30609Y31781D1*
X30491Y31731D1*
X30475Y31687D1*
Y30664D1*
X28802Y30668D1*
X28717Y30664D1*
X27168D1*
Y32062D1*
X27468D1*
X27470Y32742D1*
X27425Y32789D1*
X27269Y32795D1*
X27147Y32821D1*
X27030Y32866D1*
X26921Y32928D1*
X26824Y33005D1*
X26739Y33098D1*
X26670Y33201D1*
X26618Y33315D1*
X26584Y33435D1*
X26568Y33559D1*
X26571Y33641D1*
X26342Y33872D1*
X26344Y33737D1*
X24945D1*
Y33968D1*
X24632Y33650D1*
X24534Y33573D1*
X24421Y33520D1*
X24309Y33496D1*
X24242Y33494D1*
X24118Y33382D1*
X24013Y33315D1*
X23898Y33265D1*
X23777Y33234D1*
X23653Y33221D1*
X23587Y33225D1*
X22950Y32587D1*
X22852Y32510D1*
X22739Y32457D1*
X22628Y32433D1*
X21697Y32431D1*
X16706D1*
X16582Y32445D1*
X16465Y32488D1*
X16369Y32550D1*
X15689Y33225D1*
X15536Y33228D1*
X15414Y33254D1*
X15298Y33299D1*
X15189Y33361D1*
X15092Y33439D1*
X15007Y33531D1*
X14938Y33635D1*
X14886Y33748D1*
X14851Y33868D1*
X14836Y33992D1*
X14840Y34117D1*
X14863Y34239D1*
X14933Y34409D1*
X14415Y34407D1*
X14402Y34343D1*
X14442Y34225D1*
X14466Y34029D1*
X14456Y33904D1*
X14428Y33783D1*
X14380Y33667D1*
X14316Y33560D1*
X14236Y33464D1*
X14142Y33382D1*
X14036Y33315D1*
X13922Y33265D1*
X13801Y33234D1*
X13677Y33221D1*
X13552Y33228D1*
X13430Y33254D1*
X13313Y33299D1*
X13205Y33361D1*
X13107Y33439D1*
X13023Y33531D1*
X12954Y33635D1*
X12901Y33748D1*
X12867Y33868D1*
X12852Y33992D1*
X12856Y34117D1*
X12879Y34239D1*
X12921Y34357D1*
X12980Y34467D1*
X13056Y34566D1*
X13146Y34653D1*
X13249Y34724D1*
X13361Y34779D1*
X13480Y34816D1*
X13584Y34831D1*
X12980Y35436D1*
X12897Y35529D1*
X12828Y35633D1*
X12772Y35745D1*
X12732Y35863D1*
X12709Y35978D1*
X12659Y36021D1*
X10879D1*
X10754Y36029D1*
X10632Y36054D1*
X10513Y36094D1*
X10401Y36149D1*
X10297Y36218D1*
X10112Y36391D1*
X7778Y38725D1*
X7573Y38798D1*
X7462Y38856D1*
X7359Y38927D1*
X7265Y39009D1*
X7180Y39100D1*
X7106Y39201D1*
X7043Y39309D1*
X6993Y39423D1*
X6956Y39543D1*
X6932Y39665D1*
X6922Y39790D1*
X6926Y39915D1*
X6944Y40038D1*
X6976Y40159D1*
X7020Y40276D1*
X7078Y40387D1*
X7147Y40491D1*
X7228Y40586D1*
X7319Y40672D1*
X7418Y40748D1*
X7526Y40811D1*
X7639Y40863D1*
X7758Y40901D1*
X7881Y40926D1*
X8005Y40938D1*
X8130Y40935D1*
X8254Y40919D1*
X8375Y40889D1*
X8492Y40845D1*
X8604Y40789D1*
X8709Y40721D1*
X8805Y40641D1*
X8892Y40552D1*
X8969Y40453D1*
X9034Y40346D1*
X9086Y40233D1*
X9132Y40088D1*
X11278Y37940D1*
X11641Y37941D1*
X11506Y38032D1*
X11310Y38215D1*
X7265Y42257D1*
X7180Y42348D1*
X7106Y42449D1*
X7043Y42557D1*
X6993Y42671D1*
X6956Y42791D1*
X6932Y42913D1*
X6922Y43038D1*
X6926Y43163D1*
X6944Y43286D1*
X6976Y43407D1*
X7020Y43524D1*
X7078Y43635D1*
X7147Y43739D1*
X7228Y43834D1*
X7319Y43920D1*
X7418Y43996D1*
X7526Y44059D1*
X7639Y44111D1*
X7758Y44149D1*
X7881Y44174D1*
X8005Y44186D1*
X8130Y44183D1*
X8254Y44167D1*
X8375Y44137D1*
X8492Y44093D1*
X8604Y44037D1*
X8709Y43969D1*
X8805Y43889D1*
X12656Y40036D1*
X13217Y40038D1*
X13126Y40093D1*
X13029Y40171D1*
X12944Y40263D1*
X12875Y40367D1*
X12823Y40480D1*
X12788Y40600D1*
X12773Y40724D1*
X12777Y40849D1*
X12800Y40972D1*
X12842Y41089D1*
X12902Y41199D1*
X12977Y41299D1*
X13067Y41385D1*
X13170Y41457D1*
X13282Y41511D1*
X13401Y41548D1*
X13525Y41566D1*
X13650Y41565D1*
X13773Y41545D1*
X13891Y41506D1*
X14003Y41449D1*
X14104Y41375D1*
X14192Y41287D1*
X14266Y41186D1*
X14323Y41076D1*
X14363Y40957D1*
X14387Y40761D1*
X14378Y40636D1*
X14349Y40515D1*
X14302Y40399D1*
X14237Y40292D1*
X14157Y40196D1*
X14063Y40114D1*
X13940Y40040D1*
X15202Y40038D1*
X15110Y40093D1*
X15013Y40171D1*
X14928Y40263D1*
X14859Y40367D1*
X14807Y40480D1*
X14773Y40600D1*
X14757Y40724D1*
X14761Y40849D1*
X14785Y40972D1*
X14826Y41089D1*
X14886Y41199D1*
X14962Y41299D1*
X15052Y41385D1*
X15154Y41457D1*
X15266Y41511D1*
X15386Y41548D1*
X15509Y41566D1*
X15634Y41565D1*
X15757Y41545D1*
X15876Y41506D1*
X15987Y41449D1*
X16088Y41375D1*
X16176Y41287D1*
X16250Y41186D1*
X16308Y41076D1*
X16347Y40957D1*
X16371Y40761D1*
X16362Y40636D1*
X16333Y40515D1*
X16286Y40399D1*
X16222Y40292D1*
X16141Y40196D1*
X16047Y40114D1*
X15924Y40040D1*
X16667Y40038D1*
X16792Y40032D1*
X16915Y40011D1*
X17035Y39976D1*
X17151Y39929D1*
X17260Y39869D1*
X17363Y39797D1*
X17456Y39714D1*
X17540Y39621D1*
X17649Y39455D1*
X21492Y39453D1*
X22752Y40714D1*
X22754Y40849D1*
X22777Y40972D1*
X22819Y41089D1*
X22878Y41199D1*
X22954Y41299D1*
X23044Y41385D1*
X23146Y41457D1*
X23258Y41511D1*
X23378Y41548D1*
X23501Y41566D1*
X23607Y41565D1*
X23785Y41746D1*
X23882Y41823D1*
X23996Y41876D1*
X24107Y41900D1*
X24839Y41903D1*
X24842Y42205D1*
X24838Y42289D1*
Y42434D1*
X24580Y42430D1*
X24456Y42444D1*
X24338Y42484D1*
X24231Y42549D1*
X24141Y42635D1*
X24072Y42739D1*
X24027Y42856D1*
X24009Y43001D1*
Y43044D1*
X23934Y43000D1*
X23820Y42950D1*
X23699Y42919D1*
X23574Y42906D1*
X23450Y42913D1*
X23328Y42939D1*
X23211Y42984D1*
X23103Y43046D1*
X23005Y43124D1*
X22921Y43216D1*
X22851Y43320D1*
X22799Y43433D1*
X22765Y43553D1*
X22750Y43677D1*
X22754Y43802D1*
X22777Y43924D1*
X22819Y44042D1*
X22878Y44152D1*
X22954Y44251D1*
X23044Y44338D1*
X23146Y44409D1*
X23258Y44464D1*
X23378Y44501D1*
X23501Y44519D1*
X23626Y44518D1*
X23749Y44498D1*
X23868Y44458D1*
X23979Y44401D1*
X24121Y44287D1*
X24580Y44285D1*
X24704Y44271D1*
X24822Y44231D1*
X24928Y44166D1*
X25018Y44080D1*
X25087Y43976D1*
X25127Y43877D1*
X25213Y43838D1*
X26236D1*
Y43467D1*
X26452Y43464D1*
X26579Y43446D1*
X26568Y43535D1*
X26572Y43660D1*
X26596Y43783D1*
X26637Y43900D1*
X26697Y44010D1*
X26773Y44110D1*
X26863Y44196D1*
X26965Y44268D1*
X27077Y44322D1*
X27197Y44359D1*
X27320Y44377D1*
X27445Y44376D1*
X27568Y44356D1*
X27687Y44317D1*
X27798Y44260D1*
X27899Y44186D1*
X27987Y44098D1*
X28061Y43998D1*
X28119Y43887D1*
X28158Y43768D1*
X28182Y43572D1*
X28173Y43447D1*
X28144Y43326D1*
X28097Y43210D1*
X28033Y43103D1*
X27952Y43007D1*
X27858Y42925D1*
X27753Y42858D1*
X27638Y42809D1*
X27518Y42777D1*
X27393Y42765D1*
X27269Y42771D1*
X27147Y42797D1*
X27030Y42842D1*
X26912Y42911D1*
X26914Y42248D1*
X26965Y42283D1*
X27077Y42338D1*
X27197Y42375D1*
X27320Y42393D1*
X27445Y42392D1*
X27568Y42372D1*
X27687Y42332D1*
X27798Y42276D1*
X27899Y42202D1*
X27987Y42114D1*
X28061Y42013D1*
X28119Y41902D1*
X28158Y41784D1*
X28182Y41588D1*
X28173Y41463D1*
X28144Y41342D1*
X28097Y41226D1*
X28033Y41119D1*
X27952Y41023D1*
X27858Y40941D1*
X27753Y40874D1*
X27638Y40824D1*
X27518Y40793D1*
X27393Y40780D1*
X27269Y40787D1*
X27147Y40813D1*
X27030Y40858D1*
X26912Y40927D1*
X26914Y40263D1*
X26965Y40299D1*
X27077Y40354D1*
X27197Y40391D1*
X27320Y40409D1*
X27445Y40408D1*
X27568Y40387D1*
X27687Y40348D1*
X27798Y40291D1*
X27899Y40218D1*
X27987Y40130D1*
X28061Y40029D1*
X28119Y39918D1*
X28158Y39800D1*
X28182Y39603D1*
X28173Y39479D1*
X28144Y39357D1*
X28097Y39242D1*
X28033Y39135D1*
X27952Y39039D1*
X27858Y38957D1*
X27753Y38890D1*
X27638Y38840D1*
X27518Y38809D1*
X27393Y38796D1*
X27269Y38803D1*
X27147Y38829D1*
X27030Y38873D1*
X26912Y38943D1*
X26914Y37544D1*
X27213Y37244D1*
X33147Y37242D1*
X42617D1*
X42741Y37225D1*
X42884Y37157D1*
X43033Y37018D1*
X43515Y36535D1*
X43591Y36436D1*
X43644Y36287D1*
X43651Y36083D1*
Y34457D1*
X43883Y34453D1*
X44009Y34493D1*
X44133Y34501D1*
X44183Y34493D1*
X44195Y34639D1*
X44236Y34757D1*
X44319Y34886D1*
X45137Y35706D1*
X45234Y35784D1*
X45346Y35839D1*
X45496Y35871D1*
X49540Y35873D1*
X54699D1*
X54823Y35860D1*
X54941Y35819D1*
X55048Y35754D1*
X55107Y35698D1*
X55109Y35917D1*
X49871Y41156D1*
X49687Y41121D1*
X49563Y41112D1*
X49438Y41118D1*
X49314Y41137D1*
X49194Y41170D1*
X49078Y41216D1*
X48968Y41275D1*
X48864Y41346D1*
X48770Y41427D1*
X48685Y41519D1*
X48611Y41620D1*
X48548Y41728D1*
X48498Y41842D1*
X48461Y41961D1*
X48437Y42084D1*
X48428Y42209D1*
X48432Y42334D1*
X48449Y42457D1*
X48481Y42578D1*
X48526Y42695D1*
X48583Y42806D1*
X48653Y42910D1*
X48733Y43005D1*
X48824Y43091D1*
X48924Y43166D1*
X49031Y43230D1*
X49145Y43282D1*
X49264Y43320D1*
X49386Y43345D1*
X49510Y43356D1*
X49635Y43354D1*
X49759Y43337D1*
X49880Y43307D1*
X49998Y43264D1*
X50109Y43208D1*
X50214Y43140D1*
X50310Y43060D1*
X50397Y42970D1*
X50474Y42872D1*
X50539Y42765D1*
X50592Y42652D1*
X50632Y42533D1*
X50658Y42411D1*
X50672Y42235D1*
X50665Y42110D1*
X50624Y41916D1*
X56022Y36519D1*
X56100Y36421D1*
X56152Y36308D1*
X56176Y36196D1*
X56179Y35265D1*
Y34746D1*
X62392Y34745D1*
X62516Y34730D1*
X62633Y34687D1*
X62729Y34625D1*
X63188Y34171D1*
X63265Y34073D1*
X63318Y33960D1*
X63342Y33848D1*
X63344Y33703D1*
X63464Y33707D1*
X63927Y34171D1*
X64025Y34248D1*
X64138Y34301D1*
X64250Y34324D1*
X65181Y34327D1*
X70841D1*
X70965Y34313D1*
X71082Y34270D1*
X71178Y34208D1*
X71620Y33770D1*
X71738D1*
X71861Y33750D1*
X71979Y33710D1*
X72091Y33653D1*
X72192Y33580D1*
X72272Y33500D1*
X72676Y33501D1*
X72799Y33486D1*
X72917Y33443D1*
X73013Y33381D1*
X73211Y33186D1*
X73289Y33089D1*
X73341Y32975D1*
X73365Y32864D1*
X73368Y32593D1*
X73900Y32595D1*
X73829Y32805D1*
X73814Y32929D1*
X73818Y33054D1*
X73841Y33176D1*
X73883Y33294D1*
X73942Y33404D1*
X74018Y33503D1*
X74108Y33590D1*
X74211Y33661D1*
X74323Y33716D1*
X74442Y33753D1*
X74566Y33771D1*
X74690Y33770D1*
X74814Y33750D1*
X74932Y33710D1*
X75043Y33653D1*
X75144Y33580D1*
X75233Y33492D1*
X75307Y33391D1*
X75364Y33280D1*
X75404Y33162D1*
X75428Y32966D1*
X75418Y32841D1*
X75390Y32720D1*
X75336Y32594D1*
X79618Y32595D1*
X79735Y32712D1*
X79738Y32849D1*
X79761Y32972D1*
X79803Y33089D1*
X79862Y33199D1*
X79938Y33298D1*
X80028Y33385D1*
X80130Y33456D1*
X80243Y33511D1*
X80362Y33548D1*
X80485Y33566D1*
X80610Y33565D1*
X80733Y33545D1*
X80852Y33506D1*
X80963Y33449D1*
X81064Y33375D1*
X81153Y33287D1*
X81226Y33186D1*
X81284Y33075D1*
X81324Y32957D1*
X81348Y32761D1*
X81344Y32710D1*
X81688Y32370D1*
X81765Y32272D1*
X81818Y32159D1*
X81842Y32047D1*
X81845Y31116D1*
X81848Y30755D1*
X82147Y30751D1*
X82232Y30755D1*
X82376D1*
X82372Y31306D1*
Y31737D1*
X82386Y31861D1*
X82426Y31979D1*
X82491Y32086D1*
X82578Y32176D1*
X82682Y32245D1*
X82780Y32284D1*
X82788Y32367D1*
X82736Y32480D1*
X82702Y32600D1*
X82686Y32724D1*
X82690Y32849D1*
X82714Y32972D1*
X82756Y33089D1*
X82815Y33199D1*
X82891Y33298D1*
X82981Y33385D1*
X83083Y33456D1*
X83195Y33511D1*
X83315Y33548D1*
X83438Y33566D1*
X83563Y33565D1*
X83686Y33545D1*
X83805Y33506D1*
X83916Y33449D1*
X84017Y33375D1*
X84105Y33287D1*
X84179Y33186D1*
X84237Y33075D1*
X84276Y32957D1*
X84301Y32761D1*
X84291Y32636D1*
X84262Y32515D1*
X84215Y32399D1*
X84151Y32292D1*
X84062Y32189D1*
X84064Y31737D1*
X84051Y31613D1*
X84010Y31495D1*
X83946Y31388D1*
X83859Y31299D1*
X83755Y31230D1*
X83639Y31185D1*
X83533Y31167D1*
X83515Y31112D1*
Y30757D1*
X83781Y30755D1*
Y29357D1*
X82107Y29361D1*
X82022Y29357D1*
X80473D1*
Y30755D1*
X80774D1*
X80775Y31771D1*
X80592Y31953D1*
X80492Y31957D1*
X80218Y31682D1*
X80120Y31604D1*
X80007Y31552D1*
X79895Y31528D1*
X78965Y31525D1*
X73055D1*
X73039Y31481D1*
X73042Y31247D1*
X73341Y31243D1*
X73426Y31247D1*
X74975D1*
Y31118D1*
X75191Y31119D1*
X75315Y31106D1*
X75433Y31066D1*
X75540Y31001D1*
X75630Y30914D1*
X75699Y30810D1*
X75743Y30694D1*
X75762Y30570D1*
X75753Y30446D1*
X75718Y30326D1*
X75657Y30217D1*
X75574Y30124D1*
X75473Y30051D1*
X75358Y30002D1*
X75191Y29977D1*
X74976D1*
X74975Y29849D1*
X74604D1*
X74601Y29403D1*
X74584Y29279D1*
X74516Y29136D1*
X74377Y28987D1*
X73894Y28504D1*
X73795Y28429D1*
X73646Y28376D1*
X73442Y28369D1*
X53703D1*
X53580Y28386D1*
X53437Y28453D1*
X53287Y28593D1*
X52780Y29104D1*
X51838D1*
X51664Y28930D1*
X51768Y28826D1*
X52884D1*
Y27566D1*
X51453D1*
X51538Y27516D1*
X51760Y27302D1*
X52866D1*
Y26041D1*
X51505D1*
X51577Y25986D1*
X51759Y25804D1*
X52889D1*
Y24543D1*
X50959D1*
Y25344D1*
X50925Y25347D1*
X50922Y24791D1*
Y24530D1*
X51421D1*
X51544Y24509D1*
X51651Y24451D1*
X51803Y24302D1*
X51823Y24286D1*
X52880D1*
Y23025D1*
X50950D1*
X50945Y23747D1*
Y23112D1*
X50722D1*
X50710Y23053D1*
X50652Y22942D1*
X50461Y22746D1*
X50360Y22674D1*
X50247Y22640D1*
X49696Y22637D1*
X48145D1*
X48143Y21489D1*
Y13831D1*
X48122Y13709D1*
X48067Y13605D1*
X47830Y13364D1*
X47729Y13292D1*
X47617Y13258D1*
X47066Y13254D1*
X45757D1*
X45745Y13091D1*
X45742Y13064D1*
X48512D1*
X48632Y13135D1*
X48751Y13171D1*
X48876Y13179D1*
X48999Y13159D1*
X49114Y13112D1*
X49216Y13041D1*
X49300Y12948D1*
X49360Y12838D1*
X49394Y12718D1*
X49401Y12628D1*
X49387Y12504D1*
X49346Y12387D1*
X49279Y12282D1*
X49190Y12194D1*
X49133Y12159D1*
X53591Y12160D1*
X53588Y13141D1*
Y13889D1*
X54849D1*
Y13674D1*
X55519Y13673D1*
X55518Y13824D1*
X56779D1*
Y13609D1*
X61647Y13607D1*
X61769Y13586D1*
X61873Y13531D1*
X62069Y13340D1*
X62141Y13239D1*
X62175Y13126D1*
X62179Y12575D1*
Y6204D1*
X62245Y6219D1*
X62369Y6225D1*
X62493Y6207D1*
X62610Y6165D1*
X62717Y6100D1*
X62809Y6016D1*
X62839Y5975D1*
X62912Y6058D1*
X63011Y6134D1*
X63124Y6188D1*
X63245Y6219D1*
X63369Y6225D1*
X63493Y6207D1*
X63610Y6165D1*
X63717Y6100D1*
X63809Y6016D1*
X63839Y5975D1*
X63912Y6058D1*
X64011Y6134D1*
X64124Y6188D1*
X64245Y6219D1*
X64369Y6225D1*
X64493Y6207D1*
X64610Y6165D1*
X64717Y6100D1*
X64809Y6016D1*
X64839Y5975D1*
X64912Y6058D1*
X65011Y6134D1*
X65124Y6188D1*
X65245Y6219D1*
X65369Y6225D1*
X65493Y6207D1*
X65610Y6165D1*
X65717Y6100D1*
X65809Y6016D1*
X65839Y5975D1*
X65912Y6058D1*
X66011Y6134D1*
X66124Y6188D1*
X66245Y6219D1*
X66369Y6225D1*
X66493Y6207D1*
X66610Y6165D1*
X66717Y6100D1*
X66809Y6016D1*
X66839Y5975D1*
X66912Y6058D1*
X67011Y6134D1*
X67124Y6188D1*
X67245Y6219D1*
X67369Y6225D1*
X67493Y6207D1*
X67610Y6165D1*
X67717Y6100D1*
X67809Y6016D1*
X67839Y5975D1*
X67912Y6058D1*
X68011Y6134D1*
X68124Y6188D1*
X68245Y6219D1*
X68369Y6225D1*
X68493Y6207D1*
X68610Y6165D1*
X68717Y6100D1*
X68809Y6016D1*
X68839Y5975D1*
X68912Y6058D1*
X69011Y6134D1*
X69124Y6188D1*
X69245Y6219D1*
X69369Y6225D1*
X69493Y6207D1*
X69610Y6165D1*
X69717Y6100D1*
X69809Y6016D1*
X69839Y5975D1*
X69912Y6058D1*
X70011Y6134D1*
X70124Y6188D1*
X70245Y6219D1*
X70369Y6225D1*
X70493Y6207D1*
X70610Y6165D1*
X70717Y6100D1*
X70809Y6016D1*
X70883Y5915D1*
X70935Y5802D1*
X70964Y5680D1*
X70970Y5596D1*
X70958Y5471D1*
X70921Y5352D1*
X70862Y5242D1*
X70782Y5146D1*
X70718Y5095D1*
X70809Y5016D1*
X70883Y4915D1*
X70935Y4802D1*
X70964Y4680D1*
X70970Y4596D1*
X70952Y4453D1*
X71955Y4455D1*
X89029D1*
X88932Y4633D1*
X88852Y4869D1*
X88816Y5116D1*
X88825Y5366D1*
X88879Y5609D1*
X88976Y5839D1*
X89114Y6048D1*
X89286Y6228D1*
X89489Y6374D1*
X89714Y6481D1*
X89955Y6546D1*
X90204Y6566D1*
X90453Y6541D1*
X90692Y6471D1*
X90916Y6360D1*
X90925Y6353D1*
Y49029D1*
X90827Y48970D1*
X90596Y48875D1*
X90352Y48823D1*
X90102Y48817D1*
X89855Y48855D1*
X89620Y48937D1*
X89403Y49061D1*
X89212Y49222D1*
X89053Y49415D1*
X88932Y49633D1*
X88852Y49869D1*
X88816Y50116D1*
X88825Y50366D1*
X88879Y50609D1*
X88976Y50839D1*
X89026Y50923D1*
X83675Y50925D1*
X50730Y50923D1*
X50843Y50700D1*
X50914Y50461D1*
X50941Y50213D1*
X50936Y50065D1*
X50891Y49820D1*
X50802Y49586D1*
X50672Y49373D1*
X50507Y49186D1*
X50310Y49033D1*
X50088Y48917D1*
X49850Y48843D1*
X49602Y48814D1*
X49353Y48830D1*
X49111Y48891D1*
X48883Y48994D1*
X48679Y49137D1*
X48503Y49315D1*
X48362Y49521D1*
X48261Y49749D1*
X48203Y49992D1*
X48190Y50241D1*
X48222Y50489D1*
X48298Y50727D1*
X48401Y50923D1*
X46980D1*
X47093Y50700D1*
X47164Y50461D1*
X47191Y50213D1*
X47186Y50065D1*
X47141Y49820D1*
X47052Y49586D1*
X46922Y49373D1*
X46757Y49186D1*
X46560Y49033D1*
X46338Y48917D1*
X46100Y48843D1*
X45852Y48814D1*
X45603Y48830D1*
X45361Y48891D1*
X45133Y48994D1*
X44929Y49137D1*
X44753Y49315D1*
X44612Y49521D1*
X44511Y49749D1*
X44453Y49992D1*
X44440Y50241D1*
X44472Y50489D1*
X44548Y50727D1*
X44651Y50923D1*
X39300Y50925D1*
X6355Y50923D1*
X6468Y50700D1*
X6539Y50461D1*
X6566Y50213D1*
X6561Y50065D1*
X6516Y49820D1*
X6427Y49586D1*
X6297Y49373D1*
X6132Y49186D1*
X5935Y49033D1*
X5713Y48917D1*
X5475Y48843D1*
X5227Y48814D1*
X4978Y48830D1*
X4736Y48891D1*
X4508Y48994D1*
X4452Y49030D1*
X4455Y47425D1*
Y6351D1*
X4599Y6433D1*
X4833Y6519D1*
X5079Y6562D1*
X5329Y6559D1*
X5574Y6512D1*
X5807Y6420D1*
X6019Y6289D1*
X6204Y6121D1*
X6355Y5923D1*
X6468Y5700D1*
X6539Y5461D1*
X6566Y5213D1*
X6561Y5065D1*
X6516Y4820D1*
X6427Y4586D1*
X6352Y4454D1*
X8271Y4455D1*
X8162Y4485D1*
X8046Y4532D1*
X7936Y4590D1*
X7833Y4661D1*
X7738Y4743D1*
X7653Y4834D1*
X7579Y4935D1*
X7517Y5043D1*
X7466Y5157D1*
X7429Y5277D1*
X7406Y5399D1*
X7396Y5524D1*
X7400Y5649D1*
X7418Y5772D1*
X7449Y5893D1*
X7494Y6010D1*
X7552Y6121D1*
X7621Y6225D1*
X7702Y6320D1*
X7792Y6406D1*
X7949Y6515D1*
X7947Y8148D1*
X7745Y8347D1*
X7667Y8444D1*
X7612Y8556D1*
X7580Y8706D1*
X7578Y10261D1*
X7592Y10385D1*
X7618Y10463D1*
Y11512D1*
X8681D1*
X8687Y11138D1*
X9418D1*
X9421Y11320D1*
Y12380D1*
X11350D1*
Y11120D1*
X11136D1*
X11134Y10832D1*
X11343Y10830D1*
Y9570D1*
X11128D1*
X11126Y6665D1*
X11228Y6653D1*
X11349Y6623D1*
X11466Y6579D1*
X11578Y6523D1*
X11682Y6455D1*
X11779Y6375D1*
X11866Y6286D1*
X11942Y6187D1*
X12007Y6080D1*
X12060Y5967D1*
X12100Y5849D1*
X12126Y5727D1*
X12140Y5550D1*
X12133Y5425D1*
X12113Y5302D1*
X12078Y5182D1*
X12031Y5066D1*
X11971Y4957D1*
X11834Y4781D1*
X13493Y4783D1*
X13371Y4935D1*
X13309Y5043D1*
X13259Y5157D1*
X13222Y5277D1*
X13198Y5399D1*
X13188Y5524D1*
X13192Y5649D1*
X13210Y5772D1*
X13242Y5893D1*
X13286Y6010D1*
X13344Y6121D1*
X13413Y6225D1*
X13494Y6320D1*
X13584Y6406D1*
X13741Y6515D1*
X13739Y6655D1*
X13596Y6795D1*
X13518Y6892D1*
X13463Y7004D1*
X13430Y7154D1*
X13429Y10340D1*
X13442Y10464D1*
X13469Y10541D1*
X13468Y11590D1*
X14532D1*
X14538Y11216D1*
X15338Y11220D1*
Y12380D1*
X17267D1*
Y11120D1*
X17053D1*
X17051Y10832D1*
X17253Y10830D1*
Y9570D1*
X17038D1*
X17037Y9063D1*
X17112Y8977D1*
X17172Y8868D1*
X17206Y8748D1*
X17214Y8658D1*
X17200Y8534D1*
X17158Y8416D1*
X17091Y8311D1*
X17002Y8224D1*
X16896Y8158D1*
X16778Y8119D1*
X16654Y8106D1*
X16530Y8122D1*
X16413Y8166D1*
X16290Y8254D1*
X16289Y8196D1*
X16463Y8025D1*
X21296D1*
X21253Y8151D1*
X21249Y8702D1*
Y9573D1*
X21033Y9570D1*
Y10199D1*
X20426Y10198D1*
X20427Y9088D1*
X20407Y8945D1*
Y8635D1*
X20393Y8511D1*
X20351Y8393D1*
X20284Y8288D1*
X20195Y8201D1*
X20089Y8135D1*
X19971Y8096D1*
X19847Y8083D1*
X19723Y8099D1*
X19606Y8143D1*
X19502Y8211D1*
X19416Y8302D1*
X19352Y8409D1*
X19314Y8528D1*
X19304Y8760D1*
Y8936D1*
X19284Y9088D1*
Y9826D1*
X19258Y9824D1*
X19262Y10828D1*
X19258Y10847D1*
Y11576D1*
X20321D1*
X20328Y11202D1*
X21019D1*
X21017Y11570D1*
Y12380D1*
X22946D1*
Y11120D1*
X22732D1*
X22730Y10832D1*
X22962Y10830D1*
Y9570D1*
X22794D1*
X22933Y9480D1*
X23016Y9387D1*
X23076Y9278D1*
X23110Y9158D1*
X23118Y9068D1*
X23104Y8944D1*
X23062Y8826D1*
X22995Y8721D1*
X22906Y8634D1*
X22800Y8568D1*
X22682Y8529D1*
X22558Y8516D1*
X22434Y8532D1*
X22317Y8576D1*
X22213Y8644D1*
X22127Y8735D1*
X22063Y8842D1*
X22025Y8961D1*
X22015Y9085D1*
X22021Y9128D1*
X21998Y9075D1*
Y8360D1*
X22149Y8301D1*
X25387D1*
X25113Y8578D1*
X25035Y8675D1*
X24980Y8787D1*
X24947Y8937D1*
X24945Y10188D1*
X24959Y10312D1*
X24985Y10389D1*
Y11438D1*
X26048D1*
X26055Y11064D1*
X26993D1*
Y10834D1*
X27526Y10830D1*
X27897D1*
Y11118D1*
X27165Y11120D1*
X26933D1*
Y12380D1*
X28863D1*
Y11120D1*
X28648D1*
X28649Y10830D1*
X28831D1*
Y9570D1*
X28639D1*
X28690Y9505D1*
X28750Y9396D1*
X28784Y9276D1*
X28791Y9186D1*
X28777Y9062D1*
X28736Y8944D1*
X28669Y8839D1*
X28580Y8752D1*
X28474Y8686D1*
X28355Y8647D1*
X28231Y8635D1*
X28107Y8651D1*
X27991Y8694D1*
X27868Y8782D1*
X27866Y8579D1*
X28774Y8576D1*
X30317D1*
X30290Y8666D1*
X30279Y8790D1*
X30297Y8913D1*
X30327Y8990D1*
X30328Y10027D1*
X30299Y10024D1*
X30303Y11029D1*
X30299Y11047D1*
Y11777D1*
X31362D1*
X31369Y11403D1*
X32307D1*
X32308Y10574D1*
X32523D1*
X32524Y10830D1*
X33487D1*
Y11117D1*
X33253Y11120D1*
X32521D1*
Y12380D1*
X34451D1*
Y11120D1*
X34236D1*
Y10833D1*
X34454Y10830D1*
Y9615D1*
X34544Y9549D1*
X34627Y9456D1*
X34687Y9347D1*
X34721Y9227D1*
X34729Y9137D1*
X34723Y9087D1*
X39139Y9088D1*
X39166Y9210D1*
Y9589D1*
X39117Y9585D1*
X38993Y9599D1*
X38874Y9638D1*
X38765Y9699D1*
X38671Y9780D1*
X38594Y9878D1*
X38538Y9990D1*
X38505Y10110D1*
X38497Y10235D1*
X38513Y10359D1*
X38553Y10477D1*
X38616Y10585D1*
X38699Y10678D1*
X38746Y10713D1*
X38671Y10780D1*
X38594Y10878D1*
X38538Y10990D1*
X38505Y11110D1*
X38497Y11235D1*
X38513Y11359D1*
X38553Y11477D1*
X38616Y11585D1*
X38699Y11678D1*
X38746Y11713D1*
X38671Y11780D1*
X38594Y11878D1*
X38538Y11990D1*
X38505Y12110D1*
X38497Y12235D1*
X38513Y12359D1*
X38553Y12477D1*
X38616Y12585D1*
X38699Y12678D1*
X38746Y12713D1*
X38671Y12780D1*
X38594Y12878D1*
X38538Y12990D1*
X38505Y13110D1*
X38497Y13235D1*
X38513Y13359D1*
X38553Y13477D1*
X38616Y13585D1*
X38699Y13678D1*
X38746Y13713D1*
X38671Y13780D1*
X38594Y13878D1*
X38538Y13990D1*
X38505Y14110D1*
X38497Y14235D1*
X38513Y14359D1*
X38553Y14477D1*
X38616Y14585D1*
X38699Y14678D1*
X38746Y14713D1*
X38671Y14780D1*
X38594Y14878D1*
X38538Y14990D1*
X38505Y15110D1*
X38497Y15235D1*
X38510Y15339D1*
X18274D1*
X18209Y15302D1*
X18091Y15262D1*
X17967Y15250D1*
X17843Y15266D1*
X17726Y15310D1*
X17622Y15378D1*
X17536Y15469D1*
X17473Y15576D1*
X17435Y15695D1*
X17424Y15819D1*
X17442Y15942D1*
X17488Y16059D1*
X17558Y16162D1*
X17649Y16246D1*
X17758Y16308D1*
X17881Y16345D1*
X10620D1*
X10497Y16365D1*
X10393Y16421D1*
X10001Y16808D1*
X9288Y17521D1*
X9216Y17623D1*
X9182Y17735D1*
X9178Y18286D1*
Y19110D1*
X8987Y18993D1*
X8872Y18944D1*
X8753Y18908D1*
X8630Y18886D1*
X8505Y18878D1*
X8380Y18883D1*
X8257Y18903D1*
X8136Y18935D1*
X8020Y18982D1*
X7910Y19040D1*
X7807Y19111D1*
X7712Y19193D1*
X7627Y19284D1*
X7553Y19385D1*
X7491Y19493D1*
X7440Y19607D1*
X7403Y19727D1*
X7380Y19849D1*
X7370Y19974D1*
X7374Y20099D1*
X7392Y20222D1*
X7423Y20343D1*
X7468Y20460D1*
X7526Y20571D1*
X7595Y20675D1*
X7676Y20770D1*
X7766Y20856D1*
X7866Y20932D1*
X7991Y21003D1*
X7842Y21005D1*
X7720Y21025D1*
X7616Y21081D1*
X7423Y21270D1*
X7276Y21335D1*
X7094D1*
Y22595D1*
X7332D1*
X7335Y23000D1*
X7118Y22998D1*
Y24259D1*
X8300Y24255D1*
X8316Y24259D1*
X9048D1*
Y22998D1*
X8085D1*
X8083Y22594D1*
X9022Y22595D1*
X9021Y22779D1*
X9962D1*
X9966Y23153D1*
X9993D1*
X9995Y23300D1*
X10011Y23424D1*
X10056Y23540D1*
X10129Y23641D1*
X10224Y23722D1*
X10337Y23776D1*
X10498Y23802D1*
X11681D1*
X11805Y23787D1*
X11921Y23742D1*
X12036Y23655D1*
X12686Y23006D1*
X12762Y22907D1*
X12812Y22793D1*
X12833Y22651D1*
Y21339D1*
X12817Y21215D1*
X12772Y21099D1*
X12686Y20983D1*
X12059Y20356D1*
X12100Y20177D1*
X12114Y20000D1*
X12107Y19875D1*
X12077Y19718D1*
X12457Y19343D1*
X12570Y19230D1*
X13331Y19233D1*
X13514D1*
X13395Y19385D1*
X13333Y19493D1*
X13282Y19607D1*
X13245Y19727D1*
X13222Y19849D1*
X13212Y19974D1*
X13216Y20099D1*
X13234Y20222D1*
X13265Y20343D1*
X13310Y20460D1*
X13368Y20571D1*
X13437Y20675D1*
X13518Y20770D1*
X13608Y20856D1*
X13708Y20932D1*
X13854Y21013D1*
X13831Y21057D1*
X13794Y21175D1*
X13791Y21316D1*
X13574Y21318D1*
Y22579D1*
X13789D1*
X13791Y23007D1*
X13615Y23008D1*
Y24269D1*
X14797Y24265D1*
X14813Y24269D1*
X15545D1*
Y23008D1*
X14535D1*
X14539Y22580D1*
X14573Y22583D1*
X14643Y22686D1*
X14743Y22760D1*
X14862Y22797D1*
X15413Y22801D1*
X16034D1*
X16031Y22929D1*
X16973D1*
X16976Y23303D1*
X18040Y23299D1*
X18133Y23303D1*
X18311Y23287D1*
X18427Y23242D1*
X18528Y23169D1*
X18609Y23074D1*
X18663Y22962D1*
X18690Y22800D1*
Y21353D1*
X18674Y21230D1*
X18629Y21113D1*
X18542Y20998D1*
X17899Y20354D1*
X17942Y20177D1*
X17956Y20000D1*
X17949Y19875D1*
X17919Y19718D1*
X18299Y19343D1*
X18677Y18965D1*
X19735Y18963D1*
X19580Y19040D1*
X19477Y19111D1*
X19383Y19193D1*
X19298Y19284D1*
X19224Y19385D1*
X19161Y19493D1*
X19111Y19607D1*
X19074Y19727D1*
X19050Y19849D1*
X19040Y19974D1*
X19044Y20099D1*
X19062Y20222D1*
X19094Y20343D1*
X19139Y20460D1*
X19196Y20571D1*
X19265Y20675D1*
X19346Y20770D1*
X19437Y20856D1*
X19580Y20957D1*
X19480Y21058D1*
X19408Y21159D1*
X19374Y21272D1*
X19371Y21405D1*
X19154Y21403D1*
Y22663D1*
X19369D1*
X19371Y22912D1*
X19215Y22910D1*
Y24171D1*
X20397Y24167D1*
X20413Y24171D1*
X21145D1*
Y22910D1*
X20120D1*
Y22661D1*
X21084Y22663D1*
Y22612D1*
X21170Y22638D1*
X21717Y22642D1*
X21716Y22770D1*
X22634D1*
X22661Y22889D1*
Y23144D1*
X22923D1*
X23026Y23188D1*
X23193Y23213D1*
X23764D1*
X23888Y23199D1*
X24006Y23159D1*
X24135Y23076D1*
X24384Y22829D1*
X24462Y22732D1*
X24517Y22620D1*
X24550Y22469D1*
X24551Y22126D1*
X24538Y22002D1*
X24498Y21884D1*
X24433Y21777D1*
X24346Y21687D1*
X24242Y21618D1*
X24126Y21574D1*
X24003Y21555D1*
X23878Y21564D1*
X23728Y21617D1*
X23725Y21391D1*
X23522D1*
X24852Y20061D1*
X24875Y20222D1*
X24907Y20343D1*
X24952Y20460D1*
X25009Y20571D1*
X25111Y20714D1*
X25023Y20798D1*
X24950Y20900D1*
X24916Y21012D1*
X24913Y21231D1*
X24696D1*
Y22492D1*
X24896D1*
X24895Y22920D1*
X24679Y22919D1*
Y24179D1*
X25860Y24175D1*
X25877Y24179D1*
X26609D1*
Y22919D1*
X25646D1*
X25644Y22490D1*
X25695Y22492D1*
X25766Y22594D1*
X25866Y22668D1*
X25984Y22706D1*
X26535Y22709D1*
X28024D1*
X28027Y22837D1*
X28929D1*
X28903Y22870D1*
X28785Y22910D1*
X28678Y22975D1*
X28588Y23061D1*
X28519Y23165D1*
X28474Y23282D1*
X28456Y23405D1*
X28465Y23529D1*
X28500Y23649D1*
X28561Y23758D1*
X28644Y23851D1*
X28745Y23924D1*
X28860Y23973D1*
X29027Y23998D1*
X29287D1*
X29411Y23985D1*
X29529Y23945D1*
X29658Y23861D1*
X29907Y23615D1*
X29985Y23517D1*
X30040Y23405D1*
X30073Y23255D1*
X30075Y22709D1*
X30061Y22585D1*
X30035Y22507D1*
Y21458D1*
X28971D1*
X28965Y21832D1*
X28930D1*
X28933Y21456D1*
X29071Y21411D1*
X30153D1*
X30149Y21494D1*
X30167Y21617D1*
X30213Y21733D1*
X30283Y21836D1*
X30326Y21876D1*
X30361Y22016D1*
X30431Y22118D1*
X30531Y22192D1*
X30651Y22230D1*
X30617Y22223D1*
X30661Y22353D1*
Y22489D1*
X30907D1*
X30909Y22886D1*
X30693Y22889D1*
Y24149D1*
X31875Y24145D1*
X31891Y24149D1*
X32623D1*
Y22889D1*
X31660D1*
Y22527D1*
X31730Y22630D1*
X31830Y22704D1*
X31949Y22741D1*
X32500Y22744D1*
X33160D1*
X33163Y22872D1*
X34081D1*
X34108Y22992D1*
Y23066D1*
X34071Y23223D1*
X34068Y23462D1*
X34082Y23586D1*
X34121Y23703D1*
X34186Y23810D1*
X34271Y23899D1*
X34375Y23969D1*
X34490Y24014D1*
X34613Y24033D1*
X34737Y24025D1*
X34856Y23991D1*
X34965Y23932D1*
X35061Y23847D1*
X35407D1*
X35531Y23834D1*
X35649Y23793D1*
X35756Y23728D1*
X35846Y23642D1*
X35915Y23538D1*
X35959Y23422D1*
X35975Y23317D1*
X37514Y23315D1*
X42245D1*
X42369Y23302D1*
X42487Y23261D1*
X42594Y23196D1*
X42683Y23110D1*
X42752Y23006D1*
X42797Y22890D1*
X42816Y22766D1*
X42807Y22642D1*
X42771Y22522D1*
X42711Y22413D1*
X42628Y22320D1*
X42527Y22247D1*
X42412Y22198D1*
X42245Y22173D1*
X35171D1*
Y21674D1*
X38220D1*
X38343Y21653D1*
X38447Y21598D1*
X38560Y21489D1*
X38616Y21585D1*
X38699Y21678D1*
X38799Y21753D1*
X38911Y21807D1*
X39032Y21838D1*
X39157Y21845D1*
X39280Y21826D1*
X39397Y21784D1*
X39504Y21720D1*
X39596Y21635D1*
X39670Y21535D1*
X39722Y21421D1*
X39751Y21300D1*
X39755Y21165D1*
X39733Y21042D1*
X39720Y21003D1*
X40793D1*
X40916Y20982D1*
X41019Y20927D1*
X41364Y20587D1*
X42706Y20589D1*
X44617D1*
X44699Y20678D1*
X44746Y20713D1*
X44671Y20780D1*
X44594Y20878D1*
X44538Y20990D1*
X44505Y21110D1*
X44497Y21235D1*
X44513Y21359D1*
X44553Y21477D1*
X44616Y21585D1*
X44699Y21678D1*
X44799Y21753D1*
X44911Y21807D1*
X45032Y21838D1*
X45157Y21845D1*
X45280Y21826D1*
X45372Y21793D1*
X45251Y21878D1*
X44444Y21882D1*
X44428Y21878D1*
X43696D1*
Y23138D1*
X45626D1*
Y23080D1*
X45782Y23066D1*
X45900Y23026D1*
X46029Y22942D1*
X46279Y22696D1*
X46357Y22598D1*
X46412Y22486D1*
X46444Y22336D1*
X46446Y22061D1*
X46432Y21937D1*
X46392Y21819D1*
X46327Y21713D1*
X46241Y21623D1*
X46137Y21554D1*
X46020Y21509D1*
X45897Y21491D1*
X45773Y21499D1*
X45672Y21530D1*
X45722Y21421D1*
X45751Y21300D1*
X45757Y21215D1*
X45745Y21091D1*
X45708Y20972D1*
X45649Y20862D1*
X45569Y20766D1*
X45505Y20714D1*
X45596Y20635D1*
X45670Y20535D1*
X45722Y20421D1*
X45751Y20300D1*
X45757Y20215D1*
X45745Y20091D1*
X45708Y19972D1*
X45649Y19862D1*
X45569Y19766D1*
X45505Y19714D1*
X45596Y19635D1*
X45670Y19535D1*
X45722Y19421D1*
X45751Y19299D1*
X45776D1*
X40758Y9541D2*
X41815Y9537D1*
X41831Y9541D1*
X42563D1*
Y9181D1*
X42984Y9602D1*
X42874Y9638D1*
X42765Y9699D1*
X42671Y9780D1*
X42630Y9832D1*
X42532Y9732D1*
X42429Y9662D1*
X42314Y9613D1*
X42192Y9588D1*
X42067D1*
X41944Y9612D1*
X41829Y9659D1*
X41725Y9729D1*
X41638Y9818D1*
X41626Y9832D1*
X41569Y9766D1*
X41472Y9688D1*
X41361Y9630D1*
X41241Y9595D1*
X41117Y9585D1*
X40993Y9599D1*
X40874Y9638D1*
X40765Y9699D1*
X40671Y9780D1*
X40630Y9832D1*
X40569Y9766D1*
X40472Y9688D1*
X40361Y9630D1*
X40241Y9595D1*
X40117Y9585D1*
X39993Y9599D1*
X39915Y9624D1*
X39914Y9373D1*
X40029Y9438D1*
X40135Y9470D1*
X40249Y9482D1*
X40635D1*
X40633Y9541D1*
X40758D1*
X26344Y35321D2*
Y35110D1*
X26510Y35097D1*
X26628Y35057D1*
X26733Y34990D1*
X27324Y34403D1*
X27439Y34416D1*
X28099Y35076D1*
X28197Y35153D1*
X28310Y35206D1*
X28422Y35230D1*
X29352Y35233D1*
X32847D1*
X32971Y35218D1*
X33088Y35176D1*
X33184Y35113D1*
X33864Y34438D1*
X33980Y34439D1*
X34104Y34419D1*
X34222Y34380D1*
X34333Y34323D1*
X34434Y34249D1*
X34523Y34161D1*
X34597Y34061D1*
X34654Y33950D1*
X34694Y33831D1*
X34718Y33635D1*
X34714Y33584D1*
X34978Y33324D1*
X35055Y33227D1*
X35107Y33113D1*
X35131Y33002D1*
X35134Y32145D1*
X35436Y32142D1*
X35502D1*
X35505Y32360D1*
X35518Y32484D1*
X35558Y32602D1*
X35623Y32709D1*
X35710Y32799D1*
X35814Y32868D1*
X35930Y32912D1*
X36076Y32931D1*
X36291D1*
X36292Y33061D1*
X36228Y33137D1*
X36158Y33241D1*
X36106Y33354D1*
X36072Y33474D1*
X36057Y33598D1*
X36061Y33723D1*
X36084Y33846D1*
X36126Y33963D1*
X36185Y34073D1*
X36261Y34173D1*
X36351Y34259D1*
X36453Y34331D1*
X36565Y34385D1*
X36685Y34422D1*
X36808Y34440D1*
X36933Y34439D1*
X37056Y34419D1*
X37175Y34380D1*
X37286Y34323D1*
X37387Y34249D1*
X37476Y34161D1*
X37549Y34061D1*
X37607Y33950D1*
X37646Y33831D1*
X37671Y33635D1*
X37661Y33510D1*
X37632Y33389D1*
X37585Y33273D1*
X37521Y33166D1*
X37453Y33085D1*
X38488Y33083D1*
X42062D1*
X42003Y33144D1*
X40378Y33145D1*
X40255Y33166D1*
X40151Y33221D1*
X39944Y33423D1*
X39708D1*
Y34507D1*
X40079D1*
X40082Y35358D1*
X39719Y35721D1*
X35498Y35723D1*
X26572D1*
X26534Y35615D1*
X26479Y35503D1*
X26406Y35393D1*
X58186Y30909D2*
X58450D1*
Y29511D1*
X56776Y29514D1*
X56691Y29511D1*
X55142D1*
Y30909D1*
X55443D1*
X55444Y31425D1*
X55108Y31761D1*
X55031Y31858D1*
X54978Y31971D1*
X54955Y32083D1*
X54952Y32283D1*
X54851Y32389D1*
X54782Y32493D1*
X54730Y32606D1*
X54695Y32726D1*
X54680Y32850D1*
X54684Y32975D1*
X54707Y33098D1*
X54749Y33215D1*
X54809Y33325D1*
X54884Y33425D1*
X54949Y33487D1*
X54952Y34052D1*
X54966Y34176D1*
X55009Y34293D1*
X55071Y34389D1*
X55111Y34433D1*
X55109Y34901D1*
X54981Y34805D1*
X54866Y34756D1*
X54699Y34731D1*
X52922D1*
X52921Y33676D1*
X51010Y33672D1*
Y33661D1*
X49828Y33665D1*
X49887Y33661D1*
X48991Y33668D1*
X48143D1*
X48133Y33628D1*
X48068Y33510D1*
X48539Y33513D1*
X48662Y33492D1*
X48774Y33429D1*
X48801Y33405D1*
X48948Y33355D1*
X49030D1*
X49034Y33363D1*
X50216Y33359D1*
X50157Y33363D1*
X50964D1*
Y33109D1*
X51009Y33107D1*
X51006Y33358D1*
X52188Y33354D1*
X52204Y33358D1*
X52936D1*
Y32944D1*
X53034Y32972D1*
X53158Y32980D1*
X53281Y32960D1*
X53397Y32913D1*
X53499Y32841D1*
X53582Y32748D1*
X53642Y32639D1*
X53676Y32519D1*
X53684Y32429D1*
X53670Y32305D1*
X53628Y32187D1*
X53597Y32138D1*
X53595Y29597D1*
X53893Y29296D1*
X59828Y29295D1*
X73379D1*
X73673Y29593D1*
X73675Y29852D1*
X73301Y29849D1*
X71667D1*
Y31247D1*
X71968D1*
X71969Y31731D1*
X71984Y31855D1*
X72026Y31972D1*
X72089Y32068D1*
X72300Y32283D1*
X72298Y32431D1*
X72245Y32401D1*
X72151Y32319D1*
X72046Y32252D1*
X71931Y32202D1*
X71810Y32171D1*
X71686Y32158D1*
X71561Y32165D1*
X71439Y32191D1*
X71323Y32236D1*
X71214Y32298D1*
X71117Y32376D1*
X71032Y32468D1*
X70963Y32572D1*
X70911Y32685D1*
X70876Y32805D1*
X70861Y32929D1*
X70864Y33011D1*
X70618Y33258D1*
X67071Y33257D1*
X67136Y33083D1*
X67160Y32887D1*
X67151Y32762D1*
X67122Y32641D1*
X67075Y32525D1*
X67010Y32418D1*
X66921Y32315D1*
X66924Y31572D1*
X66910Y31448D1*
X66870Y31330D1*
X66805Y31224D1*
X66736Y31148D1*
X66631Y31074D1*
X66627Y30481D1*
Y29958D1*
X64953Y29962D1*
X64868Y29958D1*
X63319D1*
Y31356D1*
X63619D1*
X63621Y31911D1*
X63449Y32082D1*
X63294Y32086D1*
X63172Y32112D1*
X63055Y32157D1*
X62946Y32219D1*
X62849Y32297D1*
X62764Y32389D1*
X62695Y32493D1*
X62643Y32606D1*
X62609Y32726D1*
X62593Y32850D1*
X62596Y32932D1*
X62431Y33099D1*
X62354Y33197D1*
X62301Y33310D1*
X62277Y33422D1*
X62274Y33567D1*
X62169Y33676D1*
X59142Y33675D1*
X58633Y33671D1*
X58751Y33632D1*
X58862Y33575D1*
X58963Y33501D1*
X59052Y33413D1*
X59126Y33312D1*
X59183Y33202D1*
X59223Y33083D1*
X59247Y32887D1*
X59237Y32762D1*
X59208Y32641D1*
X59161Y32525D1*
X59097Y32418D1*
X59017Y32322D1*
X58923Y32240D1*
X58817Y32173D1*
X58703Y32124D1*
X58582Y32092D1*
X58438Y32081D1*
X58183Y31823D1*
X58184Y30908D1*
X17674Y21550D2*
X17064D1*
X17107Y21409D1*
X17115Y21319D1*
X17101Y21195D1*
X17066Y21096D1*
X17190Y21063D1*
X17675Y21551D1*
X11029Y22405D2*
X11030Y21400D1*
X9966D1*
X9960Y21774D1*
X9925D1*
X9927Y20359D1*
X10026Y20571D1*
X10095Y20675D1*
X10176Y20770D1*
X10266Y20856D1*
X10366Y20932D1*
X10473Y20995D1*
X10587Y21047D1*
X10706Y21085D1*
X10828Y21110D1*
X10953Y21122D1*
X11078Y21119D1*
X11201Y21103D1*
X11348Y21063D1*
X11827Y21546D1*
X11828Y22444D1*
X11475Y22795D1*
X11029Y22798D1*
X11026Y22148D1*
X21266Y11120D2*
Y11073D1*
X21273Y11120D1*
X21359Y11074D1*
X21452D1*
X21574Y11054D1*
X21678Y10998D1*
X21849Y10832D1*
X21982Y10830D1*
X21981Y11118D1*
X21273Y11120D1*
X15477Y11118D2*
Y11087D1*
X15494Y11120D1*
X15476D1*
X15570Y11088D1*
X15651D1*
X15773Y11067D1*
X15877Y11012D1*
X16062Y10832D1*
X16304Y10830D1*
X16302Y11118D1*
X15569Y11120D1*
X15494D1*
X9626Y11118D2*
Y11009D1*
X10004Y11010D1*
X10126Y10989D1*
X10236Y10929D1*
X10321Y10833D1*
X10385D1*
Y11118D1*
X9777Y11120D1*
X9627D1*
X52669Y32097D2*
X51006D1*
Y32359D1*
X50964Y32238D1*
Y32102D1*
X49913D1*
X49726Y31913D1*
X49628Y31843D1*
X49787Y31838D1*
X50219Y31834D1*
X50160Y31838D1*
X50967D1*
Y31584D1*
X50983Y31682D1*
Y31818D1*
X52165Y31814D1*
X52181Y31818D1*
X52669D1*
Y32094D1*
X52670Y30557D2*
X50983D1*
Y30835D1*
X50967Y30713D1*
Y30577D1*
X50354D1*
X50435Y30514D1*
X50604Y30345D1*
X50944D1*
Y29560D1*
X50983Y29604D1*
Y30365D1*
X52164Y30361D1*
X52181Y30365D1*
X52669D1*
Y30555D1*
X52165Y30558D2*
X51790Y30557D1*
X51756Y30365D1*
X52156D1*
X9160Y46187D2*
X9139Y46064D1*
X9105Y45944D1*
X9057Y45828D1*
X8997Y45719D1*
X8925Y45617D1*
X8843Y45523D1*
X8750Y45439D1*
X8649Y45366D1*
X8540Y45305D1*
X8425Y45256D1*
X8305Y45220D1*
X8182Y45198D1*
X8057Y45190D1*
X7933Y45195D1*
X7809Y45215D1*
X7689Y45247D1*
X7573Y45294D1*
X7462Y45352D1*
X7359Y45423D1*
X7265Y45505D1*
X7180Y45596D1*
X7106Y45697D1*
X7043Y45805D1*
X6993Y45919D1*
X6956Y46039D1*
X6932Y46161D1*
X6922Y46286D1*
X6926Y46411D1*
X6944Y46534D1*
X6976Y46655D1*
X7020Y46772D1*
X7078Y46883D1*
X7147Y46987D1*
X7228Y47082D1*
X7319Y47168D1*
X7418Y47244D1*
X7526Y47307D1*
X7639Y47359D1*
X7758Y47397D1*
X7881Y47422D1*
X8005Y47434D1*
X8130Y47431D1*
X8254Y47415D1*
X8375Y47385D1*
X8492Y47341D1*
X8604Y47285D1*
X8709Y47217D1*
X8805Y47137D1*
X8892Y47048D1*
X8969Y46949D1*
X9034Y46842D1*
X9086Y46729D1*
X9126Y46611D1*
X9153Y46489D1*
X9167Y46312D1*
X9160Y46187D1*
X47417Y42110D2*
X47396Y41987D1*
X47362Y41867D1*
X47314Y41751D1*
X47254Y41642D1*
X47183Y41539D1*
X47100Y41446D1*
X47007Y41362D1*
X46906Y41289D1*
X46797Y41228D1*
X46682Y41179D1*
X46562Y41143D1*
X46439Y41121D1*
X46315Y41112D1*
X46190Y41118D1*
X46066Y41137D1*
X45946Y41170D1*
X45830Y41216D1*
X45720Y41275D1*
X45616Y41346D1*
X45522Y41427D1*
X45437Y41519D1*
X45363Y41620D1*
X45300Y41728D1*
X45250Y41842D1*
X45213Y41961D1*
X45189Y42084D1*
X45179Y42209D1*
X45184Y42334D1*
X45201Y42457D1*
X45233Y42578D1*
X45278Y42695D1*
X45335Y42806D1*
X45405Y42910D1*
X45485Y43005D1*
X45576Y43091D1*
X45675Y43166D1*
X45783Y43230D1*
X45897Y43282D1*
X46016Y43320D1*
X46138Y43345D1*
X46262Y43356D1*
X46387Y43354D1*
X46511Y43337D1*
X46632Y43307D1*
X46750Y43264D1*
X46861Y43208D1*
X46966Y43140D1*
X47062Y43060D1*
X47149Y42970D1*
X47226Y42872D1*
X47291Y42765D1*
X47344Y42652D1*
X47384Y42533D1*
X47410Y42411D1*
X47424Y42235D1*
X47417Y42110D1*
X44176Y42210D2*
X44158Y42036D1*
X44114Y41867D1*
X44044Y41707D1*
X43950Y41559D1*
X43834Y41428D1*
X43699Y41317D1*
X43549Y41228D1*
X43387Y41163D1*
X43216Y41124D1*
X43042Y41112D1*
X42867Y41128D1*
X42698Y41170D1*
X42537Y41238D1*
X42388Y41331D1*
X42256Y41445D1*
X42143Y41578D1*
X42052Y41728D1*
X41986Y41889D1*
X41945Y42059D1*
X41931Y42234D1*
X41945Y42408D1*
X41985Y42578D1*
X42051Y42740D1*
X42142Y42889D1*
X42254Y43023D1*
X42387Y43138D1*
X42535Y43230D1*
X42696Y43299D1*
X42865Y43341D1*
X43039Y43357D1*
X43214Y43346D1*
X43384Y43307D1*
X43547Y43243D1*
X43697Y43154D1*
X43832Y43043D1*
X43948Y42912D1*
X44043Y42765D1*
X44113Y42605D1*
X44158Y42436D1*
X44176Y42262D1*
Y42210D1*
X41008Y34507D2*
X41382D1*
Y33893D1*
X41999Y33894D1*
X42076Y33964D1*
X42184Y34026D1*
X42304Y34062D1*
X42354Y34065D1*
X42351Y34453D1*
X42722D1*
X42725Y35359D1*
Y36016D1*
X42427Y36314D1*
X40184Y36316D1*
X40810Y35689D1*
X40882Y35588D1*
X40916Y35476D1*
X40919Y35413D1*
X41008Y35412D1*
Y34510D1*
X43935Y28415D2*
Y28136D1*
X44044Y28117D1*
X44160Y28069D1*
X44262Y27998D1*
X44295Y27960D1*
X47196D1*
X47195Y28816D1*
X47504D1*
X47651Y28968D1*
X47532Y29090D1*
X47174Y29091D1*
Y29344D1*
X46058Y29346D1*
X46017Y29228D1*
X45950Y29123D1*
X45861Y29035D1*
X45755Y28970D1*
X45636Y28930D1*
X45512Y28918D1*
X45388Y28934D1*
X45272Y28978D1*
X45167Y29046D1*
X45081Y29137D1*
X45024Y29234D1*
X44370Y28582D1*
X44272Y28504D1*
X44160Y28449D1*
X44010Y28417D1*
X43938Y28415D1*
X40449Y24918D2*
X40281Y24915D1*
X40277Y24909D1*
X40297Y24915D1*
X40282D1*
X40168Y24796D1*
X43148Y24797D1*
X43150Y24895D1*
X42226D1*
Y25978D1*
X42339D1*
X42419Y26099D1*
X42523Y26174D1*
X42490Y26156D1*
X42600Y26300D1*
Y26648D1*
X42074Y26646D1*
X42006Y26586D1*
X41900Y26521D1*
X41782Y26481D1*
X41658Y26469D1*
X41534Y26485D1*
X41417Y26529D1*
X41294Y26617D1*
X41219Y26547D1*
X41113Y26482D1*
X40994Y26442D1*
X40870Y26430D1*
X40820Y26436D1*
X40823Y26002D1*
X41071Y25999D1*
X41197D1*
Y24915D1*
X40297D1*
X43900Y25465D2*
Y24895D1*
X43841D1*
X43923Y24834D1*
X44006Y24741D1*
X44066Y24632D1*
X44103Y24476D1*
X45094Y25467D1*
X43898Y25465D1*
X11136Y28548D2*
X12271D1*
Y28529D1*
X12488Y28528D1*
X12612Y28515D1*
X12730Y28475D1*
X12836Y28410D1*
X12926Y28323D1*
X12995Y28219D1*
X13040Y28103D1*
X13058Y27979D1*
X13050Y27855D1*
X13014Y27735D1*
X12953Y27626D1*
X12870Y27533D1*
X12769Y27460D1*
X12655Y27411D1*
X12488Y27386D1*
X12273D1*
X12268Y27366D1*
X12271Y26800D1*
Y26618D1*
X11011D1*
Y26989D1*
X10838Y26932D1*
X10731Y26867D1*
X10613Y26827D1*
X10489Y26815D1*
X10365Y26831D1*
X10248Y26875D1*
X10144Y26943D1*
X10058Y27033D1*
X9995Y27141D1*
X9957Y27260D1*
X9945Y27393D1*
X9836Y27453D1*
X9740Y27533D1*
X9660Y27629D1*
X9599Y27738D1*
X9559Y27856D1*
X9541Y27980D1*
X9546Y28104D1*
X9574Y28226D1*
X9623Y28340D1*
X9693Y28444D1*
X9784Y28536D1*
X9727Y28647D1*
X9691Y28766D1*
X9678Y28890D1*
X9688Y29015D1*
X9720Y29135D1*
X9774Y29248D1*
X9784Y29265D1*
X9722Y29323D1*
X9653Y29412D1*
X8231Y29411D1*
X8164Y29330D1*
X8092Y29264D1*
X8128Y29208D1*
X8175Y29092D1*
X8199Y28969D1*
X8200Y28850D1*
X8180Y28727D1*
X8137Y28610D1*
X8096Y28536D1*
X8184Y28447D1*
X8255Y28344D1*
X8305Y28230D1*
X8333Y28108D1*
X8340Y27989D1*
X8323Y27865D1*
X8285Y27747D1*
X8226Y27637D1*
X8147Y27540D1*
X8052Y27459D1*
X7944Y27397D1*
X7826Y27355D1*
X7703Y27336D1*
X7578Y27340D1*
X7456Y27366D1*
X7341Y27415D1*
X7237Y27483D1*
X7147Y27570D1*
X7074Y27671D1*
X7021Y27784D1*
X6990Y27905D1*
X6981Y28029D1*
X6995Y28154D1*
X7032Y28273D1*
X7087Y28379D1*
X6993Y28475D1*
X6924Y28579D1*
X6875Y28694D1*
X6848Y28816D1*
X6844Y28940D1*
X6863Y29064D1*
X6904Y29182D1*
X6966Y29290D1*
X7047Y29385D1*
X7087Y29421D1*
X7030Y29532D1*
X6994Y29652D1*
X6981Y29776D1*
X6991Y29901D1*
X7023Y30021D1*
X7077Y30134D1*
X7150Y30235D1*
X7241Y30320D1*
X7346Y30388D1*
X7461Y30436D1*
X7584Y30461D1*
X7708Y30464D1*
X7832Y30443D1*
X7949Y30401D1*
X8057Y30338D1*
X8151Y30256D1*
X8226Y30161D1*
X8274Y30184D1*
X8261Y30308D1*
X8270Y30432D1*
X8303Y30553D1*
X8356Y30665D1*
X8430Y30766D1*
X8521Y30852D1*
X8625Y30920D1*
X8741Y30967D1*
X8863Y30992D1*
X8988Y30995D1*
X9111Y30975D1*
X9229Y30933D1*
X9336Y30869D1*
X9430Y30788D1*
X9508Y30690D1*
X9567Y30580D1*
X9604Y30461D1*
X9619Y30317D1*
X9598Y30159D1*
X9709Y30235D1*
X9800Y30320D1*
X9905Y30388D1*
X10020Y30436D1*
X10143Y30461D1*
X10267Y30464D1*
X10391Y30443D1*
X10508Y30401D1*
X10616Y30338D1*
X10710Y30256D1*
X10788Y30158D1*
X10846Y30048D1*
X10884Y29929D1*
X10899Y29786D1*
X10888Y29662D1*
X10854Y29541D1*
X10793Y29421D1*
X10881Y29333D1*
X10951Y29230D1*
X11002Y29116D1*
X11030Y28994D1*
X11036Y28875D1*
X11020Y28751D1*
X10982Y28632D1*
X10922Y28523D1*
X10844Y28426D1*
X10793Y28379D1*
X10846Y28277D1*
X10884Y28157D1*
X10899Y28034D1*
X10892Y27915D1*
X10859Y27784D1*
X10898Y27741D1*
X11011D1*
Y28548D1*
X11136D1*
X19746Y30404D2*
X19747Y29392D1*
X19873Y29396D1*
X20733Y29533D1*
X20732Y30403D1*
Y31151D1*
X21992D1*
Y30936D1*
X23096Y30934D1*
X23219Y30913D1*
X23321Y30859D1*
X23375Y30811D1*
X23521Y30962D1*
X23625Y31030D1*
X23741Y31077D1*
X23863Y31102D1*
X23988Y31105D1*
X24111Y31085D1*
X24229Y31043D1*
X24336Y30979D1*
X24430Y30898D1*
X24508Y30800D1*
X24567Y30690D1*
X24604Y30571D1*
X24619Y30427D1*
X24608Y30303D1*
X24574Y30183D1*
X24519Y30071D1*
X24444Y29971D1*
X24352Y29887D1*
X24246Y29821D1*
X24130Y29775D1*
X24007Y29751D1*
X23882Y29750D1*
X23760Y29772D1*
X23643Y29816D1*
X23536Y29881D1*
X23443Y29964D1*
X23374Y30054D1*
X23325Y30039D1*
X23340Y29915D1*
X23333Y29796D1*
X23303Y29675D1*
X23252Y29561D1*
X23181Y29459D1*
X23096Y29374D1*
X23149Y29272D1*
X23187Y29153D1*
X23202Y29029D1*
X23195Y28910D1*
X23165Y28789D1*
X23114Y28675D1*
X23096Y28645D1*
X23151Y28594D1*
X23226Y28500D1*
X24649Y28499D1*
X24709Y28573D1*
X24784Y28646D1*
X24727Y28757D1*
X24691Y28876D1*
X24678Y29000D1*
X24688Y29125D1*
X24720Y29245D1*
X24774Y29358D1*
X24784Y29375D1*
X24690Y29470D1*
X24621Y29575D1*
X24572Y29689D1*
X24545Y29811D1*
X24541Y29936D1*
X24560Y30060D1*
X24601Y30177D1*
X24663Y30286D1*
X24744Y30381D1*
X24841Y30460D1*
X24950Y30520D1*
X25069Y30558D1*
X25193Y30575D1*
X25317Y30568D1*
X25439Y30539D1*
X25553Y30488D1*
X25655Y30417D1*
X25743Y30329D1*
X25814Y30226D1*
X25864Y30111D1*
X25892Y29990D1*
X25899Y29871D1*
X25883Y29747D1*
X25844Y29628D1*
X25793Y29531D1*
X25881Y29443D1*
X25951Y29340D1*
X26002Y29226D1*
X26030Y29104D1*
X26036Y28985D1*
X26020Y28861D1*
X25982Y28742D1*
X25922Y28633D1*
X25844Y28536D1*
X25793Y28489D1*
X25846Y28387D1*
X25884Y28267D1*
X25899Y28124D1*
X25888Y28000D1*
X25854Y27880D1*
X25798Y27768D1*
X25723Y27668D1*
X25631Y27584D1*
X25525Y27517D1*
X25409Y27472D1*
X25287Y27448D1*
X25162Y27447D1*
X25039Y27469D1*
X24922Y27513D1*
X24816Y27578D1*
X24722Y27661D1*
X24653Y27750D1*
X24604Y27736D1*
X24619Y27593D1*
X24608Y27468D1*
X24574Y27348D1*
X24519Y27236D1*
X24444Y27137D1*
X24352Y27052D1*
X24246Y26986D1*
X24130Y26940D1*
X24007Y26917D1*
X23882Y26916D1*
X23760Y26938D1*
X23643Y26982D1*
X23536Y27046D1*
X23443Y27129D1*
X23374Y27219D1*
X22205Y27218D1*
X22090Y27237D1*
X21978Y27295D1*
X21977Y26672D1*
X21918D1*
Y26456D1*
X21904Y26332D1*
X21864Y26214D1*
X21799Y26107D1*
X21713Y26017D1*
X21609Y25948D1*
X21492Y25903D1*
X21347Y25884D1*
X20736D1*
X20612Y25898D1*
X20494Y25938D1*
X20365Y26022D1*
X19545Y26839D1*
X19467Y26936D1*
X19412Y27048D1*
X19380Y27199D1*
X19378Y28247D1*
X19209Y28260D1*
X19091Y28301D1*
X18962Y28384D1*
X18712Y28631D1*
X18634Y28728D1*
X18579Y28840D1*
X18550Y28965D1*
X18535Y28964D1*
X18533Y28845D1*
X18508Y28723D1*
X18461Y28607D1*
X18393Y28502D1*
X18308Y28411D1*
X18293Y28399D1*
X18346Y28297D1*
X18384Y28177D1*
X18399Y28054D1*
X18392Y27935D1*
X18362Y27813D1*
X18311Y27699D1*
X18240Y27597D1*
X18151Y27509D1*
X18048Y27439D1*
X17933Y27389D1*
X17812Y27361D1*
X17687Y27355D1*
X17563Y27373D1*
X17445Y27413D1*
X17336Y27473D1*
X17240Y27553D1*
X17160Y27649D1*
X17099Y27758D1*
X17059Y27876D1*
X17041Y28000D1*
X17046Y28124D1*
X17074Y28246D1*
X17123Y28360D1*
X17193Y28464D1*
X17284Y28556D1*
X17227Y28667D1*
X17191Y28786D1*
X17178Y28910D1*
X17188Y29035D1*
X17220Y29155D1*
X17274Y29268D1*
X17284Y29285D1*
X17222Y29343D1*
X17153Y29432D1*
X15731Y29431D1*
X15664Y29350D1*
X15592Y29284D1*
X15628Y29228D1*
X15675Y29112D1*
X15699Y28989D1*
X15700Y28870D1*
X15680Y28747D1*
X15637Y28630D1*
X15596Y28556D1*
X15684Y28467D1*
X15755Y28364D1*
X15805Y28250D1*
X15833Y28128D1*
X15840Y28009D1*
X15823Y27885D1*
X15785Y27767D1*
X15726Y27657D1*
X15647Y27560D1*
X15552Y27479D1*
X15444Y27417D1*
X15326Y27375D1*
X15203Y27356D1*
X15078Y27360D1*
X14956Y27386D1*
X14841Y27435D1*
X14737Y27503D1*
X14647Y27590D1*
X14574Y27691D1*
X14521Y27804D1*
X14490Y27925D1*
X14481Y28049D1*
X14495Y28174D1*
X14532Y28293D1*
X14587Y28399D1*
X14493Y28495D1*
X14424Y28599D1*
X14375Y28714D1*
X14348Y28836D1*
X14344Y28960D1*
X14363Y29084D1*
X14404Y29202D1*
X14466Y29310D1*
X14547Y29405D1*
X14587Y29441D1*
X14530Y29552D1*
X14494Y29672D1*
X14481Y29796D1*
X14491Y29921D1*
X14523Y30041D1*
X14577Y30154D1*
X14650Y30255D1*
X14741Y30340D1*
X14846Y30408D1*
X14961Y30456D1*
X15084Y30481D1*
X15208Y30484D1*
X15332Y30463D1*
X15449Y30421D1*
X15557Y30358D1*
X15651Y30276D1*
X15726Y30181D1*
X15774Y30204D1*
X15761Y30328D1*
X15770Y30452D1*
X15803Y30573D1*
X15856Y30685D1*
X15930Y30786D1*
X16021Y30872D1*
X16125Y30940D1*
X16241Y30987D1*
X16363Y31012D1*
X16488Y31015D1*
X16611Y30995D1*
X16729Y30953D1*
X16836Y30889D1*
X16930Y30808D1*
X17006Y30713D1*
X17280Y30712D1*
X17395Y30826D1*
X17496Y30898D1*
X17609Y30932D1*
X18160Y30935D1*
X18484D1*
X18486Y31152D1*
X19747D1*
X19743Y29970D1*
X18547Y29222D2*
X18486D1*
Y30185D1*
X18284Y30187D1*
X18346Y30068D1*
X18384Y29949D1*
X18399Y29806D1*
X18388Y29682D1*
X18354Y29561D1*
X18293Y29441D1*
X18381Y29353D1*
X18451Y29250D1*
X18502Y29136D1*
X18530Y29014D1*
X18535Y28964D1*
X18545Y29226D1*
X56155Y4659D2*
X54973D1*
Y5920D1*
X55188D1*
X55190Y6442D1*
X55161Y6535D1*
X55152Y6601D1*
X55066D1*
Y6769D1*
X49252Y6768D1*
X49190Y6708D1*
X49084Y6643D1*
X48965Y6603D1*
X48841Y6591D1*
X48717Y6607D1*
X48601Y6651D1*
X48496Y6719D1*
X48410Y6810D1*
X48347Y6917D1*
X48309Y7036D1*
X48299Y7160D1*
X48317Y7283D1*
X48362Y7400D1*
X48432Y7503D1*
X48524Y7587D1*
X48632Y7649D1*
X48751Y7685D1*
X48876Y7694D1*
X48999Y7674D1*
X49114Y7627D1*
X49216Y7555D1*
X49250Y7517D1*
X54692Y7518D1*
Y8590D1*
X54774D1*
Y9296D1*
X54773Y9472D1*
X54554Y9473D1*
Y10734D1*
X55735Y10730D1*
X55677Y10734D1*
X56483D1*
Y9473D1*
X56362D1*
X56363Y8587D1*
X56366Y8508D1*
X56903Y8511D1*
X57769D1*
X57892Y8494D1*
X58035Y8427D1*
X58184Y8287D1*
X58667Y7805D1*
X58742Y7706D1*
X58796Y7556D1*
X58803Y7352D1*
Y6223D1*
X58970Y6226D1*
Y6105D1*
X59124Y6188D1*
X59245Y6219D1*
X59369Y6225D1*
X59493Y6207D1*
X59610Y6165D1*
X59717Y6100D1*
X59809Y6016D1*
X59839Y5975D1*
X59912Y6058D1*
X60011Y6134D1*
X60124Y6188D1*
X60245Y6219D1*
X60369Y6225D1*
X60493Y6207D1*
X60610Y6165D1*
X60717Y6100D1*
X60809Y6016D1*
X60839Y5975D1*
X60912Y6058D1*
X61011Y6134D1*
X61124Y6188D1*
X61245Y6219D1*
X61369Y6225D1*
X61427Y6217D1*
X61430Y7506D1*
Y12861D1*
X60772Y12858D1*
X56776D1*
X56779Y12726D1*
Y11894D1*
X55518D1*
Y12870D1*
X55484Y12881D1*
X55518Y12767D1*
Y12872D1*
X55400Y12924D1*
X54849D1*
X54845Y12707D1*
X54849Y12891D1*
Y11959D1*
X54595D1*
X54575Y11827D1*
X54517Y11717D1*
X54326Y11521D1*
X54224Y11449D1*
X54112Y11415D1*
X53561Y11412D1*
X48073D1*
X48157Y11333D1*
X48230Y11232D1*
X48279Y11117D1*
X48304Y10950D1*
Y7779D1*
X48291Y7655D1*
X48250Y7536D1*
X48167Y7407D1*
X47349Y6587D1*
X47252Y6509D1*
X47140Y6454D1*
X46990Y6422D1*
X46434Y6420D1*
X46644Y6289D1*
X46829Y6121D1*
X46980Y5923D1*
X47093Y5700D1*
X47164Y5461D1*
X47191Y5213D1*
X47186Y5065D1*
X47141Y4820D1*
X47052Y4586D1*
X46977Y4454D1*
X48404Y4455D1*
X48307Y4633D1*
X48227Y4869D1*
X48191Y5116D1*
X48200Y5366D1*
X48254Y5609D1*
X48351Y5839D1*
X48489Y6048D1*
X48661Y6228D1*
X48864Y6374D1*
X49089Y6481D1*
X49330Y6546D1*
X49579Y6566D1*
X49828Y6541D1*
X50067Y6471D1*
X50291Y6360D1*
X50490Y6209D1*
X50659Y6025D1*
X50792Y5814D1*
X50884Y5582D1*
X50933Y5337D1*
X50941Y5190D1*
X50919Y4941D1*
X50851Y4701D1*
X50742Y4477D1*
X50727Y4454D1*
X56568Y4455D1*
X56548Y4596D1*
Y4659D1*
X55721Y4663D1*
X9608Y27358D2*
X9574Y27238D1*
X9519Y27126D1*
X9444Y27027D1*
X9352Y26942D1*
X9246Y26876D1*
X9130Y26830D1*
X9007Y26807D1*
X8882Y26806D1*
X8760Y26828D1*
X8643Y26872D1*
X8536Y26936D1*
X8443Y27019D1*
X8367Y27118D1*
X8310Y27229D1*
X8274Y27349D1*
X8261Y27473D1*
X8270Y27597D1*
X8303Y27718D1*
X8356Y27831D1*
X8430Y27932D1*
X8521Y28017D1*
X8625Y28085D1*
X8741Y28132D1*
X8863Y28158D1*
X8988Y28160D1*
X9111Y28140D1*
X9229Y28098D1*
X9336Y28035D1*
X9430Y27953D1*
X9508Y27855D1*
X9567Y27745D1*
X9604Y27626D1*
X9619Y27483D1*
X9608Y27358D1*
X17108Y27378D2*
X17074Y27258D1*
X17019Y27146D1*
X16944Y27047D1*
X16852Y26962D1*
X16746Y26896D1*
X16630Y26850D1*
X16507Y26827D1*
X16382Y26826D1*
X16260Y26848D1*
X16143Y26892D1*
X16036Y26956D1*
X15943Y27039D1*
X15867Y27138D1*
X15810Y27249D1*
X15774Y27369D1*
X15761Y27493D1*
X15770Y27617D1*
X15803Y27738D1*
X15856Y27851D1*
X15930Y27952D1*
X16021Y28037D1*
X16125Y28105D1*
X16241Y28152D1*
X16363Y28178D1*
X16488Y28180D1*
X16611Y28160D1*
X16729Y28118D1*
X16836Y28055D1*
X16930Y27973D1*
X17008Y27875D1*
X17067Y27765D1*
X17104Y27646D1*
X17119Y27503D1*
X17108Y27378D1*
X39745Y19091D2*
X39708Y18972D1*
X39649Y18862D1*
X39569Y18766D1*
X39505Y18714D1*
X39596Y18635D1*
X39670Y18535D1*
X39722Y18421D1*
X39751Y18300D1*
X39757Y18215D1*
X39747Y18110D1*
X42987Y18112D1*
X43354Y18480D1*
X43456Y18552D1*
X43568Y18586D1*
X44119Y18589D1*
X44623D1*
X44699Y18678D1*
X44746Y18713D1*
X44671Y18780D1*
X44594Y18878D1*
X44538Y18990D1*
X44505Y19110D1*
X44499Y19254D1*
X39756D1*
X39745Y19091D1*
X38512Y16084D2*
X38497Y16235D1*
X38511Y16347D1*
X37077Y16345D1*
X18073D1*
X18240Y16286D1*
X18342Y16214D1*
X18442Y16090D1*
X19351Y16087D1*
X38511D1*
X18346Y40636D2*
X18317Y40515D1*
X18270Y40399D1*
X18206Y40292D1*
X18126Y40196D1*
X18032Y40114D1*
X17926Y40047D1*
X17812Y39998D1*
X17691Y39966D1*
X17567Y39954D1*
X17442Y39960D1*
X17320Y39986D1*
X17203Y40031D1*
X17095Y40093D1*
X16997Y40171D1*
X16913Y40263D1*
X16844Y40367D1*
X16791Y40480D1*
X16757Y40600D1*
X16742Y40724D1*
X16746Y40849D1*
X16769Y40972D1*
X16811Y41089D1*
X16870Y41199D1*
X16946Y41299D1*
X17036Y41385D1*
X17138Y41457D1*
X17250Y41511D1*
X17370Y41548D1*
X17493Y41566D1*
X17618Y41565D1*
X17741Y41545D1*
X17860Y41506D1*
X17971Y41449D1*
X18072Y41375D1*
X18161Y41287D1*
X18234Y41186D1*
X18292Y41076D1*
X18331Y40957D1*
X18356Y40761D1*
X18346Y40636D1*
Y43589D2*
X18317Y43468D1*
X18270Y43352D1*
X18206Y43245D1*
X18126Y43149D1*
X18032Y43067D1*
X17926Y43000D1*
X17812Y42950D1*
X17691Y42919D1*
X17567Y42906D1*
X17442Y42913D1*
X17320Y42939D1*
X17203Y42984D1*
X17095Y43046D1*
X16997Y43124D1*
X16913Y43216D1*
X16844Y43320D1*
X16791Y43433D1*
X16757Y43553D1*
X16742Y43677D1*
X16746Y43802D1*
X16769Y43924D1*
X16811Y44042D1*
X16870Y44152D1*
X16946Y44251D1*
X17036Y44338D1*
X17138Y44409D1*
X17250Y44464D1*
X17370Y44501D1*
X17493Y44519D1*
X17618Y44518D1*
X17741Y44498D1*
X17860Y44458D1*
X17971Y44401D1*
X18072Y44328D1*
X18161Y44240D1*
X18234Y44139D1*
X18292Y44028D1*
X18331Y43910D1*
X18356Y43714D1*
X18346Y43589D1*
X16362D2*
X16333Y43468D1*
X16286Y43352D1*
X16222Y43245D1*
X16141Y43149D1*
X16047Y43067D1*
X15942Y43000D1*
X15827Y42950D1*
X15707Y42919D1*
X15582Y42906D1*
X15458Y42913D1*
X15336Y42939D1*
X15219Y42984D1*
X15110Y43046D1*
X15013Y43124D1*
X14928Y43216D1*
X14859Y43320D1*
X14807Y43433D1*
X14773Y43553D1*
X14757Y43677D1*
X14761Y43802D1*
X14785Y43924D1*
X14826Y44042D1*
X14886Y44152D1*
X14962Y44251D1*
X15052Y44338D1*
X15154Y44409D1*
X15266Y44464D1*
X15386Y44501D1*
X15509Y44519D1*
X15634Y44518D1*
X15757Y44498D1*
X15876Y44458D1*
X15987Y44401D1*
X16088Y44328D1*
X16176Y44240D1*
X16250Y44139D1*
X16308Y44028D1*
X16347Y43910D1*
X16371Y43714D1*
X16362Y43589D1*
X14378D2*
X14349Y43468D1*
X14302Y43352D1*
X14237Y43245D1*
X14157Y43149D1*
X14063Y43067D1*
X13958Y43000D1*
X13843Y42950D1*
X13722Y42919D1*
X13598Y42906D1*
X13473Y42913D1*
X13351Y42939D1*
X13235Y42984D1*
X13126Y43046D1*
X13029Y43124D1*
X12944Y43216D1*
X12875Y43320D1*
X12823Y43433D1*
X12788Y43553D1*
X12773Y43677D1*
X12777Y43802D1*
X12800Y43924D1*
X12842Y44042D1*
X12902Y44152D1*
X12977Y44251D1*
X13067Y44338D1*
X13170Y44409D1*
X13282Y44464D1*
X13401Y44501D1*
X13525Y44519D1*
X13650Y44518D1*
X13773Y44498D1*
X13891Y44458D1*
X14003Y44401D1*
X14104Y44328D1*
X14192Y44240D1*
X14266Y44139D1*
X14323Y44028D1*
X14363Y43910D1*
X14387Y43714D1*
X14378Y43589D1*
X30918Y41038D2*
X30811Y40941D1*
X30706Y40874D1*
X30591Y40824D1*
X30470Y40793D1*
X30346Y40780D1*
X30221Y40787D1*
X30099Y40813D1*
X29983Y40858D1*
X29874Y40920D1*
X29777Y40998D1*
X29692Y41090D1*
X29623Y41194D1*
X29571Y41307D1*
X29536Y41427D1*
X29521Y41551D1*
X29525Y41676D1*
X29548Y41799D1*
X29590Y41916D1*
X29650Y42026D1*
X29725Y42125D1*
X29815Y42212D1*
X29918Y42283D1*
X30030Y42338D1*
X30149Y42375D1*
X30273Y42393D1*
X30398Y42392D1*
X30521Y42372D1*
X30640Y42332D1*
X30751Y42276D1*
X30852Y42202D1*
X30921Y42133D1*
X30919Y43019D1*
X30811Y42925D1*
X30706Y42858D1*
X30591Y42809D1*
X30470Y42777D1*
X30346Y42765D1*
X30221Y42771D1*
X30099Y42797D1*
X29983Y42842D1*
X29874Y42904D1*
X29777Y42982D1*
X29692Y43074D1*
X29623Y43178D1*
X29571Y43291D1*
X29536Y43411D1*
X29521Y43535D1*
X29525Y43660D1*
X29548Y43783D1*
X29590Y43900D1*
X29650Y44010D1*
X29725Y44110D1*
X29815Y44196D1*
X29918Y44268D1*
X30030Y44322D1*
X30149Y44359D1*
X30273Y44377D1*
X30398Y44376D1*
X30521Y44356D1*
X30640Y44317D1*
X30751Y44260D1*
X30852Y44186D1*
X30921Y44117D1*
X30919Y44605D1*
X28983Y46542D1*
X28900Y46635D1*
X28827Y46737D1*
X28767Y46846D1*
X28718Y46961D1*
X28683Y47081D1*
X28662Y47204D1*
X28654Y47329D1*
X28660Y47454D1*
X28681Y47577D1*
X28714Y47698D1*
X28761Y47813D1*
X28820Y47923D1*
X28892Y48026D1*
X28974Y48120D1*
X29066Y48204D1*
X29167Y48278D1*
X29275Y48340D1*
X29390Y48389D1*
X29510Y48426D1*
X29632Y48449D1*
X29757Y48458D1*
X29882Y48453D1*
X30005Y48435D1*
X30126Y48402D1*
X30242Y48357D1*
X30353Y48299D1*
X30457Y48229D1*
X30659Y48041D1*
X32836Y45864D1*
X32919Y45771D1*
X32991Y45669D1*
X33052Y45560D1*
X33100Y45445D1*
X33135Y45325D1*
X33157Y45202D1*
X33164Y44945D1*
Y43918D1*
X33232Y44050D1*
X33308Y44149D1*
X33398Y44235D1*
X33501Y44307D1*
X33613Y44362D1*
X33732Y44399D1*
X33856Y44417D1*
X33980Y44416D1*
X34104Y44395D1*
X34222Y44356D1*
X34333Y44299D1*
X34434Y44226D1*
X34523Y44138D1*
X34597Y44037D1*
X34654Y43926D1*
X34694Y43808D1*
X34718Y43611D1*
X34708Y43487D1*
X34680Y43365D1*
X34632Y43250D1*
X34568Y43143D1*
X34488Y43047D1*
X34394Y42965D1*
X34288Y42898D1*
X34174Y42848D1*
X34053Y42817D1*
X33929Y42804D1*
X33804Y42811D1*
X33682Y42837D1*
X33565Y42881D1*
X33457Y42943D1*
X33359Y43021D1*
X33275Y43113D1*
X33206Y43217D1*
X33165Y43306D1*
X33164Y41934D1*
X33232Y42065D1*
X33308Y42165D1*
X33398Y42251D1*
X33501Y42323D1*
X33613Y42378D1*
X33732Y42414D1*
X33856Y42433D1*
X33980Y42431D1*
X34104Y42411D1*
X34222Y42372D1*
X34333Y42315D1*
X34434Y42241D1*
X34523Y42153D1*
X34597Y42053D1*
X34654Y41942D1*
X34694Y41823D1*
X34718Y41627D1*
X34708Y41503D1*
X34680Y41381D1*
X34632Y41265D1*
X34568Y41158D1*
X34488Y41063D1*
X34394Y40980D1*
X34288Y40913D1*
X34174Y40864D1*
X34053Y40832D1*
X33929Y40820D1*
X33804Y40827D1*
X33682Y40853D1*
X33565Y40897D1*
X33457Y40959D1*
X33359Y41037D1*
X33275Y41129D1*
X33206Y41233D1*
X33165Y41322D1*
X33164Y40555D1*
X33157Y40430D1*
X33137Y40307D1*
X33102Y40187D1*
X33055Y40071D1*
X32995Y39961D1*
X32923Y39859D1*
X32747Y39673D1*
X31884Y38810D1*
X31791Y38726D1*
X31689Y38654D1*
X31580Y38593D1*
X31465Y38545D1*
X31345Y38510D1*
X31222Y38489D1*
X30966Y38481D1*
X30203Y38488D1*
X30080Y38509D1*
X29960Y38543D1*
X29844Y38591D1*
X29735Y38651D1*
X29632Y38722D1*
X29539Y38805D1*
X29455Y38898D1*
X29382Y38999D1*
X29321Y39108D1*
X29272Y39223D1*
X29236Y39343D1*
X29214Y39466D1*
X29205Y39590D1*
X29211Y39715D1*
X29230Y39839D1*
X29263Y39959D1*
X29309Y40075D1*
X29368Y40185D1*
X29439Y40289D1*
X29520Y40383D1*
X29612Y40468D1*
X29713Y40542D1*
X29821Y40605D1*
X29935Y40655D1*
X30054Y40692D1*
X30177Y40716D1*
X30453Y40726D1*
X30629D1*
X30918Y41019D1*
X34708Y39518D2*
X34680Y39397D1*
X34632Y39281D1*
X34568Y39174D1*
X34488Y39078D1*
X34394Y38996D1*
X34288Y38929D1*
X34174Y38879D1*
X34053Y38848D1*
X33929Y38836D1*
X33804Y38842D1*
X33682Y38868D1*
X33565Y38913D1*
X33457Y38975D1*
X33359Y39053D1*
X33275Y39145D1*
X33206Y39249D1*
X33153Y39362D1*
X33119Y39482D1*
X33104Y39606D1*
X33108Y39731D1*
X33131Y39854D1*
X33173Y39971D1*
X33232Y40081D1*
X33308Y40180D1*
X33398Y40267D1*
X33501Y40338D1*
X33613Y40393D1*
X33732Y40430D1*
X33856Y40448D1*
X33980Y40447D1*
X34104Y40427D1*
X34222Y40388D1*
X34333Y40331D1*
X34434Y40257D1*
X34523Y40169D1*
X34597Y40068D1*
X34654Y39957D1*
X34694Y39839D1*
X34718Y39643D1*
X34708Y39518D1*
X37661Y41503D2*
X37632Y41381D1*
X37585Y41265D1*
X37521Y41158D1*
X37441Y41063D1*
X37347Y40980D1*
X37241Y40913D1*
X37127Y40864D1*
X37006Y40832D1*
X36882Y40820D1*
X36757Y40827D1*
X36635Y40853D1*
X36518Y40897D1*
X36410Y40959D1*
X36312Y41037D1*
X36228Y41129D1*
X36158Y41233D1*
X36106Y41346D1*
X36072Y41466D1*
X36057Y41590D1*
X36061Y41715D1*
X36084Y41838D1*
X36126Y41956D1*
X36185Y42065D1*
X36261Y42165D1*
X36351Y42251D1*
X36453Y42323D1*
X36565Y42378D1*
X36685Y42414D1*
X36808Y42433D1*
X36933Y42431D1*
X37056Y42411D1*
X37175Y42372D1*
X37286Y42315D1*
X37387Y42241D1*
X37476Y42153D1*
X37549Y42053D1*
X37607Y41942D1*
X37646Y41823D1*
X37671Y41627D1*
X37661Y41503D1*
Y43487D2*
X37632Y43365D1*
X37585Y43250D1*
X37521Y43143D1*
X37441Y43047D1*
X37347Y42965D1*
X37241Y42898D1*
X37127Y42848D1*
X37006Y42817D1*
X36882Y42804D1*
X36757Y42811D1*
X36635Y42837D1*
X36518Y42881D1*
X36410Y42943D1*
X36312Y43021D1*
X36228Y43113D1*
X36158Y43217D1*
X36106Y43331D1*
X36072Y43451D1*
X36057Y43575D1*
X36061Y43699D1*
X36084Y43822D1*
X36126Y43940D1*
X36185Y44050D1*
X36261Y44149D1*
X36351Y44235D1*
X36453Y44307D1*
X36565Y44362D1*
X36685Y44399D1*
X36808Y44417D1*
X36933Y44416D1*
X37056Y44395D1*
X37175Y44356D1*
X37286Y44299D1*
X37387Y44226D1*
X37476Y44138D1*
X37549Y44037D1*
X37607Y43926D1*
X37646Y43808D1*
X37671Y43611D1*
X37661Y43487D1*
X59237Y40754D2*
X59208Y40633D1*
X59161Y40517D1*
X59097Y40410D1*
X59017Y40315D1*
X58923Y40232D1*
X58817Y40165D1*
X58703Y40116D1*
X58582Y40084D1*
X58458Y40072D1*
X58333Y40079D1*
X58211Y40105D1*
X58094Y40149D1*
X57986Y40211D1*
X57888Y40289D1*
X57804Y40381D1*
X57735Y40485D1*
X57682Y40598D1*
X57648Y40718D1*
X57633Y40842D1*
X57637Y40967D1*
X57660Y41090D1*
X57702Y41208D1*
X57761Y41317D1*
X57837Y41417D1*
X57927Y41503D1*
X58029Y41575D1*
X58142Y41630D1*
X58261Y41666D1*
X58384Y41685D1*
X58509Y41683D1*
X58633Y41663D1*
X58751Y41624D1*
X58862Y41567D1*
X58963Y41493D1*
X59052Y41405D1*
X59126Y41305D1*
X59183Y41194D1*
X59223Y41075D1*
X59247Y40879D1*
X59237Y40754D1*
X64198Y38770D2*
X64169Y38649D1*
X64122Y38533D1*
X64058Y38426D1*
X63977Y38330D1*
X63883Y38248D1*
X63778Y38181D1*
X63663Y38131D1*
X63543Y38100D1*
X63418Y38087D1*
X63294Y38094D1*
X63172Y38120D1*
X63055Y38165D1*
X62946Y38227D1*
X62849Y38305D1*
X62764Y38397D1*
X62695Y38501D1*
X62643Y38614D1*
X62609Y38734D1*
X62593Y38858D1*
X62597Y38983D1*
X62621Y39106D1*
X62662Y39223D1*
X62722Y39333D1*
X62798Y39432D1*
X62888Y39519D1*
X62990Y39590D1*
X63102Y39645D1*
X63222Y39682D1*
X63345Y39700D1*
X63470Y39699D1*
X63593Y39679D1*
X63712Y39640D1*
X63823Y39583D1*
X63924Y39509D1*
X64012Y39421D1*
X64086Y39320D1*
X64144Y39209D1*
X64183Y39091D1*
X64207Y38895D1*
X64198Y38770D1*
Y42739D2*
X64169Y42617D1*
X64122Y42502D1*
X64058Y42395D1*
X63977Y42299D1*
X63883Y42217D1*
X63778Y42150D1*
X63663Y42100D1*
X63543Y42068D1*
X63418Y42056D1*
X63294Y42063D1*
X63172Y42089D1*
X63055Y42133D1*
X62946Y42195D1*
X62849Y42273D1*
X62764Y42365D1*
X62695Y42469D1*
X62643Y42583D1*
X62609Y42703D1*
X62593Y42827D1*
X62597Y42951D1*
X62621Y43074D1*
X62662Y43192D1*
X62722Y43302D1*
X62798Y43401D1*
X62888Y43487D1*
X62990Y43559D1*
X63102Y43614D1*
X63222Y43651D1*
X63345Y43669D1*
X63470Y43668D1*
X63593Y43647D1*
X63712Y43608D1*
X63823Y43551D1*
X63924Y43478D1*
X64012Y43390D1*
X64086Y43289D1*
X64144Y43178D1*
X64183Y43060D1*
X64207Y42863D1*
X64198Y42739D1*
X67151D2*
X67122Y42617D1*
X67075Y42502D1*
X67010Y42395D1*
X66930Y42299D1*
X66836Y42217D1*
X66731Y42150D1*
X66616Y42100D1*
X66495Y42068D1*
X66371Y42056D1*
X66246Y42063D1*
X66124Y42089D1*
X66008Y42133D1*
X65899Y42195D1*
X65802Y42273D1*
X65717Y42365D1*
X65648Y42469D1*
X65596Y42583D1*
X65561Y42703D1*
X65546Y42827D1*
X65550Y42951D1*
X65573Y43074D1*
X65615Y43192D1*
X65675Y43302D1*
X65750Y43401D1*
X65840Y43487D1*
X65943Y43559D1*
X66055Y43614D1*
X66174Y43651D1*
X66298Y43669D1*
X66423Y43668D1*
X66546Y43647D1*
X66664Y43608D1*
X66776Y43551D1*
X66877Y43478D1*
X66965Y43390D1*
X67039Y43289D1*
X67096Y43178D1*
X67136Y43060D1*
X67160Y42863D1*
X67151Y42739D1*
X72466Y38849D2*
X72437Y38727D1*
X72390Y38612D1*
X72325Y38505D1*
X72245Y38409D1*
X72151Y38327D1*
X72046Y38260D1*
X71931Y38210D1*
X71810Y38179D1*
X71686Y38166D1*
X71561Y38173D1*
X71439Y38199D1*
X71323Y38244D1*
X71214Y38305D1*
X71117Y38383D1*
X71032Y38475D1*
X70963Y38579D1*
X70911Y38693D1*
X70876Y38813D1*
X70861Y38937D1*
X70865Y39062D1*
X70888Y39184D1*
X70930Y39302D1*
X70990Y39412D1*
X71065Y39511D1*
X71155Y39598D1*
X71258Y39669D1*
X71370Y39724D1*
X71489Y39761D1*
X71613Y39779D1*
X71738Y39778D1*
X71861Y39757D1*
X71979Y39718D1*
X72091Y39661D1*
X72192Y39588D1*
X72280Y39500D1*
X72354Y39399D1*
X72411Y39288D1*
X72451Y39170D1*
X72475Y38973D1*
X72466Y38849D1*
Y40833D2*
X72437Y40712D1*
X72390Y40596D1*
X72325Y40489D1*
X72245Y40393D1*
X72151Y40311D1*
X72046Y40244D1*
X71931Y40194D1*
X71810Y40163D1*
X71686Y40150D1*
X71561Y40157D1*
X71439Y40183D1*
X71323Y40228D1*
X71214Y40290D1*
X71117Y40368D1*
X71032Y40460D1*
X70963Y40564D1*
X70911Y40677D1*
X70876Y40797D1*
X70861Y40921D1*
X70865Y41046D1*
X70888Y41169D1*
X70930Y41286D1*
X70990Y41396D1*
X71065Y41495D1*
X71155Y41582D1*
X71258Y41653D1*
X71370Y41708D1*
X71489Y41745D1*
X71613Y41763D1*
X71738Y41762D1*
X71861Y41742D1*
X71979Y41703D1*
X72091Y41646D1*
X72192Y41572D1*
X72280Y41484D1*
X72354Y41383D1*
X72411Y41272D1*
X72451Y41154D1*
X72475Y40958D1*
X72466Y40833D1*
X75418Y38849D2*
X75390Y38727D1*
X75342Y38612D1*
X75278Y38505D1*
X75198Y38409D1*
X75104Y38327D1*
X74998Y38260D1*
X74884Y38210D1*
X74763Y38179D1*
X74639Y38166D1*
X74514Y38173D1*
X74392Y38199D1*
X74275Y38244D1*
X74167Y38305D1*
X74069Y38383D1*
X73985Y38475D1*
X73916Y38579D1*
X73863Y38693D1*
X73829Y38813D1*
X73814Y38937D1*
X73818Y39062D1*
X73841Y39184D1*
X73883Y39302D1*
X73942Y39412D1*
X74018Y39511D1*
X74108Y39598D1*
X74211Y39669D1*
X74323Y39724D1*
X74442Y39761D1*
X74566Y39779D1*
X74690Y39778D1*
X74814Y39757D1*
X74932Y39718D1*
X75043Y39661D1*
X75144Y39588D1*
X75233Y39500D1*
X75307Y39399D1*
X75364Y39288D1*
X75404Y39170D1*
X75428Y38973D1*
X75418Y38849D1*
X81338Y38644D2*
X81309Y38523D1*
X81262Y38407D1*
X81198Y38300D1*
X81118Y38204D1*
X81024Y38122D1*
X80918Y38055D1*
X80804Y38005D1*
X80683Y37974D1*
X80559Y37961D1*
X80434Y37968D1*
X80312Y37994D1*
X80195Y38039D1*
X80087Y38101D1*
X79989Y38179D1*
X79905Y38271D1*
X79836Y38375D1*
X79783Y38488D1*
X79749Y38608D1*
X79734Y38732D1*
X79738Y38857D1*
X79761Y38979D1*
X79803Y39097D1*
X79862Y39207D1*
X79938Y39306D1*
X80028Y39393D1*
X80130Y39464D1*
X80243Y39519D1*
X80362Y39556D1*
X80485Y39574D1*
X80610Y39573D1*
X80733Y39553D1*
X80852Y39513D1*
X80963Y39456D1*
X81064Y39383D1*
X81153Y39295D1*
X81226Y39194D1*
X81284Y39083D1*
X81324Y38965D1*
X81348Y38769D1*
X81338Y38644D1*
Y40628D2*
X81309Y40507D1*
X81262Y40391D1*
X81198Y40284D1*
X81118Y40188D1*
X81024Y40106D1*
X80918Y40039D1*
X80804Y39990D1*
X80683Y39958D1*
X80559Y39946D1*
X80434Y39952D1*
X80312Y39978D1*
X80195Y40023D1*
X80087Y40085D1*
X79989Y40163D1*
X79905Y40255D1*
X79836Y40359D1*
X79783Y40472D1*
X79749Y40592D1*
X79734Y40716D1*
X79738Y40841D1*
X79761Y40964D1*
X79803Y41081D1*
X79862Y41191D1*
X79938Y41291D1*
X80028Y41377D1*
X80130Y41448D1*
X80243Y41503D1*
X80362Y41540D1*
X80485Y41558D1*
X80610Y41557D1*
X80733Y41537D1*
X80852Y41498D1*
X80963Y41441D1*
X81064Y41367D1*
X81153Y41279D1*
X81226Y41178D1*
X81284Y41068D1*
X81324Y40949D1*
X81348Y40753D1*
X81338Y40628D1*
Y42613D2*
X81309Y42491D1*
X81262Y42375D1*
X81198Y42268D1*
X81118Y42173D1*
X81024Y42090D1*
X80918Y42024D1*
X80804Y41974D1*
X80683Y41942D1*
X80559Y41930D1*
X80434Y41937D1*
X80312Y41963D1*
X80195Y42007D1*
X80087Y42069D1*
X79989Y42147D1*
X79905Y42239D1*
X79836Y42343D1*
X79783Y42456D1*
X79749Y42577D1*
X79734Y42700D1*
X79738Y42825D1*
X79761Y42948D1*
X79803Y43066D1*
X79862Y43175D1*
X79938Y43275D1*
X80028Y43361D1*
X80130Y43433D1*
X80243Y43488D1*
X80362Y43525D1*
X80485Y43543D1*
X80610Y43542D1*
X80733Y43521D1*
X80852Y43482D1*
X80963Y43425D1*
X81064Y43352D1*
X81153Y43263D1*
X81226Y43163D1*
X81284Y43052D1*
X81324Y42933D1*
X81348Y42737D1*
X81338Y42613D1*
X84291Y38644D2*
X84262Y38523D1*
X84215Y38407D1*
X84151Y38300D1*
X84070Y38204D1*
X83977Y38122D1*
X83871Y38055D1*
X83756Y38005D1*
X83636Y37974D1*
X83511Y37961D1*
X83387Y37968D1*
X83265Y37994D1*
X83148Y38039D1*
X83039Y38101D1*
X82942Y38179D1*
X82858Y38271D1*
X82788Y38375D1*
X82736Y38488D1*
X82702Y38608D1*
X82686Y38732D1*
X82690Y38857D1*
X82714Y38979D1*
X82756Y39097D1*
X82815Y39207D1*
X82891Y39306D1*
X82981Y39393D1*
X83083Y39464D1*
X83195Y39519D1*
X83315Y39556D1*
X83438Y39574D1*
X83563Y39573D1*
X83686Y39553D1*
X83805Y39513D1*
X83916Y39456D1*
X84017Y39383D1*
X84105Y39295D1*
X84179Y39194D1*
X84237Y39083D1*
X84276Y38965D1*
X84301Y38769D1*
X84291Y38644D1*
Y40628D2*
X84262Y40507D1*
X84215Y40391D1*
X84151Y40284D1*
X84070Y40188D1*
X83977Y40106D1*
X83871Y40039D1*
X83756Y39990D1*
X83636Y39958D1*
X83511Y39946D1*
X83387Y39952D1*
X83265Y39978D1*
X83148Y40023D1*
X83039Y40085D1*
X82942Y40163D1*
X82858Y40255D1*
X82788Y40359D1*
X82736Y40472D1*
X82702Y40592D1*
X82686Y40716D1*
X82690Y40841D1*
X82714Y40964D1*
X82756Y41081D1*
X82815Y41191D1*
X82891Y41291D1*
X82981Y41377D1*
X83083Y41448D1*
X83195Y41503D1*
X83315Y41540D1*
X83438Y41558D1*
X83563Y41557D1*
X83686Y41537D1*
X83805Y41498D1*
X83916Y41441D1*
X84017Y41367D1*
X84105Y41279D1*
X84179Y41178D1*
X84237Y41068D1*
X84276Y40949D1*
X84301Y40753D1*
X84291Y40628D1*
Y42613D2*
X84262Y42491D1*
X84215Y42375D1*
X84151Y42268D1*
X84070Y42173D1*
X83977Y42090D1*
X83871Y42024D1*
X83756Y41974D1*
X83636Y41942D1*
X83511Y41930D1*
X83387Y41937D1*
X83265Y41963D1*
X83148Y42007D1*
X83039Y42069D1*
X82942Y42147D1*
X82858Y42239D1*
X82788Y42343D1*
X82736Y42456D1*
X82702Y42577D1*
X82686Y42700D1*
X82690Y42825D1*
X82714Y42948D1*
X82756Y43066D1*
X82815Y43175D1*
X82891Y43275D1*
X82981Y43361D1*
X83083Y43433D1*
X83195Y43488D1*
X83315Y43525D1*
X83438Y43543D1*
X83563Y43542D1*
X83686Y43521D1*
X83805Y43482D1*
X83916Y43425D1*
X84017Y43352D1*
X84105Y43263D1*
X84179Y43163D1*
X84237Y43052D1*
X84276Y42933D1*
X84301Y42737D1*
X84291Y42613D1*
X13018Y47211D2*
X12997Y47088D1*
X12963Y46968D1*
X12915Y46852D1*
X12855Y46742D1*
X12784Y46640D1*
X12701Y46547D1*
X12608Y46463D1*
X12507Y46390D1*
X12398Y46329D1*
X12283Y46280D1*
X12163Y46244D1*
X12040Y46222D1*
X11916Y46213D1*
X11791Y46219D1*
X11667Y46238D1*
X11547Y46271D1*
X11431Y46317D1*
X11321Y46376D1*
X11217Y46447D1*
X11123Y46528D1*
X11038Y46620D1*
X10964Y46720D1*
X10901Y46829D1*
X10851Y46943D1*
X10814Y47062D1*
X10790Y47185D1*
X10781Y47310D1*
X10785Y47434D1*
X10802Y47558D1*
X10834Y47679D1*
X10879Y47796D1*
X10936Y47907D1*
X11006Y48010D1*
X11086Y48106D1*
X11177Y48192D1*
X11276Y48267D1*
X11384Y48331D1*
X11498Y48383D1*
X11617Y48421D1*
X11739Y48446D1*
X11863Y48457D1*
X11988Y48455D1*
X12112Y48438D1*
X12233Y48408D1*
X12351Y48365D1*
X12462Y48309D1*
X12567Y48240D1*
X12663Y48161D1*
X12750Y48071D1*
X12827Y47973D1*
X12892Y47866D1*
X12945Y47753D1*
X12985Y47634D1*
X13011Y47512D1*
X13025Y47336D1*
X13018Y47211D1*
X16266D2*
X16245Y47088D1*
X16211Y46968D1*
X16163Y46852D1*
X16103Y46742D1*
X16032Y46640D1*
X15949Y46547D1*
X15856Y46463D1*
X15755Y46390D1*
X15646Y46329D1*
X15531Y46280D1*
X15411Y46244D1*
X15288Y46222D1*
X15164Y46213D1*
X15039Y46219D1*
X14915Y46238D1*
X14795Y46271D1*
X14679Y46317D1*
X14569Y46376D1*
X14466Y46447D1*
X14371Y46528D1*
X14286Y46620D1*
X14212Y46720D1*
X14149Y46829D1*
X14099Y46943D1*
X14062Y47062D1*
X14038Y47185D1*
X14029Y47310D1*
X14033Y47434D1*
X14050Y47558D1*
X14082Y47679D1*
X14127Y47796D1*
X14184Y47907D1*
X14254Y48010D1*
X14334Y48106D1*
X14425Y48192D1*
X14525Y48267D1*
X14632Y48331D1*
X14746Y48383D1*
X14865Y48421D1*
X14987Y48446D1*
X15111Y48457D1*
X15236Y48455D1*
X15360Y48438D1*
X15481Y48408D1*
X15599Y48365D1*
X15710Y48309D1*
X15815Y48240D1*
X15911Y48161D1*
X15998Y48071D1*
X16075Y47973D1*
X16140Y47866D1*
X16193Y47753D1*
X16233Y47634D1*
X16259Y47512D1*
X16273Y47336D1*
X16266Y47211D1*
X19514D2*
X19493Y47088D1*
X19459Y46968D1*
X19412Y46852D1*
X19352Y46742D1*
X19280Y46640D1*
X19197Y46547D1*
X19104Y46463D1*
X19003Y46390D1*
X18894Y46329D1*
X18779Y46280D1*
X18659Y46244D1*
X18536Y46222D1*
X18412Y46213D1*
X18287Y46219D1*
X18163Y46238D1*
X18043Y46271D1*
X17927Y46317D1*
X17817Y46376D1*
X17714Y46447D1*
X17619Y46528D1*
X17534Y46620D1*
X17460Y46720D1*
X17397Y46829D1*
X17347Y46943D1*
X17310Y47062D1*
X17286Y47185D1*
X17277Y47310D1*
X17281Y47434D1*
X17299Y47558D1*
X17330Y47679D1*
X17375Y47796D1*
X17432Y47907D1*
X17502Y48010D1*
X17582Y48106D1*
X17673Y48192D1*
X17773Y48267D1*
X17880Y48331D1*
X17994Y48383D1*
X18113Y48421D1*
X18235Y48446D1*
X18359Y48457D1*
X18484Y48455D1*
X18608Y48438D1*
X18729Y48408D1*
X18847Y48365D1*
X18958Y48309D1*
X19063Y48240D1*
X19159Y48161D1*
X19246Y48071D1*
X19323Y47973D1*
X19388Y47866D1*
X19441Y47753D1*
X19481Y47634D1*
X19507Y47512D1*
X19521Y47336D1*
X19514Y47211D1*
X24396D2*
X24375Y47088D1*
X24341Y46968D1*
X24293Y46852D1*
X24233Y46742D1*
X24162Y46640D1*
X24079Y46547D1*
X23986Y46463D1*
X23885Y46390D1*
X23776Y46329D1*
X23661Y46280D1*
X23541Y46244D1*
X23418Y46222D1*
X23294Y46213D1*
X23169Y46219D1*
X23045Y46238D1*
X22925Y46271D1*
X22809Y46317D1*
X22698Y46376D1*
X22595Y46447D1*
X22501Y46528D1*
X22416Y46620D1*
X22342Y46720D1*
X22279Y46829D1*
X22229Y46943D1*
X22192Y47062D1*
X22168Y47185D1*
X22158Y47310D1*
X22163Y47434D1*
X22180Y47558D1*
X22212Y47679D1*
X22257Y47796D1*
X22314Y47907D1*
X22384Y48010D1*
X22464Y48106D1*
X22555Y48192D1*
X22654Y48267D1*
X22762Y48331D1*
X22876Y48383D1*
X22995Y48421D1*
X23117Y48446D1*
X23241Y48457D1*
X23366Y48455D1*
X23490Y48438D1*
X23611Y48408D1*
X23729Y48365D1*
X23840Y48309D1*
X23945Y48240D1*
X24041Y48161D1*
X24128Y48071D1*
X24205Y47973D1*
X24270Y47866D1*
X24323Y47753D1*
X24362Y47634D1*
X24389Y47512D1*
X24403Y47336D1*
X24396Y47211D1*
X27644D2*
X27623Y47088D1*
X27589Y46968D1*
X27541Y46852D1*
X27481Y46742D1*
X27410Y46640D1*
X27327Y46547D1*
X27234Y46463D1*
X27133Y46390D1*
X27024Y46329D1*
X26909Y46280D1*
X26789Y46244D1*
X26666Y46222D1*
X26542Y46213D1*
X26417Y46219D1*
X26293Y46238D1*
X26173Y46271D1*
X26057Y46317D1*
X25947Y46376D1*
X25843Y46447D1*
X25749Y46528D1*
X25664Y46620D1*
X25590Y46720D1*
X25527Y46829D1*
X25477Y46943D1*
X25440Y47062D1*
X25416Y47185D1*
X25406Y47310D1*
X25411Y47434D1*
X25428Y47558D1*
X25460Y47679D1*
X25505Y47796D1*
X25562Y47907D1*
X25632Y48010D1*
X25712Y48106D1*
X25803Y48192D1*
X25902Y48267D1*
X26010Y48331D1*
X26124Y48383D1*
X26243Y48421D1*
X26365Y48446D1*
X26489Y48457D1*
X26614Y48455D1*
X26738Y48438D1*
X26859Y48408D1*
X26977Y48365D1*
X27088Y48309D1*
X27193Y48240D1*
X27289Y48161D1*
X27376Y48071D1*
X27453Y47973D1*
X27518Y47866D1*
X27571Y47753D1*
X27611Y47634D1*
X27637Y47512D1*
X27651Y47336D1*
X27644Y47211D1*
X35774Y47250D2*
X35753Y47127D1*
X35719Y47007D1*
X35671Y46891D1*
X35611Y46782D1*
X35540Y46680D1*
X35457Y46586D1*
X35364Y46502D1*
X35263Y46429D1*
X35154Y46368D1*
X35039Y46319D1*
X34919Y46283D1*
X34796Y46261D1*
X34672Y46253D1*
X34547Y46258D1*
X34423Y46278D1*
X34303Y46310D1*
X34187Y46357D1*
X34076Y46415D1*
X33973Y46486D1*
X33879Y46568D1*
X33794Y46659D1*
X33720Y46760D1*
X33657Y46868D1*
X33607Y46982D1*
X33570Y47102D1*
X33546Y47224D1*
X33536Y47349D1*
X33540Y47474D1*
X33558Y47597D1*
X33590Y47718D1*
X33635Y47835D1*
X33692Y47946D1*
X33762Y48050D1*
X33842Y48145D1*
X33933Y48231D1*
X34032Y48307D1*
X34140Y48370D1*
X34254Y48422D1*
X34372Y48460D1*
X34495Y48485D1*
X34619Y48497D1*
X34744Y48494D1*
X34868Y48478D1*
X34989Y48448D1*
X35106Y48404D1*
X35218Y48348D1*
X35323Y48280D1*
X35419Y48200D1*
X35506Y48111D1*
X35583Y48012D1*
X35648Y47905D1*
X35701Y47792D1*
X35740Y47674D1*
X35767Y47552D1*
X35781Y47375D1*
X35774Y47250D1*
X39022D2*
X39001Y47127D1*
X38967Y47007D1*
X38919Y46891D1*
X38859Y46782D1*
X38788Y46680D1*
X38705Y46586D1*
X38612Y46502D1*
X38511Y46429D1*
X38402Y46368D1*
X38287Y46319D1*
X38167Y46283D1*
X38044Y46261D1*
X37920Y46253D1*
X37795Y46258D1*
X37671Y46278D1*
X37551Y46310D1*
X37435Y46357D1*
X37324Y46415D1*
X37221Y46486D1*
X37127Y46568D1*
X37042Y46659D1*
X36968Y46760D1*
X36905Y46868D1*
X36855Y46982D1*
X36818Y47102D1*
X36794Y47224D1*
X36784Y47349D1*
X36788Y47474D1*
X36806Y47597D1*
X36838Y47718D1*
X36883Y47835D1*
X36940Y47946D1*
X37010Y48050D1*
X37090Y48145D1*
X37181Y48231D1*
X37280Y48307D1*
X37388Y48370D1*
X37502Y48422D1*
X37621Y48460D1*
X37743Y48485D1*
X37867Y48497D1*
X37992Y48494D1*
X38116Y48478D1*
X38237Y48448D1*
X38355Y48404D1*
X38466Y48348D1*
X38571Y48280D1*
X38667Y48200D1*
X38754Y48111D1*
X38831Y48012D1*
X38896Y47905D1*
X38949Y47792D1*
X38988Y47674D1*
X39015Y47552D1*
X39029Y47375D1*
X39022Y47250D1*
X55183Y47211D2*
X55163Y47088D1*
X55128Y46968D1*
X55081Y46852D1*
X55021Y46742D1*
X54949Y46640D1*
X54866Y46547D1*
X54774Y46463D1*
X54672Y46390D1*
X54563Y46329D1*
X54448Y46280D1*
X54329Y46244D1*
X54206Y46222D1*
X54081Y46213D1*
X53956Y46219D1*
X53833Y46238D1*
X53712Y46271D1*
X53596Y46317D1*
X53486Y46376D1*
X53383Y46447D1*
X53288Y46528D1*
X53203Y46620D1*
X53129Y46720D1*
X53067Y46829D1*
X53016Y46943D1*
X52979Y47062D1*
X52956Y47185D1*
X52946Y47310D1*
X52950Y47434D1*
X52968Y47558D1*
X52999Y47679D1*
X53044Y47796D1*
X53102Y47907D1*
X53171Y48010D1*
X53252Y48106D1*
X53342Y48192D1*
X53442Y48267D1*
X53549Y48331D1*
X53663Y48383D1*
X53782Y48421D1*
X53904Y48446D1*
X54029Y48457D1*
X54154Y48455D1*
X54278Y48438D1*
X54399Y48408D1*
X54516Y48365D1*
X54628Y48309D1*
X54732Y48240D1*
X54829Y48161D1*
X54916Y48071D1*
X54992Y47973D1*
X55057Y47866D1*
X55110Y47753D1*
X55150Y47634D1*
X55176Y47512D1*
X55190Y47336D1*
X55183Y47211D1*
X61679D2*
X61659Y47088D1*
X61624Y46968D1*
X61577Y46852D1*
X61517Y46742D1*
X61445Y46640D1*
X61362Y46547D1*
X61270Y46463D1*
X61168Y46390D1*
X61059Y46329D1*
X60944Y46280D1*
X60825Y46244D1*
X60702Y46222D1*
X60577Y46213D1*
X60452Y46219D1*
X60329Y46238D1*
X60208Y46271D1*
X60092Y46317D1*
X59982Y46376D1*
X59879Y46447D1*
X59784Y46528D1*
X59699Y46620D1*
X59625Y46720D1*
X59563Y46829D1*
X59513Y46943D1*
X59475Y47062D1*
X59452Y47185D1*
X59442Y47310D1*
X59446Y47434D1*
X59464Y47558D1*
X59495Y47679D1*
X59540Y47796D1*
X59598Y47907D1*
X59667Y48010D1*
X59748Y48106D1*
X59838Y48192D1*
X59938Y48267D1*
X60045Y48331D1*
X60159Y48383D1*
X60278Y48421D1*
X60400Y48446D1*
X60525Y48457D1*
X60650Y48455D1*
X60774Y48438D1*
X60895Y48408D1*
X61012Y48365D1*
X61124Y48309D1*
X61228Y48240D1*
X61325Y48161D1*
X61412Y48071D1*
X61488Y47973D1*
X61553Y47866D1*
X61606Y47753D1*
X61646Y47634D1*
X61672Y47512D1*
X61686Y47336D1*
X61679Y47211D1*
X66679D2*
X66659Y47088D1*
X66624Y46968D1*
X66577Y46852D1*
X66517Y46742D1*
X66445Y46640D1*
X66362Y46547D1*
X66270Y46463D1*
X66168Y46390D1*
X66059Y46329D1*
X65944Y46280D1*
X65825Y46244D1*
X65702Y46222D1*
X65577Y46213D1*
X65452Y46219D1*
X65329Y46238D1*
X65208Y46271D1*
X65092Y46317D1*
X64982Y46376D1*
X64879Y46447D1*
X64784Y46528D1*
X64699Y46620D1*
X64625Y46720D1*
X64563Y46829D1*
X64513Y46943D1*
X64475Y47062D1*
X64452Y47185D1*
X64442Y47310D1*
X64446Y47434D1*
X64464Y47558D1*
X64495Y47679D1*
X64540Y47796D1*
X64598Y47907D1*
X64667Y48010D1*
X64748Y48106D1*
X64838Y48192D1*
X64938Y48267D1*
X65045Y48331D1*
X65159Y48383D1*
X65278Y48421D1*
X65400Y48446D1*
X65525Y48457D1*
X65650Y48455D1*
X65774Y48438D1*
X65895Y48408D1*
X66012Y48365D1*
X66124Y48309D1*
X66228Y48240D1*
X66325Y48161D1*
X66412Y48071D1*
X66488Y47973D1*
X66553Y47866D1*
X66606Y47753D1*
X66646Y47634D1*
X66672Y47512D1*
X66686Y47336D1*
X66679Y47211D1*
X69927D2*
X69907Y47088D1*
X69872Y46968D1*
X69825Y46852D1*
X69765Y46742D1*
X69693Y46640D1*
X69610Y46547D1*
X69518Y46463D1*
X69416Y46390D1*
X69307Y46329D1*
X69192Y46280D1*
X69073Y46244D1*
X68950Y46222D1*
X68825Y46213D1*
X68700Y46219D1*
X68577Y46238D1*
X68456Y46271D1*
X68340Y46317D1*
X68230Y46376D1*
X68127Y46447D1*
X68032Y46528D1*
X67947Y46620D1*
X67873Y46720D1*
X67811Y46829D1*
X67761Y46943D1*
X67723Y47062D1*
X67700Y47185D1*
X67690Y47310D1*
X67694Y47434D1*
X67712Y47558D1*
X67743Y47679D1*
X67788Y47796D1*
X67846Y47907D1*
X67915Y48010D1*
X67996Y48106D1*
X68086Y48192D1*
X68186Y48267D1*
X68293Y48331D1*
X68407Y48383D1*
X68526Y48421D1*
X68648Y48446D1*
X68773Y48457D1*
X68898Y48455D1*
X69022Y48438D1*
X69143Y48408D1*
X69260Y48365D1*
X69372Y48309D1*
X69476Y48240D1*
X69573Y48161D1*
X69660Y48071D1*
X69736Y47973D1*
X69801Y47866D1*
X69854Y47753D1*
X69894Y47634D1*
X69920Y47512D1*
X69934Y47336D1*
X69927Y47211D1*
X78097D2*
X78076Y47088D1*
X78042Y46968D1*
X77994Y46852D1*
X77934Y46742D1*
X77862Y46640D1*
X77780Y46547D1*
X77687Y46463D1*
X77586Y46390D1*
X77477Y46329D1*
X77362Y46280D1*
X77242Y46244D1*
X77119Y46222D1*
X76994Y46213D1*
X76870Y46219D1*
X76746Y46238D1*
X76626Y46271D1*
X76510Y46317D1*
X76399Y46376D1*
X76296Y46447D1*
X76202Y46528D1*
X76117Y46620D1*
X76043Y46720D1*
X75980Y46829D1*
X75930Y46943D1*
X75893Y47062D1*
X75869Y47185D1*
X75859Y47310D1*
X75863Y47434D1*
X75881Y47558D1*
X75913Y47679D1*
X75957Y47796D1*
X76015Y47907D1*
X76084Y48010D1*
X76165Y48106D1*
X76256Y48192D1*
X76355Y48267D1*
X76463Y48331D1*
X76576Y48383D1*
X76695Y48421D1*
X76818Y48446D1*
X76942Y48457D1*
X77067Y48455D1*
X77191Y48438D1*
X77312Y48408D1*
X77429Y48365D1*
X77541Y48309D1*
X77646Y48240D1*
X77742Y48161D1*
X77829Y48071D1*
X77906Y47973D1*
X77971Y47866D1*
X78023Y47753D1*
X78063Y47634D1*
X78090Y47512D1*
X78104Y47336D1*
X78097Y47211D1*
X84593D2*
X84572Y47088D1*
X84538Y46968D1*
X84490Y46852D1*
X84430Y46742D1*
X84358Y46640D1*
X84276Y46547D1*
X84183Y46463D1*
X84082Y46390D1*
X83973Y46329D1*
X83858Y46280D1*
X83738Y46244D1*
X83615Y46222D1*
X83490Y46213D1*
X83366Y46219D1*
X83242Y46238D1*
X83122Y46271D1*
X83006Y46317D1*
X82895Y46376D1*
X82792Y46447D1*
X82698Y46528D1*
X82613Y46620D1*
X82539Y46720D1*
X82476Y46829D1*
X82426Y46943D1*
X82389Y47062D1*
X82365Y47185D1*
X82355Y47310D1*
X82359Y47434D1*
X82377Y47558D1*
X82409Y47679D1*
X82454Y47796D1*
X82511Y47907D1*
X82580Y48010D1*
X82661Y48106D1*
X82752Y48192D1*
X82851Y48267D1*
X82959Y48331D1*
X83073Y48383D1*
X83191Y48421D1*
X83314Y48446D1*
X83438Y48457D1*
X83563Y48455D1*
X83687Y48438D1*
X83808Y48408D1*
X83925Y48365D1*
X84037Y48309D1*
X84142Y48240D1*
X84238Y48161D1*
X84325Y48071D1*
X84402Y47973D1*
X84467Y47866D1*
X84519Y47753D1*
X84559Y47634D1*
X84586Y47512D1*
X84600Y47336D1*
X84593Y47211D1*
X88490Y46030D2*
X88470Y45907D1*
X88435Y45787D1*
X88388Y45671D1*
X88328Y45561D1*
X88256Y45459D1*
X88173Y45366D1*
X88081Y45282D1*
X87979Y45209D1*
X87870Y45147D1*
X87755Y45099D1*
X87636Y45063D1*
X87513Y45041D1*
X87388Y45032D1*
X87263Y45038D1*
X87140Y45057D1*
X87019Y45090D1*
X86903Y45136D1*
X86793Y45195D1*
X86690Y45266D1*
X86595Y45347D1*
X86510Y45439D1*
X86436Y45539D1*
X86374Y45647D1*
X86324Y45762D1*
X86286Y45881D1*
X86263Y46004D1*
X86253Y46128D1*
X86257Y46253D1*
X86275Y46377D1*
X86306Y46498D1*
X86351Y46614D1*
X86409Y46725D1*
X86478Y46829D1*
X86559Y46925D1*
X86649Y47011D1*
X86749Y47086D1*
X86856Y47150D1*
X86970Y47201D1*
X87089Y47240D1*
X87211Y47265D1*
X87336Y47276D1*
X87461Y47274D1*
X87585Y47257D1*
X87706Y47227D1*
X87823Y47184D1*
X87935Y47128D1*
X88039Y47059D1*
X88136Y46980D1*
X88223Y46890D1*
X88299Y46791D1*
X88364Y46685D1*
X88417Y46572D1*
X88457Y46453D1*
X88483Y46331D1*
X88497Y46155D1*
X88490Y46030D1*
Y42782D2*
X88470Y42659D1*
X88435Y42538D1*
X88388Y42423D1*
X88328Y42313D1*
X88256Y42211D1*
X88173Y42118D1*
X88081Y42034D1*
X87979Y41961D1*
X87870Y41899D1*
X87755Y41851D1*
X87636Y41815D1*
X87513Y41793D1*
X87388Y41784D1*
X87263Y41790D1*
X87140Y41809D1*
X87019Y41842D1*
X86903Y41888D1*
X86793Y41947D1*
X86690Y42017D1*
X86595Y42099D1*
X86510Y42191D1*
X86436Y42291D1*
X86374Y42399D1*
X86324Y42514D1*
X86286Y42633D1*
X86263Y42756D1*
X86253Y42880D1*
X86257Y43005D1*
X86275Y43129D1*
X86306Y43250D1*
X86351Y43366D1*
X86409Y43477D1*
X86478Y43581D1*
X86559Y43677D1*
X86649Y43763D1*
X86749Y43838D1*
X86856Y43902D1*
X86970Y43953D1*
X87089Y43992D1*
X87211Y44017D1*
X87336Y44028D1*
X87461Y44026D1*
X87585Y44009D1*
X87706Y43979D1*
X87823Y43936D1*
X87935Y43880D1*
X88039Y43811D1*
X88136Y43732D1*
X88223Y43642D1*
X88299Y43543D1*
X88364Y43437D1*
X88417Y43324D1*
X88457Y43205D1*
X88483Y43083D1*
X88497Y42907D1*
X88490Y42782D1*
Y39534D2*
X88470Y39411D1*
X88435Y39290D1*
X88388Y39175D1*
X88328Y39065D1*
X88256Y38963D1*
X88173Y38869D1*
X88081Y38786D1*
X87979Y38713D1*
X87870Y38651D1*
X87755Y38603D1*
X87636Y38567D1*
X87513Y38545D1*
X87388Y38536D1*
X87263Y38542D1*
X87140Y38561D1*
X87019Y38594D1*
X86903Y38640D1*
X86793Y38699D1*
X86690Y38769D1*
X86595Y38851D1*
X86510Y38943D1*
X86436Y39043D1*
X86374Y39151D1*
X86324Y39266D1*
X86286Y39385D1*
X86263Y39508D1*
X86253Y39632D1*
X86257Y39757D1*
X86275Y39881D1*
X86306Y40002D1*
X86351Y40118D1*
X86409Y40229D1*
X86478Y40333D1*
X86559Y40429D1*
X86649Y40515D1*
X86749Y40590D1*
X86856Y40654D1*
X86970Y40705D1*
X87089Y40744D1*
X87211Y40769D1*
X87336Y40780D1*
X87461Y40778D1*
X87585Y40761D1*
X87706Y40731D1*
X87823Y40688D1*
X87935Y40631D1*
X88039Y40563D1*
X88136Y40484D1*
X88223Y40394D1*
X88299Y40295D1*
X88364Y40189D1*
X88417Y40076D1*
X88457Y39957D1*
X88483Y39835D1*
X88497Y39659D1*
X88490Y39534D1*
X36988Y40765D2*
X37492D1*
X38307Y41577D1*
Y45650D1*
X38314Y45775D1*
X38335Y45898D1*
X38369Y46018D1*
X38417Y46134D1*
X38477Y46243D1*
X38548Y46345D1*
X38724Y46532D1*
X40361Y48169D1*
X40454Y48252D1*
X40556Y48324D1*
X40665Y48385D1*
X40780Y48433D1*
X40900Y48468D1*
X41023Y48490D1*
X41148Y48497D1*
X41273Y48491D1*
X41396Y48471D1*
X41516Y48438D1*
X41632Y48391D1*
X41742Y48331D1*
X41845Y48260D1*
X41939Y48178D1*
X42023Y48086D1*
X42097Y47985D1*
X42159Y47876D1*
X42208Y47762D1*
X42245Y47642D1*
X42268Y47519D1*
X42277Y47395D1*
X42272Y47270D1*
X42253Y47146D1*
X42221Y47026D1*
X42176Y46909D1*
X42118Y46799D1*
X42048Y46695D1*
X41860Y46493D1*
X40553Y45187D1*
X40552Y41112D1*
X40545Y40988D1*
X40524Y40864D1*
X40490Y40744D1*
X40442Y40629D1*
X40382Y40519D1*
X40310Y40417D1*
X40135Y40230D1*
X38754Y38849D1*
X38660Y38766D1*
X38559Y38693D1*
X38449Y38633D1*
X38334Y38585D1*
X38214Y38550D1*
X38091Y38528D1*
X37835Y38520D1*
X36738Y38527D1*
X36615Y38548D1*
X36495Y38582D1*
X36380Y38630D1*
X36270Y38690D1*
X36168Y38762D1*
X36074Y38844D1*
X35990Y38937D1*
X35917Y39039D1*
X35856Y39147D1*
X35807Y39262D1*
X35772Y39382D1*
X35749Y39505D1*
X35741Y39630D1*
X35746Y39755D1*
X35766Y39878D1*
X35799Y39998D1*
X35845Y40115D1*
X35904Y40225D1*
X35974Y40328D1*
X36056Y40422D1*
X36147Y40507D1*
X36248Y40582D1*
X36356Y40644D1*
X36471Y40694D1*
X36590Y40731D1*
X36713Y40755D1*
X36988Y40765D1*
X58314Y37772D2*
X55487D1*
X55362Y37779D1*
X55239Y37800D1*
X55119Y37834D1*
X55003Y37882D1*
X54893Y37942D1*
X54791Y38014D1*
X54698Y38096D1*
X54614Y38189D1*
X54541Y38290D1*
X54479Y38399D1*
X54431Y38514D1*
X54395Y38634D1*
X54373Y38757D1*
X54364Y38882D1*
X54370Y39006D1*
X54389Y39130D1*
X54422Y39250D1*
X54468Y39367D1*
X54527Y39477D1*
X54598Y39580D1*
X54679Y39674D1*
X54768Y39757D1*
X53866Y39764D1*
X53743Y39784D1*
X53622Y39819D1*
X53507Y39866D1*
X53397Y39926D1*
X53295Y39998D1*
X53109Y40174D1*
X52641Y40651D1*
X52569Y40753D1*
X52508Y40862D1*
X52460Y40977D1*
X52425Y41097D1*
X52403Y41220D1*
X52396Y41476D1*
Y44832D1*
X52403Y44956D1*
X52423Y45080D1*
X52458Y45200D1*
X52505Y45315D1*
X52565Y45425D1*
X52637Y45527D1*
X52720Y45621D1*
X52812Y45705D1*
X52914Y45778D1*
X53023Y45839D1*
X53138Y45888D1*
X53257Y45923D1*
X53380Y45946D1*
X53643Y45954D1*
X54350D1*
X55609Y47216D1*
X56522Y48129D1*
X56615Y48213D1*
X56717Y48285D1*
X56826Y48346D1*
X56942Y48394D1*
X57062Y48429D1*
X57185Y48450D1*
X57309Y48458D1*
X57434Y48452D1*
X57558Y48432D1*
X57678Y48398D1*
X57794Y48351D1*
X57904Y48292D1*
X58006Y48221D1*
X58100Y48139D1*
X58185Y48046D1*
X58258Y47945D1*
X58320Y47837D1*
X58370Y47722D1*
X58406Y47603D1*
X58429Y47480D1*
X58438Y47355D1*
X58433Y47230D1*
X58415Y47107D1*
X58383Y46986D1*
X58337Y46870D1*
X58279Y46759D1*
X58209Y46656D1*
X58021Y46454D1*
X55603Y44035D1*
X55612Y43986D1*
X58439D1*
X58564Y43979D1*
X58687Y43958D1*
X58807Y43924D1*
X58923Y43876D1*
X59033Y43816D1*
X59135Y43744D1*
X59228Y43661D1*
X59312Y43569D1*
X59385Y43467D1*
X59447Y43359D1*
X59495Y43244D1*
X59531Y43124D1*
X59553Y43001D1*
X59562Y42876D1*
X59556Y42751D1*
X59537Y42628D1*
X59504Y42508D1*
X59458Y42391D1*
X59399Y42281D1*
X59328Y42178D1*
X59247Y42084D1*
X59155Y41999D1*
X59055Y41924D1*
X58946Y41862D1*
X58832Y41812D1*
X58713Y41775D1*
X58590Y41751D1*
X58314Y41741D1*
X56209D1*
X56359Y41585D1*
X56433Y41483D1*
X56494Y41374D1*
X56543Y41259D1*
X56578Y41140D1*
X56601Y41017D1*
X56609Y40892D1*
X56603Y40767D1*
X56584Y40644D1*
X56551Y40523D1*
X56505Y40407D1*
X56446Y40297D1*
X56376Y40194D1*
X56294Y40099D1*
X56205Y40017D1*
X58439D1*
X58564Y40010D1*
X58687Y39989D1*
X58807Y39955D1*
X58923Y39908D1*
X59033Y39848D1*
X59135Y39776D1*
X59228Y39693D1*
X59312Y39600D1*
X59385Y39499D1*
X59447Y39390D1*
X59495Y39275D1*
X59531Y39155D1*
X59553Y39032D1*
X59562Y38908D1*
X59556Y38783D1*
X59537Y38660D1*
X59504Y38539D1*
X59458Y38423D1*
X59399Y38313D1*
X59328Y38210D1*
X59247Y38115D1*
X59155Y38030D1*
X59055Y37956D1*
X58946Y37893D1*
X58832Y37843D1*
X58713Y37806D1*
X58590Y37782D1*
X58314Y37772D1*
X67075Y40017D2*
X67388D1*
X67939Y40572D1*
X68025Y40658D1*
Y44423D1*
X68032Y44548D1*
X68053Y44671D1*
X68087Y44791D1*
X68135Y44907D1*
X68195Y45017D1*
X68267Y45119D1*
X68442Y45305D1*
X71266Y48129D1*
X71360Y48213D1*
X71461Y48285D1*
X71571Y48346D1*
X71686Y48394D1*
X71806Y48429D1*
X71929Y48450D1*
X72054Y48458D1*
X72178Y48452D1*
X72302Y48432D1*
X72422Y48398D1*
X72538Y48351D1*
X72648Y48292D1*
X72750Y48221D1*
X72844Y48139D1*
X72929Y48046D1*
X73002Y47945D1*
X73064Y47837D1*
X73114Y47722D1*
X73150Y47603D1*
X73173Y47480D1*
X73182Y47355D1*
X73178Y47230D1*
X73159Y47107D1*
X73127Y46986D1*
X73081Y46870D1*
X73023Y46759D1*
X72953Y46656D1*
X72765Y46454D1*
X70271Y43959D1*
X70270Y40194D1*
X70263Y40069D1*
X70242Y39946D1*
X70208Y39826D1*
X70161Y39710D1*
X70101Y39600D1*
X70029Y39498D1*
X69853Y39312D1*
X68643Y38101D1*
X68549Y38018D1*
X68448Y37945D1*
X68338Y37885D1*
X68223Y37837D1*
X68103Y37802D1*
X67980Y37780D1*
X67724Y37772D1*
X66353D1*
X66228Y37779D1*
X66105Y37800D1*
X65985Y37834D1*
X65869Y37882D1*
X65760Y37942D1*
X65657Y38014D1*
X65564Y38096D1*
X65480Y38189D1*
X65407Y38290D1*
X65346Y38399D1*
X65297Y38514D1*
X65261Y38634D1*
X65239Y38757D1*
X65230Y38882D1*
X65236Y39006D1*
X65255Y39130D1*
X65288Y39250D1*
X65334Y39367D1*
X65393Y39477D1*
X65464Y39580D1*
X65545Y39674D1*
X65634Y39757D1*
X63400D1*
X63275Y39764D1*
X63152Y39784D1*
X63032Y39819D1*
X62916Y39866D1*
X62807Y39926D1*
X62705Y39998D1*
X62611Y40081D1*
X62527Y40173D1*
X62454Y40275D1*
X62393Y40384D1*
X62344Y40499D1*
X62308Y40618D1*
X62286Y40741D1*
X62278Y40866D1*
X62283Y40991D1*
X62303Y41114D1*
X62335Y41235D1*
X62382Y41351D1*
X62440Y41461D1*
X62511Y41564D1*
X62593Y41659D1*
X62684Y41744D1*
X62785Y41818D1*
X62893Y41880D1*
X63007Y41930D1*
X63127Y41968D1*
X63249Y41991D1*
X63525Y42001D1*
X66353D1*
X66478Y41994D1*
X66601Y41974D1*
X66721Y41939D1*
X66836Y41892D1*
X66946Y41832D1*
X67048Y41760D1*
X67142Y41677D1*
X67226Y41585D1*
X67299Y41483D1*
X67360Y41374D1*
X67409Y41259D1*
X67444Y41140D1*
X67467Y41017D1*
X67475Y40892D1*
X67470Y40767D1*
X67450Y40644D1*
X67417Y40523D1*
X67371Y40407D1*
X67312Y40297D1*
X67242Y40194D1*
X67160Y40099D1*
X67071Y40017D1*
X75343Y42080D2*
X75686Y42085D1*
X78858Y45542D1*
X79058Y47048D1*
X79141Y47608D1*
X79178Y47727D1*
X79228Y47842D1*
X79290Y47950D1*
X79364Y48051D1*
X79449Y48142D1*
X79543Y48224D1*
X79646Y48295D1*
X79757Y48354D1*
X79873Y48400D1*
X79993Y48433D1*
X80117Y48452D1*
X80241Y48458D1*
X80366Y48450D1*
X80489Y48428D1*
X80609Y48392D1*
X80724Y48343D1*
X80833Y48282D1*
X80934Y48209D1*
X81027Y48125D1*
X81110Y48032D1*
X81182Y47930D1*
X81242Y47820D1*
X81289Y47705D1*
X81324Y47585D1*
X81345Y47461D1*
X81352Y47337D1*
X81325Y47062D1*
X81033Y44891D1*
X81009Y44768D1*
X80972Y44648D1*
X80922Y44534D1*
X80860Y44426D1*
X80748Y44281D1*
X77002Y40199D1*
X76913Y40112D1*
X76814Y40035D1*
X76708Y39970D1*
X76595Y39917D1*
X76476Y39876D1*
X76354Y39850D1*
X76175Y39835D1*
X74620D1*
X74496Y39842D1*
X74373Y39863D1*
X74252Y39897D1*
X74137Y39945D1*
X74027Y40005D1*
X73925Y40077D1*
X73831Y40159D1*
X73748Y40252D1*
X73675Y40353D1*
X73613Y40462D1*
X73565Y40577D1*
X73529Y40697D1*
X73507Y40820D1*
X73498Y40945D1*
X73504Y41069D1*
X73523Y41193D1*
X73556Y41313D1*
X73602Y41430D1*
X73661Y41540D1*
X73731Y41643D1*
X73813Y41737D1*
X73902Y41820D1*
X71668D1*
X71543Y41827D1*
X71420Y41847D1*
X71300Y41882D1*
X71184Y41929D1*
X71075Y41989D1*
X70972Y42061D1*
X70879Y42144D1*
X70795Y42236D1*
X70722Y42338D1*
X70661Y42447D1*
X70612Y42562D1*
X70576Y42681D1*
X70554Y42804D1*
X70545Y42929D1*
X70551Y43054D1*
X70570Y43177D1*
X70603Y43298D1*
X70649Y43414D1*
X70708Y43524D1*
X70779Y43627D1*
X70860Y43722D1*
X70952Y43807D1*
X71053Y43881D1*
X71161Y43943D1*
X71275Y43993D1*
X71394Y44031D1*
X71517Y44054D1*
X71793Y44064D1*
X74620D1*
X74745Y44057D1*
X74868Y44037D1*
X74989Y44002D1*
X75104Y43955D1*
X75214Y43895D1*
X75316Y43823D1*
X75410Y43740D1*
X75493Y43648D1*
X75566Y43546D1*
X75628Y43437D1*
X75676Y43322D1*
X75712Y43203D1*
X75734Y43080D1*
X75743Y42955D1*
X75737Y42830D1*
X75718Y42707D1*
X75685Y42586D1*
X75639Y42470D1*
X75580Y42360D1*
X75510Y42257D1*
X75428Y42162D1*
X75339Y42080D1*
X46257Y19298D2*
D24*
Y18708D1*
X41972Y9540D2*
Y8910D1*
X44287Y23138D2*
Y21878D1*
X43696Y22508D2*
X44287D1*
X34639Y21996D2*
X35171D1*
X29503Y21961D2*
Y21459D1*
Y21961D2*
X30035D1*
X17508Y22052D2*
Y21551D1*
X10498Y21902D2*
Y21401D1*
Y21902D2*
X11029D1*
X30831Y11776D2*
Y11274D1*
X30299D2*
X30831D1*
X25517Y11438D2*
Y10936D1*
X24985D2*
X25517D1*
X19790Y11576D2*
Y11074D1*
X19258D2*
X19790D1*
X14000Y11589D2*
Y11088D1*
X13468D2*
X14000D1*
X8149Y11511D2*
Y11009D1*
X7618D2*
X8149D1*
X30354Y28819D2*
Y28190D1*
Y28819D2*
X30945D1*
X30348Y26458D2*
Y25828D1*
Y26458D2*
X30939D1*
X52330Y34306D2*
Y33676D1*
Y34306D2*
X52920D1*
X52345Y33357D2*
Y32097D1*
X52322Y31818D2*
Y30558D1*
Y30365D2*
Y29105D1*
X52294Y28826D2*
Y27566D1*
Y28196D2*
X52884D1*
X52275Y27302D2*
Y26042D1*
Y26672D2*
X52866D1*
X52298Y25803D2*
Y24544D1*
Y25174D2*
X52888D1*
X52289Y24285D2*
Y23026D1*
Y23655D2*
X52880D1*
X43054Y43357D2*
Y41113D1*
X41932Y42235D2*
X44175D1*
X40919Y34506D2*
Y33965D1*
X41381D1*
X43562Y34453D2*
Y33912D1*
X40773Y30775D2*
Y30234D1*
Y30775D2*
X41236D1*
X43504Y31500D2*
Y30418D1*
Y30959D2*
X43966D1*
X40779Y27951D2*
X41241D1*
X43472Y28081D2*
X43934D1*
X40734Y25998D2*
Y24916D1*
Y25457D2*
X41197D1*
X43437Y25437D2*
X43899D1*
X32032Y24149D2*
Y22889D1*
Y23519D2*
X32622D1*
X20554Y24170D2*
Y22911D1*
Y23540D2*
X21144D1*
X8457Y24259D2*
Y22999D1*
Y23629D2*
X9048D1*
X27524Y12380D2*
Y11120D1*
X26933Y11750D2*
X27524D1*
X15929Y12380D2*
Y11120D1*
X15338Y11750D2*
X15929D1*
X56148Y12485D2*
Y11894D1*
X55519Y12485D2*
X56778D1*
X26018Y24179D2*
Y22919D1*
Y23549D2*
X26608D1*
X14954Y24268D2*
Y23009D1*
Y23638D2*
X15545D1*
X33112Y12380D2*
Y11120D1*
X32521Y11750D2*
X33112D1*
X21608Y12380D2*
Y11120D1*
X21017Y11750D2*
X21608D1*
X10011Y12380D2*
Y11120D1*
X9421Y11750D2*
X10011D1*
X7660Y28014D2*
Y27335D1*
X6981Y28014D2*
X8339D1*
X9541D2*
X10899D1*
X9678Y28900D2*
X11036D1*
X6844D2*
X8202D1*
X15160Y28034D2*
Y27355D1*
X14481Y28034D2*
X15839D1*
X17720D2*
Y27355D1*
X17041Y28034D2*
X18399D1*
X17178Y28920D2*
X18536D1*
X14344D2*
X15702D1*
X25220Y30575D2*
Y29896D1*
X24541D2*
X25899D1*
X22660D2*
X23339D1*
X22523Y29010D2*
X23202D1*
X24678D2*
X26036D1*
X39127Y21845D2*
Y21215D1*
X39756D1*
X42127Y10215D2*
Y9585D1*
D25*
X46257Y17960D3*
Y18708D3*
D26*
X41224Y8910D3*
X41972D3*
X45035Y22508D3*
X44287D3*
D27*
X25644Y36208D3*
Y34574D3*
X25537Y43001D3*
Y41368D3*
D28*
X29639Y31363D3*
X28005D3*
X36233Y31443D3*
X34599D3*
X57613Y30210D3*
X55979D3*
X65790Y30657D3*
X64156D3*
X74138Y30548D3*
X72504D3*
X82944Y30056D3*
X81310D3*
D29*
X34639Y21996D3*
Y22744D3*
X33694Y22370D3*
X29503Y21961D3*
Y22709D3*
X28558Y22335D3*
X23193Y21894D3*
Y22642D3*
X22248Y22268D3*
X17508Y22052D3*
Y22800D3*
X16563Y22426D3*
X10498Y21902D3*
Y22651D3*
X9553Y22277D3*
X30831Y11274D3*
Y10526D3*
X31775Y10900D3*
X25517Y10936D3*
Y10188D3*
X26461Y10562D3*
X19790Y11074D3*
Y10326D3*
X20734Y10700D3*
X14000Y11088D3*
Y10340D3*
X14945Y10714D3*
X8149Y11009D3*
Y10261D3*
X9094Y10635D3*
D26*
X30354Y28819D3*
X29606D3*
X30348Y26458D3*
X29600D3*
X52330Y34306D3*
X51582D3*
X52345Y32727D3*
X51597D3*
X52322Y31188D3*
X51574D3*
X52322Y29735D3*
X51573D3*
X52294Y28196D3*
X51546D3*
X52275Y26672D3*
X51527D3*
X52298Y25174D3*
X51550D3*
X52289Y23655D3*
X51541D3*
D20*
X8044Y39816D3*
Y43064D3*
Y46312D3*
X34257Y20000D3*
X31757D3*
X28476D3*
X25976D3*
X22662D3*
X20162D3*
X16834D3*
X14334D3*
X10992D3*
X8492D3*
X31677Y5550D3*
X34177D3*
X25863D3*
X28363D3*
X20066D3*
X22566D3*
X14310D3*
X16810D3*
X8518D3*
X11018D3*
X49550Y42235D3*
X46302D3*
X43054D3*
D31*
X40171Y33965D3*
X40919D3*
X40545Y34871D3*
X42814Y33912D3*
X43562D3*
X43188Y34817D3*
X40025Y30775D3*
X40773D3*
X40399Y31681D3*
X42756Y30959D3*
X43504D3*
X43130Y31865D3*
X40031Y27951D3*
X40779D3*
X40405Y28857D3*
X42724Y28081D3*
X43472D3*
X43098Y28986D3*
X39986Y25457D3*
X40734D3*
X40360Y26363D3*
X42689Y25437D3*
X43437D3*
X43063Y26342D3*
X55903Y8048D3*
X55155D3*
X55529Y7143D3*
D25*
X11641Y27957D3*
Y27209D3*
X19116Y29813D3*
Y30561D3*
X21347Y27263D3*
Y28011D3*
X21362Y29812D3*
Y30560D3*
D26*
X55144Y10104D3*
X55892D3*
X55564Y5289D3*
X56312D3*
X31252Y21859D3*
X32000D3*
X31284Y23519D3*
X32032D3*
X19745Y22033D3*
X20493D3*
X19806Y23540D3*
X20554D3*
X7685Y21965D3*
X8433D3*
X7709Y23629D3*
X8457D3*
X28240Y10200D3*
X27492D3*
X28272Y11750D3*
X27524D3*
X16662Y10200D3*
X15914D3*
X16677Y11750D3*
X15929D3*
D25*
X56148Y12485D3*
Y13233D3*
X54219Y12550D3*
Y13298D3*
D26*
X25287Y21861D3*
X26035D3*
X25270Y23549D3*
X26018D3*
X14165Y21948D3*
X14913D3*
X14206Y23638D3*
X14954D3*
X33863Y10200D3*
X33115D3*
X33860Y11750D3*
X33112D3*
X22372Y10200D3*
X21623D3*
X22356Y11750D3*
X21608D3*
X10752Y10200D3*
X10004D3*
X10759Y11750D3*
X10011D3*
X32607Y26435D3*
X31859D3*
X32555Y28843D3*
X31807D3*
X48525Y34298D3*
X47777D3*
X47791Y32725D3*
X48539D3*
X48531Y31203D3*
X47783D3*
X47765Y29721D3*
X48513D3*
X47786Y28186D3*
X48534D3*
X47758Y26680D3*
X48506D3*
X47742Y25161D3*
X48490D3*
X47723Y23739D3*
X48471D3*
X50419Y34291D3*
X49671D3*
X50373Y32733D3*
X49625D3*
X50376Y31208D3*
X49628D3*
X49605Y29714D3*
X50353D3*
X49601Y28209D3*
X50349D3*
X49562Y26672D3*
X50310D3*
X49583Y25161D3*
X50331D3*
X49606Y23742D3*
X50354D3*
D33*
X10220Y29786D3*
X8940Y30317D3*
X7660Y29786D3*
Y28014D3*
X8940Y27483D3*
X10220Y28014D3*
X10357Y28900D3*
X7523D3*
X17720Y29806D3*
X16440Y30337D3*
X15160Y29806D3*
Y28034D3*
X16440Y27503D3*
X17720Y28034D3*
X17857Y28920D3*
X15023D3*
X22660Y28124D3*
X23940Y27593D3*
X25220Y28124D3*
Y29896D3*
X23940Y30427D3*
X22660Y29896D3*
X22523Y29010D3*
X25357D3*
D34*
X23635Y34029D3*
Y36981D3*
X17627Y34029D3*
X15643D3*
X13659D3*
X17627Y36981D3*
X15643D3*
X13659D3*
D35*
X39127Y21215D3*
Y20215D3*
Y19215D3*
Y18215D3*
Y17215D3*
Y16215D3*
Y15215D3*
Y14215D3*
Y13215D3*
Y12215D3*
Y11215D3*
Y10215D3*
X40127D3*
X41127D3*
X42127D3*
X43127D3*
X44127D3*
X45127D3*
Y11215D3*
Y12215D3*
Y13215D3*
Y14215D3*
Y15215D3*
Y16215D3*
Y17215D3*
Y18215D3*
Y19215D3*
Y20215D3*
Y21215D3*
X44127Y17215D3*
X40127D3*
D34*
X23556Y40761D3*
Y43714D3*
X17548Y40761D3*
X15564D3*
X13580D3*
X17548Y43714D3*
X15564D3*
X13580D3*
X27375Y33596D3*
X30328D3*
X27375Y39603D3*
Y41588D3*
Y43572D3*
X30328Y39603D3*
Y41588D3*
Y43572D3*
X33910Y33635D3*
X36863D3*
X33910Y39643D3*
Y41627D3*
Y43611D3*
X36863Y39643D3*
Y41627D3*
Y43611D3*
X55487Y32887D3*
X58439D3*
X55487Y38895D3*
Y40879D3*
Y42863D3*
X58439Y38895D3*
Y40879D3*
Y42863D3*
X63400Y32887D3*
X66353D3*
X63400Y38895D3*
Y40879D3*
Y42863D3*
X66353Y38895D3*
Y40879D3*
Y42863D3*
X71668Y32966D3*
X74620D3*
X71668Y38973D3*
Y40958D3*
Y42942D3*
X74620Y38973D3*
Y40958D3*
Y42942D3*
X80540Y32761D3*
X83493D3*
X80540Y38769D3*
Y40753D3*
Y42737D3*
X83493Y38769D3*
Y40753D3*
Y42737D3*
D36*
X58340Y5596D3*
D35*
X59340D3*
X60340D3*
X61340D3*
X62340D3*
X63340D3*
X64340D3*
X65340D3*
X66340D3*
X67340D3*
X68340D3*
X69340D3*
X70340D3*
Y4596D3*
X69340D3*
X68340D3*
X67340D3*
X66340D3*
X65340D3*
X64340D3*
X63340D3*
X62340D3*
X61340D3*
X60340D3*
X59340D3*
X58340D3*
D20*
X11903Y47336D3*
X15151D3*
X18399D3*
X23281D3*
X26529D3*
X29777D3*
X34659Y47375D3*
X37907D3*
X41155D3*
X54068Y47336D3*
X57316D3*
X60564D3*
X65564D3*
X68812D3*
X72060D3*
X76981D3*
X80229D3*
X83477D3*
X87375Y46155D3*
Y42907D3*
Y39659D3*
%LNBoardOutline*%
X3940Y3940D2*
D11*
X91440D1*
Y51440D1*
X3940D1*
Y3940D1*
M02*
