G04 DipTrace 2.2.9.0 beta*
%INTopMask.gbr*%
%MOIN*%
%ADD11C,0.0055*%
%ADD18C,0.0433*%
%ADD38C,0.09*%
%ADD41C,0.0512*%
%ADD43R,0.0671X0.0671*%
%ADD45C,0.0671*%
%ADD46C,0.1025*%
%ADD48C,0.0769*%
%ADD50R,0.0336X0.0493*%
%ADD52C,0.1655*%
%ADD54R,0.0474X0.0415*%
%ADD56R,0.1084X0.0808*%
%ADD58R,0.0808X0.1084*%
%ADD60R,0.0592X0.0671*%
%ADD62R,0.0671X0.0592*%
%FSLAX44Y44*%
G04*
G70*
G90*
G75*
G01*
%LNTopMask*%
%LPD*%
D41*
X40879Y26981D3*
X47769Y24540D3*
D18*
X12488Y27957D3*
X42245Y22744D3*
X45875Y22061D3*
X57119Y4596D3*
X25863Y8635D3*
X47733Y10950D3*
X30831Y8773D3*
X35407Y23276D3*
X23980Y22126D3*
X39363Y6991D3*
X40131Y8792D3*
X19855Y8635D3*
X29027Y23427D3*
X19949Y28818D3*
X46197Y16624D3*
X17976Y15802D3*
X16563Y21319D3*
X41970Y11042D3*
X42540Y4408D3*
X43556Y24422D3*
X37827Y24053D3*
X42402Y33519D3*
X46116D3*
X29226Y28229D3*
X24571Y24120D3*
X36175Y21634D3*
X36194Y12296D3*
X43078Y18708D3*
D41*
X50328Y24540D3*
D18*
X43044Y24934D3*
X44359Y28075D3*
X41848Y28131D3*
X39698Y35598D3*
X43078Y22508D3*
X56903Y7389D3*
X44107Y33950D3*
X45570Y33965D3*
X37267Y31491D3*
X42060Y31273D3*
X46863D3*
X16662Y8658D3*
X42769Y30249D3*
X45525D3*
X41188Y28899D3*
X54699Y35302D3*
X75191Y30548D3*
X39028Y27213D3*
X53132Y32429D3*
X39265Y24029D3*
Y25052D3*
X45985Y26342D3*
X30701Y21476D3*
X34177Y9137D3*
X28240Y9186D3*
X22566Y9068D3*
X10498Y27367D3*
X48850Y7143D3*
Y12628D3*
X39717Y13215D3*
X46645Y34300D3*
X45682Y31784D3*
X47099Y30682D3*
X45521Y29470D3*
X43895Y27586D3*
X41666Y27021D3*
X40127Y13628D3*
D41*
X48477Y27572D3*
X51344Y9439D3*
X68698Y30586D3*
D62*
X46257Y17960D3*
Y18708D3*
D60*
X41224Y8910D3*
X41972D3*
X45035Y22508D3*
X44287D3*
D58*
X25644Y36208D3*
Y34574D3*
X25537Y43001D3*
Y41368D3*
D56*
X29639Y31363D3*
X28005D3*
X36233Y31443D3*
X34599D3*
X57613Y30210D3*
X55979D3*
X65790Y30657D3*
X64156D3*
X74138Y30548D3*
X72504D3*
X82944Y30056D3*
X81310D3*
D54*
X34639Y21996D3*
Y22744D3*
X33694Y22370D3*
X29503Y21961D3*
Y22709D3*
X28558Y22335D3*
X23193Y21894D3*
Y22642D3*
X22248Y22268D3*
X17508Y22052D3*
Y22800D3*
X16563Y22426D3*
X10498Y21902D3*
Y22651D3*
X9553Y22277D3*
X30831Y11274D3*
Y10526D3*
X31775Y10900D3*
X25517Y10936D3*
Y10188D3*
X26461Y10562D3*
X19790Y11074D3*
Y10326D3*
X20734Y10700D3*
X14000Y11088D3*
Y10340D3*
X14945Y10714D3*
X8149Y11009D3*
Y10261D3*
X9094Y10635D3*
D60*
X30354Y28819D3*
X29606D3*
X30348Y26458D3*
X29600D3*
X52330Y34306D3*
X51582D3*
X52345Y32727D3*
X51597D3*
X52322Y31188D3*
X51574D3*
X52322Y29735D3*
X51573D3*
X52294Y28196D3*
X51546D3*
X52275Y26672D3*
X51527D3*
X52298Y25174D3*
X51550D3*
X52289Y23655D3*
X51541D3*
D52*
X8044Y39816D3*
Y43064D3*
Y46312D3*
X34257Y20000D3*
X31757D3*
X28476D3*
X25976D3*
X22662D3*
X20162D3*
X16834D3*
X14334D3*
X10992D3*
X8492D3*
X31677Y5550D3*
X34177D3*
X25863D3*
X28363D3*
X20066D3*
X22566D3*
X14310D3*
X16810D3*
X8518D3*
X11018D3*
X49550Y42235D3*
X46302D3*
X43054D3*
D50*
X40171Y33965D3*
X40919D3*
X40545Y34871D3*
X42814Y33912D3*
X43562D3*
X43188Y34817D3*
X40025Y30775D3*
X40773D3*
X40399Y31681D3*
X42756Y30959D3*
X43504D3*
X43130Y31865D3*
X40031Y27951D3*
X40779D3*
X40405Y28857D3*
X42724Y28081D3*
X43472D3*
X43098Y28986D3*
X39986Y25457D3*
X40734D3*
X40360Y26363D3*
X42689Y25437D3*
X43437D3*
X43063Y26342D3*
X55903Y8048D3*
X55155D3*
X55529Y7143D3*
D62*
X11641Y27957D3*
Y27209D3*
X19116Y29813D3*
Y30561D3*
X21347Y27263D3*
Y28011D3*
X21362Y29812D3*
Y30560D3*
D60*
X55144Y10104D3*
X55892D3*
X55564Y5289D3*
X56312D3*
X31252Y21859D3*
X32000D3*
X31284Y23519D3*
X32032D3*
X19745Y22033D3*
X20493D3*
X19806Y23540D3*
X20554D3*
X7685Y21965D3*
X8433D3*
X7709Y23629D3*
X8457D3*
X28240Y10200D3*
X27492D3*
X28272Y11750D3*
X27524D3*
X16662Y10200D3*
X15914D3*
X16677Y11750D3*
X15929D3*
D62*
X56148Y12485D3*
Y13233D3*
X54219Y12550D3*
Y13298D3*
D60*
X25287Y21861D3*
X26035D3*
X25270Y23549D3*
X26018D3*
X14165Y21948D3*
X14913D3*
X14206Y23638D3*
X14954D3*
X33863Y10200D3*
X33115D3*
X33860Y11750D3*
X33112D3*
X22372Y10200D3*
X21623D3*
X22356Y11750D3*
X21608D3*
X10752Y10200D3*
X10004D3*
X10759Y11750D3*
X10011D3*
X32607Y26435D3*
X31859D3*
X32555Y28843D3*
X31807D3*
X48525Y34298D3*
X47777D3*
X47791Y32725D3*
X48539D3*
X48531Y31203D3*
X47783D3*
X47765Y29721D3*
X48513D3*
X47786Y28186D3*
X48534D3*
X47758Y26680D3*
X48506D3*
X47742Y25161D3*
X48490D3*
X47723Y23739D3*
X48471D3*
X50419Y34291D3*
X49671D3*
X50373Y32733D3*
X49625D3*
X50376Y31208D3*
X49628D3*
X49605Y29714D3*
X50353D3*
X49601Y28209D3*
X50349D3*
X49562Y26672D3*
X50310D3*
X49583Y25161D3*
X50331D3*
X49606Y23742D3*
X50354D3*
D48*
X10220Y29786D3*
X8940Y30317D3*
X7660Y29786D3*
Y28014D3*
X8940Y27483D3*
X10220Y28014D3*
X10357Y28900D3*
X7523D3*
X17720Y29806D3*
X16440Y30337D3*
X15160Y29806D3*
Y28034D3*
X16440Y27503D3*
X17720Y28034D3*
X17857Y28920D3*
X15023D3*
X22660Y28124D3*
X23940Y27593D3*
X25220Y28124D3*
Y29896D3*
X23940Y30427D3*
X22660Y29896D3*
X22523Y29010D3*
X25357D3*
D46*
X23635Y34029D3*
Y36981D3*
X17627Y34029D3*
X15643D3*
X13659D3*
X17627Y36981D3*
X15643D3*
X13659D3*
D45*
X39127Y21215D3*
Y20215D3*
Y19215D3*
Y18215D3*
Y17215D3*
Y16215D3*
Y15215D3*
Y14215D3*
Y13215D3*
Y12215D3*
Y11215D3*
Y10215D3*
X40127D3*
X41127D3*
X42127D3*
X43127D3*
X44127D3*
X45127D3*
Y11215D3*
Y12215D3*
Y13215D3*
Y14215D3*
Y15215D3*
Y16215D3*
Y17215D3*
Y18215D3*
Y19215D3*
Y20215D3*
Y21215D3*
X44127Y17215D3*
X40127D3*
D46*
X23556Y40761D3*
Y43714D3*
X17548Y40761D3*
X15564D3*
X13580D3*
X17548Y43714D3*
X15564D3*
X13580D3*
X27375Y33596D3*
X30328D3*
X27375Y39603D3*
Y41588D3*
Y43572D3*
X30328Y39603D3*
Y41588D3*
Y43572D3*
X33910Y33635D3*
X36863D3*
X33910Y39643D3*
Y41627D3*
Y43611D3*
X36863Y39643D3*
Y41627D3*
Y43611D3*
X55487Y32887D3*
X58439D3*
X55487Y38895D3*
Y40879D3*
Y42863D3*
X58439Y38895D3*
Y40879D3*
Y42863D3*
X63400Y32887D3*
X66353D3*
X63400Y38895D3*
Y40879D3*
Y42863D3*
X66353Y38895D3*
Y40879D3*
Y42863D3*
X71668Y32966D3*
X74620D3*
X71668Y38973D3*
Y40958D3*
Y42942D3*
X74620Y38973D3*
Y40958D3*
Y42942D3*
X80540Y32761D3*
X83493D3*
X80540Y38769D3*
Y40753D3*
Y42737D3*
X83493Y38769D3*
Y40753D3*
Y42737D3*
D43*
X58340Y5596D3*
D45*
X59340D3*
X60340D3*
X61340D3*
X62340D3*
X63340D3*
X64340D3*
X65340D3*
X66340D3*
X67340D3*
X68340D3*
X69340D3*
X70340D3*
Y4596D3*
X69340D3*
X68340D3*
X67340D3*
X66340D3*
X65340D3*
X64340D3*
X63340D3*
X62340D3*
X61340D3*
X60340D3*
X59340D3*
X58340D3*
D52*
X11903Y47336D3*
X15151D3*
X18399D3*
X23281D3*
X26529D3*
X29777D3*
X34659Y47375D3*
X37907D3*
X41155D3*
X54068Y47336D3*
X57316D3*
X60564D3*
X65564D3*
X68812D3*
X72060D3*
X76981D3*
X80229D3*
X83477D3*
X87375Y46155D3*
Y42907D3*
Y39659D3*
D38*
X5190Y5190D3*
X49565Y50190D3*
Y5190D3*
X90190D3*
Y50190D3*
X45815Y5190D3*
Y50190D3*
X5190D3*
%LNBoardOutline*%
X3940Y3940D2*
D11*
X91440D1*
Y51440D1*
X3940D1*
Y3940D1*
M02*
