G04 DipTrace 2.2.9.0 beta*
%INTopSilk.gbr*%
%MOIN*%
%ADD10C,0.0098*%
%ADD11C,0.006*%
%ADD30C,0.0154*%
%ADD32C,0.0197*%
%ADD64C,0.0077*%
%FSLAX44Y44*%
G04*
G70*
G90*
G75*
G01*
%LNTopSilk*%
%LPD*%
X46512Y17586D2*
D10*
X46001D1*
X40850Y8655D2*
Y9166D1*
X45409Y22764D2*
Y22252D1*
X26166Y33975D2*
X25989Y33797D1*
X25300D2*
X25989D1*
X26166Y36868D2*
Y33975D1*
X25123Y36868D2*
Y33975D1*
Y36868D2*
X26166D1*
X25123Y33975D2*
X25300Y33797D1*
X25566Y35390D2*
X25723D1*
X25644Y35470D2*
Y35314D1*
X26059Y40768D2*
X25881Y40590D1*
X25193D2*
X25881D1*
X26059Y43661D2*
Y40768D1*
X25015Y43661D2*
Y40768D1*
Y43661D2*
X26059D1*
X25015Y40768D2*
X25193Y40590D1*
X25459Y42184D2*
X25615D1*
X25537Y42264D2*
Y42107D1*
X27405Y30841D2*
X27227Y31019D1*
Y31707D2*
Y31019D1*
X30298Y30841D2*
X27405D1*
X30298Y31884D2*
X27405D1*
X30298D2*
Y30841D1*
X27405Y31884D2*
X27227Y31707D1*
X28821Y31441D2*
Y31285D1*
X28901Y31363D2*
X28744D1*
X34000Y30921D2*
X33822Y31098D1*
Y31787D2*
Y31098D1*
X36893Y30921D2*
X34000D1*
X36893Y31964D2*
X34000D1*
X36893D2*
Y30921D1*
X34000Y31964D2*
X33822Y31787D1*
X35415Y31521D2*
Y31364D1*
X35495Y31443D2*
X35339D1*
X55379Y29688D2*
X55201Y29865D1*
Y30554D2*
Y29865D1*
X58272Y29688D2*
X55379D1*
X58272Y30731D2*
X55379D1*
X58272D2*
Y29688D1*
X55379Y30731D2*
X55201Y30554D1*
X56795Y30288D2*
Y30131D1*
X56875Y30210D2*
X56718D1*
X63556Y30135D2*
X63378Y30313D1*
Y31001D2*
Y30313D1*
X66449Y30135D2*
X63556D1*
X66449Y31179D2*
X63556D1*
X66449D2*
Y30135D1*
X63556Y31179D2*
X63378Y31001D1*
X64972Y30735D2*
Y30579D1*
X65052Y30657D2*
X64895D1*
X71905Y30027D2*
X71727Y30204D1*
Y30892D2*
Y30204D1*
X74797Y30027D2*
X71905D1*
X74797Y31070D2*
X71905D1*
X74797D2*
Y30027D1*
X71905Y31070D2*
X71727Y30892D1*
X73320Y30626D2*
Y30470D1*
X73400Y30548D2*
X73244D1*
X80710Y29534D2*
X80532Y29712D1*
Y30400D2*
Y29712D1*
X83603Y29534D2*
X80710D1*
X83603Y30578D2*
X80710D1*
X83603D2*
Y29534D1*
X80710Y30578D2*
X80532Y30400D1*
X82126Y30134D2*
Y29978D1*
X82206Y30056D2*
X82049D1*
X34639Y21661D2*
G02X34639Y21661I0J-49D01*
G01*
X34285Y21868D2*
X33694D1*
X34285Y22872D2*
X33694D1*
Y21868D2*
Y22046D1*
Y22694D2*
Y22872D1*
X29503Y21626D2*
G02X29503Y21626I0J-49D01*
G01*
X29149Y21832D2*
X28558D1*
X29149Y22837D2*
X28558D1*
Y21832D2*
Y22010D1*
Y22659D2*
Y22837D1*
X23193Y21559D2*
G02X23193Y21559I0J-49D01*
G01*
X22838Y21765D2*
X22248D1*
X22838Y22770D2*
X22248D1*
Y21765D2*
Y21943D1*
Y22592D2*
Y22770D1*
X17508Y21718D2*
G02X17508Y21718I0J-49D01*
G01*
X17153Y21924D2*
X16563D1*
X17153Y22929D2*
X16563D1*
Y21924D2*
Y22102D1*
Y22751D2*
Y22929D1*
X10498Y21568D2*
G02X10498Y21568I0J-49D01*
G01*
X10143Y21774D2*
X9553D1*
X10143Y22779D2*
X9553D1*
Y21774D2*
Y21952D1*
Y22601D2*
Y22779D1*
X30831Y11609D2*
G02X30831Y11609I0J49D01*
G01*
X31185Y11403D2*
X31776D1*
X31185Y10398D2*
X31776D1*
Y11403D2*
Y11225D1*
Y10576D2*
Y10398D1*
X25516Y11270D2*
G02X25516Y11270I0J49D01*
G01*
X25871Y11064D2*
X26462D1*
X25871Y10060D2*
X26462D1*
Y11064D2*
Y10886D1*
Y10238D2*
Y10060D1*
X19790Y11409D2*
G02X19790Y11409I0J49D01*
G01*
X20144Y11202D2*
X20735D1*
X20144Y10198D2*
X20735D1*
Y11202D2*
Y11024D1*
Y10376D2*
Y10198D1*
X14000Y11422D2*
G02X14000Y11422I0J49D01*
G01*
X14354Y11216D2*
X14945D1*
X14354Y10211D2*
X14945D1*
Y11216D2*
Y11038D1*
Y10389D2*
Y10211D1*
X8149Y11344D2*
G02X8149Y11344I0J49D01*
G01*
X8504Y11138D2*
X9094D1*
X8504Y10133D2*
X9094D1*
Y11138D2*
Y10960D1*
Y10311D2*
Y10133D1*
X29233Y29075D2*
Y28563D1*
X29227Y26714D2*
Y26202D1*
X51209Y34562D2*
Y34050D1*
X51224Y32983D2*
Y32471D1*
X51201Y31444D2*
Y30932D1*
X51200Y29991D2*
Y29479D1*
X51173Y28452D2*
Y27940D1*
X51154Y26928D2*
Y26416D1*
X51177Y25429D2*
Y24918D1*
X51168Y23911D2*
Y23399D1*
X3950Y37887D2*
X9068D1*
Y48241D1*
X3950D1*
Y37887D1*
X35713Y16024D2*
X30300D1*
Y21220D1*
X35713D1*
Y16024D1*
X29932D2*
X24519D1*
Y21220D1*
X29932D1*
Y16024D1*
X24119D2*
X18706D1*
Y21220D1*
X24119D1*
Y16024D1*
X18291D2*
X12877D1*
Y21220D1*
X18291D1*
Y16024D1*
X12449D2*
X7035D1*
Y21220D1*
X12449D1*
Y16024D1*
X30221Y9526D2*
X35634D1*
Y4330D1*
X30221D1*
Y9526D1*
X24407D2*
X29820D1*
Y4330D1*
X24407D1*
Y9526D1*
X18610D2*
X24023D1*
Y4330D1*
X18610D1*
Y9526D1*
X12854D2*
X18267D1*
Y4330D1*
X12854D1*
Y9526D1*
X7061D2*
X12475D1*
Y4330D1*
X7061D1*
Y9526D1*
X51479Y38140D2*
X41124D1*
Y43258D1*
X51479D1*
Y38140D1*
D30*
X39862Y33818D3*
X39954Y34319D2*
D10*
X41135D1*
Y34516D1*
X39954D1*
Y34319D1*
D30*
X42506Y33765D3*
X42598Y34266D2*
D10*
X43779D1*
Y34463D1*
X42598D1*
Y34266D1*
D30*
X39717Y30628D3*
X39809Y31130D2*
D10*
X40990D1*
Y31327D1*
X39809D1*
Y31130D1*
D30*
X42447Y30812D3*
X42539Y31313D2*
D10*
X43720D1*
Y31510D1*
X42539D1*
Y31313D1*
D30*
X39722Y27804D3*
X39814Y28306D2*
D10*
X40995D1*
Y28502D1*
X39814D1*
Y28306D1*
D30*
X42415Y27933D3*
X42507Y28435D2*
D10*
X43688D1*
Y28632D1*
X42507D1*
Y28435D1*
D30*
X39678Y25310D3*
X39770Y25811D2*
D10*
X40951D1*
Y26008D1*
X39770D1*
Y25811D1*
D30*
X42380Y25289D3*
X42472Y25791D2*
D10*
X43653D1*
Y25988D1*
X42472D1*
Y25791D1*
D30*
X56212Y8195D3*
X56120Y7694D2*
D10*
X54939D1*
Y7497D1*
X56120D1*
Y7694D1*
X6971Y30869D2*
X10909D1*
Y26931D1*
X6971D1*
Y30869D1*
D32*
X10613Y30573D3*
X14471Y30889D2*
D10*
X18409D1*
Y26951D1*
X14471D1*
Y30889D1*
D32*
X18113Y30593D3*
X25909Y27041D2*
D10*
X21971D1*
Y30979D1*
X25909D1*
Y27041D1*
D32*
X22267Y27337D3*
X24560Y33036D2*
D10*
X12643D1*
Y37973D1*
X24560D1*
Y33036D1*
X38627Y21715D2*
X45627D1*
Y9715D1*
X38627D1*
Y21715D1*
X24481Y39769D2*
X12564D1*
Y44706D1*
X24481D1*
Y39769D1*
X26383Y32670D2*
X31320D1*
Y44588D1*
X26383D1*
Y32670D1*
X32918Y32710D2*
X37855D1*
Y44627D1*
X32918D1*
Y32710D1*
X54495Y31962D2*
X59432D1*
Y43879D1*
X54495D1*
Y31962D1*
X62408D2*
X67345D1*
Y43879D1*
X62408D1*
Y31962D1*
X70676Y32040D2*
X75613D1*
Y43958D1*
X70676D1*
Y32040D1*
X79548Y31836D2*
X84485D1*
Y43753D1*
X79548D1*
Y31836D1*
X91440Y3966D2*
X57740D1*
Y25226D1*
X91440D1*
Y3966D1*
X9973Y51430D2*
X20328D1*
Y46312D1*
X9973D1*
Y51430D1*
X21351D2*
X31706D1*
Y46312D1*
X21351D1*
Y51430D1*
X32729Y51470D2*
X43084D1*
Y46351D1*
X32729D1*
Y51470D1*
X52139Y51430D2*
X62493D1*
Y46312D1*
X52139D1*
Y51430D1*
X63635D2*
X73989D1*
Y46312D1*
X63635D1*
Y51430D1*
X75052D2*
X85407D1*
Y46312D1*
X75052D1*
Y51430D1*
X91470Y48084D2*
X86351D1*
Y37729D1*
X91470D1*
Y48084D1*
X46871Y18317D2*
D64*
X46824Y18293D1*
X46776Y18245D1*
X46752Y18198D1*
Y18102D1*
X46776Y18054D1*
X46824Y18006D1*
X46871Y17982D1*
X46943Y17958D1*
X47063D1*
X47134Y17982D1*
X47182Y18006D1*
X47230Y18054D1*
X47254Y18102D1*
Y18198D1*
X47230Y18245D1*
X47182Y18293D1*
X47134Y18317D1*
X46848Y18471D2*
X46824Y18519D1*
X46752Y18591D1*
X47254D1*
X41474Y9819D2*
X41450Y9866D1*
X41402Y9914D1*
X41354Y9938D1*
X41259D1*
X41211Y9914D1*
X41163Y9866D1*
X41139Y9819D1*
X41115Y9747D1*
Y9627D1*
X41139Y9555D1*
X41163Y9507D1*
X41211Y9460D1*
X41259Y9436D1*
X41354D1*
X41402Y9460D1*
X41450Y9507D1*
X41474Y9555D1*
X41652Y9818D2*
Y9842D1*
X41676Y9890D1*
X41700Y9914D1*
X41748Y9937D1*
X41844D1*
X41891Y9914D1*
X41915Y9890D1*
X41939Y9842D1*
Y9794D1*
X41915Y9746D1*
X41867Y9675D1*
X41628Y9436D1*
X41963D1*
X44655Y23416D2*
X44631Y23464D1*
X44583Y23512D1*
X44535Y23536D1*
X44440D1*
X44391Y23512D1*
X44344Y23464D1*
X44320Y23416D1*
X44296Y23344D1*
Y23225D1*
X44320Y23153D1*
X44344Y23105D1*
X44391Y23058D1*
X44440Y23033D1*
X44535D1*
X44583Y23058D1*
X44631Y23105D1*
X44655Y23153D1*
X44857Y23535D2*
X45120D1*
X44976Y23344D1*
X45048D1*
X45096Y23320D1*
X45120Y23296D1*
X45144Y23225D1*
Y23177D1*
X45120Y23105D1*
X45072Y23057D1*
X45000Y23033D1*
X44928D1*
X44857Y23057D1*
X44833Y23081D1*
X44809Y23129D1*
X33767Y23644D2*
Y23141D1*
X33934D1*
X34006Y23165D1*
X34054Y23213D1*
X34078Y23261D1*
X34102Y23332D1*
Y23452D1*
X34078Y23524D1*
X34054Y23572D1*
X34006Y23620D1*
X33934Y23644D1*
X33767D1*
X34567Y23476D2*
X34543Y23404D1*
X34495Y23356D1*
X34423Y23332D1*
X34400D1*
X34328Y23356D1*
X34280Y23404D1*
X34256Y23476D1*
Y23500D1*
X34280Y23572D1*
X34328Y23619D1*
X34400Y23643D1*
X34423D1*
X34495Y23619D1*
X34543Y23572D1*
X34567Y23476D1*
Y23356D1*
X34543Y23237D1*
X34495Y23165D1*
X34423Y23141D1*
X34376D1*
X34304Y23165D1*
X34280Y23213D1*
X27629Y21653D2*
X28132D1*
Y21820D1*
X28107Y21892D1*
X28060Y21940D1*
X28012Y21964D1*
X27941Y21988D1*
X27821D1*
X27749Y21964D1*
X27701Y21940D1*
X27653Y21892D1*
X27629Y21820D1*
Y21653D1*
X27726Y22142D2*
X27701Y22190D1*
X27630Y22262D1*
X28132D1*
X27630Y22560D2*
X27654Y22488D1*
X27726Y22440D1*
X27845Y22416D1*
X27917D1*
X28036Y22440D1*
X28108Y22488D1*
X28132Y22560D1*
Y22607D1*
X28108Y22679D1*
X28036Y22727D1*
X27917Y22751D1*
X27845D1*
X27726Y22727D1*
X27654Y22679D1*
X27630Y22607D1*
Y22560D1*
X27726Y22727D2*
X28036Y22440D1*
X21319Y21693D2*
X21821D1*
Y21860D1*
X21797Y21932D1*
X21749Y21980D1*
X21701Y22004D1*
X21630Y22028D1*
X21510D1*
X21438Y22004D1*
X21391Y21980D1*
X21343Y21932D1*
X21319Y21860D1*
Y21693D1*
X21415Y22182D2*
X21391Y22230D1*
X21319Y22302D1*
X21821D1*
X21415Y22457D2*
X21391Y22505D1*
X21319Y22577D1*
X21821D1*
X15634Y21744D2*
X16137D1*
Y21912D1*
X16112Y21984D1*
X16065Y22032D1*
X16017Y22055D1*
X15945Y22079D1*
X15825D1*
X15753Y22055D1*
X15706Y22032D1*
X15658Y21984D1*
X15634Y21912D1*
Y21744D1*
X15730Y22234D2*
X15706Y22282D1*
X15635Y22354D1*
X16137D1*
X15754Y22532D2*
X15730D1*
X15682Y22556D1*
X15658Y22580D1*
X15635Y22628D1*
Y22724D1*
X15658Y22771D1*
X15682Y22795D1*
X15730Y22819D1*
X15778D1*
X15826Y22795D1*
X15897Y22747D1*
X16137Y22508D1*
Y22843D1*
X10986Y22185D2*
X11488D1*
Y22352D1*
X11464Y22424D1*
X11416Y22472D1*
X11368Y22496D1*
X11297Y22520D1*
X11177D1*
X11105Y22496D1*
X11058Y22472D1*
X11010Y22424D1*
X10986Y22352D1*
Y22185D1*
X11082Y22674D2*
X11058Y22722D1*
X10986Y22794D1*
X11488D1*
X10986Y22997D2*
Y23259D1*
X11178Y23116D1*
Y23188D1*
X11201Y23235D1*
X11225Y23259D1*
X11297Y23284D1*
X11345D1*
X11416Y23259D1*
X11465Y23212D1*
X11488Y23140D1*
Y23068D1*
X11465Y22997D1*
X11440Y22973D1*
X11393Y22949D1*
X29902Y10472D2*
X30404D1*
Y10640D1*
X30380Y10711D1*
X30332Y10759D1*
X30284Y10783D1*
X30213Y10807D1*
X30093D1*
X30021Y10783D1*
X29973Y10759D1*
X29925Y10711D1*
X29902Y10640D1*
Y10472D1*
X29998Y10961D2*
X29973Y11009D1*
X29902Y11081D1*
X30404D1*
Y11475D2*
X29902D1*
X30236Y11236D1*
Y11594D1*
X24587Y10145D2*
X25090D1*
Y10313D1*
X25066Y10385D1*
X25018Y10433D1*
X24970Y10457D1*
X24899Y10480D1*
X24779D1*
X24707Y10457D1*
X24659Y10433D1*
X24611Y10385D1*
X24587Y10313D1*
Y10145D1*
X24684Y10635D2*
X24659Y10683D1*
X24588Y10755D1*
X25090D1*
X24588Y11196D2*
Y10957D1*
X24803Y10933D1*
X24779Y10957D1*
X24755Y11029D1*
Y11100D1*
X24779Y11172D1*
X24827Y11220D1*
X24899Y11244D1*
X24946D1*
X25018Y11220D1*
X25066Y11172D1*
X25090Y11100D1*
Y11029D1*
X25066Y10957D1*
X25042Y10933D1*
X24994Y10909D1*
X18861Y10296D2*
X19363D1*
Y10463D1*
X19339Y10535D1*
X19291Y10583D1*
X19243Y10607D1*
X19172Y10631D1*
X19052D1*
X18980Y10607D1*
X18932Y10583D1*
X18884Y10535D1*
X18861Y10463D1*
Y10296D1*
X18957Y10785D2*
X18932Y10833D1*
X18861Y10905D1*
X19363D1*
X18932Y11346D2*
X18885Y11322D1*
X18861Y11251D1*
Y11203D1*
X18885Y11131D1*
X18957Y11083D1*
X19076Y11059D1*
X19195D1*
X19291Y11083D1*
X19339Y11131D1*
X19363Y11203D1*
Y11227D1*
X19339Y11298D1*
X19291Y11346D1*
X19219Y11370D1*
X19195D1*
X19124Y11346D1*
X19076Y11298D1*
X19052Y11227D1*
Y11203D1*
X19076Y11131D1*
X19124Y11083D1*
X19195Y11059D1*
X13071Y10297D2*
X13573D1*
Y10465D1*
X13549Y10536D1*
X13501Y10585D1*
X13453Y10608D1*
X13382Y10632D1*
X13262D1*
X13190Y10608D1*
X13143Y10585D1*
X13094Y10536D1*
X13071Y10465D1*
Y10297D1*
X13167Y10786D2*
X13143Y10835D1*
X13071Y10906D1*
X13573D1*
Y11156D2*
X13071Y11396D1*
Y11061D1*
X7220Y10219D2*
X7723D1*
Y10387D1*
X7698Y10458D1*
X7651Y10506D1*
X7603Y10530D1*
X7531Y10554D1*
X7412D1*
X7340Y10530D1*
X7292Y10506D1*
X7244Y10458D1*
X7220Y10387D1*
Y10219D1*
X7316Y10708D2*
X7292Y10757D1*
X7221Y10828D1*
X7723D1*
X7221Y11102D2*
X7245Y11031D1*
X7292Y11007D1*
X7340D1*
X7388Y11031D1*
X7412Y11078D1*
X7436Y11174D1*
X7460Y11246D1*
X7508Y11293D1*
X7555Y11317D1*
X7627D1*
X7675Y11293D1*
X7699Y11270D1*
X7723Y11198D1*
Y11102D1*
X7699Y11031D1*
X7675Y11007D1*
X7627Y10983D1*
X7555D1*
X7508Y11007D1*
X7460Y11055D1*
X7436Y11126D1*
X7412Y11222D1*
X7388Y11270D1*
X7340Y11293D1*
X7292D1*
X7245Y11270D1*
X7221Y11198D1*
Y11102D1*
X29384Y29847D2*
Y29344D1*
X29552D1*
X29624Y29369D1*
X29672Y29416D1*
X29695Y29464D1*
X29719Y29536D1*
Y29656D1*
X29695Y29727D1*
X29672Y29775D1*
X29624Y29823D1*
X29552Y29847D1*
X29384D1*
X29874Y29751D2*
X29922Y29775D1*
X29993Y29846D1*
Y29344D1*
X30459Y29679D2*
X30435Y29608D1*
X30387Y29559D1*
X30315Y29536D1*
X30292D1*
X30220Y29559D1*
X30172Y29608D1*
X30148Y29679D1*
Y29703D1*
X30172Y29775D1*
X30220Y29823D1*
X30292Y29846D1*
X30315D1*
X30387Y29823D1*
X30435Y29775D1*
X30459Y29679D1*
Y29559D1*
X30435Y29440D1*
X30387Y29368D1*
X30315Y29344D1*
X30268D1*
X30196Y29368D1*
X30172Y29416D1*
X29259Y27485D2*
Y26983D1*
X29426D1*
X29498Y27007D1*
X29546Y27055D1*
X29570Y27103D1*
X29594Y27174D1*
Y27294D1*
X29570Y27366D1*
X29546Y27413D1*
X29498Y27461D1*
X29426Y27485D1*
X29259D1*
X29772Y27365D2*
Y27389D1*
X29796Y27437D1*
X29820Y27461D1*
X29868Y27485D1*
X29964D1*
X30011Y27461D1*
X30035Y27437D1*
X30059Y27389D1*
Y27342D1*
X30035Y27293D1*
X29987Y27222D1*
X29748Y26983D1*
X30083D1*
X30381Y27485D2*
X30309Y27461D1*
X30261Y27389D1*
X30237Y27270D1*
Y27198D1*
X30261Y27078D1*
X30309Y27007D1*
X30381Y26983D1*
X30429D1*
X30500Y27007D1*
X30548Y27078D1*
X30572Y27198D1*
Y27270D1*
X30548Y27389D1*
X30500Y27461D1*
X30429Y27485D1*
X30381D1*
X30548Y27389D2*
X30261Y27078D1*
X51348Y35334D2*
Y34831D1*
X51516D1*
X51587Y34856D1*
X51636Y34903D1*
X51659Y34951D1*
X51683Y35023D1*
Y35142D1*
X51659Y35214D1*
X51636Y35262D1*
X51587Y35310D1*
X51516Y35334D1*
X51348D1*
X51862Y35214D2*
Y35238D1*
X51886Y35286D1*
X51909Y35309D1*
X51957Y35333D1*
X52053D1*
X52101Y35309D1*
X52124Y35286D1*
X52149Y35238D1*
Y35190D1*
X52124Y35142D1*
X52077Y35071D1*
X51837Y34831D1*
X52172D1*
X52327Y35238D2*
X52375Y35262D1*
X52447Y35333D1*
Y34831D1*
X51256Y33755D2*
Y33252D1*
X51423D1*
X51495Y33277D1*
X51543Y33324D1*
X51567Y33372D1*
X51590Y33444D1*
Y33564D1*
X51567Y33635D1*
X51543Y33683D1*
X51495Y33731D1*
X51423Y33755D1*
X51256D1*
X51769Y33635D2*
Y33659D1*
X51793Y33707D1*
X51817Y33730D1*
X51865Y33754D1*
X51960D1*
X52008Y33730D1*
X52032Y33707D1*
X52056Y33659D1*
Y33611D1*
X52032Y33563D1*
X51984Y33492D1*
X51745Y33252D1*
X52080D1*
X52258Y33635D2*
Y33659D1*
X52282Y33707D1*
X52306Y33730D1*
X52354Y33754D1*
X52450D1*
X52497Y33730D1*
X52521Y33707D1*
X52545Y33659D1*
Y33611D1*
X52521Y33563D1*
X52473Y33492D1*
X52234Y33252D1*
X52569D1*
X51233Y32215D2*
Y31713D1*
X51400D1*
X51472Y31737D1*
X51520Y31785D1*
X51544Y31833D1*
X51568Y31904D1*
Y32024D1*
X51544Y32096D1*
X51520Y32143D1*
X51472Y32191D1*
X51400Y32215D1*
X51233D1*
X51746Y32095D2*
Y32119D1*
X51770Y32167D1*
X51794Y32191D1*
X51842Y32215D1*
X51937D1*
X51985Y32191D1*
X52009Y32167D1*
X52033Y32119D1*
Y32072D1*
X52009Y32023D1*
X51961Y31952D1*
X51722Y31713D1*
X52057D1*
X52259Y32215D2*
X52522D1*
X52379Y32023D1*
X52451D1*
X52498Y32000D1*
X52522Y31976D1*
X52546Y31904D1*
Y31857D1*
X52522Y31785D1*
X52474Y31737D1*
X52402Y31713D1*
X52331D1*
X52259Y31737D1*
X52236Y31761D1*
X52211Y31808D1*
X51220Y30762D2*
Y30260D1*
X51388D1*
X51460Y30284D1*
X51508Y30332D1*
X51531Y30380D1*
X51555Y30451D1*
Y30571D1*
X51531Y30643D1*
X51508Y30690D1*
X51460Y30738D1*
X51388Y30762D1*
X51220D1*
X51734Y30642D2*
Y30666D1*
X51758Y30714D1*
X51781Y30738D1*
X51830Y30762D1*
X51925D1*
X51973Y30738D1*
X51996Y30714D1*
X52021Y30666D1*
Y30619D1*
X51996Y30570D1*
X51949Y30499D1*
X51710Y30260D1*
X52045D1*
X52438D2*
Y30762D1*
X52199Y30427D1*
X52558D1*
X51204Y29223D2*
Y28721D1*
X51372D1*
X51444Y28745D1*
X51492Y28793D1*
X51515Y28841D1*
X51539Y28912D1*
Y29032D1*
X51515Y29104D1*
X51492Y29151D1*
X51444Y29200D1*
X51372Y29223D1*
X51204D1*
X51718Y29103D2*
Y29127D1*
X51742Y29175D1*
X51765Y29199D1*
X51813Y29223D1*
X51909D1*
X51957Y29199D1*
X51980Y29175D1*
X52005Y29127D1*
Y29080D1*
X51980Y29032D1*
X51933Y28960D1*
X51694Y28721D1*
X52028D1*
X52470Y29223D2*
X52231D1*
X52207Y29008D1*
X52231Y29032D1*
X52303Y29056D1*
X52374D1*
X52446Y29032D1*
X52494Y28984D1*
X52518Y28912D1*
Y28865D1*
X52494Y28793D1*
X52446Y28745D1*
X52374Y28721D1*
X52303D1*
X52231Y28745D1*
X52207Y28769D1*
X52183Y28817D1*
X51198Y27699D2*
Y27197D1*
X51366D1*
X51438Y27221D1*
X51486Y27269D1*
X51509Y27317D1*
X51533Y27388D1*
Y27508D1*
X51509Y27580D1*
X51486Y27627D1*
X51438Y27675D1*
X51366Y27699D1*
X51198D1*
X51712Y27579D2*
Y27603D1*
X51736Y27651D1*
X51759Y27675D1*
X51808Y27699D1*
X51903D1*
X51951Y27675D1*
X51974Y27651D1*
X51999Y27603D1*
Y27556D1*
X51974Y27507D1*
X51927Y27436D1*
X51688Y27197D1*
X52023D1*
X52464Y27627D2*
X52440Y27675D1*
X52368Y27699D1*
X52321D1*
X52249Y27675D1*
X52201Y27603D1*
X52177Y27484D1*
Y27364D1*
X52201Y27269D1*
X52249Y27221D1*
X52321Y27197D1*
X52344D1*
X52416Y27221D1*
X52464Y27269D1*
X52488Y27341D1*
Y27364D1*
X52464Y27436D1*
X52416Y27484D1*
X52344Y27507D1*
X52321D1*
X52249Y27484D1*
X52201Y27436D1*
X52177Y27364D1*
X51209Y26201D2*
Y25699D1*
X51376D1*
X51448Y25723D1*
X51496Y25770D1*
X51520Y25819D1*
X51544Y25890D1*
Y26010D1*
X51520Y26082D1*
X51496Y26129D1*
X51448Y26177D1*
X51376Y26201D1*
X51209D1*
X51722Y26081D2*
Y26105D1*
X51746Y26153D1*
X51770Y26177D1*
X51818Y26200D1*
X51914D1*
X51961Y26177D1*
X51985Y26153D1*
X52009Y26105D1*
Y26057D1*
X51985Y26009D1*
X51937Y25938D1*
X51698Y25699D1*
X52033D1*
X52283D2*
X52522Y26200D1*
X52187D1*
X51200Y24683D2*
Y24180D1*
X51368D1*
X51440Y24205D1*
X51488Y24252D1*
X51511Y24300D1*
X51535Y24372D1*
Y24492D1*
X51511Y24563D1*
X51488Y24611D1*
X51440Y24659D1*
X51368Y24683D1*
X51200D1*
X51714Y24563D2*
Y24587D1*
X51738Y24635D1*
X51761Y24659D1*
X51809Y24682D1*
X51905D1*
X51953Y24659D1*
X51976Y24635D1*
X52001Y24587D1*
Y24539D1*
X51976Y24491D1*
X51929Y24420D1*
X51690Y24180D1*
X52024D1*
X52298Y24682D2*
X52227Y24659D1*
X52203Y24611D1*
Y24563D1*
X52227Y24515D1*
X52274Y24491D1*
X52370Y24467D1*
X52442Y24444D1*
X52489Y24395D1*
X52513Y24348D1*
Y24276D1*
X52489Y24229D1*
X52466Y24204D1*
X52394Y24180D1*
X52298D1*
X52227Y24204D1*
X52203Y24229D1*
X52179Y24276D1*
Y24348D1*
X52203Y24395D1*
X52251Y24444D1*
X52322Y24467D1*
X52418Y24491D1*
X52466Y24515D1*
X52489Y24563D1*
Y24611D1*
X52466Y24659D1*
X52394Y24682D1*
X52298D1*
X6204Y48710D2*
X6420D1*
X6491Y48734D1*
X6515Y48758D1*
X6539Y48806D1*
Y48878D1*
X6515Y48925D1*
X6491Y48950D1*
X6420Y48973D1*
X6204D1*
Y48471D1*
X6694Y48877D2*
X6742Y48902D1*
X6814Y48973D1*
Y48471D1*
X34921Y15519D2*
X35136D1*
X35207Y15543D1*
X35232Y15567D1*
X35255Y15614D1*
Y15686D1*
X35232Y15734D1*
X35207Y15758D1*
X35136Y15782D1*
X34921D1*
Y15280D1*
X35721Y15614D2*
X35697Y15543D1*
X35649Y15495D1*
X35577Y15471D1*
X35554D1*
X35482Y15495D1*
X35434Y15543D1*
X35410Y15614D1*
Y15638D1*
X35434Y15710D1*
X35482Y15758D1*
X35554Y15781D1*
X35577D1*
X35649Y15758D1*
X35697Y15710D1*
X35721Y15614D1*
Y15495D1*
X35697Y15375D1*
X35649Y15303D1*
X35577Y15280D1*
X35530D1*
X35458Y15303D1*
X35434Y15351D1*
X28686Y15519D2*
X28902D1*
X28973Y15543D1*
X28998Y15567D1*
X29021Y15614D1*
Y15686D1*
X28998Y15734D1*
X28973Y15758D1*
X28902Y15782D1*
X28686D1*
Y15280D1*
X29176Y15686D2*
X29224Y15710D1*
X29296Y15781D1*
Y15280D1*
X29594Y15781D2*
X29522Y15758D1*
X29474Y15686D1*
X29450Y15566D1*
Y15495D1*
X29474Y15375D1*
X29522Y15303D1*
X29594Y15280D1*
X29641D1*
X29713Y15303D1*
X29761Y15375D1*
X29785Y15495D1*
Y15566D1*
X29761Y15686D1*
X29713Y15758D1*
X29641Y15781D1*
X29594D1*
X29761Y15686D2*
X29474Y15375D1*
X23074Y15542D2*
X23290D1*
X23361Y15566D1*
X23385Y15590D1*
X23409Y15638D1*
Y15710D1*
X23385Y15757D1*
X23361Y15782D1*
X23290Y15805D1*
X23074D1*
Y15303D1*
X23564Y15709D2*
X23612Y15733D1*
X23683Y15805D1*
Y15303D1*
X23838Y15709D2*
X23886Y15733D1*
X23958Y15805D1*
Y15303D1*
X17144Y15502D2*
X17359D1*
X17430Y15525D1*
X17455Y15550D1*
X17478Y15597D1*
Y15669D1*
X17455Y15717D1*
X17430Y15741D1*
X17359Y15765D1*
X17144D1*
Y15262D1*
X17633Y15669D2*
X17681Y15693D1*
X17753Y15764D1*
Y15262D1*
X17932Y15645D2*
Y15669D1*
X17955Y15717D1*
X17979Y15740D1*
X18027Y15764D1*
X18123D1*
X18170Y15740D1*
X18194Y15717D1*
X18218Y15669D1*
Y15621D1*
X18194Y15573D1*
X18147Y15502D1*
X17907Y15262D1*
X18242D1*
X11271Y15447D2*
X11486D1*
X11558Y15471D1*
X11582Y15496D1*
X11606Y15543D1*
Y15615D1*
X11582Y15662D1*
X11558Y15687D1*
X11486Y15711D1*
X11271D1*
Y15208D1*
X11760Y15614D2*
X11808Y15639D1*
X11880Y15710D1*
Y15208D1*
X12082Y15710D2*
X12345D1*
X12202Y15519D1*
X12274D1*
X12321Y15495D1*
X12345Y15471D1*
X12369Y15399D1*
Y15352D1*
X12345Y15280D1*
X12297Y15232D1*
X12226Y15208D1*
X12154D1*
X12082Y15232D1*
X12059Y15256D1*
X12034Y15304D1*
X34468Y10150D2*
X34683D1*
X34754Y10174D1*
X34779Y10199D1*
X34802Y10246D1*
Y10318D1*
X34779Y10365D1*
X34754Y10390D1*
X34683Y10414D1*
X34468D1*
Y9911D1*
X34957Y10317D2*
X35005Y10342D1*
X35077Y10413D1*
Y9911D1*
X35470D2*
Y10413D1*
X35231Y10079D1*
X35590D1*
X28712Y10104D2*
X28928D1*
X28999Y10127D1*
X29023Y10152D1*
X29047Y10199D1*
Y10271D1*
X29023Y10319D1*
X28999Y10343D1*
X28928Y10367D1*
X28712D1*
Y9864D1*
X29202Y10271D2*
X29250Y10295D1*
X29322Y10366D1*
Y9864D1*
X29763Y10366D2*
X29524D1*
X29500Y10151D1*
X29524Y10175D1*
X29596Y10199D1*
X29667D1*
X29739Y10175D1*
X29787Y10127D1*
X29811Y10056D1*
Y10008D1*
X29787Y9936D1*
X29739Y9888D1*
X29667Y9864D1*
X29596D1*
X29524Y9888D1*
X29500Y9912D1*
X29476Y9960D1*
X22958Y10070D2*
X23174D1*
X23245Y10094D1*
X23269Y10119D1*
X23293Y10166D1*
Y10238D1*
X23269Y10285D1*
X23245Y10310D1*
X23174Y10334D1*
X22958D1*
Y9831D1*
X23447Y10237D2*
X23496Y10262D1*
X23567Y10333D1*
Y9831D1*
X24009Y10262D2*
X23985Y10309D1*
X23913Y10333D1*
X23865D1*
X23794Y10309D1*
X23746Y10237D1*
X23722Y10118D1*
Y9999D1*
X23746Y9903D1*
X23794Y9855D1*
X23865Y9831D1*
X23889D1*
X23961Y9855D1*
X24009Y9903D1*
X24032Y9975D1*
Y9999D1*
X24009Y10070D1*
X23961Y10118D1*
X23889Y10142D1*
X23865D1*
X23794Y10118D1*
X23746Y10070D1*
X23722Y9999D1*
X17190Y9978D2*
X17405D1*
X17477Y10002D1*
X17501Y10026D1*
X17525Y10074D1*
Y10146D1*
X17501Y10193D1*
X17477Y10218D1*
X17405Y10241D1*
X17190D1*
Y9739D1*
X17679Y10145D2*
X17727Y10169D1*
X17799Y10241D1*
Y9739D1*
X18049D2*
X18288Y10241D1*
X17954D1*
X11344Y10010D2*
X11559D1*
X11631Y10034D1*
X11655Y10058D1*
X11679Y10106D1*
Y10178D1*
X11655Y10225D1*
X11631Y10250D1*
X11559Y10273D1*
X11344D1*
Y9771D1*
X11833Y10177D2*
X11881Y10201D1*
X11953Y10273D1*
Y9771D1*
X12227Y10273D2*
X12156Y10249D1*
X12131Y10201D1*
Y10153D1*
X12156Y10106D1*
X12203Y10082D1*
X12299Y10058D1*
X12371Y10034D1*
X12418Y9986D1*
X12442Y9938D1*
Y9867D1*
X12418Y9819D1*
X12394Y9795D1*
X12322Y9771D1*
X12227D1*
X12156Y9795D1*
X12131Y9819D1*
X12107Y9867D1*
Y9938D1*
X12131Y9986D1*
X12179Y10034D1*
X12251Y10058D1*
X12346Y10082D1*
X12394Y10106D1*
X12418Y10153D1*
Y10201D1*
X12394Y10249D1*
X12322Y10273D1*
X12227D1*
X45752Y43728D2*
X45968D1*
X46039Y43751D1*
X46063Y43776D1*
X46087Y43823D1*
Y43895D1*
X46063Y43943D1*
X46039Y43967D1*
X45968Y43991D1*
X45752D1*
Y43488D1*
X46577Y43919D2*
X46529Y43967D1*
X46457Y43991D1*
X46362D1*
X46290Y43967D1*
X46242Y43919D1*
Y43871D1*
X46266Y43823D1*
X46290Y43799D1*
X46337Y43776D1*
X46481Y43728D1*
X46529Y43704D1*
X46553Y43679D1*
X46577Y43632D1*
Y43560D1*
X46529Y43513D1*
X46457Y43488D1*
X46362D1*
X46290Y43513D1*
X46242Y43560D1*
X46731Y43894D2*
X46779Y43919D1*
X46851Y43990D1*
Y43488D1*
X40275Y35809D2*
X40228Y35786D1*
X40180Y35738D1*
X40156Y35690D1*
X40132Y35618D1*
Y35499D1*
X40156Y35427D1*
X40180Y35379D1*
X40228Y35331D1*
X40275Y35308D1*
X40371D1*
X40419Y35331D1*
X40467Y35379D1*
X40490Y35427D1*
X40515Y35499D1*
Y35618D1*
X40490Y35690D1*
X40467Y35738D1*
X40419Y35786D1*
X40371Y35809D1*
X40275D1*
X40347Y35403D2*
X40490Y35260D1*
X40669Y35713D2*
X40717Y35738D1*
X40789Y35809D1*
Y35307D1*
X42811Y35756D2*
X42764Y35733D1*
X42716Y35685D1*
X42692Y35637D1*
X42667Y35565D1*
Y35446D1*
X42692Y35374D1*
X42716Y35326D1*
X42764Y35278D1*
X42811Y35254D1*
X42907D1*
X42955Y35278D1*
X43002Y35326D1*
X43026Y35374D1*
X43050Y35446D1*
Y35565D1*
X43026Y35637D1*
X43002Y35685D1*
X42955Y35733D1*
X42907Y35756D1*
X42811D1*
X42883Y35350D2*
X43026Y35206D1*
X43229Y35636D2*
Y35660D1*
X43253Y35708D1*
X43277Y35732D1*
X43325Y35756D1*
X43420D1*
X43468Y35732D1*
X43492Y35708D1*
X43516Y35660D1*
Y35612D1*
X43492Y35564D1*
X43444Y35493D1*
X43205Y35254D1*
X43540D1*
X40022Y32620D2*
X39975Y32597D1*
X39927Y32549D1*
X39903Y32500D1*
X39879Y32429D1*
Y32309D1*
X39903Y32237D1*
X39927Y32190D1*
X39975Y32142D1*
X40022Y32118D1*
X40118D1*
X40166Y32142D1*
X40214Y32190D1*
X40237Y32237D1*
X40262Y32309D1*
Y32429D1*
X40237Y32500D1*
X40214Y32549D1*
X40166Y32597D1*
X40118Y32620D1*
X40022D1*
X40094Y32214D2*
X40237Y32070D1*
X40464Y32619D2*
X40727D1*
X40584Y32428D1*
X40655D1*
X40703Y32404D1*
X40727Y32381D1*
X40751Y32309D1*
Y32261D1*
X40727Y32189D1*
X40679Y32141D1*
X40607Y32117D1*
X40535D1*
X40464Y32141D1*
X40440Y32166D1*
X40416Y32213D1*
X42741Y32804D2*
X42693Y32780D1*
X42645Y32732D1*
X42622Y32684D1*
X42597Y32612D1*
Y32493D1*
X42622Y32421D1*
X42645Y32374D1*
X42693Y32326D1*
X42741Y32302D1*
X42837D1*
X42885Y32326D1*
X42932Y32374D1*
X42956Y32421D1*
X42980Y32493D1*
Y32612D1*
X42956Y32684D1*
X42932Y32732D1*
X42885Y32780D1*
X42837Y32804D1*
X42741D1*
X42813Y32397D2*
X42956Y32254D1*
X43374Y32301D2*
Y32803D1*
X43135Y32469D1*
X43493D1*
X40028Y29796D2*
X39980Y29773D1*
X39932Y29724D1*
X39908Y29676D1*
X39884Y29605D1*
Y29485D1*
X39908Y29413D1*
X39932Y29366D1*
X39980Y29318D1*
X40028Y29294D1*
X40123D1*
X40171Y29318D1*
X40219Y29366D1*
X40243Y29413D1*
X40267Y29485D1*
Y29605D1*
X40243Y29676D1*
X40219Y29724D1*
X40171Y29773D1*
X40123Y29796D1*
X40028D1*
X40100Y29390D2*
X40243Y29246D1*
X40708Y29795D2*
X40469D1*
X40446Y29580D1*
X40469Y29604D1*
X40541Y29628D1*
X40613D1*
X40684Y29604D1*
X40733Y29556D1*
X40756Y29485D1*
Y29437D1*
X40733Y29365D1*
X40684Y29317D1*
X40613Y29293D1*
X40541D1*
X40469Y29317D1*
X40446Y29341D1*
X40421Y29389D1*
X42733Y29925D2*
X42685Y29902D1*
X42637Y29854D1*
X42614Y29806D1*
X42589Y29734D1*
Y29614D1*
X42614Y29543D1*
X42637Y29495D1*
X42685Y29447D1*
X42733Y29423D1*
X42829D1*
X42877Y29447D1*
X42924Y29495D1*
X42948Y29543D1*
X42972Y29614D1*
Y29734D1*
X42948Y29806D1*
X42924Y29854D1*
X42877Y29902D1*
X42829Y29925D1*
X42733D1*
X42805Y29519D2*
X42948Y29375D1*
X43414Y29853D2*
X43390Y29901D1*
X43318Y29924D1*
X43270D1*
X43199Y29901D1*
X43150Y29829D1*
X43127Y29709D1*
Y29590D1*
X43150Y29494D1*
X43199Y29446D1*
X43270Y29423D1*
X43294D1*
X43365Y29446D1*
X43414Y29494D1*
X43437Y29566D1*
Y29590D1*
X43414Y29662D1*
X43365Y29709D1*
X43294Y29733D1*
X43270D1*
X43199Y29709D1*
X43150Y29662D1*
X43127Y29590D1*
X39983Y27302D2*
X39936Y27278D1*
X39888Y27230D1*
X39864Y27182D1*
X39840Y27110D1*
Y26991D1*
X39864Y26919D1*
X39888Y26872D1*
X39936Y26823D1*
X39983Y26800D1*
X40079D1*
X40127Y26823D1*
X40174Y26872D1*
X40198Y26919D1*
X40223Y26991D1*
Y27110D1*
X40198Y27182D1*
X40174Y27230D1*
X40127Y27278D1*
X40079Y27302D1*
X39983D1*
X40055Y26895D2*
X40198Y26752D1*
X40473Y26799D2*
X40712Y27301D1*
X40377D1*
X42686Y27281D2*
X42638Y27258D1*
X42590Y27210D1*
X42567Y27162D1*
X42542Y27090D1*
Y26970D1*
X42567Y26898D1*
X42590Y26851D1*
X42638Y26803D1*
X42686Y26779D1*
X42782D1*
X42830Y26803D1*
X42877Y26851D1*
X42901Y26898D1*
X42925Y26970D1*
Y27090D1*
X42901Y27162D1*
X42877Y27210D1*
X42830Y27258D1*
X42782Y27281D1*
X42686D1*
X42758Y26875D2*
X42901Y26731D1*
X43199Y27280D2*
X43128Y27257D1*
X43103Y27209D1*
Y27161D1*
X43128Y27113D1*
X43175Y27089D1*
X43271Y27065D1*
X43343Y27042D1*
X43390Y26994D1*
X43414Y26946D1*
Y26874D1*
X43390Y26827D1*
X43367Y26802D1*
X43295Y26779D1*
X43199D1*
X43128Y26802D1*
X43103Y26827D1*
X43080Y26874D1*
Y26946D1*
X43103Y26994D1*
X43152Y27042D1*
X43223Y27065D1*
X43318Y27089D1*
X43367Y27113D1*
X43390Y27161D1*
Y27209D1*
X43367Y27257D1*
X43295Y27280D1*
X43199D1*
X55333Y9005D2*
X55286Y8981D1*
X55238Y8933D1*
X55214Y8885D1*
X55190Y8813D1*
Y8694D1*
X55214Y8622D1*
X55238Y8575D1*
X55286Y8527D1*
X55333Y8503D1*
X55429D1*
X55477Y8527D1*
X55524Y8575D1*
X55548Y8622D1*
X55573Y8694D1*
Y8813D1*
X55548Y8885D1*
X55524Y8933D1*
X55477Y8981D1*
X55429Y9005D1*
X55333D1*
X55405Y8598D2*
X55548Y8455D1*
X56038Y8837D2*
X56014Y8765D1*
X55966Y8717D1*
X55894Y8694D1*
X55871D1*
X55799Y8717D1*
X55751Y8765D1*
X55727Y8837D1*
Y8861D1*
X55751Y8933D1*
X55799Y8980D1*
X55871Y9004D1*
X55894D1*
X55966Y8980D1*
X56014Y8933D1*
X56038Y8837D1*
Y8717D1*
X56014Y8598D1*
X55966Y8526D1*
X55894Y8502D1*
X55847D1*
X55775Y8526D1*
X55751Y8574D1*
X12409Y27184D2*
Y27399D1*
X12385Y27471D1*
X12361Y27495D1*
X12314Y27519D1*
X12266D1*
X12218Y27495D1*
X12194Y27471D1*
X12170Y27399D1*
Y27184D1*
X12672D1*
X12409Y27352D2*
X12672Y27519D1*
X12266Y27674D2*
X12242Y27722D1*
X12171Y27793D1*
X12672D1*
X19837Y29775D2*
Y29990D1*
X19813Y30062D1*
X19789Y30086D1*
X19742Y30110D1*
X19694D1*
X19646Y30086D1*
X19622Y30062D1*
X19598Y29990D1*
Y29775D1*
X20100D1*
X19837Y29942D2*
X20100Y30110D1*
X19718Y30289D2*
X19694D1*
X19646Y30312D1*
X19622Y30336D1*
X19598Y30384D1*
Y30480D1*
X19622Y30527D1*
X19646Y30551D1*
X19694Y30575D1*
X19742D1*
X19790Y30551D1*
X19861Y30504D1*
X20100Y30264D1*
Y30599D1*
X20559Y27225D2*
Y27440D1*
X20534Y27511D1*
X20510Y27536D1*
X20463Y27560D1*
X20415D1*
X20367Y27536D1*
X20343Y27511D1*
X20319Y27440D1*
Y27225D1*
X20822D1*
X20559Y27392D2*
X20822Y27560D1*
X20320Y27762D2*
Y28025D1*
X20511Y27881D1*
Y27953D1*
X20535Y28001D1*
X20559Y28025D1*
X20630Y28049D1*
X20678D1*
X20750Y28025D1*
X20798Y27977D1*
X20822Y27905D1*
Y27833D1*
X20798Y27762D1*
X20774Y27738D1*
X20726Y27714D1*
X20574Y29762D2*
Y29977D1*
X20550Y30048D1*
X20526Y30073D1*
X20478Y30097D1*
X20430D1*
X20383Y30073D1*
X20358Y30048D1*
X20335Y29977D1*
Y29762D1*
X20837D1*
X20574Y29929D2*
X20837Y30097D1*
Y30490D2*
X20335D1*
X20670Y30251D1*
Y30610D1*
X55106Y10892D2*
X55321D1*
X55393Y10916D1*
X55417Y10940D1*
X55441Y10988D1*
Y11036D1*
X55417Y11083D1*
X55393Y11107D1*
X55321Y11131D1*
X55106D1*
Y10629D1*
X55274Y10892D2*
X55441Y10629D1*
X55882Y11131D2*
X55644D1*
X55620Y10916D1*
X55644Y10939D1*
X55716Y10964D1*
X55787D1*
X55859Y10939D1*
X55907Y10892D1*
X55931Y10820D1*
Y10773D1*
X55907Y10701D1*
X55859Y10653D1*
X55787Y10629D1*
X55716D1*
X55644Y10653D1*
X55620Y10677D1*
X55596Y10724D1*
X55538Y6077D2*
X55753D1*
X55825Y6102D1*
X55849Y6126D1*
X55873Y6173D1*
Y6221D1*
X55849Y6269D1*
X55825Y6293D1*
X55753Y6317D1*
X55538D1*
Y5814D1*
X55706Y6077D2*
X55873Y5814D1*
X56314Y6245D2*
X56291Y6292D1*
X56219Y6316D1*
X56171D1*
X56099Y6292D1*
X56051Y6221D1*
X56027Y6101D1*
Y5982D1*
X56051Y5886D1*
X56099Y5838D1*
X56171Y5814D1*
X56195D1*
X56266Y5838D1*
X56314Y5886D1*
X56338Y5958D1*
Y5982D1*
X56314Y6054D1*
X56266Y6101D1*
X56195Y6125D1*
X56171D1*
X56099Y6101D1*
X56051Y6054D1*
X56027Y5982D1*
X31214Y22647D2*
X31429D1*
X31501Y22671D1*
X31525Y22695D1*
X31549Y22742D1*
Y22790D1*
X31525Y22838D1*
X31501Y22862D1*
X31429Y22886D1*
X31214D1*
Y22384D1*
X31381Y22647D2*
X31549Y22384D1*
X31799D2*
X32038Y22886D1*
X31703D1*
X31246Y24307D2*
X31461D1*
X31533Y24332D1*
X31557Y24355D1*
X31581Y24403D1*
Y24451D1*
X31557Y24498D1*
X31533Y24523D1*
X31461Y24547D1*
X31246D1*
Y24044D1*
X31413Y24307D2*
X31581Y24044D1*
X31855Y24546D2*
X31783Y24522D1*
X31759Y24475D1*
Y24427D1*
X31783Y24379D1*
X31831Y24355D1*
X31927Y24331D1*
X31998Y24307D1*
X32046Y24259D1*
X32070Y24212D1*
Y24140D1*
X32046Y24092D1*
X32022Y24068D1*
X31950Y24044D1*
X31855D1*
X31783Y24068D1*
X31759Y24092D1*
X31735Y24140D1*
Y24212D1*
X31759Y24259D1*
X31807Y24307D1*
X31878Y24331D1*
X31974Y24355D1*
X32022Y24379D1*
X32046Y24427D1*
Y24475D1*
X32022Y24522D1*
X31950Y24546D1*
X31855D1*
X19719Y22821D2*
X19934D1*
X20006Y22845D1*
X20030Y22869D1*
X20054Y22917D1*
Y22965D1*
X20030Y23012D1*
X20006Y23037D1*
X19934Y23060D1*
X19719D1*
Y22558D1*
X19886Y22821D2*
X20054Y22558D1*
X20519Y22893D2*
X20495Y22821D1*
X20448Y22773D1*
X20376Y22749D1*
X20352D1*
X20280Y22773D1*
X20233Y22821D1*
X20208Y22893D1*
Y22917D1*
X20233Y22989D1*
X20280Y23036D1*
X20352Y23060D1*
X20376D1*
X20448Y23036D1*
X20495Y22989D1*
X20519Y22893D1*
Y22773D1*
X20495Y22654D1*
X20448Y22582D1*
X20376Y22558D1*
X20328D1*
X20256Y22582D1*
X20233Y22630D1*
X19631Y24329D2*
X19846D1*
X19918Y24353D1*
X19942Y24377D1*
X19966Y24424D1*
Y24472D1*
X19942Y24520D1*
X19918Y24544D1*
X19846Y24568D1*
X19631D1*
Y24065D1*
X19798Y24329D2*
X19966Y24065D1*
X20120Y24472D2*
X20168Y24496D1*
X20240Y24567D1*
Y24065D1*
X20538Y24567D2*
X20466Y24544D1*
X20418Y24472D1*
X20394Y24352D1*
Y24280D1*
X20418Y24161D1*
X20466Y24089D1*
X20538Y24065D1*
X20586D1*
X20657Y24089D1*
X20705Y24161D1*
X20729Y24280D1*
Y24352D1*
X20705Y24472D1*
X20657Y24544D1*
X20586Y24567D1*
X20538D1*
X20705Y24472D2*
X20418Y24161D1*
X7617Y22753D2*
X7832D1*
X7904Y22778D1*
X7928Y22801D1*
X7952Y22849D1*
Y22897D1*
X7928Y22944D1*
X7904Y22969D1*
X7832Y22993D1*
X7617D1*
Y22490D1*
X7785Y22753D2*
X7952Y22490D1*
X8107Y22896D2*
X8155Y22921D1*
X8226Y22992D1*
Y22490D1*
X8381Y22896D2*
X8429Y22921D1*
X8501Y22992D1*
Y22490D1*
X7487Y24502D2*
X7702D1*
X7774Y24526D1*
X7798Y24550D1*
X7822Y24597D1*
Y24645D1*
X7798Y24693D1*
X7774Y24717D1*
X7702Y24741D1*
X7487D1*
Y24239D1*
X7655Y24502D2*
X7822Y24239D1*
X7976Y24645D2*
X8024Y24669D1*
X8096Y24740D1*
Y24239D1*
X8275Y24621D2*
Y24645D1*
X8299Y24693D1*
X8323Y24717D1*
X8371Y24740D1*
X8466D1*
X8514Y24717D1*
X8538Y24693D1*
X8562Y24645D1*
Y24597D1*
X8538Y24549D1*
X8490Y24478D1*
X8251Y24239D1*
X8586D1*
X27316Y10988D2*
X27531D1*
X27603Y11013D1*
X27628Y11036D1*
X27651Y11084D1*
Y11132D1*
X27628Y11179D1*
X27603Y11204D1*
X27531Y11228D1*
X27316D1*
Y10725D1*
X27484Y10988D2*
X27651Y10725D1*
X27806Y11131D2*
X27854Y11156D1*
X27926Y11227D1*
Y10725D1*
X28128Y11227D2*
X28391D1*
X28248Y11036D1*
X28319D1*
X28367Y11012D1*
X28391Y10988D1*
X28415Y10916D1*
Y10869D1*
X28391Y10797D1*
X28343Y10749D1*
X28271Y10725D1*
X28200D1*
X28128Y10749D1*
X28104Y10773D1*
X28080Y10821D1*
X27337Y12538D2*
X27552D1*
X27623Y12563D1*
X27648Y12586D1*
X27671Y12634D1*
Y12682D1*
X27648Y12729D1*
X27623Y12754D1*
X27552Y12778D1*
X27337D1*
Y12275D1*
X27504Y12538D2*
X27671Y12275D1*
X27826Y12681D2*
X27874Y12706D1*
X27946Y12777D1*
Y12275D1*
X28339D2*
Y12777D1*
X28100Y12443D1*
X28459D1*
X15739Y10988D2*
X15954D1*
X16026Y11013D1*
X16050Y11036D1*
X16074Y11084D1*
Y11132D1*
X16050Y11179D1*
X16026Y11204D1*
X15954Y11228D1*
X15739D1*
Y10725D1*
X15906Y10988D2*
X16074Y10725D1*
X16228Y11131D2*
X16276Y11156D1*
X16348Y11227D1*
Y10725D1*
X16789Y11227D2*
X16551D1*
X16527Y11012D1*
X16551Y11036D1*
X16622Y11060D1*
X16694D1*
X16766Y11036D1*
X16814Y10988D1*
X16837Y10916D1*
Y10869D1*
X16814Y10797D1*
X16766Y10749D1*
X16694Y10725D1*
X16622D1*
X16551Y10749D1*
X16527Y10773D1*
X16503Y10821D1*
X15765Y12538D2*
X15980D1*
X16052Y12563D1*
X16077Y12586D1*
X16100Y12634D1*
Y12682D1*
X16077Y12729D1*
X16052Y12754D1*
X15980Y12778D1*
X15765D1*
Y12275D1*
X15933Y12538D2*
X16100Y12275D1*
X16255Y12681D2*
X16303Y12706D1*
X16375Y12777D1*
Y12275D1*
X16816Y12706D2*
X16792Y12753D1*
X16720Y12777D1*
X16673D1*
X16601Y12753D1*
X16553Y12681D1*
X16529Y12562D1*
Y12443D1*
X16553Y12347D1*
X16601Y12299D1*
X16673Y12275D1*
X16697D1*
X16768Y12299D1*
X16816Y12347D1*
X16840Y12419D1*
Y12443D1*
X16816Y12514D1*
X16768Y12562D1*
X16697Y12586D1*
X16673D1*
X16601Y12562D1*
X16553Y12514D1*
X16529Y12443D1*
X55360Y12309D2*
Y12524D1*
X55336Y12596D1*
X55312Y12621D1*
X55265Y12644D1*
X55216D1*
X55169Y12621D1*
X55145Y12596D1*
X55121Y12524D1*
Y12309D1*
X55623D1*
X55360Y12477D2*
X55623Y12644D1*
X55217Y12799D2*
X55193Y12847D1*
X55121Y12919D1*
X55623D1*
Y13169D2*
X55121Y13408D1*
Y13073D1*
X53430Y12375D2*
Y12590D1*
X53406Y12662D1*
X53382Y12686D1*
X53335Y12710D1*
X53287D1*
X53239Y12686D1*
X53215Y12662D1*
X53191Y12590D1*
Y12375D1*
X53693D1*
X53430Y12543D2*
X53693Y12710D1*
X53287Y12864D2*
X53263Y12913D1*
X53192Y12984D1*
X53693D1*
X53192Y13258D2*
X53215Y13187D1*
X53263Y13163D1*
X53311D1*
X53359Y13187D1*
X53383Y13234D1*
X53407Y13330D1*
X53430Y13402D1*
X53478Y13449D1*
X53526Y13473D1*
X53598D1*
X53645Y13449D1*
X53670Y13426D1*
X53693Y13354D1*
Y13258D1*
X53670Y13187D1*
X53645Y13163D1*
X53598Y13139D1*
X53526D1*
X53478Y13163D1*
X53430Y13211D1*
X53407Y13282D1*
X53383Y13378D1*
X53359Y13426D1*
X53311Y13449D1*
X53263D1*
X53215Y13426D1*
X53192Y13354D1*
Y13258D1*
X25124Y22650D2*
X25339D1*
X25411Y22674D1*
X25435Y22698D1*
X25459Y22745D1*
Y22793D1*
X25435Y22841D1*
X25411Y22865D1*
X25339Y22889D1*
X25124D1*
Y22386D1*
X25291Y22650D2*
X25459Y22386D1*
X25613Y22793D2*
X25661Y22817D1*
X25733Y22888D1*
Y22386D1*
X26199Y22721D2*
X26174Y22650D1*
X26127Y22601D1*
X26055Y22578D1*
X26031D1*
X25959Y22601D1*
X25912Y22650D1*
X25888Y22721D1*
Y22745D1*
X25912Y22817D1*
X25959Y22865D1*
X26031Y22888D1*
X26055D1*
X26127Y22865D1*
X26174Y22817D1*
X26199Y22721D1*
Y22601D1*
X26174Y22482D1*
X26127Y22410D1*
X26055Y22386D1*
X26007D1*
X25936Y22410D1*
X25912Y22458D1*
X24987Y24337D2*
X25202D1*
X25274Y24361D1*
X25298Y24385D1*
X25322Y24433D1*
Y24481D1*
X25298Y24528D1*
X25274Y24553D1*
X25202Y24576D1*
X24987D1*
Y24074D1*
X25154Y24337D2*
X25322Y24074D1*
X25500Y24456D2*
Y24480D1*
X25524Y24528D1*
X25548Y24552D1*
X25596Y24576D1*
X25692D1*
X25739Y24552D1*
X25763Y24528D1*
X25787Y24480D1*
Y24433D1*
X25763Y24385D1*
X25715Y24313D1*
X25476Y24074D1*
X25811D1*
X26109Y24576D2*
X26037Y24552D1*
X25989Y24480D1*
X25965Y24361D1*
Y24289D1*
X25989Y24170D1*
X26037Y24098D1*
X26109Y24074D1*
X26157D1*
X26229Y24098D1*
X26276Y24170D1*
X26300Y24289D1*
Y24361D1*
X26276Y24480D1*
X26229Y24552D1*
X26157Y24576D1*
X26109D1*
X26276Y24480D2*
X25989Y24170D1*
X13990Y22737D2*
X14205D1*
X14277Y22761D1*
X14301Y22785D1*
X14325Y22832D1*
Y22880D1*
X14301Y22928D1*
X14277Y22952D1*
X14205Y22976D1*
X13990D1*
Y22473D1*
X14157Y22737D2*
X14325Y22473D1*
X14503Y22856D2*
Y22880D1*
X14527Y22928D1*
X14551Y22952D1*
X14599Y22975D1*
X14695D1*
X14742Y22952D1*
X14766Y22928D1*
X14790Y22880D1*
Y22832D1*
X14766Y22784D1*
X14718Y22713D1*
X14479Y22473D1*
X14814D1*
X14968Y22880D2*
X15017Y22904D1*
X15088Y22975D1*
Y22473D1*
X13923Y24427D2*
X14138D1*
X14210Y24451D1*
X14235Y24475D1*
X14258Y24522D1*
Y24570D1*
X14235Y24618D1*
X14210Y24642D1*
X14138Y24666D1*
X13923D1*
Y24164D1*
X14091Y24427D2*
X14258Y24164D1*
X14437Y24546D2*
Y24570D1*
X14461Y24618D1*
X14485Y24642D1*
X14533Y24665D1*
X14628D1*
X14676Y24642D1*
X14700Y24618D1*
X14724Y24570D1*
Y24522D1*
X14700Y24474D1*
X14652Y24403D1*
X14413Y24164D1*
X14748D1*
X14926Y24546D2*
Y24570D1*
X14950Y24618D1*
X14974Y24642D1*
X15022Y24665D1*
X15118D1*
X15165Y24642D1*
X15189Y24618D1*
X15213Y24570D1*
Y24522D1*
X15189Y24474D1*
X15141Y24403D1*
X14902Y24164D1*
X15237D1*
X32903Y11012D2*
X33118D1*
X33190Y11036D1*
X33214Y11060D1*
X33238Y11107D1*
Y11155D1*
X33214Y11203D1*
X33190Y11227D1*
X33118Y11251D1*
X32903D1*
Y10748D1*
X33070Y11012D2*
X33238Y10748D1*
X33416Y11131D2*
Y11155D1*
X33440Y11203D1*
X33464Y11227D1*
X33512Y11250D1*
X33608D1*
X33655Y11227D1*
X33679Y11203D1*
X33703Y11155D1*
Y11107D1*
X33679Y11059D1*
X33631Y10988D1*
X33392Y10748D1*
X33727D1*
X33929Y11250D2*
X34192D1*
X34049Y11059D1*
X34121D1*
X34168Y11035D1*
X34192Y11012D1*
X34216Y10940D1*
Y10892D1*
X34192Y10820D1*
X34144Y10772D1*
X34073Y10748D1*
X34001D1*
X33929Y10772D1*
X33906Y10797D1*
X33881Y10844D1*
X32841Y12553D2*
X33056D1*
X33127Y12577D1*
X33152Y12601D1*
X33176Y12648D1*
Y12697D1*
X33152Y12744D1*
X33127Y12768D1*
X33056Y12792D1*
X32841D1*
Y12290D1*
X33008Y12553D2*
X33176Y12290D1*
X33354Y12672D2*
Y12696D1*
X33378Y12744D1*
X33402Y12768D1*
X33450Y12792D1*
X33545D1*
X33593Y12768D1*
X33617Y12744D1*
X33641Y12696D1*
Y12648D1*
X33617Y12600D1*
X33569Y12529D1*
X33330Y12290D1*
X33665D1*
X34059D2*
Y12792D1*
X33819Y12457D1*
X34178D1*
X21341Y10988D2*
X21556D1*
X21628Y11013D1*
X21652Y11036D1*
X21676Y11084D1*
Y11132D1*
X21652Y11179D1*
X21628Y11204D1*
X21556Y11228D1*
X21341D1*
Y10725D1*
X21508Y10988D2*
X21676Y10725D1*
X21854Y11108D2*
Y11131D1*
X21878Y11179D1*
X21902Y11203D1*
X21950Y11227D1*
X22046D1*
X22093Y11203D1*
X22117Y11179D1*
X22141Y11131D1*
Y11084D1*
X22117Y11036D1*
X22069Y10964D1*
X21830Y10725D1*
X22165D1*
X22606Y11227D2*
X22367D1*
X22344Y11012D1*
X22367Y11036D1*
X22439Y11060D1*
X22511D1*
X22582Y11036D1*
X22631Y10988D1*
X22654Y10916D1*
Y10869D1*
X22631Y10797D1*
X22582Y10749D1*
X22511Y10725D1*
X22439D1*
X22367Y10749D1*
X22344Y10773D1*
X22319Y10821D1*
X21337Y12538D2*
X21552D1*
X21624Y12563D1*
X21648Y12586D1*
X21672Y12634D1*
Y12682D1*
X21648Y12729D1*
X21624Y12754D1*
X21552Y12778D1*
X21337D1*
Y12275D1*
X21504Y12538D2*
X21672Y12275D1*
X21851Y12658D2*
Y12681D1*
X21874Y12729D1*
X21898Y12753D1*
X21946Y12777D1*
X22042D1*
X22089Y12753D1*
X22113Y12729D1*
X22137Y12681D1*
Y12634D1*
X22113Y12586D1*
X22066Y12514D1*
X21826Y12275D1*
X22161D1*
X22602Y12706D2*
X22579Y12753D1*
X22507Y12777D1*
X22459D1*
X22387Y12753D1*
X22339Y12681D1*
X22316Y12562D1*
Y12443D1*
X22339Y12347D1*
X22387Y12299D1*
X22459Y12275D1*
X22483D1*
X22554Y12299D1*
X22602Y12347D1*
X22626Y12419D1*
Y12443D1*
X22602Y12514D1*
X22554Y12562D1*
X22483Y12586D1*
X22459D1*
X22387Y12562D1*
X22339Y12514D1*
X22316Y12443D1*
X9721Y10988D2*
X9936D1*
X10008Y11013D1*
X10032Y11036D1*
X10056Y11084D1*
Y11132D1*
X10032Y11179D1*
X10008Y11204D1*
X9936Y11228D1*
X9721D1*
Y10725D1*
X9888Y10988D2*
X10056Y10725D1*
X10235Y11108D2*
Y11131D1*
X10258Y11179D1*
X10282Y11203D1*
X10330Y11227D1*
X10426D1*
X10473Y11203D1*
X10497Y11179D1*
X10521Y11131D1*
Y11084D1*
X10497Y11036D1*
X10450Y10964D1*
X10210Y10725D1*
X10545D1*
X10795D2*
X11035Y11227D1*
X10700D1*
X9729Y12538D2*
X9944D1*
X10016Y12563D1*
X10040Y12586D1*
X10064Y12634D1*
Y12682D1*
X10040Y12729D1*
X10016Y12754D1*
X9944Y12778D1*
X9729D1*
Y12275D1*
X9896Y12538D2*
X10064Y12275D1*
X10243Y12658D2*
Y12681D1*
X10266Y12729D1*
X10290Y12753D1*
X10338Y12777D1*
X10434D1*
X10481Y12753D1*
X10505Y12729D1*
X10529Y12681D1*
Y12634D1*
X10505Y12586D1*
X10458Y12514D1*
X10218Y12275D1*
X10553D1*
X10827Y12777D2*
X10756Y12753D1*
X10731Y12706D1*
Y12658D1*
X10756Y12610D1*
X10803Y12586D1*
X10899Y12562D1*
X10971Y12538D1*
X11018Y12490D1*
X11042Y12443D1*
Y12371D1*
X11018Y12323D1*
X10994Y12299D1*
X10923Y12275D1*
X10827D1*
X10756Y12299D1*
X10731Y12323D1*
X10708Y12371D1*
Y12443D1*
X10731Y12490D1*
X10779Y12538D1*
X10851Y12562D1*
X10946Y12586D1*
X10994Y12610D1*
X11018Y12658D1*
Y12706D1*
X10994Y12753D1*
X10923Y12777D1*
X10827D1*
X31588Y27223D2*
X31803D1*
X31875Y27247D1*
X31899Y27271D1*
X31923Y27319D1*
Y27367D1*
X31899Y27414D1*
X31875Y27439D1*
X31803Y27462D1*
X31588D1*
Y26960D1*
X31756Y27223D2*
X31923Y26960D1*
X32102Y27342D2*
Y27366D1*
X32126Y27414D1*
X32149Y27438D1*
X32198Y27462D1*
X32293D1*
X32341Y27438D1*
X32364Y27414D1*
X32389Y27366D1*
Y27319D1*
X32364Y27271D1*
X32317Y27199D1*
X32078Y26960D1*
X32413D1*
X32878Y27295D2*
X32854Y27223D1*
X32806Y27175D1*
X32734Y27151D1*
X32711D1*
X32639Y27175D1*
X32591Y27223D1*
X32567Y27295D1*
Y27319D1*
X32591Y27391D1*
X32639Y27438D1*
X32711Y27462D1*
X32734D1*
X32806Y27438D1*
X32854Y27391D1*
X32878Y27295D1*
Y27175D1*
X32854Y27056D1*
X32806Y26984D1*
X32734Y26960D1*
X32687D1*
X32615Y26984D1*
X32591Y27032D1*
X31524Y29631D2*
X31739D1*
X31811Y29656D1*
X31836Y29680D1*
X31859Y29727D1*
Y29775D1*
X31836Y29823D1*
X31811Y29847D1*
X31739Y29871D1*
X31524D1*
Y29368D1*
X31692Y29631D2*
X31859Y29368D1*
X32062Y29870D2*
X32324D1*
X32181Y29679D1*
X32253D1*
X32301Y29655D1*
X32324Y29631D1*
X32349Y29560D1*
Y29512D1*
X32324Y29440D1*
X32277Y29392D1*
X32205Y29368D1*
X32133D1*
X32062Y29392D1*
X32038Y29416D1*
X32014Y29464D1*
X32647Y29870D2*
X32575Y29846D1*
X32527Y29775D1*
X32503Y29655D1*
Y29583D1*
X32527Y29464D1*
X32575Y29392D1*
X32647Y29368D1*
X32694D1*
X32766Y29392D1*
X32814Y29464D1*
X32838Y29583D1*
Y29655D1*
X32814Y29775D1*
X32766Y29846D1*
X32694Y29870D1*
X32647D1*
X32814Y29775D2*
X32527Y29464D1*
X47601Y35086D2*
X47816D1*
X47888Y35110D1*
X47912Y35134D1*
X47936Y35182D1*
Y35230D1*
X47912Y35277D1*
X47888Y35302D1*
X47816Y35325D1*
X47601D1*
Y34823D1*
X47769Y35086D2*
X47936Y34823D1*
X48139Y35325D2*
X48401D1*
X48258Y35134D1*
X48330D1*
X48377Y35110D1*
X48401Y35086D1*
X48426Y35014D1*
Y34967D1*
X48401Y34895D1*
X48354Y34847D1*
X48282Y34823D1*
X48210D1*
X48139Y34847D1*
X48115Y34871D1*
X48091Y34919D1*
X48580Y35229D2*
X48628Y35254D1*
X48700Y35325D1*
Y34823D1*
X47508Y33513D2*
X47723D1*
X47795Y33537D1*
X47819Y33561D1*
X47843Y33609D1*
Y33657D1*
X47819Y33704D1*
X47795Y33729D1*
X47723Y33752D1*
X47508D1*
Y33250D1*
X47676Y33513D2*
X47843Y33250D1*
X48046Y33752D2*
X48308D1*
X48165Y33561D1*
X48237D1*
X48284Y33537D1*
X48308Y33513D1*
X48333Y33441D1*
Y33394D1*
X48308Y33322D1*
X48261Y33274D1*
X48189Y33250D1*
X48117D1*
X48046Y33274D1*
X48022Y33298D1*
X47998Y33346D1*
X48511Y33632D2*
Y33656D1*
X48535Y33704D1*
X48559Y33728D1*
X48607Y33752D1*
X48703D1*
X48750Y33728D1*
X48774Y33704D1*
X48798Y33656D1*
Y33609D1*
X48774Y33561D1*
X48726Y33489D1*
X48487Y33250D1*
X48822D1*
X47501Y31991D2*
X47716D1*
X47787Y32015D1*
X47812Y32039D1*
X47835Y32086D1*
Y32134D1*
X47812Y32182D1*
X47787Y32206D1*
X47716Y32230D1*
X47501D1*
Y31728D1*
X47668Y31991D2*
X47835Y31728D1*
X48038Y32229D2*
X48300D1*
X48157Y32038D1*
X48229D1*
X48277Y32014D1*
X48300Y31991D1*
X48325Y31919D1*
Y31871D1*
X48300Y31799D1*
X48253Y31751D1*
X48181Y31728D1*
X48109D1*
X48038Y31751D1*
X48014Y31776D1*
X47990Y31823D1*
X48527Y32229D2*
X48790D1*
X48647Y32038D1*
X48718D1*
X48766Y32014D1*
X48790Y31991D1*
X48814Y31919D1*
Y31871D1*
X48790Y31799D1*
X48742Y31751D1*
X48670Y31728D1*
X48599D1*
X48527Y31751D1*
X48503Y31776D1*
X48479Y31823D1*
X47470Y30509D2*
X47685D1*
X47757Y30533D1*
X47781Y30557D1*
X47805Y30605D1*
Y30653D1*
X47781Y30700D1*
X47757Y30725D1*
X47685Y30748D1*
X47470D1*
Y30246D1*
X47637Y30509D2*
X47805Y30246D1*
X48007Y30748D2*
X48270D1*
X48127Y30557D1*
X48198D1*
X48246Y30533D1*
X48270Y30509D1*
X48294Y30437D1*
Y30390D1*
X48270Y30318D1*
X48222Y30270D1*
X48150Y30246D1*
X48079D1*
X48007Y30270D1*
X47983Y30294D1*
X47959Y30342D1*
X48688Y30246D2*
Y30748D1*
X48449Y30413D1*
X48807D1*
X47503Y28974D2*
X47718D1*
X47790Y28998D1*
X47814Y29022D1*
X47838Y29070D1*
Y29118D1*
X47814Y29165D1*
X47790Y29190D1*
X47718Y29213D1*
X47503D1*
Y28711D1*
X47671Y28974D2*
X47838Y28711D1*
X48041Y29213D2*
X48303D1*
X48160Y29022D1*
X48232D1*
X48279Y28998D1*
X48303Y28974D1*
X48328Y28902D1*
Y28855D1*
X48303Y28783D1*
X48256Y28735D1*
X48184Y28711D1*
X48112D1*
X48041Y28735D1*
X48017Y28759D1*
X47993Y28807D1*
X48769Y29213D2*
X48530D1*
X48506Y28998D1*
X48530Y29022D1*
X48602Y29046D1*
X48673D1*
X48745Y29022D1*
X48793Y28974D1*
X48817Y28902D1*
Y28855D1*
X48793Y28783D1*
X48745Y28735D1*
X48673Y28711D1*
X48602D1*
X48530Y28735D1*
X48506Y28759D1*
X48482Y28807D1*
X47488Y27468D2*
X47703D1*
X47775Y27492D1*
X47799Y27516D1*
X47823Y27564D1*
Y27612D1*
X47799Y27659D1*
X47775Y27684D1*
X47703Y27707D1*
X47488D1*
Y27205D1*
X47655Y27468D2*
X47823Y27205D1*
X48025Y27707D2*
X48288D1*
X48144Y27516D1*
X48216D1*
X48264Y27492D1*
X48288Y27468D1*
X48312Y27396D1*
Y27349D1*
X48288Y27277D1*
X48240Y27229D1*
X48168Y27205D1*
X48096D1*
X48025Y27229D1*
X48001Y27253D1*
X47977Y27301D1*
X48753Y27636D2*
X48729Y27683D1*
X48658Y27707D1*
X48610D1*
X48538Y27683D1*
X48490Y27611D1*
X48466Y27492D1*
Y27373D1*
X48490Y27277D1*
X48538Y27229D1*
X48610Y27205D1*
X48634D1*
X48705Y27229D1*
X48753Y27277D1*
X48777Y27349D1*
Y27373D1*
X48753Y27444D1*
X48705Y27492D1*
X48634Y27516D1*
X48610D1*
X48538Y27492D1*
X48490Y27444D1*
X48466Y27373D1*
X47459Y25949D2*
X47674D1*
X47746Y25973D1*
X47770Y25997D1*
X47794Y26045D1*
Y26093D1*
X47770Y26140D1*
X47746Y26165D1*
X47674Y26188D1*
X47459D1*
Y25686D1*
X47627Y25949D2*
X47794Y25686D1*
X47997Y26188D2*
X48259D1*
X48116Y25997D1*
X48188D1*
X48235Y25973D1*
X48259Y25949D1*
X48283Y25877D1*
Y25830D1*
X48259Y25758D1*
X48212Y25710D1*
X48140Y25686D1*
X48068D1*
X47997Y25710D1*
X47973Y25734D1*
X47949Y25782D1*
X48533Y25686D2*
X48773Y26188D1*
X48438D1*
X47441Y24528D2*
X47656D1*
X47728Y24552D1*
X47752Y24576D1*
X47776Y24623D1*
Y24671D1*
X47752Y24719D1*
X47728Y24743D1*
X47656Y24767D1*
X47441D1*
Y24264D1*
X47608Y24528D2*
X47776Y24264D1*
X47978Y24766D2*
X48241D1*
X48097Y24575D1*
X48169D1*
X48217Y24551D1*
X48241Y24528D1*
X48265Y24456D1*
Y24408D1*
X48241Y24336D1*
X48193Y24288D1*
X48121Y24264D1*
X48049D1*
X47978Y24288D1*
X47954Y24313D1*
X47930Y24360D1*
X48539Y24766D2*
X48467Y24743D1*
X48443Y24695D1*
Y24647D1*
X48467Y24599D1*
X48515Y24575D1*
X48611Y24551D1*
X48682Y24528D1*
X48730Y24479D1*
X48754Y24432D1*
Y24360D1*
X48730Y24313D1*
X48706Y24288D1*
X48634Y24264D1*
X48539D1*
X48467Y24288D1*
X48443Y24313D1*
X48419Y24360D1*
Y24432D1*
X48443Y24479D1*
X48491Y24528D1*
X48562Y24551D1*
X48658Y24575D1*
X48706Y24599D1*
X48730Y24647D1*
Y24695D1*
X48706Y24743D1*
X48634Y24766D1*
X48539D1*
X49400Y35080D2*
X49615D1*
X49687Y35104D1*
X49712Y35128D1*
X49735Y35175D1*
Y35223D1*
X49712Y35271D1*
X49687Y35295D1*
X49615Y35319D1*
X49400D1*
Y34816D1*
X49568Y35080D2*
X49735Y34816D1*
X49938Y35318D2*
X50200D1*
X50057Y35127D1*
X50129D1*
X50177Y35103D1*
X50200Y35080D1*
X50225Y35008D1*
Y34960D1*
X50200Y34888D1*
X50153Y34840D1*
X50081Y34816D1*
X50009D1*
X49938Y34840D1*
X49914Y34865D1*
X49890Y34912D1*
X50690Y35151D2*
X50666Y35080D1*
X50618Y35031D1*
X50547Y35008D1*
X50523D1*
X50451Y35031D1*
X50403Y35080D1*
X50379Y35151D1*
Y35175D1*
X50403Y35247D1*
X50451Y35295D1*
X50523Y35318D1*
X50547D1*
X50618Y35295D1*
X50666Y35247D1*
X50690Y35151D1*
Y35031D1*
X50666Y34912D1*
X50618Y34840D1*
X50547Y34816D1*
X50499D1*
X50427Y34840D1*
X50403Y34888D1*
X49330Y33521D2*
X49545D1*
X49617Y33545D1*
X49641Y33569D1*
X49665Y33617D1*
Y33665D1*
X49641Y33712D1*
X49617Y33737D1*
X49545Y33760D1*
X49330D1*
Y33258D1*
X49498Y33521D2*
X49665Y33258D1*
X50059D2*
Y33760D1*
X49819Y33425D1*
X50178D1*
X50476Y33760D2*
X50404Y33736D1*
X50356Y33664D1*
X50332Y33545D1*
Y33473D1*
X50356Y33353D1*
X50404Y33282D1*
X50476Y33258D1*
X50524D1*
X50596Y33282D1*
X50643Y33353D1*
X50667Y33473D1*
Y33545D1*
X50643Y33664D1*
X50596Y33736D1*
X50524Y33760D1*
X50476D1*
X50643Y33664D2*
X50356Y33353D1*
X49441Y31996D2*
X49656D1*
X49728Y32020D1*
X49752Y32044D1*
X49776Y32091D1*
Y32140D1*
X49752Y32187D1*
X49728Y32211D1*
X49656Y32235D1*
X49441D1*
Y31733D1*
X49608Y31996D2*
X49776Y31733D1*
X50170D2*
Y32235D1*
X49930Y31900D1*
X50289D1*
X50443Y32139D2*
X50492Y32163D1*
X50563Y32235D1*
Y31733D1*
X49310Y30503D2*
X49525D1*
X49597Y30527D1*
X49621Y30551D1*
X49645Y30598D1*
Y30646D1*
X49621Y30694D1*
X49597Y30718D1*
X49525Y30742D1*
X49310D1*
Y30240D1*
X49477Y30503D2*
X49645Y30240D1*
X50039D2*
Y30741D1*
X49799Y30407D1*
X50158D1*
X50337Y30622D2*
Y30646D1*
X50361Y30694D1*
X50384Y30718D1*
X50432Y30741D1*
X50528D1*
X50576Y30718D1*
X50599Y30694D1*
X50624Y30646D1*
Y30598D1*
X50599Y30550D1*
X50552Y30479D1*
X50312Y30240D1*
X50647D1*
X49307Y28998D2*
X49522D1*
X49593Y29022D1*
X49618Y29046D1*
X49642Y29093D1*
Y29141D1*
X49618Y29189D1*
X49593Y29213D1*
X49522Y29237D1*
X49307D1*
Y28734D1*
X49474Y28998D2*
X49642Y28734D1*
X50035D2*
Y29236D1*
X49796Y28902D1*
X50155D1*
X50357Y29236D2*
X50620D1*
X50476Y29045D1*
X50548D1*
X50596Y29021D1*
X50620Y28998D1*
X50644Y28926D1*
Y28878D1*
X50620Y28806D1*
X50572Y28758D1*
X50500Y28734D1*
X50428D1*
X50357Y28758D1*
X50333Y28783D1*
X50309Y28830D1*
X49255Y27461D2*
X49470D1*
X49542Y27485D1*
X49567Y27509D1*
X49590Y27556D1*
Y27604D1*
X49567Y27652D1*
X49542Y27676D1*
X49470Y27700D1*
X49255D1*
Y27198D1*
X49423Y27461D2*
X49590Y27198D1*
X49984D2*
Y27699D1*
X49745Y27365D1*
X50103D1*
X50497Y27198D2*
Y27699D1*
X50258Y27365D1*
X50616D1*
X49288Y25949D2*
X49503D1*
X49575Y25973D1*
X49599Y25997D1*
X49623Y26045D1*
Y26093D1*
X49599Y26140D1*
X49575Y26164D1*
X49503Y26188D1*
X49288D1*
Y25686D1*
X49455Y25949D2*
X49623Y25686D1*
X50017D2*
Y26188D1*
X49777Y25853D1*
X50136D1*
X50577Y26188D2*
X50339D1*
X50315Y25973D1*
X50339Y25996D1*
X50410Y26021D1*
X50482D1*
X50554Y25996D1*
X50602Y25949D1*
X50625Y25877D1*
Y25830D1*
X50602Y25758D1*
X50554Y25710D1*
X50482Y25686D1*
X50410D1*
X50339Y25710D1*
X50315Y25734D1*
X50290Y25781D1*
X49323Y24530D2*
X49538D1*
X49610Y24554D1*
X49634Y24578D1*
X49658Y24626D1*
Y24674D1*
X49634Y24721D1*
X49610Y24746D1*
X49538Y24769D1*
X49323D1*
Y24267D1*
X49491Y24530D2*
X49658Y24267D1*
X50052D2*
Y24769D1*
X49812Y24435D1*
X50171D1*
X50612Y24698D2*
X50589Y24745D1*
X50517Y24769D1*
X50469D1*
X50397Y24745D1*
X50349Y24673D1*
X50326Y24554D1*
Y24435D1*
X50349Y24339D1*
X50397Y24291D1*
X50469Y24267D1*
X50493D1*
X50564Y24291D1*
X50612Y24339D1*
X50636Y24411D1*
Y24435D1*
X50612Y24506D1*
X50564Y24554D1*
X50493Y24578D1*
X50469D1*
X50397Y24554D1*
X50349Y24506D1*
X50326Y24435D1*
X8607Y31670D2*
X8559Y31718D1*
X8487Y31742D1*
X8392D1*
X8320Y31718D1*
X8272Y31670D1*
Y31623D1*
X8296Y31575D1*
X8320Y31551D1*
X8367Y31527D1*
X8511Y31479D1*
X8559Y31455D1*
X8583Y31431D1*
X8607Y31384D1*
Y31312D1*
X8559Y31264D1*
X8487Y31240D1*
X8392D1*
X8320Y31264D1*
X8272Y31312D1*
X8761Y31742D2*
X8881Y31240D1*
X9000Y31742D1*
X9120Y31240D1*
X9240Y31742D1*
X9394Y31646D2*
X9442Y31670D1*
X9514Y31742D1*
Y31240D1*
X16093Y31690D2*
X16046Y31738D1*
X15974Y31762D1*
X15878D1*
X15807Y31738D1*
X15759Y31690D1*
Y31643D1*
X15783Y31595D1*
X15807Y31571D1*
X15854Y31547D1*
X15998Y31499D1*
X16046Y31475D1*
X16070Y31451D1*
X16093Y31404D1*
Y31332D1*
X16046Y31284D1*
X15974Y31260D1*
X15878D1*
X15807Y31284D1*
X15759Y31332D1*
X16248Y31762D2*
X16368Y31260D1*
X16487Y31762D1*
X16607Y31260D1*
X16726Y31762D1*
X16905Y31642D2*
Y31666D1*
X16929Y31714D1*
X16953Y31738D1*
X17001Y31762D1*
X17096D1*
X17144Y31738D1*
X17168Y31714D1*
X17192Y31666D1*
Y31619D1*
X17168Y31570D1*
X17120Y31499D1*
X16881Y31260D1*
X17216D1*
X23499Y31875D2*
X23452Y31923D1*
X23380Y31947D1*
X23284D1*
X23212Y31923D1*
X23164Y31875D1*
Y31827D1*
X23189Y31779D1*
X23212Y31755D1*
X23260Y31732D1*
X23404Y31683D1*
X23452Y31660D1*
X23475Y31635D1*
X23499Y31588D1*
Y31516D1*
X23452Y31468D1*
X23380Y31444D1*
X23284D1*
X23212Y31468D1*
X23164Y31516D1*
X23654Y31947D2*
X23773Y31444D1*
X23893Y31947D1*
X24012Y31444D1*
X24132Y31947D1*
X24335Y31946D2*
X24597D1*
X24454Y31755D1*
X24526D1*
X24573Y31731D1*
X24597Y31707D1*
X24621Y31635D1*
Y31588D1*
X24597Y31516D1*
X24550Y31468D1*
X24478Y31444D1*
X24406D1*
X24335Y31468D1*
X24311Y31492D1*
X24287Y31540D1*
X41715Y22447D2*
Y22089D1*
X41738Y22017D1*
X41786Y21969D1*
X41858Y21945D1*
X41906D1*
X41978Y21969D1*
X42026Y22017D1*
X42049Y22089D1*
Y22447D1*
X42228Y22327D2*
Y22351D1*
X42252Y22399D1*
X42276Y22423D1*
X42324Y22447D1*
X42419D1*
X42467Y22423D1*
X42491Y22399D1*
X42515Y22351D1*
Y22304D1*
X42491Y22255D1*
X42443Y22184D1*
X42204Y21945D1*
X42539D1*
X74040Y25958D2*
Y25599D1*
X74064Y25527D1*
X74112Y25480D1*
X74184Y25455D1*
X74232D1*
X74303Y25480D1*
X74351Y25527D1*
X74375Y25599D1*
Y25958D1*
X74530Y25862D2*
X74578Y25886D1*
X74650Y25957D1*
Y25455D1*
X74948Y25957D2*
X74876Y25933D1*
X74828Y25862D1*
X74804Y25742D1*
Y25670D1*
X74828Y25551D1*
X74876Y25479D1*
X74948Y25455D1*
X74995D1*
X75067Y25479D1*
X75115Y25551D1*
X75139Y25670D1*
Y25742D1*
X75115Y25862D1*
X75067Y25933D1*
X74995Y25957D1*
X74948D1*
X75115Y25862D2*
X74828Y25551D1*
X14739Y51899D2*
X14954D1*
X15025Y51923D1*
X15050Y51947D1*
X15073Y51995D1*
Y52067D1*
X15050Y52114D1*
X15025Y52139D1*
X14954Y52162D1*
X14739D1*
Y51660D1*
X15252Y52042D2*
Y52066D1*
X15276Y52114D1*
X15300Y52138D1*
X15348Y52162D1*
X15443D1*
X15491Y52138D1*
X15515Y52114D1*
X15539Y52066D1*
Y52019D1*
X15515Y51971D1*
X15467Y51899D1*
X15228Y51660D1*
X15563D1*
X26116Y51899D2*
X26332D1*
X26403Y51923D1*
X26428Y51947D1*
X26451Y51995D1*
Y52067D1*
X26428Y52114D1*
X26403Y52139D1*
X26332Y52162D1*
X26116D1*
Y51660D1*
X26654Y52162D2*
X26916D1*
X26773Y51971D1*
X26845D1*
X26893Y51947D1*
X26916Y51923D1*
X26941Y51851D1*
Y51804D1*
X26916Y51732D1*
X26869Y51684D1*
X26797Y51660D1*
X26725D1*
X26654Y51684D1*
X26630Y51708D1*
X26606Y51756D1*
X37483Y51939D2*
X37698D1*
X37769Y51962D1*
X37794Y51987D1*
X37817Y52034D1*
Y52106D1*
X37794Y52154D1*
X37769Y52178D1*
X37698Y52202D1*
X37483D1*
Y51699D1*
X38211D2*
Y52201D1*
X37972Y51867D1*
X38331D1*
X56904Y51899D2*
X57119D1*
X57191Y51923D1*
X57215Y51947D1*
X57239Y51995D1*
Y52067D1*
X57215Y52114D1*
X57191Y52139D1*
X57119Y52162D1*
X56904D1*
Y51660D1*
X57680Y52162D2*
X57441D1*
X57417Y51947D1*
X57441Y51971D1*
X57513Y51995D1*
X57584D1*
X57656Y51971D1*
X57704Y51923D1*
X57728Y51851D1*
Y51804D1*
X57704Y51732D1*
X57656Y51684D1*
X57584Y51660D1*
X57513D1*
X57441Y51684D1*
X57417Y51708D1*
X57393Y51756D1*
X68412Y51899D2*
X68628D1*
X68699Y51923D1*
X68723Y51947D1*
X68747Y51995D1*
Y52067D1*
X68723Y52114D1*
X68699Y52139D1*
X68628Y52162D1*
X68412D1*
Y51660D1*
X69188Y52091D2*
X69164Y52138D1*
X69093Y52162D1*
X69045D1*
X68973Y52138D1*
X68925Y52066D1*
X68901Y51947D1*
Y51827D1*
X68925Y51732D1*
X68973Y51684D1*
X69045Y51660D1*
X69069D1*
X69140Y51684D1*
X69188Y51732D1*
X69212Y51804D1*
Y51827D1*
X69188Y51899D1*
X69140Y51947D1*
X69069Y51971D1*
X69045D1*
X68973Y51947D1*
X68925Y51899D1*
X68901Y51827D1*
X79817Y51899D2*
X80033D1*
X80104Y51923D1*
X80128Y51947D1*
X80152Y51995D1*
Y52067D1*
X80128Y52114D1*
X80104Y52139D1*
X80033Y52162D1*
X79817D1*
Y51660D1*
X80402D2*
X80641Y52162D1*
X80307D1*
X88499Y48553D2*
X88714D1*
X88785Y48577D1*
X88810Y48601D1*
X88834Y48648D1*
Y48720D1*
X88810Y48768D1*
X88785Y48792D1*
X88714Y48816D1*
X88499D1*
Y48314D1*
X89107Y48815D2*
X89036Y48792D1*
X89012Y48744D1*
Y48696D1*
X89036Y48648D1*
X89084Y48624D1*
X89179Y48600D1*
X89251Y48577D1*
X89299Y48529D1*
X89322Y48481D1*
Y48409D1*
X89299Y48362D1*
X89275Y48337D1*
X89203Y48314D1*
X89107D1*
X89036Y48337D1*
X89012Y48362D1*
X88988Y48409D1*
Y48481D1*
X89012Y48529D1*
X89060Y48577D1*
X89131Y48600D1*
X89227Y48624D1*
X89275Y48648D1*
X89299Y48696D1*
Y48744D1*
X89275Y48792D1*
X89203Y48815D1*
X89107D1*
%LNBoardOutline*%
X3940Y3940D2*
D11*
X91440D1*
Y51440D1*
X3940D1*
Y3940D1*
M02*
