G04 DipTrace 2.4.0.2*
%INbottom.gbr*%
%MOIN*%
%ADD11C,0.006*%
%ADD13C,0.0236*%
%ADD14C,0.0079*%
%ADD15C,0.0209*%
%ADD16C,0.0551*%
%ADD17C,0.025*%
%ADD18C,0.02*%
%ADD19C,0.08*%
%ADD20R,0.0591X0.0512*%
%ADD21C,0.1181*%
%ADD23R,0.0524X0.0209*%
%ADD24C,0.1575*%
%FSLAX44Y44*%
G04*
G70*
G90*
G75*
G01*
%LNBottom*%
%LPD*%
X8690Y5253D2*
D13*
Y5928D1*
X8868Y6106D1*
Y7890D1*
X8474Y8283D1*
X7084D1*
X6690Y8677D1*
Y10503D1*
X8001Y7275D2*
Y6913D1*
X7411Y6322D1*
X6629D1*
Y7004D1*
X5690Y5253D2*
D14*
X4237Y6705D1*
Y13096D1*
X4395Y13253D1*
X6003D1*
X6690Y5253D2*
D13*
Y5440D1*
X5940Y6190D1*
Y7503D1*
X6128Y7690D1*
X6567D1*
X6629Y7752D1*
X6254D1*
X6003Y8003D1*
Y11003D1*
X6253Y11253D1*
X6688D1*
X6690Y11251D1*
X7994D1*
X8001Y11244D1*
X6003Y12753D2*
D15*
Y12531D1*
D13*
Y11939D1*
X6690Y11251D1*
X7204Y13253D2*
D15*
X6815D1*
D13*
X6628Y13066D1*
Y12816D1*
X6565Y12753D1*
X6383D1*
D15*
X6003D1*
X8001Y9260D2*
D13*
X8868D1*
Y8692D1*
X9692D1*
X5440Y19504D2*
D16*
X5165Y19228D1*
Y17368D1*
X5049Y17252D1*
X7440Y19504D2*
X7716Y19228D1*
Y17537D1*
X8001Y17252D1*
X9692Y9440D2*
D15*
Y12387D1*
X9325Y12753D1*
X7204D1*
X4340Y14505D2*
D17*
X9979D1*
X4340Y14256D2*
X9979D1*
X4340Y14008D2*
X5452D1*
X7756D2*
X9979D1*
X4340Y13759D2*
X5452D1*
X7756D2*
X9979D1*
X4340Y13510D2*
X5452D1*
X7783D2*
X9979D1*
X7783Y13262D2*
X9979D1*
X9651Y13013D2*
X9979D1*
X4514Y12764D2*
X5425D1*
X4514Y12515D2*
X5425D1*
X4514Y12267D2*
X9226D1*
X4514Y12018D2*
X4662D1*
X5440D2*
X7554D1*
X8451D2*
X9269D1*
X5748Y11769D2*
X6077D1*
X8737D2*
X9269D1*
X5885Y11521D2*
X6077D1*
X8865D2*
X9269D1*
X5928Y11272D2*
X6077D1*
X8908D2*
X9269D1*
X5901Y11023D2*
X6077D1*
X8881D2*
X9269D1*
X5787Y10775D2*
X6077D1*
X8776D2*
X9269D1*
X5537Y10526D2*
X6077D1*
X7303D2*
X7464D1*
X8541D2*
X9269D1*
X4514Y10277D2*
X6077D1*
X7303D2*
X9269D1*
X4514Y10029D2*
X4649D1*
X5447D2*
X6077D1*
X7303D2*
X7542D1*
X8459D2*
X9269D1*
X5752Y9780D2*
X6253D1*
X7127D2*
X7260D1*
X8740D2*
X9077D1*
X5885Y9531D2*
X6253D1*
X5928Y9283D2*
X6253D1*
X5901Y9034D2*
X6253D1*
X5787Y8785D2*
X6253D1*
X5529Y8536D2*
X6280D1*
X4514Y8288D2*
X6015D1*
X5459Y8039D2*
X6015D1*
X5756Y7790D2*
X6015D1*
X5885Y7542D2*
X6018D1*
X5783Y6796D2*
X6015D1*
X5522Y6547D2*
X6015D1*
X5026Y6298D2*
X6194D1*
X7994D2*
X8433D1*
X5276Y6050D2*
X6296D1*
X7744D2*
X8272D1*
X5990Y5801D2*
X6241D1*
X4340Y4557D2*
X9979D1*
X5240Y4836D2*
X5210Y4795D1*
X5119Y4709D1*
X5015Y4641D1*
X4899Y4593D1*
X4778Y4566D1*
X4653Y4561D1*
X4529Y4579D1*
X4411Y4619D1*
X4312Y4674D1*
X4315Y4378D1*
X10003D1*
Y4663D1*
X9858Y4609D1*
X9735Y4589D1*
X9610Y4592D1*
X9488Y4619D1*
X9373Y4668D1*
X9269Y4738D1*
X9211Y4795D1*
X9119Y4709D1*
X9015Y4641D1*
X8899Y4593D1*
X8778Y4566D1*
X8653Y4561D1*
X8529Y4579D1*
X8411Y4619D1*
X8302Y4679D1*
X8192Y4773D1*
X8079Y4680D1*
X7970Y4619D1*
X7851Y4579D1*
X7728Y4561D1*
X7603Y4566D1*
X7481Y4592D1*
X7366Y4641D1*
X7261Y4709D1*
X7190Y4773D1*
X7079Y4680D1*
X6970Y4619D1*
X6851Y4579D1*
X6728Y4561D1*
X6603Y4566D1*
X6481Y4592D1*
X6366Y4641D1*
X6261Y4709D1*
X6171Y4795D1*
X6139Y4834D1*
X6012Y4730D1*
X5900Y4676D1*
X5779Y4645D1*
X5654Y4640D1*
X5531Y4660D1*
X5414Y4704D1*
X5309Y4771D1*
X5245Y4834D1*
X5479Y5826D2*
X5549Y5850D1*
X5673Y5866D1*
X5797Y5857D1*
X5917Y5823D1*
X6028Y5765D1*
X6137Y5671D1*
X6241Y5780D1*
X6343Y5852D1*
X6457Y5905D1*
X6525Y5925D1*
X6394Y5985D1*
X6304Y6071D1*
X6244Y6180D1*
X6218Y6322D1*
X6217Y6456D1*
X6041D1*
X6045Y7552D1*
X6041Y7604D1*
Y8300D1*
X6487D1*
X6400Y8387D1*
X6326Y8487D1*
X6282Y8637D1*
X6280Y9955D1*
X6103D1*
X6106Y11052D1*
X6103Y11103D1*
Y11800D1*
X7278D1*
Y11750D1*
X7382Y11874D1*
X7498Y11969D1*
X7628Y12044D1*
X7768Y12096D1*
X7915Y12123D1*
X8065Y12125D1*
X8213Y12101D1*
X8355Y12053D1*
X8487Y11982D1*
X8605Y11889D1*
X8705Y11778D1*
X8785Y11651D1*
X8843Y11513D1*
X8876Y11367D1*
X8884Y11219D1*
X8867Y11070D1*
X8825Y10926D1*
X8760Y10792D1*
X8672Y10670D1*
X8566Y10565D1*
X8443Y10479D1*
X8307Y10415D1*
X8163Y10376D1*
X8014Y10361D1*
X7864Y10372D1*
X7719Y10407D1*
X7581Y10467D1*
X7456Y10550D1*
X7346Y10652D1*
X7278Y10738D1*
Y9955D1*
X7102D1*
X7101Y8851D1*
X7254Y8694D1*
X7270Y8766D1*
X7207Y8874D1*
X7161Y8990D1*
X7131Y9111D1*
X7119Y9236D1*
X7124Y9360D1*
X7147Y9483D1*
X7187Y9601D1*
X7244Y9713D1*
X7315Y9815D1*
X7400Y9907D1*
X7498Y9985D1*
X7605Y10049D1*
X7720Y10097D1*
X7841Y10128D1*
X7965Y10142D1*
X8090Y10138D1*
X8213Y10117D1*
X8332Y10079D1*
X8444Y10024D1*
X8548Y9954D1*
X8640Y9870D1*
X8720Y9773D1*
X8783Y9670D1*
X8868D1*
X8991Y9651D1*
X9086Y9608D1*
X9104Y9641D1*
Y9988D1*
X9295D1*
Y12225D1*
X9160Y12358D1*
X6649Y12357D1*
X6653Y13150D1*
X6649Y13232D1*
Y13650D1*
X6677D1*
Y14123D1*
X7730D1*
Y13650D1*
X7758D1*
Y13146D1*
X8329Y13150D1*
X9325D1*
X9448Y13131D1*
X9562Y13071D1*
X9783Y12857D1*
X9975Y12665D1*
X10003Y12753D1*
Y14754D1*
X4315D1*
Y13492D1*
X4395Y13507D1*
X5476Y13509D1*
Y14123D1*
X6530D1*
Y13384D1*
X6479D1*
X6478Y13154D1*
X6557Y13150D1*
Y12357D1*
X5448D1*
Y13001D1*
X4499Y13000D1*
X4491Y12971D1*
Y11889D1*
X4551Y11940D1*
X4657Y12005D1*
X4772Y12054D1*
X4893Y12085D1*
X5017Y12099D1*
X5142Y12094D1*
X5265Y12072D1*
X5383Y12032D1*
X5494Y11975D1*
X5596Y11902D1*
X5686Y11815D1*
X5762Y11716D1*
X5823Y11608D1*
X5868Y11491D1*
X5895Y11369D1*
X5904Y11244D1*
X5895Y11119D1*
X5868Y10998D1*
X5823Y10881D1*
X5762Y10772D1*
X5686Y10673D1*
X5596Y10586D1*
X5495Y10514D1*
X5383Y10457D1*
X5265Y10416D1*
X5142Y10394D1*
X5018Y10389D1*
X4894Y10403D1*
X4773Y10434D1*
X4658Y10483D1*
X4551Y10548D1*
X4488Y10600D1*
X4491Y9905D1*
X4551Y9955D1*
X4657Y10020D1*
X4772Y10069D1*
X4893Y10101D1*
X5017Y10115D1*
X5142Y10110D1*
X5265Y10088D1*
X5383Y10047D1*
X5494Y9990D1*
X5596Y9918D1*
X5686Y9831D1*
X5762Y9732D1*
X5823Y9623D1*
X5868Y9507D1*
X5895Y9385D1*
X5904Y9260D1*
X5895Y9135D1*
X5868Y9013D1*
X5823Y8897D1*
X5762Y8788D1*
X5686Y8689D1*
X5596Y8602D1*
X5495Y8529D1*
X5383Y8472D1*
X5265Y8432D1*
X5142Y8409D1*
X5018Y8405D1*
X4894Y8418D1*
X4773Y8450D1*
X4658Y8499D1*
X4551Y8564D1*
X4488Y8616D1*
X4491Y7920D1*
X4551Y7971D1*
X4657Y8036D1*
X4772Y8085D1*
X4893Y8117D1*
X5017Y8130D1*
X5142Y8126D1*
X5265Y8103D1*
X5383Y8063D1*
X5494Y8006D1*
X5596Y7933D1*
X5686Y7847D1*
X5762Y7748D1*
X5823Y7639D1*
X5868Y7522D1*
X5895Y7401D1*
X5904Y7275D1*
X5895Y7151D1*
X5868Y7029D1*
X5823Y6912D1*
X5762Y6803D1*
X5686Y6705D1*
X5596Y6618D1*
X5495Y6545D1*
X5383Y6488D1*
X5265Y6448D1*
X5142Y6425D1*
X5018Y6420D1*
X4860Y6443D1*
X5474Y5826D1*
X6902Y5912D2*
X7014Y5865D1*
X7118Y5797D1*
X7191Y5731D1*
X7281Y5811D1*
X7387Y5875D1*
X7504Y5920D1*
X7627Y5942D1*
X7752D1*
X7875Y5920D1*
X7991Y5876D1*
X8098Y5812D1*
X8191Y5731D1*
X8282Y5808D1*
X8279Y5928D1*
X8298Y6051D1*
X8373Y6189D1*
X8458Y6277D1*
X8457Y6516D1*
X8260Y6431D1*
X8138Y6403D1*
X8064Y6397D1*
X7701Y6032D1*
X7601Y5958D1*
X7451Y5913D1*
X6899Y5911D1*
X9128Y5788D2*
X9206Y5711D1*
X9327Y5810D1*
X9438Y5868D1*
X9557Y5904D1*
X9681Y5918D1*
X9806Y5908D1*
X9926Y5874D1*
X10007Y5835D1*
X10003Y6108D1*
X9885Y6047D1*
X9765Y6012D1*
X9641Y5998D1*
X9516Y6007D1*
X9395Y6038D1*
X9277Y6093D1*
X9248Y5952D1*
X9158Y5816D1*
X9202Y5868D1*
X6690Y5253D2*
D18*
Y4561D1*
X7690Y5945D2*
Y4561D1*
X6042Y7752D2*
X6629D1*
X6690Y11799D2*
Y11251D1*
X6103D2*
X6690D1*
X9628Y6690D2*
Y5998D1*
X8001Y12127D2*
Y10361D1*
Y11244D2*
X8884D1*
X6003Y12753D2*
Y12357D1*
X5449Y12753D2*
X6557D1*
X6650Y13253D2*
X7757D1*
D19*
X4690Y5253D3*
X5690D3*
X6690D3*
X7690D3*
X8690D3*
X9690D3*
D20*
X6629Y7004D3*
Y7752D3*
X6690Y10503D3*
Y11251D3*
D19*
X9628Y6690D3*
Y7690D3*
D20*
X9692Y9440D3*
Y8692D3*
D21*
X8001Y17252D3*
X5049D3*
X8001Y11244D3*
Y9260D3*
Y7275D3*
X5049Y11244D3*
Y9260D3*
Y7275D3*
D23*
X6003Y12753D3*
Y13253D3*
Y13753D3*
X7204D3*
Y13253D3*
Y12753D3*
D24*
X5440Y19504D3*
X7440D3*
%LNBoardOutline*%
X3940Y3940D2*
D11*
X10316D1*
Y20629D1*
X3940D1*
Y3940D1*
M02*
