G04 DipTrace 2.4.0.2*
%INthrough.gbr*%
%MOIN*%
G04 Drill Symbols*
G04 D=0.04 - Cross*
G04 D=0.0551 - X*
G04 D=0.0591 - Y*
%ADD10C,0.008*%
%FSLAX44Y44*%
G04*
G70*
G90*
G75*
G01*
X4690Y5488D2*
D10*
Y5018D1*
X4455Y5253D2*
X4925D1*
X5690Y5488D2*
Y5018D1*
X5455Y5253D2*
X5925D1*
X6690Y5488D2*
Y5018D1*
X6455Y5253D2*
X6925D1*
X7690Y5488D2*
Y5018D1*
X7455Y5253D2*
X7925D1*
X8690Y5488D2*
Y5018D1*
X8455Y5253D2*
X8925D1*
X9690Y5488D2*
Y5018D1*
X9455Y5253D2*
X9925D1*
X9628Y6925D2*
Y6455D1*
X9393Y6690D2*
X9863D1*
X9628Y7925D2*
Y7455D1*
X9393Y7690D2*
X9863D1*
X7766Y17487D2*
X8236Y17017D1*
Y17487D2*
X7766Y17017D1*
X4814Y17487D2*
X5284Y17017D1*
Y17487D2*
X4814Y17017D1*
X7766Y11479D2*
X8236Y11009D1*
Y11479D2*
X7766Y11009D1*
Y9495D2*
X8236Y9025D1*
Y9495D2*
X7766Y9025D1*
Y7510D2*
X8236Y7040D1*
Y7510D2*
X7766Y7040D1*
X4814Y11479D2*
X5284Y11009D1*
Y11479D2*
X4814Y11009D1*
Y9495D2*
X5284Y9025D1*
Y9495D2*
X4814Y9025D1*
Y7510D2*
X5284Y7040D1*
Y7510D2*
X4814Y7040D1*
X5205Y19739D2*
X5440Y19504D1*
X5675Y19739D1*
X5440Y19504D2*
Y19269D1*
X7205Y19739D2*
X7440Y19504D1*
X7675Y19739D1*
X7440Y19504D2*
Y19269D1*
M02*
