G04 DipTrace 2.4.0.2*
%INtopsilk.gbr*%
%MOIN*%
%ADD10C,0.0098*%
%ADD11C,0.006*%
%ADD37C,0.0077*%
%ADD38C,0.0093*%
%FSLAX44Y44*%
G04*
G70*
G90*
G75*
G01*
%LNTopSilk*%
%LPD*%
X8994Y18177D2*
D10*
X4057D1*
Y6260D1*
X8994D1*
Y18177D1*
X6015Y4289D2*
D37*
X6063Y4313D1*
X6135Y4385D1*
Y3883D1*
X6289Y4385D2*
X6409Y3883D1*
X6528Y4385D1*
X6648Y3883D1*
X6768Y4385D1*
X6922D2*
Y3883D1*
X7076Y4146D2*
X7291D1*
X7363Y4170D1*
X7387Y4194D1*
X7411Y4242D1*
Y4290D1*
X7387Y4337D1*
X7363Y4362D1*
X7291Y4385D1*
X7076D1*
Y3883D1*
X7244Y4146D2*
X7411Y3883D1*
X7876Y4385D2*
X7566D1*
Y3883D1*
X7876D1*
X7566Y4146D2*
X7757D1*
X8055Y4265D2*
Y4289D1*
X8079Y4337D1*
X8103Y4361D1*
X8151Y4385D1*
X8246D1*
X8294Y4361D1*
X8318Y4337D1*
X8342Y4289D1*
Y4242D1*
X8318Y4194D1*
X8270Y4122D1*
X8031Y3883D1*
X8366D1*
X7407Y8485D2*
Y7983D1*
X7694D1*
X8159Y8485D2*
X7849D1*
Y7983D1*
X8159D1*
X7849Y8246D2*
X8040D1*
X8314Y8485D2*
Y7983D1*
X8481D1*
X8553Y8007D1*
X8601Y8055D1*
X8625Y8103D1*
X8649Y8174D1*
Y8294D1*
X8625Y8366D1*
X8601Y8413D1*
X8553Y8461D1*
X8481Y8485D1*
X8314D1*
X8803Y8389D2*
X8851Y8413D1*
X8923Y8485D1*
Y7983D1*
X9714Y9841D2*
Y10056D1*
X9690Y10128D1*
X9666Y10152D1*
X9618Y10176D1*
X9570D1*
X9523Y10152D1*
X9498Y10128D1*
X9475Y10056D1*
Y9841D1*
X9977D1*
X9714Y10008D2*
X9977Y10176D1*
X9595Y10355D2*
X9571D1*
X9523Y10378D1*
X9499Y10402D1*
X9475Y10450D1*
Y10546D1*
X9499Y10593D1*
X9523Y10617D1*
X9571Y10641D1*
X9618D1*
X9666Y10617D1*
X9738Y10570D1*
X9977Y10330D1*
Y10665D1*
X5794Y13982D2*
X6009D1*
X6081Y14007D1*
X6105Y14031D1*
X6129Y14078D1*
Y14126D1*
X6105Y14174D1*
X6081Y14198D1*
X6009Y14222D1*
X5794D1*
Y13719D1*
X5961Y13982D2*
X6129Y13719D1*
X6283Y14222D2*
Y13719D1*
X6570D1*
X6724Y14222D2*
X6916Y13982D1*
Y13719D1*
X7107Y14222D2*
X6916Y13982D1*
X7261Y14126D2*
X7309Y14150D1*
X7381Y14221D1*
Y13719D1*
X4592Y6312D2*
D38*
X4907D1*
X4735Y6083D1*
X4821D1*
X4878Y6054D1*
X4907Y6026D1*
X4936Y5940D1*
Y5883D1*
X4907Y5796D1*
X4850Y5739D1*
X4764Y5710D1*
X4677D1*
X4592Y5739D1*
X4563Y5768D1*
X4534Y5825D1*
X5597Y6313D2*
Y5710D1*
X5798D1*
X5884Y5739D1*
X5942Y5796D1*
X5970Y5854D1*
X5999Y5940D1*
Y6084D1*
X5970Y6170D1*
X5942Y6227D1*
X5884Y6285D1*
X5798Y6313D1*
X5597D1*
X6965Y6170D2*
X6936Y6227D1*
X6878Y6285D1*
X6821Y6313D1*
X6707D1*
X6649Y6285D1*
X6592Y6227D1*
X6563Y6170D1*
X6534Y6084D1*
Y5940D1*
X6563Y5854D1*
X6592Y5796D1*
X6649Y5739D1*
X6707Y5710D1*
X6821D1*
X6878Y5739D1*
X6936Y5796D1*
X6965Y5854D1*
Y5940D1*
X6821D1*
%LNBoardOutline*%
X3940Y3940D2*
D11*
X10316D1*
Y20629D1*
X3940D1*
Y3940D1*
M02*
