M48
INCH
T01C0.028
T02C0.0354
T03C0.0472
T04C0.0591
T05C0.12
T06C0.126
T07C0.21
%
T01
X+034377Y+009936
X+034377Y+008186
X+038003Y+009686
X+033440Y+031063
X+043441Y+039376
X+043441Y+047378
X+042753Y+047378
X+040433Y+048886
X+042675Y+057433
X+042675Y+060300
X+042918Y+061772
X+041013Y+061772
X+038876Y+063108
X+042620Y+063815
X+042478Y+065227
X+044540Y+064185
X+045128Y+064815
X+046328Y+063166
X+045876Y+061772
X+045378Y+061035
X+046211Y+060128
X+046877Y+060207
X+047465Y+060128
X+047878Y+058497
X+048378Y+058081
X+048878Y+056549
X+047809Y+055528
X+046504Y+058378
X+048013Y+061772
X+049878Y+061622
X+050368Y+061035
X+052876Y+063108
X+051192Y+064669
X+050368Y+064815
X+050701Y+066055
X+048550Y+066481
X+047378Y+067128
X+049629Y+068755
X+048059Y+070587
X+049128Y+071155
X+049128Y+073081
X+048628Y+073497
X+048128Y+073081
X+047128Y+073675
X+045628Y+073675
X+046128Y+075128
X+047763Y+077022
X+049628Y+076435
X+050256Y+077326
X+049370Y+079065
X+050256Y+080065
X+051540Y+079112
X+052128Y+079112
X+051779Y+075908
X+049461Y+075286
X+051289Y+072591
X+052942Y+068755
X+054942Y+068755
X+055013Y+061772
X+055013Y+059941
X+057803Y+061772
X+062013Y+061772
X+062013Y+077022
X+063585Y+079065
X+057944Y+079065
X+055013Y+077022
X+054380Y+081631
X+047128Y+081631
X+044293Y+081148
X+042909Y+079065
X+045626Y+078358
X+040513Y+077022
X+038513Y+077022
X+033969Y+076138
X+033263Y+077022
X+029252Y+077443
X+026013Y+077022
X+023876Y+078358
X+021939Y+076068
X+021939Y+075193
X+019013Y+077022
X+016876Y+078358
X+015188Y+079881
X+015188Y+081443
X+014506Y+077022
X+012013Y+077022
X+007812Y+079318
X+010876Y+063108
X+013013Y+061772
X+015603Y+062656
X+017876Y+063147
X+020013Y+061772
X+022624Y+062656
X+023330Y+062656
X+025013Y+061772
X+027013Y+061772
X+029742Y+062656
X+029742Y+063815
X+032013Y+061772
X+032939Y+061475
X+034013Y+061772
X+033527Y+060300
X+019438Y+067004
X+012937Y+047377
T02
X+011188Y+051375
X+010188Y+051375
X+010188Y+050375
X+011188Y+050375
X+011188Y+049375
X+010188Y+049375
X+010188Y+048375
X+011188Y+048375
X+011188Y+047375
X+010188Y+047375
X+010188Y+046375
X+011188Y+046375
X+011188Y+045375
X+010188Y+045375
X+010188Y+044375
X+011188Y+044375
X+011188Y+043375
X+010188Y+043375
X+010188Y+042375
X+011188Y+042375
X+011188Y+041375
X+010188Y+041375
X+010188Y+040375
X+011188Y+040375
X+011188Y+039375
X+010188Y+039375
X+010188Y+038375
X+011188Y+038375
X+011188Y+037375
X+010188Y+037375
X+010188Y+036375
X+011188Y+036375
X+011188Y+035375
X+010188Y+035375
X+010188Y+034375
X+011188Y+034375
X+011188Y+033375
X+010188Y+033375
X+010188Y+032375
X+011188Y+032375
X+030377Y+013749
X+031815Y+013686
X+035378Y+013686
X+038815Y+013686
X+039941Y+032378
X+040941Y+032378
X+040941Y+033378
X+040941Y+034378
X+040941Y+035378
X+039941Y+035378
X+039941Y+034378
X+039941Y+033378
X+039941Y+036378
X+039941Y+037378
X+039941Y+038378
X+040941Y+038378
X+040941Y+037378
X+040941Y+036378
X+040941Y+039378
X+040941Y+040378
X+040941Y+041378
X+039941Y+041378
X+039941Y+040378
X+039941Y+039378
X+039941Y+042378
X+040941Y+042378
X+040941Y+043378
X+040941Y+044378
X+039941Y+044378
X+039941Y+043378
X+039941Y+045378
X+040941Y+045378
X+040941Y+046378
X+040941Y+047378
X+039941Y+047378
X+039941Y+048378
X+040941Y+048378
X+040941Y+049378
X+039941Y+049378
X+039941Y+050378
X+039941Y+051378
X+040941Y+051378
X+040941Y+050378
X+039941Y+046378
X+039878Y+063815
X+040878Y+063815
X+041878Y+063815
X+041378Y+064815
X+040378Y+064815
X+039378Y+064815
X+034878Y+063815
X+033878Y+063815
X+032878Y+063815
X+033378Y+064815
X+034378Y+064815
X+032378Y+064815
X+027878Y+063815
X+026878Y+063815
X+025878Y+063815
X+026378Y+064815
X+027378Y+064815
X+025378Y+064815
X+020878Y+063815
X+019878Y+063815
X+018878Y+063815
X+019378Y+064815
X+020378Y+064815
X+018378Y+064815
X+013878Y+063815
X+012878Y+063815
X+011878Y+063815
X+012378Y+064815
X+013378Y+064815
X+011378Y+064815
X+011878Y+079065
X+012878Y+079065
X+012378Y+080065
X+011378Y+080065
X+010378Y+080065
X+010878Y+079065
X+008625Y+080318
X+017378Y+080065
X+018378Y+080065
X+019378Y+080065
X+019878Y+079065
X+018878Y+079065
X+017878Y+079065
X+024378Y+080065
X+025378Y+080065
X+026378Y+080065
X+026878Y+079065
X+025878Y+079065
X+024878Y+079065
X+031628Y+080065
X+032628Y+080065
X+033628Y+080065
X+034128Y+079065
X+033128Y+079065
X+032128Y+079065
X+038878Y+080065
X+039878Y+080065
X+040878Y+080065
X+041378Y+079065
X+040378Y+079065
X+039378Y+079065
X+046128Y+080065
X+047128Y+080065
X+048128Y+080065
X+047628Y+079065
X+048628Y+079065
X+046628Y+079065
X+053378Y+080065
X+054378Y+080065
X+055378Y+080065
X+054878Y+079065
X+055878Y+079065
X+053878Y+079065
X+060378Y+080065
X+061378Y+080065
X+062378Y+080065
X+061878Y+079065
X+062878Y+079065
X+060878Y+079065
X+060378Y+064815
X+061378Y+064815
X+062378Y+064815
X+062878Y+063815
X+061878Y+063815
X+060878Y+063815
X+055878Y+063815
X+054878Y+063815
X+053878Y+063815
X+053378Y+064815
X+054378Y+064815
X+055378Y+064815
X+048878Y+063815
X+047878Y+063815
X+046878Y+063815
X+047378Y+064815
X+048378Y+064815
X+046378Y+064815
T03
X+035503Y+010936
X+035503Y+009936
X+035503Y+008936
T04
X+032127Y+006998
X+032127Y+008998
X+032127Y+010998
T05
X+010538Y+053225
X+029838Y+053225
X+040291Y+053228
X+059591Y+053228
X+059591Y+030398
X+040291Y+030398
X+029838Y+030395
X+010538Y+030395
T06
X+063626Y+067315
X+059626Y+067315
X+056626Y+067315
X+052626Y+067315
X+049626Y+067315
X+045626Y+067315
X+042626Y+067315
X+038626Y+067315
X+035626Y+067315
X+031626Y+067315
X+028626Y+067315
X+024626Y+067315
X+021626Y+067315
X+017626Y+067315
X+014626Y+067315
X+010626Y+067315
X+009626Y+082565
X+013626Y+082565
X+016626Y+082565
X+020626Y+082565
X+023626Y+082565
X+027626Y+082565
X+030876Y+082565
X+034876Y+082565
X+038126Y+082565
X+042126Y+082565
X+045376Y+082565
X+049376Y+082565
X+052626Y+082565
X+056626Y+082565
X+059626Y+082565
X+063626Y+082565
T07
X+006440Y+016440
X+006440Y+040820
X+006440Y+060190
X+032065Y+073310
X+053940Y+050810
X+063315Y+087690
T00
M30
