G04 DipTrace 2.4.0.2*
%INthrough.gbr*%
%MOIN*%
G04 Drill Symbols*
G04 D=0.028 - Cross*
G04 D=0.0354 - X*
G04 D=0.0472 - Y*
G04 D=0.0591 - T*
G04 D=0.12 - V*
G04 D=0.126 - Clock*
G04 D=0.21 - Box_Cross*
%ADD10C,0.008*%
%FSLAX44Y44*%
G04*
G70*
G90*
G75*
G01*
X31892Y6998D2*
D10*
X32362D1*
X32127D2*
Y6763D1*
X31892Y8998D2*
X32362D1*
X32127D2*
Y8763D1*
X31892Y10998D2*
X32362D1*
X32127D2*
Y10763D1*
X35268Y11171D2*
X35503Y10936D1*
X35738Y11171D1*
X35503Y10936D2*
Y10701D1*
X35268Y9171D2*
X35503Y8936D1*
X35738Y9171D1*
X35503Y8936D2*
Y8701D1*
X35268Y10171D2*
X35503Y9936D1*
X35738Y10171D1*
X35503Y9936D2*
Y9701D1*
X10953Y51610D2*
X11423Y51140D1*
Y51610D2*
X10953Y51140D1*
X9953Y51610D2*
X10423Y51140D1*
Y51610D2*
X9953Y51140D1*
X10953Y50610D2*
X11423Y50140D1*
Y50610D2*
X10953Y50140D1*
X9953Y50610D2*
X10423Y50140D1*
Y50610D2*
X9953Y50140D1*
X10953Y49610D2*
X11423Y49140D1*
Y49610D2*
X10953Y49140D1*
X9953Y49610D2*
X10423Y49140D1*
Y49610D2*
X9953Y49140D1*
X10953Y48610D2*
X11423Y48140D1*
Y48610D2*
X10953Y48140D1*
X9953Y48610D2*
X10423Y48140D1*
Y48610D2*
X9953Y48140D1*
X10953Y47610D2*
X11423Y47140D1*
Y47610D2*
X10953Y47140D1*
X9953Y47610D2*
X10423Y47140D1*
Y47610D2*
X9953Y47140D1*
X10953Y46610D2*
X11423Y46140D1*
Y46610D2*
X10953Y46140D1*
X9953Y46610D2*
X10423Y46140D1*
Y46610D2*
X9953Y46140D1*
X10953Y45610D2*
X11423Y45140D1*
Y45610D2*
X10953Y45140D1*
X9953Y45610D2*
X10423Y45140D1*
Y45610D2*
X9953Y45140D1*
X10953Y44610D2*
X11423Y44140D1*
Y44610D2*
X10953Y44140D1*
X9953Y44610D2*
X10423Y44140D1*
Y44610D2*
X9953Y44140D1*
X10953Y43610D2*
X11423Y43140D1*
Y43610D2*
X10953Y43140D1*
X9953Y43610D2*
X10423Y43140D1*
Y43610D2*
X9953Y43140D1*
X10953Y42610D2*
X11423Y42140D1*
Y42610D2*
X10953Y42140D1*
X9953Y42610D2*
X10423Y42140D1*
Y42610D2*
X9953Y42140D1*
X10953Y41610D2*
X11423Y41140D1*
Y41610D2*
X10953Y41140D1*
X9953Y41610D2*
X10423Y41140D1*
Y41610D2*
X9953Y41140D1*
X10953Y40610D2*
X11423Y40140D1*
Y40610D2*
X10953Y40140D1*
X9953Y40610D2*
X10423Y40140D1*
Y40610D2*
X9953Y40140D1*
X10953Y39610D2*
X11423Y39140D1*
Y39610D2*
X10953Y39140D1*
X9953Y39610D2*
X10423Y39140D1*
Y39610D2*
X9953Y39140D1*
X10953Y38610D2*
X11423Y38140D1*
Y38610D2*
X10953Y38140D1*
X9953Y38610D2*
X10423Y38140D1*
Y38610D2*
X9953Y38140D1*
X10953Y37610D2*
X11423Y37140D1*
Y37610D2*
X10953Y37140D1*
X9953Y37610D2*
X10423Y37140D1*
Y37610D2*
X9953Y37140D1*
X10953Y36610D2*
X11423Y36140D1*
Y36610D2*
X10953Y36140D1*
X9953Y36610D2*
X10423Y36140D1*
Y36610D2*
X9953Y36140D1*
X10953Y35610D2*
X11423Y35140D1*
Y35610D2*
X10953Y35140D1*
X9953Y35610D2*
X10423Y35140D1*
Y35610D2*
X9953Y35140D1*
X10953Y34610D2*
X11423Y34140D1*
Y34610D2*
X10953Y34140D1*
X9953Y34610D2*
X10423Y34140D1*
Y34610D2*
X9953Y34140D1*
X10953Y33610D2*
X11423Y33140D1*
Y33610D2*
X10953Y33140D1*
X9953Y33610D2*
X10423Y33140D1*
Y33610D2*
X9953Y33140D1*
X10953Y32610D2*
X11423Y32140D1*
Y32610D2*
X10953Y32140D1*
X9953Y32610D2*
X10423Y32140D1*
Y32610D2*
X9953Y32140D1*
X40706Y51613D2*
X41176Y51143D1*
Y51613D2*
X40706Y51143D1*
X39706Y51613D2*
X40176Y51143D1*
Y51613D2*
X39706Y51143D1*
X40706Y50613D2*
X41176Y50143D1*
Y50613D2*
X40706Y50143D1*
X39706Y50613D2*
X40176Y50143D1*
Y50613D2*
X39706Y50143D1*
X40706Y49613D2*
X41176Y49143D1*
Y49613D2*
X40706Y49143D1*
X39706Y49613D2*
X40176Y49143D1*
Y49613D2*
X39706Y49143D1*
X40706Y48613D2*
X41176Y48143D1*
Y48613D2*
X40706Y48143D1*
X39706Y48613D2*
X40176Y48143D1*
Y48613D2*
X39706Y48143D1*
X40706Y47613D2*
X41176Y47143D1*
Y47613D2*
X40706Y47143D1*
X39706Y47613D2*
X40176Y47143D1*
Y47613D2*
X39706Y47143D1*
X40706Y46613D2*
X41176Y46143D1*
Y46613D2*
X40706Y46143D1*
X39706Y46613D2*
X40176Y46143D1*
Y46613D2*
X39706Y46143D1*
X40706Y45613D2*
X41176Y45143D1*
Y45613D2*
X40706Y45143D1*
X39706Y45613D2*
X40176Y45143D1*
Y45613D2*
X39706Y45143D1*
X40706Y44613D2*
X41176Y44143D1*
Y44613D2*
X40706Y44143D1*
X39706Y44613D2*
X40176Y44143D1*
Y44613D2*
X39706Y44143D1*
X40706Y43613D2*
X41176Y43143D1*
Y43613D2*
X40706Y43143D1*
X39706Y43613D2*
X40176Y43143D1*
Y43613D2*
X39706Y43143D1*
X40706Y42613D2*
X41176Y42143D1*
Y42613D2*
X40706Y42143D1*
X39706Y42613D2*
X40176Y42143D1*
Y42613D2*
X39706Y42143D1*
X40706Y41613D2*
X41176Y41143D1*
Y41613D2*
X40706Y41143D1*
X39706Y41613D2*
X40176Y41143D1*
Y41613D2*
X39706Y41143D1*
X40706Y40613D2*
X41176Y40143D1*
Y40613D2*
X40706Y40143D1*
X39706Y40613D2*
X40176Y40143D1*
Y40613D2*
X39706Y40143D1*
X40706Y39613D2*
X41176Y39143D1*
Y39613D2*
X40706Y39143D1*
X39706Y39613D2*
X40176Y39143D1*
Y39613D2*
X39706Y39143D1*
X40706Y38613D2*
X41176Y38143D1*
Y38613D2*
X40706Y38143D1*
X39706Y38613D2*
X40176Y38143D1*
Y38613D2*
X39706Y38143D1*
X40706Y37613D2*
X41176Y37143D1*
Y37613D2*
X40706Y37143D1*
X39706Y37613D2*
X40176Y37143D1*
Y37613D2*
X39706Y37143D1*
X40706Y36613D2*
X41176Y36143D1*
Y36613D2*
X40706Y36143D1*
X39706Y36613D2*
X40176Y36143D1*
Y36613D2*
X39706Y36143D1*
X40706Y35613D2*
X41176Y35143D1*
Y35613D2*
X40706Y35143D1*
X39706Y35613D2*
X40176Y35143D1*
Y35613D2*
X39706Y35143D1*
X40706Y34613D2*
X41176Y34143D1*
Y34613D2*
X40706Y34143D1*
X39706Y34613D2*
X40176Y34143D1*
Y34613D2*
X39706Y34143D1*
X40706Y33613D2*
X41176Y33143D1*
Y33613D2*
X40706Y33143D1*
X39706Y33613D2*
X40176Y33143D1*
Y33613D2*
X39706Y33143D1*
X40706Y32613D2*
X41176Y32143D1*
Y32613D2*
X40706Y32143D1*
X39706Y32613D2*
X40176Y32143D1*
Y32613D2*
X39706Y32143D1*
X62643Y64050D2*
X63113Y63580D1*
Y64050D2*
X62643Y63580D1*
X62143Y65050D2*
X62613Y64580D1*
Y65050D2*
X62143Y64580D1*
X61643Y64050D2*
X62113Y63580D1*
Y64050D2*
X61643Y63580D1*
X61143Y65050D2*
X61613Y64580D1*
Y65050D2*
X61143Y64580D1*
X60643Y64050D2*
X61113Y63580D1*
Y64050D2*
X60643Y63580D1*
X60143Y65050D2*
X60613Y64580D1*
Y65050D2*
X60143Y64580D1*
X55643Y64050D2*
X56113Y63580D1*
Y64050D2*
X55643Y63580D1*
X55143Y65050D2*
X55613Y64580D1*
Y65050D2*
X55143Y64580D1*
X54643Y64050D2*
X55113Y63580D1*
Y64050D2*
X54643Y63580D1*
X54143Y65050D2*
X54613Y64580D1*
Y65050D2*
X54143Y64580D1*
X53643Y64050D2*
X54113Y63580D1*
Y64050D2*
X53643Y63580D1*
X53143Y65050D2*
X53613Y64580D1*
Y65050D2*
X53143Y64580D1*
X48643Y64050D2*
X49113Y63580D1*
Y64050D2*
X48643Y63580D1*
X48143Y65050D2*
X48613Y64580D1*
Y65050D2*
X48143Y64580D1*
X47643Y64050D2*
X48113Y63580D1*
Y64050D2*
X47643Y63580D1*
X47143Y65050D2*
X47613Y64580D1*
Y65050D2*
X47143Y64580D1*
X46643Y64050D2*
X47113Y63580D1*
Y64050D2*
X46643Y63580D1*
X46143Y65050D2*
X46613Y64580D1*
Y65050D2*
X46143Y64580D1*
X41643Y64050D2*
X42113Y63580D1*
Y64050D2*
X41643Y63580D1*
X41143Y65050D2*
X41613Y64580D1*
Y65050D2*
X41143Y64580D1*
X40643Y64050D2*
X41113Y63580D1*
Y64050D2*
X40643Y63580D1*
X40143Y65050D2*
X40613Y64580D1*
Y65050D2*
X40143Y64580D1*
X39643Y64050D2*
X40113Y63580D1*
Y64050D2*
X39643Y63580D1*
X39143Y65050D2*
X39613Y64580D1*
Y65050D2*
X39143Y64580D1*
X34643Y64050D2*
X35113Y63580D1*
Y64050D2*
X34643Y63580D1*
X34143Y65050D2*
X34613Y64580D1*
Y65050D2*
X34143Y64580D1*
X33643Y64050D2*
X34113Y63580D1*
Y64050D2*
X33643Y63580D1*
X33143Y65050D2*
X33613Y64580D1*
Y65050D2*
X33143Y64580D1*
X32643Y64050D2*
X33113Y63580D1*
Y64050D2*
X32643Y63580D1*
X32143Y65050D2*
X32613Y64580D1*
Y65050D2*
X32143Y64580D1*
X27643Y64050D2*
X28113Y63580D1*
Y64050D2*
X27643Y63580D1*
X27143Y65050D2*
X27613Y64580D1*
Y65050D2*
X27143Y64580D1*
X26643Y64050D2*
X27113Y63580D1*
Y64050D2*
X26643Y63580D1*
X26143Y65050D2*
X26613Y64580D1*
Y65050D2*
X26143Y64580D1*
X25643Y64050D2*
X26113Y63580D1*
Y64050D2*
X25643Y63580D1*
X25143Y65050D2*
X25613Y64580D1*
Y65050D2*
X25143Y64580D1*
X20643Y64050D2*
X21113Y63580D1*
Y64050D2*
X20643Y63580D1*
X20143Y65050D2*
X20613Y64580D1*
Y65050D2*
X20143Y64580D1*
X19643Y64050D2*
X20113Y63580D1*
Y64050D2*
X19643Y63580D1*
X19143Y65050D2*
X19613Y64580D1*
Y65050D2*
X19143Y64580D1*
X18643Y64050D2*
X19113Y63580D1*
Y64050D2*
X18643Y63580D1*
X18143Y65050D2*
X18613Y64580D1*
Y65050D2*
X18143Y64580D1*
X13643Y64050D2*
X14113Y63580D1*
Y64050D2*
X13643Y63580D1*
X13143Y65050D2*
X13613Y64580D1*
Y65050D2*
X13143Y64580D1*
X12643Y64050D2*
X13113Y63580D1*
Y64050D2*
X12643Y63580D1*
X12143Y65050D2*
X12613Y64580D1*
Y65050D2*
X12143Y64580D1*
X11643Y64050D2*
X12113Y63580D1*
Y64050D2*
X11643Y63580D1*
X11143Y65050D2*
X11613Y64580D1*
Y65050D2*
X11143Y64580D1*
X62643Y79300D2*
X63113Y78830D1*
Y79300D2*
X62643Y78830D1*
X62143Y80300D2*
X62613Y79830D1*
Y80300D2*
X62143Y79830D1*
X61643Y79300D2*
X62113Y78830D1*
Y79300D2*
X61643Y78830D1*
X61143Y80300D2*
X61613Y79830D1*
Y80300D2*
X61143Y79830D1*
X60643Y79300D2*
X61113Y78830D1*
Y79300D2*
X60643Y78830D1*
X60143Y80300D2*
X60613Y79830D1*
Y80300D2*
X60143Y79830D1*
X55643Y79300D2*
X56113Y78830D1*
Y79300D2*
X55643Y78830D1*
X55143Y80300D2*
X55613Y79830D1*
Y80300D2*
X55143Y79830D1*
X54643Y79300D2*
X55113Y78830D1*
Y79300D2*
X54643Y78830D1*
X54143Y80300D2*
X54613Y79830D1*
Y80300D2*
X54143Y79830D1*
X53643Y79300D2*
X54113Y78830D1*
Y79300D2*
X53643Y78830D1*
X53143Y80300D2*
X53613Y79830D1*
Y80300D2*
X53143Y79830D1*
X48393Y79300D2*
X48863Y78830D1*
Y79300D2*
X48393Y78830D1*
X47893Y80300D2*
X48363Y79830D1*
Y80300D2*
X47893Y79830D1*
X47393Y79300D2*
X47863Y78830D1*
Y79300D2*
X47393Y78830D1*
X46893Y80300D2*
X47363Y79830D1*
Y80300D2*
X46893Y79830D1*
X46393Y79300D2*
X46863Y78830D1*
Y79300D2*
X46393Y78830D1*
X45893Y80300D2*
X46363Y79830D1*
Y80300D2*
X45893Y79830D1*
X41143Y79300D2*
X41613Y78830D1*
Y79300D2*
X41143Y78830D1*
X40643Y80300D2*
X41113Y79830D1*
Y80300D2*
X40643Y79830D1*
X40143Y79300D2*
X40613Y78830D1*
Y79300D2*
X40143Y78830D1*
X39643Y80300D2*
X40113Y79830D1*
Y80300D2*
X39643Y79830D1*
X39143Y79300D2*
X39613Y78830D1*
Y79300D2*
X39143Y78830D1*
X38643Y80300D2*
X39113Y79830D1*
Y80300D2*
X38643Y79830D1*
X33893Y79300D2*
X34363Y78830D1*
Y79300D2*
X33893Y78830D1*
X33393Y80300D2*
X33863Y79830D1*
Y80300D2*
X33393Y79830D1*
X32893Y79300D2*
X33363Y78830D1*
Y79300D2*
X32893Y78830D1*
X32393Y80300D2*
X32863Y79830D1*
Y80300D2*
X32393Y79830D1*
X31893Y79300D2*
X32363Y78830D1*
Y79300D2*
X31893Y78830D1*
X31393Y80300D2*
X31863Y79830D1*
Y80300D2*
X31393Y79830D1*
X26643Y79300D2*
X27113Y78830D1*
Y79300D2*
X26643Y78830D1*
X26143Y80300D2*
X26613Y79830D1*
Y80300D2*
X26143Y79830D1*
X25643Y79300D2*
X26113Y78830D1*
Y79300D2*
X25643Y78830D1*
X25143Y80300D2*
X25613Y79830D1*
Y80300D2*
X25143Y79830D1*
X24643Y79300D2*
X25113Y78830D1*
Y79300D2*
X24643Y78830D1*
X24143Y80300D2*
X24613Y79830D1*
Y80300D2*
X24143Y79830D1*
X19643Y79300D2*
X20113Y78830D1*
Y79300D2*
X19643Y78830D1*
X19143Y80300D2*
X19613Y79830D1*
Y80300D2*
X19143Y79830D1*
X18643Y79300D2*
X19113Y78830D1*
Y79300D2*
X18643Y78830D1*
X18143Y80300D2*
X18613Y79830D1*
Y80300D2*
X18143Y79830D1*
X17643Y79300D2*
X18113Y78830D1*
Y79300D2*
X17643Y78830D1*
X17143Y80300D2*
X17613Y79830D1*
Y80300D2*
X17143Y79830D1*
X12643Y79300D2*
X13113Y78830D1*
Y79300D2*
X12643Y78830D1*
X12143Y80300D2*
X12613Y79830D1*
Y80300D2*
X12143Y79830D1*
X11643Y79300D2*
X12113Y78830D1*
Y79300D2*
X11643Y78830D1*
X11143Y80300D2*
X11613Y79830D1*
Y80300D2*
X11143Y79830D1*
X10643Y79300D2*
X11113Y78830D1*
Y79300D2*
X10643Y78830D1*
X10143Y80300D2*
X10613Y79830D1*
Y80300D2*
X10143Y79830D1*
X34377Y10171D2*
Y9701D1*
X34142Y9936D2*
X34612D1*
X34377Y8421D2*
Y7951D1*
X34142Y8186D2*
X34612D1*
X15188Y80116D2*
Y79646D1*
X14953Y79881D2*
X15423D1*
X15188Y81678D2*
Y81208D1*
X14953Y81443D2*
X15423D1*
X21939Y76303D2*
Y75833D1*
X21704Y76068D2*
X22174D1*
X21939Y75428D2*
Y74958D1*
X21704Y75193D2*
X22174D1*
X40513Y77257D2*
Y76787D1*
X40278Y77022D2*
X40748D1*
X55013Y62007D2*
Y61537D1*
X54778Y61772D2*
X55248D1*
X62013Y62007D2*
Y61537D1*
X61778Y61772D2*
X62248D1*
X41013Y62007D2*
Y61537D1*
X40778Y61772D2*
X41248D1*
X55013Y77257D2*
Y76787D1*
X54778Y77022D2*
X55248D1*
X48013Y62007D2*
Y61537D1*
X47778Y61772D2*
X48248D1*
X62013Y77257D2*
Y76787D1*
X61778Y77022D2*
X62248D1*
X38513Y77257D2*
Y76787D1*
X38278Y77022D2*
X38748D1*
X47763Y77257D2*
Y76787D1*
X47528Y77022D2*
X47998D1*
X20013Y62007D2*
Y61537D1*
X19778Y61772D2*
X20248D1*
X27013Y62007D2*
Y61537D1*
X26778Y61772D2*
X27248D1*
X25013Y62007D2*
Y61537D1*
X24778Y61772D2*
X25248D1*
X19013Y77257D2*
Y76787D1*
X18778Y77022D2*
X19248D1*
X32013Y62007D2*
Y61537D1*
X31778Y61772D2*
X32248D1*
X26013Y77257D2*
Y76787D1*
X25778Y77022D2*
X26248D1*
X12013Y77257D2*
Y76787D1*
X11778Y77022D2*
X12248D1*
X33263Y77257D2*
Y76787D1*
X33028Y77022D2*
X33498D1*
X34013Y62007D2*
Y61537D1*
X33778Y61772D2*
X34248D1*
X13013Y62007D2*
Y61537D1*
X12778Y61772D2*
X13248D1*
X46877Y60442D2*
Y59972D1*
X46642Y60207D2*
X47112D1*
X17876Y63382D2*
Y62912D1*
X17641Y63147D2*
X18111D1*
X10876Y63343D2*
Y62873D1*
X10641Y63108D2*
X11111D1*
X16876Y78593D2*
Y78123D1*
X16641Y78358D2*
X17111D1*
X38876Y63343D2*
Y62873D1*
X38641Y63108D2*
X39111D1*
X45876Y62007D2*
Y61537D1*
X45641Y61772D2*
X46111D1*
X45626Y78593D2*
Y78123D1*
X45391Y78358D2*
X45861D1*
X52876Y63343D2*
Y62873D1*
X52641Y63108D2*
X53111D1*
X23876Y78593D2*
Y78123D1*
X23641Y78358D2*
X24111D1*
X48628Y73732D2*
Y73262D1*
X48393Y73497D2*
X48863D1*
X47878Y58732D2*
Y58262D1*
X47643Y58497D2*
X48113D1*
X48378Y58316D2*
Y57846D1*
X48143Y58081D2*
X48613D1*
X48128Y73316D2*
Y72846D1*
X47893Y73081D2*
X48363D1*
X47128Y73910D2*
Y73440D1*
X46893Y73675D2*
X47363D1*
X48878Y56784D2*
Y56314D1*
X48643Y56549D2*
X49113D1*
X47809Y55763D2*
Y55293D1*
X47574Y55528D2*
X48044D1*
X48059Y70822D2*
Y70352D1*
X47824Y70587D2*
X48294D1*
X32939Y61710D2*
Y61240D1*
X32704Y61475D2*
X33174D1*
X14506Y77257D2*
Y76787D1*
X14271Y77022D2*
X14741D1*
X51289Y72826D2*
Y72356D1*
X51054Y72591D2*
X51524D1*
X51192Y64904D2*
Y64434D1*
X50957Y64669D2*
X51427D1*
X42909Y79300D2*
Y78830D1*
X42674Y79065D2*
X43144D1*
X51779Y76143D2*
Y75673D1*
X51544Y75908D2*
X52014D1*
X38003Y9921D2*
Y9451D1*
X37768Y9686D2*
X38238D1*
X48550Y66716D2*
Y66246D1*
X48315Y66481D2*
X48785D1*
X57803Y62007D2*
Y61537D1*
X57568Y61772D2*
X58038D1*
X57944Y79300D2*
Y78830D1*
X57709Y79065D2*
X58179D1*
X23330Y62891D2*
Y62421D1*
X23095Y62656D2*
X23565D1*
X29742Y62891D2*
Y62421D1*
X29507Y62656D2*
X29977D1*
X29742Y64050D2*
Y63580D1*
X29507Y63815D2*
X29977D1*
X46504Y58613D2*
Y58143D1*
X46269Y58378D2*
X46739D1*
X49370Y79300D2*
Y78830D1*
X49135Y79065D2*
X49605D1*
X42620Y64050D2*
Y63580D1*
X42385Y63815D2*
X42855D1*
X63585Y79300D2*
Y78830D1*
X63350Y79065D2*
X63820D1*
X15603Y62891D2*
Y62421D1*
X15368Y62656D2*
X15838D1*
X33969Y76373D2*
Y75903D1*
X33734Y76138D2*
X34204D1*
X49128Y71390D2*
Y70920D1*
X48893Y71155D2*
X49363D1*
X42918Y62007D2*
Y61537D1*
X42683Y61772D2*
X43153D1*
X49628Y76670D2*
Y76200D1*
X49393Y76435D2*
X49863D1*
X22624Y62891D2*
Y62421D1*
X22389Y62656D2*
X22859D1*
X49878Y61857D2*
Y61387D1*
X49643Y61622D2*
X50113D1*
X42478Y65462D2*
Y64992D1*
X42243Y65227D2*
X42713D1*
X51540Y79347D2*
Y78877D1*
X51305Y79112D2*
X51775D1*
X52128Y79347D2*
Y78877D1*
X51893Y79112D2*
X52363D1*
X45128Y65050D2*
Y64580D1*
X44893Y64815D2*
X45363D1*
X46128Y75363D2*
Y74893D1*
X45893Y75128D2*
X46363D1*
X49461Y75521D2*
Y75051D1*
X49226Y75286D2*
X49696D1*
X45628Y73910D2*
Y73440D1*
X45393Y73675D2*
X45863D1*
X50256Y77561D2*
Y77091D1*
X50021Y77326D2*
X50491D1*
X50256Y80300D2*
Y79830D1*
X50021Y80065D2*
X50491D1*
X44293Y81383D2*
Y80913D1*
X44058Y81148D2*
X44528D1*
X49128Y73316D2*
Y72846D1*
X48893Y73081D2*
X49363D1*
X46211Y60363D2*
Y59893D1*
X45976Y60128D2*
X46446D1*
X45378Y61270D2*
Y60800D1*
X45143Y61035D2*
X45613D1*
X50368Y61270D2*
Y60800D1*
X50133Y61035D2*
X50603D1*
X50368Y65050D2*
Y64580D1*
X50133Y64815D2*
X50603D1*
X44540Y64420D2*
Y63950D1*
X44305Y64185D2*
X44775D1*
X47465Y60363D2*
Y59893D1*
X47230Y60128D2*
X47700D1*
X42675Y57668D2*
Y57198D1*
X42440Y57433D2*
X42910D1*
X42675Y60535D2*
Y60065D1*
X42440Y60300D2*
X42910D1*
X33527Y60535D2*
Y60065D1*
X33292Y60300D2*
X33762D1*
X46328Y63401D2*
Y62931D1*
X46093Y63166D2*
X46563D1*
X50701Y66290D2*
Y65820D1*
X50466Y66055D2*
X50936D1*
X40433Y49121D2*
Y48651D1*
X40198Y48886D2*
X40668D1*
X30142Y13984D2*
X30612Y13514D1*
Y13984D2*
X30142Y13514D1*
X31580Y13921D2*
X32050Y13451D1*
Y13921D2*
X31580Y13451D1*
X35143Y13921D2*
X35613Y13451D1*
Y13921D2*
X35143Y13451D1*
X38580Y13921D2*
X39050Y13451D1*
Y13921D2*
X38580Y13451D1*
X8390Y80553D2*
X8860Y80083D1*
Y80553D2*
X8390Y80083D1*
X33440Y31298D2*
Y30828D1*
X33205Y31063D2*
X33675D1*
X7812Y79553D2*
Y79083D1*
X7577Y79318D2*
X8047D1*
X12937Y47612D2*
Y47142D1*
X12702Y47377D2*
X13172D1*
X42753Y47613D2*
Y47143D1*
X42518Y47378D2*
X42988D1*
X43441Y39611D2*
Y39141D1*
X43206Y39376D2*
X43676D1*
X43441Y47613D2*
Y47143D1*
X43206Y47378D2*
X43676D1*
X47378Y67363D2*
Y66893D1*
X47143Y67128D2*
X47613D1*
X47128Y81866D2*
Y81396D1*
X46893Y81631D2*
X47363D1*
X54380Y81866D2*
Y81396D1*
X54145Y81631D2*
X54615D1*
X29252Y77678D2*
Y77208D1*
X29017Y77443D2*
X29487D1*
X19438Y67239D2*
Y66769D1*
X19203Y67004D2*
X19673D1*
X55013Y60176D2*
Y59706D1*
X54778Y59941D2*
X55248D1*
X49629Y68990D2*
Y68520D1*
X49394Y68755D2*
X49864D1*
X52942Y68990D2*
Y68520D1*
X52707Y68755D2*
X53177D1*
X54942Y68990D2*
Y68520D1*
X54707Y68755D2*
X55177D1*
X6440Y16675D2*
Y16205D1*
X6205Y16440D2*
X6675D1*
X6205Y16675D2*
X6675D1*
Y16205D1*
X6205D1*
Y16675D1*
X6440Y41055D2*
Y40585D1*
X6205Y40820D2*
X6675D1*
X6205Y41055D2*
X6675D1*
Y40585D1*
X6205D1*
Y41055D1*
X6440Y60425D2*
Y59955D1*
X6205Y60190D2*
X6675D1*
X6205Y60425D2*
X6675D1*
Y59955D1*
X6205D1*
Y60425D1*
X32065Y73545D2*
Y73075D1*
X31830Y73310D2*
X32300D1*
X31830Y73545D2*
X32300D1*
Y73075D1*
X31830D1*
Y73545D1*
X63315Y87925D2*
Y87455D1*
X63080Y87690D2*
X63550D1*
X63080Y87925D2*
X63550D1*
Y87455D1*
X63080D1*
Y87925D1*
X53940Y51045D2*
Y50575D1*
X53705Y50810D2*
X54175D1*
X53705Y51045D2*
X54175D1*
Y50575D1*
X53705D1*
Y51045D1*
X10303Y53460D2*
X10538Y53225D1*
X10773Y53460D1*
X10303Y30630D2*
X10538Y30395D1*
X10773Y30630D1*
X29603Y53460D2*
X29838Y53225D1*
X30073Y53460D1*
X29603Y30630D2*
X29838Y30395D1*
X30073Y30630D1*
X40056Y53463D2*
X40291Y53228D1*
X40526Y53463D1*
X40056Y30633D2*
X40291Y30398D1*
X40526Y30633D1*
X59356Y53463D2*
X59591Y53228D1*
X59826Y53463D1*
X59356Y30633D2*
X59591Y30398D1*
X59826Y30633D1*
X63626Y67550D2*
Y67315D1*
X63861D1*
X59626Y67550D2*
Y67315D1*
X59861D1*
X56626Y67550D2*
Y67315D1*
X56861D1*
X52626Y67550D2*
Y67315D1*
X52861D1*
X49626Y67550D2*
Y67315D1*
X49861D1*
X45626Y67550D2*
Y67315D1*
X45861D1*
X42626Y67550D2*
Y67315D1*
X42861D1*
X38626Y67550D2*
Y67315D1*
X38861D1*
X35626Y67550D2*
Y67315D1*
X35861D1*
X31626Y67550D2*
Y67315D1*
X31861D1*
X28626Y67550D2*
Y67315D1*
X28861D1*
X24626Y67550D2*
Y67315D1*
X24861D1*
X21626Y67550D2*
Y67315D1*
X21861D1*
X17626Y67550D2*
Y67315D1*
X17861D1*
X14626Y67550D2*
Y67315D1*
X14861D1*
X10626Y67550D2*
Y67315D1*
X10861D1*
X63626Y82800D2*
Y82565D1*
X63861D1*
X59626Y82800D2*
Y82565D1*
X59861D1*
X56626Y82800D2*
Y82565D1*
X56861D1*
X52626Y82800D2*
Y82565D1*
X52861D1*
X49376Y82800D2*
Y82565D1*
X49611D1*
X45376Y82800D2*
Y82565D1*
X45611D1*
X42126Y82800D2*
Y82565D1*
X42361D1*
X38126Y82800D2*
Y82565D1*
X38361D1*
X34876Y82800D2*
Y82565D1*
X35111D1*
X30876Y82800D2*
Y82565D1*
X31111D1*
X27626Y82800D2*
Y82565D1*
X27861D1*
X23626Y82800D2*
Y82565D1*
X23861D1*
X20626Y82800D2*
Y82565D1*
X20861D1*
X16626Y82800D2*
Y82565D1*
X16861D1*
X13626Y82800D2*
Y82565D1*
X13861D1*
X9626Y82800D2*
Y82565D1*
X9861D1*
M02*
