G04 DipTrace 2.4.0.2*
%INtop.gbr*%
%MOIN*%
%ADD11C,0.006*%
%ADD13C,0.0236*%
%ADD14C,0.02*%
%ADD15C,0.0079*%
%ADD17R,0.0709X0.063*%
%ADD18C,0.1575*%
%ADD19R,0.0709X0.0709*%
%ADD20C,0.0709*%
%ADD21R,0.0591X0.0591*%
%ADD22C,0.0591*%
%ADD23R,0.0512X0.0591*%
%ADD24R,0.0236X0.0787*%
%ADD25C,0.0669*%
%ADD26C,0.043*%
%FSLAX44Y44*%
G04*
G70*
G90*
G75*
G01*
%LNTop*%
%LPD*%
X32878Y63815D2*
D13*
Y63011D1*
X33128D1*
Y62440D1*
X17878Y79065D2*
Y78261D1*
X18128D1*
Y77690D1*
X11878Y63815D2*
Y63011D1*
X12128D1*
Y62440D1*
X10878Y79065D2*
Y78261D1*
X11128D1*
Y77690D1*
X32128Y79065D2*
Y78261D1*
X32378D1*
Y77690D1*
X24878Y79065D2*
Y78261D1*
X25128D1*
Y77690D1*
X18878Y63815D2*
Y63011D1*
X19128D1*
Y62440D1*
X25878Y63815D2*
Y63011D1*
X26128D1*
Y62440D1*
X42909Y79065D2*
Y77099D1*
X42253Y76443D1*
X39716D1*
X39628Y76532D1*
Y77690D1*
X39878Y63815D2*
Y63011D1*
X40128D1*
Y62440D1*
X60878Y79065D2*
Y78261D1*
X61128D1*
Y77690D1*
X60878Y63815D2*
Y63011D1*
X61128D1*
Y62440D1*
X53878Y79065D2*
Y78261D1*
X54128D1*
Y77690D1*
X46628Y79065D2*
Y78261D1*
X46878D1*
Y77690D1*
X53878Y63815D2*
Y63011D1*
X54128D1*
Y62440D1*
X46878Y63815D2*
Y63011D1*
X47128D1*
Y62440D1*
X51192Y64669D2*
Y72494D1*
X51289Y72591D1*
X33128Y62440D2*
Y61663D1*
X32939Y61475D1*
X18128Y77690D2*
Y77022D1*
X14506D1*
X39628Y77690D2*
Y78261D1*
X39378D1*
Y79065D1*
X32127Y6998D2*
X30565D1*
X27314Y10248D1*
Y12686D1*
X33440Y18812D1*
Y31063D1*
X13878Y63815D2*
X14878D1*
Y62440D1*
X49370Y79065D2*
X49628Y78808D1*
Y77690D1*
X34128Y79065D2*
X35128D1*
Y77690D1*
X47128Y72315D2*
Y71254D1*
X47311D1*
X27878Y63815D2*
X28878D1*
Y62440D1*
X34878Y63815D2*
X35878D1*
Y62440D1*
X27878Y77690D2*
Y76925D1*
X27484Y76532D1*
X21038D1*
X20878Y76692D1*
X20718Y76532D1*
X14271D1*
X13878Y76925D1*
Y77690D1*
X62878Y63815D2*
X63878D1*
Y62440D1*
X20878Y76692D2*
Y77690D1*
X41378Y79065D2*
X42378D1*
Y77690D1*
X57803Y61772D2*
Y62440D1*
X56878D1*
X35503Y9936D2*
X35753Y9686D1*
X38003D1*
X46504Y58378D2*
X46878Y58005D1*
Y57315D1*
X63585Y79065D2*
X63878Y78772D1*
Y77690D1*
X23330Y62656D2*
X22171Y63815D1*
X20878D1*
X22624Y62656D2*
Y61869D1*
X21878D1*
Y62440D1*
X29742Y63815D2*
Y62656D1*
X14878Y62440D2*
X15386D1*
X15603Y62656D1*
X14878Y62440D2*
Y55065D1*
X11188Y51375D1*
X56878Y77690D2*
Y79065D1*
X55878D1*
X51779Y75908D2*
X56484D1*
X56878Y76301D1*
Y77690D1*
X49628Y76435D2*
X50155Y75908D1*
X51779D1*
X49628Y77690D2*
Y76435D1*
X27878Y77690D2*
Y79065D1*
X26878D1*
X33969Y76138D2*
X28409D1*
Y77690D1*
X27878D1*
X35128D2*
Y76532D1*
X34734Y76138D1*
X33969D1*
X49128Y71155D2*
Y72315D1*
X47311Y71254D2*
Y70096D1*
X48734D1*
X49128Y70490D1*
Y71155D1*
X13878Y77690D2*
Y79065D1*
X12878D1*
X20878Y77690D2*
Y79065D1*
X19878D1*
X48878Y63815D2*
X49010Y63948D1*
Y65195D1*
X48550Y65655D1*
Y66481D1*
X49878Y62440D2*
Y63815D1*
X48878D1*
X49878Y61622D2*
Y62440D1*
X56878D2*
Y63815D1*
X55878D1*
X38003Y9686D2*
X37452D1*
Y10447D1*
X46878Y57315D2*
Y56195D1*
X47061D1*
X63878Y77690D2*
Y76532D1*
X63484Y76138D1*
X58338D1*
X57944Y76532D1*
Y79065D1*
X42878Y62440D2*
Y63558D1*
X42620Y63815D1*
X42918Y61772D2*
X42878Y61813D1*
Y62440D1*
X31128D2*
Y63565D1*
X32378Y64815D1*
X35503Y8936D2*
X38410D1*
X38804Y9330D1*
Y10510D1*
X53378Y64815D2*
X52128Y63565D1*
Y62440D1*
X38878Y80065D2*
X37628Y78815D1*
Y77690D1*
X46128Y80065D2*
X44878Y78815D1*
Y77690D1*
X10188Y51375D2*
X8937Y52625D1*
Y62440D1*
X10128D1*
X23128Y77690D2*
X22596D1*
Y79533D1*
X23128Y80065D1*
X22517Y80675D1*
X17988D1*
X17378Y80065D1*
X10378D2*
X9128Y78815D1*
Y77690D1*
X32378Y64815D2*
X32988Y65425D1*
X37677D1*
X38288Y64815D1*
X38128Y64655D1*
Y62440D1*
X45128D2*
Y64815D1*
X11378D2*
X11988Y65425D1*
X16357D1*
X17128Y64655D1*
Y62440D1*
X24378Y80065D2*
X23128D1*
X52128Y77690D2*
Y79112D1*
X38128Y62440D2*
Y53191D1*
X39941Y51378D1*
X38288Y64815D2*
X39378D1*
X60378D2*
X60267Y64705D1*
Y63081D1*
X60407Y62941D1*
Y61869D1*
X59128D1*
Y62440D1*
X60378Y80065D2*
X60267Y79955D1*
Y78331D1*
X60407Y78191D1*
Y77119D1*
X59128D1*
Y77690D1*
X24128Y62440D2*
Y63565D1*
X25378Y64815D1*
X17128Y62440D2*
Y61282D1*
X17521Y60888D1*
X23734D1*
X24128Y61282D1*
Y62440D1*
X17128Y64655D2*
X17288Y64815D1*
X18378D1*
X10128Y62440D2*
Y63565D1*
X11378Y64815D1*
X17378Y80065D2*
X16128Y78815D1*
Y77690D1*
X31628Y80065D2*
X31517Y79955D1*
Y78331D1*
X31657Y78191D1*
Y77119D1*
X30378D1*
Y77690D1*
X39378Y64815D2*
X39988Y65425D1*
X42280D1*
X42478Y65227D1*
X45128Y64815D2*
X46378D1*
X8937Y62440D2*
Y75693D1*
X7625Y77005D1*
Y79131D1*
X7812Y79318D1*
X52876Y77690D2*
Y78493D1*
X52618Y78750D1*
Y80282D1*
X53012Y80675D1*
X53767D1*
X54378Y80065D1*
X9876Y77690D2*
Y77119D1*
X9482Y76725D1*
X8956D1*
X8563Y77119D1*
Y80282D1*
X8956Y80675D1*
X10767D1*
X11378Y80065D1*
X38804Y11612D2*
Y12203D1*
X38410Y12596D1*
X35896D1*
X35503Y12203D1*
Y10936D1*
X63130Y62440D2*
Y63011D1*
X62682D1*
X61878Y63815D1*
X56130Y62440D2*
Y63011D1*
X55682D1*
X54878Y63815D1*
X49130Y62440D2*
Y63011D1*
X48682D1*
X47878Y63815D1*
X42130Y62440D2*
Y63011D1*
X41682D1*
X40878Y63815D1*
X35130Y62440D2*
Y63011D1*
X34682D1*
X33878Y63815D1*
X28130Y62440D2*
Y63011D1*
X27682D1*
X26878Y63815D1*
X21130Y62440D2*
Y63011D1*
X20682D1*
X19878Y63815D1*
X14130Y62440D2*
Y63011D1*
X13682D1*
X12878Y63815D1*
X63130Y77690D2*
Y78261D1*
X62682D1*
X61878Y79065D1*
X56130Y77690D2*
Y78261D1*
X55682D1*
X54878Y79065D1*
X48880Y77690D2*
Y78261D1*
X48432D1*
X47628Y79065D1*
X41630Y77690D2*
Y78261D1*
X41182D1*
X40378Y79065D1*
X34380Y77690D2*
Y78261D1*
X33932D1*
X33128Y79065D1*
X27130Y77690D2*
Y78261D1*
X26682D1*
X25878Y79065D1*
X20130Y77690D2*
Y78261D1*
X19682D1*
X18878Y79065D1*
X13130Y77690D2*
Y78261D1*
X12682D1*
X11878Y79065D1*
X40376Y77690D2*
Y77237D1*
X40513Y77099D1*
Y77022D1*
X54876Y62440D2*
Y61987D1*
X55013Y61849D1*
Y61772D1*
X61876Y62440D2*
Y61987D1*
X62013Y61849D1*
Y61772D1*
X40876Y62440D2*
Y61987D1*
X41013Y61849D1*
Y61772D1*
X54876Y77690D2*
Y77237D1*
X55013Y77099D1*
Y77022D1*
X47876Y62440D2*
Y61987D1*
X48013Y61849D1*
Y61772D1*
X61876Y77690D2*
Y77237D1*
X62013Y77099D1*
Y77022D1*
X38376Y77690D2*
Y77237D1*
X38513Y77099D1*
Y77022D1*
X47626Y77690D2*
Y77237D1*
X47763Y77099D1*
Y77022D1*
X19876Y62440D2*
Y61987D1*
X20013Y61849D1*
Y61772D1*
X26876Y62440D2*
Y61987D1*
X27013Y61849D1*
Y61772D1*
X24876Y62440D2*
Y61987D1*
X25013Y61849D1*
Y61772D1*
X18876Y77690D2*
Y77237D1*
X19013Y77099D1*
Y77022D1*
X31876Y62440D2*
Y61987D1*
X32013Y61849D1*
Y61772D1*
X25876Y77690D2*
Y77237D1*
X26013Y77099D1*
Y77022D1*
X11876Y77690D2*
Y77237D1*
X12013Y77099D1*
Y77022D1*
X33126Y77690D2*
Y77237D1*
X33263Y77099D1*
Y77022D1*
X33876Y62440D2*
Y61987D1*
X34013Y61849D1*
Y61772D1*
X12876Y62440D2*
Y61987D1*
X13013Y61849D1*
Y61772D1*
X46878Y59441D2*
Y60207D1*
X46877D1*
X17876Y62440D2*
Y63147D1*
X10876Y62440D2*
Y63108D1*
X16876Y77690D2*
Y78358D1*
X38876Y62440D2*
Y63108D1*
X45876Y62440D2*
Y61772D1*
X45626Y77690D2*
Y78358D1*
X52876Y62440D2*
Y63108D1*
X23876Y77690D2*
Y78358D1*
X48628Y72315D2*
Y73497D1*
X47878Y57315D2*
Y58497D1*
X48378Y57315D2*
Y58081D1*
X48128Y72315D2*
Y73081D1*
X47128Y74441D2*
Y73675D1*
X48878Y57315D2*
Y56549D1*
X47809Y56195D2*
Y55528D1*
X48059Y71254D2*
Y70587D1*
X59876Y77690D2*
X59767D1*
Y80675D1*
X60767D1*
X61378Y80065D1*
X59876Y62440D2*
X59767D1*
Y65425D1*
X60767D1*
X61378Y64815D1*
X31126Y77690D2*
X31017D1*
Y80675D1*
X32017D1*
X32628Y80065D1*
X35503Y10936D2*
X36132D1*
X36746Y11550D1*
X37452D1*
X11188Y47375D2*
X12937Y47377D1*
X35378Y13686D2*
D14*
X38815D1*
X30377Y13749D2*
X31752D1*
D15*
X31815Y13686D1*
X40941Y47378D2*
D13*
X42753D1*
X40941Y39378D2*
Y39376D1*
X43441D1*
Y47378D2*
X42753D1*
X48059Y71254D2*
Y71748D1*
X48129Y71817D1*
Y72314D1*
X48128Y72315D1*
X48628D1*
X47378Y64815D2*
Y67128D1*
X47128Y80065D2*
Y81631D1*
X54380D2*
Y80067D1*
X54378Y80065D1*
X8625Y80318D2*
Y80282D1*
X8563D1*
X11878Y79065D2*
Y77692D1*
X11876Y77690D1*
X15188Y81443D2*
D14*
Y79881D1*
X21939Y76068D2*
Y75193D1*
X31126Y77690D2*
D13*
Y77945D1*
X30252Y78818D1*
X30064D1*
X29252Y78006D1*
Y77443D1*
X27130Y77690D2*
X25876D1*
X41630D2*
X40376D1*
X45626D2*
Y77196D1*
X46004Y76818D1*
X47559D1*
X47763Y77022D1*
X47626Y77690D2*
X48880D1*
X63130Y62440D2*
X61876D1*
X56130D2*
X54876D1*
X49130D2*
X47876D1*
X42130D2*
X40876D1*
X35130D2*
X33876D1*
X28130D2*
X26876D1*
X21130D2*
X19876D1*
X14130D2*
X12876D1*
X19378Y64815D2*
Y66944D1*
X19438Y67004D1*
X17876Y62440D2*
Y61879D1*
X18126Y61629D1*
X19870D1*
X20013Y61772D1*
X55013D2*
Y59941D1*
X47378Y67128D2*
Y68316D1*
X47816Y68755D1*
X49629D1*
X52942D2*
X54942D1*
X52876Y62440D2*
Y61945D1*
X53379Y61441D1*
X54683D1*
X55013Y61772D1*
X31815Y13686D2*
X35378D1*
X11188Y48375D2*
D15*
X38818D1*
X39323Y47870D1*
X40433D1*
X40941Y48378D1*
X11188Y37375D2*
X23190D1*
X23774Y36791D1*
X40354D1*
X40941Y37378D1*
X11188Y36375D2*
X22565D1*
X23070Y35870D1*
X40433D1*
X40941Y36378D1*
X10188Y39375D2*
X10682Y39870D1*
X25196D1*
X25688Y39378D1*
X39941D1*
X10188Y40375D2*
X10689Y40877D1*
X26377D1*
X26875Y40378D1*
X39941D1*
X11188Y41375D2*
Y41439D1*
X26814D1*
X27377Y40877D1*
X40378D1*
X40941Y41439D1*
Y41378D1*
X11188Y42375D2*
X11682Y42870D1*
X40448D1*
X40941Y42378D1*
X11188Y40375D2*
X25753D1*
X26258Y39870D1*
X40433D1*
X40941Y40378D1*
X39941Y36378D2*
X23375D1*
X22876Y36876D1*
X10689D1*
X10188Y36375D1*
X11188Y35375D2*
X22002D1*
X22501Y34876D1*
X40439D1*
X40941Y35378D1*
X10188Y48375D2*
X10250D1*
Y48502D1*
X10625Y48877D1*
X38992D1*
X39492Y48378D1*
X39941D1*
X10188Y47375D2*
X10682Y47870D1*
X38635D1*
X39127Y47378D1*
X39941D1*
X10188Y34375D2*
X10312D1*
Y34563D1*
X10625Y34876D1*
X21689D1*
X22187Y34378D1*
X39941D1*
X11188Y46375D2*
X11690Y46877D1*
X40441D1*
X40941Y46378D1*
X39941D2*
X14035D1*
X13527Y45870D1*
X10693D1*
X10188Y46375D1*
X11188Y34375D2*
X21502D1*
X22001Y33876D1*
X40439D1*
X40941Y34378D1*
X10188Y33375D2*
X10688Y33876D1*
X21251D1*
X21749Y33378D1*
X39941D1*
X10188Y32375D2*
X10682Y32870D1*
X20757D1*
X21249Y32378D1*
X39941D1*
X11188Y44375D2*
X37482D1*
X37987Y43870D1*
X40433D1*
X40941Y44378D1*
X10188Y44375D2*
X10375D1*
Y44565D1*
X10602Y44791D1*
X38049D1*
X38462Y44378D1*
X39941D1*
X10188Y43375D2*
X10682Y43870D1*
X36160D1*
X36652Y43378D1*
X39941D1*
X10188Y41375D2*
X10689Y41877D1*
X39503D1*
X40002Y41378D1*
X39941D1*
X11188Y33375D2*
X21002D1*
X21501Y32876D1*
X32978D1*
X32984Y32870D1*
X40433D1*
X40941Y33378D1*
X11188Y45375D2*
X26089D1*
X26584Y45870D1*
X40448D1*
X40941Y45378D1*
X10188Y38375D2*
Y38439D1*
X10625Y38876D1*
X24376D1*
X24875Y38378D1*
X39941D1*
X11188Y38375D2*
X23815D1*
X24320Y37870D1*
X40433D1*
X40941Y38378D1*
X46628Y74441D2*
Y75032D1*
X46785Y75189D1*
X47706D1*
X47864Y75032D1*
Y73908D1*
X48864D1*
Y74953D1*
X57375D1*
X57532Y75110D1*
Y80990D1*
X57690Y81148D1*
X61295D1*
X62378Y80065D1*
X46128Y75128D2*
Y74441D1*
X49461Y75286D2*
X57173D1*
X57330Y75443D1*
Y79908D1*
X57173Y80065D1*
X55378D1*
X45628Y73675D2*
Y74441D1*
X50256Y80065D2*
Y77326D1*
X45628Y72315D2*
Y72827D1*
X43478D1*
X43321Y72984D1*
Y79908D1*
X43163Y80065D1*
X40878D1*
X47628Y74441D2*
Y73420D1*
X47470Y73263D1*
X43636D1*
X43478Y73420D1*
Y80439D1*
X43321Y80596D1*
X34159D1*
X33628Y80065D1*
X48128Y74441D2*
Y75823D1*
X47970Y75980D1*
X43793D1*
X43636Y76138D1*
Y80990D1*
X43478Y81148D1*
X27460D1*
X26378Y80065D1*
X44293Y81148D2*
Y76453D1*
X44451Y76295D1*
X48470D1*
X48628Y76138D1*
Y74441D1*
X49128Y73081D2*
Y74441D1*
X46211Y60128D2*
X46378Y59962D1*
Y59441D1*
X45878D2*
Y60462D1*
X46035Y60619D1*
X47956D1*
X48114Y60462D1*
Y58908D1*
X51446D1*
X51604Y59066D1*
Y65346D1*
X51761Y65504D1*
X54689D1*
X55378Y64815D1*
X45378Y61035D2*
Y59441D1*
X50368Y64815D2*
Y61035D1*
X45378Y57315D2*
Y57827D1*
X43488D1*
X43330Y57984D1*
Y64658D1*
X43173Y64815D1*
X41378D1*
X44540Y64185D2*
Y59008D1*
X44698Y58850D1*
X47378D1*
Y59441D1*
X47465Y60128D2*
X47878D1*
Y59441D1*
X42675Y60300D2*
Y57433D1*
X33527Y60300D2*
X29488D1*
X29330Y60458D1*
Y64658D1*
X29173Y64815D1*
X27378D1*
X46328Y63166D2*
Y61114D1*
X46486Y60957D1*
X48220D1*
X48378Y60799D1*
Y59441D1*
X50701Y66055D2*
Y60289D1*
X50544Y60131D1*
X49035D1*
X48878Y59974D1*
Y59441D1*
X34377Y8186D2*
D14*
Y9936D1*
X46128Y72315D2*
D15*
Y70975D1*
X43892Y68739D1*
Y58142D1*
X44050Y57984D1*
X45720D1*
X45878Y57827D1*
Y57315D1*
X40941Y49378D2*
X40448Y49870D1*
X11682D1*
X11188Y49375D1*
X45878Y57315D2*
Y54315D1*
X40941Y49378D1*
X40433Y48886D2*
X41199D1*
X46378Y54064D1*
Y57315D1*
X40941Y50378D2*
X40448Y50870D1*
X11682D1*
X11188Y50375D1*
X46378Y57315D2*
Y57755D1*
X45597Y58535D1*
X44364D1*
X44207Y58693D1*
Y67654D1*
X46628Y70075D1*
Y72315D1*
D26*
X33440Y31063D3*
X7812Y79318D3*
X12937Y47377D3*
X42753Y47378D3*
X43441Y39376D3*
Y47378D3*
X47378Y67128D3*
X47128Y81631D3*
X54380D3*
X29252Y77443D3*
X19438Y67004D3*
X55013Y59941D3*
X49629Y68755D3*
X52942D3*
X54942D3*
X34377Y9936D3*
Y8186D3*
X15188Y79881D3*
Y81443D3*
X21939Y76068D3*
Y75193D3*
X40513Y77022D3*
X55013Y61772D3*
X62013D3*
X41013D3*
X55013Y77022D3*
X48013Y61772D3*
X62013Y77022D3*
X38513D3*
X47763D3*
X20013Y61772D3*
X27013D3*
X25013D3*
X19013Y77022D3*
X32013Y61772D3*
X26013Y77022D3*
X12013D3*
X33263D3*
X34013Y61772D3*
X13013D3*
X46877Y60207D3*
X17876Y63147D3*
X10876Y63108D3*
X16876Y78358D3*
X38876Y63108D3*
X45876Y61772D3*
X45626Y78358D3*
X52876Y63108D3*
X23876Y78358D3*
X48628Y73497D3*
X47878Y58497D3*
X48378Y58081D3*
X48128Y73081D3*
X47128Y73675D3*
X48878Y56549D3*
X47809Y55528D3*
X48059Y70587D3*
X32939Y61475D3*
X14506Y77022D3*
X51289Y72591D3*
X51192Y64669D3*
X42909Y79065D3*
X51779Y75908D3*
X38003Y9686D3*
X48550Y66481D3*
X57803Y61772D3*
X57944Y79065D3*
X23330Y62656D3*
X29742D3*
Y63815D3*
X46504Y58378D3*
X49370Y79065D3*
X42620Y63815D3*
X63585Y79065D3*
X15603Y62656D3*
X33969Y76138D3*
X49128Y71155D3*
X42918Y61772D3*
X49628Y76435D3*
X22624Y62656D3*
X49878Y61622D3*
X42478Y65227D3*
X51540Y79112D3*
X52128D3*
X45128Y64815D3*
X46128Y75128D3*
X49461Y75286D3*
X45628Y73675D3*
X50256Y77326D3*
Y80065D3*
X44293Y81148D3*
X49128Y73081D3*
X46211Y60128D3*
X45378Y61035D3*
X50368D3*
Y64815D3*
X44540Y64185D3*
X47465Y60128D3*
X42675Y57433D3*
Y60300D3*
X33527D3*
X46328Y63166D3*
X50701Y66055D3*
X40433Y48886D3*
D17*
X38804Y10510D3*
Y11612D3*
X37452Y10447D3*
Y11550D3*
D18*
X32127Y6998D3*
Y8998D3*
Y10998D3*
D19*
X35503Y10936D3*
D20*
Y8936D3*
Y9936D3*
D21*
X11188Y51375D3*
D22*
X10188D3*
X11188Y50375D3*
X10188D3*
X11188Y49375D3*
X10188D3*
X11188Y48375D3*
X10188D3*
X11188Y47375D3*
X10188D3*
X11188Y46375D3*
X10188D3*
X11188Y45375D3*
X10188D3*
X11188Y44375D3*
X10188D3*
X11188Y43375D3*
X10188D3*
X11188Y42375D3*
X10188D3*
X11188Y41375D3*
X10188D3*
X11188Y40375D3*
X10188D3*
X11188Y39375D3*
X10188D3*
X11188Y38375D3*
X10188D3*
X11188Y37375D3*
X10188D3*
X11188Y36375D3*
X10188D3*
X11188Y35375D3*
X10188D3*
X11188Y34375D3*
X10188D3*
X11188Y33375D3*
X10188D3*
X11188Y32375D3*
X10188D3*
D21*
X40941Y51378D3*
D22*
X39941D3*
X40941Y50378D3*
X39941D3*
X40941Y49378D3*
X39941D3*
X40941Y48378D3*
X39941D3*
X40941Y47378D3*
X39941D3*
X40941Y46378D3*
X39941D3*
X40941Y45378D3*
X39941D3*
X40941Y44378D3*
X39941D3*
X40941Y43378D3*
X39941D3*
X40941Y42378D3*
X39941D3*
X40941Y41378D3*
X39941D3*
X40941Y40378D3*
X39941D3*
X40941Y39378D3*
X39941D3*
X40941Y38378D3*
X39941D3*
X40941Y37378D3*
X39941D3*
X40941Y36378D3*
X39941D3*
X40941Y35378D3*
X39941D3*
X40941Y34378D3*
X39941D3*
X40941Y33378D3*
X39941D3*
X40941Y32378D3*
X39941D3*
D23*
X47061Y56195D3*
X47809D3*
X47311Y71254D3*
X48059D3*
D24*
X45378Y57315D3*
X45878D3*
X46378D3*
X46878D3*
X47378D3*
X47878D3*
X48378D3*
X48878D3*
Y59441D3*
X48378D3*
X47878D3*
X47378D3*
X46878D3*
X46378D3*
X45878D3*
X45378D3*
X45628Y72315D3*
X46128D3*
X46628D3*
X47128D3*
X47628D3*
X48128D3*
X48628D3*
X49128D3*
Y74441D3*
X48628D3*
X48128D3*
X47628D3*
X47128D3*
X46628D3*
X46128D3*
X45628D3*
D23*
X63878Y62440D3*
X63130D3*
X61128D3*
X61876D3*
X59128D3*
X59876D3*
D25*
X62878Y63815D3*
X62378Y64815D3*
X61878Y63815D3*
X61378Y64815D3*
X60878Y63815D3*
X60378Y64815D3*
D23*
X56878Y62440D3*
X56130D3*
X54128D3*
X54876D3*
X52128D3*
X52876D3*
D25*
X55878Y63815D3*
X55378Y64815D3*
X54878Y63815D3*
X54378Y64815D3*
X53878Y63815D3*
X53378Y64815D3*
D23*
X49878Y62440D3*
X49130D3*
X47128D3*
X47876D3*
X45128D3*
X45876D3*
D25*
X48878Y63815D3*
X48378Y64815D3*
X47878Y63815D3*
X47378Y64815D3*
X46878Y63815D3*
X46378Y64815D3*
D23*
X42878Y62440D3*
X42130D3*
X40128D3*
X40876D3*
X38128D3*
X38876D3*
D25*
X41878Y63815D3*
X41378Y64815D3*
X40878Y63815D3*
X40378Y64815D3*
X39878Y63815D3*
X39378Y64815D3*
D23*
X35878Y62440D3*
X35130D3*
X33128D3*
X33876D3*
X31128D3*
X31876D3*
D25*
X34878Y63815D3*
X34378Y64815D3*
X33878Y63815D3*
X33378Y64815D3*
X32878Y63815D3*
X32378Y64815D3*
D23*
X28878Y62440D3*
X28130D3*
X26128D3*
X26876D3*
X24128D3*
X24876D3*
D25*
X27878Y63815D3*
X27378Y64815D3*
X26878Y63815D3*
X26378Y64815D3*
X25878Y63815D3*
X25378Y64815D3*
D23*
X21878Y62440D3*
X21130D3*
X19128D3*
X19876D3*
X17128D3*
X17876D3*
D25*
X20878Y63815D3*
X20378Y64815D3*
X19878Y63815D3*
X19378Y64815D3*
X18878Y63815D3*
X18378Y64815D3*
D23*
X14878Y62440D3*
X14130D3*
X12128D3*
X12876D3*
X10128D3*
X10876D3*
D25*
X13878Y63815D3*
X13378Y64815D3*
X12878Y63815D3*
X12378Y64815D3*
X11878Y63815D3*
X11378Y64815D3*
D23*
X63878Y77690D3*
X63130D3*
X61128D3*
X61876D3*
X59128D3*
X59876D3*
D25*
X62878Y79065D3*
X62378Y80065D3*
X61878Y79065D3*
X61378Y80065D3*
X60878Y79065D3*
X60378Y80065D3*
D23*
X56878Y77690D3*
X56130D3*
X54128D3*
X54876D3*
X52128D3*
X52876D3*
D25*
X55878Y79065D3*
X55378Y80065D3*
X54878Y79065D3*
X54378Y80065D3*
X53878Y79065D3*
X53378Y80065D3*
D23*
X49628Y77690D3*
X48880D3*
X46878D3*
X47626D3*
X44878D3*
X45626D3*
D25*
X48628Y79065D3*
X48128Y80065D3*
X47628Y79065D3*
X47128Y80065D3*
X46628Y79065D3*
X46128Y80065D3*
D23*
X42378Y77690D3*
X41630D3*
X39628D3*
X40376D3*
X37628D3*
X38376D3*
D25*
X41378Y79065D3*
X40878Y80065D3*
X40378Y79065D3*
X39878Y80065D3*
X39378Y79065D3*
X38878Y80065D3*
D23*
X35128Y77690D3*
X34380D3*
X32378D3*
X33126D3*
X30378D3*
X31126D3*
D25*
X34128Y79065D3*
X33628Y80065D3*
X33128Y79065D3*
X32628Y80065D3*
X32128Y79065D3*
X31628Y80065D3*
D23*
X27878Y77690D3*
X27130D3*
X25128D3*
X25876D3*
X23128D3*
X23876D3*
D25*
X26878Y79065D3*
X26378Y80065D3*
X25878Y79065D3*
X25378Y80065D3*
X24878Y79065D3*
X24378Y80065D3*
D23*
X20878Y77690D3*
X20130D3*
X18128D3*
X18876D3*
X16128D3*
X16876D3*
D25*
X19878Y79065D3*
X19378Y80065D3*
X18878Y79065D3*
X18378Y80065D3*
X17878Y79065D3*
X17378Y80065D3*
D23*
X13878Y77690D3*
X13130D3*
X11128D3*
X11876D3*
X9128D3*
X9876D3*
D25*
X12878Y79065D3*
X12378Y80065D3*
X11878Y79065D3*
X11378Y80065D3*
X10878Y79065D3*
X10378Y80065D3*
D22*
X30377Y13749D3*
X31815Y13686D3*
X35378D3*
X38815D3*
X8625Y80318D3*
%LNBoardOutline*%
X3940Y3940D2*
D11*
X66440D1*
Y90190D1*
X3940D1*
Y3940D1*
M02*
