G04 DipTrace 2.4.0.2*
%INtopsilk.gbr*%
%MOIN*%
%ADD10C,0.0098*%
%ADD11C,0.006*%
%ADD50C,0.0077*%
%ADD51C,0.0154*%
%FSLAX44Y44*%
G04*
G70*
G90*
G75*
G01*
%LNTopSilk*%
%LPD*%
X3940Y3940D2*
D10*
X66440D1*
Y90190D1*
X3940D1*
Y3940D1*
X56753Y4035D2*
G02X61128Y3957I2187J-56D01*
G01*
X58959D2*
Y6087D1*
X39119Y11018D2*
X38489D1*
X39119Y10943D2*
X38489D1*
X39119D2*
Y11179D1*
X38489Y10943D2*
Y11179D1*
X37766Y10955D2*
X37137D1*
X37766Y10881D2*
X37137D1*
X37766D2*
Y11116D1*
X37137Y10881D2*
Y11116D1*
X30356Y5998D2*
X33899D1*
Y11998D1*
X30356D1*
Y5998D1*
X36250Y11983D2*
Y7889D1*
X36644Y11983D2*
Y7889D1*
X34833Y11983D2*
Y7889D1*
Y11983D2*
X36644D1*
X34833Y7889D2*
X36644D1*
X9188Y21142D2*
X31212D1*
Y54625D1*
X9188D1*
Y21142D1*
X29187Y48624D2*
X31687D1*
Y51625D1*
X29187D1*
Y48624D1*
X27438Y39123D2*
X31938D1*
Y43874D1*
X27438D1*
Y39123D1*
X27187Y32626D2*
X31938D1*
Y34626D1*
X27187D1*
Y32626D1*
X25188Y20375D2*
X29938D1*
Y26126D1*
X25188D1*
Y20375D1*
X17937D2*
X22437D1*
Y26126D1*
X17937D1*
Y20375D1*
X10436D2*
X14936D1*
Y26126D1*
X10436D1*
Y20375D1*
X38941Y21145D2*
X60965D1*
Y54628D1*
X38941D1*
Y21145D1*
X58940Y48627D2*
X61440D1*
Y51627D1*
X58940D1*
Y48627D1*
X57191Y39126D2*
X61691D1*
Y43877D1*
X57191D1*
Y39126D1*
X56940Y32629D2*
X61691D1*
Y34629D1*
X56940D1*
Y32629D1*
X54941Y20378D2*
X59691D1*
Y26128D1*
X54941D1*
Y20378D1*
X47690D2*
X52190D1*
Y26128D1*
X47690D1*
Y20378D1*
X40190D2*
X44690D1*
Y26128D1*
X40190D1*
Y20378D1*
X46648Y55940D2*
Y56451D1*
X46898Y70999D2*
Y71510D1*
X45159Y57866D2*
X49096D1*
X45159Y58890D2*
X49096D1*
Y57866D2*
Y58890D1*
X45159Y57866D2*
Y58181D1*
Y58575D2*
Y58890D1*
Y58181D2*
G03X45159Y58575I0J197D01*
G01*
X45409Y72866D2*
X49346D1*
X45409Y73890D2*
X49346D1*
Y72866D2*
Y73890D1*
X45409Y72866D2*
Y73181D1*
Y73575D2*
Y73890D1*
Y73181D2*
G03X45409Y73575I0J197D01*
G01*
X64291Y62696D2*
Y62184D1*
X60714D2*
Y62696D1*
X58714Y62184D2*
Y62696D1*
X64755Y63181D2*
X58496D1*
Y69677D1*
X64755D1*
Y63181D1*
X57291Y62696D2*
Y62184D1*
X53714D2*
Y62696D1*
X51714Y62184D2*
Y62696D1*
X57755Y63181D2*
X51496D1*
Y69677D1*
X57755D1*
Y63181D1*
X50291Y62696D2*
Y62184D1*
X46714D2*
Y62696D1*
X44714Y62184D2*
Y62696D1*
X50755Y63181D2*
X44496D1*
Y69677D1*
X50755D1*
Y63181D1*
X43291Y62696D2*
Y62184D1*
X39714D2*
Y62696D1*
X37714Y62184D2*
Y62696D1*
X43755Y63181D2*
X37496D1*
Y69677D1*
X43755D1*
Y63181D1*
X36291Y62696D2*
Y62184D1*
X32714D2*
Y62696D1*
X30714Y62184D2*
Y62696D1*
X36755Y63181D2*
X30496D1*
Y69677D1*
X36755D1*
Y63181D1*
X29291Y62696D2*
Y62184D1*
X25714D2*
Y62696D1*
X23714Y62184D2*
Y62696D1*
X29755Y63181D2*
X23496D1*
Y69677D1*
X29755D1*
Y63181D1*
X22291Y62696D2*
Y62184D1*
X18714D2*
Y62696D1*
X16714Y62184D2*
Y62696D1*
X22755Y63181D2*
X16496D1*
Y69677D1*
X22755D1*
Y63181D1*
X15291Y62696D2*
Y62184D1*
X11714D2*
Y62696D1*
X9714Y62184D2*
Y62696D1*
X15755Y63181D2*
X9496D1*
Y69677D1*
X15755D1*
Y63181D1*
X64291Y77946D2*
Y77434D1*
X60714D2*
Y77946D1*
X58714Y77434D2*
Y77946D1*
X64755Y78431D2*
X58496D1*
Y84927D1*
X64755D1*
Y78431D1*
X57291Y77946D2*
Y77434D1*
X53714D2*
Y77946D1*
X51714Y77434D2*
Y77946D1*
X57755Y78431D2*
X51496D1*
Y84927D1*
X57755D1*
Y78431D1*
X50041Y77946D2*
Y77434D1*
X46464D2*
Y77946D1*
X44464Y77434D2*
Y77946D1*
X50505Y78431D2*
X44246D1*
Y84927D1*
X50505D1*
Y78431D1*
X42791Y77946D2*
Y77434D1*
X39214D2*
Y77946D1*
X37214Y77434D2*
Y77946D1*
X43255Y78431D2*
X36996D1*
Y84927D1*
X43255D1*
Y78431D1*
X35541Y77946D2*
Y77434D1*
X31964D2*
Y77946D1*
X29964Y77434D2*
Y77946D1*
X36005Y78431D2*
X29746D1*
Y84927D1*
X36005D1*
Y78431D1*
X28291Y77946D2*
Y77434D1*
X24714D2*
Y77946D1*
X22714Y77434D2*
Y77946D1*
X28755Y78431D2*
X22496D1*
Y84927D1*
X28755D1*
Y78431D1*
X21291Y77946D2*
Y77434D1*
X17714D2*
Y77946D1*
X15714Y77434D2*
Y77946D1*
X21755Y78431D2*
X15496D1*
Y84927D1*
X21755D1*
Y78431D1*
X14291Y77946D2*
Y77434D1*
X10714D2*
Y77946D1*
X8714Y77434D2*
Y77946D1*
X14755Y78431D2*
X8496D1*
Y84927D1*
X14755D1*
Y78431D1*
X23747Y69672D2*
D50*
Y69170D1*
X23963D1*
X24035Y69194D1*
X24058Y69218D1*
X24082Y69265D1*
Y69337D1*
X24058Y69385D1*
X24035Y69409D1*
X23963Y69433D1*
X24035Y69457D1*
X24058Y69481D1*
X24082Y69528D1*
Y69576D1*
X24058Y69624D1*
X24035Y69648D1*
X23963Y69672D1*
X23747D1*
Y69433D2*
X23963D1*
X24380Y69672D2*
X24332Y69648D1*
X24285Y69600D1*
X24260Y69553D1*
X24237Y69481D1*
Y69361D1*
X24260Y69290D1*
X24285Y69241D1*
X24332Y69194D1*
X24380Y69170D1*
X24476D1*
X24523Y69194D1*
X24572Y69241D1*
X24595Y69290D1*
X24619Y69361D1*
Y69481D1*
X24595Y69553D1*
X24572Y69600D1*
X24523Y69648D1*
X24476Y69672D1*
X24380D1*
X24773D2*
X25108Y69170D1*
Y69672D2*
X24773Y69170D1*
X25263Y69576D2*
X25311Y69600D1*
X25383Y69671D1*
Y69170D1*
X38649Y12728D2*
X38602Y12705D1*
X38554Y12657D1*
X38530Y12609D1*
Y12513D1*
X38554Y12465D1*
X38602Y12418D1*
X38649Y12393D1*
X38721Y12370D1*
X38841D1*
X38912Y12393D1*
X38960Y12418D1*
X39008Y12465D1*
X39032Y12513D1*
Y12609D1*
X39008Y12657D1*
X38960Y12705D1*
X38912Y12728D1*
X38626Y12883D2*
X38602Y12931D1*
X38530Y13003D1*
X39032D1*
X37234Y12558D2*
X37187Y12535D1*
X37139Y12487D1*
X37115Y12439D1*
Y12343D1*
X37139Y12295D1*
X37187Y12248D1*
X37234Y12223D1*
X37306Y12200D1*
X37426D1*
X37497Y12223D1*
X37546Y12248D1*
X37593Y12295D1*
X37617Y12343D1*
Y12439D1*
X37593Y12487D1*
X37546Y12535D1*
X37497Y12558D1*
X37235Y12737D2*
X37211D1*
X37163Y12761D1*
X37139Y12785D1*
X37116Y12833D1*
Y12928D1*
X37139Y12976D1*
X37163Y13000D1*
X37211Y13024D1*
X37259D1*
X37307Y13000D1*
X37378Y12952D1*
X37617Y12713D1*
Y13048D1*
X31515Y12530D2*
X31731D1*
X31802Y12554D1*
X31827Y12578D1*
X31850Y12625D1*
Y12697D1*
X31827Y12745D1*
X31802Y12769D1*
X31731Y12793D1*
X31515D1*
Y12290D1*
X32340Y12721D2*
X32292Y12769D1*
X32220Y12793D1*
X32125D1*
X32053Y12769D1*
X32005Y12721D1*
Y12673D1*
X32029Y12625D1*
X32053Y12602D1*
X32100Y12578D1*
X32244Y12530D1*
X32292Y12506D1*
X32316Y12482D1*
X32340Y12434D1*
Y12362D1*
X32292Y12315D1*
X32220Y12290D1*
X32125D1*
X32053Y12315D1*
X32005Y12362D1*
X32494Y12697D2*
X32542Y12721D1*
X32614Y12792D1*
Y12290D1*
X35434Y12903D2*
Y12545D1*
X35458Y12473D1*
X35506Y12425D1*
X35578Y12401D1*
X35625D1*
X35697Y12425D1*
X35745Y12473D1*
X35769Y12545D1*
Y12903D1*
X35923Y12807D2*
X35971Y12832D1*
X36043Y12903D1*
Y12401D1*
X20150Y55357D2*
Y54999D1*
X20174Y54927D1*
X20222Y54879D1*
X20294Y54855D1*
X20342D1*
X20413Y54879D1*
X20462Y54927D1*
X20485Y54999D1*
Y55357D1*
X20664Y55237D2*
Y55261D1*
X20688Y55309D1*
X20712Y55333D1*
X20760Y55357D1*
X20855D1*
X20903Y55333D1*
X20927Y55309D1*
X20951Y55261D1*
Y55214D1*
X20927Y55165D1*
X20879Y55094D1*
X20640Y54855D1*
X20975D1*
X49903Y55360D2*
Y55001D1*
X49927Y54929D1*
X49975Y54882D1*
X50047Y54858D1*
X50095D1*
X50167Y54882D1*
X50215Y54929D1*
X50238Y55001D1*
Y55360D1*
X50441Y55359D2*
X50703D1*
X50560Y55168D1*
X50632D1*
X50680Y55144D1*
X50703Y55121D1*
X50728Y55049D1*
Y55001D1*
X50703Y54929D1*
X50656Y54881D1*
X50584Y54858D1*
X50512D1*
X50441Y54881D1*
X50417Y54906D1*
X50393Y54953D1*
X48444Y56473D2*
Y55971D1*
X48743Y56473D2*
X48694Y56449D1*
X48647Y56401D1*
X48623Y56354D1*
X48599Y56282D1*
Y56162D1*
X48623Y56090D1*
X48647Y56042D1*
X48694Y55995D1*
X48743Y55971D1*
X48838D1*
X48886Y55995D1*
X48934Y56042D1*
X48958Y56090D1*
X48981Y56162D1*
Y56282D1*
X48958Y56354D1*
X48934Y56401D1*
X48886Y56449D1*
X48838Y56473D1*
X48743D1*
X49494Y56354D2*
X49471Y56401D1*
X49423Y56449D1*
X49375Y56473D1*
X49279D1*
X49231Y56449D1*
X49184Y56401D1*
X49159Y56354D1*
X49136Y56282D1*
Y56162D1*
X49159Y56090D1*
X49184Y56042D1*
X49231Y55995D1*
X49279Y55971D1*
X49375D1*
X49423Y55995D1*
X49471Y56042D1*
X49494Y56090D1*
X49649Y56377D2*
X49697Y56401D1*
X49769Y56472D1*
Y55971D1*
X48587Y71532D2*
Y71030D1*
X48885Y71532D2*
X48837Y71508D1*
X48789Y71460D1*
X48765Y71413D1*
X48741Y71341D1*
Y71221D1*
X48765Y71150D1*
X48789Y71101D1*
X48837Y71054D1*
X48885Y71030D1*
X48981D1*
X49028Y71054D1*
X49076Y71101D1*
X49100Y71150D1*
X49124Y71221D1*
Y71341D1*
X49100Y71413D1*
X49076Y71460D1*
X49028Y71508D1*
X48981Y71532D1*
X48885D1*
X49637Y71413D2*
X49613Y71460D1*
X49565Y71508D1*
X49518Y71532D1*
X49422D1*
X49374Y71508D1*
X49326Y71460D1*
X49302Y71413D1*
X49278Y71341D1*
Y71221D1*
X49302Y71150D1*
X49326Y71101D1*
X49374Y71054D1*
X49422Y71030D1*
X49518D1*
X49565Y71054D1*
X49613Y71101D1*
X49637Y71150D1*
X49816Y71412D2*
Y71436D1*
X49839Y71484D1*
X49863Y71508D1*
X49911Y71531D1*
X50007D1*
X50054Y71508D1*
X50078Y71484D1*
X50102Y71436D1*
Y71388D1*
X50078Y71340D1*
X50031Y71269D1*
X49791Y71030D1*
X50126D1*
X46477Y60567D2*
Y60065D1*
X46775Y60567D2*
X46727Y60543D1*
X46680Y60495D1*
X46655Y60448D1*
X46632Y60376D1*
Y60256D1*
X46655Y60184D1*
X46680Y60136D1*
X46727Y60089D1*
X46775Y60065D1*
X46871D1*
X46918Y60089D1*
X46967Y60136D1*
X46990Y60184D1*
X47014Y60256D1*
Y60376D1*
X46990Y60448D1*
X46967Y60495D1*
X46918Y60543D1*
X46871Y60567D1*
X46775D1*
X47169D2*
Y60208D1*
X47192Y60136D1*
X47240Y60089D1*
X47312Y60065D1*
X47360D1*
X47432Y60089D1*
X47480Y60136D1*
X47503Y60208D1*
Y60567D1*
X47658Y60471D2*
X47706Y60495D1*
X47778Y60566D1*
Y60065D1*
X49620Y73567D2*
Y73065D1*
X49918Y73567D2*
X49870Y73543D1*
X49822Y73495D1*
X49798Y73448D1*
X49774Y73376D1*
Y73256D1*
X49798Y73184D1*
X49822Y73136D1*
X49870Y73089D1*
X49918Y73065D1*
X50013D1*
X50061Y73089D1*
X50109Y73136D1*
X50133Y73184D1*
X50157Y73256D1*
Y73376D1*
X50133Y73448D1*
X50109Y73495D1*
X50061Y73543D1*
X50013Y73567D1*
X49918D1*
X50311D2*
Y73208D1*
X50335Y73136D1*
X50383Y73089D1*
X50455Y73065D1*
X50502D1*
X50574Y73089D1*
X50622Y73136D1*
X50646Y73208D1*
Y73567D1*
X50825Y73447D2*
Y73471D1*
X50848Y73519D1*
X50872Y73543D1*
X50920Y73566D1*
X51016D1*
X51063Y73543D1*
X51087Y73519D1*
X51111Y73471D1*
Y73423D1*
X51087Y73375D1*
X51040Y73304D1*
X50800Y73065D1*
X51135D1*
X62246Y61871D2*
X62294Y61896D1*
X62365Y61967D1*
Y61465D1*
X62520Y61967D2*
X62640Y61465D1*
X62759Y61967D1*
X62879Y61465D1*
X62999Y61967D1*
X63512Y61848D2*
X63488Y61896D1*
X63440Y61944D1*
X63392Y61967D1*
X63297D1*
X63249Y61944D1*
X63201Y61896D1*
X63177Y61848D1*
X63153Y61776D1*
Y61656D1*
X63177Y61585D1*
X63201Y61537D1*
X63249Y61489D1*
X63297Y61465D1*
X63392D1*
X63440Y61489D1*
X63488Y61537D1*
X63512Y61585D1*
X63666Y61871D2*
X63714Y61896D1*
X63786Y61967D1*
Y61465D1*
X63940Y61382D2*
X64395D1*
X64549Y61871D2*
X64597Y61896D1*
X64669Y61967D1*
Y61465D1*
X60104Y61121D2*
X60152Y61146D1*
X60224Y61217D1*
Y60715D1*
X60378Y61217D2*
X60498Y60715D1*
X60617Y61217D1*
X60737Y60715D1*
X60857Y61217D1*
X61370Y61098D2*
X61346Y61146D1*
X61298Y61194D1*
X61250Y61217D1*
X61155D1*
X61107Y61194D1*
X61059Y61146D1*
X61035Y61098D1*
X61011Y61026D1*
Y60906D1*
X61035Y60835D1*
X61059Y60787D1*
X61107Y60739D1*
X61155Y60715D1*
X61250D1*
X61298Y60739D1*
X61346Y60787D1*
X61370Y60835D1*
X61548Y61097D2*
Y61121D1*
X61572Y61169D1*
X61596Y61193D1*
X61644Y61217D1*
X61740D1*
X61787Y61193D1*
X61811Y61169D1*
X61835Y61121D1*
Y61074D1*
X61811Y61026D1*
X61763Y60954D1*
X61524Y60715D1*
X61859D1*
X62013Y60632D2*
X62468D1*
X62622Y61121D2*
X62670Y61146D1*
X62742Y61217D1*
Y60715D1*
X58354Y61871D2*
X58402Y61896D1*
X58473Y61967D1*
Y61465D1*
X58628Y61967D2*
X58748Y61465D1*
X58867Y61967D1*
X58987Y61465D1*
X59106Y61967D1*
X59620Y61848D2*
X59596Y61896D1*
X59548Y61944D1*
X59500Y61967D1*
X59405D1*
X59356Y61944D1*
X59309Y61896D1*
X59285Y61848D1*
X59261Y61776D1*
Y61656D1*
X59285Y61585D1*
X59309Y61537D1*
X59356Y61489D1*
X59405Y61465D1*
X59500D1*
X59548Y61489D1*
X59596Y61537D1*
X59620Y61585D1*
X59822Y61967D2*
X60085D1*
X59941Y61776D1*
X60013D1*
X60061Y61752D1*
X60085Y61728D1*
X60109Y61656D1*
Y61609D1*
X60085Y61537D1*
X60037Y61489D1*
X59965Y61465D1*
X59893D1*
X59822Y61489D1*
X59798Y61513D1*
X59774Y61561D1*
X60263Y61382D2*
X60718D1*
X60872Y61871D2*
X60920Y61896D1*
X60992Y61967D1*
Y61465D1*
X60009Y70312D2*
X60057Y70337D1*
X60128Y70408D1*
Y69906D1*
X60283Y70409D2*
X60403Y69906D1*
X60522Y70409D1*
X60642Y69906D1*
X60761Y70409D1*
X60916D2*
Y69906D1*
X61070Y70169D2*
X61285D1*
X61357Y70194D1*
X61381Y70217D1*
X61405Y70265D1*
Y70313D1*
X61381Y70361D1*
X61357Y70385D1*
X61285Y70409D1*
X61070D1*
Y69906D1*
X61238Y70169D2*
X61405Y69906D1*
X61870Y70409D2*
X61560D1*
Y69906D1*
X61870D1*
X61560Y70169D2*
X61751D1*
X62025Y70146D2*
X62240D1*
X62311Y70169D1*
X62336Y70194D1*
X62360Y70241D1*
Y70313D1*
X62336Y70361D1*
X62311Y70385D1*
X62240Y70409D1*
X62025D1*
Y69906D1*
X62514Y69823D2*
X62968D1*
X63123Y70312D2*
X63171Y70337D1*
X63243Y70408D1*
Y69906D1*
X55138Y61871D2*
X55186Y61896D1*
X55258Y61967D1*
Y61465D1*
X55412Y61967D2*
X55532Y61465D1*
X55652Y61967D1*
X55771Y61465D1*
X55891Y61967D1*
X56404Y61848D2*
X56380Y61896D1*
X56332Y61944D1*
X56285Y61967D1*
X56189D1*
X56141Y61944D1*
X56093Y61896D1*
X56069Y61848D1*
X56045Y61776D1*
Y61656D1*
X56069Y61585D1*
X56093Y61537D1*
X56141Y61489D1*
X56189Y61465D1*
X56285D1*
X56332Y61489D1*
X56380Y61537D1*
X56404Y61585D1*
X56559Y61871D2*
X56607Y61896D1*
X56678Y61967D1*
Y61465D1*
X56833Y61382D2*
X57287D1*
X57466Y61847D2*
Y61871D1*
X57490Y61919D1*
X57513Y61943D1*
X57561Y61967D1*
X57657D1*
X57705Y61943D1*
X57728Y61919D1*
X57753Y61871D1*
Y61824D1*
X57728Y61776D1*
X57681Y61704D1*
X57442Y61465D1*
X57776D1*
X52996Y61121D2*
X53044Y61146D1*
X53116Y61217D1*
Y60715D1*
X53270Y61217D2*
X53390Y60715D1*
X53510Y61217D1*
X53629Y60715D1*
X53749Y61217D1*
X54262Y61098D2*
X54238Y61146D1*
X54190Y61194D1*
X54143Y61217D1*
X54047D1*
X53999Y61194D1*
X53952Y61146D1*
X53927Y61098D1*
X53903Y61026D1*
Y60906D1*
X53927Y60835D1*
X53952Y60787D1*
X53999Y60739D1*
X54047Y60715D1*
X54143D1*
X54190Y60739D1*
X54238Y60787D1*
X54262Y60835D1*
X54441Y61097D2*
Y61121D1*
X54465Y61169D1*
X54488Y61193D1*
X54536Y61217D1*
X54632D1*
X54680Y61193D1*
X54703Y61169D1*
X54728Y61121D1*
Y61074D1*
X54703Y61026D1*
X54656Y60954D1*
X54417Y60715D1*
X54751D1*
X54906Y60632D2*
X55360D1*
X55539Y61097D2*
Y61121D1*
X55563Y61169D1*
X55586Y61193D1*
X55634Y61217D1*
X55730D1*
X55778Y61193D1*
X55801Y61169D1*
X55826Y61121D1*
Y61074D1*
X55801Y61026D1*
X55754Y60954D1*
X55515Y60715D1*
X55849D1*
X51246Y61871D2*
X51294Y61896D1*
X51366Y61967D1*
Y61465D1*
X51520Y61967D2*
X51640Y61465D1*
X51760Y61967D1*
X51879Y61465D1*
X51999Y61967D1*
X52512Y61848D2*
X52488Y61896D1*
X52440Y61944D1*
X52393Y61967D1*
X52297D1*
X52249Y61944D1*
X52201Y61896D1*
X52177Y61848D1*
X52153Y61776D1*
Y61656D1*
X52177Y61585D1*
X52201Y61537D1*
X52249Y61489D1*
X52297Y61465D1*
X52393D1*
X52440Y61489D1*
X52488Y61537D1*
X52512Y61585D1*
X52715Y61967D2*
X52977D1*
X52834Y61776D1*
X52906D1*
X52953Y61752D1*
X52977Y61728D1*
X53001Y61656D1*
Y61609D1*
X52977Y61537D1*
X52930Y61489D1*
X52858Y61465D1*
X52786D1*
X52715Y61489D1*
X52691Y61513D1*
X52666Y61561D1*
X53156Y61382D2*
X53610D1*
X53789Y61847D2*
Y61871D1*
X53813Y61919D1*
X53836Y61943D1*
X53884Y61967D1*
X53980D1*
X54028Y61943D1*
X54051Y61919D1*
X54076Y61871D1*
Y61824D1*
X54051Y61776D1*
X54004Y61704D1*
X53765Y61465D1*
X54099D1*
X52901Y70312D2*
X52949Y70337D1*
X53021Y70408D1*
Y69906D1*
X53175Y70409D2*
X53295Y69906D1*
X53415Y70409D1*
X53534Y69906D1*
X53654Y70409D1*
X53808D2*
Y69906D1*
X53963Y70169D2*
X54178D1*
X54250Y70194D1*
X54274Y70217D1*
X54298Y70265D1*
Y70313D1*
X54274Y70361D1*
X54250Y70385D1*
X54178Y70409D1*
X53963D1*
Y69906D1*
X54130Y70169D2*
X54298Y69906D1*
X54763Y70409D2*
X54452D1*
Y69906D1*
X54763D1*
X54452Y70169D2*
X54643D1*
X54917Y70146D2*
X55133D1*
X55204Y70169D1*
X55228Y70194D1*
X55252Y70241D1*
Y70313D1*
X55228Y70361D1*
X55204Y70385D1*
X55133Y70409D1*
X54917D1*
Y69906D1*
X55406Y69823D2*
X55861D1*
X56039Y70289D2*
Y70312D1*
X56063Y70361D1*
X56087Y70384D1*
X56135Y70408D1*
X56231D1*
X56278Y70384D1*
X56302Y70361D1*
X56326Y70312D1*
Y70265D1*
X56302Y70217D1*
X56254Y70146D1*
X56015Y69906D1*
X56350D1*
X48138Y61871D2*
X48186Y61896D1*
X48258Y61967D1*
Y61465D1*
X48412Y61967D2*
X48532Y61465D1*
X48652Y61967D1*
X48771Y61465D1*
X48891Y61967D1*
X49404Y61848D2*
X49380Y61896D1*
X49332Y61944D1*
X49285Y61967D1*
X49189D1*
X49141Y61944D1*
X49093Y61896D1*
X49069Y61848D1*
X49045Y61776D1*
Y61656D1*
X49069Y61585D1*
X49093Y61537D1*
X49141Y61489D1*
X49189Y61465D1*
X49285D1*
X49332Y61489D1*
X49380Y61537D1*
X49404Y61585D1*
X49559Y61871D2*
X49607Y61896D1*
X49678Y61967D1*
Y61465D1*
X49833Y61382D2*
X50287D1*
X50490Y61967D2*
X50752D1*
X50609Y61776D1*
X50681D1*
X50728Y61752D1*
X50752Y61728D1*
X50776Y61656D1*
Y61609D1*
X50752Y61537D1*
X50705Y61489D1*
X50633Y61465D1*
X50561D1*
X50490Y61489D1*
X50466Y61513D1*
X50442Y61561D1*
X45996Y61121D2*
X46044Y61146D1*
X46116Y61217D1*
Y60715D1*
X46270Y61217D2*
X46390Y60715D1*
X46510Y61217D1*
X46629Y60715D1*
X46749Y61217D1*
X47262Y61098D2*
X47238Y61146D1*
X47190Y61194D1*
X47143Y61217D1*
X47047D1*
X46999Y61194D1*
X46952Y61146D1*
X46927Y61098D1*
X46903Y61026D1*
Y60906D1*
X46927Y60835D1*
X46952Y60787D1*
X46999Y60739D1*
X47047Y60715D1*
X47143D1*
X47190Y60739D1*
X47238Y60787D1*
X47262Y60835D1*
X47441Y61097D2*
Y61121D1*
X47465Y61169D1*
X47488Y61193D1*
X47536Y61217D1*
X47632D1*
X47680Y61193D1*
X47703Y61169D1*
X47728Y61121D1*
Y61074D1*
X47703Y61026D1*
X47656Y60954D1*
X47417Y60715D1*
X47751D1*
X47906Y60632D2*
X48360D1*
X48563Y61217D2*
X48825D1*
X48682Y61026D1*
X48754D1*
X48801Y61002D1*
X48825Y60978D1*
X48849Y60906D1*
Y60859D1*
X48825Y60787D1*
X48778Y60739D1*
X48706Y60715D1*
X48634D1*
X48563Y60739D1*
X48539Y60763D1*
X48515Y60811D1*
X44246Y61871D2*
X44294Y61896D1*
X44366Y61967D1*
Y61465D1*
X44520Y61967D2*
X44640Y61465D1*
X44760Y61967D1*
X44879Y61465D1*
X44999Y61967D1*
X45512Y61848D2*
X45488Y61896D1*
X45440Y61944D1*
X45393Y61967D1*
X45297D1*
X45249Y61944D1*
X45201Y61896D1*
X45177Y61848D1*
X45153Y61776D1*
Y61656D1*
X45177Y61585D1*
X45201Y61537D1*
X45249Y61489D1*
X45297Y61465D1*
X45393D1*
X45440Y61489D1*
X45488Y61537D1*
X45512Y61585D1*
X45715Y61967D2*
X45977D1*
X45834Y61776D1*
X45906D1*
X45953Y61752D1*
X45977Y61728D1*
X46001Y61656D1*
Y61609D1*
X45977Y61537D1*
X45930Y61489D1*
X45858Y61465D1*
X45786D1*
X45715Y61489D1*
X45691Y61513D1*
X45666Y61561D1*
X46156Y61382D2*
X46610D1*
X46813Y61967D2*
X47075D1*
X46932Y61776D1*
X47004D1*
X47051Y61752D1*
X47075Y61728D1*
X47099Y61656D1*
Y61609D1*
X47075Y61537D1*
X47028Y61489D1*
X46956Y61465D1*
X46884D1*
X46813Y61489D1*
X46789Y61513D1*
X46765Y61561D1*
X45901Y70312D2*
X45949Y70337D1*
X46021Y70408D1*
Y69906D1*
X46175Y70409D2*
X46295Y69906D1*
X46415Y70409D1*
X46534Y69906D1*
X46654Y70409D1*
X46808D2*
Y69906D1*
X46963Y70169D2*
X47178D1*
X47250Y70194D1*
X47274Y70217D1*
X47298Y70265D1*
Y70313D1*
X47274Y70361D1*
X47250Y70385D1*
X47178Y70409D1*
X46963D1*
Y69906D1*
X47130Y70169D2*
X47298Y69906D1*
X47763Y70409D2*
X47452D1*
Y69906D1*
X47763D1*
X47452Y70169D2*
X47643D1*
X47917Y70146D2*
X48133D1*
X48204Y70169D1*
X48228Y70194D1*
X48252Y70241D1*
Y70313D1*
X48228Y70361D1*
X48204Y70385D1*
X48133Y70409D1*
X47917D1*
Y69906D1*
X48406Y69823D2*
X48861D1*
X49063Y70408D2*
X49326D1*
X49183Y70217D1*
X49254D1*
X49302Y70193D1*
X49326Y70169D1*
X49350Y70097D1*
Y70050D1*
X49326Y69978D1*
X49278Y69930D1*
X49206Y69906D1*
X49135D1*
X49063Y69930D1*
X49039Y69954D1*
X49015Y70002D1*
X41126Y61871D2*
X41174Y61896D1*
X41246Y61967D1*
Y61465D1*
X41401Y61967D2*
X41520Y61465D1*
X41640Y61967D1*
X41759Y61465D1*
X41879Y61967D1*
X42392Y61848D2*
X42368Y61896D1*
X42320Y61944D1*
X42273Y61967D1*
X42177D1*
X42129Y61944D1*
X42082Y61896D1*
X42057Y61848D1*
X42034Y61776D1*
Y61656D1*
X42057Y61585D1*
X42082Y61537D1*
X42129Y61489D1*
X42177Y61465D1*
X42273D1*
X42320Y61489D1*
X42368Y61537D1*
X42392Y61585D1*
X42547Y61871D2*
X42595Y61896D1*
X42667Y61967D1*
Y61465D1*
X42821Y61382D2*
X43275D1*
X43669Y61465D2*
Y61967D1*
X43430Y61632D1*
X43788D1*
X38984Y61121D2*
X39032Y61146D1*
X39104Y61217D1*
Y60715D1*
X39259Y61217D2*
X39378Y60715D1*
X39498Y61217D1*
X39617Y60715D1*
X39737Y61217D1*
X40250Y61098D2*
X40226Y61146D1*
X40178Y61194D1*
X40131Y61217D1*
X40035D1*
X39987Y61194D1*
X39940Y61146D1*
X39915Y61098D1*
X39892Y61026D1*
Y60906D1*
X39915Y60835D1*
X39940Y60787D1*
X39987Y60739D1*
X40035Y60715D1*
X40131D1*
X40178Y60739D1*
X40226Y60787D1*
X40250Y60835D1*
X40429Y61097D2*
Y61121D1*
X40453Y61169D1*
X40476Y61193D1*
X40525Y61217D1*
X40620D1*
X40668Y61193D1*
X40691Y61169D1*
X40716Y61121D1*
Y61074D1*
X40691Y61026D1*
X40644Y60954D1*
X40405Y60715D1*
X40740D1*
X40894Y60632D2*
X41348D1*
X41742Y60715D2*
Y61217D1*
X41503Y60882D1*
X41861D1*
X37234Y61871D2*
X37282Y61896D1*
X37354Y61967D1*
Y61465D1*
X37508Y61967D2*
X37628Y61465D1*
X37748Y61967D1*
X37867Y61465D1*
X37987Y61967D1*
X38500Y61848D2*
X38476Y61896D1*
X38428Y61944D1*
X38381Y61967D1*
X38285D1*
X38237Y61944D1*
X38190Y61896D1*
X38165Y61848D1*
X38141Y61776D1*
Y61656D1*
X38165Y61585D1*
X38190Y61537D1*
X38237Y61489D1*
X38285Y61465D1*
X38381D1*
X38428Y61489D1*
X38476Y61537D1*
X38500Y61585D1*
X38703Y61967D2*
X38965D1*
X38822Y61776D1*
X38894D1*
X38941Y61752D1*
X38965Y61728D1*
X38990Y61656D1*
Y61609D1*
X38965Y61537D1*
X38918Y61489D1*
X38846Y61465D1*
X38774D1*
X38703Y61489D1*
X38679Y61513D1*
X38655Y61561D1*
X39144Y61382D2*
X39598D1*
X39992Y61465D2*
Y61967D1*
X39753Y61632D1*
X40111D1*
X38889Y70312D2*
X38937Y70337D1*
X39009Y70408D1*
Y69906D1*
X39163Y70409D2*
X39283Y69906D1*
X39403Y70409D1*
X39522Y69906D1*
X39642Y70409D1*
X39796D2*
Y69906D1*
X39951Y70169D2*
X40166D1*
X40238Y70194D1*
X40262Y70217D1*
X40286Y70265D1*
Y70313D1*
X40262Y70361D1*
X40238Y70385D1*
X40166Y70409D1*
X39951D1*
Y69906D1*
X40118Y70169D2*
X40286Y69906D1*
X40751Y70409D2*
X40440D1*
Y69906D1*
X40751D1*
X40440Y70169D2*
X40631D1*
X40905Y70146D2*
X41121D1*
X41192Y70169D1*
X41216Y70194D1*
X41240Y70241D1*
Y70313D1*
X41216Y70361D1*
X41192Y70385D1*
X41121Y70409D1*
X40905D1*
Y69906D1*
X41395Y69823D2*
X41849D1*
X42243Y69906D2*
Y70408D1*
X42003Y70074D1*
X42362D1*
X34138Y61871D2*
X34186Y61896D1*
X34258Y61967D1*
Y61465D1*
X34412Y61967D2*
X34532Y61465D1*
X34652Y61967D1*
X34771Y61465D1*
X34891Y61967D1*
X35404Y61848D2*
X35380Y61896D1*
X35332Y61944D1*
X35285Y61967D1*
X35189D1*
X35141Y61944D1*
X35093Y61896D1*
X35069Y61848D1*
X35045Y61776D1*
Y61656D1*
X35069Y61585D1*
X35093Y61537D1*
X35141Y61489D1*
X35189Y61465D1*
X35285D1*
X35332Y61489D1*
X35380Y61537D1*
X35404Y61585D1*
X35559Y61871D2*
X35607Y61896D1*
X35678Y61967D1*
Y61465D1*
X35833Y61382D2*
X36287D1*
X36728Y61967D2*
X36490D1*
X36466Y61752D1*
X36490Y61776D1*
X36561Y61800D1*
X36633D1*
X36705Y61776D1*
X36753Y61728D1*
X36776Y61656D1*
Y61609D1*
X36753Y61537D1*
X36705Y61489D1*
X36633Y61465D1*
X36561D1*
X36490Y61489D1*
X36466Y61513D1*
X36442Y61561D1*
X31996Y61121D2*
X32044Y61146D1*
X32116Y61217D1*
Y60715D1*
X32270Y61217D2*
X32390Y60715D1*
X32510Y61217D1*
X32629Y60715D1*
X32749Y61217D1*
X33262Y61098D2*
X33238Y61146D1*
X33190Y61194D1*
X33143Y61217D1*
X33047D1*
X32999Y61194D1*
X32952Y61146D1*
X32927Y61098D1*
X32903Y61026D1*
Y60906D1*
X32927Y60835D1*
X32952Y60787D1*
X32999Y60739D1*
X33047Y60715D1*
X33143D1*
X33190Y60739D1*
X33238Y60787D1*
X33262Y60835D1*
X33441Y61097D2*
Y61121D1*
X33465Y61169D1*
X33488Y61193D1*
X33536Y61217D1*
X33632D1*
X33680Y61193D1*
X33703Y61169D1*
X33728Y61121D1*
Y61074D1*
X33703Y61026D1*
X33656Y60954D1*
X33417Y60715D1*
X33751D1*
X33906Y60632D2*
X34360D1*
X34801Y61217D2*
X34563D1*
X34539Y61002D1*
X34563Y61026D1*
X34634Y61050D1*
X34706D1*
X34778Y61026D1*
X34826Y60978D1*
X34849Y60906D1*
Y60859D1*
X34826Y60787D1*
X34778Y60739D1*
X34706Y60715D1*
X34634D1*
X34563Y60739D1*
X34539Y60763D1*
X34515Y60811D1*
X30246Y61871D2*
X30294Y61896D1*
X30366Y61967D1*
Y61465D1*
X30520Y61967D2*
X30640Y61465D1*
X30760Y61967D1*
X30879Y61465D1*
X30999Y61967D1*
X31512Y61848D2*
X31488Y61896D1*
X31440Y61944D1*
X31393Y61967D1*
X31297D1*
X31249Y61944D1*
X31201Y61896D1*
X31177Y61848D1*
X31153Y61776D1*
Y61656D1*
X31177Y61585D1*
X31201Y61537D1*
X31249Y61489D1*
X31297Y61465D1*
X31393D1*
X31440Y61489D1*
X31488Y61537D1*
X31512Y61585D1*
X31715Y61967D2*
X31977D1*
X31834Y61776D1*
X31906D1*
X31953Y61752D1*
X31977Y61728D1*
X32001Y61656D1*
Y61609D1*
X31977Y61537D1*
X31930Y61489D1*
X31858Y61465D1*
X31786D1*
X31715Y61489D1*
X31691Y61513D1*
X31666Y61561D1*
X32156Y61382D2*
X32610D1*
X33051Y61967D2*
X32813D1*
X32789Y61752D1*
X32813Y61776D1*
X32884Y61800D1*
X32956D1*
X33028Y61776D1*
X33076Y61728D1*
X33099Y61656D1*
Y61609D1*
X33076Y61537D1*
X33028Y61489D1*
X32956Y61465D1*
X32884D1*
X32813Y61489D1*
X32789Y61513D1*
X32765Y61561D1*
X31901Y70312D2*
X31949Y70337D1*
X32021Y70408D1*
Y69906D1*
X32175Y70409D2*
X32295Y69906D1*
X32415Y70409D1*
X32534Y69906D1*
X32654Y70409D1*
X32808D2*
Y69906D1*
X32963Y70169D2*
X33178D1*
X33250Y70194D1*
X33274Y70217D1*
X33298Y70265D1*
Y70313D1*
X33274Y70361D1*
X33250Y70385D1*
X33178Y70409D1*
X32963D1*
Y69906D1*
X33130Y70169D2*
X33298Y69906D1*
X33763Y70409D2*
X33452D1*
Y69906D1*
X33763D1*
X33452Y70169D2*
X33643D1*
X33917Y70146D2*
X34133D1*
X34204Y70169D1*
X34228Y70194D1*
X34252Y70241D1*
Y70313D1*
X34228Y70361D1*
X34204Y70385D1*
X34133Y70409D1*
X33917D1*
Y69906D1*
X34406Y69823D2*
X34861D1*
X35302Y70408D2*
X35063D1*
X35039Y70193D1*
X35063Y70217D1*
X35135Y70241D1*
X35206D1*
X35278Y70217D1*
X35326Y70169D1*
X35350Y70097D1*
Y70050D1*
X35326Y69978D1*
X35278Y69930D1*
X35206Y69906D1*
X35135D1*
X35063Y69930D1*
X35039Y69954D1*
X35015Y70002D1*
X27150Y61871D2*
X27198Y61896D1*
X27270Y61967D1*
Y61465D1*
X27425Y61967D2*
X27544Y61465D1*
X27664Y61967D1*
X27783Y61465D1*
X27903Y61967D1*
X28416Y61848D2*
X28393Y61896D1*
X28344Y61944D1*
X28297Y61967D1*
X28201D1*
X28153Y61944D1*
X28106Y61896D1*
X28081Y61848D1*
X28058Y61776D1*
Y61656D1*
X28081Y61585D1*
X28106Y61537D1*
X28153Y61489D1*
X28201Y61465D1*
X28297D1*
X28344Y61489D1*
X28393Y61537D1*
X28416Y61585D1*
X28571Y61871D2*
X28619Y61896D1*
X28691Y61967D1*
Y61465D1*
X28845Y61382D2*
X29299D1*
X29741Y61896D2*
X29717Y61943D1*
X29645Y61967D1*
X29597D1*
X29526Y61943D1*
X29477Y61871D1*
X29454Y61752D1*
Y61632D1*
X29477Y61537D1*
X29526Y61489D1*
X29597Y61465D1*
X29621D1*
X29692Y61489D1*
X29741Y61537D1*
X29764Y61609D1*
Y61632D1*
X29741Y61704D1*
X29692Y61752D1*
X29621Y61776D1*
X29597D1*
X29526Y61752D1*
X29477Y61704D1*
X29454Y61632D1*
X25008Y61121D2*
X25056Y61146D1*
X25128Y61217D1*
Y60715D1*
X25283Y61217D2*
X25403Y60715D1*
X25522Y61217D1*
X25641Y60715D1*
X25761Y61217D1*
X26274Y61098D2*
X26251Y61146D1*
X26202Y61194D1*
X26155Y61217D1*
X26059D1*
X26011Y61194D1*
X25964Y61146D1*
X25939Y61098D1*
X25916Y61026D1*
Y60906D1*
X25939Y60835D1*
X25964Y60787D1*
X26011Y60739D1*
X26059Y60715D1*
X26155D1*
X26202Y60739D1*
X26251Y60787D1*
X26274Y60835D1*
X26453Y61097D2*
Y61121D1*
X26477Y61169D1*
X26501Y61193D1*
X26549Y61217D1*
X26644D1*
X26692Y61193D1*
X26716Y61169D1*
X26740Y61121D1*
Y61074D1*
X26716Y61026D1*
X26668Y60954D1*
X26429Y60715D1*
X26764D1*
X26918Y60632D2*
X27372D1*
X27814Y61146D2*
X27790Y61193D1*
X27718Y61217D1*
X27670D1*
X27599Y61193D1*
X27550Y61121D1*
X27527Y61002D1*
Y60882D1*
X27550Y60787D1*
X27599Y60739D1*
X27670Y60715D1*
X27694D1*
X27765Y60739D1*
X27814Y60787D1*
X27837Y60859D1*
Y60882D1*
X27814Y60954D1*
X27765Y61002D1*
X27694Y61026D1*
X27670D1*
X27599Y61002D1*
X27550Y60954D1*
X27527Y60882D1*
X23258Y61871D2*
X23306Y61896D1*
X23378Y61967D1*
Y61465D1*
X23533Y61967D2*
X23652Y61465D1*
X23772Y61967D1*
X23891Y61465D1*
X24011Y61967D1*
X24524Y61848D2*
X24500Y61896D1*
X24452Y61944D1*
X24405Y61967D1*
X24309D1*
X24261Y61944D1*
X24214Y61896D1*
X24189Y61848D1*
X24166Y61776D1*
Y61656D1*
X24189Y61585D1*
X24214Y61537D1*
X24261Y61489D1*
X24309Y61465D1*
X24405D1*
X24452Y61489D1*
X24500Y61537D1*
X24524Y61585D1*
X24727Y61967D2*
X24989D1*
X24846Y61776D1*
X24918D1*
X24965Y61752D1*
X24989Y61728D1*
X25014Y61656D1*
Y61609D1*
X24989Y61537D1*
X24942Y61489D1*
X24870Y61465D1*
X24798D1*
X24727Y61489D1*
X24703Y61513D1*
X24679Y61561D1*
X25168Y61382D2*
X25622D1*
X26064Y61896D2*
X26040Y61943D1*
X25968Y61967D1*
X25920D1*
X25849Y61943D1*
X25800Y61871D1*
X25777Y61752D1*
Y61632D1*
X25800Y61537D1*
X25849Y61489D1*
X25920Y61465D1*
X25944D1*
X26015Y61489D1*
X26064Y61537D1*
X26087Y61609D1*
Y61632D1*
X26064Y61704D1*
X26015Y61752D1*
X25944Y61776D1*
X25920D1*
X25849Y61752D1*
X25800Y61704D1*
X25777Y61632D1*
X24913Y70312D2*
X24961Y70337D1*
X25033Y70408D1*
Y69906D1*
X25188Y70409D2*
X25307Y69906D1*
X25427Y70409D1*
X25546Y69906D1*
X25666Y70409D1*
X25821D2*
Y69906D1*
X25975Y70169D2*
X26190D1*
X26262Y70194D1*
X26286Y70217D1*
X26310Y70265D1*
Y70313D1*
X26286Y70361D1*
X26262Y70385D1*
X26190Y70409D1*
X25975D1*
Y69906D1*
X26142Y70169D2*
X26310Y69906D1*
X26775Y70409D2*
X26464D1*
Y69906D1*
X26775D1*
X26464Y70169D2*
X26655D1*
X26929Y70146D2*
X27145D1*
X27216Y70169D1*
X27240Y70194D1*
X27264Y70241D1*
Y70313D1*
X27240Y70361D1*
X27216Y70385D1*
X27145Y70409D1*
X26929D1*
Y69906D1*
X27419Y69823D2*
X27873D1*
X28314Y70337D2*
X28290Y70384D1*
X28219Y70408D1*
X28171D1*
X28099Y70384D1*
X28051Y70312D1*
X28027Y70193D1*
Y70074D1*
X28051Y69978D1*
X28099Y69930D1*
X28171Y69906D1*
X28195D1*
X28266Y69930D1*
X28314Y69978D1*
X28338Y70050D1*
Y70074D1*
X28314Y70146D1*
X28266Y70193D1*
X28195Y70217D1*
X28171D1*
X28099Y70193D1*
X28051Y70146D1*
X28027Y70074D1*
X20138Y61871D2*
X20186Y61896D1*
X20258Y61967D1*
Y61465D1*
X20412Y61967D2*
X20532Y61465D1*
X20652Y61967D1*
X20771Y61465D1*
X20891Y61967D1*
X21404Y61848D2*
X21380Y61896D1*
X21332Y61944D1*
X21285Y61967D1*
X21189D1*
X21141Y61944D1*
X21093Y61896D1*
X21069Y61848D1*
X21045Y61776D1*
Y61656D1*
X21069Y61585D1*
X21093Y61537D1*
X21141Y61489D1*
X21189Y61465D1*
X21285D1*
X21332Y61489D1*
X21380Y61537D1*
X21404Y61585D1*
X21559Y61871D2*
X21607Y61896D1*
X21678Y61967D1*
Y61465D1*
X21833Y61382D2*
X22287D1*
X22537Y61465D2*
X22776Y61967D1*
X22442D1*
X17996Y61121D2*
X18044Y61146D1*
X18116Y61217D1*
Y60715D1*
X18270Y61217D2*
X18390Y60715D1*
X18510Y61217D1*
X18629Y60715D1*
X18749Y61217D1*
X19262Y61098D2*
X19238Y61146D1*
X19190Y61194D1*
X19143Y61217D1*
X19047D1*
X18999Y61194D1*
X18952Y61146D1*
X18927Y61098D1*
X18903Y61026D1*
Y60906D1*
X18927Y60835D1*
X18952Y60787D1*
X18999Y60739D1*
X19047Y60715D1*
X19143D1*
X19190Y60739D1*
X19238Y60787D1*
X19262Y60835D1*
X19441Y61097D2*
Y61121D1*
X19465Y61169D1*
X19488Y61193D1*
X19536Y61217D1*
X19632D1*
X19680Y61193D1*
X19703Y61169D1*
X19728Y61121D1*
Y61074D1*
X19703Y61026D1*
X19656Y60954D1*
X19417Y60715D1*
X19751D1*
X19906Y60632D2*
X20360D1*
X20610Y60715D2*
X20849Y61217D1*
X20515D1*
X16246Y61871D2*
X16294Y61896D1*
X16366Y61967D1*
Y61465D1*
X16520Y61967D2*
X16640Y61465D1*
X16760Y61967D1*
X16879Y61465D1*
X16999Y61967D1*
X17512Y61848D2*
X17488Y61896D1*
X17440Y61944D1*
X17393Y61967D1*
X17297D1*
X17249Y61944D1*
X17201Y61896D1*
X17177Y61848D1*
X17153Y61776D1*
Y61656D1*
X17177Y61585D1*
X17201Y61537D1*
X17249Y61489D1*
X17297Y61465D1*
X17393D1*
X17440Y61489D1*
X17488Y61537D1*
X17512Y61585D1*
X17715Y61967D2*
X17977D1*
X17834Y61776D1*
X17906D1*
X17953Y61752D1*
X17977Y61728D1*
X18001Y61656D1*
Y61609D1*
X17977Y61537D1*
X17930Y61489D1*
X17858Y61465D1*
X17786D1*
X17715Y61489D1*
X17691Y61513D1*
X17666Y61561D1*
X18156Y61382D2*
X18610D1*
X18860Y61465D2*
X19099Y61967D1*
X18765D1*
X17901Y70312D2*
X17949Y70337D1*
X18021Y70408D1*
Y69906D1*
X18175Y70409D2*
X18295Y69906D1*
X18415Y70409D1*
X18534Y69906D1*
X18654Y70409D1*
X18808D2*
Y69906D1*
X18963Y70169D2*
X19178D1*
X19250Y70194D1*
X19274Y70217D1*
X19298Y70265D1*
Y70313D1*
X19274Y70361D1*
X19250Y70385D1*
X19178Y70409D1*
X18963D1*
Y69906D1*
X19130Y70169D2*
X19298Y69906D1*
X19763Y70409D2*
X19452D1*
Y69906D1*
X19763D1*
X19452Y70169D2*
X19643D1*
X19917Y70146D2*
X20133D1*
X20204Y70169D1*
X20228Y70194D1*
X20252Y70241D1*
Y70313D1*
X20228Y70361D1*
X20204Y70385D1*
X20133Y70409D1*
X19917D1*
Y69906D1*
X20406Y69823D2*
X20861D1*
X21111Y69906D2*
X21350Y70408D1*
X21015D1*
X13138Y61871D2*
X13186Y61896D1*
X13258Y61967D1*
Y61465D1*
X13413Y61967D2*
X13533Y61465D1*
X13652Y61967D1*
X13771Y61465D1*
X13891Y61967D1*
X14404Y61848D2*
X14381Y61896D1*
X14333Y61944D1*
X14285Y61967D1*
X14189D1*
X14141Y61944D1*
X14094Y61896D1*
X14069Y61848D1*
X14046Y61776D1*
Y61656D1*
X14069Y61585D1*
X14094Y61537D1*
X14141Y61489D1*
X14189Y61465D1*
X14285D1*
X14333Y61489D1*
X14381Y61537D1*
X14404Y61585D1*
X14559Y61871D2*
X14607Y61896D1*
X14679Y61967D1*
Y61465D1*
X14833Y61382D2*
X15287D1*
X15561Y61967D2*
X15490Y61943D1*
X15466Y61896D1*
Y61847D1*
X15490Y61800D1*
X15537Y61776D1*
X15633Y61752D1*
X15705Y61728D1*
X15752Y61680D1*
X15776Y61632D1*
Y61561D1*
X15752Y61513D1*
X15729Y61489D1*
X15657Y61465D1*
X15561D1*
X15490Y61489D1*
X15466Y61513D1*
X15442Y61561D1*
Y61632D1*
X15466Y61680D1*
X15514Y61728D1*
X15585Y61752D1*
X15681Y61776D1*
X15729Y61800D1*
X15752Y61847D1*
Y61896D1*
X15729Y61943D1*
X15657Y61967D1*
X15561D1*
X10996Y61121D2*
X11044Y61146D1*
X11116Y61217D1*
Y60715D1*
X11271Y61217D2*
X11391Y60715D1*
X11510Y61217D1*
X11629Y60715D1*
X11749Y61217D1*
X12262Y61098D2*
X12239Y61146D1*
X12191Y61194D1*
X12143Y61217D1*
X12047D1*
X11999Y61194D1*
X11952Y61146D1*
X11927Y61098D1*
X11904Y61026D1*
Y60906D1*
X11927Y60835D1*
X11952Y60787D1*
X11999Y60739D1*
X12047Y60715D1*
X12143D1*
X12191Y60739D1*
X12239Y60787D1*
X12262Y60835D1*
X12441Y61097D2*
Y61121D1*
X12465Y61169D1*
X12489Y61193D1*
X12537Y61217D1*
X12632D1*
X12680Y61193D1*
X12704Y61169D1*
X12728Y61121D1*
Y61074D1*
X12704Y61026D1*
X12656Y60954D1*
X12417Y60715D1*
X12752D1*
X12906Y60632D2*
X13360D1*
X13634Y61217D2*
X13563Y61193D1*
X13539Y61146D1*
Y61097D1*
X13563Y61050D1*
X13610Y61026D1*
X13706Y61002D1*
X13778Y60978D1*
X13825Y60930D1*
X13849Y60882D1*
Y60811D1*
X13825Y60763D1*
X13802Y60739D1*
X13730Y60715D1*
X13634D1*
X13563Y60739D1*
X13539Y60763D1*
X13515Y60811D1*
Y60882D1*
X13539Y60930D1*
X13587Y60978D1*
X13658Y61002D1*
X13754Y61026D1*
X13802Y61050D1*
X13825Y61097D1*
Y61146D1*
X13802Y61193D1*
X13730Y61217D1*
X13634D1*
X9246Y61871D2*
X9294Y61896D1*
X9366Y61967D1*
Y61465D1*
X9521Y61967D2*
X9641Y61465D1*
X9760Y61967D1*
X9879Y61465D1*
X9999Y61967D1*
X10512Y61848D2*
X10489Y61896D1*
X10441Y61944D1*
X10393Y61967D1*
X10297D1*
X10249Y61944D1*
X10202Y61896D1*
X10177Y61848D1*
X10154Y61776D1*
Y61656D1*
X10177Y61585D1*
X10202Y61537D1*
X10249Y61489D1*
X10297Y61465D1*
X10393D1*
X10441Y61489D1*
X10489Y61537D1*
X10512Y61585D1*
X10715Y61967D2*
X10977D1*
X10834Y61776D1*
X10906D1*
X10954Y61752D1*
X10977Y61728D1*
X11002Y61656D1*
Y61609D1*
X10977Y61537D1*
X10930Y61489D1*
X10858Y61465D1*
X10786D1*
X10715Y61489D1*
X10691Y61513D1*
X10667Y61561D1*
X11156Y61382D2*
X11610D1*
X11884Y61967D2*
X11813Y61943D1*
X11789Y61896D1*
Y61847D1*
X11813Y61800D1*
X11860Y61776D1*
X11956Y61752D1*
X12028Y61728D1*
X12075Y61680D1*
X12099Y61632D1*
Y61561D1*
X12075Y61513D1*
X12052Y61489D1*
X11980Y61465D1*
X11884D1*
X11813Y61489D1*
X11789Y61513D1*
X11765Y61561D1*
Y61632D1*
X11789Y61680D1*
X11837Y61728D1*
X11908Y61752D1*
X12004Y61776D1*
X12052Y61800D1*
X12075Y61847D1*
Y61896D1*
X12052Y61943D1*
X11980Y61967D1*
X11884D1*
X10901Y70312D2*
X10949Y70337D1*
X11021Y70408D1*
Y69906D1*
X11176Y70409D2*
X11296Y69906D1*
X11415Y70409D1*
X11534Y69906D1*
X11654Y70409D1*
X11809D2*
Y69906D1*
X11963Y70169D2*
X12178D1*
X12250Y70194D1*
X12274Y70217D1*
X12298Y70265D1*
Y70313D1*
X12274Y70361D1*
X12250Y70385D1*
X12178Y70409D1*
X11963D1*
Y69906D1*
X12131Y70169D2*
X12298Y69906D1*
X12763Y70409D2*
X12452D1*
Y69906D1*
X12763D1*
X12452Y70169D2*
X12644D1*
X12917Y70146D2*
X13133D1*
X13204Y70169D1*
X13229Y70194D1*
X13252Y70241D1*
Y70313D1*
X13229Y70361D1*
X13204Y70385D1*
X13133Y70409D1*
X12917D1*
Y69906D1*
X13407Y69823D2*
X13861D1*
X14135Y70408D2*
X14063Y70384D1*
X14039Y70337D1*
Y70289D1*
X14063Y70241D1*
X14111Y70217D1*
X14207Y70193D1*
X14278Y70169D1*
X14326Y70121D1*
X14350Y70074D1*
Y70002D1*
X14326Y69954D1*
X14302Y69930D1*
X14230Y69906D1*
X14135D1*
X14063Y69930D1*
X14039Y69954D1*
X14015Y70002D1*
Y70074D1*
X14039Y70121D1*
X14087Y70169D1*
X14159Y70193D1*
X14254Y70217D1*
X14302Y70241D1*
X14326Y70289D1*
Y70337D1*
X14302Y70384D1*
X14230Y70408D1*
X14135D1*
X62150Y77121D2*
X62198Y77146D1*
X62270Y77217D1*
Y76715D1*
X62424Y77217D2*
X62544Y76715D1*
X62664Y77217D1*
X62783Y76715D1*
X62903Y77217D1*
X63416Y77098D2*
X63392Y77146D1*
X63344Y77194D1*
X63297Y77217D1*
X63201D1*
X63153Y77194D1*
X63105Y77146D1*
X63081Y77098D1*
X63057Y77026D1*
Y76906D1*
X63081Y76835D1*
X63105Y76787D1*
X63153Y76739D1*
X63201Y76715D1*
X63297D1*
X63344Y76739D1*
X63392Y76787D1*
X63416Y76835D1*
X63570Y77121D2*
X63618Y77146D1*
X63690Y77217D1*
Y76715D1*
X63845Y76632D2*
X64299D1*
X64765Y77050D2*
X64740Y76978D1*
X64693Y76930D1*
X64621Y76906D1*
X64597D1*
X64525Y76930D1*
X64478Y76978D1*
X64453Y77050D1*
Y77074D1*
X64478Y77146D1*
X64525Y77193D1*
X64597Y77217D1*
X64621D1*
X64693Y77193D1*
X64740Y77146D1*
X64765Y77050D1*
Y76930D1*
X64740Y76811D1*
X64693Y76739D1*
X64621Y76715D1*
X64573D1*
X64502Y76739D1*
X64478Y76787D1*
X60008Y76371D2*
X60056Y76396D1*
X60128Y76467D1*
Y75965D1*
X60282Y76467D2*
X60402Y75965D1*
X60522Y76467D1*
X60641Y75965D1*
X60761Y76467D1*
X61274Y76348D2*
X61250Y76396D1*
X61202Y76444D1*
X61155Y76467D1*
X61059D1*
X61011Y76444D1*
X60963Y76396D1*
X60939Y76348D1*
X60915Y76276D1*
Y76156D1*
X60939Y76085D1*
X60963Y76037D1*
X61011Y75989D1*
X61059Y75965D1*
X61155D1*
X61202Y75989D1*
X61250Y76037D1*
X61274Y76085D1*
X61453Y76347D2*
Y76371D1*
X61476Y76419D1*
X61500Y76443D1*
X61548Y76467D1*
X61644D1*
X61691Y76443D1*
X61715Y76419D1*
X61740Y76371D1*
Y76324D1*
X61715Y76276D1*
X61668Y76204D1*
X61428Y75965D1*
X61763D1*
X61918Y75882D2*
X62372D1*
X62838Y76300D2*
X62813Y76228D1*
X62766Y76180D1*
X62694Y76156D1*
X62670D1*
X62598Y76180D1*
X62551Y76228D1*
X62526Y76300D1*
Y76324D1*
X62551Y76396D1*
X62598Y76443D1*
X62670Y76467D1*
X62694D1*
X62766Y76443D1*
X62813Y76396D1*
X62838Y76300D1*
Y76180D1*
X62813Y76061D1*
X62766Y75989D1*
X62694Y75965D1*
X62646D1*
X62575Y75989D1*
X62551Y76037D1*
X58258Y77121D2*
X58306Y77146D1*
X58378Y77217D1*
Y76715D1*
X58532Y77217D2*
X58652Y76715D1*
X58772Y77217D1*
X58891Y76715D1*
X59011Y77217D1*
X59524Y77098D2*
X59500Y77146D1*
X59452Y77194D1*
X59405Y77217D1*
X59309D1*
X59261Y77194D1*
X59213Y77146D1*
X59189Y77098D1*
X59165Y77026D1*
Y76906D1*
X59189Y76835D1*
X59213Y76787D1*
X59261Y76739D1*
X59309Y76715D1*
X59405D1*
X59452Y76739D1*
X59500Y76787D1*
X59524Y76835D1*
X59726Y77217D2*
X59989D1*
X59846Y77026D1*
X59918D1*
X59965Y77002D1*
X59989Y76978D1*
X60013Y76906D1*
Y76859D1*
X59989Y76787D1*
X59941Y76739D1*
X59870Y76715D1*
X59798D1*
X59726Y76739D1*
X59703Y76763D1*
X59678Y76811D1*
X60168Y76632D2*
X60622D1*
X61088Y77050D2*
X61063Y76978D1*
X61016Y76930D1*
X60944Y76906D1*
X60920D1*
X60848Y76930D1*
X60801Y76978D1*
X60776Y77050D1*
Y77074D1*
X60801Y77146D1*
X60848Y77193D1*
X60920Y77217D1*
X60944D1*
X61016Y77193D1*
X61063Y77146D1*
X61088Y77050D1*
Y76930D1*
X61063Y76811D1*
X61016Y76739D1*
X60944Y76715D1*
X60896D1*
X60824Y76739D1*
X60801Y76787D1*
X59913Y85562D2*
X59961Y85587D1*
X60033Y85658D1*
Y85156D1*
X60187Y85659D2*
X60307Y85156D1*
X60427Y85659D1*
X60546Y85156D1*
X60666Y85659D1*
X60820D2*
Y85156D1*
X60975Y85419D2*
X61190D1*
X61261Y85444D1*
X61286Y85467D1*
X61310Y85515D1*
Y85563D1*
X61286Y85611D1*
X61261Y85635D1*
X61190Y85659D1*
X60975D1*
Y85156D1*
X61142Y85419D2*
X61310Y85156D1*
X61775Y85659D2*
X61464D1*
Y85156D1*
X61775D1*
X61464Y85419D2*
X61655D1*
X61929Y85396D2*
X62145D1*
X62216Y85419D1*
X62240Y85444D1*
X62264Y85491D1*
Y85563D1*
X62240Y85611D1*
X62216Y85635D1*
X62145Y85659D1*
X61929D1*
Y85156D1*
X62418Y85073D2*
X62873D1*
X63338Y85491D2*
X63314Y85419D1*
X63266Y85371D1*
X63194Y85347D1*
X63171D1*
X63099Y85371D1*
X63051Y85419D1*
X63027Y85491D1*
Y85515D1*
X63051Y85587D1*
X63099Y85634D1*
X63171Y85658D1*
X63194D1*
X63266Y85634D1*
X63314Y85587D1*
X63338Y85491D1*
Y85371D1*
X63314Y85252D1*
X63266Y85180D1*
X63194Y85156D1*
X63147D1*
X63075Y85180D1*
X63051Y85228D1*
X55001Y77121D2*
X55049Y77146D1*
X55121Y77217D1*
Y76715D1*
X55275Y77217D2*
X55395Y76715D1*
X55515Y77217D1*
X55634Y76715D1*
X55754Y77217D1*
X56267Y77098D2*
X56243Y77146D1*
X56195Y77194D1*
X56148Y77217D1*
X56052D1*
X56004Y77194D1*
X55956Y77146D1*
X55932Y77098D1*
X55908Y77026D1*
Y76906D1*
X55932Y76835D1*
X55956Y76787D1*
X56004Y76739D1*
X56052Y76715D1*
X56148D1*
X56195Y76739D1*
X56243Y76787D1*
X56267Y76835D1*
X56421Y77121D2*
X56469Y77146D1*
X56541Y77217D1*
Y76715D1*
X56696Y76632D2*
X57150D1*
X57304Y77121D2*
X57352Y77146D1*
X57424Y77217D1*
Y76715D1*
X57722Y77217D2*
X57651Y77193D1*
X57602Y77121D1*
X57579Y77002D1*
Y76930D1*
X57602Y76811D1*
X57651Y76739D1*
X57722Y76715D1*
X57770D1*
X57842Y76739D1*
X57889Y76811D1*
X57914Y76930D1*
Y77002D1*
X57889Y77121D1*
X57842Y77193D1*
X57770Y77217D1*
X57722D1*
X57889Y77121D2*
X57602Y76811D1*
X52859Y76371D2*
X52907Y76396D1*
X52979Y76467D1*
Y75965D1*
X53133Y76467D2*
X53253Y75965D1*
X53373Y76467D1*
X53492Y75965D1*
X53612Y76467D1*
X54125Y76348D2*
X54101Y76396D1*
X54053Y76444D1*
X54006Y76467D1*
X53910D1*
X53862Y76444D1*
X53814Y76396D1*
X53790Y76348D1*
X53766Y76276D1*
Y76156D1*
X53790Y76085D1*
X53814Y76037D1*
X53862Y75989D1*
X53910Y75965D1*
X54006D1*
X54053Y75989D1*
X54101Y76037D1*
X54125Y76085D1*
X54304Y76347D2*
Y76371D1*
X54327Y76419D1*
X54351Y76443D1*
X54399Y76467D1*
X54495D1*
X54542Y76443D1*
X54566Y76419D1*
X54591Y76371D1*
Y76324D1*
X54566Y76276D1*
X54519Y76204D1*
X54279Y75965D1*
X54614D1*
X54769Y75882D2*
X55223D1*
X55377Y76371D2*
X55425Y76396D1*
X55497Y76467D1*
Y75965D1*
X55795Y76467D2*
X55724Y76443D1*
X55675Y76371D1*
X55652Y76252D1*
Y76180D1*
X55675Y76061D1*
X55724Y75989D1*
X55795Y75965D1*
X55843D1*
X55915Y75989D1*
X55962Y76061D1*
X55987Y76180D1*
Y76252D1*
X55962Y76371D1*
X55915Y76443D1*
X55843Y76467D1*
X55795D1*
X55962Y76371D2*
X55675Y76061D1*
X51109Y77121D2*
X51157Y77146D1*
X51229Y77217D1*
Y76715D1*
X51383Y77217D2*
X51503Y76715D1*
X51623Y77217D1*
X51742Y76715D1*
X51862Y77217D1*
X52375Y77098D2*
X52351Y77146D1*
X52303Y77194D1*
X52256Y77217D1*
X52160D1*
X52112Y77194D1*
X52064Y77146D1*
X52040Y77098D1*
X52016Y77026D1*
Y76906D1*
X52040Y76835D1*
X52064Y76787D1*
X52112Y76739D1*
X52160Y76715D1*
X52256D1*
X52303Y76739D1*
X52351Y76787D1*
X52375Y76835D1*
X52577Y77217D2*
X52840D1*
X52697Y77026D1*
X52769D1*
X52816Y77002D1*
X52840Y76978D1*
X52864Y76906D1*
Y76859D1*
X52840Y76787D1*
X52792Y76739D1*
X52721Y76715D1*
X52649D1*
X52577Y76739D1*
X52554Y76763D1*
X52529Y76811D1*
X53019Y76632D2*
X53473D1*
X53627Y77121D2*
X53675Y77146D1*
X53747Y77217D1*
Y76715D1*
X54045Y77217D2*
X53974Y77193D1*
X53925Y77121D1*
X53902Y77002D1*
Y76930D1*
X53925Y76811D1*
X53974Y76739D1*
X54045Y76715D1*
X54093D1*
X54165Y76739D1*
X54212Y76811D1*
X54237Y76930D1*
Y77002D1*
X54212Y77121D1*
X54165Y77193D1*
X54093Y77217D1*
X54045D1*
X54212Y77121D2*
X53925Y76811D1*
X52764Y85562D2*
X52812Y85587D1*
X52884Y85658D1*
Y85156D1*
X53038Y85659D2*
X53158Y85156D1*
X53277Y85659D1*
X53397Y85156D1*
X53517Y85659D1*
X53671D2*
Y85156D1*
X53826Y85419D2*
X54041D1*
X54112Y85444D1*
X54137Y85467D1*
X54161Y85515D1*
Y85563D1*
X54137Y85611D1*
X54112Y85635D1*
X54041Y85659D1*
X53826D1*
Y85156D1*
X53993Y85419D2*
X54161Y85156D1*
X54626Y85659D2*
X54315D1*
Y85156D1*
X54626D1*
X54315Y85419D2*
X54506D1*
X54780Y85396D2*
X54995D1*
X55067Y85419D1*
X55091Y85444D1*
X55115Y85491D1*
Y85563D1*
X55091Y85611D1*
X55067Y85635D1*
X54995Y85659D1*
X54780D1*
Y85156D1*
X55269Y85073D2*
X55724D1*
X55878Y85562D2*
X55926Y85587D1*
X55998Y85658D1*
Y85156D1*
X56296Y85658D2*
X56224Y85634D1*
X56176Y85562D1*
X56152Y85443D1*
Y85371D1*
X56176Y85252D1*
X56224Y85180D1*
X56296Y85156D1*
X56344D1*
X56415Y85180D1*
X56463Y85252D1*
X56487Y85371D1*
Y85443D1*
X56463Y85562D1*
X56415Y85634D1*
X56344Y85658D1*
X56296D1*
X56463Y85562D2*
X56176Y85252D1*
X47858Y77121D2*
X47906Y77146D1*
X47978Y77217D1*
Y76715D1*
X48133Y77217D2*
X48253Y76715D1*
X48372Y77217D1*
X48491Y76715D1*
X48611Y77217D1*
X49124Y77098D2*
X49101Y77146D1*
X49053Y77194D1*
X49005Y77217D1*
X48909D1*
X48861Y77194D1*
X48814Y77146D1*
X48790Y77098D1*
X48766Y77026D1*
Y76906D1*
X48790Y76835D1*
X48814Y76787D1*
X48861Y76739D1*
X48909Y76715D1*
X49005D1*
X49053Y76739D1*
X49101Y76787D1*
X49124Y76835D1*
X49279Y77121D2*
X49327Y77146D1*
X49399Y77217D1*
Y76715D1*
X49553Y76632D2*
X50007D1*
X50162Y77121D2*
X50210Y77146D1*
X50282Y77217D1*
Y76715D1*
X50436Y77121D2*
X50484Y77146D1*
X50556Y77217D1*
Y76715D1*
X45716Y76371D2*
X45764Y76396D1*
X45836Y76467D1*
Y75965D1*
X45991Y76467D2*
X46111Y75965D1*
X46230Y76467D1*
X46349Y75965D1*
X46469Y76467D1*
X46982Y76348D2*
X46959Y76396D1*
X46911Y76444D1*
X46863Y76467D1*
X46767D1*
X46719Y76444D1*
X46672Y76396D1*
X46648Y76348D1*
X46624Y76276D1*
Y76156D1*
X46648Y76085D1*
X46672Y76037D1*
X46719Y75989D1*
X46767Y75965D1*
X46863D1*
X46911Y75989D1*
X46959Y76037D1*
X46982Y76085D1*
X47161Y76347D2*
Y76371D1*
X47185Y76419D1*
X47209Y76443D1*
X47257Y76467D1*
X47352D1*
X47400Y76443D1*
X47424Y76419D1*
X47448Y76371D1*
Y76324D1*
X47424Y76276D1*
X47376Y76204D1*
X47137Y75965D1*
X47472D1*
X47626Y75882D2*
X48081D1*
X48235Y76371D2*
X48283Y76396D1*
X48355Y76467D1*
Y75965D1*
X48509Y76371D2*
X48557Y76396D1*
X48629Y76467D1*
Y75965D1*
X43966Y77121D2*
X44014Y77146D1*
X44086Y77217D1*
Y76715D1*
X44241Y77217D2*
X44361Y76715D1*
X44480Y77217D1*
X44599Y76715D1*
X44719Y77217D1*
X45232Y77098D2*
X45209Y77146D1*
X45161Y77194D1*
X45113Y77217D1*
X45017D1*
X44969Y77194D1*
X44922Y77146D1*
X44897Y77098D1*
X44874Y77026D1*
Y76906D1*
X44897Y76835D1*
X44922Y76787D1*
X44969Y76739D1*
X45017Y76715D1*
X45113D1*
X45161Y76739D1*
X45209Y76787D1*
X45232Y76835D1*
X45435Y77217D2*
X45697D1*
X45554Y77026D1*
X45626D1*
X45674Y77002D1*
X45697Y76978D1*
X45722Y76906D1*
Y76859D1*
X45697Y76787D1*
X45650Y76739D1*
X45578Y76715D1*
X45506D1*
X45435Y76739D1*
X45411Y76763D1*
X45387Y76811D1*
X45876Y76632D2*
X46330D1*
X46485Y77121D2*
X46533Y77146D1*
X46605Y77217D1*
Y76715D1*
X46759Y77121D2*
X46807Y77146D1*
X46879Y77217D1*
Y76715D1*
X45621Y85562D2*
X45669Y85587D1*
X45741Y85658D1*
Y85156D1*
X45896Y85659D2*
X46016Y85156D1*
X46135Y85659D1*
X46254Y85156D1*
X46374Y85659D1*
X46529D2*
Y85156D1*
X46683Y85419D2*
X46898D1*
X46970Y85444D1*
X46994Y85467D1*
X47018Y85515D1*
Y85563D1*
X46994Y85611D1*
X46970Y85635D1*
X46898Y85659D1*
X46683D1*
Y85156D1*
X46851Y85419D2*
X47018Y85156D1*
X47483Y85659D2*
X47172D1*
Y85156D1*
X47483D1*
X47172Y85419D2*
X47364D1*
X47637Y85396D2*
X47853D1*
X47924Y85419D1*
X47949Y85444D1*
X47972Y85491D1*
Y85563D1*
X47949Y85611D1*
X47924Y85635D1*
X47853Y85659D1*
X47637D1*
Y85156D1*
X48127Y85073D2*
X48581D1*
X48735Y85562D2*
X48784Y85587D1*
X48855Y85658D1*
Y85156D1*
X49010Y85562D2*
X49058Y85587D1*
X49130Y85658D1*
Y85156D1*
X40501Y77121D2*
X40549Y77146D1*
X40621Y77217D1*
Y76715D1*
X40775Y77217D2*
X40895Y76715D1*
X41015Y77217D1*
X41134Y76715D1*
X41254Y77217D1*
X41767Y77098D2*
X41743Y77146D1*
X41695Y77194D1*
X41648Y77217D1*
X41552D1*
X41504Y77194D1*
X41456Y77146D1*
X41432Y77098D1*
X41408Y77026D1*
Y76906D1*
X41432Y76835D1*
X41456Y76787D1*
X41504Y76739D1*
X41552Y76715D1*
X41648D1*
X41695Y76739D1*
X41743Y76787D1*
X41767Y76835D1*
X41921Y77121D2*
X41969Y77146D1*
X42041Y77217D1*
Y76715D1*
X42196Y76632D2*
X42650D1*
X42804Y77121D2*
X42852Y77146D1*
X42924Y77217D1*
Y76715D1*
X43103Y77097D2*
Y77121D1*
X43127Y77169D1*
X43151Y77193D1*
X43199Y77217D1*
X43294D1*
X43342Y77193D1*
X43366Y77169D1*
X43390Y77121D1*
Y77074D1*
X43366Y77026D1*
X43318Y76954D1*
X43079Y76715D1*
X43414D1*
X38359Y76371D2*
X38407Y76396D1*
X38479Y76467D1*
Y75965D1*
X38633Y76467D2*
X38753Y75965D1*
X38873Y76467D1*
X38992Y75965D1*
X39112Y76467D1*
X39625Y76348D2*
X39601Y76396D1*
X39553Y76444D1*
X39506Y76467D1*
X39410D1*
X39362Y76444D1*
X39314Y76396D1*
X39290Y76348D1*
X39266Y76276D1*
Y76156D1*
X39290Y76085D1*
X39314Y76037D1*
X39362Y75989D1*
X39410Y75965D1*
X39506D1*
X39553Y75989D1*
X39601Y76037D1*
X39625Y76085D1*
X39804Y76347D2*
Y76371D1*
X39827Y76419D1*
X39851Y76443D1*
X39899Y76467D1*
X39995D1*
X40042Y76443D1*
X40066Y76419D1*
X40091Y76371D1*
Y76324D1*
X40066Y76276D1*
X40019Y76204D1*
X39779Y75965D1*
X40114D1*
X40269Y75882D2*
X40723D1*
X40877Y76371D2*
X40925Y76396D1*
X40997Y76467D1*
Y75965D1*
X41176Y76347D2*
Y76371D1*
X41200Y76419D1*
X41224Y76443D1*
X41272Y76467D1*
X41367D1*
X41415Y76443D1*
X41439Y76419D1*
X41463Y76371D1*
Y76324D1*
X41439Y76276D1*
X41391Y76204D1*
X41152Y75965D1*
X41487D1*
X36609Y77121D2*
X36657Y77146D1*
X36729Y77217D1*
Y76715D1*
X36883Y77217D2*
X37003Y76715D1*
X37123Y77217D1*
X37242Y76715D1*
X37362Y77217D1*
X37875Y77098D2*
X37851Y77146D1*
X37803Y77194D1*
X37756Y77217D1*
X37660D1*
X37612Y77194D1*
X37564Y77146D1*
X37540Y77098D1*
X37516Y77026D1*
Y76906D1*
X37540Y76835D1*
X37564Y76787D1*
X37612Y76739D1*
X37660Y76715D1*
X37756D1*
X37803Y76739D1*
X37851Y76787D1*
X37875Y76835D1*
X38077Y77217D2*
X38340D1*
X38197Y77026D1*
X38269D1*
X38316Y77002D1*
X38340Y76978D1*
X38364Y76906D1*
Y76859D1*
X38340Y76787D1*
X38292Y76739D1*
X38221Y76715D1*
X38149D1*
X38077Y76739D1*
X38054Y76763D1*
X38029Y76811D1*
X38519Y76632D2*
X38973D1*
X39127Y77121D2*
X39175Y77146D1*
X39247Y77217D1*
Y76715D1*
X39426Y77097D2*
Y77121D1*
X39450Y77169D1*
X39474Y77193D1*
X39522Y77217D1*
X39617D1*
X39665Y77193D1*
X39689Y77169D1*
X39713Y77121D1*
Y77074D1*
X39689Y77026D1*
X39641Y76954D1*
X39402Y76715D1*
X39737D1*
X38264Y85562D2*
X38312Y85587D1*
X38384Y85658D1*
Y85156D1*
X38538Y85659D2*
X38658Y85156D1*
X38777Y85659D1*
X38897Y85156D1*
X39017Y85659D1*
X39171D2*
Y85156D1*
X39326Y85419D2*
X39541D1*
X39612Y85444D1*
X39637Y85467D1*
X39661Y85515D1*
Y85563D1*
X39637Y85611D1*
X39612Y85635D1*
X39541Y85659D1*
X39326D1*
Y85156D1*
X39493Y85419D2*
X39661Y85156D1*
X40126Y85659D2*
X39815D1*
Y85156D1*
X40126D1*
X39815Y85419D2*
X40006D1*
X40280Y85396D2*
X40495D1*
X40567Y85419D1*
X40591Y85444D1*
X40615Y85491D1*
Y85563D1*
X40591Y85611D1*
X40567Y85635D1*
X40495Y85659D1*
X40280D1*
Y85156D1*
X40769Y85073D2*
X41224D1*
X41378Y85562D2*
X41426Y85587D1*
X41498Y85658D1*
Y85156D1*
X41677Y85539D2*
Y85562D1*
X41700Y85611D1*
X41724Y85634D1*
X41772Y85658D1*
X41868D1*
X41915Y85634D1*
X41939Y85611D1*
X41963Y85562D1*
Y85515D1*
X41939Y85467D1*
X41892Y85396D1*
X41652Y85156D1*
X41987D1*
X33251Y77121D2*
X33299Y77146D1*
X33371Y77217D1*
Y76715D1*
X33525Y77217D2*
X33645Y76715D1*
X33765Y77217D1*
X33884Y76715D1*
X34004Y77217D1*
X34517Y77098D2*
X34493Y77146D1*
X34445Y77194D1*
X34398Y77217D1*
X34302D1*
X34254Y77194D1*
X34206Y77146D1*
X34182Y77098D1*
X34158Y77026D1*
Y76906D1*
X34182Y76835D1*
X34206Y76787D1*
X34254Y76739D1*
X34302Y76715D1*
X34398D1*
X34445Y76739D1*
X34493Y76787D1*
X34517Y76835D1*
X34671Y77121D2*
X34719Y77146D1*
X34791Y77217D1*
Y76715D1*
X34946Y76632D2*
X35400D1*
X35554Y77121D2*
X35602Y77146D1*
X35674Y77217D1*
Y76715D1*
X35877Y77217D2*
X36139D1*
X35996Y77026D1*
X36068D1*
X36116Y77002D1*
X36139Y76978D1*
X36164Y76906D1*
Y76859D1*
X36139Y76787D1*
X36092Y76739D1*
X36020Y76715D1*
X35948D1*
X35877Y76739D1*
X35853Y76763D1*
X35829Y76811D1*
X31109Y76371D2*
X31157Y76396D1*
X31229Y76467D1*
Y75965D1*
X31383Y76467D2*
X31503Y75965D1*
X31623Y76467D1*
X31742Y75965D1*
X31862Y76467D1*
X32375Y76348D2*
X32351Y76396D1*
X32303Y76444D1*
X32256Y76467D1*
X32160D1*
X32112Y76444D1*
X32064Y76396D1*
X32040Y76348D1*
X32016Y76276D1*
Y76156D1*
X32040Y76085D1*
X32064Y76037D1*
X32112Y75989D1*
X32160Y75965D1*
X32256D1*
X32303Y75989D1*
X32351Y76037D1*
X32375Y76085D1*
X32554Y76347D2*
Y76371D1*
X32577Y76419D1*
X32601Y76443D1*
X32649Y76467D1*
X32745D1*
X32792Y76443D1*
X32816Y76419D1*
X32841Y76371D1*
Y76324D1*
X32816Y76276D1*
X32769Y76204D1*
X32529Y75965D1*
X32864D1*
X33019Y75882D2*
X33473D1*
X33627Y76371D2*
X33675Y76396D1*
X33747Y76467D1*
Y75965D1*
X33950Y76467D2*
X34212D1*
X34069Y76276D1*
X34141D1*
X34189Y76252D1*
X34212Y76228D1*
X34237Y76156D1*
Y76109D1*
X34212Y76037D1*
X34165Y75989D1*
X34093Y75965D1*
X34021D1*
X33950Y75989D1*
X33926Y76013D1*
X33902Y76061D1*
X29359Y77121D2*
X29407Y77146D1*
X29479Y77217D1*
Y76715D1*
X29633Y77217D2*
X29753Y76715D1*
X29873Y77217D1*
X29992Y76715D1*
X30112Y77217D1*
X30625Y77098D2*
X30601Y77146D1*
X30553Y77194D1*
X30506Y77217D1*
X30410D1*
X30362Y77194D1*
X30314Y77146D1*
X30290Y77098D1*
X30266Y77026D1*
Y76906D1*
X30290Y76835D1*
X30314Y76787D1*
X30362Y76739D1*
X30410Y76715D1*
X30506D1*
X30553Y76739D1*
X30601Y76787D1*
X30625Y76835D1*
X30827Y77217D2*
X31090D1*
X30947Y77026D1*
X31019D1*
X31066Y77002D1*
X31090Y76978D1*
X31114Y76906D1*
Y76859D1*
X31090Y76787D1*
X31042Y76739D1*
X30971Y76715D1*
X30899D1*
X30827Y76739D1*
X30804Y76763D1*
X30779Y76811D1*
X31269Y76632D2*
X31723D1*
X31877Y77121D2*
X31925Y77146D1*
X31997Y77217D1*
Y76715D1*
X32200Y77217D2*
X32462D1*
X32319Y77026D1*
X32391D1*
X32439Y77002D1*
X32462Y76978D1*
X32487Y76906D1*
Y76859D1*
X32462Y76787D1*
X32415Y76739D1*
X32343Y76715D1*
X32271D1*
X32200Y76739D1*
X32176Y76763D1*
X32152Y76811D1*
X31014Y85562D2*
X31062Y85587D1*
X31134Y85658D1*
Y85156D1*
X31288Y85659D2*
X31408Y85156D1*
X31527Y85659D1*
X31647Y85156D1*
X31767Y85659D1*
X31921D2*
Y85156D1*
X32076Y85419D2*
X32291D1*
X32362Y85444D1*
X32387Y85467D1*
X32411Y85515D1*
Y85563D1*
X32387Y85611D1*
X32362Y85635D1*
X32291Y85659D1*
X32076D1*
Y85156D1*
X32243Y85419D2*
X32411Y85156D1*
X32876Y85659D2*
X32565D1*
Y85156D1*
X32876D1*
X32565Y85419D2*
X32756D1*
X33030Y85396D2*
X33245D1*
X33317Y85419D1*
X33341Y85444D1*
X33365Y85491D1*
Y85563D1*
X33341Y85611D1*
X33317Y85635D1*
X33245Y85659D1*
X33030D1*
Y85156D1*
X33519Y85073D2*
X33974D1*
X34128Y85562D2*
X34176Y85587D1*
X34248Y85658D1*
Y85156D1*
X34450Y85658D2*
X34713D1*
X34570Y85467D1*
X34642D1*
X34689Y85443D1*
X34713Y85419D1*
X34737Y85347D1*
Y85300D1*
X34713Y85228D1*
X34665Y85180D1*
X34594Y85156D1*
X34522D1*
X34450Y85180D1*
X34427Y85204D1*
X34402Y85252D1*
X25989Y77121D2*
X26037Y77146D1*
X26109Y77217D1*
Y76715D1*
X26263Y77217D2*
X26383Y76715D1*
X26503Y77217D1*
X26622Y76715D1*
X26742Y77217D1*
X27255Y77098D2*
X27231Y77146D1*
X27183Y77194D1*
X27136Y77217D1*
X27040D1*
X26992Y77194D1*
X26944Y77146D1*
X26920Y77098D1*
X26896Y77026D1*
Y76906D1*
X26920Y76835D1*
X26944Y76787D1*
X26992Y76739D1*
X27040Y76715D1*
X27136D1*
X27183Y76739D1*
X27231Y76787D1*
X27255Y76835D1*
X27409Y77121D2*
X27458Y77146D1*
X27529Y77217D1*
Y76715D1*
X27684Y76632D2*
X28138D1*
X28292Y77121D2*
X28341Y77146D1*
X28412Y77217D1*
Y76715D1*
X28806D2*
Y77217D1*
X28567Y76882D1*
X28926D1*
X23847Y76371D2*
X23895Y76396D1*
X23967Y76467D1*
Y75965D1*
X24121Y76467D2*
X24241Y75965D1*
X24361Y76467D1*
X24480Y75965D1*
X24600Y76467D1*
X25113Y76348D2*
X25089Y76396D1*
X25041Y76444D1*
X24994Y76467D1*
X24898D1*
X24850Y76444D1*
X24802Y76396D1*
X24778Y76348D1*
X24754Y76276D1*
Y76156D1*
X24778Y76085D1*
X24802Y76037D1*
X24850Y75989D1*
X24898Y75965D1*
X24994D1*
X25041Y75989D1*
X25089Y76037D1*
X25113Y76085D1*
X25292Y76347D2*
Y76371D1*
X25316Y76419D1*
X25339Y76443D1*
X25387Y76467D1*
X25483D1*
X25531Y76443D1*
X25554Y76419D1*
X25579Y76371D1*
Y76324D1*
X25554Y76276D1*
X25507Y76204D1*
X25267Y75965D1*
X25602D1*
X25757Y75882D2*
X26211D1*
X26366Y76371D2*
X26414Y76396D1*
X26485Y76467D1*
Y75965D1*
X26879D2*
Y76467D1*
X26640Y76132D1*
X26999D1*
X22097Y77121D2*
X22145Y77146D1*
X22217Y77217D1*
Y76715D1*
X22371Y77217D2*
X22491Y76715D1*
X22611Y77217D1*
X22730Y76715D1*
X22850Y77217D1*
X23363Y77098D2*
X23339Y77146D1*
X23291Y77194D1*
X23244Y77217D1*
X23148D1*
X23100Y77194D1*
X23052Y77146D1*
X23028Y77098D1*
X23004Y77026D1*
Y76906D1*
X23028Y76835D1*
X23052Y76787D1*
X23100Y76739D1*
X23148Y76715D1*
X23244D1*
X23291Y76739D1*
X23339Y76787D1*
X23363Y76835D1*
X23566Y77217D2*
X23828D1*
X23685Y77026D1*
X23757D1*
X23804Y77002D1*
X23828Y76978D1*
X23852Y76906D1*
Y76859D1*
X23828Y76787D1*
X23781Y76739D1*
X23709Y76715D1*
X23637D1*
X23566Y76739D1*
X23542Y76763D1*
X23517Y76811D1*
X24007Y76632D2*
X24461D1*
X24615Y77121D2*
X24664Y77146D1*
X24735Y77217D1*
Y76715D1*
X25129D2*
Y77217D1*
X24890Y76882D1*
X25248D1*
X23752Y85562D2*
X23800Y85587D1*
X23872Y85658D1*
Y85156D1*
X24026Y85659D2*
X24146Y85156D1*
X24266Y85659D1*
X24385Y85156D1*
X24505Y85659D1*
X24659D2*
Y85156D1*
X24814Y85419D2*
X25029D1*
X25101Y85444D1*
X25125Y85467D1*
X25149Y85515D1*
Y85563D1*
X25125Y85611D1*
X25101Y85635D1*
X25029Y85659D1*
X24814D1*
Y85156D1*
X24981Y85419D2*
X25149Y85156D1*
X25614Y85659D2*
X25303D1*
Y85156D1*
X25614D1*
X25303Y85419D2*
X25494D1*
X25768Y85396D2*
X25984D1*
X26055Y85419D1*
X26079Y85444D1*
X26103Y85491D1*
Y85563D1*
X26079Y85611D1*
X26055Y85635D1*
X25984Y85659D1*
X25768D1*
Y85156D1*
X26257Y85073D2*
X26712D1*
X26866Y85562D2*
X26914Y85587D1*
X26986Y85658D1*
Y85156D1*
X27380D2*
Y85658D1*
X27140Y85324D1*
X27499D1*
X19001Y77121D2*
X19049Y77146D1*
X19121Y77217D1*
Y76715D1*
X19275Y77217D2*
X19395Y76715D1*
X19515Y77217D1*
X19634Y76715D1*
X19754Y77217D1*
X20267Y77098D2*
X20243Y77146D1*
X20195Y77194D1*
X20148Y77217D1*
X20052D1*
X20004Y77194D1*
X19956Y77146D1*
X19932Y77098D1*
X19908Y77026D1*
Y76906D1*
X19932Y76835D1*
X19956Y76787D1*
X20004Y76739D1*
X20052Y76715D1*
X20148D1*
X20195Y76739D1*
X20243Y76787D1*
X20267Y76835D1*
X20421Y77121D2*
X20469Y77146D1*
X20541Y77217D1*
Y76715D1*
X20696Y76632D2*
X21150D1*
X21304Y77121D2*
X21352Y77146D1*
X21424Y77217D1*
Y76715D1*
X21866Y77217D2*
X21627D1*
X21603Y77002D1*
X21627Y77026D1*
X21699Y77050D1*
X21770D1*
X21842Y77026D1*
X21890Y76978D1*
X21914Y76906D1*
Y76859D1*
X21890Y76787D1*
X21842Y76739D1*
X21770Y76715D1*
X21699D1*
X21627Y76739D1*
X21603Y76763D1*
X21579Y76811D1*
X16859Y76371D2*
X16907Y76396D1*
X16979Y76467D1*
Y75965D1*
X17133Y76467D2*
X17253Y75965D1*
X17373Y76467D1*
X17492Y75965D1*
X17612Y76467D1*
X18125Y76348D2*
X18101Y76396D1*
X18053Y76444D1*
X18006Y76467D1*
X17910D1*
X17862Y76444D1*
X17814Y76396D1*
X17790Y76348D1*
X17766Y76276D1*
Y76156D1*
X17790Y76085D1*
X17814Y76037D1*
X17862Y75989D1*
X17910Y75965D1*
X18006D1*
X18053Y75989D1*
X18101Y76037D1*
X18125Y76085D1*
X18304Y76347D2*
Y76371D1*
X18327Y76419D1*
X18351Y76443D1*
X18399Y76467D1*
X18495D1*
X18542Y76443D1*
X18566Y76419D1*
X18591Y76371D1*
Y76324D1*
X18566Y76276D1*
X18519Y76204D1*
X18279Y75965D1*
X18614D1*
X18769Y75882D2*
X19223D1*
X19377Y76371D2*
X19425Y76396D1*
X19497Y76467D1*
Y75965D1*
X19939Y76467D2*
X19700D1*
X19676Y76252D1*
X19700Y76276D1*
X19772Y76300D1*
X19843D1*
X19915Y76276D1*
X19963Y76228D1*
X19987Y76156D1*
Y76109D1*
X19963Y76037D1*
X19915Y75989D1*
X19843Y75965D1*
X19772D1*
X19700Y75989D1*
X19676Y76013D1*
X19652Y76061D1*
X15109Y77121D2*
X15157Y77146D1*
X15229Y77217D1*
Y76715D1*
X15383Y77217D2*
X15503Y76715D1*
X15623Y77217D1*
X15742Y76715D1*
X15862Y77217D1*
X16375Y77098D2*
X16351Y77146D1*
X16303Y77194D1*
X16256Y77217D1*
X16160D1*
X16112Y77194D1*
X16064Y77146D1*
X16040Y77098D1*
X16016Y77026D1*
Y76906D1*
X16040Y76835D1*
X16064Y76787D1*
X16112Y76739D1*
X16160Y76715D1*
X16256D1*
X16303Y76739D1*
X16351Y76787D1*
X16375Y76835D1*
X16577Y77217D2*
X16840D1*
X16697Y77026D1*
X16769D1*
X16816Y77002D1*
X16840Y76978D1*
X16864Y76906D1*
Y76859D1*
X16840Y76787D1*
X16792Y76739D1*
X16721Y76715D1*
X16649D1*
X16577Y76739D1*
X16554Y76763D1*
X16529Y76811D1*
X17019Y76632D2*
X17473D1*
X17627Y77121D2*
X17675Y77146D1*
X17747Y77217D1*
Y76715D1*
X18189Y77217D2*
X17950D1*
X17926Y77002D1*
X17950Y77026D1*
X18022Y77050D1*
X18093D1*
X18165Y77026D1*
X18213Y76978D1*
X18237Y76906D1*
Y76859D1*
X18213Y76787D1*
X18165Y76739D1*
X18093Y76715D1*
X18022D1*
X17950Y76739D1*
X17926Y76763D1*
X17902Y76811D1*
X16764Y85562D2*
X16812Y85587D1*
X16884Y85658D1*
Y85156D1*
X17038Y85659D2*
X17158Y85156D1*
X17277Y85659D1*
X17397Y85156D1*
X17517Y85659D1*
X17671D2*
Y85156D1*
X17826Y85419D2*
X18041D1*
X18112Y85444D1*
X18137Y85467D1*
X18161Y85515D1*
Y85563D1*
X18137Y85611D1*
X18112Y85635D1*
X18041Y85659D1*
X17826D1*
Y85156D1*
X17993Y85419D2*
X18161Y85156D1*
X18626Y85659D2*
X18315D1*
Y85156D1*
X18626D1*
X18315Y85419D2*
X18506D1*
X18780Y85396D2*
X18995D1*
X19067Y85419D1*
X19091Y85444D1*
X19115Y85491D1*
Y85563D1*
X19091Y85611D1*
X19067Y85635D1*
X18995Y85659D1*
X18780D1*
Y85156D1*
X19269Y85073D2*
X19724D1*
X19878Y85562D2*
X19926Y85587D1*
X19998Y85658D1*
Y85156D1*
X20439Y85658D2*
X20200D1*
X20177Y85443D1*
X20200Y85467D1*
X20272Y85491D1*
X20344D1*
X20415Y85467D1*
X20463Y85419D1*
X20487Y85347D1*
Y85300D1*
X20463Y85228D1*
X20415Y85180D1*
X20344Y85156D1*
X20272D1*
X20200Y85180D1*
X20177Y85204D1*
X20152Y85252D1*
X12013Y77121D2*
X12061Y77146D1*
X12133Y77217D1*
Y76715D1*
X12287Y77217D2*
X12407Y76715D1*
X12527Y77217D1*
X12646Y76715D1*
X12766Y77217D1*
X13279Y77098D2*
X13255Y77146D1*
X13207Y77194D1*
X13160Y77217D1*
X13064D1*
X13016Y77194D1*
X12968Y77146D1*
X12944Y77098D1*
X12920Y77026D1*
Y76906D1*
X12944Y76835D1*
X12968Y76787D1*
X13016Y76739D1*
X13064Y76715D1*
X13160D1*
X13207Y76739D1*
X13255Y76787D1*
X13279Y76835D1*
X13434Y77121D2*
X13482Y77146D1*
X13553Y77217D1*
Y76715D1*
X13708Y76632D2*
X14162D1*
X14317Y77121D2*
X14365Y77146D1*
X14436Y77217D1*
Y76715D1*
X14878Y77146D2*
X14854Y77193D1*
X14782Y77217D1*
X14735D1*
X14663Y77193D1*
X14615Y77121D1*
X14591Y77002D1*
Y76882D1*
X14615Y76787D1*
X14663Y76739D1*
X14735Y76715D1*
X14758D1*
X14830Y76739D1*
X14878Y76787D1*
X14901Y76859D1*
Y76882D1*
X14878Y76954D1*
X14830Y77002D1*
X14758Y77026D1*
X14735D1*
X14663Y77002D1*
X14615Y76954D1*
X14591Y76882D1*
X9871Y76371D2*
X9919Y76396D1*
X9991Y76467D1*
Y75965D1*
X10145Y76467D2*
X10265Y75965D1*
X10385Y76467D1*
X10504Y75965D1*
X10624Y76467D1*
X11137Y76348D2*
X11113Y76396D1*
X11065Y76444D1*
X11018Y76467D1*
X10922D1*
X10874Y76444D1*
X10827Y76396D1*
X10802Y76348D1*
X10778Y76276D1*
Y76156D1*
X10802Y76085D1*
X10827Y76037D1*
X10874Y75989D1*
X10922Y75965D1*
X11018D1*
X11065Y75989D1*
X11113Y76037D1*
X11137Y76085D1*
X11316Y76347D2*
Y76371D1*
X11340Y76419D1*
X11363Y76443D1*
X11411Y76467D1*
X11507D1*
X11555Y76443D1*
X11578Y76419D1*
X11603Y76371D1*
Y76324D1*
X11578Y76276D1*
X11531Y76204D1*
X11292Y75965D1*
X11626D1*
X11781Y75882D2*
X12235D1*
X12390Y76371D2*
X12438Y76396D1*
X12509Y76467D1*
Y75965D1*
X12951Y76396D2*
X12927Y76443D1*
X12855Y76467D1*
X12808D1*
X12736Y76443D1*
X12688Y76371D1*
X12664Y76252D1*
Y76132D1*
X12688Y76037D1*
X12736Y75989D1*
X12808Y75965D1*
X12831D1*
X12903Y75989D1*
X12951Y76037D1*
X12974Y76109D1*
Y76132D1*
X12951Y76204D1*
X12903Y76252D1*
X12831Y76276D1*
X12808D1*
X12736Y76252D1*
X12688Y76204D1*
X12664Y76132D1*
X8121Y77121D2*
X8169Y77146D1*
X8241Y77217D1*
Y76715D1*
X8395Y77217D2*
X8515Y76715D1*
X8635Y77217D1*
X8754Y76715D1*
X8874Y77217D1*
X9387Y77098D2*
X9363Y77146D1*
X9315Y77194D1*
X9268Y77217D1*
X9172D1*
X9124Y77194D1*
X9076Y77146D1*
X9052Y77098D1*
X9028Y77026D1*
Y76906D1*
X9052Y76835D1*
X9076Y76787D1*
X9124Y76739D1*
X9172Y76715D1*
X9268D1*
X9315Y76739D1*
X9363Y76787D1*
X9387Y76835D1*
X9590Y77217D2*
X9852D1*
X9709Y77026D1*
X9781D1*
X9828Y77002D1*
X9852Y76978D1*
X9876Y76906D1*
Y76859D1*
X9852Y76787D1*
X9805Y76739D1*
X9733Y76715D1*
X9661D1*
X9590Y76739D1*
X9566Y76763D1*
X9541Y76811D1*
X10031Y76632D2*
X10485D1*
X10640Y77121D2*
X10688Y77146D1*
X10759Y77217D1*
Y76715D1*
X11201Y77146D2*
X11177Y77193D1*
X11105Y77217D1*
X11058D1*
X10986Y77193D1*
X10938Y77121D1*
X10914Y77002D1*
Y76882D1*
X10938Y76787D1*
X10986Y76739D1*
X11058Y76715D1*
X11081D1*
X11153Y76739D1*
X11201Y76787D1*
X11224Y76859D1*
Y76882D1*
X11201Y76954D1*
X11153Y77002D1*
X11081Y77026D1*
X11058D1*
X10986Y77002D1*
X10938Y76954D1*
X10914Y76882D1*
X9776Y85562D2*
X9824Y85587D1*
X9896Y85658D1*
Y85156D1*
X10050Y85659D2*
X10170Y85156D1*
X10290Y85659D1*
X10409Y85156D1*
X10529Y85659D1*
X10683D2*
Y85156D1*
X10838Y85419D2*
X11053D1*
X11125Y85444D1*
X11149Y85467D1*
X11173Y85515D1*
Y85563D1*
X11149Y85611D1*
X11125Y85635D1*
X11053Y85659D1*
X10838D1*
Y85156D1*
X11005Y85419D2*
X11173Y85156D1*
X11638Y85659D2*
X11327D1*
Y85156D1*
X11638D1*
X11327Y85419D2*
X11518D1*
X11792Y85396D2*
X12008D1*
X12079Y85419D1*
X12103Y85444D1*
X12127Y85491D1*
Y85563D1*
X12103Y85611D1*
X12079Y85635D1*
X12008Y85659D1*
X11792D1*
Y85156D1*
X12281Y85073D2*
X12736D1*
X12890Y85562D2*
X12938Y85587D1*
X13010Y85658D1*
Y85156D1*
X13451Y85587D2*
X13428Y85634D1*
X13356Y85658D1*
X13308D1*
X13236Y85634D1*
X13188Y85562D1*
X13164Y85443D1*
Y85324D1*
X13188Y85228D1*
X13236Y85180D1*
X13308Y85156D1*
X13332D1*
X13403Y85180D1*
X13451Y85228D1*
X13475Y85300D1*
Y85324D1*
X13451Y85396D1*
X13403Y85443D1*
X13332Y85467D1*
X13308D1*
X13236Y85443D1*
X13188Y85396D1*
X13164Y85324D1*
X31290Y9527D2*
D51*
X30812D1*
X30765Y9097D1*
X30812Y9144D1*
X30956Y9193D1*
X31099D1*
X31242Y9144D1*
X31338Y9049D1*
X31386Y8905D1*
Y8810D1*
X31338Y8667D1*
X31242Y8570D1*
X31099Y8523D1*
X30956D1*
X30812Y8570D1*
X30765Y8619D1*
X30716Y8714D1*
X30442Y7359D2*
X30538Y7408D1*
X30682Y7550D1*
Y6547D1*
X31039Y7312D2*
Y7359D1*
X31087Y7455D1*
X31134Y7503D1*
X31230Y7550D1*
X31422D1*
X31517Y7503D1*
X31564Y7455D1*
X31613Y7359D1*
Y7264D1*
X31564Y7168D1*
X31469Y7025D1*
X30990Y6547D1*
X31660D1*
X31410Y11313D2*
X31362Y11408D1*
X31266Y11504D1*
X31171Y11552D1*
X30980D1*
X30884Y11504D1*
X30789Y11408D1*
X30740Y11313D1*
X30692Y11169D1*
Y10929D1*
X30740Y10787D1*
X30789Y10691D1*
X30884Y10596D1*
X30980Y10547D1*
X31171D1*
X31266Y10596D1*
X31362Y10691D1*
X31410Y10787D1*
Y10929D1*
X31171D1*
%LNBoardOutline*%
X3940Y3940D2*
D11*
X66440D1*
Y90190D1*
X3940D1*
Y3940D1*
M02*
